<svg width="186" height="133" viewBox="0 0 186 133" fill="none" xmlns="http://www.w3.org/2000/svg">
<g clip-path="url(#clip0_1127_10918)">
<rect width="186" height="132.756" rx="9.85622" fill="#F6F9FC"/>
<circle cx="94" cy="52" r="26" fill="#131314"/>
<path d="M98 49C98.6491 49.8655 99 50.9182 99 52C99 53.0819 98.6491 54.1345 98 55M101.364 58.364C102.2 57.5283 102.863 56.5361 103.315 55.4442C103.767 54.3523 104 53.1819 104 52C104 50.8181 103.767 49.6478 103.315 48.5559C102.863 47.4639 102.2 46.4718 101.364 45.636M93 44.702C92.9998 44.5627 92.9583 44.4266 92.8809 44.3109C92.8034 44.1951 92.6934 44.1049 92.5647 44.0517C92.436 43.9984 92.2944 43.9844 92.1577 44.0115C92.0211 44.0387 91.8956 44.1056 91.797 44.204L88.413 47.587C88.2824 47.7184 88.127 47.8226 87.9559 47.8935C87.7848 47.9643 87.6012 48.0006 87.416 48H85C84.7348 48 84.4804 48.1054 84.2929 48.2929C84.1054 48.4805 84 48.7348 84 49V55C84 55.2652 84.1054 55.5196 84.2929 55.7071C84.4804 55.8947 84.7348 56 85 56H87.416C87.6012 55.9995 87.7848 56.0357 87.9559 56.1066C88.127 56.1775 88.2824 56.2817 88.413 56.413L91.796 59.797C91.8946 59.8958 92.0203 59.9631 92.1572 59.9904C92.2941 60.0177 92.436 60.0037 92.5649 59.9503C92.6939 59.8968 92.804 59.8063 92.8815 59.6902C92.959 59.5741 93.0002 59.4376 93 59.298V44.702Z" stroke="white" stroke-width="2" stroke-linecap="round" stroke-linejoin="round"/>
<path d="M26.8099 110C26.7019 110 26.6074 109.96 26.5265 109.879C26.4455 109.798 26.405 109.703 26.405 109.595C26.405 109.528 26.4117 109.453 26.4252 109.372L31.4467 96.2718C31.5007 96.1368 31.575 96.0288 31.6695 95.9478C31.764 95.8668 31.9057 95.8263 32.0947 95.8263H33.4716C33.647 95.8263 33.782 95.8668 33.8765 95.9478C33.9845 96.0288 34.0655 96.1368 34.1195 96.2718L39.1208 109.372C39.1478 109.453 39.1613 109.528 39.1613 109.595C39.1613 109.703 39.1208 109.798 39.0398 109.879C38.9588 109.96 38.8643 110 38.7563 110H37.7237C37.5617 110 37.4402 109.96 37.3592 109.879C37.2917 109.798 37.2445 109.723 37.2175 109.656L36.1038 106.781H29.4624L28.3488 109.656C28.3353 109.723 28.288 109.798 28.207 109.879C28.1261 109.96 28.0046 110 27.8426 110H26.8099ZM30.0496 105.039H35.5166L32.7831 97.8511L30.0496 105.039ZM41.7717 110C41.6367 110 41.522 109.96 41.4275 109.879C41.3465 109.784 41.306 109.669 41.306 109.534V99.9569C41.306 99.8219 41.3465 99.7072 41.4275 99.6127C41.522 99.5182 41.6367 99.471 41.7717 99.471H42.7031C42.8381 99.471 42.9528 99.5182 43.0473 99.6127C43.1418 99.7072 43.1891 99.8219 43.1891 99.9569V100.848C43.459 100.389 43.8303 100.045 44.3027 99.8152C44.7752 99.5857 45.3421 99.471 46.0036 99.471H46.8135C46.9485 99.471 47.0565 99.5182 47.1374 99.6127C47.2184 99.6937 47.2589 99.8017 47.2589 99.9367V100.767C47.2589 100.902 47.2184 101.01 47.1374 101.091C47.0565 101.172 46.9485 101.212 46.8135 101.212H45.5986C44.8697 101.212 44.296 101.428 43.8775 101.86C43.459 102.279 43.2498 102.852 43.2498 103.581V109.534C43.2498 109.669 43.2026 109.784 43.1081 109.879C43.0136 109.96 42.8988 110 42.7639 110H41.7717ZM49.7066 110C49.5716 110 49.4569 109.96 49.3624 109.879C49.2814 109.784 49.2409 109.669 49.2409 109.534V99.9367C49.2409 99.8017 49.2814 99.6937 49.3624 99.6127C49.4569 99.5182 49.5716 99.471 49.7066 99.471H50.6785C50.8135 99.471 50.9215 99.5182 51.0025 99.6127C51.0835 99.6937 51.124 99.8017 51.124 99.9367V109.534C51.124 109.669 51.0835 109.784 51.0025 109.879C50.9215 109.96 50.8135 110 50.6785 110H49.7066ZM49.5446 97.5069C49.4096 97.5069 49.2949 97.4664 49.2004 97.3854C49.1194 97.2909 49.0789 97.1762 49.0789 97.0412V95.9478C49.0789 95.8128 49.1194 95.7048 49.2004 95.6238C49.2949 95.5294 49.4096 95.4821 49.5446 95.4821H50.8202C50.9552 95.4821 51.0632 95.5294 51.1442 95.6238C51.2387 95.7048 51.2859 95.8128 51.2859 95.9478V97.0412C51.2859 97.1762 51.2387 97.2909 51.1442 97.3854C51.0632 97.4664 50.9552 97.5069 50.8202 97.5069H49.5446ZM57.3237 110.202C56.6487 110.202 56.0345 110.067 55.4811 109.798C54.9276 109.528 54.4822 109.163 54.1447 108.704C53.8072 108.245 53.6385 107.725 53.6385 107.145C53.6385 106.214 54.0165 105.471 54.7724 104.918C55.5283 104.364 56.5137 104 57.7286 103.824L60.7456 103.399V102.812C60.7456 102.164 60.5566 101.658 60.1787 101.293C59.8142 100.929 59.2135 100.747 58.3766 100.747C57.7691 100.747 57.2764 100.868 56.8985 101.111C56.534 101.354 56.2775 101.665 56.129 102.042C56.048 102.245 55.9063 102.346 55.7038 102.346H54.7927C54.6442 102.346 54.5294 102.306 54.4484 102.225C54.3809 102.13 54.3472 102.022 54.3472 101.901C54.3472 101.698 54.4214 101.449 54.5699 101.152C54.7319 100.855 54.9749 100.564 55.2989 100.281C55.6228 99.9974 56.0345 99.7612 56.534 99.5722C57.0469 99.3697 57.6679 99.2685 58.3968 99.2685C59.2067 99.2685 59.8884 99.3765 60.4419 99.5925C60.9953 99.795 61.4273 100.072 61.7378 100.423C62.0617 100.774 62.2912 101.172 62.4262 101.617C62.5747 102.063 62.6489 102.515 62.6489 102.974V109.534C62.6489 109.669 62.6017 109.784 62.5072 109.879C62.4262 109.96 62.3182 110 62.1832 110H61.2518C61.1033 110 60.9886 109.96 60.9076 109.879C60.8266 109.784 60.7861 109.669 60.7861 109.534V108.664C60.6106 108.907 60.3744 109.15 60.0774 109.393C59.7804 109.622 59.4092 109.818 58.9638 109.98C58.5183 110.128 57.9716 110.202 57.3237 110.202ZM57.7489 108.684C58.3023 108.684 58.8085 108.569 59.2675 108.34C59.7264 108.097 60.0842 107.725 60.3406 107.226C60.6106 106.727 60.7456 106.099 60.7456 105.343V104.776L58.3968 105.12C57.4384 105.255 56.7162 105.485 56.2303 105.809C55.7443 106.119 55.5013 106.517 55.5013 107.003C55.5013 107.381 55.6093 107.698 55.8253 107.955C56.0548 108.198 56.3383 108.38 56.6757 108.502C57.0267 108.623 57.3844 108.684 57.7489 108.684ZM66.1672 104.776C66.0322 104.776 65.9175 104.735 65.823 104.654C65.742 104.56 65.7015 104.445 65.7015 104.31V103.541C65.7015 103.406 65.742 103.298 65.823 103.217C65.9175 103.122 66.0322 103.075 66.1672 103.075H72.2416C72.3766 103.075 72.4846 103.122 72.5656 103.217C72.6601 103.298 72.7073 103.406 72.7073 103.541V104.31C72.7073 104.445 72.6601 104.56 72.5656 104.654C72.4846 104.735 72.3766 104.776 72.2416 104.776H66.1672ZM76.3393 110C76.2043 110 76.0896 109.96 75.9951 109.879C75.9141 109.784 75.8736 109.669 75.8736 109.534V96.0895C75.8736 95.9546 75.9141 95.8466 75.9951 95.7656C76.0896 95.6711 76.2043 95.6238 76.3393 95.6238H77.291C77.4395 95.6238 77.5542 95.6711 77.6352 95.7656C77.7162 95.8466 77.7567 95.9546 77.7567 96.0895V109.534C77.7567 109.669 77.7162 109.784 77.6352 109.879C77.5542 109.96 77.4395 110 77.291 110H76.3393ZM83.9559 110.202C83.281 110.202 82.6668 110.067 82.1134 109.798C81.5599 109.528 81.1145 109.163 80.777 108.704C80.4395 108.245 80.2708 107.725 80.2708 107.145C80.2708 106.214 80.6488 105.471 81.4047 104.918C82.1606 104.364 83.146 104 84.3609 103.824L87.3779 103.399V102.812C87.3779 102.164 87.1889 101.658 86.8109 101.293C86.4465 100.929 85.8458 100.747 85.0088 100.747C84.4014 100.747 83.9087 100.868 83.5307 101.111C83.1663 101.354 82.9098 101.665 82.7613 102.042C82.6803 102.245 82.5386 102.346 82.3361 102.346H81.4249C81.2764 102.346 81.1617 102.306 81.0807 102.225C81.0132 102.13 80.9795 102.022 80.9795 101.901C80.9795 101.698 81.0537 101.449 81.2022 101.152C81.3642 100.855 81.6072 100.564 81.9311 100.281C82.2551 99.9974 82.6668 99.7612 83.1663 99.5722C83.6792 99.3697 84.3002 99.2685 85.0291 99.2685C85.839 99.2685 86.5207 99.3765 87.0742 99.5925C87.6276 99.795 88.0596 100.072 88.37 100.423C88.694 100.774 88.9235 101.172 89.0585 101.617C89.207 102.063 89.2812 102.515 89.2812 102.974V109.534C89.2812 109.669 89.234 109.784 89.1395 109.879C89.0585 109.96 88.9505 110 88.8155 110H87.8841C87.7356 110 87.6209 109.96 87.5399 109.879C87.4589 109.784 87.4184 109.669 87.4184 109.534V108.664C87.2429 108.907 87.0067 109.15 86.7097 109.393C86.4127 109.622 86.0415 109.818 85.596 109.98C85.1506 110.128 84.6039 110.202 83.9559 110.202ZM84.3812 108.684C84.9346 108.684 85.4408 108.569 85.8998 108.34C86.3587 108.097 86.7164 107.725 86.9729 107.226C87.2429 106.727 87.3779 106.099 87.3779 105.343V104.776L85.0291 105.12C84.0707 105.255 83.3485 105.485 82.8625 105.809C82.3766 106.119 82.1336 106.517 82.1336 107.003C82.1336 107.381 82.2416 107.698 82.4576 107.955C82.6871 108.198 82.9705 108.38 83.308 108.502C83.659 108.623 84.0167 108.684 84.3812 108.684ZM97.6388 110.202C96.8288 110.202 96.1539 110.061 95.614 109.777C95.074 109.48 94.642 109.116 94.3181 108.684V109.534C94.3181 109.669 94.2708 109.784 94.1763 109.879C94.0953 109.96 93.9874 110 93.8524 110H92.921C92.786 110 92.6712 109.96 92.5767 109.879C92.4957 109.784 92.4552 109.669 92.4552 109.534V96.0895C92.4552 95.9546 92.4957 95.8466 92.5767 95.7656C92.6712 95.6711 92.786 95.6238 92.921 95.6238H93.8929C94.0413 95.6238 94.1561 95.6711 94.2371 95.7656C94.3181 95.8466 94.3586 95.9546 94.3586 96.0895V100.747C94.696 100.328 95.128 99.9772 95.6544 99.6937C96.1944 99.4102 96.8558 99.2685 97.6388 99.2685C98.3947 99.2685 99.0359 99.4035 99.5623 99.6735C100.102 99.9299 100.541 100.288 100.878 100.747C101.229 101.206 101.493 101.725 101.668 102.306C101.844 102.886 101.938 103.494 101.952 104.128C101.965 104.344 101.972 104.547 101.972 104.735C101.972 104.924 101.965 105.127 101.952 105.343C101.938 105.991 101.844 106.605 101.668 107.186C101.493 107.766 101.229 108.286 100.878 108.745C100.541 109.19 100.102 109.548 99.5623 109.818C99.0359 110.074 98.3947 110.202 97.6388 110.202ZM97.2136 108.562C97.9155 108.562 98.4622 108.414 98.8536 108.117C99.2586 107.806 99.5488 107.408 99.7243 106.922C99.8998 106.423 100.001 105.89 100.028 105.323C100.042 104.931 100.042 104.54 100.028 104.148C100.001 103.581 99.8998 103.055 99.7243 102.569C99.5488 102.069 99.2586 101.671 98.8536 101.374C98.4622 101.064 97.9155 100.909 97.2136 100.909C96.5791 100.909 96.0527 101.057 95.6342 101.354C95.2157 101.651 94.8985 102.029 94.6825 102.488C94.4801 102.947 94.3721 103.413 94.3586 103.885C94.3451 104.101 94.3383 104.364 94.3383 104.675C94.3383 104.972 94.3451 105.228 94.3586 105.444C94.3856 105.944 94.4936 106.436 94.6825 106.922C94.885 107.395 95.1887 107.786 95.5937 108.097C96.0122 108.407 96.5521 108.562 97.2136 108.562ZM108.911 110.202C107.521 110.202 106.414 109.777 105.591 108.927C104.767 108.063 104.315 106.889 104.234 105.404C104.221 105.228 104.214 105.005 104.214 104.735C104.214 104.452 104.221 104.223 104.234 104.047C104.288 103.089 104.511 102.252 104.902 101.536C105.294 100.807 105.827 100.247 106.502 99.8557C107.19 99.4642 107.994 99.2685 108.911 99.2685C109.937 99.2685 110.794 99.4845 111.483 99.9164C112.185 100.348 112.718 100.963 113.083 101.759C113.447 102.555 113.629 103.487 113.629 104.553V104.897C113.629 105.046 113.582 105.161 113.487 105.242C113.407 105.323 113.299 105.363 113.164 105.363H106.158C106.158 105.377 106.158 105.404 106.158 105.444C106.158 105.485 106.158 105.518 106.158 105.545C106.185 106.099 106.306 106.619 106.522 107.105C106.738 107.577 107.049 107.962 107.454 108.259C107.859 108.556 108.344 108.704 108.911 108.704C109.397 108.704 109.802 108.63 110.126 108.481C110.45 108.333 110.714 108.171 110.916 107.995C111.118 107.806 111.253 107.665 111.321 107.57C111.442 107.395 111.537 107.294 111.604 107.267C111.672 107.226 111.78 107.206 111.928 107.206H112.9C113.035 107.206 113.143 107.246 113.224 107.327C113.319 107.395 113.359 107.496 113.346 107.631C113.332 107.833 113.224 108.083 113.022 108.38C112.819 108.664 112.529 108.947 112.151 109.231C111.773 109.514 111.314 109.75 110.774 109.939C110.234 110.115 109.613 110.202 108.911 110.202ZM106.158 103.966H111.706V103.905C111.706 103.298 111.591 102.758 111.361 102.285C111.145 101.813 110.828 101.442 110.41 101.172C109.991 100.888 109.492 100.747 108.911 100.747C108.331 100.747 107.832 100.888 107.413 101.172C107.008 101.442 106.698 101.813 106.482 102.285C106.266 102.758 106.158 103.298 106.158 103.905V103.966ZM116.779 110C116.644 110 116.53 109.96 116.435 109.879C116.354 109.784 116.314 109.669 116.314 109.534V96.0895C116.314 95.9546 116.354 95.8466 116.435 95.7656C116.53 95.6711 116.644 95.6238 116.779 95.6238H117.731C117.879 95.6238 117.994 95.6711 118.075 95.7656C118.156 95.8466 118.197 95.9546 118.197 96.0895V109.534C118.197 109.669 118.156 109.784 118.075 109.879C117.994 109.96 117.879 110 117.731 110H116.779ZM121.865 102.184C121.73 102.184 121.622 102.144 121.541 102.063C121.46 101.982 121.419 101.874 121.419 101.739V101.05C121.419 100.915 121.46 100.807 121.541 100.726C121.622 100.645 121.73 100.605 121.865 100.605H129.579C129.714 100.605 129.822 100.645 129.903 100.726C129.998 100.807 130.045 100.915 130.045 101.05V101.739C130.045 101.874 129.998 101.982 129.903 102.063C129.822 102.144 129.714 102.184 129.579 102.184H121.865ZM121.865 107.246C121.73 107.246 121.622 107.206 121.541 107.125C121.46 107.044 121.419 106.936 121.419 106.801V106.112C121.419 105.977 121.46 105.869 121.541 105.788C121.622 105.707 121.73 105.667 121.865 105.667H129.579C129.714 105.667 129.822 105.707 129.903 105.788C129.998 105.869 130.045 105.977 130.045 106.112V106.801C130.045 106.936 129.998 107.044 129.903 107.125C129.822 107.206 129.714 107.246 129.579 107.246H121.865ZM136.47 99.5317C136.349 99.5317 136.261 99.4912 136.207 99.4102C136.153 99.3292 136.133 99.228 136.146 99.1065L136.592 96.211C136.619 96.0491 136.673 95.9141 136.754 95.8061C136.848 95.6846 136.99 95.6238 137.179 95.6238H138.515C138.623 95.6238 138.704 95.6643 138.758 95.7453C138.826 95.8128 138.859 95.8871 138.859 95.9681C138.859 96.076 138.832 96.184 138.778 96.292L137.725 99.066C137.671 99.201 137.597 99.3157 137.503 99.4102C137.422 99.4912 137.293 99.5317 137.118 99.5317H136.47ZM133.23 99.5317C133.122 99.5317 133.035 99.4912 132.967 99.4102C132.913 99.3292 132.893 99.228 132.906 99.1065L133.372 96.211C133.399 96.0491 133.453 95.9141 133.534 95.8061C133.629 95.6846 133.764 95.6238 133.939 95.6238H135.296C135.39 95.6238 135.464 95.6643 135.518 95.7453C135.586 95.8128 135.62 95.8871 135.62 95.9681C135.62 96.076 135.593 96.184 135.539 96.292L134.486 99.066C134.432 99.201 134.357 99.3157 134.263 99.4102C134.182 99.4912 134.054 99.5317 133.878 99.5317H133.23ZM139.512 110C139.377 110 139.263 109.96 139.168 109.879C139.087 109.784 139.047 109.669 139.047 109.534V108.076C139.047 107.941 139.087 107.833 139.168 107.752C139.263 107.658 139.377 107.611 139.512 107.611H140.97C141.105 107.611 141.213 107.658 141.294 107.752C141.389 107.833 141.436 107.941 141.436 108.076V109.534C141.436 109.669 141.389 109.784 141.294 109.879C141.213 109.96 141.105 110 140.97 110H139.512ZM144.857 110C144.722 110 144.607 109.96 144.513 109.879C144.432 109.784 144.391 109.669 144.391 109.534V108.076C144.391 107.941 144.432 107.833 144.513 107.752C144.607 107.658 144.722 107.611 144.857 107.611H146.315C146.45 107.611 146.558 107.658 146.639 107.752C146.733 107.833 146.78 107.941 146.78 108.076V109.534C146.78 109.669 146.733 109.784 146.639 109.879C146.558 109.96 146.45 110 146.315 110H144.857ZM150.201 110C150.066 110 149.952 109.96 149.857 109.879C149.776 109.784 149.736 109.669 149.736 109.534V108.076C149.736 107.941 149.776 107.833 149.857 107.752C149.952 107.658 150.066 107.611 150.201 107.611H151.659C151.794 107.611 151.902 107.658 151.983 107.752C152.078 107.833 152.125 107.941 152.125 108.076V109.534C152.125 109.669 152.078 109.784 151.983 109.879C151.902 109.96 151.794 110 151.659 110H150.201ZM156.365 99.5317C156.244 99.5317 156.156 99.4912 156.102 99.4102C156.048 99.3292 156.028 99.228 156.041 99.1065L156.487 96.211C156.514 96.0491 156.568 95.9141 156.649 95.8061C156.743 95.6846 156.885 95.6238 157.074 95.6238H158.41C158.518 95.6238 158.599 95.6643 158.653 95.7453C158.721 95.8128 158.755 95.8871 158.755 95.9681C158.755 96.076 158.728 96.184 158.674 96.292L157.621 99.066C157.567 99.201 157.492 99.3157 157.398 99.4102C157.317 99.4912 157.189 99.5317 157.013 99.5317H156.365ZM153.126 99.5317C153.018 99.5317 152.93 99.4912 152.862 99.4102C152.808 99.3292 152.788 99.228 152.802 99.1065L153.267 96.211C153.294 96.0491 153.348 95.9141 153.429 95.8061C153.524 95.6846 153.659 95.6238 153.834 95.6238H155.191C155.285 95.6238 155.36 95.6643 155.414 95.7453C155.481 95.8128 155.515 95.8871 155.515 95.9681C155.515 96.076 155.488 96.184 155.434 96.292L154.381 99.066C154.327 99.201 154.253 99.3157 154.158 99.4102C154.077 99.4912 153.949 99.5317 153.773 99.5317H153.126Z" fill="black"/>
</g>
<rect x="0.709924" y="0.709924" width="184.58" height="131.336" rx="9.1463" stroke="#18181B" stroke-width="1.41985"/>
<defs>
<clipPath id="clip0_1127_10918">
<rect width="186" height="132.756" rx="9.85622" fill="white"/>
</clipPath>
</defs>
</svg>
