<svg width="186" height="133" viewBox="0 0 186 133" fill="none" xmlns="http://www.w3.org/2000/svg">
<rect x="0.709924" y="0.709924" width="184.58" height="131.336" rx="9.1463" fill="#F6F9FC"/>
<rect x="0.709924" y="0.709924" width="184.58" height="131.336" rx="9.1463" stroke="#18181B" stroke-width="1.41985"/>
<rect x="16.9996" y="52.6364" width="154" height="26.7273" rx="4.45455" stroke="#FF0000" stroke-width="1.27273"/>
<path d="M26.1585 69.9092C26.0703 69.9092 26.0024 69.8888 25.9549 69.8481C25.9074 69.8006 25.8667 69.7361 25.8327 69.6546L24.3869 64.9303C24.3733 64.8963 24.3665 64.8624 24.3665 64.8285C24.3665 64.7674 24.3869 64.7165 24.4276 64.6757C24.4752 64.635 24.5261 64.6146 24.5804 64.6146H25.0284C25.103 64.6146 25.1607 64.635 25.2015 64.6757C25.2422 64.7165 25.2693 64.7538 25.2829 64.7877L26.4131 68.6263L27.6247 64.8285C27.6383 64.7809 27.6655 64.7334 27.7062 64.6859C27.7537 64.6384 27.8216 64.6146 27.9098 64.6146H28.256C28.3442 64.6146 28.4121 64.6384 28.4596 64.6859C28.5072 64.7334 28.5343 64.7809 28.5411 64.8285L29.7527 68.6263L30.8829 64.7877C30.8897 64.7538 30.9135 64.7165 30.9542 64.6757C30.9949 64.635 31.0526 64.6146 31.1273 64.6146H31.5753C31.6364 64.6146 31.6873 64.635 31.728 64.6757C31.7687 64.7165 31.7891 64.7674 31.7891 64.8285C31.7891 64.8624 31.7823 64.8963 31.7687 64.9303L30.3229 69.6546C30.3025 69.7361 30.2652 69.8006 30.2109 69.8481C30.1634 69.8888 30.0921 69.9092 29.9971 69.9092H29.6C29.5118 69.9092 29.4371 69.8888 29.376 69.8481C29.3217 69.8006 29.2844 69.7361 29.264 69.6546L28.0829 66.0095L26.9018 69.6546C26.8747 69.7361 26.8339 69.8006 26.7796 69.8481C26.7253 69.8888 26.6507 69.9092 26.5556 69.9092H26.1585ZM33.151 69.9092C33.0831 69.9092 33.0254 69.8888 32.9779 69.8481C32.9372 69.8006 32.9168 69.7429 32.9168 69.675V64.859C32.9168 64.7911 32.9372 64.7334 32.9779 64.6859C33.0254 64.6384 33.0831 64.6146 33.151 64.6146H33.6194C33.6872 64.6146 33.7449 64.6384 33.7924 64.6859C33.84 64.7334 33.8637 64.7911 33.8637 64.859V65.307C33.9995 65.0762 34.1861 64.9031 34.4237 64.7877C34.6613 64.6723 34.9464 64.6146 35.279 64.6146H35.6863C35.7541 64.6146 35.8084 64.6384 35.8492 64.6859C35.8899 64.7266 35.9103 64.7809 35.9103 64.8488V65.2663C35.9103 65.3341 35.8899 65.3885 35.8492 65.4292C35.8084 65.4699 35.7541 65.4903 35.6863 65.4903H35.0754C34.7088 65.4903 34.4203 65.5989 34.2099 65.8161C33.9995 66.0265 33.8943 66.315 33.8943 66.6815V69.675C33.8943 69.7429 33.8705 69.8006 33.823 69.8481C33.7755 69.8888 33.7178 69.9092 33.6499 69.9092H33.151ZM38.854 70.011C38.3381 70.011 37.9071 69.9126 37.5609 69.7157C37.2147 69.5189 36.95 69.2474 36.7667 68.9012C36.5835 68.5482 36.4816 68.1477 36.4613 67.6997C36.4545 67.5843 36.4511 67.4384 36.4511 67.2619C36.4511 67.0786 36.4545 66.9327 36.4613 66.8241C36.4816 66.3693 36.5835 65.9688 36.7667 65.6226C36.9568 65.2765 37.2249 65.0049 37.5711 64.8081C37.9173 64.6112 38.3449 64.5128 38.854 64.5128C39.3631 64.5128 39.7907 64.6112 40.1369 64.8081C40.4831 65.0049 40.7478 65.2765 40.9311 65.6226C41.1212 65.9688 41.2264 66.3693 41.2467 66.8241C41.2535 66.9327 41.2569 67.0786 41.2569 67.2619C41.2569 67.4384 41.2535 67.5843 41.2467 67.6997C41.2264 68.1477 41.1245 68.5482 40.9413 68.9012C40.758 69.2474 40.4933 69.5189 40.1471 69.7157C39.8009 69.9126 39.3699 70.011 38.854 70.011ZM38.854 69.227C39.2748 69.227 39.6108 69.0946 39.862 68.8299C40.1132 68.5584 40.2489 68.1647 40.2693 67.6488C40.2761 67.547 40.2795 67.418 40.2795 67.2619C40.2795 67.1058 40.2761 66.9768 40.2693 66.875C40.2489 66.3591 40.1132 65.9688 39.862 65.7041C39.6108 65.4326 39.2748 65.2968 38.854 65.2968C38.4332 65.2968 38.0938 65.4326 37.8358 65.7041C37.5847 65.9688 37.4523 66.3591 37.4387 66.875C37.4319 66.9768 37.4285 67.1058 37.4285 67.2619C37.4285 67.418 37.4319 67.547 37.4387 67.6488C37.4523 68.1647 37.5847 68.5584 37.8358 68.8299C38.0938 69.0946 38.4332 69.227 38.854 69.227ZM42.766 69.9092C42.6982 69.9092 42.6405 69.8888 42.593 69.8481C42.5522 69.8006 42.5319 69.7429 42.5319 69.675V64.8488C42.5319 64.7809 42.5522 64.7266 42.593 64.6859C42.6405 64.6384 42.6982 64.6146 42.766 64.6146H43.2446C43.3125 64.6146 43.3668 64.6384 43.4075 64.6859C43.455 64.7266 43.4788 64.7809 43.4788 64.8488V65.2968C43.6553 65.066 43.8759 64.8794 44.1406 64.7368C44.4121 64.5875 44.7583 64.5128 45.1791 64.5128C45.6203 64.5128 45.9937 64.6112 46.2991 64.8081C46.6114 64.9981 46.8456 65.2663 47.0017 65.6125C47.1578 65.9518 47.2359 66.3489 47.2359 66.8037V69.675C47.2359 69.7429 47.2155 69.8006 47.1748 69.8481C47.134 69.8888 47.0797 69.9092 47.0119 69.9092H46.5028C46.4349 69.9092 46.3772 69.8888 46.3297 69.8481C46.289 69.8006 46.2686 69.7429 46.2686 69.675V66.8546C46.2686 66.3795 46.1532 66.0095 45.9224 65.7448C45.6916 65.4733 45.3522 65.3375 44.9042 65.3375C44.4834 65.3375 44.144 65.4733 43.886 65.7448C43.6349 66.0095 43.5093 66.3795 43.5093 66.8546V69.675C43.5093 69.7429 43.4856 69.8006 43.438 69.8481C43.3973 69.8888 43.343 69.9092 43.2751 69.9092H42.766ZM50.8753 72.1492C50.4137 72.1492 50.0336 72.0881 49.7349 71.9659C49.4431 71.8437 49.2123 71.6944 49.0426 71.5179C48.8797 71.3482 48.7609 71.1751 48.6862 70.9986C48.6183 70.8289 48.581 70.6932 48.5742 70.5914C48.5674 70.5235 48.5878 70.4658 48.6353 70.4183C48.6896 70.3708 48.7473 70.347 48.8084 70.347H49.2971C49.3582 70.347 49.4091 70.3606 49.4499 70.3877C49.4906 70.4149 49.5245 70.4726 49.5517 70.5608C49.5924 70.6626 49.6535 70.7746 49.7349 70.8968C49.8164 71.0258 49.942 71.1344 50.1117 71.2226C50.2814 71.3177 50.5189 71.3652 50.8244 71.3652C51.1434 71.3652 51.4115 71.3211 51.6288 71.2328C51.846 71.1514 52.0089 71.002 52.1175 70.7848C52.2329 70.5744 52.2906 70.2825 52.2906 69.9092V69.2168C52.1277 69.4272 51.9139 69.6037 51.6491 69.7463C51.3844 69.882 51.0518 69.9499 50.6513 69.9499C50.2712 69.9499 49.9454 69.8854 49.6739 69.7565C49.4023 69.6207 49.1783 69.4408 49.0019 69.2168C48.8322 68.986 48.7032 68.7247 48.6149 68.4328C48.5335 68.1409 48.486 67.8355 48.4724 67.5165C48.4656 67.3264 48.4656 67.1397 48.4724 66.9565C48.486 66.6374 48.5335 66.332 48.6149 66.0401C48.7032 65.7482 48.8322 65.4869 49.0019 65.2561C49.1783 65.0253 49.4023 64.8454 49.6739 64.7165C49.9454 64.5807 50.2712 64.5128 50.6513 64.5128C51.0586 64.5128 51.3946 64.5909 51.6593 64.747C51.9308 64.8963 52.1514 65.0796 52.3211 65.2968V64.859C52.3211 64.7911 52.3415 64.7334 52.3822 64.6859C52.4297 64.6384 52.4874 64.6146 52.5553 64.6146H53.0237C53.0915 64.6146 53.1492 64.6384 53.1968 64.6859C53.2443 64.7334 53.268 64.7911 53.268 64.859V69.7972C53.268 70.252 53.19 70.6558 53.0339 71.0088C52.8845 71.3618 52.6334 71.6401 52.2804 71.8437C51.9342 72.0474 51.4659 72.1492 50.8753 72.1492ZM50.8549 69.1354C51.1943 69.1354 51.4659 69.0573 51.6695 68.9012C51.8799 68.7451 52.0326 68.5482 52.1277 68.3106C52.2295 68.0731 52.2838 67.8321 52.2906 67.5877C52.2974 67.4927 52.3008 67.3773 52.3008 67.2415C52.3008 67.099 52.2974 66.9802 52.2906 66.8852C52.2838 66.6408 52.2295 66.3998 52.1277 66.1623C52.0326 65.9247 51.8799 65.7278 51.6695 65.5717C51.4659 65.4156 51.1943 65.3375 50.8549 65.3375C50.5155 65.3375 50.244 65.4156 50.0404 65.5717C49.8368 65.7211 49.6908 65.9213 49.6026 66.1725C49.5143 66.4168 49.4634 66.6815 49.4499 66.9666C49.4431 67.1431 49.4431 67.323 49.4499 67.5063C49.4634 67.7914 49.5143 68.0595 49.6026 68.3106C49.6908 68.555 49.8368 68.7552 50.0404 68.9114C50.244 69.0607 50.5155 69.1354 50.8549 69.1354ZM56.8895 70.011C56.1903 70.011 55.6337 69.7972 55.2197 69.3695C54.8056 68.9351 54.5782 68.3446 54.5375 67.5979C54.5307 67.5097 54.5273 67.3977 54.5273 67.2619C54.5273 67.1194 54.5307 67.004 54.5375 66.9157C54.5647 66.4338 54.6767 66.0129 54.8735 65.6532C55.0703 65.2866 55.3385 65.0049 55.6779 64.8081C56.024 64.6112 56.4279 64.5128 56.8895 64.5128C57.4054 64.5128 57.8364 64.6214 58.1826 64.8386C58.5356 65.0558 58.8037 65.3647 58.987 65.7652C59.1702 66.1657 59.2619 66.634 59.2619 67.1703V67.3434C59.2619 67.418 59.2381 67.4757 59.1906 67.5165C59.1499 67.5572 59.0956 67.5775 59.0277 67.5775H55.5048C55.5048 67.5843 55.5048 67.5979 55.5048 67.6183C55.5048 67.6386 55.5048 67.6556 55.5048 67.6692C55.5183 67.9475 55.5794 68.2088 55.688 68.4532C55.7967 68.6908 55.9528 68.8842 56.1564 69.0335C56.36 69.1829 56.6044 69.2575 56.8895 69.2575C57.1339 69.2575 57.3375 69.2202 57.5004 69.1455C57.6633 69.0709 57.7957 68.9894 57.8975 68.9012C57.9993 68.8061 58.0672 68.7349 58.1011 68.6874C58.1622 68.5991 58.2097 68.5482 58.2437 68.5346C58.2776 68.5143 58.3319 68.5041 58.4066 68.5041H58.8953C58.9632 68.5041 59.0175 68.5245 59.0582 68.5652C59.1057 68.5991 59.1261 68.65 59.1193 68.7179C59.1125 68.8197 59.0582 68.9453 58.9564 69.0946C58.8546 69.2372 58.7087 69.3797 58.5186 69.5223C58.3285 69.6648 58.0977 69.7836 57.8262 69.8786C57.5547 69.9669 57.2425 70.011 56.8895 70.011ZM55.5048 66.875H58.2946V66.8445C58.2946 66.539 58.2369 66.2675 58.1215 66.0299C58.0129 65.7923 57.8534 65.6057 57.643 65.4699C57.4325 65.3274 57.1814 65.2561 56.8895 65.2561C56.5976 65.2561 56.3465 65.3274 56.136 65.4699C55.9324 65.6057 55.7763 65.7923 55.6677 66.0299C55.5591 66.2675 55.5048 66.539 55.5048 66.8445V66.875ZM60.7135 69.9092C60.6456 69.9092 60.5879 69.8888 60.5404 69.8481C60.4997 69.8006 60.4793 69.7429 60.4793 69.675V64.8488C60.4793 64.7809 60.4997 64.7266 60.5404 64.6859C60.5879 64.6384 60.6456 64.6146 60.7135 64.6146H61.1717C61.2395 64.6146 61.2939 64.6384 61.3346 64.6859C61.3821 64.7266 61.4059 64.7809 61.4059 64.8488V65.2052C61.562 64.9948 61.7588 64.8285 61.9964 64.7063C62.234 64.5773 62.5191 64.5128 62.8517 64.5128C63.6187 64.506 64.1617 64.8183 64.4808 65.4495C64.6369 65.1645 64.8643 64.9371 65.1629 64.7674C65.4616 64.5977 65.801 64.5128 66.1811 64.5128C66.5341 64.5128 66.8531 64.5943 67.1382 64.7572C67.4301 64.9201 67.6575 65.1678 67.8204 65.5005C67.9901 65.8263 68.0749 66.2369 68.0749 66.7325V69.675C68.0749 69.7429 68.0512 69.8006 68.0037 69.8481C67.9629 69.8888 67.9086 69.9092 67.8408 69.9092H67.3622C67.2943 69.9092 67.2366 69.8888 67.1891 69.8481C67.1484 69.8006 67.128 69.7429 67.128 69.675V66.8241C67.128 66.444 67.0737 66.1453 66.9651 65.9281C66.8565 65.7109 66.7106 65.5581 66.5273 65.4699C66.344 65.3817 66.1438 65.3375 65.9266 65.3375C65.7501 65.3375 65.5702 65.3817 65.3869 65.4699C65.2037 65.5581 65.0509 65.7109 64.9288 65.9281C64.8134 66.1453 64.7557 66.444 64.7557 66.8241V69.675C64.7557 69.7429 64.7319 69.8006 64.6844 69.8481C64.6437 69.8888 64.5894 69.9092 64.5215 69.9092H64.0429C63.9751 69.9092 63.9174 69.8888 63.8699 69.8481C63.8291 69.8006 63.8088 69.7429 63.8088 69.675V66.8241C63.8088 66.444 63.7511 66.1453 63.6357 65.9281C63.5203 65.7109 63.3709 65.5581 63.1877 65.4699C63.0044 65.3817 62.8109 65.3375 62.6073 65.3375C62.4308 65.3375 62.2509 65.3817 62.0677 65.4699C61.8844 65.5581 61.7317 65.7109 61.6095 65.9281C61.4941 66.1453 61.4364 66.4406 61.4364 66.8139V69.675C61.4364 69.7429 61.4126 69.8006 61.3651 69.8481C61.3244 69.8888 61.2701 69.9092 61.2022 69.9092H60.7135ZM71.004 70.011C70.6646 70.011 70.3557 69.9431 70.0774 69.8074C69.7991 69.6716 69.5751 69.4883 69.4054 69.2575C69.2357 69.0268 69.1509 68.7654 69.1509 68.4735C69.1509 68.0052 69.3409 67.6318 69.7211 67.3535C70.1012 67.0752 70.5967 66.892 71.2076 66.8037L72.7247 66.5899V66.2946C72.7247 65.9688 72.6297 65.7143 72.4396 65.531C72.2563 65.3477 71.9543 65.2561 71.5334 65.2561C71.228 65.2561 70.9802 65.3172 70.7901 65.4394C70.6069 65.5615 70.4779 65.7177 70.4032 65.9077C70.3625 66.0095 70.2912 66.0605 70.1894 66.0605H69.7312C69.6566 66.0605 69.5989 66.0401 69.5581 65.9994C69.5242 65.9518 69.5072 65.8975 69.5072 65.8365C69.5072 65.7346 69.5446 65.6091 69.6192 65.4597C69.7007 65.3104 69.8229 65.1645 69.9858 65.0219C70.1487 64.8794 70.3557 64.7606 70.6069 64.6655C70.8648 64.5637 71.1771 64.5128 71.5436 64.5128C71.9509 64.5128 72.2937 64.5671 72.572 64.6757C72.8503 64.7775 73.0675 64.9167 73.2236 65.0932C73.3865 65.2697 73.5019 65.4699 73.5698 65.6939C73.6445 65.9179 73.6818 66.1453 73.6818 66.3761V69.675C73.6818 69.7429 73.658 69.8006 73.6105 69.8481C73.5698 69.8888 73.5155 69.9092 73.4476 69.9092H72.9792C72.9046 69.9092 72.8469 69.8888 72.8061 69.8481C72.7654 69.8006 72.7451 69.7429 72.7451 69.675V69.2372C72.6568 69.3594 72.538 69.4815 72.3887 69.6037C72.2394 69.7191 72.0527 69.8175 71.8287 69.899C71.6047 69.9737 71.3298 70.011 71.004 70.011ZM71.2178 69.2474C71.4961 69.2474 71.7506 69.1897 71.9814 69.0743C72.2122 68.9521 72.3921 68.7654 72.5211 68.5143C72.6568 68.2631 72.7247 67.9475 72.7247 67.5674V67.2823L71.5436 67.4554C71.0617 67.5232 70.6985 67.6386 70.4541 67.8015C70.2098 67.9577 70.0876 68.1579 70.0876 68.4023C70.0876 68.5923 70.1419 68.7518 70.2505 68.8808C70.3659 69.003 70.5085 69.0946 70.6781 69.1557C70.8546 69.2168 71.0345 69.2474 71.2178 69.2474ZM75.3797 69.9092C75.3118 69.9092 75.2541 69.8888 75.2066 69.8481C75.1659 69.8006 75.1455 69.7429 75.1455 69.675V64.8488C75.1455 64.7809 75.1659 64.7266 75.2066 64.6859C75.2541 64.6384 75.3118 64.6146 75.3797 64.6146H75.8684C75.9363 64.6146 75.9906 64.6384 76.0313 64.6859C76.072 64.7266 76.0924 64.7809 76.0924 64.8488V69.675C76.0924 69.7429 76.072 69.8006 76.0313 69.8481C75.9906 69.8888 75.9363 69.9092 75.8684 69.9092H75.3797ZM75.2982 63.627C75.2303 63.627 75.1727 63.6066 75.1251 63.5659C75.0844 63.5184 75.064 63.4607 75.064 63.3928V62.843C75.064 62.7751 75.0844 62.7208 75.1251 62.6801C75.1727 62.6326 75.2303 62.6088 75.2982 62.6088H75.9397C76.0076 62.6088 76.0619 62.6326 76.1026 62.6801C76.1501 62.7208 76.1739 62.7751 76.1739 62.843V63.3928C76.1739 63.4607 76.1501 63.5184 76.1026 63.5659C76.0619 63.6066 76.0076 63.627 75.9397 63.627H75.2982ZM77.8558 69.9092C77.7879 69.9092 77.7302 69.8888 77.6827 69.8481C77.642 69.8006 77.6216 69.7429 77.6216 69.675V62.9143C77.6216 62.8464 77.642 62.7921 77.6827 62.7514C77.7302 62.7038 77.7879 62.6801 77.8558 62.6801H78.3343C78.409 62.6801 78.4667 62.7038 78.5074 62.7514C78.5481 62.7921 78.5685 62.8464 78.5685 62.9143V69.675C78.5685 69.7429 78.5481 69.8006 78.5074 69.8481C78.4667 69.8888 78.409 69.9092 78.3343 69.9092H77.8558ZM83.5185 71.1106C82.7922 71.1106 82.1745 70.9885 81.6654 70.7441C81.1564 70.4997 80.7593 70.1468 80.4742 69.6852C80.1891 69.2168 80.0126 68.6568 79.9447 68.0052C79.9379 67.9101 79.9311 67.7846 79.9244 67.6285C79.9176 67.4723 79.9142 67.306 79.9142 67.1295C79.9142 66.9531 79.9176 66.7868 79.9244 66.6306C79.9311 66.4745 79.9379 66.3523 79.9447 66.2641C79.9922 65.8025 80.1042 65.3783 80.2807 64.9914C80.4572 64.6045 80.6914 64.2752 80.9833 64.0037C81.2819 63.7254 81.6383 63.5116 82.0524 63.3623C82.4664 63.2129 82.9416 63.1383 83.4778 63.1383C84.0955 63.1383 84.6284 63.2095 85.0764 63.3521C85.5311 63.4946 85.9079 63.7017 86.2065 63.9732C86.512 64.2447 86.7428 64.5739 86.8989 64.9608C87.055 65.3477 87.1467 65.7821 87.1738 66.2641C87.1874 66.4406 87.1942 66.6171 87.1942 66.7935C87.1942 66.97 87.1908 67.1329 87.184 67.2823C87.184 67.4248 87.1806 67.53 87.1738 67.5979C87.1534 67.9305 87.0856 68.2088 86.9702 68.4328C86.8548 68.6568 86.6953 68.8265 86.4916 68.9419C86.2948 69.0505 86.0606 69.1048 85.7891 69.1048C85.5651 69.1048 85.375 69.0675 85.2189 68.9928C85.0628 68.9181 84.9406 68.8367 84.8524 68.7485C84.7641 68.6534 84.6996 68.5788 84.6589 68.5245C84.6046 68.6127 84.5265 68.7111 84.4247 68.8197C84.3297 68.9283 84.1973 69.02 84.0276 69.0946C83.8579 69.1693 83.6373 69.2066 83.3658 69.2066C82.8635 69.2066 82.463 69.0268 82.1644 68.667C81.8657 68.3072 81.7164 67.7948 81.7164 67.1295C81.7164 66.4643 81.8657 65.9518 82.1644 65.5921C82.463 65.2255 82.8635 65.0423 83.3658 65.0423C83.6441 65.0423 83.8613 65.0932 84.0174 65.195C84.1804 65.2968 84.3093 65.4088 84.4044 65.531V65.3579C84.4044 65.29 84.4247 65.2357 84.4654 65.195C84.513 65.1475 84.5707 65.1237 84.6385 65.1237H84.9134C84.9813 65.1237 85.0356 65.1475 85.0764 65.195C85.1239 65.2357 85.1476 65.29 85.1476 65.3579V67.5266C85.1476 67.8185 85.2087 68.0357 85.3309 68.1783C85.4531 68.3208 85.6058 68.3921 85.7891 68.3921C85.9724 68.3921 86.1081 68.3412 86.1964 68.2394C86.2914 68.1375 86.3525 68.0188 86.3796 67.883C86.4136 67.7405 86.4305 67.6217 86.4305 67.5266C86.4373 67.4248 86.4441 67.2619 86.4509 67.0379C86.4577 66.8139 86.4509 66.5729 86.4305 66.315C86.3898 65.7788 86.2642 65.3274 86.0538 64.9608C85.8502 64.5943 85.5379 64.316 85.1171 64.1259C84.703 63.9358 84.1566 63.8408 83.4778 63.8408C82.9212 63.8408 82.446 63.9426 82.0524 64.1463C81.6587 64.3431 81.3464 64.6248 81.1156 64.9914C80.8916 65.3579 80.7491 65.7991 80.688 66.315C80.6744 66.4304 80.6642 66.5933 80.6574 66.8037C80.6574 67.0141 80.6574 67.228 80.6574 67.4452C80.6642 67.6556 80.6744 67.8253 80.688 67.9543C80.7694 68.7349 81.0477 69.339 81.5229 69.7666C82.0048 70.1875 82.67 70.3979 83.5185 70.3979C84.0073 70.3979 84.3942 70.3572 84.6793 70.2757C84.9644 70.2011 85.1816 70.1094 85.3309 70.0008C85.487 69.899 85.6126 69.8141 85.7076 69.7463C85.7416 69.7191 85.7789 69.692 85.8196 69.6648C85.8604 69.6309 85.9113 69.6139 85.9724 69.6139H86.3796C86.4407 69.6139 86.4916 69.6377 86.5324 69.6852C86.5799 69.7259 86.6036 69.7768 86.6036 69.8379C86.6036 69.8651 86.5968 69.8888 86.5833 69.9092C86.5765 69.9363 86.5629 69.9601 86.5425 69.9805C86.366 70.1773 86.1454 70.3606 85.8807 70.5303C85.616 70.7068 85.2902 70.8459 84.9033 70.9477C84.5231 71.0563 84.0616 71.1106 83.5185 71.1106ZM83.4269 68.4939C83.7867 68.4939 84.0378 68.3717 84.1804 68.1274C84.3297 67.8762 84.4044 67.5436 84.4044 67.1295C84.4044 66.7155 84.3297 66.3829 84.1804 66.1317C84.0378 65.8806 83.7867 65.755 83.4269 65.755C83.0807 65.755 82.833 65.8806 82.6836 66.1317C82.5343 66.3829 82.4596 66.7155 82.4596 67.1295C82.4596 67.3739 82.4902 67.6013 82.5513 67.8117C82.6191 68.0154 82.7244 68.1817 82.8669 68.3106C83.0094 68.4328 83.1961 68.4939 83.4269 68.4939ZM90.7276 72.1492C90.266 72.1492 89.8859 72.0881 89.5872 71.9659C89.2953 71.8437 89.0645 71.6944 88.8949 71.5179C88.7319 71.3482 88.6132 71.1751 88.5385 70.9986C88.4706 70.8289 88.4333 70.6932 88.4265 70.5914C88.4197 70.5235 88.4401 70.4658 88.4876 70.4183C88.5419 70.3708 88.5996 70.347 88.6607 70.347H89.1494C89.2105 70.347 89.2614 70.3606 89.3021 70.3877C89.3429 70.4149 89.3768 70.4726 89.4039 70.5608C89.4447 70.6626 89.5058 70.7746 89.5872 70.8968C89.6687 71.0258 89.7942 71.1344 89.9639 71.2226C90.1336 71.3177 90.3712 71.3652 90.6767 71.3652C90.9957 71.3652 91.2638 71.3211 91.481 71.2328C91.6982 71.1514 91.8612 71.002 91.9698 70.7848C92.0852 70.5744 92.1429 70.2825 92.1429 69.9092V69.2168C91.9799 69.4272 91.7661 69.6037 91.5014 69.7463C91.2367 69.882 90.9041 69.9499 90.5036 69.9499C90.1235 69.9499 89.7976 69.8854 89.5261 69.7565C89.2546 69.6207 89.0306 69.4408 88.8541 69.2168C88.6844 68.986 88.5555 68.7247 88.4672 68.4328C88.3858 68.1409 88.3382 67.8355 88.3247 67.5165C88.3179 67.3264 88.3179 67.1397 88.3247 66.9565C88.3382 66.6374 88.3858 66.332 88.4672 66.0401C88.5555 65.7482 88.6844 65.4869 88.8541 65.2561C89.0306 65.0253 89.2546 64.8454 89.5261 64.7165C89.7976 64.5807 90.1235 64.5128 90.5036 64.5128C90.9109 64.5128 91.2469 64.5909 91.5116 64.747C91.7831 64.8963 92.0037 65.0796 92.1734 65.2968V64.859C92.1734 64.7911 92.1938 64.7334 92.2345 64.6859C92.282 64.6384 92.3397 64.6146 92.4076 64.6146H92.8759C92.9438 64.6146 93.0015 64.6384 93.049 64.6859C93.0965 64.7334 93.1203 64.7911 93.1203 64.859V69.7972C93.1203 70.252 93.0422 70.6558 92.8861 71.0088C92.7368 71.3618 92.4856 71.6401 92.1327 71.8437C91.7865 72.0474 91.3181 72.1492 90.7276 72.1492ZM90.7072 69.1354C91.0466 69.1354 91.3181 69.0573 91.5218 68.9012C91.7322 68.7451 91.8849 68.5482 91.9799 68.3106C92.0818 68.0731 92.1361 67.8321 92.1429 67.5877C92.1496 67.4927 92.153 67.3773 92.153 67.2415C92.153 67.099 92.1496 66.9802 92.1429 66.8852C92.1361 66.6408 92.0818 66.3998 91.9799 66.1623C91.8849 65.9247 91.7322 65.7278 91.5218 65.5717C91.3181 65.4156 91.0466 65.3375 90.7072 65.3375C90.3678 65.3375 90.0963 65.4156 89.8927 65.5717C89.689 65.7211 89.5431 65.9213 89.4549 66.1725C89.3666 66.4168 89.3157 66.6815 89.3021 66.9666C89.2953 67.1431 89.2953 67.323 89.3021 67.5063C89.3157 67.7914 89.3666 68.0595 89.4549 68.3106C89.5431 68.555 89.689 68.7552 89.8927 68.9114C90.0963 69.0607 90.3678 69.1354 90.7072 69.1354ZM94.8683 69.9092C94.8004 69.9092 94.7427 69.8888 94.6952 69.8481C94.6545 69.8006 94.6341 69.7429 94.6341 69.675V64.8488C94.6341 64.7809 94.6545 64.7266 94.6952 64.6859C94.7427 64.6384 94.8004 64.6146 94.8683 64.6146H95.3265C95.3944 64.6146 95.4487 64.6384 95.4894 64.6859C95.5369 64.7266 95.5607 64.7809 95.5607 64.8488V65.2052C95.7168 64.9948 95.9137 64.8285 96.1512 64.7063C96.3888 64.5773 96.6739 64.5128 97.0065 64.5128C97.7735 64.506 98.3166 64.8183 98.6356 65.4495C98.7917 65.1645 99.0191 64.9371 99.3178 64.7674C99.6164 64.5977 99.9558 64.5128 100.336 64.5128C100.689 64.5128 101.008 64.5943 101.293 64.7572C101.585 64.9201 101.812 65.1678 101.975 65.5005C102.145 65.8263 102.23 66.2369 102.23 66.7325V69.675C102.23 69.7429 102.206 69.8006 102.159 69.8481C102.118 69.8888 102.063 69.9092 101.996 69.9092H101.517C101.449 69.9092 101.391 69.8888 101.344 69.8481C101.303 69.8006 101.283 69.7429 101.283 69.675V66.8241C101.283 66.444 101.229 66.1453 101.12 65.9281C101.011 65.7109 100.865 65.5581 100.682 65.4699C100.499 65.3817 100.299 65.3375 100.081 65.3375C99.9049 65.3375 99.725 65.3817 99.5418 65.4699C99.3585 65.5581 99.2058 65.7109 99.0836 65.9281C98.9682 66.1453 98.9105 66.444 98.9105 66.8241V69.675C98.9105 69.7429 98.8867 69.8006 98.8392 69.8481C98.7985 69.8888 98.7442 69.9092 98.6763 69.9092H98.1978C98.1299 69.9092 98.0722 69.8888 98.0247 69.8481C97.984 69.8006 97.9636 69.7429 97.9636 69.675V66.8241C97.9636 66.444 97.9059 66.1453 97.7905 65.9281C97.6751 65.7109 97.5258 65.5581 97.3425 65.4699C97.1592 65.3817 96.9658 65.3375 96.7621 65.3375C96.5857 65.3375 96.4058 65.3817 96.2225 65.4699C96.0392 65.5581 95.8865 65.7109 95.7643 65.9281C95.6489 66.1453 95.5912 66.4406 95.5912 66.8139V69.675C95.5912 69.7429 95.5675 69.8006 95.52 69.8481C95.4792 69.8888 95.4249 69.9092 95.357 69.9092H94.8683ZM105.159 70.011C104.819 70.011 104.511 69.9431 104.232 69.8074C103.954 69.6716 103.73 69.4883 103.56 69.2575C103.391 69.0268 103.306 68.7654 103.306 68.4735C103.306 68.0052 103.496 67.6318 103.876 67.3535C104.256 67.0752 104.752 66.892 105.362 66.8037L106.88 66.5899V66.2946C106.88 65.9688 106.784 65.7143 106.594 65.531C106.411 65.3477 106.109 65.2561 105.688 65.2561C105.383 65.2561 105.135 65.3172 104.945 65.4394C104.762 65.5615 104.633 65.7177 104.558 65.9077C104.517 66.0095 104.446 66.0605 104.344 66.0605H103.886C103.811 66.0605 103.754 66.0401 103.713 65.9994C103.679 65.9518 103.662 65.8975 103.662 65.8365C103.662 65.7346 103.699 65.6091 103.774 65.4597C103.856 65.3104 103.978 65.1645 104.141 65.0219C104.304 64.8794 104.511 64.7606 104.762 64.6655C105.02 64.5637 105.332 64.5128 105.698 64.5128C106.106 64.5128 106.448 64.5671 106.727 64.6757C107.005 64.7775 107.222 64.9167 107.378 65.0932C107.541 65.2697 107.657 65.4699 107.725 65.6939C107.799 65.9179 107.837 66.1453 107.837 66.3761V69.675C107.837 69.7429 107.813 69.8006 107.765 69.8481C107.725 69.8888 107.67 69.9092 107.602 69.9092H107.134C107.059 69.9092 107.002 69.8888 106.961 69.8481C106.92 69.8006 106.9 69.7429 106.9 69.675V69.2372C106.812 69.3594 106.693 69.4815 106.544 69.6037C106.394 69.7191 106.208 69.8175 105.984 69.899C105.76 69.9737 105.485 70.011 105.159 70.011ZM105.373 69.2474C105.651 69.2474 105.905 69.1897 106.136 69.0743C106.367 68.9521 106.547 68.7654 106.676 68.5143C106.812 68.2631 106.88 67.9475 106.88 67.5674V67.2823L105.698 67.4554C105.216 67.5232 104.853 67.6386 104.609 67.8015C104.365 67.9577 104.242 68.1579 104.242 68.4023C104.242 68.5923 104.297 68.7518 104.405 68.8808C104.521 69.003 104.663 69.0946 104.833 69.1557C105.009 69.2168 105.189 69.2474 105.373 69.2474ZM109.535 69.9092C109.467 69.9092 109.409 69.8888 109.361 69.8481C109.321 69.8006 109.3 69.7429 109.3 69.675V64.8488C109.3 64.7809 109.321 64.7266 109.361 64.6859C109.409 64.6384 109.467 64.6146 109.535 64.6146H110.023C110.091 64.6146 110.145 64.6384 110.186 64.6859C110.227 64.7266 110.247 64.7809 110.247 64.8488V69.675C110.247 69.7429 110.227 69.8006 110.186 69.8481C110.145 69.8888 110.091 69.9092 110.023 69.9092H109.535ZM109.453 63.627C109.385 63.627 109.327 63.6066 109.28 63.5659C109.239 63.5184 109.219 63.4607 109.219 63.3928V62.843C109.219 62.7751 109.239 62.7208 109.28 62.6801C109.327 62.6326 109.385 62.6088 109.453 62.6088H110.095C110.162 62.6088 110.217 62.6326 110.257 62.6801C110.305 62.7208 110.329 62.7751 110.329 62.843V63.3928C110.329 63.4607 110.305 63.5184 110.257 63.5659C110.217 63.6066 110.162 63.627 110.095 63.627H109.453ZM112.011 69.9092C111.943 69.9092 111.885 69.8888 111.838 69.8481C111.797 69.8006 111.776 69.7429 111.776 69.675V62.9143C111.776 62.8464 111.797 62.7921 111.838 62.7514C111.885 62.7038 111.943 62.6801 112.011 62.6801H112.489C112.564 62.6801 112.622 62.7038 112.662 62.7514C112.703 62.7921 112.723 62.8464 112.723 62.9143V69.675C112.723 69.7429 112.703 69.8006 112.662 69.8481C112.622 69.8888 112.564 69.9092 112.489 69.9092H112.011Z" fill="black"/>
</svg>
