<svg width="186" height="133" viewBox="0 0 186 133" fill="none" xmlns="http://www.w3.org/2000/svg">
<g clip-path="url(#clip0_1127_5447)">
<rect width="186" height="132.756" rx="9.85622" fill="#F6F9FC"/>
<path d="M94.418 -11.3589L94.418 132.756" stroke="#18181B" stroke-width="0.709924"/>
<path d="M31.7502 68.6567H28.8837L37.1746 46.077H39.9971L48.2881 68.6567H45.4215L38.6741 49.6492H38.4977L31.7502 68.6567ZM32.8087 59.8365H44.3631V62.2621H32.8087V59.8365ZM56.8083 69.0536C55.7352 69.0536 54.7613 68.8515 53.8866 68.4473C53.012 68.0356 52.3174 67.444 51.8029 66.6722C51.2883 65.8931 51.0311 64.9523 51.0311 63.8497C51.0311 62.8795 51.2222 62.093 51.6044 61.4903C51.9866 60.8803 52.4975 60.4025 53.1369 60.057C53.7764 59.7116 54.482 59.4543 55.2538 59.2853C56.0329 59.1089 56.8157 58.9692 57.6021 58.8663C58.6312 58.734 59.4654 58.6348 60.1049 58.5686C60.7517 58.4951 61.2221 58.3739 61.5161 58.2048C61.8175 58.0357 61.9681 57.7417 61.9681 57.3228V57.2346C61.9681 56.1468 61.6705 55.3015 61.0751 54.6988C60.4871 54.0961 59.594 53.7947 58.396 53.7947C57.1538 53.7947 56.1799 54.0667 55.4743 54.6106C54.7687 55.1545 54.2725 55.7351 53.9859 56.3526L51.5162 55.4705C51.9572 54.4415 52.5452 53.6403 53.2802 53.067C54.0226 52.4864 54.8311 52.0821 55.7058 51.8543C56.5878 51.6191 57.4551 51.5015 58.3078 51.5015C58.8517 51.5015 59.4764 51.5676 60.182 51.6999C60.895 51.8249 61.5823 52.0858 62.2438 52.4827C62.9126 52.8796 63.4676 53.4786 63.9086 54.2798C64.3496 55.081 64.5701 56.1541 64.5701 57.4992V68.6567H61.9681V66.3635H61.8358C61.6594 66.731 61.3654 67.1242 60.9538 67.5432C60.5422 67.9621 59.9946 68.3186 59.3111 68.6126C58.6275 68.9066 57.7932 69.0536 56.8083 69.0536ZM57.2052 66.7163C58.2343 66.7163 59.1016 66.5142 59.8072 66.1099C60.5202 65.7056 61.0567 65.1838 61.4169 64.5443C61.7844 63.9049 61.9681 63.2323 61.9681 62.5267V60.1452C61.8579 60.2775 61.6153 60.3988 61.2405 60.5091C60.873 60.612 60.4467 60.7039 59.9615 60.7847C59.4838 60.8582 59.017 60.9244 58.5613 60.9832C58.113 61.0346 57.7491 61.0787 57.4698 61.1155C56.7936 61.2037 56.1615 61.347 55.5735 61.5455C54.9928 61.7366 54.5224 62.0269 54.1623 62.4164C53.8095 62.7987 53.6331 63.3205 53.6331 63.982C53.6331 64.8861 53.9675 65.5697 54.6363 66.0327C55.3126 66.4884 56.1689 66.7163 57.2052 66.7163Z" fill="#ACACAC"/>
<path d="M123.137 71.4961H120.27L128.561 48.9164H131.384L139.675 71.4961H136.808L130.061 52.4886H129.884L123.137 71.4961ZM124.195 62.6759H135.75V65.1014H124.195V62.6759ZM148.195 71.893C147.122 71.893 146.148 71.6909 145.273 71.2866C144.399 70.875 143.704 70.2833 143.19 69.5115C142.675 68.7324 142.418 67.7916 142.418 66.6891C142.418 65.7189 142.609 64.9324 142.991 64.3297C143.373 63.7196 143.884 63.2419 144.524 62.8964C145.163 62.5509 145.869 62.2937 146.64 62.1246C147.42 61.9482 148.202 61.8086 148.989 61.7057C150.018 61.5734 150.852 61.4741 151.492 61.408C152.138 61.3345 152.609 61.2132 152.903 61.0442C153.204 60.8751 153.355 60.5811 153.355 60.1621V60.0739C153.355 58.9861 153.057 58.1408 152.462 57.5381C151.874 56.9354 150.981 56.6341 149.783 56.6341C148.541 56.6341 147.567 56.906 146.861 57.4499C146.155 57.9938 145.659 58.5745 145.373 59.1919L142.903 58.3099C143.344 57.2809 143.932 56.4797 144.667 55.9064C145.409 55.3257 146.218 54.9215 147.093 54.6936C147.975 54.4584 148.842 54.3408 149.694 54.3408C150.238 54.3408 150.863 54.407 151.569 54.5393C152.282 54.6642 152.969 54.9251 153.63 55.3221C154.299 55.719 154.854 56.318 155.295 57.1192C155.736 57.9203 155.957 58.9935 155.957 60.3385V71.4961H153.355V69.2028H153.223C153.046 69.5704 152.752 69.9636 152.341 70.3825C151.929 70.8015 151.381 71.158 150.698 71.452C150.014 71.746 149.18 71.893 148.195 71.893ZM148.592 69.5556C149.621 69.5556 150.488 69.3535 151.194 68.9493C151.907 68.545 152.443 68.0231 152.804 67.3837C153.171 66.7442 153.355 66.0717 153.355 65.3661V62.9846C153.245 63.1169 153.002 63.2382 152.627 63.3484C152.26 63.4513 151.833 63.5432 151.348 63.6241C150.871 63.6976 150.404 63.7637 149.948 63.8225C149.5 63.874 149.136 63.9181 148.857 63.9548C148.18 64.043 147.548 64.1864 146.96 64.3848C146.38 64.5759 145.909 64.8662 145.549 65.2558C145.196 65.638 145.02 66.1599 145.02 66.8214C145.02 67.7255 145.354 68.409 146.023 68.8721C146.699 69.3278 147.556 69.5556 148.592 69.5556Z" fill="black"/>
<path fill-rule="evenodd" clip-rule="evenodd" d="M37.5195 78.9351L39.9673 76.4873L46.3315 82.8515L52.6957 76.4873L55.1434 78.9351L48.7792 85.2992L55.1434 91.6634L52.6957 94.1112L46.3315 87.747L39.9673 94.1112L37.5195 91.6634L43.8837 85.2992L37.5195 78.9351Z" fill="#FF4D4D" stroke="#FF4D4D" stroke-width="0.985622" stroke-linecap="round" stroke-linejoin="round"/>
<path d="M147.686 77.7477C148.091 78.1309 148.328 78.6594 148.343 79.217C148.359 79.7745 148.153 80.3155 147.77 80.721L135.848 93.3437C135.655 93.5479 135.423 93.7113 135.166 93.8243C134.908 93.9372 134.631 93.9974 134.35 94.0014C134.068 94.0053 133.789 93.9528 133.529 93.8471C133.268 93.7414 133.032 93.5845 132.833 93.3858L126.522 87.0744C126.15 86.6756 125.948 86.1482 125.957 85.6031C125.967 85.0581 126.188 84.5381 126.573 84.1527C126.959 83.7672 127.479 83.5464 128.024 83.5368C128.569 83.5272 129.096 83.7295 129.495 84.1011L134.278 88.8809L144.712 77.8319C145.095 77.4265 145.624 77.19 146.182 77.1742C146.739 77.1584 147.28 77.3647 147.686 77.7477Z" fill="#3F7D42"/>
</g>
<rect x="0.709924" y="0.709924" width="184.58" height="131.336" rx="9.1463" stroke="#18181B" stroke-width="1.41985"/>
<defs>
<clipPath id="clip0_1127_5447">
<rect width="186" height="132.756" rx="9.85622" fill="white"/>
</clipPath>
</defs>
</svg>
