<svg width="186" height="133" viewBox="0 0 186 133" fill="none" xmlns="http://www.w3.org/2000/svg">
<g clip-path="url(#clip0_879_3581)">
<rect width="186" height="132.756" rx="9.85622" fill="#F6F9FC"/>
<path d="M94.418 -11.3586L94.418 132.756" stroke="#4E4CB8" stroke-width="0.709924"/>
<path d="M31.7502 68.6565H28.8837L37.1746 46.0768H39.9971L48.2881 68.6565H45.4215L38.6741 49.649H38.4977L31.7502 68.6565ZM32.8087 59.8363H44.3631V62.2618H32.8087V59.8363ZM56.8083 69.0534C55.7352 69.0534 54.7613 68.8513 53.8866 68.447C53.012 68.0354 52.3174 67.4437 51.8029 66.6719C51.2883 65.8928 51.0311 64.952 51.0311 63.8495C51.0311 62.8793 51.2222 62.0928 51.6044 61.4901C51.9866 60.88 52.4975 60.4023 53.1369 60.0568C53.7764 59.7113 54.482 59.4541 55.2538 59.285C56.0329 59.1086 56.8157 58.969 57.6021 58.8661C58.6312 58.7338 59.4654 58.6345 60.1049 58.5684C60.7517 58.4949 61.2221 58.3736 61.5161 58.2046C61.8175 58.0355 61.9681 57.7415 61.9681 57.3225V57.2343C61.9681 56.1465 61.6705 55.3012 61.0751 54.6985C60.4871 54.0958 59.594 53.7945 58.396 53.7945C57.1538 53.7945 56.1799 54.0664 55.4743 54.6103C54.7687 55.1542 54.2725 55.7349 53.9859 56.3523L51.5162 55.4703C51.9572 54.4413 52.5452 53.6401 53.2802 53.0668C54.0226 52.4861 54.8311 52.0819 55.7058 51.854C56.5878 51.6188 57.4551 51.5012 58.3078 51.5012C58.8517 51.5012 59.4764 51.5674 60.182 51.6997C60.895 51.8246 61.5823 52.0855 62.2438 52.4825C62.9126 52.8794 63.4676 53.4784 63.9086 54.2796C64.3496 55.0807 64.5701 56.1539 64.5701 57.4989V68.6565H61.9681V66.3632H61.8358C61.6594 66.7308 61.3654 67.124 60.9538 67.5429C60.5422 67.9619 59.9946 68.3184 59.3111 68.6124C58.6275 68.9064 57.7932 69.0534 56.8083 69.0534ZM57.2052 66.7161C58.2343 66.7161 59.1016 66.5139 59.8072 66.1097C60.5202 65.7054 61.0567 65.1835 61.4169 64.5441C61.7844 63.9046 61.9681 63.2321 61.9681 62.5265V60.145C61.8579 60.2773 61.6153 60.3986 61.2405 60.5088C60.873 60.6117 60.4467 60.7036 59.9615 60.7845C59.4838 60.858 59.017 60.9241 58.5613 60.9829C58.113 61.0344 57.7491 61.0785 57.4698 61.1152C56.7936 61.2034 56.1615 61.3468 55.5735 61.5452C54.9928 61.7363 54.5224 62.0266 54.1623 62.4162C53.8095 62.7984 53.6331 63.3203 53.6331 63.9818C53.6331 64.8859 53.9675 65.5694 54.6363 66.0325C55.3126 66.4882 56.1689 66.7161 57.2052 66.7161Z" fill="#ACACAC"/>
<path d="M123.137 71.4963H120.27L128.561 48.9166H131.384L139.675 71.4963H136.808L130.061 52.4888H129.884L123.137 71.4963ZM124.195 62.6761H135.75V65.1017H124.195V62.6761ZM148.195 71.8932C147.122 71.8932 146.148 71.6911 145.273 71.2869C144.399 70.8752 143.704 70.2836 143.19 69.5118C142.675 68.7327 142.418 67.7919 142.418 66.6893C142.418 65.7191 142.609 64.9326 142.991 64.3299C143.373 63.7199 143.884 63.2421 144.524 62.8966C145.163 62.5512 145.869 62.2939 146.64 62.1249C147.42 61.9485 148.202 61.8088 148.989 61.7059C150.018 61.5736 150.852 61.4744 151.492 61.4082C152.138 61.3347 152.609 61.2135 152.903 61.0444C153.204 60.8753 153.355 60.5813 153.355 60.1624V60.0742C153.355 58.9864 153.057 58.1411 152.462 57.5384C151.874 56.9357 150.981 56.6343 149.783 56.6343C148.541 56.6343 147.567 56.9063 146.861 57.4502C146.155 57.9941 145.659 58.5747 145.373 59.1922L142.903 58.3101C143.344 57.2811 143.932 56.4799 144.667 55.9066C145.409 55.326 146.218 54.9217 147.093 54.6939C147.975 54.4587 148.842 54.3411 149.694 54.3411C150.238 54.3411 150.863 54.4072 151.569 54.5395C152.282 54.6645 152.969 54.9254 153.63 55.3223C154.299 55.7192 154.854 56.3182 155.295 57.1194C155.736 57.9206 155.957 58.9937 155.957 60.3388V71.4963H153.355V69.2031H153.223C153.046 69.5706 152.752 69.9638 152.341 70.3828C151.929 70.8017 151.381 71.1582 150.698 71.4522C150.014 71.7462 149.18 71.8932 148.195 71.8932ZM148.592 69.5559C149.621 69.5559 150.488 69.3538 151.194 68.9495C151.907 68.5452 152.443 68.0234 152.804 67.3839C153.171 66.7445 153.355 66.0719 153.355 65.3663V62.9848C153.245 63.1171 153.002 63.2384 152.627 63.3487C152.26 63.4516 151.833 63.5435 151.348 63.6243C150.871 63.6978 150.404 63.764 149.948 63.8228C149.5 63.8742 149.136 63.9183 148.857 63.9551C148.18 64.0433 147.548 64.1866 146.96 64.3851C146.38 64.5762 145.909 64.8665 145.549 65.256C145.196 65.6383 145.02 66.1601 145.02 66.8216C145.02 67.7257 145.354 68.4093 146.023 68.8723C146.699 69.328 147.556 69.5559 148.592 69.5559Z" fill="black"/>
<path fill-rule="evenodd" clip-rule="evenodd" d="M37.5195 78.9348L39.9673 76.4871L46.3315 82.8512L52.6957 76.4871L55.1434 78.9348L48.7792 85.299L55.1434 91.6632L52.6957 94.111L46.3315 87.7468L39.9673 94.111L37.5195 91.6632L43.8837 85.299L37.5195 78.9348Z" fill="#FF4D4D" stroke="#FF4D4D" stroke-width="0.985622" stroke-linecap="round" stroke-linejoin="round"/>
<path d="M147.686 77.7477C148.091 78.1309 148.328 78.6594 148.343 79.217C148.359 79.7745 148.153 80.3155 147.77 80.721L135.848 93.3437C135.655 93.5479 135.423 93.7113 135.166 93.8243C134.908 93.9372 134.631 93.9974 134.35 94.0014C134.068 94.0053 133.789 93.9528 133.529 93.8471C133.268 93.7414 133.032 93.5845 132.833 93.3858L126.522 87.0744C126.15 86.6756 125.948 86.1482 125.957 85.6031C125.967 85.0581 126.188 84.5381 126.573 84.1527C126.959 83.7672 127.479 83.5464 128.024 83.5368C128.569 83.5272 129.096 83.7295 129.495 84.1011L134.278 88.8809L144.712 77.8319C145.095 77.4265 145.624 77.19 146.182 77.1742C146.739 77.1584 147.28 77.3647 147.686 77.7477Z" fill="#3F7D42"/>
</g>
<rect x="0.709924" y="0.709924" width="184.58" height="131.336" rx="9.1463" stroke="#4E4CB8" stroke-width="1.41985"/>
<defs>
<clipPath id="clip0_879_3581">
<rect width="186" height="132.756" rx="9.85622" fill="white"/>
</clipPath>
</defs>
</svg>
