<svg width="554" height="394" viewBox="0 0 554 394" fill="none" xmlns="http://www.w3.org/2000/svg">
<g clip-path="url(#clip0_1088_5461)">
<path d="M553.868 383.886H0.133006C-0.111051 383.886 -0.308594 383.688 -0.308594 383.444C-0.308594 383.2 -0.111051 383.002 0.133006 383.002H553.868C554.112 383.002 554.31 383.2 554.31 383.444C554.31 383.688 554.112 383.886 553.868 383.886Z" fill="#292929"/>
<path d="M446.97 383.444H126.461V15.8567C126.461 9.53118 131.589 4.40332 137.914 4.40332H435.516C441.842 4.40332 446.97 9.53118 446.97 15.8567V383.444Z" fill="white"/>
<path d="M446.97 383.886H126.461C126.217 383.886 126.02 383.688 126.02 383.444V15.8566C126.02 9.29767 131.356 3.96167 137.914 3.96167H435.516C442.075 3.96167 447.411 9.29797 447.411 15.8566V383.444C447.411 383.688 447.213 383.886 446.97 383.886ZM126.903 383.003H446.528V15.8566C446.528 9.78461 441.588 4.84487 435.516 4.84487H137.914C131.842 4.84487 126.903 9.78461 126.903 15.8566V383.003Z" fill="#292929"/>
<path d="M439.58 367.185H134.574C134.33 367.185 134.133 366.987 134.133 366.744V31.2626C134.133 31.0186 134.33 30.821 134.574 30.821H439.58C439.824 30.821 440.022 31.0186 440.022 31.2626V366.744C440.022 366.988 439.824 367.185 439.58 367.185ZM135.016 366.302H439.139V31.7042H135.016V366.302Z" fill="#292929"/>
<path d="M151.337 22.2854C148.907 22.2854 146.93 20.3082 146.93 17.8779C146.93 15.4477 148.907 13.4705 151.337 13.4705C153.767 13.4705 155.745 15.4477 155.745 17.8779C155.745 20.3082 153.767 22.2854 151.337 22.2854ZM151.337 14.3537C149.394 14.3537 147.813 15.9346 147.813 17.8779C147.813 19.8213 149.394 21.4022 151.337 21.4022C153.28 21.4022 154.861 19.8213 154.861 17.8779C154.861 15.9346 153.28 14.3537 151.337 14.3537Z" fill="#292929"/>
<path d="M162.513 22.2854C160.083 22.2854 158.105 20.3082 158.105 17.8779C158.105 15.4477 160.083 13.4705 162.513 13.4705C164.943 13.4705 166.92 15.4477 166.92 17.8779C166.92 20.3082 164.943 22.2854 162.513 22.2854ZM162.513 14.3537C160.57 14.3537 158.989 15.9346 158.989 17.8779C158.989 19.8213 160.57 21.4022 162.513 21.4022C164.456 21.4022 166.037 19.8213 166.037 17.8779C166.037 15.9346 164.456 14.3537 162.513 14.3537Z" fill="#292929"/>
<path d="M173.693 22.2854C171.262 22.2854 169.285 20.3082 169.285 17.8779C169.285 15.4477 171.262 13.4705 173.693 13.4705C176.123 13.4705 178.1 15.4477 178.1 17.8779C178.1 20.3082 176.123 22.2854 173.693 22.2854ZM173.693 14.3537C171.749 14.3537 170.168 15.9346 170.168 17.8779C170.168 19.8213 171.749 21.4022 173.693 21.4022C175.636 21.4022 177.217 19.8213 177.217 17.8779C177.217 15.9346 175.636 14.3537 173.693 14.3537Z" fill="#292929"/>
<path d="M389.467 22.1049H220.379C218.049 22.1049 216.152 20.2086 216.152 17.8779C216.152 15.5471 218.049 13.6509 220.379 13.6509H389.467C391.797 13.6509 393.694 15.5471 393.694 17.8779C393.694 20.2086 391.798 22.1049 389.467 22.1049ZM220.379 14.5341C218.536 14.5341 217.036 16.034 217.036 17.8779C217.036 19.7217 218.536 21.2217 220.379 21.2217H389.467C391.31 21.2217 392.81 19.7217 392.81 17.8779C392.81 16.034 391.31 14.5341 389.467 14.5341H220.379Z" fill="#292929"/>
<path d="M377.213 136.358H196.219V139.759H377.213V136.358Z" fill="#292929"/>
<path d="M345.326 150.579H196.219V153.98H345.326V150.579Z" fill="#292929"/>
<path d="M377.213 164.801H196.219V168.202H377.213V164.801Z" fill="#292929"/>
<path d="M377.214 217.205H321.074V220.605H377.214V217.205Z" fill="#292929"/>
<path d="M306.253 217.205H196.219V220.605H306.253V217.205Z" fill="#292929"/>
<path d="M377.213 231.426H196.219V234.827H377.213V231.426Z" fill="#292929"/>
<path d="M307.6 245.648H196.219V249.049H307.6V245.648Z" fill="#292929"/>
<path d="M377.207 298.052H273.91V301.453H377.207V298.052Z" fill="#292929"/>
<path d="M258.646 298.052H196.219V301.453H258.646V298.052Z" fill="#292929"/>
<path d="M258.595 312.273H196.219V315.674H258.595V312.273Z" fill="#292929"/>
<path d="M279.835 326.495H196.219V329.896H279.835V326.495Z" fill="#292929"/>
<path d="M385.599 102.595H67.6076C62.9875 102.595 59.2422 98.85 59.2422 94.2299V69.0316C59.2422 64.4116 62.9875 60.6663 67.6076 60.6663H385.599C390.219 60.6663 393.964 64.4116 393.964 69.0316V94.2299C393.964 98.85 390.219 102.595 385.599 102.595Z" fill="white"/>
<path d="M385.595 103.037H67.6038C62.7477 103.037 58.7969 99.086 58.7969 94.2299V69.0316C58.7969 64.1755 62.7477 60.2246 67.6038 60.2246H385.595C390.451 60.2246 394.402 64.1755 394.402 69.0316V94.2299C394.402 99.086 390.451 103.037 385.595 103.037ZM67.6038 61.1078C63.2347 61.1078 59.6801 64.6624 59.6801 69.0316V94.2299C59.6801 98.5991 63.2347 102.154 67.6038 102.154H385.595C389.964 102.154 393.519 98.5991 393.519 94.2299V69.0316C393.519 64.6624 389.964 61.1078 385.595 61.1078H67.6038Z" fill="#292929"/>
<path d="M90.6195 83.6554C91.7392 79.1815 89.0201 74.647 84.5462 73.5273C80.0724 72.4075 75.5378 75.1266 74.4181 79.6005C73.2984 84.0744 76.0174 88.6089 80.4913 89.7286C84.9652 90.8484 89.4997 88.1293 90.6195 83.6554Z" fill="#070633"/>
<path d="M115.393 82.7935C116.03 78.226 112.843 74.007 108.276 73.3701C103.708 72.7332 99.4893 75.9196 98.8524 80.4871C98.2155 85.0546 101.402 89.2736 105.969 89.9105C110.537 90.5474 114.756 87.361 115.393 82.7935Z" fill="#E7ECF2"/>
<path d="M139.86 83.5263C140.906 79.0349 138.114 74.5452 133.623 73.4984C129.131 72.4515 124.642 75.2438 123.595 79.7353C122.548 84.2267 125.34 88.7163 129.832 89.7632C134.323 90.8101 138.813 88.0177 139.86 83.5263Z" fill="white"/>
<path d="M131.725 90.4228C126.877 90.4228 122.934 86.4787 122.934 81.6308C122.934 76.7829 126.877 72.8389 131.725 72.8389C136.573 72.8389 140.517 76.7829 140.517 81.6308C140.517 86.4787 136.573 90.4228 131.725 90.4228ZM131.725 73.7221C127.364 73.7221 123.817 77.2699 123.817 81.6308C123.817 85.9918 127.365 89.5396 131.725 89.5396C136.086 89.5396 139.634 85.9918 139.634 81.6308C139.634 77.2699 136.086 73.7221 131.725 73.7221Z" fill="#292929"/>
<path d="M502.643 311.36H341.601C337.619 311.36 334.391 308.419 334.391 304.791V256.987C334.391 253.36 337.618 250.419 341.601 250.419H502.643C506.625 250.419 509.853 253.36 509.853 256.987V304.792C509.853 308.419 506.625 311.36 502.643 311.36Z" fill="white"/>
<path d="M502.716 311.698H340.996C337.139 311.698 334 308.56 334 304.702V256.996C334 253.139 337.139 250 340.996 250H502.716C506.573 250 509.712 253.139 509.712 256.996V304.702C509.712 308.56 506.573 311.698 502.716 311.698ZM340.996 250.883C337.626 250.883 334.883 253.626 334.883 256.997V304.702C334.883 308.073 337.626 310.815 340.996 310.815H502.716C506.086 310.815 508.829 308.073 508.829 304.702V256.996C508.829 253.626 506.086 250.883 502.716 250.883L340.996 250.883Z" fill="#292929"/>
<path d="M208.74 383.444H92.5732C86.2786 383.444 81.1758 378.341 81.1758 372.047V143.974C81.1758 137.68 86.2786 132.577 92.5732 132.577H208.741C215.035 132.577 220.138 137.68 220.138 143.974V372.047C220.138 378.341 215.035 383.444 208.74 383.444Z" fill="white"/>
<path d="M208.741 383.886H92.5734C86.0453 383.886 80.7344 378.575 80.7344 372.047V143.974C80.7344 137.446 86.0453 132.135 92.5734 132.135H208.741C215.269 132.135 220.58 137.446 220.58 143.974V372.047C220.58 378.575 215.269 383.886 208.741 383.886ZM92.5734 133.018C86.5326 133.018 81.6176 137.933 81.6176 143.974V372.047C81.6176 378.088 86.5323 383.002 92.5734 383.002H208.741C214.782 383.002 219.696 378.088 219.696 372.047V143.974C219.696 137.933 214.782 133.018 208.741 133.018H92.5734Z" fill="#292929"/>
<path d="M204.495 376.765H96.8189C92.1047 376.765 88.2695 372.93 88.2695 368.216V147.804C88.2695 143.09 92.1047 139.255 96.8189 139.255H204.495C209.209 139.255 213.044 143.09 213.044 147.804V368.216C213.044 372.93 209.208 376.765 204.495 376.765ZM96.8189 140.138C92.5919 140.138 89.1527 143.577 89.1527 147.805V368.216C89.1527 372.443 92.5919 375.882 96.8189 375.882H204.495C208.722 375.882 212.161 372.443 212.161 368.216V147.804C212.161 143.577 208.722 140.138 204.495 140.138L96.8189 140.138Z" fill="#292929"/>
<path d="M166.247 147.718H135.062V148.601H166.247V147.718Z" fill="#292929"/>
<path d="M194.853 271.24H107.599C104.764 271.24 102.465 268.942 102.465 266.106V185.068C102.465 182.233 104.763 179.935 107.599 179.935H194.853C197.689 179.935 199.987 182.233 199.987 185.068V266.107C199.987 268.942 197.689 271.24 194.853 271.24Z" fill="#E7ECF2"/>
<path d="M132.574 294.47H192.214C195.326 294.47 197.848 296.992 197.848 300.103C197.848 303.215 195.325 305.737 192.214 305.737H132.574V294.47Z" fill="#E7ECF2"/>
<path d="M169.875 305.737H110.235C107.124 305.737 104.602 303.215 104.602 300.103C104.602 296.992 107.124 294.47 110.235 294.47H169.875V305.737H169.875Z" fill="#29815B"/>
<path d="M132.574 318.521H192.214C195.326 318.521 197.848 321.043 197.848 324.154C197.848 327.266 195.325 329.788 192.214 329.788H132.574V318.521Z" fill="#E7ECF2"/>
<path d="M150.764 329.788H110.235C107.124 329.788 104.602 327.265 104.602 324.154C104.602 321.043 107.124 318.521 110.235 318.521H150.764V329.788Z" fill="#29815B"/>
<path d="M415.07 141.509C427.904 128.675 427.904 107.867 415.07 95.0327C402.236 82.1987 381.428 82.1987 368.594 95.0327C355.759 107.867 355.759 128.675 368.594 141.509C381.428 154.343 402.236 154.343 415.07 141.509Z" fill="#29815B"/>
<path d="M389.285 129.598C388.742 129.598 388.196 129.411 387.753 129.031L375.854 118.832C374.866 117.985 374.752 116.498 375.598 115.511C376.445 114.523 377.932 114.409 378.919 115.255L389.06 123.947L420.792 88.1697C421.656 87.1968 423.144 87.1076 424.117 87.9707C425.091 88.8339 425.18 90.3224 424.317 91.2954L391.047 128.805C390.583 129.33 389.935 129.598 389.285 129.598Z" fill="white"/>
<path d="M126.993 242.941H122.967L134.613 211.224H138.577L150.223 242.941H146.197L136.719 216.242H136.471L126.993 242.941ZM128.48 230.551H144.71V233.958H128.48V230.551ZM161.668 243.498C160.161 243.498 158.793 243.214 157.564 242.646C156.335 242.068 155.36 241.237 154.637 240.153C153.914 239.059 153.553 237.737 153.553 236.188C153.553 234.826 153.821 233.721 154.358 232.874C154.895 232.017 155.613 231.346 156.511 230.861C157.409 230.376 158.4 230.014 159.484 229.777C160.579 229.529 161.678 229.333 162.783 229.188C164.228 229.003 165.4 228.863 166.298 228.77C167.207 228.667 167.868 228.497 168.281 228.259C168.704 228.022 168.916 227.609 168.916 227.02V226.896C168.916 225.368 168.498 224.181 167.661 223.334C166.835 222.488 165.581 222.065 163.898 222.065C162.153 222.065 160.785 222.447 159.794 223.211C158.803 223.975 158.106 224.79 157.703 225.657L154.234 224.419C154.854 222.973 155.68 221.848 156.712 221.042C157.755 220.227 158.891 219.659 160.119 219.339C161.358 219.009 162.576 218.843 163.774 218.843C164.538 218.843 165.416 218.936 166.407 219.122C167.408 219.298 168.374 219.664 169.303 220.222C170.242 220.779 171.022 221.621 171.641 222.746C172.261 223.871 172.571 225.379 172.571 227.268V242.941H168.916V239.719H168.73C168.482 240.236 168.069 240.788 167.491 241.377C166.913 241.965 166.144 242.466 165.183 242.879C164.223 243.292 163.051 243.498 161.668 243.498ZM162.225 240.215C163.671 240.215 164.889 239.931 165.88 239.363C166.882 238.795 167.635 238.062 168.141 237.164C168.658 236.266 168.916 235.321 168.916 234.33V230.985C168.761 231.171 168.42 231.341 167.894 231.496C167.377 231.641 166.779 231.77 166.097 231.883C165.426 231.986 164.77 232.079 164.13 232.162C163.501 232.234 162.989 232.296 162.597 232.348C161.647 232.472 160.759 232.673 159.933 232.952C159.118 233.22 158.457 233.628 157.951 234.175C157.456 234.712 157.208 235.445 157.208 236.374C157.208 237.644 157.677 238.604 158.617 239.255C159.567 239.895 160.77 240.215 162.225 240.215Z" fill="#828282"/>
<path d="M361.964 288.677H360.007L365.667 273.261H367.594L373.255 288.677H371.297L366.691 275.699H366.57L361.964 288.677ZM362.686 282.655H370.575V284.311H362.686V282.655ZM375.415 288.677V277.115H377.131V278.861H377.252C377.462 278.289 377.844 277.825 378.396 277.468C378.948 277.112 379.57 276.934 380.262 276.934C380.393 276.934 380.556 276.936 380.752 276.941C380.947 276.947 381.095 276.954 381.196 276.964V278.771C381.136 278.756 380.998 278.733 380.782 278.703C380.571 278.668 380.348 278.65 380.112 278.65C379.55 278.65 379.048 278.768 378.606 279.004C378.17 279.235 377.824 279.556 377.568 279.967C377.317 280.374 377.191 280.838 377.191 281.36V288.677H375.415ZM383.302 288.677V277.115H385.078V288.677H383.302ZM384.205 275.188C383.859 275.188 383.56 275.07 383.309 274.834C383.063 274.598 382.94 274.314 382.94 273.983C382.94 273.652 383.063 273.369 383.309 273.133C383.56 272.897 383.859 272.779 384.205 272.779C384.551 272.779 384.847 272.897 385.093 273.133C385.344 273.369 385.469 273.652 385.469 273.983C385.469 274.314 385.344 274.598 385.093 274.834C384.847 275.07 384.551 275.188 384.205 275.188ZM391.734 288.947C391.001 288.947 390.336 288.809 389.739 288.533C389.142 288.252 388.668 287.849 388.317 287.322C387.965 286.79 387.79 286.147 387.79 285.395C387.79 284.732 387.92 284.195 388.181 283.784C388.442 283.367 388.791 283.041 389.227 282.805C389.664 282.569 390.146 282.394 390.673 282.278C391.205 282.158 391.739 282.063 392.276 281.992C392.979 281.902 393.548 281.834 393.985 281.789C394.426 281.739 394.747 281.656 394.948 281.541C395.154 281.425 395.257 281.225 395.257 280.938V280.878C395.257 280.136 395.054 279.558 394.647 279.147C394.246 278.735 393.636 278.53 392.818 278.53C391.97 278.53 391.305 278.715 390.823 279.087C390.341 279.458 390.003 279.855 389.807 280.276L388.121 279.674C388.422 278.971 388.823 278.424 389.325 278.033C389.832 277.637 390.384 277.361 390.981 277.205C391.583 277.044 392.176 276.964 392.758 276.964C393.129 276.964 393.556 277.009 394.037 277.1C394.524 277.185 394.993 277.363 395.445 277.634C395.902 277.905 396.28 278.314 396.582 278.861C396.883 279.408 397.033 280.141 397.033 281.059V288.677H395.257V287.111H395.166C395.046 287.362 394.845 287.63 394.564 287.916C394.283 288.202 393.909 288.446 393.443 288.646C392.976 288.847 392.406 288.947 391.734 288.947ZM392.005 287.352C392.708 287.352 393.3 287.214 393.781 286.938C394.268 286.662 394.635 286.305 394.88 285.869C395.131 285.432 395.257 284.973 395.257 284.491V282.865C395.182 282.956 395.016 283.039 394.76 283.114C394.509 283.184 394.218 283.247 393.887 283.302C393.561 283.352 393.242 283.397 392.931 283.438C392.625 283.473 392.376 283.503 392.186 283.528C391.724 283.588 391.292 283.686 390.891 283.821C390.495 283.952 390.173 284.15 389.927 284.416C389.687 284.677 389.566 285.033 389.566 285.485C389.566 286.102 389.794 286.569 390.251 286.885C390.713 287.196 391.297 287.352 392.005 287.352ZM406.9 281.24V282.896H400.155V281.24H406.9ZM411.802 273.261V288.677H410.025V273.261H411.802ZM418.458 288.947C417.725 288.947 417.06 288.809 416.463 288.533C415.866 288.252 415.392 287.849 415.04 287.322C414.689 286.79 414.513 286.147 414.513 285.395C414.513 284.732 414.644 284.195 414.905 283.784C415.166 283.367 415.515 283.041 415.951 282.805C416.388 282.569 416.869 282.394 417.396 282.278C417.928 282.158 418.463 282.063 419 281.992C419.702 281.902 420.272 281.834 420.708 281.789C421.15 281.739 421.471 281.656 421.672 281.541C421.878 281.425 421.98 281.225 421.98 280.938V280.878C421.98 280.136 421.777 279.558 421.371 279.147C420.969 278.735 420.36 278.53 419.542 278.53C418.694 278.53 418.029 278.715 417.547 279.087C417.065 279.458 416.726 279.855 416.531 280.276L414.845 279.674C415.146 278.971 415.547 278.424 416.049 278.033C416.556 277.637 417.108 277.361 417.705 277.205C418.307 277.044 418.899 276.964 419.481 276.964C419.853 276.964 420.279 277.009 420.761 277.1C421.248 277.185 421.717 277.363 422.169 277.634C422.625 277.905 423.004 278.314 423.305 278.861C423.606 279.408 423.757 280.141 423.757 281.059V288.677H421.98V287.111H421.89C421.77 287.362 421.569 287.63 421.288 287.916C421.007 288.202 420.633 288.446 420.166 288.646C419.7 288.847 419.13 288.947 418.458 288.947ZM418.729 287.352C419.431 287.352 420.023 287.214 420.505 286.938C420.992 286.662 421.358 286.305 421.604 285.869C421.855 285.432 421.98 284.973 421.98 284.491V282.865C421.905 282.956 421.74 283.039 421.484 283.114C421.233 283.184 420.942 283.247 420.611 283.302C420.284 283.352 419.966 283.397 419.655 283.438C419.348 283.473 419.1 283.503 418.909 283.528C418.448 283.588 418.016 283.686 417.615 283.821C417.218 283.952 416.897 284.15 416.651 284.416C416.41 284.677 416.29 285.033 416.29 285.485C416.29 286.102 416.518 286.569 416.975 286.885C417.437 287.196 418.021 287.352 418.729 287.352ZM427.24 288.677V273.261H429.017V278.951H429.167C429.298 278.751 429.478 278.495 429.709 278.183C429.945 277.867 430.281 277.586 430.718 277.34C431.159 277.09 431.757 276.964 432.509 276.964C433.483 276.964 434.341 277.207 435.084 277.694C435.826 278.181 436.406 278.871 436.822 279.764C437.239 280.657 437.447 281.711 437.447 282.926C437.447 284.15 437.239 285.211 436.822 286.11C436.406 287.003 435.829 287.695 435.091 288.187C434.353 288.674 433.503 288.917 432.539 288.917C431.797 288.917 431.202 288.794 430.755 288.549C430.309 288.298 429.965 288.014 429.724 287.698C429.483 287.377 429.298 287.111 429.167 286.9H428.956V288.677H427.24ZM428.986 282.896C428.986 283.769 429.114 284.539 429.37 285.206C429.626 285.869 430 286.388 430.492 286.765C430.984 287.136 431.586 287.322 432.298 287.322C433.041 287.322 433.661 287.126 434.158 286.734C434.66 286.338 435.036 285.806 435.287 285.139C435.543 284.466 435.671 283.719 435.671 282.896C435.671 282.083 435.545 281.35 435.294 280.698C435.048 280.04 434.675 279.521 434.173 279.139C433.676 278.753 433.051 278.56 432.298 278.56C431.576 278.56 430.969 278.743 430.477 279.109C429.985 279.471 429.614 279.977 429.363 280.63C429.112 281.277 428.986 282.032 428.986 282.896ZM445.012 288.917C443.898 288.917 442.937 288.671 442.129 288.18C441.326 287.683 440.706 286.99 440.27 286.102C439.838 285.209 439.623 284.17 439.623 282.986C439.623 281.802 439.838 280.758 440.27 279.855C440.706 278.946 441.314 278.239 442.091 277.732C442.874 277.22 443.788 276.964 444.831 276.964C445.434 276.964 446.028 277.064 446.615 277.265C447.202 277.466 447.737 277.792 448.219 278.244C448.7 278.69 449.084 279.282 449.37 280.02C449.656 280.758 449.799 281.666 449.799 282.745V283.498H440.887V281.962H447.993C447.993 281.31 447.862 280.728 447.601 280.216C447.346 279.704 446.979 279.3 446.502 279.004C446.031 278.708 445.474 278.56 444.831 278.56C444.124 278.56 443.512 278.735 442.995 279.087C442.483 279.433 442.089 279.885 441.813 280.442C441.537 280.999 441.399 281.596 441.399 282.233V283.257C441.399 284.13 441.55 284.87 441.851 285.477C442.157 286.08 442.581 286.539 443.123 286.855C443.665 287.166 444.294 287.322 445.012 287.322C445.479 287.322 445.9 287.256 446.277 287.126C446.658 286.99 446.987 286.79 447.263 286.524C447.539 286.253 447.752 285.917 447.903 285.515L449.619 285.997C449.438 286.579 449.134 287.091 448.708 287.532C448.281 287.969 447.754 288.31 447.127 288.556C446.5 288.797 445.795 288.917 445.012 288.917ZM454.278 273.261V288.677H452.502V273.261H454.278ZM458.254 281.24V279.614H467.528V281.24H458.254ZM458.254 285.696V284.07H467.528V285.696H458.254ZM469.702 278.078V276.723C469.702 276.312 469.774 275.875 469.92 275.413C470.07 274.947 470.286 274.498 470.567 274.066C470.853 273.629 471.197 273.251 471.598 272.929L472.562 273.712C472.246 274.164 471.97 274.636 471.734 275.127C471.503 275.614 471.388 276.136 471.388 276.693V278.078H469.702ZM473.555 278.078V276.723C473.555 276.312 473.628 275.875 473.774 275.413C473.924 274.947 474.14 274.498 474.421 274.066C474.707 273.629 475.051 273.251 475.452 272.929L476.416 273.712C476.1 274.164 475.824 274.636 475.588 275.127C475.357 275.614 475.242 276.136 475.242 276.693V278.078H473.555ZM485.904 273.261V274.616C485.904 275.027 485.829 275.466 485.678 275.933C485.533 276.395 485.317 276.844 485.031 277.28C484.75 277.712 484.409 278.088 484.007 278.409L483.044 277.626C483.36 277.175 483.633 276.706 483.864 276.219C484.1 275.727 484.218 275.203 484.218 274.646V273.261H485.904ZM489.758 273.261V274.616C489.758 275.027 489.683 275.466 489.532 275.933C489.387 276.395 489.171 276.844 488.885 277.28C488.604 277.712 488.263 278.088 487.861 278.409L486.898 277.626C487.214 277.175 487.487 276.706 487.718 276.219C487.954 275.727 488.072 275.203 488.072 274.646V273.261H489.758Z" fill="#1E1E1E"/>
</g>
<defs>
<clipPath id="clip0_1088_5461">
<rect width="554" height="394" fill="white"/>
</clipPath>
</defs>
</svg>
