<svg width="186" height="133" viewBox="0 0 186 133" fill="none" xmlns="http://www.w3.org/2000/svg">
<g clip-path="url(#clip0_1127_11666)">
<rect width="186" height="132.756" rx="9.85622" fill="#F6F9FC"/>
<path d="M48.5914 43C48.4873 43 48.3989 42.9688 48.3261 42.9064C48.2533 42.8336 48.2169 42.74 48.2169 42.6256V32.469C48.2169 32.3545 48.2533 32.2609 48.3261 32.1881C48.3989 32.1153 48.4873 32.0789 48.5914 32.0789H50.0111C50.1255 32.0789 50.2139 32.1153 50.2763 32.1881C50.3491 32.2609 50.3855 32.3545 50.3855 32.469V36.4942H54.988V32.469C54.988 32.3545 55.0244 32.2609 55.0972 32.1881C55.17 32.1153 55.2584 32.0789 55.3624 32.0789H56.7666C56.881 32.0789 56.9746 32.1153 57.0474 32.1881C57.1202 32.2609 57.1566 32.3545 57.1566 32.469V42.6256C57.1566 42.7296 57.1202 42.818 57.0474 42.8908C56.9746 42.9636 56.881 43 56.7666 43H55.3624C55.2584 43 55.17 42.9636 55.0972 42.8908C55.0244 42.818 54.988 42.7296 54.988 42.6256V38.4443H50.3855V42.6256C50.3855 42.7296 50.3491 42.818 50.2763 42.8908C50.2139 42.9636 50.1255 43 50.0111 43H48.5914ZM62.8904 43.156C61.7359 43.156 60.8206 42.8232 60.1446 42.1575C59.4685 41.4918 59.1044 40.5454 59.0524 39.318C59.042 39.214 59.0368 39.084 59.0368 38.928C59.0368 38.7616 59.042 38.6316 59.0524 38.538C59.094 37.7579 59.2709 37.0818 59.5829 36.5098C59.9053 35.9377 60.3474 35.5009 60.909 35.1992C61.4707 34.8872 62.1312 34.7312 62.8904 34.7312C63.7329 34.7312 64.4402 34.908 65.0122 35.2616C65.5843 35.6049 66.0159 36.0885 66.3072 36.7126C66.5984 37.3262 66.744 38.0387 66.744 38.85V39.1776C66.744 39.2816 66.7076 39.37 66.6348 39.4428C66.562 39.5157 66.4684 39.5521 66.354 39.5521H61.1743C61.1743 39.5521 61.1743 39.5677 61.1743 39.5989C61.1743 39.6301 61.1743 39.6561 61.1743 39.6769C61.1847 40.0409 61.2523 40.3789 61.3771 40.691C61.5123 40.9926 61.7047 41.237 61.9543 41.4242C62.2144 41.6115 62.5212 41.7051 62.8748 41.7051C63.1661 41.7051 63.4105 41.6635 63.6081 41.5803C63.8057 41.4866 63.9669 41.3826 64.0917 41.2682C64.2166 41.1538 64.305 41.0602 64.357 40.9874C64.4506 40.8626 64.5234 40.7898 64.5754 40.769C64.6378 40.7378 64.7262 40.7222 64.8406 40.7222H66.1824C66.2864 40.7222 66.3696 40.7534 66.432 40.8158C66.5048 40.8782 66.536 40.9562 66.5256 41.0498C66.5152 41.2162 66.4268 41.419 66.2604 41.6583C66.1043 41.8975 65.8755 42.1315 65.5739 42.3603C65.2723 42.5892 64.8926 42.7816 64.435 42.9376C63.9877 43.0832 63.4729 43.156 62.8904 43.156ZM61.1743 38.2415H64.6222V38.1947C64.6222 37.7891 64.5546 37.4354 64.4194 37.1338C64.2842 36.8322 64.0865 36.593 63.8265 36.4161C63.5665 36.2393 63.2545 36.1509 62.8904 36.1509C62.5264 36.1509 62.2144 36.2393 61.9543 36.4161C61.6943 36.593 61.4967 36.8322 61.3615 37.1338C61.2367 37.4354 61.1743 37.7891 61.1743 38.1947V38.2415ZM70.7559 43.156C70.2151 43.156 69.7262 43.052 69.2894 42.844C68.8525 42.6256 68.5041 42.3395 68.2441 41.9859C67.9945 41.6219 67.8696 41.2162 67.8696 40.769C67.8696 40.0409 68.1609 39.4636 68.7433 39.0372C69.3362 38.6004 70.1163 38.3091 71.0836 38.1635L73.221 37.8515V37.5239C73.221 37.087 73.1118 36.749 72.8933 36.5098C72.6749 36.2705 72.3005 36.1509 71.77 36.1509C71.3956 36.1509 71.0888 36.2289 70.8495 36.3849C70.6207 36.5306 70.4491 36.7282 70.3347 36.9778C70.2515 37.113 70.1319 37.1806 69.9758 37.1806H68.7433C68.6289 37.1806 68.5405 37.1494 68.4781 37.087C68.4261 37.0246 68.4001 36.9414 68.4001 36.8374C68.4105 36.671 68.4781 36.4681 68.6029 36.2289C68.7277 35.9897 68.9253 35.7609 69.1958 35.5425C69.4662 35.3136 69.8146 35.1212 70.2411 34.9652C70.6675 34.8092 71.1824 34.7312 71.7856 34.7312C72.4409 34.7312 72.9921 34.8144 73.4394 34.9808C73.897 35.1368 74.2611 35.35 74.5315 35.6205C74.8019 35.8909 74.9995 36.2081 75.1244 36.5722C75.2492 36.9362 75.3116 37.321 75.3116 37.7267V42.6256C75.3116 42.7296 75.2752 42.818 75.2024 42.8908C75.1296 42.9636 75.0412 43 74.9371 43H73.6734C73.559 43 73.4654 42.9636 73.3926 42.8908C73.3302 42.818 73.299 42.7296 73.299 42.6256V42.0171C73.1638 42.2147 72.9817 42.4019 72.7529 42.5788C72.5241 42.7452 72.2433 42.8856 71.9104 43C71.588 43.104 71.2032 43.156 70.7559 43.156ZM71.2864 41.6739C71.6504 41.6739 71.978 41.5959 72.2693 41.4398C72.5709 41.2838 72.8049 41.0446 72.9713 40.7222C73.1482 40.3893 73.2366 39.9733 73.2366 39.474V39.1464L71.6764 39.396C71.0628 39.4897 70.6051 39.6405 70.3035 39.8485C70.0019 40.0565 69.851 40.3113 69.851 40.613C69.851 40.8418 69.9186 41.0394 70.0539 41.2058C70.1995 41.3618 70.3815 41.4814 70.5999 41.5647C70.8183 41.6375 71.0472 41.6739 71.2864 41.6739ZM80.3242 43.156C79.7833 43.156 79.3049 43.0676 78.8888 42.8908C78.4832 42.7036 78.1452 42.4435 77.8747 42.1107C77.6043 41.7779 77.3963 41.3878 77.2507 40.9406C77.1051 40.4829 77.0219 39.9837 77.0011 39.4428C76.9907 39.2556 76.9855 39.0892 76.9855 38.9436C76.9855 38.7876 76.9907 38.616 77.0011 38.4287C77.0219 37.9087 77.0999 37.425 77.2351 36.9778C77.3807 36.5306 77.5887 36.1405 77.8591 35.8077C78.14 35.4644 78.4832 35.1992 78.8888 35.012C79.3049 34.8248 79.7833 34.7312 80.3242 34.7312C80.8858 34.7312 81.3591 34.83 81.7439 35.0276C82.1392 35.2148 82.4668 35.4592 82.7268 35.7609V32.2973C82.7268 32.1933 82.758 32.1049 82.8204 32.0321C82.8932 31.9593 82.9869 31.9229 83.1013 31.9229H84.4274C84.5314 31.9229 84.6198 31.9593 84.6926 32.0321C84.7654 32.1049 84.8018 32.1933 84.8018 32.2973V42.6256C84.8018 42.7296 84.7654 42.818 84.6926 42.8908C84.6198 42.9636 84.5314 43 84.4274 43H83.1949C83.0805 43 82.9868 42.9636 82.914 42.8908C82.8516 42.818 82.8204 42.7296 82.8204 42.6256V42.0483C82.5604 42.3707 82.2276 42.636 81.8219 42.844C81.4267 43.052 80.9274 43.156 80.3242 43.156ZM80.9014 41.4866C81.3383 41.4866 81.6867 41.3878 81.9467 41.1902C82.2068 40.9926 82.3992 40.743 82.524 40.4413C82.6488 40.1293 82.7164 39.8121 82.7268 39.4897C82.7372 39.3024 82.7424 39.1048 82.7424 38.8968C82.7424 38.6784 82.7372 38.4755 82.7268 38.2883C82.7164 37.9763 82.6436 37.6799 82.5084 37.399C82.3732 37.1078 82.1756 36.8686 81.9155 36.6814C81.6555 36.4942 81.3175 36.4005 80.9014 36.4005C80.4646 36.4005 80.1162 36.4994 79.8561 36.697C79.6065 36.8842 79.4245 37.1338 79.3101 37.4458C79.1957 37.7579 79.1281 38.1011 79.1073 38.4755C79.0969 38.7876 79.0969 39.0996 79.1073 39.4116C79.1281 39.7861 79.1957 40.1293 79.3101 40.4413C79.4245 40.7534 79.6065 41.0082 79.8561 41.2058C80.1162 41.393 80.4646 41.4866 80.9014 41.4866ZM87.2557 43C87.1517 43 87.0632 42.9636 86.9904 42.8908C86.9176 42.818 86.8812 42.7296 86.8812 42.6256V35.2616C86.8812 35.1576 86.9176 35.0692 86.9904 34.9964C87.0632 34.9236 87.1517 34.8872 87.2557 34.8872H88.5506C88.665 34.8872 88.7534 34.9236 88.8158 34.9964C88.8886 35.0692 88.925 35.1576 88.925 35.2616V42.6256C88.925 42.7296 88.8886 42.818 88.8158 42.8908C88.7534 42.9636 88.665 43 88.5506 43H87.2557ZM87.1933 33.5455C87.0788 33.5455 86.9852 33.5143 86.9124 33.4518C86.85 33.379 86.8188 33.2854 86.8188 33.171V32.0477C86.8188 31.9437 86.85 31.8553 86.9124 31.7825C86.9852 31.7097 87.0788 31.6733 87.1933 31.6733H88.613C88.7274 31.6733 88.821 31.7097 88.8938 31.7825C88.9666 31.8553 89.003 31.9437 89.003 32.0477V33.171C89.003 33.2854 88.9666 33.379 88.8938 33.4518C88.821 33.5143 88.7274 33.5455 88.613 33.5455H87.1933ZM91.3694 43C91.2653 43 91.1769 42.9636 91.1041 42.8908C91.0313 42.818 90.9949 42.7296 90.9949 42.6256V35.2616C90.9949 35.1576 91.0313 35.0692 91.1041 34.9964C91.1769 34.9236 91.2653 34.8872 91.3694 34.8872H92.6487C92.7527 34.8872 92.8411 34.9236 92.9139 34.9964C92.9867 35.0692 93.0231 35.1576 93.0231 35.2616V35.9013C93.2935 35.5685 93.6368 35.2928 94.0528 35.0744C94.4793 34.8456 95.0045 34.7312 95.6286 34.7312C96.263 34.7312 96.8143 34.8768 97.2823 35.168C97.7504 35.4488 98.1092 35.8493 98.3589 36.3693C98.6189 36.8894 98.7489 37.5135 98.7489 38.2415V42.6256C98.7489 42.7296 98.7125 42.818 98.6397 42.8908C98.5669 42.9636 98.4785 43 98.3745 43H97.0015C96.8975 43 96.8091 42.9636 96.7363 42.8908C96.6635 42.818 96.6271 42.7296 96.6271 42.6256V38.3351C96.6271 37.7319 96.4763 37.2586 96.1746 36.9154C95.8834 36.5722 95.457 36.4005 94.8953 36.4005C94.3545 36.4005 93.9228 36.5722 93.6004 36.9154C93.2779 37.2586 93.1167 37.7319 93.1167 38.3351V42.6256C93.1167 42.7296 93.0803 42.818 93.0075 42.8908C92.9347 42.9636 92.8463 43 92.7423 43H91.3694ZM104.397 46.4323C103.638 46.4323 103.014 46.3335 102.525 46.1359C102.036 45.9383 101.651 45.6991 101.37 45.4182C101.089 45.1374 100.887 44.8566 100.762 44.5758C100.647 44.3053 100.585 44.0921 100.575 43.9361C100.564 43.8321 100.595 43.7385 100.668 43.6553C100.751 43.5825 100.845 43.5461 100.949 43.5461H102.306C102.41 43.5461 102.494 43.5669 102.556 43.6085C102.618 43.6605 102.67 43.7489 102.712 43.8737C102.774 44.0089 102.858 44.1545 102.962 44.3105C103.066 44.4665 103.222 44.5966 103.43 44.7006C103.648 44.815 103.945 44.8722 104.319 44.8722C104.714 44.8722 105.047 44.815 105.318 44.7006C105.588 44.5862 105.791 44.3937 105.926 44.1233C106.072 43.8529 106.144 43.4784 106.144 43V41.9391C105.895 42.2407 105.572 42.4851 105.177 42.6724C104.792 42.8596 104.314 42.9532 103.742 42.9532C103.18 42.9532 102.696 42.8648 102.291 42.688C101.885 42.5008 101.547 42.2459 101.277 41.9235C101.006 41.5907 100.798 41.2006 100.653 40.7534C100.517 40.3061 100.439 39.8121 100.419 39.2712C100.408 38.9904 100.408 38.7096 100.419 38.4287C100.439 37.9087 100.517 37.425 100.653 36.9778C100.788 36.5306 100.991 36.1405 101.261 35.8077C101.542 35.4644 101.885 35.1992 102.291 35.012C102.696 34.8248 103.18 34.7312 103.742 34.7312C104.335 34.7312 104.834 34.8456 105.24 35.0744C105.645 35.2928 105.978 35.5685 106.238 35.9013V35.2772C106.238 35.1628 106.274 35.0692 106.347 34.9964C106.42 34.9236 106.508 34.8872 106.612 34.8872H107.876C107.98 34.8872 108.069 34.9236 108.141 34.9964C108.214 35.0692 108.251 35.1628 108.251 35.2772L108.266 42.7972C108.266 43.5461 108.126 44.1909 107.845 44.7318C107.564 45.2726 107.138 45.6887 106.566 45.9799C106.004 46.2815 105.281 46.4323 104.397 46.4323ZM104.319 41.2994C104.745 41.2994 105.089 41.2058 105.349 41.0186C105.609 40.8314 105.801 40.587 105.926 40.2853C106.051 39.9837 106.124 39.6769 106.144 39.3648C106.155 39.2296 106.16 39.058 106.16 38.85C106.16 38.642 106.155 38.4755 106.144 38.3507C106.124 38.0283 106.051 37.7215 105.926 37.4302C105.801 37.1286 105.609 36.8842 105.349 36.697C105.089 36.4994 104.745 36.4005 104.319 36.4005C103.893 36.4005 103.549 36.4994 103.289 36.697C103.029 36.8842 102.842 37.1338 102.728 37.4458C102.624 37.7579 102.561 38.1011 102.54 38.4755C102.52 38.7252 102.52 38.98 102.54 39.24C102.561 39.6041 102.624 39.9473 102.728 40.2697C102.842 40.5818 103.029 40.8314 103.289 41.0186C103.549 41.2058 103.893 41.2994 104.319 41.2994ZM117.202 43C117.087 43 116.994 42.9636 116.921 42.8908C116.858 42.818 116.827 42.7296 116.827 42.6256V34.544L114.456 36.3693C114.362 36.4317 114.269 36.4577 114.175 36.4473C114.081 36.4265 113.998 36.3693 113.925 36.2757L113.27 35.4332C113.208 35.3396 113.182 35.2408 113.192 35.1368C113.213 35.0328 113.27 34.9496 113.364 34.8872L116.858 32.1881C116.921 32.1361 116.983 32.1049 117.046 32.0945C117.108 32.0841 117.176 32.0789 117.248 32.0789H118.621C118.725 32.0789 118.814 32.1153 118.887 32.1881C118.959 32.2609 118.996 32.3493 118.996 32.4533V42.6256C118.996 42.7296 118.959 42.818 118.887 42.8908C118.814 42.9636 118.725 43 118.621 43H117.202ZM48.3573 57.2088C48.2429 57.2088 48.1493 57.1724 48.0765 57.0996C48.0141 57.0268 47.9829 56.9384 47.9829 56.8344V55.8047C47.9829 55.7007 48.0141 55.6123 48.0765 55.5395C48.1493 55.4666 48.2429 55.4302 48.3573 55.4302H53.147C53.251 55.4302 53.3394 55.4666 53.4122 55.5395C53.485 55.6123 53.5214 55.7007 53.5214 55.8047V56.8344C53.5214 56.9384 53.485 57.0268 53.4122 57.0996C53.3394 57.1724 53.251 57.2088 53.147 57.2088H48.3573ZM56.0112 61C55.9072 61 55.8188 60.9688 55.746 60.9064C55.6732 60.8336 55.6368 60.74 55.6368 60.6256V50.469C55.6368 50.3545 55.6732 50.2609 55.746 50.1881C55.8188 50.1153 55.9072 50.0789 56.0112 50.0789H57.431C57.5454 50.0789 57.6338 50.1153 57.6962 50.1881C57.769 50.2609 57.8054 50.3545 57.8054 50.469V54.4942H62.4079V50.469C62.4079 50.3545 62.4443 50.2609 62.5171 50.1881C62.5899 50.1153 62.6783 50.0789 62.7823 50.0789H64.1865C64.3009 50.0789 64.3945 50.1153 64.4673 50.1881C64.5401 50.2609 64.5765 50.3545 64.5765 50.469V60.6256C64.5765 60.7296 64.5401 60.818 64.4673 60.8908C64.3945 60.9636 64.3009 61 64.1865 61H62.7823C62.6783 61 62.5899 60.9636 62.5171 60.8908C62.4443 60.818 62.4079 60.7296 62.4079 60.6256V56.4443H57.8054V60.6256C57.8054 60.7296 57.769 60.818 57.6962 60.8908C57.6338 60.9636 57.5454 61 57.431 61H56.0112ZM70.3103 61.156C69.1558 61.156 68.2405 60.8232 67.5644 60.1575C66.8884 59.4918 66.5243 58.5454 66.4723 57.318C66.4619 57.214 66.4567 57.084 66.4567 56.928C66.4567 56.7616 66.4619 56.6316 66.4723 56.538C66.5139 55.7579 66.6907 55.0818 67.0028 54.5098C67.3252 53.9377 67.7673 53.5009 68.3289 53.1992C68.8906 52.8872 69.551 52.7312 70.3103 52.7312C71.1528 52.7312 71.8601 52.908 72.4321 53.2616C73.0042 53.6049 73.4358 54.0885 73.727 54.7126C74.0183 55.3262 74.1639 56.0387 74.1639 56.85V57.1776C74.1639 57.2816 74.1275 57.37 74.0547 57.4428C73.9819 57.5157 73.8883 57.5521 73.7738 57.5521H68.5941C68.5941 57.5521 68.5941 57.5677 68.5941 57.5989C68.5941 57.6301 68.5941 57.6561 68.5941 57.6769C68.6045 58.0409 68.6721 58.3789 68.797 58.691C68.9322 58.9926 69.1246 59.237 69.3742 59.4242C69.6342 59.6115 69.9411 59.7051 70.2947 59.7051C70.5859 59.7051 70.8304 59.6635 71.028 59.5803C71.2256 59.4866 71.3868 59.3826 71.5116 59.2682C71.6364 59.1538 71.7248 59.0602 71.7769 58.9874C71.8705 58.8626 71.9433 58.7898 71.9953 58.769C72.0577 58.7378 72.1461 58.7222 72.2605 58.7222H73.6022C73.7062 58.7222 73.7895 58.7534 73.8519 58.8158C73.9247 58.8782 73.9559 58.9562 73.9455 59.0498C73.9351 59.2162 73.8467 59.419 73.6802 59.6583C73.5242 59.8975 73.2954 60.1315 72.9938 60.3603C72.6921 60.5892 72.3125 60.7816 71.8549 60.9376C71.4076 61.0832 70.8928 61.156 70.3103 61.156ZM68.5941 56.2415H72.0421V56.1947C72.0421 55.7891 71.9745 55.4354 71.8393 55.1338C71.704 54.8322 71.5064 54.593 71.2464 54.4161C70.9864 54.2393 70.6743 54.1509 70.3103 54.1509C69.9463 54.1509 69.6342 54.2393 69.3742 54.4161C69.1142 54.593 68.9166 54.8322 68.7814 55.1338C68.6565 55.4354 68.5941 55.7891 68.5941 56.1947V56.2415ZM78.1758 61.156C77.6349 61.156 77.1461 61.052 76.7093 60.844C76.2724 60.6256 75.924 60.3395 75.664 59.9859C75.4143 59.6219 75.2895 59.2162 75.2895 58.769C75.2895 58.0409 75.5807 57.4636 76.1632 57.0372C76.7561 56.6004 77.5361 56.3091 78.5034 56.1635L80.6408 55.8515V55.5239C80.6408 55.087 80.5316 54.749 80.3132 54.5098C80.0948 54.2705 79.7204 54.1509 79.1899 54.1509C78.8155 54.1509 78.5086 54.2289 78.2694 54.3849C78.0406 54.5306 77.869 54.7282 77.7546 54.9778C77.6714 55.113 77.5517 55.1806 77.3957 55.1806H76.1632C76.0488 55.1806 75.9604 55.1494 75.898 55.087C75.846 55.0246 75.82 54.9414 75.82 54.8374C75.8304 54.671 75.898 54.4681 76.0228 54.2289C76.1476 53.9897 76.3452 53.7609 76.6156 53.5425C76.8861 53.3136 77.2345 53.1212 77.661 52.9652C78.0874 52.8092 78.6022 52.7312 79.2055 52.7312C79.8608 52.7312 80.412 52.8144 80.8593 52.9808C81.3169 53.1368 81.681 53.35 81.9514 53.6205C82.2218 53.8909 82.4194 54.2081 82.5442 54.5722C82.6691 54.9362 82.7315 55.321 82.7315 55.7267V60.6256C82.7315 60.7296 82.6951 60.818 82.6222 60.8908C82.5494 60.9636 82.461 61 82.357 61H81.0933C80.9789 61 80.8853 60.9636 80.8125 60.8908C80.7501 60.818 80.7189 60.7296 80.7189 60.6256V60.0171C80.5836 60.2147 80.4016 60.4019 80.1728 60.5788C79.944 60.7452 79.6632 60.8856 79.3303 61C79.0079 61.104 78.623 61.156 78.1758 61.156ZM78.7063 59.6739C79.0703 59.6739 79.3979 59.5959 79.6892 59.4398C79.9908 59.2838 80.2248 59.0446 80.3912 58.7222C80.568 58.3893 80.6565 57.9733 80.6565 57.474V57.1464L79.0963 57.396C78.4826 57.4897 78.025 57.6405 77.7234 57.8485C77.4217 58.0565 77.2709 58.3113 77.2709 58.613C77.2709 58.8418 77.3385 59.0394 77.4737 59.2058C77.6193 59.3618 77.8014 59.4814 78.0198 59.5647C78.2382 59.6375 78.467 59.6739 78.7063 59.6739ZM87.7441 61.156C87.2032 61.156 86.7248 61.0676 86.3087 60.8908C85.9031 60.7036 85.565 60.4435 85.2946 60.1107C85.0242 59.7779 84.8162 59.3878 84.6706 58.9406C84.5249 58.4829 84.4417 57.9837 84.4209 57.4428C84.4105 57.2556 84.4053 57.0892 84.4053 56.9436C84.4053 56.7876 84.4105 56.616 84.4209 56.4287C84.4417 55.9087 84.5197 55.425 84.655 54.9778C84.8006 54.5306 85.0086 54.1405 85.279 53.8077C85.5598 53.4644 85.9031 53.1992 86.3087 53.012C86.7248 52.8248 87.2032 52.7312 87.7441 52.7312C88.3057 52.7312 88.779 52.83 89.1638 53.0276C89.559 53.2148 89.8867 53.4592 90.1467 53.7609V50.2973C90.1467 50.1933 90.1779 50.1049 90.2403 50.0321C90.3131 49.9593 90.4067 49.9229 90.5211 49.9229H91.8473C91.9513 49.9229 92.0397 49.9593 92.1125 50.0321C92.1853 50.1049 92.2217 50.1933 92.2217 50.2973V60.6256C92.2217 60.7296 92.1853 60.818 92.1125 60.8908C92.0397 60.9636 91.9513 61 91.8473 61H90.6148C90.5003 61 90.4067 60.9636 90.3339 60.8908C90.2715 60.818 90.2403 60.7296 90.2403 60.6256V60.0483C89.9803 60.3707 89.6475 60.636 89.2418 60.844C88.8466 61.052 88.3473 61.156 87.7441 61.156ZM88.3213 59.4866C88.7582 59.4866 89.1066 59.3878 89.3666 59.1902C89.6267 58.9926 89.8191 58.743 89.9439 58.4413C90.0687 58.1293 90.1363 57.8121 90.1467 57.4897C90.1571 57.3024 90.1623 57.1048 90.1623 56.8968C90.1623 56.6784 90.1571 56.4755 90.1467 56.2883C90.1363 55.9763 90.0635 55.6799 89.9283 55.399C89.7931 55.1078 89.5954 54.8686 89.3354 54.6814C89.0754 54.4942 88.7374 54.4005 88.3213 54.4005C87.8845 54.4005 87.536 54.4994 87.276 54.697C87.0264 54.8842 86.8444 55.1338 86.73 55.4458C86.6156 55.7579 86.5479 56.1011 86.5271 56.4755C86.5167 56.7876 86.5167 57.0996 86.5271 57.4116C86.5479 57.7861 86.6156 58.1293 86.73 58.4413C86.8444 58.7534 87.0264 59.0082 87.276 59.2058C87.536 59.393 87.8845 59.4866 88.3213 59.4866ZM94.6755 61C94.5715 61 94.4831 60.9636 94.4103 60.8908C94.3375 60.818 94.3011 60.7296 94.3011 60.6256V53.2616C94.3011 53.1576 94.3375 53.0692 94.4103 52.9964C94.4831 52.9236 94.5715 52.8872 94.6755 52.8872H95.9705C96.0849 52.8872 96.1733 52.9236 96.2357 52.9964C96.3085 53.0692 96.3449 53.1576 96.3449 53.2616V60.6256C96.3449 60.7296 96.3085 60.818 96.2357 60.8908C96.1733 60.9636 96.0849 61 95.9705 61H94.6755ZM94.6131 51.5455C94.4987 51.5455 94.4051 51.5143 94.3323 51.4518C94.2699 51.379 94.2387 51.2854 94.2387 51.171V50.0477C94.2387 49.9437 94.2699 49.8553 94.3323 49.7825C94.4051 49.7097 94.4987 49.6733 94.6131 49.6733H96.0329C96.1473 49.6733 96.2409 49.7097 96.3137 49.7825C96.3865 49.8553 96.4229 49.9437 96.4229 50.0477V51.171C96.4229 51.2854 96.3865 51.379 96.3137 51.4518C96.2409 51.5143 96.1473 51.5455 96.0329 51.5455H94.6131ZM98.7892 61C98.6852 61 98.5968 60.9636 98.524 60.8908C98.4512 60.818 98.4148 60.7296 98.4148 60.6256V53.2616C98.4148 53.1576 98.4512 53.0692 98.524 52.9964C98.5968 52.9236 98.6852 52.8872 98.7892 52.8872H100.069C100.173 52.8872 100.261 52.9236 100.334 52.9964C100.407 53.0692 100.443 53.1576 100.443 53.2616V53.9013C100.713 53.5685 101.057 53.2928 101.473 53.0744C101.899 52.8456 102.424 52.7312 103.048 52.7312C103.683 52.7312 104.234 52.8768 104.702 53.168C105.17 53.4488 105.529 53.8493 105.779 54.3693C106.039 54.8894 106.169 55.5135 106.169 56.2415V60.6256C106.169 60.7296 106.132 60.818 106.06 60.8908C105.987 60.9636 105.898 61 105.794 61H104.421C104.317 61 104.229 60.9636 104.156 60.8908C104.083 60.818 104.047 60.7296 104.047 60.6256V56.3351C104.047 55.7319 103.896 55.2586 103.595 54.9154C103.303 54.5722 102.877 54.4005 102.315 54.4005C101.774 54.4005 101.343 54.5722 101.02 54.9154C100.698 55.2586 100.537 55.7319 100.537 56.3351V60.6256C100.537 60.7296 100.5 60.818 100.427 60.8908C100.355 60.9636 100.266 61 100.162 61H98.7892ZM111.817 64.4323C111.058 64.4323 110.434 64.3335 109.945 64.1359C109.456 63.9383 109.071 63.6991 108.79 63.4182C108.509 63.1374 108.307 62.8566 108.182 62.5758C108.067 62.3053 108.005 62.0921 107.995 61.9361C107.984 61.8321 108.015 61.7385 108.088 61.6553C108.171 61.5825 108.265 61.5461 108.369 61.5461H109.726C109.83 61.5461 109.914 61.5669 109.976 61.6085C110.038 61.6605 110.09 61.7489 110.132 61.8737C110.194 62.0089 110.278 62.1545 110.382 62.3105C110.486 62.4665 110.642 62.5966 110.85 62.7006C111.068 62.815 111.364 62.8722 111.739 62.8722C112.134 62.8722 112.467 62.815 112.737 62.7006C113.008 62.5862 113.211 62.3937 113.346 62.1233C113.491 61.8529 113.564 61.4784 113.564 61V59.9391C113.315 60.2407 112.992 60.4851 112.597 60.6724C112.212 60.8596 111.734 60.9532 111.162 60.9532C110.6 60.9532 110.116 60.8648 109.711 60.688C109.305 60.5008 108.967 60.2459 108.697 59.9235C108.426 59.5907 108.218 59.2006 108.073 58.7534C107.937 58.3061 107.859 57.8121 107.838 57.2712C107.828 56.9904 107.828 56.7096 107.838 56.4287C107.859 55.9087 107.937 55.425 108.073 54.9778C108.208 54.5306 108.411 54.1405 108.681 53.8077C108.962 53.4644 109.305 53.1992 109.711 53.012C110.116 52.8248 110.6 52.7312 111.162 52.7312C111.754 52.7312 112.254 52.8456 112.659 53.0744C113.065 53.2928 113.398 53.5685 113.658 53.9013V53.2772C113.658 53.1628 113.694 53.0692 113.767 52.9964C113.84 52.9236 113.928 52.8872 114.032 52.8872H115.296C115.4 52.8872 115.488 52.9236 115.561 52.9964C115.634 53.0692 115.67 53.1628 115.67 53.2772L115.686 60.7972C115.686 61.5461 115.546 62.1909 115.265 62.7318C114.984 63.2726 114.558 63.6887 113.986 63.9799C113.424 64.2815 112.701 64.4323 111.817 64.4323ZM111.739 59.2994C112.165 59.2994 112.509 59.2058 112.769 59.0186C113.029 58.8314 113.221 58.587 113.346 58.2853C113.471 57.9837 113.543 57.6769 113.564 57.3648C113.575 57.2296 113.58 57.058 113.58 56.85C113.58 56.642 113.575 56.4755 113.564 56.3507C113.543 56.0283 113.471 55.7215 113.346 55.4302C113.221 55.1286 113.029 54.8842 112.769 54.697C112.509 54.4994 112.165 54.4005 111.739 54.4005C111.312 54.4005 110.969 54.4994 110.709 54.697C110.449 54.8842 110.262 55.1338 110.148 55.4458C110.044 55.7579 109.981 56.1011 109.96 56.4755C109.94 56.7252 109.94 56.98 109.96 57.24C109.981 57.6041 110.044 57.9473 110.148 58.2697C110.262 58.5818 110.449 58.8314 110.709 59.0186C110.969 59.2058 111.312 59.2994 111.739 59.2994ZM121.376 61C121.272 61 121.184 60.9636 121.111 60.8908C121.038 60.818 121.002 60.7296 121.002 60.6256V59.8299C121.002 59.7363 121.023 59.6271 121.064 59.5023C121.116 59.367 121.226 59.2318 121.392 59.0966L123.857 56.6472C124.543 56.1063 125.095 55.6487 125.511 55.2742C125.937 54.8894 126.244 54.541 126.431 54.2289C126.629 53.9065 126.728 53.5893 126.728 53.2772C126.728 52.8092 126.598 52.4295 126.338 52.1383C126.088 51.8471 125.688 51.7015 125.136 51.7015C124.772 51.7015 124.465 51.7795 124.216 51.9355C123.966 52.0811 123.769 52.2787 123.623 52.5284C123.488 52.778 123.394 53.0536 123.342 53.3552C123.321 53.4905 123.264 53.5841 123.171 53.6361C123.077 53.6881 122.983 53.7141 122.89 53.7141H121.501C121.408 53.7141 121.33 53.6829 121.267 53.6205C121.205 53.5581 121.174 53.4853 121.174 53.402C121.184 52.9548 121.278 52.5232 121.454 52.1071C121.631 51.6807 121.886 51.3062 122.219 50.9838C122.562 50.651 122.978 50.3857 123.467 50.1881C123.956 49.9905 124.507 49.8917 125.121 49.8917C125.984 49.8917 126.697 50.0373 127.258 50.3285C127.83 50.6198 128.257 51.015 128.537 51.5143C128.829 52.0135 128.974 52.5752 128.974 53.1992C128.974 53.6881 128.881 54.1405 128.694 54.5566C128.506 54.9622 128.236 55.3574 127.882 55.7423C127.529 56.1167 127.102 56.5016 126.603 56.8968L124.387 59.1434H128.834C128.948 59.1434 129.037 59.1798 129.099 59.2526C129.172 59.315 129.208 59.4034 129.208 59.5179V60.6256C129.208 60.7296 129.172 60.818 129.099 60.8908C129.037 60.9636 128.948 61 128.834 61H121.376ZM48.3573 75.2088C48.2429 75.2088 48.1493 75.1724 48.0765 75.0996C48.0141 75.0268 47.9829 74.9384 47.9829 74.8344V73.8047C47.9829 73.7007 48.0141 73.6123 48.0765 73.5395C48.1493 73.4666 48.2429 73.4302 48.3573 73.4302H53.147C53.251 73.4302 53.3394 73.4666 53.4122 73.5395C53.485 73.6123 53.5214 73.7007 53.5214 73.8047V74.8344C53.5214 74.9384 53.485 75.0268 53.4122 75.0996C53.3394 75.1724 53.251 75.2088 53.147 75.2088H48.3573ZM56.0112 79C55.9072 79 55.8188 78.9688 55.746 78.9064C55.6732 78.8336 55.6368 78.74 55.6368 78.6256V68.469C55.6368 68.3545 55.6732 68.2609 55.746 68.1881C55.8188 68.1153 55.9072 68.0789 56.0112 68.0789H57.431C57.5454 68.0789 57.6338 68.1153 57.6962 68.1881C57.769 68.2609 57.8054 68.3545 57.8054 68.469V72.4942H62.4079V68.469C62.4079 68.3545 62.4443 68.2609 62.5171 68.1881C62.5899 68.1153 62.6783 68.0789 62.7823 68.0789H64.1865C64.3009 68.0789 64.3945 68.1153 64.4673 68.1881C64.5401 68.2609 64.5765 68.3545 64.5765 68.469V78.6256C64.5765 78.7296 64.5401 78.818 64.4673 78.8908C64.3945 78.9636 64.3009 79 64.1865 79H62.7823C62.6783 79 62.5899 78.9636 62.5171 78.8908C62.4443 78.818 62.4079 78.7296 62.4079 78.6256V74.4443H57.8054V78.6256C57.8054 78.7296 57.769 78.818 57.6962 78.8908C57.6338 78.9636 57.5454 79 57.431 79H56.0112ZM70.3103 79.156C69.1558 79.156 68.2405 78.8232 67.5644 78.1575C66.8884 77.4918 66.5243 76.5454 66.4723 75.318C66.4619 75.214 66.4567 75.084 66.4567 74.928C66.4567 74.7616 66.4619 74.6316 66.4723 74.538C66.5139 73.7579 66.6907 73.0818 67.0028 72.5098C67.3252 71.9377 67.7673 71.5009 68.3289 71.1992C68.8906 70.8872 69.551 70.7312 70.3103 70.7312C71.1528 70.7312 71.8601 70.908 72.4321 71.2616C73.0042 71.6049 73.4358 72.0885 73.727 72.7126C74.0183 73.3262 74.1639 74.0387 74.1639 74.85V75.1776C74.1639 75.2816 74.1275 75.37 74.0547 75.4428C73.9819 75.5157 73.8883 75.5521 73.7738 75.5521H68.5941C68.5941 75.5521 68.5941 75.5677 68.5941 75.5989C68.5941 75.6301 68.5941 75.6561 68.5941 75.6769C68.6045 76.0409 68.6721 76.3789 68.797 76.691C68.9322 76.9926 69.1246 77.237 69.3742 77.4242C69.6342 77.6115 69.9411 77.7051 70.2947 77.7051C70.5859 77.7051 70.8304 77.6635 71.028 77.5803C71.2256 77.4866 71.3868 77.3826 71.5116 77.2682C71.6364 77.1538 71.7248 77.0602 71.7769 76.9874C71.8705 76.8626 71.9433 76.7898 71.9953 76.769C72.0577 76.7378 72.1461 76.7222 72.2605 76.7222H73.6022C73.7062 76.7222 73.7895 76.7534 73.8519 76.8158C73.9247 76.8782 73.9559 76.9562 73.9455 77.0498C73.9351 77.2162 73.8467 77.419 73.6802 77.6583C73.5242 77.8975 73.2954 78.1315 72.9938 78.3603C72.6921 78.5892 72.3125 78.7816 71.8549 78.9376C71.4076 79.0832 70.8928 79.156 70.3103 79.156ZM68.5941 74.2415H72.0421V74.1947C72.0421 73.7891 71.9745 73.4354 71.8393 73.1338C71.704 72.8322 71.5064 72.593 71.2464 72.4161C70.9864 72.2393 70.6743 72.1509 70.3103 72.1509C69.9463 72.1509 69.6342 72.2393 69.3742 72.4161C69.1142 72.593 68.9166 72.8322 68.7814 73.1338C68.6565 73.4354 68.5941 73.7891 68.5941 74.1947V74.2415ZM78.1758 79.156C77.6349 79.156 77.1461 79.052 76.7093 78.844C76.2724 78.6256 75.924 78.3395 75.664 77.9859C75.4143 77.6219 75.2895 77.2162 75.2895 76.769C75.2895 76.0409 75.5807 75.4636 76.1632 75.0372C76.7561 74.6004 77.5361 74.3091 78.5034 74.1635L80.6408 73.8515V73.5239C80.6408 73.087 80.5316 72.749 80.3132 72.5098C80.0948 72.2705 79.7204 72.1509 79.1899 72.1509C78.8155 72.1509 78.5086 72.2289 78.2694 72.3849C78.0406 72.5306 77.869 72.7282 77.7546 72.9778C77.6714 73.113 77.5517 73.1806 77.3957 73.1806H76.1632C76.0488 73.1806 75.9604 73.1494 75.898 73.087C75.846 73.0246 75.82 72.9414 75.82 72.8374C75.8304 72.671 75.898 72.4681 76.0228 72.2289C76.1476 71.9897 76.3452 71.7609 76.6156 71.5425C76.8861 71.3136 77.2345 71.1212 77.661 70.9652C78.0874 70.8092 78.6022 70.7312 79.2055 70.7312C79.8608 70.7312 80.412 70.8144 80.8593 70.9808C81.3169 71.1368 81.681 71.35 81.9514 71.6205C82.2218 71.8909 82.4194 72.2081 82.5442 72.5722C82.6691 72.9362 82.7315 73.321 82.7315 73.7267V78.6256C82.7315 78.7296 82.6951 78.818 82.6222 78.8908C82.5494 78.9636 82.461 79 82.357 79H81.0933C80.9789 79 80.8853 78.9636 80.8125 78.8908C80.7501 78.818 80.7189 78.7296 80.7189 78.6256V78.0171C80.5836 78.2147 80.4016 78.4019 80.1728 78.5788C79.944 78.7452 79.6632 78.8856 79.3303 79C79.0079 79.104 78.623 79.156 78.1758 79.156ZM78.7063 77.6739C79.0703 77.6739 79.3979 77.5959 79.6892 77.4398C79.9908 77.2838 80.2248 77.0446 80.3912 76.7222C80.568 76.3893 80.6565 75.9733 80.6565 75.474V75.1464L79.0963 75.396C78.4826 75.4897 78.025 75.6405 77.7234 75.8485C77.4217 76.0565 77.2709 76.3113 77.2709 76.613C77.2709 76.8418 77.3385 77.0394 77.4737 77.2058C77.6193 77.3618 77.8014 77.4814 78.0198 77.5647C78.2382 77.6375 78.467 77.6739 78.7063 77.6739ZM87.7441 79.156C87.2032 79.156 86.7248 79.0676 86.3087 78.8908C85.9031 78.7036 85.565 78.4435 85.2946 78.1107C85.0242 77.7779 84.8162 77.3878 84.6706 76.9406C84.5249 76.4829 84.4417 75.9837 84.4209 75.4428C84.4105 75.2556 84.4053 75.0892 84.4053 74.9436C84.4053 74.7876 84.4105 74.616 84.4209 74.4287C84.4417 73.9087 84.5197 73.425 84.655 72.9778C84.8006 72.5306 85.0086 72.1405 85.279 71.8077C85.5598 71.4644 85.9031 71.1992 86.3087 71.012C86.7248 70.8248 87.2032 70.7312 87.7441 70.7312C88.3057 70.7312 88.779 70.83 89.1638 71.0276C89.559 71.2148 89.8867 71.4592 90.1467 71.7609V68.2973C90.1467 68.1933 90.1779 68.1049 90.2403 68.0321C90.3131 67.9593 90.4067 67.9229 90.5211 67.9229H91.8473C91.9513 67.9229 92.0397 67.9593 92.1125 68.0321C92.1853 68.1049 92.2217 68.1933 92.2217 68.2973V78.6256C92.2217 78.7296 92.1853 78.818 92.1125 78.8908C92.0397 78.9636 91.9513 79 91.8473 79H90.6148C90.5003 79 90.4067 78.9636 90.3339 78.8908C90.2715 78.818 90.2403 78.7296 90.2403 78.6256V78.0483C89.9803 78.3707 89.6475 78.636 89.2418 78.844C88.8466 79.052 88.3473 79.156 87.7441 79.156ZM88.3213 77.4866C88.7582 77.4866 89.1066 77.3878 89.3666 77.1902C89.6267 76.9926 89.8191 76.743 89.9439 76.4413C90.0687 76.1293 90.1363 75.8121 90.1467 75.4897C90.1571 75.3024 90.1623 75.1048 90.1623 74.8968C90.1623 74.6784 90.1571 74.4755 90.1467 74.2883C90.1363 73.9763 90.0635 73.6799 89.9283 73.399C89.7931 73.1078 89.5954 72.8686 89.3354 72.6814C89.0754 72.4942 88.7374 72.4005 88.3213 72.4005C87.8845 72.4005 87.536 72.4994 87.276 72.697C87.0264 72.8842 86.8444 73.1338 86.73 73.4458C86.6156 73.7579 86.5479 74.1011 86.5271 74.4755C86.5167 74.7876 86.5167 75.0996 86.5271 75.4116C86.5479 75.7861 86.6156 76.1293 86.73 76.4413C86.8444 76.7534 87.0264 77.0082 87.276 77.2058C87.536 77.393 87.8845 77.4866 88.3213 77.4866ZM94.6755 79C94.5715 79 94.4831 78.9636 94.4103 78.8908C94.3375 78.818 94.3011 78.7296 94.3011 78.6256V71.2616C94.3011 71.1576 94.3375 71.0692 94.4103 70.9964C94.4831 70.9236 94.5715 70.8872 94.6755 70.8872H95.9705C96.0849 70.8872 96.1733 70.9236 96.2357 70.9964C96.3085 71.0692 96.3449 71.1576 96.3449 71.2616V78.6256C96.3449 78.7296 96.3085 78.818 96.2357 78.8908C96.1733 78.9636 96.0849 79 95.9705 79H94.6755ZM94.6131 69.5455C94.4987 69.5455 94.4051 69.5143 94.3323 69.4518C94.2699 69.379 94.2387 69.2854 94.2387 69.171V68.0477C94.2387 67.9437 94.2699 67.8553 94.3323 67.7825C94.4051 67.7097 94.4987 67.6733 94.6131 67.6733H96.0329C96.1473 67.6733 96.2409 67.7097 96.3137 67.7825C96.3865 67.8553 96.4229 67.9437 96.4229 68.0477V69.171C96.4229 69.2854 96.3865 69.379 96.3137 69.4518C96.2409 69.5143 96.1473 69.5455 96.0329 69.5455H94.6131ZM98.7892 79C98.6852 79 98.5968 78.9636 98.524 78.8908C98.4512 78.818 98.4148 78.7296 98.4148 78.6256V71.2616C98.4148 71.1576 98.4512 71.0692 98.524 70.9964C98.5968 70.9236 98.6852 70.8872 98.7892 70.8872H100.069C100.173 70.8872 100.261 70.9236 100.334 70.9964C100.407 71.0692 100.443 71.1576 100.443 71.2616V71.9013C100.713 71.5685 101.057 71.2928 101.473 71.0744C101.899 70.8456 102.424 70.7312 103.048 70.7312C103.683 70.7312 104.234 70.8768 104.702 71.168C105.17 71.4488 105.529 71.8493 105.779 72.3693C106.039 72.8894 106.169 73.5135 106.169 74.2415V78.6256C106.169 78.7296 106.132 78.818 106.06 78.8908C105.987 78.9636 105.898 79 105.794 79H104.421C104.317 79 104.229 78.9636 104.156 78.8908C104.083 78.818 104.047 78.7296 104.047 78.6256V74.3351C104.047 73.7319 103.896 73.2586 103.595 72.9154C103.303 72.5722 102.877 72.4005 102.315 72.4005C101.774 72.4005 101.343 72.5722 101.02 72.9154C100.698 73.2586 100.537 73.7319 100.537 74.3351V78.6256C100.537 78.7296 100.5 78.818 100.427 78.8908C100.355 78.9636 100.266 79 100.162 79H98.7892ZM111.817 82.4323C111.058 82.4323 110.434 82.3335 109.945 82.1359C109.456 81.9383 109.071 81.6991 108.79 81.4182C108.509 81.1374 108.307 80.8566 108.182 80.5758C108.067 80.3053 108.005 80.0921 107.995 79.9361C107.984 79.8321 108.015 79.7385 108.088 79.6553C108.171 79.5825 108.265 79.5461 108.369 79.5461H109.726C109.83 79.5461 109.914 79.5669 109.976 79.6085C110.038 79.6605 110.09 79.7489 110.132 79.8737C110.194 80.0089 110.278 80.1545 110.382 80.3105C110.486 80.4665 110.642 80.5966 110.85 80.7006C111.068 80.815 111.364 80.8722 111.739 80.8722C112.134 80.8722 112.467 80.815 112.737 80.7006C113.008 80.5862 113.211 80.3937 113.346 80.1233C113.491 79.8529 113.564 79.4784 113.564 79V77.9391C113.315 78.2407 112.992 78.4851 112.597 78.6724C112.212 78.8596 111.734 78.9532 111.162 78.9532C110.6 78.9532 110.116 78.8648 109.711 78.688C109.305 78.5008 108.967 78.2459 108.697 77.9235C108.426 77.5907 108.218 77.2006 108.073 76.7534C107.937 76.3061 107.859 75.8121 107.838 75.2712C107.828 74.9904 107.828 74.7096 107.838 74.4287C107.859 73.9087 107.937 73.425 108.073 72.9778C108.208 72.5306 108.411 72.1405 108.681 71.8077C108.962 71.4644 109.305 71.1992 109.711 71.012C110.116 70.8248 110.6 70.7312 111.162 70.7312C111.754 70.7312 112.254 70.8456 112.659 71.0744C113.065 71.2928 113.398 71.5685 113.658 71.9013V71.2772C113.658 71.1628 113.694 71.0692 113.767 70.9964C113.84 70.9236 113.928 70.8872 114.032 70.8872H115.296C115.4 70.8872 115.488 70.9236 115.561 70.9964C115.634 71.0692 115.67 71.1628 115.67 71.2772L115.686 78.7972C115.686 79.5461 115.546 80.1909 115.265 80.7318C114.984 81.2726 114.558 81.6887 113.986 81.9799C113.424 82.2815 112.701 82.4323 111.817 82.4323ZM111.739 77.2994C112.165 77.2994 112.509 77.2058 112.769 77.0186C113.029 76.8314 113.221 76.587 113.346 76.2853C113.471 75.9837 113.543 75.6769 113.564 75.3648C113.575 75.2296 113.58 75.058 113.58 74.85C113.58 74.642 113.575 74.4755 113.564 74.3507C113.543 74.0283 113.471 73.7215 113.346 73.4302C113.221 73.1286 113.029 72.8842 112.769 72.697C112.509 72.4994 112.165 72.4005 111.739 72.4005C111.312 72.4005 110.969 72.4994 110.709 72.697C110.449 72.8842 110.262 73.1338 110.148 73.4458C110.044 73.7579 109.981 74.1011 109.96 74.4755C109.94 74.7252 109.94 74.98 109.96 75.24C109.981 75.6041 110.044 75.9473 110.148 76.2697C110.262 76.5818 110.449 76.8314 110.709 77.0186C110.969 77.2058 111.312 77.2994 111.739 77.2994ZM121.376 79C121.272 79 121.184 78.9636 121.111 78.8908C121.038 78.818 121.002 78.7296 121.002 78.6256V77.8299C121.002 77.7363 121.023 77.6271 121.064 77.5023C121.116 77.367 121.226 77.2318 121.392 77.0966L123.857 74.6472C124.543 74.1063 125.095 73.6487 125.511 73.2742C125.937 72.8894 126.244 72.541 126.431 72.2289C126.629 71.9065 126.728 71.5893 126.728 71.2772C126.728 70.8092 126.598 70.4295 126.338 70.1383C126.088 69.8471 125.688 69.7015 125.136 69.7015C124.772 69.7015 124.465 69.7795 124.216 69.9355C123.966 70.0811 123.769 70.2787 123.623 70.5284C123.488 70.778 123.394 71.0536 123.342 71.3552C123.321 71.4905 123.264 71.5841 123.171 71.6361C123.077 71.6881 122.983 71.7141 122.89 71.7141H121.501C121.408 71.7141 121.33 71.6829 121.267 71.6205C121.205 71.5581 121.174 71.4853 121.174 71.402C121.184 70.9548 121.278 70.5232 121.454 70.1071C121.631 69.6807 121.886 69.3062 122.219 68.9838C122.562 68.651 122.978 68.3857 123.467 68.1881C123.956 67.9905 124.507 67.8917 125.121 67.8917C125.984 67.8917 126.697 68.0373 127.258 68.3285C127.83 68.6198 128.257 69.015 128.537 69.5143C128.829 70.0135 128.974 70.5752 128.974 71.1992C128.974 71.6881 128.881 72.1405 128.694 72.5566C128.506 72.9622 128.236 73.3574 127.882 73.7423C127.529 74.1167 127.102 74.5016 126.603 74.8968L124.387 77.1434H128.834C128.948 77.1434 129.037 77.1798 129.099 77.2526C129.172 77.315 129.208 77.4034 129.208 77.5179V78.6256C129.208 78.7296 129.172 78.818 129.099 78.8908C129.037 78.9636 128.948 79 128.834 79H121.376ZM48.3573 93.2088C48.2429 93.2088 48.1493 93.1724 48.0765 93.0996C48.0141 93.0268 47.9829 92.9384 47.9829 92.8344V91.8047C47.9829 91.7007 48.0141 91.6123 48.0765 91.5395C48.1493 91.4666 48.2429 91.4302 48.3573 91.4302H53.147C53.251 91.4302 53.3394 91.4666 53.4122 91.5395C53.485 91.6123 53.5214 91.7007 53.5214 91.8047V92.8344C53.5214 92.9384 53.485 93.0268 53.4122 93.0996C53.3394 93.1724 53.251 93.2088 53.147 93.2088H48.3573ZM55.8534 93.2088C55.739 93.2088 55.6454 93.1724 55.5726 93.0996C55.5102 93.0268 55.479 92.9384 55.479 92.8344V91.8047C55.479 91.7007 55.5102 91.6123 55.5726 91.5395C55.6454 91.4666 55.739 91.4302 55.8534 91.4302H60.6431C60.7471 91.4302 60.8355 91.4666 60.9083 91.5395C60.9811 91.6123 61.0175 91.7007 61.0175 91.8047V92.8344C61.0175 92.9384 60.9811 93.0268 60.9083 93.0996C60.8355 93.1724 60.7471 93.2088 60.6431 93.2088H55.8534ZM63.5073 97C63.4033 97 63.3149 96.9688 63.2421 96.9064C63.1693 96.8336 63.1329 96.74 63.1329 96.6256V86.469C63.1329 86.3545 63.1693 86.2609 63.2421 86.1881C63.3149 86.1153 63.4033 86.0789 63.5073 86.0789H64.927C65.0414 86.0789 65.1299 86.1153 65.1923 86.1881C65.2651 86.2609 65.3015 86.3545 65.3015 86.469V90.4942H69.9039V86.469C69.9039 86.3545 69.9403 86.2609 70.0131 86.1881C70.086 86.1153 70.1744 86.0789 70.2784 86.0789H71.6825C71.7969 86.0789 71.8905 86.1153 71.9633 86.1881C72.0361 86.2609 72.0725 86.3545 72.0725 86.469V96.6256C72.0725 96.7296 72.0361 96.818 71.9633 96.8908C71.8905 96.9636 71.7969 97 71.6825 97H70.2784C70.1744 97 70.086 96.9636 70.0131 96.8908C69.9403 96.818 69.9039 96.7296 69.9039 96.6256V92.4443H65.3015V96.6256C65.3015 96.7296 65.2651 96.818 65.1923 96.8908C65.1299 96.9636 65.0414 97 64.927 97H63.5073ZM77.8064 97.156C76.6518 97.156 75.7366 96.8232 75.0605 96.1575C74.3844 95.4918 74.0204 94.5454 73.9684 93.318C73.958 93.214 73.9528 93.084 73.9528 92.928C73.9528 92.7616 73.958 92.6316 73.9684 92.538C74.01 91.7579 74.1868 91.0818 74.4988 90.5098C74.8213 89.9377 75.2633 89.5009 75.825 89.1992C76.3866 88.8872 77.0471 88.7312 77.8064 88.7312C78.6488 88.7312 79.3561 88.908 79.9282 89.2616C80.5002 89.6049 80.9319 90.0885 81.2231 90.7126C81.5143 91.3262 81.6599 92.0387 81.6599 92.85V93.1776C81.6599 93.2816 81.6235 93.37 81.5507 93.4428C81.4779 93.5157 81.3843 93.5521 81.2699 93.5521H76.0902C76.0902 93.5521 76.0902 93.5677 76.0902 93.5989C76.0902 93.6301 76.0902 93.6561 76.0902 93.6769C76.1006 94.0409 76.1682 94.3789 76.293 94.691C76.4282 94.9926 76.6206 95.237 76.8703 95.4242C77.1303 95.6115 77.4371 95.7051 77.7908 95.7051C78.082 95.7051 78.3264 95.6635 78.524 95.5803C78.7217 95.4866 78.8829 95.3826 79.0077 95.2682C79.1325 95.1538 79.2209 95.0602 79.2729 94.9874C79.3665 94.8626 79.4393 94.7898 79.4913 94.769C79.5537 94.7378 79.6421 94.7222 79.7566 94.7222H81.0983C81.2023 94.7222 81.2855 94.7534 81.3479 94.8158C81.4207 94.8782 81.4519 94.9562 81.4415 95.0498C81.4311 95.2162 81.3427 95.419 81.1763 95.6583C81.0203 95.8975 80.7915 96.1315 80.4898 96.3603C80.1882 96.5892 79.8086 96.7816 79.3509 96.9376C78.9037 97.0832 78.3888 97.156 77.8064 97.156ZM76.0902 92.2415H79.5381V92.1947C79.5381 91.7891 79.4705 91.4354 79.3353 91.1338C79.2001 90.8322 79.0025 90.593 78.7425 90.4161C78.4824 90.2393 78.1704 90.1509 77.8064 90.1509C77.4423 90.1509 77.1303 90.2393 76.8703 90.4161C76.6102 90.593 76.4126 90.8322 76.2774 91.1338C76.1526 91.4354 76.0902 91.7891 76.0902 92.1947V92.2415ZM85.6719 97.156C85.131 97.156 84.6422 97.052 84.2053 96.844C83.7685 96.6256 83.42 96.3395 83.16 95.9859C82.9104 95.6219 82.7856 95.2162 82.7856 94.769C82.7856 94.0409 83.0768 93.4636 83.6593 93.0372C84.2521 92.6004 85.0322 92.3091 85.9995 92.1635L88.1369 91.8515V91.5239C88.1369 91.087 88.0277 90.749 87.8093 90.5098C87.5909 90.2705 87.2164 90.1509 86.686 90.1509C86.3115 90.1509 86.0047 90.2289 85.7655 90.3849C85.5366 90.5306 85.365 90.7282 85.2506 90.9778C85.1674 91.113 85.0478 91.1806 84.8918 91.1806H83.6593C83.5448 91.1806 83.4564 91.1494 83.394 91.087C83.342 91.0246 83.316 90.9414 83.316 90.8374C83.3264 90.671 83.394 90.4681 83.5188 90.2289C83.6437 89.9897 83.8413 89.7609 84.1117 89.5425C84.3821 89.3136 84.7306 89.1212 85.157 88.9652C85.5835 88.8092 86.0983 88.7312 86.7016 88.7312C87.3568 88.7312 87.9081 88.8144 88.3553 88.9808C88.813 89.1368 89.177 89.35 89.4474 89.6205C89.7179 89.8909 89.9155 90.2081 90.0403 90.5722C90.1651 90.9362 90.2275 91.321 90.2275 91.7267V96.6256C90.2275 96.7296 90.1911 96.818 90.1183 96.8908C90.0455 96.9636 89.9571 97 89.8531 97H88.5894C88.4749 97 88.3813 96.9636 88.3085 96.8908C88.2461 96.818 88.2149 96.7296 88.2149 96.6256V96.0171C88.0797 96.2147 87.8977 96.4019 87.6689 96.5788C87.44 96.7452 87.1592 96.8856 86.8264 97C86.5039 97.104 86.1191 97.156 85.6719 97.156ZM86.2023 95.6739C86.5663 95.6739 86.894 95.5959 87.1852 95.4398C87.4868 95.2838 87.7209 95.0446 87.8873 94.7222C88.0641 94.3893 88.1525 93.9733 88.1525 93.474V93.1464L86.5924 93.396C85.9787 93.4897 85.521 93.6405 85.2194 93.8485C84.9178 94.0565 84.767 94.3113 84.767 94.613C84.767 94.8418 84.8346 95.0394 84.9698 95.2058C85.1154 95.3618 85.2974 95.4814 85.5158 95.5647C85.7343 95.6375 85.9631 95.6739 86.2023 95.6739ZM95.2401 97.156C94.6993 97.156 94.2208 97.0676 93.8048 96.8908C93.3991 96.7036 93.0611 96.4435 92.7907 96.1107C92.5203 95.7779 92.3122 95.3878 92.1666 94.9406C92.021 94.4829 91.9378 93.9837 91.917 93.4428C91.9066 93.2556 91.9014 93.0892 91.9014 92.9436C91.9014 92.7876 91.9066 92.616 91.917 92.4287C91.9378 91.9087 92.0158 91.425 92.151 90.9778C92.2966 90.5306 92.5047 90.1405 92.7751 89.8077C93.0559 89.4644 93.3991 89.1992 93.8048 89.012C94.2208 88.8248 94.6993 88.7312 95.2401 88.7312C95.8018 88.7312 96.275 88.83 96.6599 89.0276C97.0551 89.2148 97.3827 89.4592 97.6428 89.7609V86.2973C97.6428 86.1933 97.674 86.1049 97.7364 86.0321C97.8092 85.9593 97.9028 85.9229 98.0172 85.9229H99.3433C99.4473 85.9229 99.5358 85.9593 99.6086 86.0321C99.6814 86.1049 99.7178 86.1933 99.7178 86.2973V96.6256C99.7178 96.7296 99.6814 96.818 99.6086 96.8908C99.5358 96.9636 99.4473 97 99.3433 97H98.1108C97.9964 97 97.9028 96.9636 97.83 96.8908C97.7676 96.818 97.7364 96.7296 97.7364 96.6256V96.0483C97.4763 96.3707 97.1435 96.636 96.7379 96.844C96.3426 97.052 95.8434 97.156 95.2401 97.156ZM95.8174 95.4866C96.2542 95.4866 96.6027 95.3878 96.8627 95.1902C97.1227 94.9926 97.3151 94.743 97.4399 94.4413C97.5648 94.1293 97.6324 93.8121 97.6428 93.4897C97.6532 93.3024 97.6584 93.1048 97.6584 92.8968C97.6584 92.6784 97.6532 92.4755 97.6428 92.2883C97.6324 91.9763 97.5596 91.6799 97.4243 91.399C97.2891 91.1078 97.0915 90.8686 96.8315 90.6814C96.5715 90.4942 96.2334 90.4005 95.8174 90.4005C95.3805 90.4005 95.0321 90.4994 94.7721 90.697C94.5225 90.8842 94.3404 91.1338 94.226 91.4458C94.1116 91.7579 94.044 92.1011 94.0232 92.4755C94.0128 92.7876 94.0128 93.0996 94.0232 93.4116C94.044 93.7861 94.1116 94.1293 94.226 94.4413C94.3404 94.7534 94.5225 95.0082 94.7721 95.2058C95.0321 95.393 95.3805 95.4866 95.8174 95.4866ZM102.172 97C102.068 97 101.979 96.9636 101.906 96.8908C101.834 96.818 101.797 96.7296 101.797 96.6256V89.2616C101.797 89.1576 101.834 89.0692 101.906 88.9964C101.979 88.9236 102.068 88.8872 102.172 88.8872H103.467C103.581 88.8872 103.669 88.9236 103.732 88.9964C103.805 89.0692 103.841 89.1576 103.841 89.2616V96.6256C103.841 96.7296 103.805 96.818 103.732 96.8908C103.669 96.9636 103.581 97 103.467 97H102.172ZM102.109 87.5455C101.995 87.5455 101.901 87.5143 101.828 87.4518C101.766 87.379 101.735 87.2854 101.735 87.171V86.0477C101.735 85.9437 101.766 85.8553 101.828 85.7825C101.901 85.7097 101.995 85.6733 102.109 85.6733H103.529C103.643 85.6733 103.737 85.7097 103.81 85.7825C103.883 85.8553 103.919 85.9437 103.919 86.0477V87.171C103.919 87.2854 103.883 87.379 103.81 87.4518C103.737 87.5143 103.643 87.5455 103.529 87.5455H102.109ZM106.285 97C106.181 97 106.093 96.9636 106.02 96.8908C105.947 96.818 105.911 96.7296 105.911 96.6256V89.2616C105.911 89.1576 105.947 89.0692 106.02 88.9964C106.093 88.9236 106.181 88.8872 106.285 88.8872H107.565C107.669 88.8872 107.757 88.9236 107.83 88.9964C107.903 89.0692 107.939 89.1576 107.939 89.2616V89.9013C108.209 89.5685 108.553 89.2928 108.969 89.0744C109.395 88.8456 109.92 88.7312 110.545 88.7312C111.179 88.7312 111.73 88.8768 112.198 89.168C112.666 89.4488 113.025 89.8493 113.275 90.3693C113.535 90.8894 113.665 91.5135 113.665 92.2415V96.6256C113.665 96.7296 113.628 96.818 113.556 96.8908C113.483 96.9636 113.394 97 113.29 97H111.917C111.813 97 111.725 96.9636 111.652 96.8908C111.579 96.818 111.543 96.7296 111.543 96.6256V92.3351C111.543 91.7319 111.392 91.2586 111.091 90.9154C110.799 90.5722 110.373 90.4005 109.811 90.4005C109.27 90.4005 108.839 90.5722 108.516 90.9154C108.194 91.2586 108.033 91.7319 108.033 92.3351V96.6256C108.033 96.7296 107.996 96.818 107.923 96.8908C107.851 96.9636 107.762 97 107.658 97H106.285ZM119.313 100.432C118.554 100.432 117.93 100.334 117.441 100.136C116.952 99.9383 116.567 99.6991 116.286 99.4182C116.005 99.1374 115.803 98.8566 115.678 98.5758C115.563 98.3053 115.501 98.0921 115.491 97.9361C115.48 97.8321 115.511 97.7385 115.584 97.6553C115.667 97.5825 115.761 97.5461 115.865 97.5461H117.222C117.326 97.5461 117.41 97.5669 117.472 97.6085C117.534 97.6605 117.586 97.7489 117.628 97.8737C117.69 98.0089 117.774 98.1545 117.878 98.3105C117.982 98.4665 118.138 98.5966 118.346 98.7006C118.564 98.815 118.861 98.8722 119.235 98.8722C119.63 98.8722 119.963 98.815 120.233 98.7006C120.504 98.5862 120.707 98.3937 120.842 98.1233C120.988 97.8529 121.06 97.4784 121.06 97V95.9391C120.811 96.2407 120.488 96.4851 120.093 96.6724C119.708 96.8596 119.23 96.9532 118.658 96.9532C118.096 96.9532 117.612 96.8648 117.207 96.688C116.801 96.5008 116.463 96.2459 116.193 95.9235C115.922 95.5907 115.714 95.2006 115.569 94.7534C115.433 94.3061 115.355 93.8121 115.335 93.2712C115.324 92.9904 115.324 92.7096 115.335 92.4287C115.355 91.9087 115.433 91.425 115.569 90.9778C115.704 90.5306 115.907 90.1405 116.177 89.8077C116.458 89.4644 116.801 89.1992 117.207 89.012C117.612 88.8248 118.096 88.7312 118.658 88.7312C119.251 88.7312 119.75 88.8456 120.155 89.0744C120.561 89.2928 120.894 89.5685 121.154 89.9013V89.2772C121.154 89.1628 121.19 89.0692 121.263 88.9964C121.336 88.9236 121.424 88.8872 121.528 88.8872H122.792C122.896 88.8872 122.985 88.9236 123.057 88.9964C123.13 89.0692 123.167 89.1628 123.167 89.2772L123.182 96.7972C123.182 97.5461 123.042 98.1909 122.761 98.7318C122.48 99.2726 122.054 99.6887 121.482 99.9799C120.92 100.282 120.197 100.432 119.313 100.432ZM119.235 95.2994C119.661 95.2994 120.005 95.2058 120.265 95.0186C120.525 94.8314 120.717 94.587 120.842 94.2853C120.967 93.9837 121.04 93.6769 121.06 93.3648C121.071 93.2296 121.076 93.058 121.076 92.85C121.076 92.642 121.071 92.4755 121.06 92.3507C121.04 92.0283 120.967 91.7215 120.842 91.4302C120.717 91.1286 120.525 90.8842 120.265 90.697C120.005 90.4994 119.661 90.4005 119.235 90.4005C118.809 90.4005 118.465 90.4994 118.205 90.697C117.945 90.8842 117.758 91.1338 117.644 91.4458C117.54 91.7579 117.477 92.1011 117.456 92.4755C117.436 92.7252 117.436 92.98 117.456 93.24C117.477 93.6041 117.54 93.9473 117.644 94.2697C117.758 94.5818 117.945 94.8314 118.205 95.0186C118.465 95.2058 118.809 95.2994 119.235 95.2994ZM132.648 97.156C131.92 97.156 131.291 97.0676 130.76 96.8908C130.23 96.714 129.788 96.4851 129.434 96.2043C129.091 95.9131 128.831 95.6011 128.654 95.2682C128.477 94.925 128.384 94.587 128.373 94.2541C128.373 94.1605 128.404 94.0877 128.467 94.0357C128.54 93.9733 128.623 93.9421 128.716 93.9421H130.121C130.225 93.9421 130.313 93.9629 130.386 94.0045C130.459 94.0461 130.521 94.1293 130.573 94.2541C130.667 94.535 130.817 94.7586 131.025 94.925C131.244 95.0914 131.494 95.211 131.774 95.2838C132.055 95.3462 132.352 95.3774 132.664 95.3774C133.288 95.3774 133.782 95.2318 134.146 94.9406C134.52 94.639 134.707 94.2125 134.707 93.6613C134.707 93.11 134.536 92.7148 134.193 92.4755C133.849 92.2259 133.371 92.1011 132.757 92.1011H131.15C131.036 92.1011 130.942 92.0699 130.869 92.0075C130.797 91.9347 130.76 91.8411 130.76 91.7267V91.0714C130.76 90.9674 130.781 90.879 130.823 90.8062C130.875 90.723 130.927 90.6554 130.979 90.6034L133.771 87.8731H129.309C129.195 87.8731 129.101 87.8367 129.028 87.7639C128.966 87.6911 128.935 87.6027 128.935 87.4987V86.469C128.935 86.3545 128.966 86.2609 129.028 86.1881C129.101 86.1153 129.195 86.0789 129.309 86.0789H136.002C136.117 86.0789 136.21 86.1153 136.283 86.1881C136.356 86.2609 136.392 86.3545 136.392 86.469V87.405C136.392 87.4987 136.372 87.5819 136.33 87.6547C136.288 87.7275 136.242 87.7899 136.19 87.8419L133.491 90.619L133.678 90.6346C134.312 90.6866 134.874 90.8322 135.363 91.0714C135.862 91.3002 136.247 91.6383 136.517 92.0855C136.798 92.5328 136.938 93.0944 136.938 93.7705C136.938 94.4777 136.751 95.0862 136.377 95.5959C136.013 96.0951 135.508 96.4799 134.863 96.7504C134.219 97.0208 133.48 97.156 132.648 97.156Z" fill="#070633"/>
</g>
<rect x="0.709924" y="0.709924" width="184.58" height="131.336" rx="9.1463" stroke="#18181B" stroke-width="1.41985"/>
<defs>
<clipPath id="clip0_1127_11666">
<rect width="186" height="132.756" rx="9.85622" fill="white"/>
</clipPath>
</defs>
</svg>
