<svg width="186" height="133" viewBox="0 0 186 133" fill="none" xmlns="http://www.w3.org/2000/svg">
<g clip-path="url(#clip0_1127_11628)">
<rect width="186" height="132.756" rx="9.85622" fill="#F6F9FC"/>
<path d="M49.0834 77.0393C48.9417 77.0393 48.8212 76.9897 48.722 76.8904C48.637 76.8054 48.5944 76.692 48.5944 76.5503V62.4341C48.5944 62.2924 48.637 62.179 48.722 62.094C48.8212 61.9948 48.9417 61.9452 49.0834 61.9452H50.0613C50.2031 61.9452 50.3164 61.9948 50.4015 62.094C50.5007 62.179 50.5503 62.2924 50.5503 62.4341V63.3696C50.8904 62.9019 51.344 62.5121 51.9109 62.2003C52.4778 61.8885 53.1864 61.7326 54.0368 61.7326C54.8305 61.7326 55.5037 61.8672 56.0564 62.1365C56.6234 62.4058 57.084 62.7743 57.4383 63.242C57.8068 63.7097 58.0832 64.2412 58.2674 64.8364C58.4517 65.4317 58.5509 66.0695 58.565 66.7498C58.5792 66.9765 58.5863 67.2175 58.5863 67.4726C58.5863 67.7277 58.5792 67.9686 58.565 68.1954C58.5509 68.8615 58.4517 69.4993 58.2674 70.1087C58.0832 70.704 57.8068 71.2355 57.4383 71.7032C57.084 72.1567 56.6234 72.5252 56.0564 72.8087C55.5037 73.078 54.8305 73.2126 54.0368 73.2126C53.2148 73.2126 52.5203 73.0638 51.9534 72.7661C51.4007 72.4543 50.9471 72.0717 50.5928 71.6181V76.5503C50.5928 76.692 50.5503 76.8054 50.4653 76.8904C50.3802 76.9897 50.2598 77.0393 50.1039 77.0393H49.0834ZM53.5904 71.4906C54.3274 71.4906 54.9014 71.3347 55.3124 71.0229C55.7376 70.6969 56.0423 70.2788 56.2265 69.7686C56.4108 69.2442 56.5171 68.6844 56.5454 68.0891C56.5596 67.6781 56.5596 67.2671 56.5454 66.8561C56.5171 66.2608 56.4108 65.7081 56.2265 65.1979C56.0423 64.6735 55.7376 64.2554 55.3124 63.9436C54.9014 63.6176 54.3274 63.4546 53.5904 63.4546C52.8959 63.4546 52.329 63.6176 51.8896 63.9436C51.4644 64.2695 51.1456 64.6876 50.933 65.1979C50.7345 65.6939 50.6212 66.2041 50.5928 66.7285C50.5786 66.9553 50.5716 67.2246 50.5716 67.5364C50.5716 67.8482 50.5786 68.1245 50.5928 68.3655C50.607 68.8615 50.7204 69.3505 50.933 69.8324C51.1597 70.3142 51.4928 70.7111 51.9321 71.0229C52.3715 71.3347 52.9242 71.4906 53.5904 71.4906ZM60.4365 73C60.3231 73 60.2168 72.9575 60.1176 72.8724C60.0326 72.7874 59.9901 72.6811 59.9901 72.5536C59.9901 72.511 59.9972 72.4614 60.0113 72.4047C60.0397 72.3339 60.0822 72.2559 60.1389 72.1709L63.838 67.345L60.3727 62.7743C60.316 62.6893 60.2735 62.6184 60.2452 62.5617C60.231 62.505 60.2239 62.4483 60.2239 62.3916C60.2239 62.2641 60.2664 62.1578 60.3515 62.0727C60.4365 61.9877 60.5428 61.9452 60.6704 61.9452H61.7546C61.9105 61.9452 62.0239 61.9877 62.0947 62.0727C62.1798 62.1436 62.2506 62.2145 62.3073 62.2853L65.1348 65.9632L67.9623 62.3066C68.019 62.2357 68.0828 62.1578 68.1536 62.0727C68.2387 61.9877 68.3591 61.9452 68.515 61.9452H69.5567C69.6843 61.9452 69.7906 61.9877 69.8756 62.0727C69.9607 62.1578 70.0032 62.2641 70.0032 62.3916C70.0032 62.4483 69.989 62.505 69.9607 62.5617C69.9465 62.6184 69.9111 62.6893 69.8544 62.7743L66.3466 67.3876L70.0457 72.1709C70.1024 72.2559 70.1378 72.3268 70.152 72.3835C70.1803 72.4402 70.1945 72.4969 70.1945 72.5536C70.1945 72.6811 70.152 72.7874 70.067 72.8724C69.9819 72.9575 69.8756 73 69.7481 73H68.6213C68.4796 73 68.3662 72.9646 68.2812 72.8937C68.1961 72.8228 68.1253 72.752 68.0686 72.6811L65.071 68.7907L62.0735 72.6811C62.0168 72.7378 61.9459 72.8087 61.8609 72.8937C61.79 72.9646 61.6766 73 61.5207 73H60.4365ZM80.9052 73C80.6926 73 80.5225 72.9504 80.395 72.8512C80.2816 72.752 80.1895 72.6244 80.1186 72.4685L76.1856 62.6042C76.1573 62.5334 76.1431 62.4625 76.1431 62.3916C76.1431 62.2641 76.1856 62.1578 76.2707 62.0727C76.3557 61.9877 76.462 61.9452 76.5896 61.9452H77.61C77.7659 61.9452 77.8864 61.9877 77.9714 62.0727C78.0565 62.1578 78.1061 62.2357 78.1202 62.3066L81.3729 70.6827L84.6043 62.3066C84.6327 62.2357 84.6823 62.1578 84.7531 62.0727C84.8382 61.9877 84.9586 61.9452 85.1145 61.9452H86.1562C86.2696 61.9452 86.3688 61.9877 86.4539 62.0727C86.5531 62.1578 86.6027 62.2641 86.6027 62.3916C86.6027 62.4625 86.5885 62.5334 86.5602 62.6042L82.6059 72.4685C82.5492 72.6244 82.4571 72.752 82.3296 72.8512C82.2162 72.9504 82.0461 73 81.8193 73H80.9052ZM92.3232 73.2126C91.5296 73.2126 90.8493 73.1134 90.2824 72.915C89.7154 72.7165 89.2548 72.4756 88.9005 72.1921C88.5462 71.9087 88.2769 71.6252 88.0927 71.3418C87.9226 71.0583 87.8305 70.8316 87.8163 70.6615C87.8021 70.5056 87.8517 70.3851 87.9651 70.3001C88.0785 70.215 88.1919 70.1725 88.3052 70.1725H89.2407C89.3257 70.1725 89.3895 70.1867 89.432 70.215C89.4887 70.2292 89.5595 70.2859 89.6446 70.3851C89.8288 70.5835 90.0343 70.782 90.2611 70.9804C90.4879 71.1788 90.7642 71.3418 91.0902 71.4693C91.4304 71.5969 91.8485 71.6607 92.3445 71.6607C93.0673 71.6607 93.6626 71.526 94.1303 71.2567C94.598 70.9733 94.8318 70.5623 94.8318 70.0237C94.8318 69.6694 94.7326 69.3859 94.5342 69.1733C94.35 68.9607 94.0098 68.7694 93.5138 68.5993C93.0319 68.4293 92.3658 68.2521 91.5154 68.0679C90.665 67.8694 89.9918 67.6285 89.4958 67.345C88.9997 67.0474 88.6454 66.7002 88.4328 66.3033C88.2202 65.8923 88.1139 65.4317 88.1139 64.9215C88.1139 64.3971 88.2698 63.894 88.5816 63.4121C88.8934 62.916 89.3469 62.5121 89.9422 62.2003C90.5516 61.8885 91.3099 61.7326 92.2169 61.7326C92.9539 61.7326 93.5846 61.8247 94.109 62.009C94.6334 62.1932 95.0657 62.4271 95.4058 62.7105C95.746 62.9798 96.0011 63.2491 96.1712 63.5184C96.3412 63.7877 96.4334 64.0144 96.4475 64.1987C96.4617 64.3404 96.4192 64.4609 96.32 64.5601C96.2208 64.6451 96.1074 64.6876 95.9798 64.6876H95.0869C94.9877 64.6876 94.9027 64.6664 94.8318 64.6239C94.7751 64.5813 94.7185 64.5317 94.6618 64.475C94.52 64.2908 94.35 64.1065 94.1515 63.9223C93.9673 63.738 93.7193 63.5892 93.4075 63.4759C93.1098 63.3483 92.713 63.2845 92.2169 63.2845C91.5083 63.2845 90.9768 63.4333 90.6225 63.731C90.2682 64.0286 90.091 64.4042 90.091 64.8577C90.091 65.127 90.169 65.3679 90.3249 65.5805C90.4808 65.7931 90.7784 65.9844 91.2178 66.1545C91.6571 66.3246 92.3091 66.5088 93.1736 66.7073C94.109 66.8915 94.846 67.1395 95.3846 67.4513C95.9231 67.7631 96.3058 68.1245 96.5326 68.5356C96.7593 68.9466 96.8727 69.4214 96.8727 69.9599C96.8727 70.5552 96.6956 71.1008 96.3412 71.5969C96.0011 72.0929 95.4909 72.4898 94.8106 72.7874C94.1445 73.0709 93.3153 73.2126 92.3232 73.2126ZM105.034 73C104.892 73 104.772 72.9575 104.672 72.8724C104.587 72.7732 104.545 72.6528 104.545 72.511V62.4554C104.545 62.3137 104.587 62.1932 104.672 62.094C104.772 61.9948 104.892 61.9452 105.034 61.9452H106.012C106.153 61.9452 106.274 61.9948 106.373 62.094C106.472 62.1932 106.522 62.3137 106.522 62.4554V63.3908C106.805 62.9089 107.195 62.5475 107.691 62.3066C108.187 62.0657 108.783 61.9452 109.477 61.9452H110.327C110.469 61.9452 110.582 61.9948 110.667 62.094C110.753 62.179 110.795 62.2924 110.795 62.4341V63.3058C110.795 63.4475 110.753 63.5609 110.667 63.6459C110.582 63.731 110.469 63.7735 110.327 63.7735H109.052C108.286 63.7735 107.684 64.0002 107.245 64.4538C106.805 64.8931 106.586 65.4955 106.586 66.2608V72.511C106.586 72.6528 106.536 72.7732 106.437 72.8724C106.338 72.9575 106.217 73 106.075 73H105.034ZM116.814 73.2126C115.354 73.2126 114.192 72.7661 113.327 71.8733C112.463 70.9662 111.988 69.7332 111.903 68.1741C111.889 67.9899 111.882 67.756 111.882 67.4726C111.882 67.175 111.889 66.934 111.903 66.7498C111.96 65.7435 112.194 64.8648 112.605 64.1136C113.016 63.3483 113.575 62.7601 114.284 62.3491C115.007 61.9381 115.85 61.7326 116.814 61.7326C117.891 61.7326 118.791 61.9594 119.514 62.4129C120.251 62.8664 120.811 63.5113 121.193 64.3475C121.576 65.1837 121.767 66.1616 121.767 67.2813V67.6427C121.767 67.7986 121.718 67.919 121.619 68.0041C121.533 68.0891 121.42 68.1316 121.278 68.1316H113.923C113.923 68.1458 113.923 68.1741 113.923 68.2167C113.923 68.2592 113.923 68.2946 113.923 68.323C113.951 68.904 114.079 69.4497 114.305 69.9599C114.532 70.456 114.858 70.8599 115.283 71.1717C115.708 71.4835 116.219 71.6394 116.814 71.6394C117.324 71.6394 117.749 71.5615 118.089 71.4056C118.43 71.2497 118.706 71.0796 118.919 70.8953C119.131 70.6969 119.273 70.5481 119.344 70.4489C119.471 70.2646 119.571 70.1583 119.641 70.13C119.712 70.0875 119.826 70.0662 119.982 70.0662H121.002C121.144 70.0662 121.257 70.1087 121.342 70.1938C121.441 70.2646 121.484 70.3709 121.47 70.5127C121.456 70.7253 121.342 70.9875 121.13 71.2993C120.917 71.5969 120.612 71.8945 120.215 72.1921C119.819 72.4898 119.337 72.7378 118.77 72.9362C118.203 73.1205 117.551 73.2126 116.814 73.2126ZM113.923 66.6647H119.748V66.601C119.748 65.9632 119.627 65.3963 119.386 64.9002C119.16 64.4042 118.826 64.0144 118.387 63.731C117.948 63.4333 117.423 63.2845 116.814 63.2845C116.204 63.2845 115.68 63.4333 115.241 63.731C114.816 64.0144 114.49 64.4042 114.263 64.9002C114.036 65.3963 113.923 65.9632 113.923 66.601V66.6647ZM124.798 73C124.657 73 124.536 72.9575 124.437 72.8724C124.352 72.7732 124.309 72.6528 124.309 72.511V62.4341C124.309 62.2924 124.352 62.179 124.437 62.094C124.536 61.9948 124.657 61.9452 124.798 61.9452H125.755C125.897 61.9452 126.01 61.9948 126.095 62.094C126.194 62.179 126.244 62.2924 126.244 62.4341V63.1782C126.57 62.7389 126.981 62.3916 127.477 62.1365C127.973 61.8672 128.568 61.7326 129.263 61.7326C130.864 61.7184 131.998 62.3704 132.664 63.6884C132.99 63.0932 133.465 62.6184 134.089 62.2641C134.712 61.9098 135.421 61.7326 136.214 61.7326C136.951 61.7326 137.618 61.9027 138.213 62.2428C138.822 62.583 139.297 63.1003 139.637 63.7947C139.992 64.475 140.169 65.3325 140.169 66.3671V72.511C140.169 72.6528 140.119 72.7732 140.02 72.8724C139.935 72.9575 139.821 73 139.68 73H138.681C138.539 73 138.418 72.9575 138.319 72.8724C138.234 72.7732 138.192 72.6528 138.192 72.511V66.5584C138.192 65.7648 138.078 65.1412 137.851 64.6876C137.625 64.2341 137.32 63.9152 136.937 63.731C136.555 63.5467 136.137 63.4546 135.683 63.4546C135.315 63.4546 134.939 63.5467 134.556 63.731C134.174 63.9152 133.855 64.2341 133.6 64.6876C133.359 65.1412 133.238 65.7648 133.238 66.5584V72.511C133.238 72.6528 133.189 72.7732 133.089 72.8724C133.004 72.9575 132.891 73 132.749 73H131.75C131.608 73 131.488 72.9575 131.389 72.8724C131.304 72.7732 131.261 72.6528 131.261 72.511V66.5584C131.261 65.7648 131.141 65.1412 130.9 64.6876C130.659 64.2341 130.347 63.9152 129.964 63.731C129.582 63.5467 129.178 63.4546 128.752 63.4546C128.384 63.4546 128.008 63.5467 127.626 63.731C127.243 63.9152 126.924 64.2341 126.669 64.6876C126.428 65.1412 126.308 65.7577 126.308 66.5372V72.511C126.308 72.6528 126.258 72.7732 126.159 72.8724C126.074 72.9575 125.96 73 125.819 73H124.798Z" fill="black"/>
</g>
<rect x="0.709924" y="0.709924" width="184.58" height="131.336" rx="9.1463" stroke="#18181B" stroke-width="1.41985"/>
<defs>
<clipPath id="clip0_1127_11628">
<rect width="186" height="132.756" rx="9.85622" fill="white"/>
</clipPath>
</defs>
</svg>
