<svg width="186" height="133" viewBox="0 0 186 133" fill="none" xmlns="http://www.w3.org/2000/svg">
<g clip-path="url(#clip0_1127_11636)">
<rect width="186" height="132.756" rx="9.85622" fill="#F6F9FC"/>
<g clip-path="url(#clip1_1127_11636)">
<rect x="58" y="23" width="70.9306" height="32.0645" rx="2.36846" fill="black"/>
</g>
<g clip-path="url(#clip2_1127_11636)">
<rect x="58" y="58.9512" width="16.0323" height="32.0645" rx="2.36846" fill="black"/>
</g>
<g clip-path="url(#clip3_1127_11636)">
<rect x="76.3203" y="58.9512" width="16.0323" height="32.0645" rx="2.36846" fill="black"/>
</g>
<g clip-path="url(#clip4_1127_11636)">
<rect x="94.6445" y="58.9512" width="16.0323" height="32.0645" rx="2.36846" fill="black"/>
</g>
<g clip-path="url(#clip5_1127_11636)">
<rect x="112.965" y="58.9512" width="16.0323" height="32.0645" rx="2.36846" fill="black"/>
</g>
<g clip-path="url(#clip6_1127_11636)">
<rect x="58" y="94.9019" width="70.9306" height="13.6031" rx="2.36846" fill="black"/>
</g>
</g>
<rect x="0.709924" y="0.709924" width="184.58" height="131.336" rx="9.1463" stroke="#18181B" stroke-width="1.41985"/>
<defs>
<clipPath id="clip0_1127_11636">
<rect width="186" height="132.756" rx="9.85622" fill="white"/>
</clipPath>
<clipPath id="clip1_1127_11636">
<rect x="58" y="23" width="70.9306" height="32.0645" rx="2.36846" fill="white"/>
</clipPath>
<clipPath id="clip2_1127_11636">
<rect x="58" y="58.9512" width="16.0323" height="32.0645" rx="2.36846" fill="white"/>
</clipPath>
<clipPath id="clip3_1127_11636">
<rect x="76.3203" y="58.9512" width="16.0323" height="32.0645" rx="2.36846" fill="white"/>
</clipPath>
<clipPath id="clip4_1127_11636">
<rect x="94.6445" y="58.9512" width="16.0323" height="32.0645" rx="2.36846" fill="white"/>
</clipPath>
<clipPath id="clip5_1127_11636">
<rect x="112.965" y="58.9512" width="16.0323" height="32.0645" rx="2.36846" fill="white"/>
</clipPath>
<clipPath id="clip6_1127_11636">
<rect x="58" y="94.9019" width="70.9306" height="13.6031" rx="2.36846" fill="white"/>
</clipPath>
</defs>
</svg>
