<svg width="186" height="133" viewBox="0 0 186 133" fill="none" xmlns="http://www.w3.org/2000/svg">
<rect x="0.709924" y="0.709924" width="184.58" height="131.336" rx="9.1463" fill="#F6F9FC"/>
<rect x="0.709924" y="0.709924" width="184.58" height="131.336" rx="9.1463" stroke="#18181B" stroke-width="1.41985"/>
<rect x="30" y="49" width="126" height="33" rx="4" fill="#155DFC"/>
<path d="M64.7082 69.592L58.0346 66.6632V64.9L64.7082 61.9712V63.4138L58.938 65.9492V65.614L64.7082 68.1494V69.592ZM66.9465 70V59.6544H69.9482C71.0848 59.6544 71.9493 59.9021 72.5419 60.3975C73.1345 60.8929 73.4308 61.5826 73.4308 62.4666C73.4308 62.8941 73.3336 63.2778 73.1393 63.6178C72.945 63.948 72.6585 64.2152 72.2796 64.4192C71.9105 64.6135 71.4685 64.7155 70.9536 64.7252V64.6378C71.5851 64.6378 72.1145 64.7446 72.5419 64.9583C72.979 65.1623 73.3093 65.4537 73.5328 65.8326C73.7562 66.2017 73.8679 66.634 73.8679 67.1295C73.8679 68.0426 73.5522 68.7517 72.9208 69.2569C72.299 69.7523 71.4248 70 70.2979 70H66.9465ZM68.4765 68.572H70.3125C70.9828 68.572 71.4782 68.4409 71.7988 68.1786C72.1193 67.9066 72.2796 67.5326 72.2796 67.0566C72.2796 66.5515 72.1096 66.158 71.7696 65.8763C71.4393 65.5946 70.9536 65.4537 70.3125 65.4537H68.4765V68.572ZM68.4765 64.0403H69.9773C70.6185 64.0403 71.0896 63.914 71.3908 63.6615C71.6919 63.3992 71.8425 63.0349 71.8425 62.5686C71.8425 62.0926 71.6919 61.7283 71.3908 61.4758C71.0896 61.2135 70.6185 61.0824 69.9773 61.0824H68.4765V64.0403ZM78.1753 70.1749C77.4273 70.1749 76.8299 69.9223 76.383 69.4171C75.9362 68.9023 75.7128 68.1834 75.7128 67.2606V62.2481H77.1845V66.8817C77.1845 67.5812 77.3059 68.0912 77.5487 68.4117C77.7916 68.7323 78.1607 68.8926 78.6562 68.8926C79.1904 68.8926 79.6179 68.7129 79.9384 68.3534C80.2687 67.994 80.4339 67.484 80.4339 66.8235V62.2481H81.9056V70H80.5213L80.5067 67.9746L80.7107 68.062C80.5747 68.7323 80.2881 69.252 79.851 69.6211C79.4139 69.9903 78.8553 70.1749 78.1753 70.1749ZM88.6901 70C87.9033 70 87.3155 69.8203 86.927 69.4609C86.5481 69.0917 86.3587 68.5283 86.3587 67.7706V60.4266H87.8304V67.6977C87.8304 68.0572 87.913 68.3243 88.0781 68.4992C88.253 68.674 88.5104 68.7614 88.8504 68.7614H90.8467V70H88.6901ZM83.9107 63.4866V62.2481H90.8467V63.4866H83.9107ZM97.4272 70C96.6404 70 96.0526 69.8203 95.6641 69.4609C95.2852 69.0917 95.0958 68.5283 95.0958 67.7706V60.4266H96.5675V67.6977C96.5675 68.0572 96.6501 68.3243 96.8152 68.4992C96.9901 68.674 97.2475 68.7614 97.5875 68.7614H99.5838V70H97.4272ZM92.6478 63.4866V62.2481H99.5838V63.4866H92.6478ZM105.057 70.1749C104.338 70.1749 103.707 70.0097 103.163 69.6794C102.628 69.3491 102.211 68.878 101.909 68.266C101.618 67.654 101.472 66.94 101.472 66.124C101.472 65.2983 101.618 64.5843 101.909 63.982C102.211 63.3701 102.628 62.8989 103.163 62.5686C103.707 62.2383 104.338 62.0732 105.057 62.0732C105.776 62.0732 106.402 62.2383 106.937 62.5686C107.481 62.8989 107.898 63.3701 108.19 63.982C108.491 64.5843 108.641 65.2983 108.641 66.124C108.641 66.94 108.491 67.654 108.19 68.266C107.898 68.878 107.481 69.3491 106.937 69.6794C106.402 70.0097 105.776 70.1749 105.057 70.1749ZM105.057 68.8197C105.708 68.8197 106.208 68.5817 106.558 68.1057C106.917 67.6297 107.097 66.9692 107.097 66.124C107.097 65.2789 106.917 64.6183 106.558 64.1423C106.208 63.6663 105.708 63.4283 105.057 63.4283C104.406 63.4283 103.901 63.6663 103.541 64.1423C103.192 64.6183 103.017 65.2789 103.017 66.124C103.017 66.9692 103.192 67.6297 103.541 68.1057C103.901 68.5817 104.406 68.8197 105.057 68.8197ZM110.588 70V62.2481H111.943L111.987 64.2735L111.827 64.1569C111.924 63.6809 112.094 63.2923 112.337 62.9912C112.589 62.6803 112.895 62.4521 113.255 62.3063C113.614 62.1509 113.998 62.0732 114.406 62.0732C114.989 62.0732 115.47 62.2043 115.849 62.4666C116.227 62.7192 116.514 63.0689 116.708 63.5158C116.903 63.9529 117 64.4483 117 65.002V70H115.528V65.3809C115.528 64.7106 115.397 64.2055 115.135 63.8655C114.882 63.5255 114.498 63.3555 113.983 63.3555C113.624 63.3555 113.299 63.4332 113.007 63.5886C112.725 63.744 112.497 63.9772 112.322 64.288C112.147 64.5892 112.06 64.9632 112.06 65.41V70H110.588ZM119.194 69.592V68.1494L124.964 65.614V65.9492L119.194 63.4138V61.9712L125.868 64.9V66.6632L119.194 69.592Z" fill="white"/>
</svg>
