<svg width="226" height="66" viewBox="0 0 226 66" fill="none" xmlns="http://www.w3.org/2000/svg">
<circle cx="33" cy="33" r="26" fill="white"/>
<circle cx="33" cy="33" r="31" stroke="#FF0000" stroke-width="4"/>
<circle cx="118" cy="33" r="26" fill="white"/>
<circle cx="200" cy="33" r="26" fill="white"/>
<path d="M32.569 43C32.362 43 32.1861 42.9379 32.0412 42.8137C31.917 42.6688 31.8549 42.4929 31.8549 42.2859V24.8995L26.7011 28.8736C26.5355 28.9978 26.3596 29.0495 26.1733 29.0288C25.987 29.0081 25.8318 28.915 25.7076 28.7494L24.9004 27.7248C24.7762 27.5385 24.7244 27.3523 24.7451 27.166C24.7865 26.9797 24.89 26.8245 25.0556 26.7003L31.8239 21.4844C31.9688 21.3809 32.1033 21.3188 32.2275 21.2981C32.3517 21.2774 32.4862 21.267 32.6311 21.267H34.2145C34.4215 21.267 34.5871 21.3395 34.7113 21.4844C34.8354 21.6085 34.8975 21.7741 34.8975 21.9811V42.2859C34.8975 42.4929 34.8354 42.6688 34.7113 42.8137C34.5871 42.9379 34.4215 43 34.2145 43H32.569Z" fill="black"/>
<path d="M111.235 43C111.028 43 110.852 42.9379 110.708 42.8137C110.583 42.6688 110.521 42.4929 110.521 42.2859V41.2924C110.521 41.1061 110.573 40.8991 110.677 40.6715C110.78 40.4438 110.987 40.1954 111.297 39.9263L117.879 33.3444C118.935 32.4543 119.763 31.6989 120.363 31.0779C120.984 30.4363 121.419 29.8257 121.667 29.2461C121.936 28.6666 122.071 28.0663 122.071 27.4454C122.071 26.2656 121.74 25.3342 121.077 24.6512C120.415 23.9474 119.432 23.5956 118.128 23.5956C117.3 23.5956 116.586 23.7715 115.986 24.1234C115.385 24.4545 114.909 24.9202 114.557 25.5205C114.226 26.1 114.009 26.7624 113.905 27.5075C113.864 27.7766 113.75 27.9629 113.564 28.0663C113.398 28.1698 113.243 28.2216 113.098 28.2216H111.484C111.297 28.2216 111.142 28.1698 111.018 28.0663C110.894 27.9422 110.832 27.7973 110.832 27.6317C110.852 26.8452 111.018 26.0586 111.329 25.2721C111.639 24.4649 112.094 23.7404 112.695 23.0988C113.316 22.4572 114.071 21.9397 114.961 21.5465C115.872 21.1325 116.927 20.9255 118.128 20.9255C119.763 20.9255 121.098 21.2256 122.133 21.8259C123.189 22.4054 123.965 23.1816 124.461 24.1544C124.958 25.1272 125.207 26.1932 125.207 27.3523C125.207 28.263 125.051 29.1012 124.741 29.8671C124.43 30.6122 123.975 31.347 123.375 32.0714C122.795 32.7752 122.071 33.4996 121.202 34.2447L115.24 40.2989H124.927C125.155 40.2989 125.331 40.361 125.455 40.4852C125.6 40.6094 125.672 40.7853 125.672 41.013V42.2859C125.672 42.4929 125.6 42.6688 125.455 42.8137C125.331 42.9379 125.155 43 124.927 43H111.235Z" fill="black"/>
<path d="M200.252 43.3105C198.948 43.3105 197.81 43.1552 196.837 42.8448C195.864 42.5136 195.046 42.0789 194.384 41.5408C193.722 41.0026 193.215 40.4127 192.863 39.7711C192.532 39.1295 192.356 38.4671 192.335 37.7841C192.335 37.5978 192.397 37.4529 192.521 37.3494C192.645 37.2459 192.801 37.1942 192.987 37.1942H194.508C194.695 37.1942 194.86 37.2356 195.005 37.3184C195.15 37.4012 195.274 37.5771 195.378 37.8462C195.585 38.5913 195.936 39.1709 196.433 39.5848C196.951 39.9988 197.541 40.2886 198.203 40.4541C198.886 40.599 199.569 40.6715 200.252 40.6715C201.68 40.6715 202.839 40.3299 203.729 39.6469C204.619 38.9639 205.064 37.96 205.064 36.6353C205.064 35.29 204.661 34.3275 203.854 33.748C203.046 33.1684 201.929 32.8786 200.5 32.8786H197.551C197.344 32.8786 197.168 32.8166 197.023 32.6924C196.899 32.5682 196.837 32.3922 196.837 32.1646V31.3263C196.837 31.14 196.868 30.9848 196.93 30.8606C197.013 30.7157 197.096 30.5915 197.178 30.488L203.202 23.906H194.043C193.836 23.906 193.66 23.8439 193.515 23.7197C193.391 23.5956 193.329 23.4196 193.329 23.1919V22.0122C193.329 21.7845 193.391 21.6085 193.515 21.4844C193.66 21.3395 193.836 21.267 194.043 21.267H206.43C206.658 21.267 206.834 21.3395 206.958 21.4844C207.103 21.6085 207.176 21.7845 207.176 22.0122V23.1299C207.176 23.2747 207.134 23.4093 207.051 23.5335C206.989 23.637 206.917 23.7404 206.834 23.8439L200.842 30.5191L201.339 30.5501C202.705 30.5915 203.895 30.8399 204.909 31.2952C205.944 31.7506 206.741 32.4336 207.3 33.3444C207.879 34.2344 208.169 35.3624 208.169 36.7285C208.169 38.1153 207.828 39.3054 207.144 40.2989C206.461 41.2717 205.52 42.0168 204.319 42.5343C203.119 43.0517 201.763 43.3105 200.252 43.3105Z" fill="black"/>
<path d="M85.7071 33.7071C86.0976 33.3166 86.0976 32.6834 85.7071 32.2929L79.3431 25.9289C78.9526 25.5384 78.3195 25.5384 77.9289 25.9289C77.5384 26.3195 77.5384 26.9526 77.9289 27.3431L83.5858 33L77.9289 38.6569C77.5384 39.0474 77.5384 39.6805 77.9289 40.0711C78.3195 40.4616 78.9526 40.4616 79.3431 40.0711L85.7071 33.7071ZM71 33V34H85V33V32H71V33Z" fill="black"/>
<path d="M166.707 33.7071C167.098 33.3166 167.098 32.6834 166.707 32.2929L160.343 25.9289C159.953 25.5384 159.319 25.5384 158.929 25.9289C158.538 26.3195 158.538 26.9526 158.929 27.3431L164.586 33L158.929 38.6569C158.538 39.0474 158.538 39.6805 158.929 40.0711C159.319 40.4616 159.953 40.4616 160.343 40.0711L166.707 33.7071ZM152 33V34H166V33V32H152V33Z" fill="black"/>
</svg>
