<svg width="186" height="133" viewBox="0 0 186 133" fill="none" xmlns="http://www.w3.org/2000/svg">
<g clip-path="url(#clip0_1127_10927)">
<rect width="186" height="132.756" rx="9.85622" fill="#F6F9FC"/>
<path d="M82 59H98M82 66H98M82 73H98" stroke="black" stroke-width="2" stroke-linecap="round" stroke-linejoin="round"/>
<rect opacity="0.3" x="68" y="44" width="44" height="44" fill="#E8178A"/>
<path d="M68 88L112 44" stroke="#E8178A" stroke-dasharray="2 2"/>
<path d="M68 44L112 88" stroke="#E8178A" stroke-dasharray="2 2"/>
<rect x="68.5" y="44.5" width="43" height="43" stroke="#E8178A" stroke-dasharray="2 2"/>
<path d="M122.854 44.1464C122.658 43.9512 122.342 43.9512 122.146 44.1464L118.964 47.3284C118.769 47.5237 118.769 47.8403 118.964 48.0355C119.16 48.2308 119.476 48.2308 119.672 48.0355L122.5 45.2071L125.328 48.0355C125.524 48.2308 125.84 48.2308 126.036 48.0355C126.231 47.8403 126.231 47.5237 126.036 47.3284L122.854 44.1464ZM122.146 87.8536C122.342 88.0488 122.658 88.0488 122.854 87.8536L126.036 84.6716C126.231 84.4763 126.231 84.1597 126.036 83.9645C125.84 83.7692 125.524 83.7692 125.328 83.9645L122.5 86.7929L119.672 83.9645C119.476 83.7692 119.16 83.7692 118.964 83.9645C118.769 84.1597 118.769 84.4763 118.964 84.6716L122.146 87.8536ZM122.5 44.5H122V87.5H122.5H123V44.5H122.5Z" fill="#E8178A"/>
<path d="M136.433 69.4521H137.684V70.7783H136.433V73H134.799V70.7783H130.492L130.451 69.7734L134.751 63.0469H136.433V69.4521ZM132.119 69.4521H134.799V65.2344L134.607 65.5898L132.119 69.4521ZM144.841 69.4521H146.092V70.7783H144.841V73H143.207V70.7783H138.9L138.859 69.7734L143.159 63.0469H144.841V69.4521ZM140.527 69.4521H143.207V65.2344L143.016 65.5898L140.527 69.4521ZM147.89 75.8438V65.6035H149.394L149.455 66.3623C149.555 66.2393 149.665 66.1276 149.783 66.0273C149.902 65.9271 150.029 65.8405 150.166 65.7676C150.344 65.6719 150.54 65.599 150.754 65.5488C150.968 65.4941 151.196 65.4668 151.438 65.4668C151.911 65.4668 152.328 65.5579 152.688 65.7402C153.053 65.9225 153.358 66.18 153.604 66.5127C153.846 66.8454 154.031 67.2441 154.158 67.709C154.286 68.1693 154.35 68.6774 154.35 69.2334V69.377C154.35 69.9102 154.286 70.4069 154.158 70.8672C154.035 71.3275 153.851 71.724 153.604 72.0566C153.358 72.3939 153.055 72.6582 152.695 72.8496C152.335 73.041 151.923 73.1367 151.458 73.1367C151.194 73.1367 150.95 73.1094 150.727 73.0547C150.508 73 150.305 72.9202 150.118 72.8154C150.009 72.7516 149.904 72.6787 149.804 72.5967C149.703 72.5146 149.61 72.4258 149.523 72.3301V75.8438H147.89ZM152.716 69.2334C152.716 68.9007 152.682 68.5885 152.613 68.2969C152.549 68.0007 152.449 67.7432 152.312 67.5244C152.171 67.3057 151.991 67.1325 151.772 67.0049C151.554 66.8773 151.292 66.8135 150.986 66.8135C150.818 66.8135 150.66 66.8317 150.515 66.8682C150.369 66.9046 150.239 66.957 150.125 67.0254C149.993 67.0983 149.877 67.1895 149.776 67.2988C149.681 67.4082 149.596 67.5312 149.523 67.668V70.9561C149.587 71.0837 149.665 71.1999 149.756 71.3047C149.847 71.4095 149.952 71.5007 150.07 71.5781C150.193 71.651 150.332 71.7103 150.487 71.7559C150.642 71.7969 150.813 71.8174 151 71.8174C151.305 71.8174 151.565 71.7536 151.779 71.626C151.998 71.4938 152.176 71.3161 152.312 71.0928C152.454 70.8649 152.556 70.6051 152.62 70.3135C152.684 70.0173 152.716 69.7051 152.716 69.377V69.2334ZM159.531 68.0918L161.302 65.6035H163.113L160.516 69.2471L163.195 73H161.391L159.545 70.416L157.706 73H155.895L158.574 69.2471L155.983 65.6035H157.781L159.531 68.0918Z" fill="#E8178A"/>
</g>
<rect x="0.709924" y="0.709924" width="184.58" height="131.336" rx="9.1463" stroke="#18181B" stroke-width="1.41985"/>
<defs>
<clipPath id="clip0_1127_10927">
<rect width="186" height="132.756" rx="9.85622" fill="white"/>
</clipPath>
</defs>
</svg>
