<svg width="40" height="40" viewBox="0 0 40 40" fill="none" xmlns="http://www.w3.org/2000/svg">
<path d="M19.9999 36.6667C29.2047 36.6667 36.6666 29.2048 36.6666 20C36.6666 10.7953 29.2047 3.33337 19.9999 3.33337C10.7952 3.33337 3.33325 10.7953 3.33325 20C3.33325 29.2048 10.7952 36.6667 19.9999 36.6667Z" stroke="#535BBF" stroke-width="3"/>
<path d="M23.3332 11.6666C23.3332 12.5506 22.982 13.3985 22.3569 14.0236C21.7317 14.6487 20.8839 14.9999 19.9998 14.9999C19.1158 14.9999 18.2679 14.6487 17.6428 14.0236C17.0177 13.3985 16.6665 12.5506 16.6665 11.6666C16.6665 10.7825 17.0177 9.93468 17.6428 9.30956C18.2679 8.68444 19.1158 8.33325 19.9998 8.33325C20.8839 8.33325 21.7317 8.68444 22.3569 9.30956C22.982 9.93468 23.3332 10.7825 23.3332 11.6666Z" stroke="#535BBF" stroke-width="2.5625"/>
<path d="M29.9998 16.6666C29.9998 16.6666 24.1048 19.1666 19.9998 19.1666C15.8948 19.1666 9.99976 16.6666 9.99976 16.6666M19.9998 20V22.42M19.9998 22.42C19.9993 23.3791 20.2747 24.318 20.7931 25.125L24.9998 31.6666M19.9998 22.42C20.0002 23.3791 19.7248 24.318 19.2064 25.125L14.9998 31.6666" stroke="#535BBF" stroke-width="2.5625" stroke-linecap="round"/>
</svg>
