<svg width="23" height="31" viewBox="0 0 23 31" fill="none" xmlns="http://www.w3.org/2000/svg">
<path d="M0.360039 -2.52724e-05H2.28604V9.34198L3.02404 10.458H3.22204L3.97804 9.71998V4.91398H5.90404V9.17998L6.73204 10.476H6.93004L7.59604 9.73798V-2.52724e-05H9.52204V10.494L7.48804 12.6H5.81404L5.04004 11.358L3.88804 12.6H2.26804L0.360039 9.73798V-2.52724e-05ZM15.365 -2.52724e-05H20.639L22.007 2.06997L20.747 3.40197L19.703 1.79998H16.085L15.689 2.23197V9.93598L16.265 10.818H19.847L21.053 9.59398L22.043 11.088L20.603 12.6H15.311L13.763 10.278V1.61998L15.365 -2.52724e-05ZM3.04204 18H7.92004V30.6H5.99404V25.092H1.90804V30.6H3.96222e-05V21.15L3.04204 18ZM1.90804 21.69V23.31H5.99404V19.782H3.74404L1.90804 21.69ZM14.033 18H19.289L20.675 20.07L19.415 21.366L18.353 19.782H14.789L14.393 20.214V28.026L14.897 28.818H18.965V24.768H16.427V23.004H20.045L20.891 24.282V30.6H13.943L12.449 28.368V19.656L14.033 18Z" fill="#803713"/>
</svg>
