<svg width="40" height="40" viewBox="0 0 40 40" fill="none" xmlns="http://www.w3.org/2000/svg">
<path d="M14.2768 9.93333C14.1576 9.11224 14.2165 8.27511 14.4494 7.47878C14.6823 6.68245 15.0839 5.94556 15.6268 5.31814C16.1697 4.69073 16.8412 4.18747 17.5958 3.84254C18.3504 3.49762 19.1704 3.31909 20.0001 3.31909C20.8298 3.31909 21.6498 3.49762 22.4044 3.84254C23.159 4.18747 23.8306 4.69073 24.3735 5.31814C24.9164 5.94556 25.3179 6.68245 25.5509 7.47878C25.7838 8.27511 25.8427 9.11224 25.7235 9.93333L23.8035 23.3667C23.6706 24.2805 23.2131 25.116 22.5147 25.7202C21.8162 26.3244 20.9236 26.6569 20.0001 26.6569C19.0766 26.6569 18.184 26.3244 17.4856 25.7202C16.7872 25.116 16.3297 24.2805 16.1968 23.3667L14.2768 9.93333ZM22.4235 9.45999C22.4753 9.11162 22.4514 8.75616 22.3534 8.41786C22.2554 8.07956 22.0856 7.76636 21.8556 7.49961C21.6256 7.23287 21.3408 7.01885 21.0206 6.87215C20.7004 6.72544 20.3523 6.6495 20.0001 6.6495C19.6479 6.6495 19.2999 6.72544 18.9796 6.87215C18.6594 7.01885 18.3746 7.23287 18.1446 7.49961C17.9146 7.76636 17.7449 8.07956 17.6469 8.41786C17.5489 8.75616 17.525 9.11162 17.5768 9.45999L19.4968 22.8933C19.514 23.015 19.5745 23.1265 19.6673 23.2071C19.7601 23.2877 19.8789 23.3321 20.0018 23.3321C20.1247 23.3321 20.2435 23.2877 20.3363 23.2071C20.4291 23.1265 20.4896 23.015 20.5068 22.8933L22.4235 9.45999ZM20.0001 36.6667C20.8842 36.6667 21.732 36.3155 22.3572 35.6903C22.9823 35.0652 23.3335 34.2174 23.3335 33.3333C23.3335 32.4493 22.9823 31.6014 22.3572 30.9763C21.732 30.3512 20.8842 30 20.0001 30C19.1161 30 18.2682 30.3512 17.6431 30.9763C17.018 31.6014 16.6668 32.4493 16.6668 33.3333C16.6668 34.2174 17.018 35.0652 17.6431 35.6903C18.2682 36.3155 19.1161 36.6667 20.0001 36.6667Z" fill="#7A5400"/>
</svg>
