<svg width="40" height="40" viewBox="0 0 40 40" fill="none" xmlns="http://www.w3.org/2000/svg">
<g clip-path="url(#clip0_905_8007)">
<path d="M16.7497 17.6781L4.96639 29.4614C4.65647 29.771 4.41061 30.1386 4.24286 30.5433C4.07511 30.9479 3.98877 31.3817 3.98877 31.8197C3.98877 32.2578 4.07511 32.6915 4.24286 33.0962C4.41061 33.5009 4.65647 33.8685 4.96639 34.1781C5.59148 34.803 6.43918 35.154 7.32306 35.154C8.20694 35.154 9.05463 34.803 9.67973 34.1781L21.4631 22.3914M28.6547 22.9997L35.1181 29.4631C35.743 30.0882 36.094 30.9359 36.094 31.8197C36.094 32.7036 35.743 33.5513 35.1181 34.1764C34.493 34.8013 33.6453 35.1524 32.7614 35.1524C31.8775 35.1524 31.0298 34.8013 30.4047 34.1764L20.0564 23.8297M11.2214 9.83973L7.68306 11.0164L4.14973 5.12473L6.50639 2.76807L12.3997 6.30307L11.2214 9.83973ZM11.2214 9.83973L15.9381 14.5564" stroke="#29815B" stroke-width="2.5" stroke-linecap="round" stroke-linejoin="round"/>
<path d="M16.7499 17.6782C15.3432 14.0899 15.6182 9.38155 18.5182 6.48155C21.4182 3.58155 26.7682 2.94656 29.7132 4.71489L24.6465 9.78156L24.1749 14.9666L29.3599 14.4966L34.4265 9.42822C36.1965 12.3749 35.5599 17.7249 32.6599 20.6232C29.7599 23.5232 25.0532 23.7982 21.4649 22.3916" stroke="#29815B" stroke-width="2.5" stroke-linecap="round" stroke-linejoin="round"/>
</g>
<defs>
<clipPath id="clip0_905_8007">
<rect width="40" height="40" fill="white"/>
</clipPath>
</defs>
</svg>
