<svg width="3415" height="2500" viewBox="0 0 3415 2500" fill="none" xmlns="http://www.w3.org/2000/svg">
<g clip-path="url(#clip0_1131_11945)">
<path d="M3415 0H0V2500H3415V0Z" fill="white"/>
<path d="M1230.33 1528.63C1205.03 1528.63 1184.51 1508.09 1184.51 1482.75V383.591C1184.51 358.254 1205.03 337.715 1230.33 337.715H2764.77C2790.08 337.715 2810.59 358.254 2810.59 383.591V1476.59C2810.59 1505.33 2787.32 1528.63 2758.61 1528.63H1230.33L1230.33 1528.63Z" fill="white"/>
<path d="M2758.61 1530.83H1230.33C1203.85 1530.83 1182.31 1509.26 1182.31 1482.75V383.592C1182.31 357.08 1203.85 335.512 1230.33 335.512H2764.77C2791.25 335.512 2812.79 357.08 2812.79 383.592V1476.59C2812.79 1506.5 2788.49 1530.83 2758.61 1530.83ZM1230.33 339.916C1206.28 339.916 1186.71 359.51 1186.71 383.591V1482.75C1186.71 1506.83 1206.28 1526.43 1230.33 1526.43H2758.61C2786.06 1526.43 2808.39 1504.07 2808.39 1476.59V383.592C2808.39 359.51 2788.82 339.917 2764.77 339.917H1230.33V339.916Z" fill="black"/>
<path d="M2717.89 939.003H2273.17C2271.95 939.003 2270.97 938.018 2270.97 936.801V657.638C2270.97 656.421 2271.95 655.436 2273.17 655.436H2717.89C2719.11 655.436 2720.09 656.421 2720.09 657.638V936.801C2720.09 938.018 2719.11 939.003 2717.89 939.003ZM2275.37 934.599H2715.69V659.841H2275.37V934.599Z" fill="black"/>
<path d="M2717.89 939.003C2717.49 939.003 2717.09 938.892 2716.72 938.664L2272 659.502C2270.97 658.857 2270.66 657.498 2271.31 656.468C2271.95 655.44 2273.31 655.13 2274.34 655.773L2719.06 934.935C2720.09 935.58 2720.4 936.939 2719.75 937.969C2719.34 938.636 2718.62 939.002 2717.89 939.002L2717.89 939.003Z" fill="black"/>
<path d="M2273.17 939.002C2272.44 939.002 2271.72 938.636 2271.31 937.97C2270.66 936.94 2270.97 935.581 2272 934.936L2716.72 655.773C2717.75 655.126 2719.11 655.437 2719.75 656.468C2720.4 657.498 2720.09 658.857 2719.06 659.502L2274.34 938.665C2273.98 938.893 2273.57 939.003 2273.17 939.003L2273.17 939.002Z" fill="black"/>
<path d="M1721.93 939.003H1277.22C1276 939.003 1275.01 938.018 1275.01 936.801V657.638C1275.01 656.421 1276 655.436 1277.22 655.436H1721.93C1723.15 655.436 1724.14 656.421 1724.14 657.638V936.801C1724.14 938.018 1723.15 939.003 1721.93 939.003ZM1279.42 934.599H1719.73V659.841H1279.42V934.599Z" fill="black"/>
<path d="M1721.93 939.003C1721.53 939.003 1721.13 938.892 1720.76 938.664L1276.05 659.502C1275.02 658.857 1274.7 657.498 1275.35 656.468C1276 655.44 1277.36 655.13 1278.38 655.773L1723.1 934.935C1724.13 935.58 1724.44 936.939 1723.8 937.969C1723.38 938.636 1722.66 939.002 1721.93 939.002L1721.93 939.003Z" fill="black"/>
<path d="M1277.22 939.002C1276.48 939.002 1275.77 938.636 1275.35 937.97C1274.7 936.94 1275.02 935.581 1276.05 934.936L1720.76 655.773C1721.79 655.126 1723.15 655.437 1723.8 656.468C1724.44 657.498 1724.13 658.857 1723.1 659.502L1278.38 938.665C1278.02 938.893 1277.62 939.003 1277.22 939.003L1277.22 939.002Z" fill="black"/>
<path d="M2717.89 587.012H1277.21C1276 587.012 1275.01 586.027 1275.01 584.81V438.902C1275.01 437.685 1276 436.7 1277.21 436.7H2717.89C2719.11 436.7 2720.09 437.685 2720.09 438.902V584.81C2720.09 586.027 2719.11 587.012 2717.89 587.012ZM1279.42 582.608H2715.69V441.104H1279.42V582.608Z" fill="black"/>
<path d="M2518.88 533.059C2531.38 533.059 2541.52 522.912 2541.52 510.395C2541.52 497.878 2531.38 487.731 2518.88 487.731C2506.38 487.731 2496.24 497.878 2496.24 510.395C2496.24 522.912 2506.38 533.059 2518.88 533.059Z" fill="#E2EAFF"/>
<path d="M2584.94 533.059C2597.44 533.059 2607.58 522.912 2607.58 510.395C2607.58 497.878 2597.44 487.731 2584.94 487.731C2572.44 487.731 2562.3 497.878 2562.3 510.395C2562.3 522.912 2572.44 533.059 2584.94 533.059Z" fill="#E2EAFF"/>
<path d="M2651 533.059C2663.5 533.059 2673.64 522.912 2673.64 510.395C2673.64 497.878 2663.5 487.731 2651 487.731C2638.5 487.731 2628.36 497.878 2628.36 510.395C2628.36 522.912 2638.5 533.059 2651 533.059Z" fill="#E2EAFF"/>
<path d="M2219.91 939.003H1775.19C1773.98 939.003 1772.99 938.018 1772.99 936.801V657.638C1772.99 656.421 1773.98 655.436 1775.19 655.436H2219.91C2221.13 655.436 2222.11 656.421 2222.11 657.638V936.801C2222.11 938.018 2221.13 939.003 2219.91 939.003ZM1777.4 934.599H2217.71V659.841H1777.4V934.599Z" fill="black"/>
<path d="M2219.91 939.003C2219.51 939.003 2219.11 938.892 2218.74 938.664L1774.02 659.502C1772.99 658.857 1772.68 657.498 1773.33 656.468C1773.97 655.44 1775.33 655.13 1776.36 655.773L2221.08 934.935C2222.11 935.58 2222.42 936.939 2221.78 937.969C2221.36 938.636 2220.64 939.002 2219.91 939.002L2219.91 939.003Z" fill="black"/>
<path d="M1775.2 939.002C1774.46 939.002 1773.75 938.636 1773.33 937.97C1772.68 936.94 1772.99 935.581 1774.02 934.936L2218.74 655.773C2219.77 655.126 2221.13 655.437 2221.78 656.468C2222.42 657.499 2222.11 658.857 2221.08 659.502L1776.36 938.665C1776 938.893 1775.6 939.003 1775.2 939.003L1775.2 939.002Z" fill="black"/>
<path d="M2218.66 995.793H1776.44V1348.4H2218.66V995.793Z" fill="white"/>
<path d="M2218.66 1350.6H1776.44C1775.23 1350.6 1774.24 1349.61 1774.24 1348.4V995.792C1774.24 994.575 1775.23 993.59 1776.44 993.59H2218.66C2219.88 993.59 2220.86 994.575 2220.86 995.792V1348.4C2220.86 1349.61 2219.88 1350.6 2218.66 1350.6ZM1778.65 1346.2H2216.46V997.994H1778.65V1346.2Z" fill="#E2EAFF"/>
<path d="M2146.78 1091.21H1848.33C1847.11 1091.21 1846.12 1090.22 1846.12 1089C1846.12 1087.79 1847.11 1086.8 1848.33 1086.8H2146.78C2147.99 1086.8 2148.98 1087.79 2148.98 1089C2148.98 1090.22 2147.99 1091.21 2146.78 1091.21Z" fill="#E2EAFF"/>
<path d="M2146.78 1146.6H1848.33C1847.11 1146.6 1846.12 1145.62 1846.12 1144.4C1846.12 1143.18 1847.11 1142.2 1848.33 1142.2H2146.78C2147.99 1142.2 2148.98 1143.18 2148.98 1144.4C2148.98 1145.62 2147.99 1146.6 2146.78 1146.6Z" fill="#E2EAFF"/>
<path d="M2146.78 1201.99H1848.33C1847.11 1201.99 1846.12 1201.01 1846.12 1199.79C1846.12 1198.58 1847.11 1197.59 1848.33 1197.59H2146.78C2147.99 1197.59 2148.98 1198.58 2148.98 1199.79C2148.98 1201.01 2147.99 1201.99 2146.78 1201.99Z" fill="#E2EAFF"/>
<path d="M2146.78 1257.39H1848.33C1847.11 1257.39 1846.12 1256.4 1846.12 1255.19C1846.12 1253.97 1847.11 1252.98 1848.33 1252.98H2146.78C2147.99 1252.98 2148.98 1253.97 2148.98 1255.19C2148.98 1256.4 2147.99 1257.39 2146.78 1257.39Z" fill="#E2EAFF"/>
<path d="M1719.43 995.793H1277.22V1348.4H1719.43V995.793Z" fill="white"/>
<path d="M1719.43 1350.6H1277.22C1276 1350.6 1275.01 1349.61 1275.01 1348.4V995.792C1275.01 994.575 1276 993.59 1277.22 993.59H1719.43C1720.65 993.59 1721.64 994.575 1721.64 995.792V1348.4C1721.64 1349.61 1720.65 1350.6 1719.43 1350.6ZM1279.42 1346.2H1717.23V997.994H1279.42V1346.2Z" fill="#E2EAFF"/>
<path d="M1647.55 1091.21H1349.1C1347.88 1091.21 1346.9 1090.22 1346.9 1089C1346.9 1087.79 1347.88 1086.8 1349.1 1086.8H1647.55C1648.77 1086.8 1649.75 1087.79 1649.75 1089C1649.75 1090.22 1648.77 1091.21 1647.55 1091.21Z" fill="#E2EAFF"/>
<path d="M1647.55 1146.6H1349.1C1347.88 1146.6 1346.9 1145.62 1346.9 1144.4C1346.9 1143.18 1347.88 1142.2 1349.1 1142.2H1647.55C1648.77 1142.2 1649.75 1143.18 1649.75 1144.4C1649.75 1145.62 1648.77 1146.6 1647.55 1146.6Z" fill="#E2EAFF"/>
<path d="M1647.55 1201.99H1349.1C1347.88 1201.99 1346.9 1201.01 1346.9 1199.79C1346.9 1198.58 1347.88 1197.59 1349.1 1197.59H1647.55C1648.77 1197.59 1649.75 1198.58 1649.75 1199.79C1649.75 1201.01 1648.77 1201.99 1647.55 1201.99Z" fill="#E2EAFF"/>
<path d="M1647.55 1257.39H1349.1C1347.88 1257.39 1346.9 1256.4 1346.9 1255.19C1346.9 1253.97 1347.88 1252.98 1349.1 1252.98H1647.55C1648.77 1252.98 1649.75 1253.97 1649.75 1255.19C1649.75 1256.4 1648.77 1257.39 1647.55 1257.39Z" fill="#E2EAFF"/>
<path d="M3078.25 1276.04H1706.87V2067.65H3078.25V1276.04Z" fill="#E2EAFF"/>
<path d="M2890.64 883.835H2497.01C2478.77 883.835 2463.98 898.639 2463.98 916.9V1090.71C2463.98 1108.97 2478.77 1123.78 2497.01 1123.78H2890.64C2908.88 1123.78 2923.67 1108.97 2923.67 1090.71V916.9C2923.67 898.639 2908.88 883.835 2890.64 883.835Z" fill="#29815B"/>
<path d="M2649.29 1054.22C2648.4 1054.22 2647.51 1053.85 2646.85 1053.14L2603.95 1006.03C2602.8 1004.77 2602.8 1002.84 2603.95 1001.58L2646.85 954.475C2648.08 953.124 2650.17 953.03 2651.52 954.256C2652.87 955.486 2652.97 957.574 2651.74 958.923L2610.86 1003.81L2651.74 1048.69C2652.97 1050.04 2652.87 1052.13 2651.52 1053.36C2650.89 1053.93 2650.09 1054.22 2649.29 1054.22Z" fill="white"/>
<path d="M2738.36 1054.22C2737.56 1054.22 2736.76 1053.93 2736.13 1053.36C2734.78 1052.13 2734.68 1050.04 2735.91 1048.69L2776.79 1003.81L2735.91 958.923C2734.68 957.575 2734.78 955.486 2736.13 954.256C2737.47 953.028 2739.57 953.121 2740.8 954.475L2783.7 1001.58C2784.85 1002.84 2784.85 1004.77 2783.7 1006.03L2740.8 1053.14C2740.15 1053.85 2739.25 1054.22 2738.36 1054.22Z" fill="white"/>
<path d="M2669.02 1071.09C2668.63 1071.09 2668.22 1071.02 2667.83 1070.87C2666.13 1070.21 2665.28 1068.3 2665.94 1066.59L2715.55 938.631C2716.2 936.928 2718.12 936.076 2719.82 936.745C2721.52 937.403 2722.36 939.317 2721.7 941.018L2672.1 1068.98C2671.59 1070.29 2670.35 1071.09 2669.02 1071.09Z" fill="white"/>
<path d="M791.505 544.648C795.99 526.814 785.181 508.715 767.362 504.223C766.033 503.888 764.706 503.665 763.381 503.497C763.428 489.726 761.394 476.228 757.486 463.395C758.707 462.853 759.913 462.257 761.089 461.554C776.86 452.12 782.003 431.674 772.574 415.887C763.146 400.1 742.717 394.95 726.946 404.384C725.771 405.087 724.674 405.868 723.619 406.687C714.177 397.167 703.262 388.981 691.12 382.5C691.6 381.253 692.032 379.976 692.366 378.647C696.851 360.813 686.042 342.714 668.223 338.222C650.404 333.73 632.323 344.545 627.837 362.379C627.503 363.708 627.28 365.037 627.112 366.363C613.352 366.314 599.867 368.348 587.047 372.257C586.505 371.035 585.908 369.827 585.206 368.651C575.777 352.864 555.349 347.714 539.577 357.148C523.805 366.582 518.663 387.028 528.092 402.815C528.795 403.991 529.575 405.088 530.394 406.144C520.882 415.593 512.705 426.518 506.232 438.669C504.986 438.189 503.711 437.756 502.383 437.421C484.564 432.928 466.483 443.744 461.997 461.578C457.511 479.412 468.32 497.511 486.14 502.003C487.469 502.338 488.796 502.561 490.121 502.729C490.074 516.5 492.11 529.999 496.016 542.831C494.795 543.374 493.588 543.969 492.413 544.672C476.641 554.106 471.499 574.552 480.927 590.338C490.355 606.125 510.784 611.275 526.555 601.841C527.73 601.138 528.827 600.357 529.883 599.538C539.325 609.058 550.24 617.244 562.382 623.725C561.902 624.973 561.47 626.249 561.136 627.578C556.651 645.412 567.46 663.511 585.279 668.003C603.098 672.495 621.179 661.679 625.665 643.845C625.999 642.516 626.222 641.187 626.39 639.861C640.15 639.91 653.636 637.876 666.455 633.968C666.997 635.189 667.594 636.398 668.296 637.574C677.724 653.361 698.153 658.511 713.925 649.077C729.697 639.643 734.839 619.197 725.41 603.41C724.708 602.234 723.927 601.137 723.108 600.081C732.619 590.631 740.797 579.708 747.27 567.556C748.516 568.036 749.791 568.469 751.12 568.804C768.939 573.296 787.02 562.481 791.506 544.647L791.505 544.648ZM686.668 518.219C678.338 551.338 644.759 571.423 611.668 563.081C578.577 554.739 558.503 521.127 566.832 488.008C575.162 454.889 608.741 434.803 641.832 443.146C674.923 451.488 694.997 485.099 686.668 518.219Z" fill="white"/>
<path d="M593.466 671.23C590.559 671.23 587.634 670.871 584.741 670.142C565.773 665.359 554.227 646.026 559.001 627.043C559.186 626.31 559.407 625.553 559.67 624.761C548.696 618.709 538.618 611.21 529.672 602.436C528.992 602.916 528.334 603.344 527.687 603.731C519.554 608.6 510.014 610.009 500.825 607.684C491.636 605.368 483.898 599.609 479.038 591.469C468.999 574.667 474.492 552.828 491.281 542.785C491.933 542.398 492.623 542.019 493.367 541.647C489.883 529.615 488.055 517.18 487.924 504.63C487.107 504.488 486.337 504.327 485.604 504.142C466.634 499.359 455.088 480.026 459.862 461.043C462.176 451.847 467.926 444.103 476.06 439.239C484.193 434.379 493.733 432.977 502.92 435.288C503.653 435.473 504.408 435.695 505.197 435.957C511.246 424.968 518.739 414.882 527.498 405.937C527.016 405.255 526.588 404.595 526.199 403.944C516.165 387.144 521.657 365.303 538.444 355.26C546.58 350.395 556.119 348.995 565.306 351.309C574.495 353.625 582.233 359.384 587.095 367.524C587.484 368.178 587.861 368.868 588.233 369.61C600.248 366.126 612.67 364.298 625.212 364.169C625.354 363.35 625.515 362.58 625.7 361.846C628.014 352.648 633.765 344.904 641.898 340.039C650.031 335.179 659.573 333.774 668.758 336.089C687.726 340.868 699.272 360.201 694.5 379.186C694.315 379.921 694.091 380.676 693.829 381.468C704.81 387.524 714.885 395.021 723.827 403.793C724.507 403.314 725.165 402.886 725.816 402.496C733.945 397.629 743.483 396.221 752.676 398.545C761.865 400.861 769.603 406.62 774.463 414.76C784.5 431.564 779.005 453.403 762.218 463.444C761.562 463.835 760.878 464.21 760.134 464.582C763.618 476.619 765.446 489.051 765.575 501.599C766.394 501.741 767.164 501.904 767.9 502.089C786.866 506.87 798.412 526.201 793.638 545.186C791.326 554.382 785.573 562.124 777.442 566.991C769.309 571.853 759.771 573.26 750.579 570.941C749.835 570.754 749.089 570.535 748.302 570.272C742.252 581.261 734.76 591.347 726.001 600.292C726.481 600.974 726.911 601.632 727.3 602.283C737.334 619.087 731.842 640.926 715.055 650.969C706.922 655.836 697.384 657.247 688.193 654.92C679.004 652.604 671.266 646.845 666.406 638.705C666.019 638.058 665.642 637.367 665.268 636.619C653.253 640.103 640.831 641.931 628.289 642.06C628.147 642.882 627.984 643.651 627.799 644.387C625.487 653.581 619.734 661.323 611.603 666.189C606.029 669.522 599.795 671.23 593.466 671.23ZM529.883 597.339C530.453 597.339 531.019 597.558 531.447 597.991C540.864 607.481 551.621 615.488 563.419 621.785C564.4 622.308 564.836 623.48 564.438 624.516C563.931 625.836 563.55 627.013 563.272 628.116C559.089 644.746 569.203 661.682 585.816 665.871C593.872 667.905 602.223 666.671 609.341 662.409C616.464 658.149 621.502 651.366 623.528 643.31C623.808 642.205 624.029 640.987 624.205 639.587C624.345 638.486 625.28 637.662 626.39 637.662C626.442 637.638 626.702 637.662 626.861 637.662C640.091 637.662 653.192 635.711 665.812 631.864C666.877 631.533 668.016 632.058 668.468 633.077C669.051 634.387 669.595 635.458 670.186 636.447C674.444 643.578 681.223 648.621 689.27 650.651C697.313 652.681 705.672 651.453 712.793 647.189C727.498 638.393 732.311 619.262 723.52 604.541C722.935 603.562 722.23 602.545 721.367 601.433C720.685 600.553 720.765 599.304 721.554 598.521C731.032 589.106 739.029 578.34 745.324 566.523C745.849 565.538 747.027 565.104 748.057 565.501C749.397 566.017 750.541 566.387 751.657 566.669C759.7 568.701 768.059 567.469 775.18 563.209C782.303 558.949 787.341 552.166 789.367 544.11C793.55 527.482 783.436 510.546 766.823 506.359C765.718 506.079 764.5 505.858 763.103 505.681C762 505.541 761.174 504.602 761.178 503.488C761.223 490.099 759.273 476.825 755.378 464.036C755.055 462.974 755.574 461.836 756.589 461.384C757.905 460.797 758.974 460.251 759.957 459.664C774.663 450.868 779.475 431.737 770.684 417.016C766.426 409.885 759.647 404.842 751.6 402.812C743.555 400.784 735.2 402.014 728.077 406.274C727.096 406.859 726.079 407.564 724.967 408.427C724.087 409.109 722.84 409.031 722.053 408.238C712.642 398.75 701.885 390.743 690.081 384.442C689.1 383.919 688.664 382.747 689.062 381.711C689.567 380.395 689.95 379.216 690.23 378.107C694.411 361.479 684.297 344.546 667.684 340.358C659.641 338.33 651.282 339.56 644.159 343.818C637.036 348.078 631.998 354.861 629.972 362.917C629.694 364.022 629.473 365.242 629.297 366.64C629.157 367.739 628.222 368.565 627.112 368.565C627.071 368.556 626.8 368.565 626.641 368.565C613.411 368.565 600.31 370.515 587.69 374.363C586.625 374.692 585.486 374.167 585.034 373.15C584.466 371.868 583.903 370.765 583.314 369.778C579.056 362.651 572.28 357.606 564.232 355.578C556.187 353.55 547.83 354.778 540.707 359.038C526.002 367.836 521.191 386.967 529.982 401.686C530.565 402.665 531.268 403.68 532.133 404.794C532.815 405.674 532.735 406.923 531.946 407.706C522.468 417.121 514.471 427.887 508.176 439.704C507.651 440.687 506.481 441.123 505.441 440.725C504.127 440.218 502.951 439.837 501.843 439.557C493.804 437.531 485.445 438.759 478.32 443.017C471.197 447.277 466.159 454.06 464.133 462.116C459.95 478.744 470.064 495.68 486.677 499.869C487.785 500.146 489.002 500.368 490.397 500.544C491.5 500.684 492.326 501.624 492.322 502.735C492.279 516.131 494.229 529.404 498.124 542.191C498.447 543.256 497.926 544.393 496.909 544.845C495.621 545.417 494.52 545.978 493.541 546.563C478.836 555.359 474.025 574.49 482.818 589.208C487.076 596.339 493.855 601.382 501.902 603.412C509.943 605.444 518.304 604.214 525.425 599.95C526.401 599.367 527.419 598.662 528.535 597.797C528.935 597.49 529.41 597.337 529.883 597.337V597.339ZM626.873 567.182C621.628 567.182 616.348 566.533 611.131 565.216C576.914 556.59 556.083 521.715 564.699 487.472C568.871 470.885 579.247 456.915 593.918 448.141C608.589 439.365 625.798 436.833 642.37 441.012C676.587 449.638 697.418 484.513 688.805 518.756C684.633 535.343 674.257 549.313 659.585 558.087C649.533 564.1 638.288 567.182 626.873 567.182ZM626.634 443.452C616.006 443.452 605.537 446.321 596.178 451.919C582.518 460.091 572.853 473.1 568.969 488.547C560.947 520.435 580.343 552.913 612.206 560.945C627.636 564.84 643.662 562.478 657.325 554.308C670.985 546.136 680.65 533.127 684.534 517.68C692.553 485.792 673.158 453.314 641.295 445.282C636.437 444.056 631.519 443.452 626.635 443.452H626.634Z" fill="black"/>
<path d="M538.87 763.28C541.583 752.493 535.045 741.546 524.268 738.829C523.464 738.626 522.661 738.491 521.86 738.39C521.888 730.061 520.658 721.896 518.294 714.134C519.033 713.806 519.762 713.445 520.473 713.02C530.012 707.314 533.123 694.947 527.42 685.399C521.717 675.85 509.361 672.735 499.822 678.442C499.111 678.867 498.448 679.34 497.809 679.835C492.098 674.077 485.496 669.126 478.152 665.206C478.442 664.451 478.703 663.679 478.906 662.876C481.619 652.089 475.081 641.142 464.303 638.425C453.525 635.708 442.589 642.25 439.876 653.037C439.674 653.841 439.539 654.645 439.437 655.447C431.114 655.417 422.958 656.648 415.204 659.012C414.876 658.273 414.515 657.542 414.09 656.831C408.387 647.282 396.031 644.167 386.491 649.874C376.951 655.58 373.841 667.947 379.544 677.496C379.969 678.207 380.441 678.871 380.936 679.51C375.183 685.226 370.237 691.833 366.322 699.183C365.568 698.892 364.798 698.631 363.994 698.428C353.216 695.711 342.28 702.253 339.567 713.039C336.854 723.826 343.392 734.773 354.17 737.49C354.974 737.693 355.776 737.828 356.577 737.929C356.549 746.258 357.78 754.423 360.143 762.185C359.404 762.513 358.675 762.874 357.964 763.299C348.424 769.005 345.314 781.372 351.017 790.92C356.72 800.469 369.076 803.584 378.616 797.878C379.327 797.453 379.99 796.98 380.628 796.485C386.339 802.243 392.941 807.194 400.286 811.114C399.996 811.869 399.734 812.641 399.532 813.444C396.819 824.231 403.357 835.178 414.135 837.895C424.913 840.612 435.849 834.07 438.562 823.283C438.764 822.479 438.899 821.675 439 820.873C447.323 820.903 455.48 819.673 463.233 817.309C463.561 818.048 463.922 818.779 464.347 819.49C470.05 829.039 482.406 832.154 491.945 826.448C501.485 820.742 504.595 808.375 498.892 798.827C498.467 798.116 497.995 797.452 497.499 796.813C503.252 791.097 508.198 784.49 512.113 777.14C512.867 777.43 513.637 777.692 514.441 777.895C525.219 780.612 536.156 774.07 538.868 763.283L538.87 763.28ZM475.46 747.294C470.422 767.326 450.111 779.475 430.096 774.429C410.081 769.383 397.939 749.053 402.977 729.021C408.015 708.989 428.326 696.84 448.341 701.886C468.356 706.932 480.498 727.262 475.46 747.294Z" fill="white"/>
<path d="M419.091 840.714C417.259 840.714 415.418 840.488 413.596 840.028C401.656 837.019 394.389 824.852 397.396 812.903C397.458 812.656 397.527 812.406 397.602 812.152C391.338 808.627 385.565 804.333 380.402 799.352C380.183 799.496 379.963 799.634 379.748 799.763C374.625 802.825 368.617 803.711 362.838 802.251C357.053 800.793 352.184 797.169 349.126 792.045C342.81 781.471 346.266 767.727 356.831 761.406C357.05 761.277 357.274 761.148 357.506 761.021C355.568 754.105 354.521 746.982 354.388 739.797C354.128 739.743 353.876 739.685 353.631 739.623C341.693 736.612 334.424 724.445 337.429 712.498C338.885 706.711 342.506 701.838 347.625 698.775C352.744 695.712 358.748 694.827 364.531 696.289C364.778 696.351 365.028 696.42 365.281 696.493C368.797 690.228 373.088 684.452 378.066 679.282C377.92 679.056 377.782 678.837 377.651 678.617C371.337 668.045 374.793 654.301 385.359 647.98C390.477 644.918 396.479 644.036 402.267 645.492C408.05 646.95 412.919 650.576 415.979 655.698C416.11 655.917 416.239 656.141 416.364 656.373C423.267 654.435 430.383 653.39 437.564 653.255C437.618 652.997 437.676 652.745 437.738 652.496C439.194 646.709 442.815 641.836 447.934 638.773C453.05 635.711 459.057 634.825 464.84 636.287C476.78 639.296 484.047 651.463 481.04 663.41C480.978 663.657 480.909 663.907 480.833 664.163C487.098 667.686 492.867 671.98 498.033 676.961C498.254 676.817 498.474 676.679 498.691 676.55C503.807 673.488 509.818 672.608 515.596 674.062C521.381 675.52 526.25 679.146 529.31 684.269C535.626 694.845 532.168 708.592 521.602 714.91C521.383 715.041 521.159 715.168 520.927 715.295C522.865 722.207 523.912 729.329 524.045 736.519C524.305 736.573 524.557 736.631 524.804 736.693C536.742 739.702 544.008 751.869 541.004 763.818C539.55 769.603 535.929 774.476 530.81 777.539C525.692 780.601 519.681 781.481 513.902 780.027C513.657 779.965 513.407 779.896 513.154 779.821C509.636 786.088 505.345 791.864 500.369 797.034C500.513 797.256 500.651 797.473 500.782 797.692C507.098 808.271 503.64 822.017 493.074 828.335C487.954 831.395 481.951 832.283 476.166 830.821C470.383 829.363 465.514 825.739 462.454 820.617C462.323 820.398 462.196 820.174 462.069 819.942C455.164 821.88 448.05 822.925 440.869 823.058C440.815 823.318 440.757 823.572 440.695 823.819C439.239 829.606 435.618 834.479 430.499 837.542C426.994 839.639 423.071 840.714 419.088 840.714H419.091ZM380.629 794.279C381.199 794.279 381.765 794.498 382.193 794.931C387.821 800.606 394.255 805.398 401.322 809.17C402.303 809.693 402.739 810.865 402.341 811.903C402.049 812.66 401.829 813.34 401.668 813.978C399.255 823.572 405.087 833.342 414.672 835.757C419.321 836.927 424.134 836.219 428.242 833.761C432.352 831.303 435.257 827.391 436.427 822.744C436.608 822.026 436.724 821.307 436.816 820.589C436.958 819.49 437.893 818.669 439.001 818.669C439.042 818.643 439.199 818.667 439.3 818.669C447.208 818.669 455.04 817.503 462.59 815.202C463.655 814.875 464.792 815.398 465.244 816.411C465.539 817.069 465.857 817.723 466.238 818.357C468.694 822.471 472.604 825.381 477.247 826.551C481.884 827.723 486.705 827.011 490.815 824.555C499.299 819.482 502.075 808.445 497.004 799.953C496.625 799.319 496.202 798.729 495.759 798.16C495.079 797.28 495.161 796.033 495.948 795.25C501.621 789.613 506.406 783.17 510.172 776.104C510.697 775.121 511.871 774.682 512.91 775.085C513.674 775.38 514.351 775.599 514.981 775.758C519.628 776.928 524.443 776.223 528.551 773.76C532.661 771.304 535.568 767.392 536.736 762.745C539.147 753.151 533.314 743.381 523.732 740.966C523.093 740.805 522.392 740.678 521.586 740.577C520.483 740.437 519.655 739.497 519.659 738.386C519.687 730.371 518.519 722.427 516.188 714.777C515.865 713.715 516.384 712.577 517.399 712.125C518.171 711.781 518.788 711.465 519.341 711.134C527.827 706.059 530.603 695.022 525.532 686.53C523.074 682.416 519.164 679.506 514.523 678.336C509.878 677.17 505.06 677.878 500.953 680.334C500.385 680.672 499.803 681.078 499.166 681.573C498.289 682.263 497.033 682.184 496.248 681.388C490.618 675.713 484.181 670.921 477.117 667.149C476.136 666.626 475.7 665.454 476.098 664.416C476.39 663.659 476.61 662.979 476.771 662.339C479.184 652.748 473.35 642.978 463.767 640.563C459.124 639.397 454.307 640.103 450.197 642.559C446.087 645.017 443.182 648.929 442.012 653.576C441.853 654.21 441.73 654.894 441.625 655.722C441.485 656.823 440.55 657.649 439.44 657.649C439.341 657.64 439.255 657.649 439.163 657.649C431.247 657.649 423.406 658.817 415.849 661.12C414.772 661.438 413.643 660.922 413.191 659.903C412.866 659.165 412.544 658.531 412.202 657.963C409.744 653.847 405.836 650.937 401.193 649.767C396.554 648.599 391.733 649.305 387.625 651.765C379.141 656.838 376.367 667.873 381.438 676.365C381.776 676.933 382.169 677.503 382.681 678.161C383.361 679.041 383.279 680.288 382.492 681.071C376.817 686.71 372.034 693.151 368.27 700.217C367.743 701.202 366.573 701.636 365.535 701.239C364.754 700.938 364.094 700.723 363.46 700.564C358.815 699.398 354 700.104 349.89 702.56C345.78 705.018 342.875 708.93 341.705 713.577C339.294 723.169 345.129 732.938 354.711 735.356C355.345 735.515 356.046 735.644 356.855 735.745C357.958 735.885 358.786 736.825 358.782 737.936C358.754 745.945 359.922 753.887 362.253 761.545C362.576 762.61 362.055 763.749 361.038 764.199C360.294 764.53 359.659 764.853 359.1 765.188C350.614 770.263 347.84 781.298 352.911 789.79C355.367 793.904 359.277 796.814 363.918 797.984C368.561 799.156 373.376 798.446 377.488 795.988C378.12 795.609 378.714 795.186 379.284 794.743C379.684 794.436 380.159 794.283 380.632 794.283L380.629 794.279ZM439.293 777.78C436.05 777.78 432.783 777.378 429.557 776.565C408.396 771.232 395.514 749.662 400.841 728.483C403.422 718.225 409.839 709.586 418.912 704.158C427.981 698.73 438.624 697.171 448.878 699.752C470.039 705.085 482.921 726.655 477.594 747.832C475.016 758.09 468.598 766.729 459.525 772.157C453.308 775.875 446.353 777.78 439.293 777.78ZM439.149 702.941C432.876 702.941 426.697 704.636 421.172 707.939C413.11 712.763 407.406 720.44 405.112 729.558C400.376 748.382 411.826 767.554 430.633 772.294C439.749 774.589 449.203 773.199 457.263 768.376C465.328 763.552 471.031 755.875 473.323 746.757C478.056 727.935 466.609 708.763 447.803 704.023C444.934 703.3 442.031 702.941 439.149 702.941Z" fill="black"/>
<path d="M643.628 1084.6H442.068C440.851 1084.6 439.866 1083.61 439.866 1082.4V873.284C439.866 872.067 440.851 871.082 442.068 871.082C443.285 871.082 444.27 872.067 444.27 873.284V1080.2H643.628C644.845 1080.2 645.83 1081.18 645.83 1082.4C645.83 1083.61 644.845 1084.6 643.628 1084.6Z" fill="black"/>
<path d="M1836.94 1367.08C1836.94 1388.72 1854.47 1406.27 1876.09 1406.27C1877.7 1406.27 1879.28 1406.15 1880.84 1405.96C1884.74 1421.69 1890.93 1436.51 1899.07 1450.03C1897.83 1451 1896.63 1452.03 1895.49 1453.17C1880.2 1468.48 1880.2 1493.29 1895.49 1508.6C1910.78 1523.91 1935.57 1523.91 1950.85 1508.6C1951.99 1507.46 1953.02 1506.25 1953.99 1505.01C1967.5 1513.16 1982.3 1519.37 1998.01 1523.27C1997.82 1524.83 1997.7 1526.41 1997.7 1528.03C1997.7 1549.67 2015.22 1567.22 2036.85 1567.22C2058.47 1567.22 2075.99 1549.67 2075.99 1528.03C2075.99 1526.41 2075.87 1524.83 2075.68 1523.27C2091.39 1519.37 2106.2 1513.16 2119.7 1505.01C2120.67 1506.25 2121.7 1507.46 2122.84 1508.6C2138.13 1523.91 2162.91 1523.91 2178.2 1508.6C2193.49 1493.29 2193.49 1468.48 2178.2 1453.17C2177.06 1452.03 2175.86 1451 2174.62 1450.03C2182.76 1436.51 2188.95 1421.69 2192.85 1405.96C2194.41 1406.15 2195.99 1406.27 2197.6 1406.27C2219.22 1406.27 2236.75 1388.72 2236.75 1367.08C2236.75 1345.43 2219.22 1327.88 2197.6 1327.88C2195.99 1327.88 2194.41 1328.01 2192.85 1328.2C2188.95 1312.47 2182.76 1297.65 2174.62 1284.12C2175.86 1283.15 2177.06 1282.13 2178.2 1280.99C2193.49 1265.68 2193.49 1240.86 2178.2 1225.56C2162.91 1210.25 2138.13 1210.25 2122.84 1225.56C2121.7 1226.7 2120.67 1227.91 2119.7 1229.14C2106.2 1220.99 2091.39 1214.79 2075.68 1210.89C2075.87 1209.33 2075.99 1207.74 2075.99 1206.13C2075.99 1184.48 2058.47 1166.94 2036.85 1166.94C2015.22 1166.94 1997.7 1184.48 1997.7 1206.13C1997.7 1207.74 1997.82 1209.33 1998.01 1210.89C1982.3 1214.79 1967.5 1220.99 1953.99 1229.14C1953.02 1227.91 1951.99 1226.7 1950.85 1225.56C1935.56 1210.25 1910.78 1210.25 1895.49 1225.56C1880.2 1240.86 1880.2 1265.68 1895.49 1280.99C1896.63 1282.13 1897.83 1283.15 1899.07 1284.12C1890.93 1297.65 1884.74 1312.47 1880.84 1328.2C1879.28 1328.01 1877.7 1327.88 1876.09 1327.88C1854.47 1327.88 1836.94 1345.43 1836.94 1367.08ZM1964.14 1367.08C1964.14 1326.88 1996.69 1294.29 2036.85 1294.29C2077 1294.29 2109.55 1326.88 2109.55 1367.08C2109.55 1407.28 2077 1439.87 2036.85 1439.87C1996.69 1439.87 1964.14 1407.28 1964.14 1367.08Z" fill="white"/>
<path d="M1892.49 1279.82C1891.84 1279.82 1891.19 1279.53 1890.76 1278.98C1889.37 1277.24 1888.15 1275.41 1887.08 1273.51C1878.09 1257.55 1880.63 1237.46 1893.78 1224.15L1893.78 1224.15C1893.79 1224.15 1893.79 1224.14 1893.8 1224.14C1893.8 1224.14 1893.8 1224.14 1893.8 1224.13C1893.81 1224.13 1893.81 1224.12 1893.81 1224.12C1893.82 1224.11 1893.82 1224.11 1893.82 1224.11L1893.83 1224.1C1893.83 1224.1 1893.84 1224.09 1893.85 1224.09L1893.85 1224.08L1893.87 1224.06L1893.87 1224.06C1893.89 1224.04 1893.91 1224.02 1893.93 1224C1893.93 1224 1893.93 1224 1893.93 1224C1900.55 1217.37 1909.02 1213.27 1918.17 1212.17C1919.82 1211.98 1921.49 1211.88 1923.17 1211.88C1934.22 1211.88 1944.6 1216.18 1952.41 1224C1953.1 1224.7 1953.79 1225.45 1954.5 1226.28C1967.36 1218.73 1981.18 1212.99 1995.63 1209.22C1995.54 1208.13 1995.5 1207.11 1995.5 1206.13C1995.5 1183.31 2014.04 1164.74 2036.84 1164.74C2059.64 1164.74 2078.2 1183.31 2078.2 1206.13C2078.2 1207.11 2078.15 1208.13 2078.06 1209.22C2092.51 1212.99 2106.33 1218.73 2119.19 1226.28C2119.9 1225.45 2120.59 1224.7 2121.28 1224C2129.09 1216.18 2139.48 1211.88 2150.52 1211.88C2161.57 1211.88 2171.95 1216.18 2179.76 1224C2187.83 1232.08 2191.95 1242.63 2191.95 1253.25C2191.95 1261.77 2189.31 1270.32 2183.91 1277.69C2183.2 1278.68 2181.82 1278.89 2180.84 1278.17C2180.25 1277.74 2179.93 1277.07 2179.94 1276.39C2179.94 1275.94 2180.07 1275.48 2180.36 1275.09C2185.09 1268.64 2187.4 1260.99 2187.4 1253.36C2187.4 1243.78 2183.75 1234.23 2176.64 1227.12C2169.67 1220.13 2160.39 1216.28 2150.52 1216.28C2140.65 1216.28 2131.38 1220.13 2124.4 1227.12C2123.43 1228.08 2122.47 1229.19 2121.44 1230.5C2120.75 1231.38 2119.52 1231.61 2118.56 1231.03C2105.07 1222.89 2090.47 1216.83 2075.15 1213.03C2074.16 1212.78 2073.48 1211.89 2073.48 1210.89C2073.48 1210.81 2073.48 1210.72 2073.49 1210.63C2073.69 1208.96 2073.79 1207.49 2073.79 1206.13C2073.79 1185.73 2057.22 1169.14 2036.85 1169.14C2016.47 1169.14 1999.9 1185.73 1999.9 1206.13C1999.9 1207.49 2000 1208.96 2000.2 1210.63C2000.21 1210.72 2000.22 1210.81 2000.22 1210.89C2000.22 1211.89 1999.54 1212.78 1998.55 1213.03C1983.23 1216.83 1968.62 1222.89 1955.13 1231.03C1954.18 1231.61 1952.95 1231.38 1952.26 1230.5C1951.23 1229.19 1950.26 1228.08 1949.3 1227.11C1942.32 1220.13 1933.04 1216.28 1923.17 1216.28C1913.3 1216.28 1904.03 1220.13 1897.05 1227.12C1897.03 1227.13 1897.01 1227.15 1896.99 1227.17L1896.99 1227.17C1896.99 1227.17 1896.98 1227.18 1896.98 1227.19C1896.98 1227.19 1896.98 1227.19 1896.97 1227.19C1896.97 1227.19 1896.97 1227.2 1896.96 1227.2C1896.96 1227.21 1896.95 1227.21 1896.95 1227.22C1896.94 1227.22 1896.94 1227.23 1896.93 1227.23C1896.93 1227.23 1896.93 1227.23 1896.93 1227.24C1896.92 1227.24 1896.92 1227.25 1896.92 1227.25C1896.91 1227.25 1896.91 1227.25 1896.91 1227.25C1885.17 1239.14 1882.97 1257.17 1890.91 1271.33C1891.57 1272.5 1892.29 1273.64 1893.09 1274.76C1893.11 1274.78 1893.12 1274.8 1893.14 1274.82C1893.48 1275.31 1893.84 1275.78 1894.21 1276.25C1894.97 1277.2 1894.81 1278.59 1893.86 1279.34C1893.45 1279.67 1892.97 1279.82 1892.49 1279.82L1892.49 1279.82Z" fill="black"/>
<path d="M1794.85 754.865H1243.8V1139.08H1794.85V754.865Z" fill="#E2EAFF"/>
<path d="M1300.11 1080.02C1299.52 1080.02 1298.93 1079.86 1298.39 1079.54C1296.83 1078.59 1296.34 1076.56 1297.29 1075L1433.24 851.458C1433.83 850.497 1434.86 849.899 1435.98 849.871C1437.12 849.811 1438.17 850.387 1438.8 851.32L1590.37 1074.86C1591.4 1076.37 1591 1078.43 1589.49 1079.45C1587.98 1080.47 1585.93 1080.08 1584.91 1078.57L1436.22 859.281L1302.93 1078.43C1302.31 1079.45 1301.22 1080.02 1300.11 1080.02V1080.02Z" fill="white"/>
<path d="M1737.02 1080.02C1736.05 1080.02 1735.08 1079.59 1734.43 1078.77L1580.09 884.057L1532.47 951.105C1531.42 952.595 1529.36 952.942 1527.87 951.886C1526.38 950.83 1526.03 948.768 1527.09 947.282L1577.25 876.645C1577.85 875.798 1578.81 875.282 1579.85 875.256C1580.95 875.14 1581.88 875.693 1582.53 876.505L1739.61 1074.66C1740.74 1076.09 1740.5 1078.17 1739.07 1079.31C1738.46 1079.78 1737.74 1080.02 1737.02 1080.02H1737.02Z" fill="white"/>
<path d="M1686.15 881.541C1667.53 881.541 1652.38 866.375 1652.38 847.734C1652.38 829.093 1667.53 813.927 1686.15 813.927C1704.77 813.927 1719.92 829.093 1719.92 847.734C1719.92 866.375 1704.77 881.541 1686.15 881.541ZM1686.15 820.534C1671.17 820.534 1658.99 832.736 1658.99 847.734C1658.99 862.732 1671.17 874.934 1686.15 874.934C1701.13 874.934 1713.31 862.732 1713.31 847.734C1713.31 832.736 1701.13 820.534 1686.15 820.534Z" fill="white"/>
<path d="M1460.03 1036.86C1458.49 1036.86 1456.97 1036.74 1455.45 1036.5C1441.23 1034.29 1430.42 1022 1422.59 1011.54C1421.47 1010.04 1420.35 1008.51 1419.23 1006.99C1412.45 997.748 1405.44 988.191 1396.26 983.012C1390.56 979.803 1383.37 978.978 1377.49 980.853C1374.22 981.894 1369.79 984.266 1367.25 989.651C1366.47 991.305 1364.5 992.008 1362.85 991.229C1361.2 990.451 1360.49 988.483 1361.27 986.833C1364.09 980.867 1369 976.622 1375.48 974.558C1383.17 972.102 1392.15 973.115 1399.5 977.257C1409.93 983.134 1417.37 993.276 1424.56 1003.08C1425.67 1004.59 1426.77 1006.1 1427.88 1007.58C1434.96 1017.04 1444.6 1028.13 1456.47 1029.98C1465.84 1031.45 1476.62 1026.71 1485.29 1017.33C1493.51 1008.44 1499.21 996.832 1504.72 985.608C1505.53 983.969 1507.5 983.294 1509.14 984.098C1510.78 984.902 1511.46 986.883 1510.65 988.52C1504.93 1000.17 1499.02 1012.21 1490.15 1021.81C1481.16 1031.54 1470.4 1036.86 1460.03 1036.86H1460.03Z" fill="white"/>
<path d="M519.122 2123.54C514.954 2143.8 530.416 2162.8 551.084 2162.8H760.345C770.213 2162.8 775.875 2151.55 770.001 2143.61L746.389 2111.69C701.367 2066.07 608.779 2088.62 522.565 2106.8L519.122 2123.54Z" fill="white"/>
<path d="M760.344 2165H551.085C540.577 2165 530.741 2160.33 524.098 2152.18C517.442 2144.01 514.842 2133.41 516.965 2123.09L520.408 2106.35C520.584 2105.5 521.253 2104.82 522.111 2104.64L534.918 2101.93C618.202 2084.22 704.31 2065.92 747.958 2110.14C748.031 2110.21 748.098 2110.29 748.16 2110.38L771.773 2142.3C774.99 2146.65 775.474 2152.35 773.04 2157.18C770.61 2162 765.743 2165 760.345 2165L760.344 2165ZM521.279 2123.98C519.425 2133 521.696 2142.26 527.511 2149.39C533.315 2156.51 541.907 2160.59 551.085 2160.59H760.344C764.127 2160.59 767.402 2158.58 769.107 2155.2C770.812 2151.81 770.486 2147.97 768.232 2144.92L744.711 2113.12C702.724 2070.75 617.882 2088.79 535.833 2106.23L524.431 2108.65L521.278 2123.98L521.279 2123.98Z" fill="black"/>
<path d="M1145.1 2111.69C1085.73 2052.82 933.525 2061.24 916.23 2111.69L920.338 2131.93C923.986 2149.89 939.764 2162.8 958.075 2162.8H1168.16C1177.25 2162.8 1182.01 2151.98 1175.86 2145.27L1145.1 2111.69Z" fill="white"/>
<path d="M1168.16 2165H958.076C938.798 2165 922.02 2151.27 918.179 2132.36L914.071 2112.13C913.994 2111.74 914.019 2111.34 914.146 2110.97C919.91 2094.16 939.903 2080.97 970.445 2073.83C1025.97 2060.85 1107.06 2070.87 1146.65 2110.12C1146.68 2110.15 1146.7 2110.17 1146.72 2110.2L1177.48 2143.78C1180.93 2147.54 1181.79 2152.77 1179.74 2157.44C1177.69 2162.1 1173.25 2165 1168.16 2165L1168.16 2165ZM918.51 2111.85L922.497 2131.49C925.921 2148.35 940.884 2160.6 958.076 2160.6H1168.16C1172.13 2160.6 1174.66 2158.05 1175.71 2155.67C1176.76 2153.28 1176.92 2149.69 1174.24 2146.76L1143.51 2113.21C1104.99 2075.07 1025.78 2065.42 971.45 2078.12C942.788 2084.82 924.024 2096.78 918.51 2111.85Z" fill="black"/>
<path d="M951.967 1176.63H695.032C662.418 1221.4 640.888 1273.28 632.216 1328.01L511.469 2089.98C509 2101.12 517.469 2111.69 528.868 2111.69H738.793C752.559 2111.69 764.044 2101.16 765.258 2087.43L809.557 1586.29L896.611 2091.53C898.618 2103.18 908.709 2111.69 920.514 2111.69H1139.47C1150.93 2111.69 1159.44 2101.05 1156.92 2089.86L951.968 1176.63L951.967 1176.63Z" fill="white"/>
<path d="M1139.47 2113.89H920.514C907.6 2113.89 896.634 2104.64 894.441 2091.9L810.26 1603.35L767.451 2087.63C766.128 2102.6 753.808 2113.89 738.793 2113.89H528.869C522.768 2113.89 517.08 2111.16 513.258 2106.4C509.432 2101.63 507.996 2095.48 509.318 2089.5L630.041 1327.66C638.727 1272.85 660.585 1220.17 693.25 1175.33C693.665 1174.76 694.327 1174.43 695.031 1174.43H951.968C952.998 1174.43 953.891 1175.14 954.116 1176.15L1159.07 2089.38C1160.42 2095.37 1158.99 2101.56 1155.15 2106.36C1151.32 2111.14 1145.6 2113.89 1139.47 2113.89V2113.89ZM809.559 1584.09C810.626 1584.09 811.544 1584.86 811.727 1585.92L898.781 2091.16C900.611 2101.78 909.751 2109.49 920.515 2109.49H1139.48C1144.26 2109.49 1148.72 2107.34 1151.71 2103.6C1154.71 2099.86 1155.83 2095.02 1154.77 2090.34L950.205 1178.83H696.154C664.264 1222.91 642.911 1274.59 634.39 1328.35L513.643 2090.32C512.587 2095.11 513.708 2099.92 516.692 2103.64C519.673 2107.36 524.111 2109.48 528.868 2109.48H738.792C751.508 2109.48 761.943 2099.92 763.063 2087.24L807.362 1586.1C807.459 1585 808.36 1584.14 809.465 1584.09C809.495 1584.09 809.526 1584.09 809.559 1584.09Z" fill="black"/>
<path d="M809.554 1578.94C808.498 1578.94 807.567 1578.18 807.384 1577.1L785.15 1445.72C783.399 1441.71 765.27 1400.02 764.292 1390.24C764.172 1389.03 765.053 1387.95 766.264 1387.83C767.513 1387.74 768.554 1388.59 768.675 1389.8C769.454 1397.58 783.823 1431.71 789.294 1444.2C789.367 1444.37 789.419 1444.54 789.449 1444.72L811.729 1576.37C811.931 1577.57 811.123 1578.7 809.925 1578.91C809.8 1578.93 809.678 1578.94 809.555 1578.94H809.554Z" fill="black"/>
<path d="M709.929 963.245C713.344 952.178 740.912 917.342 747.806 908.036C763.678 886.611 826.916 895.51 853.41 892.559C886.694 888.851 954.507 877.184 998.337 903.706C1041.23 929.663 1057.21 982.877 1077.72 1011.17C1097.9 997.075 1114.13 984.626 1135.24 968.929L1205.85 1046.6C1202.06 1051.2 1128.74 1159.18 1062.19 1151.61C1023.44 1147.2 1011.86 1125.63 986.974 1099.64C986.974 1099.64 986.433 1207.9 951.802 1197.07C808.989 1152.43 731.062 1226.47 668.294 1204.82C653.085 1199.57 700.216 994.704 709.929 963.245Z" fill="#29815B"/>
<path d="M986.435 1100.76C985.691 1100.76 984.964 1100.39 984.549 1099.7C974.317 1082.81 955.444 1047.14 945.392 1018.09C944.994 1016.94 945.605 1015.69 946.753 1015.29C947.904 1014.9 949.157 1015.5 949.555 1016.65C959.493 1045.38 978.181 1080.69 988.316 1097.42C988.946 1098.46 988.613 1099.82 987.574 1100.45C987.217 1100.66 986.824 1100.76 986.435 1100.76Z" fill="black"/>
<path d="M1204.59 1047.26C1216.4 1022.13 1262.96 968.608 1285.04 959.034C1322.17 942.941 1296.81 936.462 1296.81 936.462C1296.81 936.462 1313.45 931.545 1311.47 922.385C1309.15 911.599 1277.43 924.428 1267.12 927.588C1264.34 928.514 1262.59 929.051 1262.59 929.051C1262.59 929.051 1264.34 928.438 1267.12 927.588C1278.46 923.81 1308.11 912.674 1308.82 904.865C1309.7 895.141 1296.33 896.336 1296.33 896.336C1296.33 896.336 1304.29 891.994 1298.46 884.715C1293.2 878.164 1225.13 884.266 1177.78 926.59C1171.05 932.6 1137.9 967.092 1132.63 972.269L1204.59 1047.26L1204.59 1047.26Z" fill="white"/>
<path d="M1204.59 1049.46C1204.28 1049.46 1203.96 1049.4 1203.65 1049.25C1202.55 1048.74 1202.08 1047.42 1202.6 1046.32C1214.89 1020.18 1261.6 966.795 1284.17 957.012C1302.08 949.251 1303.15 944.621 1303.06 943.384C1302.87 941.046 1298.4 939.147 1296.27 938.595C1295.31 938.346 1294.63 937.49 1294.61 936.5C1294.6 935.513 1295.24 934.631 1296.19 934.349C1296.33 934.306 1310.82 929.792 1309.32 922.848C1309.17 922.106 1308.78 921.598 1308.08 921.205C1302.36 917.956 1283.7 924.319 1273.68 927.73C1271.34 928.526 1269.31 929.216 1267.76 929.691C1265 930.611 1263.24 931.155 1263.24 931.155C1262.08 931.497 1260.88 930.878 1260.5 929.738C1260.13 928.598 1260.73 927.368 1261.87 926.97C1261.87 926.97 1263.65 926.346 1266.47 925.48C1288.58 918.117 1306.24 908.966 1306.63 904.665C1306.78 902.972 1306.4 901.691 1305.46 900.745C1303.22 898.491 1298.25 898.382 1296.52 898.528C1295.48 898.625 1294.53 897.967 1294.22 896.969C1293.93 895.971 1294.36 894.9 1295.28 894.401C1295.29 894.392 1297.88 892.921 1298.33 890.605C1298.59 889.252 1298.05 887.732 1296.74 886.091C1291.84 881.035 1225.7 886.708 1179.24 928.229C1174.87 932.141 1158.85 948.582 1147.16 960.588C1140.91 966.995 1135.98 972.057 1134.17 973.837C1133.3 974.684 1131.91 974.678 1131.05 973.807C1130.2 972.94 1130.22 971.545 1131.08 970.693C1132.86 968.947 1138.02 963.65 1144 957.514C1155.74 945.462 1171.82 928.957 1176.31 924.944C1217.73 887.925 1272.9 878.869 1291.68 880.445C1297.61 880.935 1299.37 882.329 1300.18 883.333C1302.35 886.049 1303.18 888.793 1302.64 891.49C1302.42 892.578 1302 893.537 1301.48 894.37C1303.89 894.768 1306.61 895.669 1308.57 897.626C1310.44 899.499 1311.28 902.071 1311.01 905.06C1310.68 908.697 1306 912.572 1299.74 916.176C1304.12 915.696 1307.76 915.961 1310.25 917.37C1312.04 918.381 1313.21 919.955 1313.63 921.918C1315.2 929.2 1307.97 934.028 1302.66 936.533C1304.97 937.918 1307.21 940.021 1307.45 943.03C1307.9 948.763 1301.06 954.488 1285.92 961.054C1264.66 970.271 1218.42 1023.02 1206.58 1048.2C1206.21 1048.99 1205.42 1049.46 1204.59 1049.46L1204.59 1049.46Z" fill="black"/>
<path d="M1268.09 948.977C1267.31 948.977 1266.56 948.566 1266.16 947.839C1265.57 946.775 1265.96 945.435 1267.02 944.845C1267.78 944.423 1285.84 934.615 1295.01 934.813C1296.23 934.85 1297.18 935.865 1297.15 937.082C1297.11 938.297 1296.15 939.26 1294.88 939.218C1294.78 939.214 1294.69 939.214 1294.6 939.214C1287.84 939.214 1273.98 946.036 1269.15 948.704C1268.81 948.889 1268.45 948.977 1268.09 948.977Z" fill="black"/>
<path d="M1250.95 913.417C1250.15 913.417 1249.38 912.978 1248.99 912.213C1248.44 911.129 1248.87 909.804 1249.95 909.252C1260.86 903.704 1276.56 898.587 1293.03 895.218C1294.23 894.973 1295.39 895.743 1295.63 896.934C1295.88 898.125 1295.11 899.289 1293.91 899.532C1277.81 902.827 1262.52 907.801 1251.95 913.179C1251.63 913.34 1251.29 913.417 1250.95 913.417Z" fill="black"/>
<path d="M955.723 722.437C955.723 722.437 1001.86 791.477 974.365 824.645C946.875 857.813 883.025 823.836 883.025 823.836C883.025 823.836 915.812 706.534 955.723 722.437Z" fill="white"/>
<path d="M939.043 841.48C911.957 841.48 883.757 826.721 881.989 825.781C881.077 825.295 880.623 824.239 880.903 823.243C881.881 819.744 905.23 737.35 937.361 721.449C943.823 718.255 950.277 717.892 956.537 720.393C956.952 720.556 957.305 720.845 957.552 721.215C959.475 724.09 1004.27 792.011 976.06 826.05C966.477 837.614 952.905 841.48 939.043 841.48ZM885.649 822.693C895.557 827.547 948.991 851.807 972.671 823.241C997.499 793.282 958.576 730.931 954.269 724.243C949.361 722.469 944.46 722.852 939.316 725.398C911.383 739.22 889.23 810.596 885.649 822.693Z" fill="black"/>
<path d="M738.638 1091.13C755.531 1102.33 775.642 1108.33 795.834 1109.18C819.553 1110.18 843.281 1104.13 864.387 1093.48C881.289 1084.95 896.876 1072.92 907.483 1057.07C912.56 1049.48 916.331 1040.95 918.111 1031.98C920.315 1020.86 919.239 1009.48 916.766 998.502C914.187 987.051 909.984 976.083 906.929 964.767C904.202 954.671 902.306 943.685 904.962 933.366C909.969 913.919 930.319 904.458 939.054 887.145C948.189 869.042 943.717 847.639 937.101 829.507C933.416 819.412 928.113 809.757 925.715 799.232C923.524 789.616 925.225 780.172 931.723 772.652C937.018 766.525 944.112 762.224 950.902 757.965C957.805 753.635 964.832 749.285 970.582 743.439C984.465 729.326 985.785 707.469 979.723 689.457C976.628 680.264 971.173 671.852 962.126 667.682C954.062 663.967 944.854 664.144 936.291 665.744C926.647 667.546 917.563 671.206 908.502 674.85C900.189 678.194 891.91 681.613 883.634 685.04C881.599 684.725 879.557 684.44 877.503 684.227C866.526 683.086 855.332 683.491 844.711 686.68C834.363 689.788 825.196 695.726 817.591 703.341C802.619 718.33 792.361 738.46 785.549 758.337C782.056 768.533 779.524 779.047 777.952 789.71C776.388 800.317 776.061 811.007 775.729 821.707C775.394 832.518 775.007 843.42 772.766 854.035C770.595 864.307 766.487 873.756 760.295 882.241C754.138 890.678 746.533 897.943 739.135 905.266C731.834 912.493 724.796 919.9 718.728 928.213C706.758 944.613 698.258 963.755 694.877 983.818C688.03 1024.45 703.729 1067.98 738.636 1091.13L738.638 1091.13Z" fill="black"/>
<path d="M2110.58 1730.67C2152.11 1775.67 2188.77 1820.71 2188.77 1820.71C2188.77 1820.71 2291.52 1602.18 2311.3 1579.82C2354.92 1530.48 2378.23 1531.89 2579.62 1537.98C2781.01 1544.07 2893.47 1528.57 2947.62 1673.82C3001.78 1819.07 3078.64 1980.6 2974.94 2046.86C2974.94 2046.86 2936.63 2068.95 2895.42 2067.78H2434.82L2400.06 1919.04C2400.06 1919.04 2323.96 2028.45 2220.13 2032.8C2132.1 2036.49 2043.56 1906.26 1997.76 1821.16C2064.91 1797.46 2096.19 1758.76 2110.58 1730.67L2110.58 1730.67Z" fill="#29815B"/>
<path d="M1798.82 1663.38C1798.82 1663.38 1789.53 1653.5 1792.47 1644.45C1795.4 1635.39 1804.19 1634.08 1818.31 1640.74C1818.31 1640.74 1810.31 1628.23 1824.74 1624.99C1839.17 1621.74 1858.45 1641.28 1889.51 1647.72C1920.57 1654.16 1931.49 1656.24 1931.49 1656.24C1931.49 1656.24 1924.99 1643.38 1906.95 1632.2C1888.91 1621.03 1891.35 1605.56 1899.85 1599.81C1907.09 1594.9 1920.2 1600.31 1931.49 1609.06C1946.31 1620.55 1983.33 1630 2013.28 1643.52C2036.06 1653.81 2075.1 1692.22 2110.58 1730.67C2096.19 1758.76 2064.91 1797.46 1997.76 1821.16C1989.54 1805.89 1982.7 1792.07 1977.48 1780.75C1977.48 1780.75 1963.26 1768.24 1927.89 1763.32C1892.52 1758.4 1845.94 1754.8 1818.96 1733.03C1791.97 1711.26 1789.28 1694.43 1797.6 1684.29C1797.6 1684.29 1787.89 1673.66 1798.82 1663.38V1663.38Z" fill="white"/>
<path d="M1997.76 1823.36C1996.97 1823.36 1996.22 1822.94 1995.82 1822.2C1988.33 1808.3 1981.38 1794.45 1975.69 1782.13C1973.38 1780.32 1958.87 1769.86 1927.58 1765.5C1923.41 1764.92 1919.07 1764.36 1914.63 1763.78C1880.52 1759.35 1841.85 1754.33 1817.57 1734.75C1801.31 1721.62 1792.49 1709.35 1791.35 1698.25C1790.83 1693.16 1792.02 1688.39 1794.81 1684.34C1791.53 1679.77 1788.75 1671.25 1795.85 1663.27C1793.18 1659.89 1787.79 1651.73 1790.37 1643.77C1791.68 1639.73 1794.05 1636.94 1797.41 1635.48C1801.61 1633.66 1807.28 1634.06 1814.29 1636.65C1813.79 1634.54 1813.65 1632.04 1814.63 1629.66C1816.03 1626.26 1819.27 1623.96 1824.25 1622.84C1832.47 1620.99 1841.51 1625.54 1852.93 1631.29C1863.38 1636.55 1875.23 1642.51 1889.96 1645.57C1909.31 1649.58 1920.9 1651.91 1926.84 1653.09C1923.52 1648.53 1916.9 1640.95 1905.8 1634.07C1893.29 1626.33 1891.27 1617.39 1891.17 1612.75C1891.05 1606.74 1893.83 1601.22 1898.61 1597.99C1907.34 1592.08 1922.01 1598.93 1932.83 1607.32C1941.51 1614.04 1958.71 1620.29 1976.91 1626.91C1989.36 1631.44 2002.24 1636.13 2014.19 1641.52C2033.65 1650.31 2066.63 1679.8 2112.2 1729.17C2113.03 1730.07 2112.97 1731.46 2112.08 1732.28C2111.18 1733.11 2109.79 1733.05 2108.97 1732.16C2064.43 1683.91 2031.03 1653.95 2012.38 1645.53C2000.58 1640.21 1987.78 1635.55 1975.41 1631.05C1956.87 1624.31 1939.36 1617.95 1930.14 1610.8C1918.07 1601.45 1906.66 1597.85 1901.08 1601.63C1897.54 1604.03 1895.48 1608.15 1895.58 1612.66C1895.71 1619.12 1900.16 1625.4 1908.11 1630.33C1926.47 1641.7 1933.18 1654.7 1933.45 1655.25C1933.83 1656 1933.75 1656.9 1933.24 1657.57C1932.74 1658.24 1931.9 1658.56 1931.07 1658.4C1930.96 1658.38 1919.78 1656.25 1889.06 1649.88C1873.76 1646.71 1861.12 1640.34 1850.95 1635.22C1840.31 1629.86 1831.9 1625.64 1825.22 1627.14C1821.73 1627.92 1819.53 1629.33 1818.71 1631.32C1817.49 1634.26 1819.35 1638.27 1820.17 1639.56C1820.69 1640.39 1820.61 1641.47 1819.96 1642.2C1819.31 1642.94 1818.26 1643.16 1817.37 1642.74C1809.35 1638.95 1803.06 1637.84 1799.16 1639.52C1796.98 1640.47 1795.48 1642.3 1794.56 1645.12C1792.07 1652.82 1800.34 1661.78 1800.43 1661.87C1801.26 1662.76 1801.22 1664.15 1800.33 1664.98C1791.09 1673.68 1798.89 1682.44 1799.23 1682.81C1799.96 1683.62 1800 1684.85 1799.3 1685.69C1796.46 1689.15 1795.26 1693.22 1795.73 1697.8C1796.73 1707.54 1805.24 1719.13 1820.34 1731.32C1843.65 1750.12 1881.66 1755.06 1915.2 1759.42C1919.65 1759.99 1924 1760.56 1928.19 1761.14C1963.81 1766.1 1978.33 1778.56 1978.93 1779.09C1979.17 1779.3 1979.35 1779.55 1979.48 1779.83C1985.17 1792.18 1992.16 1806.11 1999.69 1820.11C2000.27 1821.19 1999.87 1822.52 1998.8 1823.1C1998.47 1823.28 1998.11 1823.36 1997.76 1823.36L1997.76 1823.36Z" fill="black"/>
<path d="M1894.73 1716.13C1874.26 1716.13 1853.81 1710.59 1836.19 1700.14C1834.05 1698.87 1831.95 1697.53 1829.85 1696.19C1826.33 1693.94 1822.69 1691.62 1818.95 1689.73C1812.27 1686.36 1806.11 1684.93 1800.64 1685.45C1799.45 1685.55 1798.36 1684.68 1798.24 1683.47C1798.12 1682.26 1799.01 1681.19 1800.22 1681.07C1806.52 1680.45 1813.5 1682.05 1820.93 1685.8C1824.87 1687.79 1828.61 1690.17 1832.22 1692.48C1834.28 1693.79 1836.34 1695.11 1838.44 1696.35C1858.18 1708.06 1881.64 1713.35 1904.48 1711.28C1905.73 1711.19 1906.77 1712.07 1906.88 1713.28C1906.99 1714.49 1906.1 1715.56 1904.88 1715.67C1901.51 1715.97 1898.12 1716.13 1894.73 1716.13Z" fill="black"/>
<path d="M1907.48 1694.85C1907.42 1694.85 1907.35 1694.85 1907.29 1694.84C1886.61 1693.07 1866.67 1687.55 1848.02 1678.43C1845.61 1677.26 1843.23 1676.02 1840.85 1674.78C1835.76 1672.14 1830.49 1669.4 1825.1 1667.37C1816.2 1664.01 1808.16 1663.15 1801.24 1664.78C1800.05 1665.06 1798.87 1664.33 1798.59 1663.15C1798.31 1661.97 1799.04 1660.78 1800.22 1660.5C1808.02 1658.64 1816.91 1659.57 1826.65 1663.25C1832.29 1665.38 1837.67 1668.17 1842.88 1670.87C1845.23 1672.09 1847.58 1673.31 1849.95 1674.47C1868.11 1683.35 1887.52 1688.73 1907.66 1690.46C1908.88 1690.56 1909.78 1691.63 1909.67 1692.84C1909.57 1693.98 1908.61 1694.85 1907.48 1694.85L1907.48 1694.85Z" fill="black"/>
<path d="M1911 1680.17C1910.88 1680.17 1910.76 1680.16 1910.64 1680.14C1878.67 1674.93 1847.41 1662.85 1820.23 1645.2C1819.21 1644.54 1818.92 1643.18 1819.58 1642.16C1820.25 1641.14 1821.61 1640.85 1822.63 1641.51C1849.3 1658.83 1879.98 1670.68 1911.35 1675.79C1912.55 1675.98 1913.37 1677.12 1913.17 1678.32C1913 1679.4 1912.06 1680.17 1911 1680.17Z" fill="black"/>
<path d="M2854.17 2061.46C2853.9 2061.46 2853.61 2061.41 2853.34 2061.3C2786.46 2034.02 2728.72 1985.56 2690.77 1924.84C2690.12 1923.8 2690.44 1922.45 2691.47 1921.8C2692.5 1921.15 2693.85 1921.47 2694.5 1922.5C2731.97 1982.44 2788.97 2030.29 2855.01 2057.22C2856.13 2057.68 2856.67 2058.96 2856.21 2060.09C2855.86 2060.95 2855.04 2061.46 2854.17 2061.46Z" fill="black"/>
<path d="M2920.25 1903.65C2919.57 1903.65 2918.9 1903.34 2918.47 1902.75C2892.16 1866.64 2863.4 1831.71 2833.01 1798.95C2832.18 1798.06 2832.23 1796.66 2833.13 1795.83C2834.01 1795 2835.41 1795.06 2836.24 1795.95C2866.75 1828.85 2895.62 1863.9 2922.03 1900.15C2922.75 1901.14 2922.53 1902.52 2921.55 1903.23C2921.16 1903.52 2920.7 1903.65 2920.25 1903.65Z" fill="black"/>
<path d="M2243.9 1890.74C2243.26 1890.74 2242.62 1890.46 2242.18 1889.91L2189.93 1824.61C2189.17 1823.66 2189.32 1822.28 2190.27 1821.52C2191.22 1820.76 2192.61 1820.91 2193.37 1821.86L2245.62 1887.16C2246.38 1888.11 2246.22 1889.5 2245.28 1890.26C2244.87 1890.58 2244.38 1890.74 2243.9 1890.74Z" fill="black"/>
<path d="M2399.03 1917.58C2398.07 1917.58 2397.19 1916.95 2396.91 1915.99L2343.46 1732.1C2343.12 1730.93 2343.79 1729.71 2344.96 1729.37C2346.14 1729.03 2347.35 1729.7 2347.69 1730.87L2401.14 1914.76C2401.48 1915.93 2400.81 1917.15 2399.64 1917.49C2399.43 1917.55 2399.23 1917.58 2399.03 1917.58Z" fill="black"/>
<path d="M2829.17 1792.55C2829.17 1792.55 2784.13 1905.22 2688.01 1915.09L2664.75 1886.02C2652.02 1870.12 2633.11 1860.46 2612.77 1859.39C2597.06 1858.55 2578.64 1856.37 2565.89 1851.03C2539.35 1839.91 2545.18 1825.49 2604.27 1831.46C2604.27 1831.46 2550.05 1811.44 2539.03 1806.66C2528 1801.88 2516.61 1771.37 2565.75 1784.04C2565.75 1784.04 2534.48 1770.86 2529.44 1762.2C2524.41 1753.53 2529.71 1740.91 2571.9 1751.62C2571.9 1751.62 2535.87 1743.39 2534.53 1732.08C2533.19 1720.77 2549.46 1711.09 2620.72 1731.48C2673.81 1746.68 2681.16 1752.34 2678.52 1735.58C2675.64 1717.23 2620.37 1705.51 2646.16 1690.83C2662.8 1681.35 2780.51 1711.79 2829.17 1792.55L2829.17 1792.55Z" fill="white"/>
<path d="M2612.88 1800.2C2612.66 1800.2 2612.45 1800.17 2612.23 1800.1L2568.75 1786.78C2567.59 1786.42 2566.93 1785.19 2567.29 1784.03C2567.65 1782.87 2568.87 1782.2 2570.04 1782.57L2613.52 1795.89C2614.68 1796.25 2615.34 1797.48 2614.98 1798.64C2614.69 1799.59 2613.82 1800.2 2612.88 1800.2L2612.88 1800.2Z" fill="black"/>
<path d="M2629.53 1770.41C2629.36 1770.41 2629.18 1770.39 2629 1770.34C2610.81 1765.86 2592.61 1760.51 2574.89 1754.43C2573.75 1754.03 2573.13 1752.78 2573.53 1751.63C2573.92 1750.48 2575.16 1749.86 2576.33 1750.26C2593.91 1756.3 2611.99 1761.62 2630.05 1766.07C2631.24 1766.36 2631.96 1767.55 2631.67 1768.73C2631.42 1769.73 2630.52 1770.41 2629.53 1770.41Z" fill="black"/>
<path d="M2502.35 1260.23C2499.35 1269.79 2503.47 1280.51 2503.12 1290.2C2502.77 1300.03 2497.91 1310.48 2500.06 1320.06C2502.18 1329.48 2510.96 1336.53 2515.29 1345.35C2519.49 1353.89 2519.78 1365.48 2525.86 1373.13C2531.73 1380.5 2542.57 1382.99 2550.01 1389.22C2557.16 1395.21 2561.73 1405.73 2570.18 1410.4C2578.28 1414.87 2589.27 1413.03 2598.42 1416.05C2607.58 1419.07 2615.45 1427.14 2624.57 1428.35C2634.09 1429.62 2643.8 1423.81 2653.02 1423.23C2662.61 1422.62 2672.82 1427.08 2681.79 1424.6C2691.08 1422.03 2697.92 1412.79 2706.2 1408.36C2714.74 1403.79 2725.88 1403.33 2732.97 1396.94C2740.17 1390.45 2742.18 1379.06 2747.49 1370.87C2752.73 1362.79 2762.18 1356.56 2765.19 1347C2768.19 1337.44 2764.07 1326.72 2764.42 1317.03C2764.77 1307.21 2769.63 1296.75 2767.48 1287.17C2765.36 1277.75 2756.58 1270.7 2752.24 1261.89C2748.04 1253.34 2747.76 1241.75 2741.67 1234.1C2735.81 1226.73 2724.97 1224.24 2717.53 1218.01C2710.38 1212.02 2705.81 1201.5 2697.36 1196.83C2689.26 1192.36 2678.27 1194.2 2669.11 1191.18C2659.96 1188.16 2652.09 1180.09 2642.97 1178.88C2633.45 1177.61 2623.74 1183.42 2614.52 1184C2604.93 1184.61 2594.71 1180.15 2585.75 1182.63C2576.46 1185.2 2569.62 1194.44 2561.34 1198.87C2552.8 1203.44 2541.66 1203.91 2534.57 1210.29C2527.36 1216.78 2525.35 1228.17 2520.05 1236.36C2514.81 1244.44 2505.36 1250.67 2502.35 1260.23Z" fill="black"/>
<path d="M2547.86 1476.13L2556.33 1524.28C2557.67 1531.9 2554.46 1539.59 2547.86 1544.54C2560.05 1578.75 2612.81 1577.25 2666.06 1540.07L2660.49 1535.74C2651.7 1528.91 2645.91 1519.49 2644.17 1509.16L2633.23 1444.38C2633.23 1444.38 2614.5 1416.23 2547.86 1476.13V1476.13Z" fill="white"/>
<path d="M2547.86 1546.74C2547.19 1546.74 2546.53 1546.44 2546.1 1545.86C2545.37 1544.89 2545.57 1543.51 2546.54 1542.78C2552.43 1538.36 2555.35 1531.42 2554.16 1524.66L2545.69 1476.51C2545.56 1475.76 2545.82 1475 2546.39 1474.49C2585.14 1439.66 2608.21 1434.22 2620.79 1435.82C2630.92 1437.1 2634.9 1442.92 2635.06 1443.16C2635.23 1443.42 2635.35 1443.71 2635.4 1444.02L2646.34 1508.8C2647.99 1518.56 2653.49 1527.52 2661.84 1534L2667.41 1538.33C2668.37 1539.07 2668.55 1540.46 2667.8 1541.42C2667.06 1542.38 2665.68 1542.56 2664.71 1541.81L2659.14 1537.48C2649.92 1530.32 2643.83 1520.39 2642 1509.53L2631.15 1445.29C2630.27 1444.25 2626.99 1440.97 2619.98 1440.16C2608.44 1438.8 2587 1444.14 2550.24 1476.95L2558.5 1523.9C2559.98 1532.3 2556.41 1540.89 2549.18 1546.3C2548.79 1546.6 2548.32 1546.74 2547.86 1546.74L2547.86 1546.74Z" fill="black"/>
<path d="M2518.62 1411.22C2520.97 1396.14 2527.78 1368.16 2538.87 1345.25C2555.66 1368.21 2593.2 1360.54 2591.61 1358.5C2611.85 1384.44 2646.54 1375.91 2646.54 1375.91C2646.54 1375.91 2636.97 1391.23 2630.54 1401.38C2636.74 1401.6 2642.79 1397.9 2648.87 1399.11C2656.98 1400.72 2661.03 1410.42 2660.26 1418.66C2659.32 1428.67 2653.09 1438.02 2644.22 1442.73C2635.35 1447.44 2624.12 1447.36 2615.33 1442.52C2605.13 1458.71 2588.89 1471.8 2570.02 1474.81C2551.14 1477.81 2530.05 1469.05 2521.63 1451.88C2515.54 1439.48 2516.49 1424.87 2518.62 1411.22L2518.62 1411.22Z" fill="white"/>
<path d="M2562.4 1477.61C2544.26 1477.61 2527.07 1467.96 2519.65 1452.85C2513.13 1439.56 2514.37 1424.18 2516.44 1410.88C2518.52 1397.55 2525.16 1368.52 2536.89 1344.29C2537.22 1343.6 2537.9 1343.13 2538.67 1343.06C2539.44 1342.97 2540.19 1343.33 2540.65 1343.95C2554.86 1363.39 2585.01 1359.42 2589.69 1357.43C2589.83 1357.18 2590.02 1356.95 2590.26 1356.77C2591.22 1356.02 2592.6 1356.19 2593.35 1357.15C2593.35 1357.15 2593.35 1357.15 2593.35 1357.15C2612.45 1381.62 2645.68 1373.85 2646.02 1373.77C2646.89 1373.56 2647.8 1373.89 2648.32 1374.62C2648.85 1375.34 2648.88 1376.31 2648.41 1377.07C2648.41 1377.07 2640.96 1389 2634.79 1398.78C2635.92 1398.56 2637.06 1398.28 2638.23 1397.98C2641.78 1397.1 2645.46 1396.18 2649.3 1396.95C2658.64 1398.8 2663.32 1409.55 2662.45 1418.87C2661.43 1429.7 2654.85 1439.58 2645.25 1444.67C2636.27 1449.45 2625.28 1449.68 2616.1 1445.39C2604.64 1462.69 2588.06 1474.17 2570.36 1476.99C2567.71 1477.41 2565.04 1477.61 2562.4 1477.62L2562.4 1477.61ZM2539.37 1349.36C2528.79 1372.44 2522.74 1399.04 2520.8 1411.56C2518.83 1424.18 2517.63 1438.72 2523.61 1450.91C2531.27 1466.53 2550.66 1475.67 2569.67 1472.63C2586.69 1469.92 2602.65 1458.52 2613.47 1441.35C2614.08 1440.37 2615.37 1440.04 2616.39 1440.59C2624.5 1445.05 2635.02 1445.12 2643.19 1440.78C2651.36 1436.44 2657.2 1427.68 2658.06 1418.46C2658.74 1411.24 2655.25 1402.62 2648.45 1401.27C2645.56 1400.7 2642.52 1401.45 2639.3 1402.26C2636.47 1402.96 2633.53 1403.69 2630.47 1403.58C2629.68 1403.55 2628.97 1403.11 2628.6 1402.41C2628.23 1401.71 2628.27 1400.87 2628.69 1400.2C2633.02 1393.35 2638.8 1384.12 2642.09 1378.87C2631.74 1380.12 2607.49 1380.62 2591.24 1361.53C2589.81 1362.11 2587.5 1362.69 2583.74 1363.14C2569.39 1364.85 2550.71 1361.99 2539.37 1349.36L2539.37 1349.36Z" fill="black"/>
<path d="M2622.55 1431.92C2622.11 1431.92 2621.66 1431.79 2621.28 1431.51C2620.29 1430.81 2620.05 1429.43 2620.76 1428.44C2626.19 1420.82 2636.92 1417.45 2645.73 1420.6C2646.87 1421.01 2647.47 1422.27 2647.06 1423.42C2646.65 1424.56 2645.4 1425.15 2644.24 1424.75C2637.22 1422.23 2628.67 1424.92 2624.35 1430.99C2623.92 1431.6 2623.24 1431.92 2622.55 1431.92Z" fill="black"/>
<path d="M1169.9 1738.33C1186.18 1738.33 1199.38 1725.11 1199.38 1708.79C1199.38 1692.47 1186.18 1679.25 1169.9 1679.25C1153.62 1679.25 1140.42 1692.47 1140.42 1708.79C1140.42 1725.11 1153.62 1738.33 1169.9 1738.33Z" fill="#E2EAFF"/>
<path d="M1255.92 1738.33C1272.2 1738.33 1285.4 1725.11 1285.4 1708.79C1285.4 1692.47 1272.2 1679.25 1255.92 1679.25C1239.64 1679.25 1226.44 1692.47 1226.44 1708.79C1226.44 1725.11 1239.64 1738.33 1255.92 1738.33Z" fill="#E2EAFF"/>
<path d="M1341.95 1738.33C1358.23 1738.33 1371.42 1725.11 1371.42 1708.79C1371.42 1692.47 1358.23 1679.25 1341.95 1679.25C1325.67 1679.25 1312.47 1692.47 1312.47 1708.79C1312.47 1725.11 1325.67 1738.33 1341.95 1738.33Z" fill="#E2EAFF"/>
<path d="M1576.82 1710.99H1402.24C1401.02 1710.99 1400.04 1710.01 1400.04 1708.79C1400.04 1707.57 1401.02 1706.59 1402.24 1706.59H1574.62V1556.14C1574.62 1554.92 1575.61 1553.94 1576.82 1553.94C1578.04 1553.94 1579.03 1554.92 1579.03 1556.14V1708.79C1579.03 1710.01 1578.04 1710.99 1576.82 1710.99Z" fill="black"/>
<path d="M1681.32 1761.62H1449.06C1447.84 1761.62 1446.86 1760.63 1446.86 1759.42C1446.86 1758.2 1447.84 1757.22 1449.06 1757.22H1681.32C1682.54 1757.22 1683.52 1758.2 1683.52 1759.42C1683.52 1760.63 1682.54 1761.62 1681.32 1761.62Z" fill="black"/>
<path d="M1598.19 1812.3H1226.44C1225.23 1812.3 1224.24 1811.32 1224.24 1810.1C1224.24 1808.88 1225.23 1807.9 1226.44 1807.9H1598.19C1599.41 1807.9 1600.39 1808.88 1600.39 1810.1C1600.39 1811.32 1599.41 1812.3 1598.19 1812.3Z" fill="black"/>
<path d="M1383.64 2163.86H542.333C541.116 2163.86 540.131 2162.87 540.131 2161.66C540.131 2160.44 541.116 2159.45 542.333 2159.45H1383.64C1384.86 2159.45 1385.84 2160.44 1385.84 2161.66C1385.84 2162.87 1384.86 2163.86 1383.64 2163.86Z" fill="black"/>
</g>
<defs>
<clipPath id="clip0_1131_11945">
<rect width="3415" height="2500" fill="white"/>
</clipPath>
</defs>
</svg>
