<svg width="678" height="465" viewBox="0 0 678 465" fill="none" xmlns="http://www.w3.org/2000/svg">
<path d="M90.6759 464.424C39.5962 464.424 -6.24564 419.356 30.9849 384.384C45.9534 370.324 60.9577 356.441 62.1285 324.449C64.6759 254.845 51.0879 157.036 170.214 169.7C289.34 182.364 401.212 208.085 430.661 172.572C460.11 137.061 536.652 81.1039 580.362 145.057C624.072 209.011 598.501 207.187 647.523 257.13C696.544 307.073 684.314 417.658 625.883 464.424H90.6759Z" fill="#070633"/>
<path d="M96.637 463.451C96.637 463.451 70.6813 422.467 113.94 388.513C157.199 354.558 194.35 417.161 259.493 367.821C324.636 318.481 360.431 286.86 424.725 307.181C489.02 327.502 481.385 373.658 515.993 386.391C550.6 399.124 592.331 412.122 586.224 463.451H96.637Z" fill="#60C8B1"/>
<path d="M594.551 354.754H139.731C124.739 354.754 112.587 342.086 112.587 326.458V28.296C112.587 12.6695 124.739 0 139.731 0H594.551C609.541 0 621.694 12.6681 621.694 28.296V326.46C621.694 342.086 609.542 354.754 594.551 354.754Z" fill="#D3EADD"/>
<path d="M594.551 0H139.731C124.741 0 112.587 12.6681 112.587 28.296V34.6625H621.694V28.296C621.694 12.6681 609.542 0 594.551 0Z" fill="#60C8B1"/>
<path d="M550.944 17.3312C550.944 14.4984 548.742 12.2028 546.025 12.2028C543.307 12.2028 541.105 14.4984 541.105 17.3312C541.105 20.164 543.307 22.4597 546.025 22.4597C548.742 22.4597 550.944 20.164 550.944 17.3312Z" fill="#FFE582"/>
<path d="M574.525 17.3312C574.525 14.4984 572.323 12.2028 569.605 12.2028C566.888 12.2028 564.686 14.4984 564.686 17.3312C564.686 20.164 566.888 22.4597 569.605 22.4597C572.323 22.4597 574.525 20.164 574.525 17.3312Z" fill="#F27F97"/>
<path d="M598.104 17.3312C598.104 14.4984 595.902 12.2028 593.185 12.2028C590.467 12.2028 588.265 14.4984 588.265 17.3312C588.265 20.164 590.467 22.4597 593.185 22.4597C595.902 22.4597 598.104 20.164 598.104 17.3312Z" fill="#F9F9F9"/>
<path d="M423.373 50.7557H128.025V224.596H423.373V50.7557Z" fill="#F9F9F9"/>
<path d="M275.699 164.418C289.867 164.418 301.352 152.445 301.352 137.676C301.352 122.906 289.867 110.934 275.699 110.934C261.531 110.934 250.046 122.906 250.046 137.676C250.046 152.445 261.531 164.418 275.699 164.418Z" fill="#423F63"/>
<path d="M284.827 137.676L271.135 129.434V145.916L284.827 137.676Z" fill="#F9F9F9"/>
<path d="M408.275 210.727H143.123C142.413 210.727 141.836 210.128 141.836 209.386C141.836 208.645 142.413 208.045 143.123 208.045H408.273C408.985 208.045 409.56 208.645 409.56 209.386C409.56 210.128 408.985 210.727 408.275 210.727Z" fill="#F27F97"/>
<path d="M176.882 209.386C176.882 206.75 174.831 204.612 172.302 204.612C169.773 204.612 167.722 206.75 167.722 209.386C167.722 212.023 169.773 214.161 172.302 214.161C174.831 214.161 176.882 212.023 176.882 209.386Z" fill="#F27F97"/>
<path d="M423.373 237.505H128.025V337.987H423.373V237.505Z" fill="#F9F9F9"/>
<path d="M208.976 253.598H143.462V321.894H208.976V253.598Z" fill="#60C8B1"/>
<path d="M398.096 253.598H222.718V260.451H398.096V253.598Z" fill="#423F63"/>
<path d="M398.096 270.337H222.718V277.19H398.096V270.337Z" fill="#423F63"/>
<path d="M398.096 315.041H313.105V321.894H398.096V315.041Z" fill="#60C8B1"/>
<path d="M278.243 287.078H222.718V293.931H278.243V287.078Z" fill="#423F63"/>
<path d="M606.257 50.7557H435.757V337.987H606.257V50.7557Z" fill="#F9F9F9"/>
<path d="M590.821 200.589H451.196V207.972H590.821V200.589Z" fill="#423F63"/>
<path d="M590.821 218.862H451.196V226.245H590.821V218.862Z" fill="#423F63"/>
<path d="M590.821 237.135H451.196V244.519H590.821V237.135Z" fill="#423F63"/>
<path d="M531.181 255.409H451.196V262.792H531.181V255.409Z" fill="#60C8B1"/>
<path d="M590.821 279.576H451.196V286.959H590.821V279.576Z" fill="#423F63"/>
<path d="M481.56 298.008H451.194V305.392H481.56V298.008Z" fill="#423F63"/>
<path d="M590.819 316.122H533.726V323.505H590.819V316.122Z" fill="#60C8B1"/>
<path d="M339.14 310.143C325.526 310.806 293.337 318.765 287.23 293.431C281.123 268.098 297.536 268.717 309.623 255.94C321.71 243.163 326.29 225.257 346.647 225.921C367.004 226.584 370.694 253.334 368.786 268.873L368.023 275.924C368.023 275.924 382.718 284.545 380.174 296.88C377.629 309.216 364.862 313.676 355.055 311.844L339.14 310.143Z" fill="#423F63"/>
<path d="M338.547 418.886C338.547 418.886 218.439 381.748 207.922 422.422C197.404 463.097 243.207 463.45 264.923 463.45C286.637 463.45 344.995 463.45 344.995 463.45L338.547 418.886Z" fill="#F05757"/>
<path d="M338.546 418.886C365.774 410.132 411.916 388.247 437.109 397.266C462.301 406.285 455.685 438.383 440.418 448.198C425.149 458.014 400.976 463.451 367.64 463.451H327.18L338.546 418.886Z" fill="#F05757"/>
<path d="M392.323 323.125C383.652 313.06 373.11 307.342 361.765 304.437L335.45 310.392L316.514 303.989C312.969 304.553 309.472 305.196 306.06 305.882C277.051 311.719 247.024 348.326 245.497 377.506C243.969 406.686 288.247 413.848 328.452 415.452C328.452 415.452 328.198 414.113 382.398 409.338C436.6 404.562 414.716 349.121 392.323 323.125Z" fill="#C8E6DC"/>
<path d="M316.514 303.988C319.719 308.86 326.678 316.609 338.886 317.421C350.503 318.194 357.954 310.182 361.765 304.437C347.257 300.72 331.435 301.617 316.514 303.988Z" fill="#F2A887"/>
<path d="M330.857 312.398L332.269 281.893C332.269 281.893 321.836 283.263 320.648 274.775C319.461 266.286 325.711 264.872 330.855 266.462C336.001 268.054 348.555 257.354 354.746 244.621C354.746 244.621 370.268 250.81 369.844 269.734C369.42 288.655 350.42 285.827 350.42 285.827L350.479 312.049L330.857 312.398Z" fill="#F2A887"/>
<path opacity="0.45" d="M350.423 285.827C342.895 284.876 340.987 283.085 340.987 283.085C340.987 283.085 340.723 293.286 350.446 296.344L350.423 285.827Z" fill="url(#paint0_linear_726_8085)"/>
<path d="M324.679 271.414C324.679 271.414 327.69 272.609 331.211 271.149" stroke="#423F63" stroke-width="0.237378" stroke-miterlimit="10" stroke-linecap="round" stroke-linejoin="round"/>
<path d="M328.877 276.543C328.877 276.543 327.268 274.588 327.606 271.874" stroke="#423F63" stroke-width="0.237378" stroke-miterlimit="10" stroke-linecap="round" stroke-linejoin="round"/>
<path d="M355.054 277.389C355.054 273.481 352.016 270.314 348.267 270.314C344.519 270.314 341.481 273.481 341.481 277.389C341.481 281.296 344.519 284.463 348.267 284.463C352.016 284.462 355.054 281.295 355.054 277.389Z" fill="#EF8C89"/>
<path d="M364.885 271.511C364.885 274.096 366.228 276.332 368.212 277.568C369.163 275.493 369.773 272.93 369.845 269.735C369.884 267.988 369.786 266.351 369.579 264.816C366.863 265.74 364.885 268.371 364.885 271.511Z" fill="#EF8C89"/>
<path d="M356.53 257.576L361.195 259.787L358.014 263.412" stroke="#423F63" stroke-width="0.237378" stroke-miterlimit="10" stroke-linecap="round" stroke-linejoin="round"/>
<path d="M344.484 263.942C344.484 263.942 345.545 258.504 349.912 261.025" stroke="#423F63" stroke-width="0.237378" stroke-miterlimit="10" stroke-linecap="round" stroke-linejoin="round"/>
<path d="M359.37 255.94C359.37 255.94 360.469 251.718 363.654 253.907" stroke="#423F63" stroke-width="0.237378" stroke-miterlimit="10" stroke-linecap="round" stroke-linejoin="round"/>
<path d="M390.57 373.79H272.98V456.024H390.57V373.79Z" fill="#008EA7"/>
<path d="M390.57 456.024H272.98V463.451H390.57V456.024Z" fill="#C8E6DC"/>
<path d="M242.247 16.0748H133.846V81.862H242.247V16.0748Z" fill="#60C8B1"/>
<path d="M231.382 29.4706H155.221V34.0731H231.382V29.4706Z" fill="#423F63"/>
<path d="M231.382 45.9768H145.552V50.5793H231.382V45.9768Z" fill="#423F63"/>
<path d="M231.382 62.4833H145.552V67.0858H231.382V62.4833Z" fill="#D3EADD"/>
<path d="M145.552 35.0785C145.199 35.0785 144.856 34.874 144.687 34.5229C144.449 34.0265 144.643 33.4216 145.119 33.1734L147.808 31.7718L145.119 30.3702C144.643 30.122 144.449 29.5171 144.687 29.0208C144.925 28.523 145.507 28.3242 145.982 28.571L150.397 30.8722C150.724 31.0428 150.93 31.3911 150.93 31.7718C150.93 32.1526 150.723 32.5009 150.397 32.6715L145.982 34.9727C145.844 35.0446 145.698 35.0785 145.552 35.0785Z" fill="#423F63"/>
<path d="M186.435 97.0697C186.435 97.0697 180.328 92.1626 179.182 88.0071L175.873 81.862H179.605C179.605 81.862 178.078 69.8806 179.351 69.6592C180.624 69.4378 183.125 81.4192 183.125 81.4192C183.125 81.4192 181.471 67.4933 183.379 67.0943C185.288 66.6966 186.772 80.9765 186.772 80.9765C186.772 80.9765 186.347 68.4197 188.383 68.3323C190.418 68.2435 190.503 81.0653 190.503 81.0653C190.503 81.0653 192.37 73.8147 193.854 73.5933C195.338 73.3719 193.854 81.6406 193.854 81.6406C193.854 81.6406 197.459 89.4665 195.254 96.6283C195.254 96.6283 212.134 157.552 197.375 178.596C191.418 187.09 179.325 187.112 167.02 184.119L163.955 165.333L171.323 148.117C179.709 152.448 185.161 155.871 185.161 155.871L186.435 97.0697Z" fill="#D37A57"/>
<path d="M167.022 184.119C148.841 179.697 130.199 168.693 130.199 168.693L115.524 130.524C134.461 130.839 157.114 140.78 171.324 148.117L167.022 184.119Z" fill="#F05757"/>
<path d="M94.4149 318.363L136.693 271.263L178.83 322.927C177.758 377.589 170.84 428.199 168.07 446.518L163.49 451.78L156.324 447.007C157.348 413.299 149.857 341.826 138.34 285.766C138.34 285.766 127.78 367.23 82.4887 441.355L73.0284 441.436L70.3393 431.913C76.8455 410.578 87.7951 369.745 94.4149 318.363Z" fill="#D37A57"/>
<path opacity="0.45" d="M94.4149 318.363L136.693 271.263L178.83 322.927C178.688 330.185 178.439 337.368 178.115 344.417C168.437 346.201 158.411 347.068 148.665 347.317C145.83 326.423 142.327 305.17 138.34 285.765C138.34 285.765 135.029 311.287 124.176 346.756C109.997 345.785 98.0251 343.889 90.9143 342.331C92.1695 334.639 93.349 326.64 94.4149 318.363Z" fill="url(#paint1_linear_726_8085)"/>
<path d="M166.925 453.77L182.448 463.453H155.603C155.603 463.453 156.012 457.283 156.325 447.007L168.071 446.518C167.364 451.191 166.925 453.77 166.925 453.77Z" fill="#423F63"/>
<path d="M70.3394 431.912L82.4888 441.354C81.3079 443.287 80.1095 445.216 78.8813 447.138L86.7699 463.453L65.0127 448.2C65.0127 448.2 67.1391 442.409 70.3394 431.912Z" fill="#423F63"/>
<path d="M100.001 233.596L136.529 230.236L173.057 230.408C178.146 259.048 179.444 291.65 178.83 322.927C134.1 334.663 94.4188 318.378 94.4188 318.378C94.4188 318.378 94.4161 318.366 94.4148 318.363C97.7585 292.413 100.001 263.784 100.001 233.596Z" fill="#423F63"/>
<path d="M100.001 233.734C100.001 233.688 100.001 233.643 100.001 233.596C100.001 114.225 114.591 131.378 114.591 131.378C130.198 129.256 155.983 137.302 172.779 228.82C172.875 229.345 172.964 229.879 173.057 230.408C160.286 234.301 129.042 241.877 100.001 233.734Z" fill="#F05757"/>
<path opacity="0.45" d="M120.007 237.079C113.387 236.628 106.637 235.596 100.001 233.734C100.001 233.688 100.001 233.643 100.001 233.596C100.001 225.678 100.067 218.378 100.186 211.619L149.855 169.298C148.187 199.324 134.313 216.909 120.007 237.079Z" fill="url(#paint2_linear_726_8085)"/>
<path opacity="0.45" d="M108.668 143.979V137.347C108.668 137.347 121.263 157.773 124.318 180.32C127.372 202.869 106.25 192.258 106.25 192.258L108.668 143.979Z" fill="url(#paint3_linear_726_8085)"/>
<path d="M152.292 117.667L156.316 118.318L152.854 141.552L148.83 140.901L152.292 117.667Z" fill="#423F63"/>
<path d="M153.748 113.835L156.095 114.215L155.237 119.972L152.89 119.592L153.748 113.835Z" fill="#423F63"/>
<path d="M144.029 100.031C145.116 92.7436 151.662 87.7547 158.651 88.887C165.642 90.0193 170.427 96.8441 169.341 104.13C168.255 111.417 161.708 116.406 154.719 115.274C147.73 114.141 142.943 107.318 144.029 100.031ZM154.982 113.513C161.029 114.493 166.713 110.159 167.653 103.856C168.593 97.5519 164.437 91.6268 158.39 90.6468C152.343 89.6668 146.659 93.9999 145.719 100.303C144.779 106.609 148.935 112.534 154.982 113.513Z" fill="#423F63"/>
<path d="M152.972 141.883C151.531 137.653 147.206 131.906 147.969 129.164C148.731 126.423 152.209 125.7 153.907 127.477C155.603 129.253 152.972 141.883 152.972 141.883Z" fill="#D37A57"/>
<path d="M78.0318 186.712L89.4846 184.119L108.637 183.003L107.637 190.621L151.107 138.407C151.107 138.407 150.896 133.588 150.896 129.344C150.896 125.099 157.257 122.182 161.074 126.506C164.891 130.831 159.378 146.056 159.378 146.056C159.378 146.056 136.308 211.665 111.879 219.624C90.6195 226.55 78.746 213.515 78.0318 186.712Z" fill="#D37A57"/>
<path d="M115.524 130.524L108.636 183.004C102.863 184.376 90.5571 186.872 78.0316 186.714C77.9248 182.715 78.0614 178.416 78.4577 173.823C81.5106 138.453 103.818 130.206 115.524 130.524Z" fill="#F05757"/>
<path d="M122.846 91.5295C122.846 91.5295 133.094 73.0053 114.356 60.5374C95.6183 48.0695 71.0395 62.7865 68.0083 87.405C64.9553 112.208 88.1112 126.764 107.577 114.143L122.202 91.5295" fill="#F05757"/>
<path d="M102.87 100.925C106.242 103.047 107.005 105.5 108.659 104.44C110.314 103.38 103.952 93.2991 106.242 91.7734C108.532 90.2477 110.949 95.6863 113.622 93.034C116.294 90.3816 113.304 87.4628 115.785 86.4024C118.266 85.3406 122.655 84.6779 122.655 84.6779C122.655 84.6779 133.787 94.9785 132.091 106.208C131.285 111.548 125.703 113.104 121.848 114.9L123.966 135.063C121.731 136.256 116.869 138.017 110.487 135.672L109.233 115.051C109.233 115.051 100.391 119.096 97.718 111.005C95.0452 102.914 99.4981 98.8026 102.87 100.925Z" fill="#D37A57"/>
<path opacity="0.45" d="M114.322 116.421C114.322 116.421 118.181 116.068 121.848 114.9L122.429 120.444C118.439 119.065 114.322 116.421 114.322 116.421Z" fill="url(#paint4_linear_726_8085)"/>
<path d="M121.785 93.6079L126.196 95.9063C126.196 95.9063 125.984 97.4532 123.609 99.0452" stroke="#423F63" stroke-width="0.237378" stroke-miterlimit="10" stroke-linecap="round" stroke-linejoin="round"/>
<path d="M115.381 98.4938C115.381 99.0677 115.591 99.533 115.848 99.533C116.105 99.533 116.314 99.0677 116.314 98.4938C116.314 97.9199 116.106 97.4545 115.848 97.4545C115.591 97.4545 115.381 97.9199 115.381 98.4938Z" fill="#423F63"/>
<path d="M125.984 92.5687C125.984 93.1426 126.193 93.608 126.451 93.608C126.708 93.608 126.918 93.1426 126.918 92.5687C126.918 91.9948 126.709 91.5295 126.451 91.5295C126.193 91.5295 125.984 91.9948 125.984 92.5687Z" fill="#423F63"/>
<path d="M115.356 108.419C115.356 105.835 117.366 103.739 119.846 103.739C122.325 103.739 124.335 105.835 124.335 108.419C124.335 111.004 122.325 113.099 119.846 113.099C117.368 113.101 115.356 111.005 115.356 108.419Z" fill="#EA9081"/>
<path d="M131.319 98.0679C132.133 100.624 132.517 103.387 132.091 106.208C132.067 106.366 132.026 106.511 131.994 106.662C130.46 105.775 129.409 104.09 129.409 102.132C129.409 100.476 130.164 99.0197 131.319 98.0679Z" fill="#EA9081"/>
<path d="M104.08 105.103C104.08 105.103 101.386 105.014 99.8594 107.269" stroke="#423F63" stroke-width="0.237378" stroke-miterlimit="10" stroke-linecap="round" stroke-linejoin="round"/>
<path d="M104.525 109.701C104.525 109.701 102.538 108.964 101.771 105.64" stroke="#423F63" stroke-width="0.237378" stroke-miterlimit="10" stroke-linecap="round" stroke-linejoin="round"/>
<path d="M171.76 237.079C171.76 237.079 135.6 249.873 102.716 241.731" stroke="#F9F9F9" stroke-width="0.458781" stroke-miterlimit="10" stroke-linecap="round" stroke-linejoin="round"/>
<path d="M110.011 238.725C110.011 238.725 106.958 286.296 102.716 317.775" stroke="#F9F9F9" stroke-width="0.458781" stroke-miterlimit="10" stroke-linecap="round" stroke-linejoin="round"/>
<path d="M571.153 116.574C556.421 126.956 534.156 153.882 487.588 172.318L488.861 183.459C488.861 183.459 536.277 180.939 572.41 160.668L571.153 116.574Z" fill="#C8E6DC"/>
<path opacity="0.45" d="M539.228 174.288C550.275 171.014 561.825 166.607 572.411 160.668L571.154 116.574C563.018 122.309 552.572 133.091 537.014 144.701C537.111 151.802 537.641 161.703 539.228 174.288Z" fill="url(#paint5_linear_726_8085)"/>
<path d="M552.92 190.66V72.4889L413.296 72.4889V190.66L552.92 190.66Z" fill="#D3EADD"/>
<path d="M473.348 154.546C473.348 154.546 501.867 112.102 552.919 123.067V190.661H473.348V154.546Z" fill="#60C8B1"/>
<path d="M413.296 160.67C413.296 160.67 470.653 106.444 552.92 164.096V190.662H413.296V160.67Z" fill="#1F6B7D"/>
<path d="M451.294 127.516C458.978 127.516 465.207 121.022 465.207 113.012C465.207 105.001 458.978 98.5078 451.294 98.5078C443.61 98.5078 437.381 105.001 437.381 113.012C437.381 121.022 443.61 127.516 451.294 127.516Z" fill="#F27F97"/>
<path d="M542.44 91.655C542.44 91.655 533.28 89.599 532.135 82.9675C530.99 76.3359 537.606 74.7439 538.115 69.4392C538.623 64.1331 538.511 51.135 555.934 53.9213C573.358 56.7062 575.714 75.0922 589.516 73.8161C613.903 71.5614 629.898 83.1494 632.569 103.443C635.241 123.736 619.925 136.818 603.893 135.359C587.862 133.899 572.307 117.036 572.307 117.036L542.44 91.655Z" fill="#F05757"/>
<path d="M569.201 124.614L561.991 110.113C561.991 110.113 546.468 118.955 541.634 103.923L538.706 103.404C538.706 103.404 540.38 98.8816 540.964 95.3451C541.549 91.8087 540.277 84.9106 540.277 84.9106C540.277 84.9106 545.622 83.1649 547.147 80.5111C548.674 77.8588 555.417 79.2505 555.608 82.8321C555.799 86.4137 560.125 86.5463 560.125 86.5463C560.125 86.5463 562.415 93.1116 565.022 91.7847C567.63 90.4578 563.813 87.0102 566.232 82.9647C568.649 78.9192 577.046 80.3786 577.874 86.9439C578.7 93.5092 574.247 97.8198 569.922 96.7595L580.736 118.246L569.201 124.614Z" fill="#F2A887"/>
<path opacity="0.45" d="M561.992 110.113L564.77 115.701C567.984 111.788 568.46 104.255 568.46 104.255C568.46 104.255 566.105 108.299 561.992 110.113Z" fill="url(#paint6_linear_726_8085)"/>
<path d="M545.239 91.6549C545.239 91.6549 547.72 88.0733 550.901 90.9922" stroke="#423F63" stroke-width="0.237378" stroke-miterlimit="10" stroke-linecap="round" stroke-linejoin="round"/>
<path d="M556.419 102.885C556.419 100.041 554.207 97.7339 551.477 97.7339C548.749 97.7339 546.536 100.039 546.536 102.885C546.536 105.729 548.748 108.036 551.477 108.036C554.207 108.034 556.419 105.729 556.419 102.885Z" fill="#EF8C89"/>
<path d="M569.032 87.4317C569.032 87.4317 571.195 84.6905 574.079 85.6183" stroke="#423F63" stroke-width="0.237378" stroke-miterlimit="10" stroke-linecap="round" stroke-linejoin="round"/>
<path d="M572.17 90.4832C572.17 90.4832 572.805 88.1946 571.342 85.7354" stroke="#423F63" stroke-width="0.237378" stroke-miterlimit="10" stroke-linecap="round" stroke-linejoin="round"/>
<path d="M643.207 435.175C639.241 429.026 633.879 419.955 628.347 408.352L617.239 407.877L611.892 419.123C617.986 428.161 624.804 437.265 632.464 446.341L642.049 442.495L643.207 435.175Z" fill="#F2A887"/>
<path d="M628.347 408.352C613.81 377.865 598.121 329.903 603.626 271.485L562.149 260.918C562.149 260.918 556.727 337.289 611.893 419.123L628.347 408.352Z" fill="#423F63"/>
<path opacity="0.45" d="M603.624 271.485L562.147 260.918C562.147 260.918 558.502 312.397 587.721 376.112C592.989 372.27 601.372 365.525 609.805 356.144C603.891 331.74 600.64 303.154 603.624 271.485Z" fill="url(#paint7_linear_726_8085)"/>
<path d="M643.207 435.175L632.464 446.342L627.799 463.451L649.683 444.484C649.683 444.484 647.125 441.251 643.207 435.175Z" fill="#423F63"/>
<path d="M559.222 413.846L549.544 416.654C549.365 428.514 549.281 440.535 549.319 452.57L555.786 455.625L562.987 452.963C562.987 452.963 562.625 438.885 565.058 418.349L559.222 413.846Z" fill="#F2A887"/>
<path d="M626.335 228.194H588.357L558.33 238.636C558.33 238.636 550.955 322.559 549.542 416.655L565.058 418.35C568.472 389.541 577.395 348.015 600.572 314.769C619.342 287.84 625.668 256.802 626.335 228.194Z" fill="#423F63"/>
<path d="M535.428 463.451H564.183L562.987 452.965L549.319 452.571L535.428 463.451Z" fill="#423F63"/>
<path d="M561.511 244.117C561.511 244.117 595.992 243.557 620.42 236.395" stroke="#F9F9F9" stroke-width="0.458781" stroke-miterlimit="10" stroke-linecap="round" stroke-linejoin="round"/>
<path d="M568.127 240.256C568.127 240.256 563.293 262.775 579.323 260.918" stroke="#F9F9F9" stroke-width="0.458781" stroke-miterlimit="10" stroke-linecap="round" stroke-linejoin="round"/>
<path d="M566.813 118.999C545.862 138.231 558.33 238.636 558.33 238.636C558.33 238.636 594.143 236.449 626.335 228.194C627.079 196.304 620.791 167.434 616.856 150.654C609.392 118.823 583.423 103.752 566.813 118.999Z" fill="#C8E6DC"/>
<path opacity="0.45" d="M590.43 137.253C590.44 125.542 550.901 148.532 555.832 152.439C553.815 172.114 554.728 195.862 555.983 213.45C572.108 208.617 590.384 185.054 590.43 137.253Z" fill="url(#paint8_linear_726_8085)"/>
<path d="M474.987 190.661H468.922C468.922 190.661 464.13 178.236 462.263 178.856C460.396 179.475 461.691 187.412 461.691 187.412C461.691 187.412 455.308 176.069 453.483 176.998C451.66 177.928 453.992 184.957 453.992 184.957C453.992 184.957 449.114 180.934 447.884 181.597C446.655 182.259 449.708 188.007 449.708 188.007C449.708 188.007 446.654 186.593 446.018 188.493C445.382 190.394 454.373 203.68 468.941 203.415C468.941 203.415 475.076 205.839 486.16 206.967L491.35 201.475L485.163 191.587C481.851 192.521 478.382 193.412 474.73 194.251C474.733 194.252 475.158 192.915 474.987 190.661Z" fill="#F2A887"/>
<path d="M540.639 200.564C584.66 186.769 591.447 149.986 590.429 137.253C589.411 124.52 575.84 105.155 562.438 124.785C551.606 140.651 547.57 174.002 485.164 191.587L486.161 206.967C498.623 208.236 517.34 207.865 540.639 200.564Z" fill="#C8E6DC"/>
<defs>
<linearGradient id="paint0_linear_726_8085" x1="352.478" y1="284.479" x2="343.312" y2="291.011" gradientUnits="userSpaceOnUse">
<stop/>
<stop offset="0.8665" stop-opacity="0"/>
</linearGradient>
<linearGradient id="paint1_linear_726_8085" x1="136.247" y1="296.32" x2="134.028" y2="352.464" gradientUnits="userSpaceOnUse">
<stop/>
<stop offset="0.8665" stop-opacity="0"/>
</linearGradient>
<linearGradient id="paint2_linear_726_8085" x1="112.726" y1="195.788" x2="142.13" y2="208.489" gradientUnits="userSpaceOnUse">
<stop/>
<stop offset="0.8665" stop-opacity="0"/>
</linearGradient>
<linearGradient id="paint3_linear_726_8085" x1="100.077" y1="172.477" x2="121.752" y2="162.947" gradientUnits="userSpaceOnUse">
<stop/>
<stop offset="0.8665" stop-opacity="0"/>
</linearGradient>
<linearGradient id="paint4_linear_726_8085" x1="120.623" y1="113.439" x2="117.855" y2="119.098" gradientUnits="userSpaceOnUse">
<stop/>
<stop offset="0.8665" stop-opacity="0"/>
</linearGradient>
<linearGradient id="paint5_linear_726_8085" x1="564.013" y1="143.263" x2="532.581" y2="150.372" gradientUnits="userSpaceOnUse">
<stop/>
<stop offset="0.8665" stop-opacity="0"/>
</linearGradient>
<linearGradient id="paint6_linear_726_8085" x1="561.883" y1="108.557" x2="567.515" y2="110.113" gradientUnits="userSpaceOnUse">
<stop/>
<stop offset="0.8665" stop-opacity="0"/>
</linearGradient>
<linearGradient id="paint7_linear_726_8085" x1="580.78" y1="285.196" x2="614.315" y2="367.366" gradientUnits="userSpaceOnUse">
<stop/>
<stop offset="0.8665" stop-opacity="0"/>
</linearGradient>
<linearGradient id="paint8_linear_726_8085" x1="564.467" y1="169.128" x2="581.779" y2="178.76" gradientUnits="userSpaceOnUse">
<stop/>
<stop offset="0.8665" stop-opacity="0"/>
</linearGradient>
</defs>
</svg>
