<svg width="3415" height="2500" viewBox="0 0 3415 2500" fill="none" xmlns="http://www.w3.org/2000/svg">
<path d="M2314.27 1613.43H708.888C688.811 1613.43 672.535 1597.15 672.535 1577.08V373.554C672.535 353.477 688.811 337.201 708.888 337.201H2314.27C2334.35 337.201 2350.63 353.477 2350.63 373.554V1577.08C2350.63 1597.15 2334.35 1613.43 2314.27 1613.43Z" fill="white"/>
<path d="M2314.27 1615.63H708.888C687.628 1615.63 670.332 1598.34 670.332 1577.08V373.556C670.332 352.296 687.628 335 708.888 335H2314.27C2335.53 335 2352.83 352.296 2352.83 373.556V1577.08C2352.83 1598.34 2335.53 1615.63 2314.27 1615.63ZM708.888 339.405C690.057 339.405 674.737 354.724 674.737 373.556V1577.08C674.737 1595.91 690.057 1611.23 708.888 1611.23H2314.27C2333.11 1611.23 2348.43 1595.91 2348.43 1577.08V373.556C2348.43 354.724 2333.1 339.405 2314.27 339.405H708.888Z" fill="#3D3D3D"/>
<path d="M861.135 421.312C868.857 413.59 868.857 401.07 861.135 393.348C853.413 385.626 840.893 385.626 833.171 393.348C825.449 401.07 825.449 413.59 833.171 421.312C840.893 429.034 853.413 429.034 861.135 421.312Z" fill="#3D3D3D"/>
<path d="M924.136 411.934C926.645 401.306 920.064 390.655 909.436 388.146C898.807 385.636 888.157 392.218 885.648 402.846C883.138 413.474 889.719 424.124 900.348 426.634C910.976 429.144 921.626 422.562 924.136 411.934Z" fill="#3D3D3D"/>
<path d="M981.846 411.936C984.355 401.308 977.774 390.657 967.146 388.148C956.517 385.638 945.867 392.219 943.358 402.848C940.848 413.476 947.429 424.126 958.058 426.636C968.686 429.145 979.336 422.564 981.846 411.936Z" fill="#3D3D3D"/>
<path d="M2051.54 430.767H1158.91C1147.85 430.767 1138.88 421.803 1138.88 410.744C1138.88 399.686 1147.85 390.721 1158.91 390.721H2051.54C2062.6 390.721 2071.56 399.685 2071.56 410.744C2071.56 421.802 2062.6 430.767 2051.54 430.767Z" fill="#3D3D3D"/>
<path d="M2308.9 476.016H714.265V1572.81H2308.9V476.016Z" fill="#FEC432"/>
<path d="M2624.81 1390.31H1465.82C1451.29 1390.31 1439.39 1378.42 1439.39 1363.88V562.584C1439.39 548.049 1451.28 536.156 1465.82 536.156H2624.81C2639.34 536.156 2651.23 548.049 2651.23 562.584V1363.88C2651.23 1378.42 2639.34 1390.31 2624.81 1390.31Z" fill="white"/>
<path d="M2651.23 1139.72C2650.02 1139.72 2649.03 1138.73 2649.03 1137.52V566.245C2649.03 550.87 2636.56 538.359 2621.22 538.359H2308.9C2307.68 538.359 2306.69 537.374 2306.69 536.157C2306.69 534.94 2307.68 533.955 2308.9 533.955H2621.22C2638.99 533.955 2653.44 548.44 2653.44 566.246V1137.52C2653.44 1138.73 2652.45 1139.72 2651.23 1139.72Z" fill="#3D3D3D"/>
<path d="M1987.89 613.344H1518.02V758.094H1987.89V613.344Z" fill="white"/>
<path d="M1987.89 760.298H1518.02C1516.8 760.298 1515.81 759.313 1515.81 758.096V613.345C1515.81 612.128 1516.8 611.143 1518.02 611.143H1987.89C1989.11 611.143 1990.1 612.128 1990.1 613.345V758.096C1990.1 759.313 1989.11 760.298 1987.89 760.298ZM1520.22 755.893H1985.69V615.547H1520.22V755.893Z" fill="#3D3D3D"/>
<path d="M2572.61 613.344H2059.41V941.396H2572.61V613.344Z" fill="#3D3D3D"/>
<path d="M2572.61 983.598H2059.41V1311.65H2572.61V983.598Z" fill="white"/>
<path d="M2572.61 1313.85H2059.41C2058.19 1313.85 2057.21 1312.87 2057.21 1311.65V983.598C2057.21 982.381 2058.19 981.396 2059.41 981.396H2572.61C2573.83 981.396 2574.81 982.381 2574.81 983.598V1311.65C2574.81 1312.87 2573.83 1313.85 2572.61 1313.85ZM2061.61 1309.45H2570.41V985.8H2061.61V1309.45Z" fill="#3D3D3D"/>
<path d="M1987.89 798.473H1518.02V877.466H1987.89V798.473Z" fill="white"/>
<path d="M1987.89 879.667H1518.02C1516.8 879.667 1515.81 878.682 1515.81 877.465V798.471C1515.81 797.254 1516.8 796.27 1518.02 796.27H1987.89C1989.11 796.27 1990.1 797.254 1990.1 798.471V877.465C1990.1 878.682 1989.11 879.667 1987.89 879.667ZM1520.22 875.263H1985.69V800.674H1520.22V875.263Z" fill="#3D3D3D"/>
<path d="M1987.89 936.26H1518.02V1313.12H1987.89V936.26Z" fill="white"/>
<path d="M1987.89 1315.32H1518.02C1516.8 1315.32 1515.81 1314.34 1515.81 1313.12V936.261C1515.81 935.044 1516.8 934.059 1518.02 934.059H1987.89C1989.11 934.059 1990.1 935.044 1990.1 936.261V1313.12C1990.1 1314.34 1989.11 1315.32 1987.89 1315.32ZM1520.22 1310.92H1985.69V938.463H1520.22V1310.92Z" fill="#3D3D3D"/>
<path d="M1830.66 1204.38C1830.1 1204.38 1829.53 1204.16 1829.1 1203.73C1828.24 1202.87 1828.24 1201.48 1829.1 1200.62L1905.42 1124.3L1829.1 1047.98C1828.24 1047.12 1828.24 1045.73 1829.1 1044.87C1829.96 1044.01 1831.36 1044.01 1832.22 1044.87L1910.09 1122.74C1910.95 1123.6 1910.95 1125 1910.09 1125.86L1832.22 1203.73C1831.79 1204.16 1831.22 1204.38 1830.66 1204.38Z" fill="#3D3D3D"/>
<path d="M1668.14 1204.38C1667.58 1204.38 1667.01 1204.16 1666.58 1203.73L1588.71 1125.86C1587.85 1125 1587.85 1123.6 1588.71 1122.74L1666.58 1044.87C1667.44 1044.01 1668.84 1044.01 1669.7 1044.87C1670.56 1045.73 1670.56 1047.12 1669.7 1047.98L1593.38 1124.3L1669.7 1200.62C1670.56 1201.48 1670.56 1202.87 1669.7 1203.73C1669.27 1204.16 1668.7 1204.38 1668.14 1204.38Z" fill="#3D3D3D"/>
<path d="M1707.92 1206.28C1707.58 1206.28 1707.24 1206.2 1706.92 1206.04C1705.84 1205.49 1705.41 1204.16 1705.96 1203.08L1787.14 1043.53C1787.69 1042.44 1789.02 1042.01 1790.11 1042.56C1791.19 1043.11 1791.62 1044.44 1791.07 1045.52L1709.88 1205.07C1709.49 1205.84 1708.72 1206.28 1707.92 1206.28Z" fill="#3D3D3D"/>
<path d="M3058.8 943.817H2760.64C2751.08 943.817 2743.33 936.066 2743.33 926.504V628.237C2743.33 618.675 2751.08 610.924 2760.64 610.924H3058.8C3068.36 610.924 3076.12 618.675 3076.12 628.237V926.504C3076.12 936.066 3068.36 943.817 3058.8 943.817Z" fill="white"/>
<path d="M3058.8 946.02H2760.64C2749.88 946.02 2741.12 937.265 2741.12 926.504V628.236C2741.12 617.476 2749.88 608.723 2760.64 608.723H3058.8C3069.56 608.723 3078.32 617.476 3078.32 628.236V926.504C3078.32 937.264 3069.56 946.02 3058.8 946.02ZM2760.64 613.128C2752.31 613.128 2745.53 619.905 2745.53 628.237V926.505C2745.53 934.837 2752.31 941.616 2760.64 941.616H3058.8C3067.13 941.616 3073.91 934.837 3073.91 926.505V628.236C3073.91 619.904 3067.13 613.127 3058.8 613.127H2760.64V613.128Z" fill="#3D3D3D"/>
<path d="M3048.74 852.339C3048.74 852.339 2996.44 716.305 2948.61 716.305C2900.79 716.305 2875.39 820.946 2857.46 820.946C2839.52 820.946 2836.53 780.584 2817.11 780.584C2797.68 780.584 2770.78 852.338 2770.78 852.338C2770.78 852.338 3048.74 849.848 3048.74 852.339Z" fill="white"/>
<path d="M3048.74 854.543C3048.39 854.543 3048.06 854.461 3047.76 854.312C3038.42 852.752 2877.58 853.586 2770.8 854.543C2770.09 854.595 2769.39 854.197 2768.97 853.603C2768.56 853.009 2768.46 852.248 2768.72 851.568C2771.53 844.077 2796.74 778.383 2817.11 778.383C2828.33 778.383 2834.32 789.541 2840.11 800.331C2845.19 809.798 2849.99 818.744 2857.46 818.744C2862.93 818.744 2871.6 802.153 2879.99 786.109C2895.87 755.722 2917.62 714.104 2948.62 714.104C2997.39 714.104 3048.64 845.938 3050.8 851.551C3050.89 851.803 3050.94 852.074 3050.94 852.34C3050.94 853.4 3050.19 854.311 3049.14 854.505C3049.01 854.529 3048.87 854.543 3048.74 854.543ZM2817.11 782.789C2803.12 782.789 2782.28 828.824 2773.99 850.109C2788.42 849.984 2848.85 849.477 2908.82 849.206C3005.6 848.769 3035.67 849.168 3045.36 849.809C3036.97 829.061 2990.3 718.508 2948.62 718.508C2920.29 718.508 2899.25 758.759 2883.89 788.151C2873.27 808.469 2865.6 823.148 2857.46 823.148C2847.35 823.148 2841.7 812.608 2836.23 802.414C2830.81 792.321 2825.7 782.789 2817.11 782.789Z" fill="#3D3D3D"/>
<path d="M2845.36 737.217C2856.92 737.195 2866.27 727.807 2866.24 716.249C2866.22 704.691 2856.84 695.339 2845.28 695.361C2833.73 695.383 2824.38 704.77 2824.4 716.328C2824.42 727.887 2833.81 737.239 2845.36 737.217Z" fill="white"/>
<path d="M2845.31 739.436C2832.56 739.436 2822.19 729.059 2822.19 716.305C2822.19 703.551 2832.56 693.174 2845.31 693.174C2858.06 693.174 2868.44 703.551 2868.44 716.305C2868.44 729.059 2858.06 739.436 2845.31 739.436ZM2845.31 697.579C2834.99 697.579 2826.59 705.98 2826.59 716.305C2826.59 726.631 2834.99 735.031 2845.31 735.031C2855.63 735.031 2864.03 726.63 2864.03 716.305C2864.03 705.98 2855.63 697.579 2845.31 697.579Z" fill="#3D3D3D"/>
<path d="M2712.69 760.961H2419.05C2417.84 760.961 2416.85 759.976 2416.85 758.759C2416.85 757.542 2417.84 756.557 2419.05 756.557H2712.69C2713.9 756.557 2714.89 757.542 2714.89 758.759C2714.89 759.976 2713.91 760.961 2712.69 760.961Z" fill="#3D3D3D"/>
<path d="M1268.37 1203.34C1284.88 1203.32 1298.24 1189.91 1298.22 1173.4C1298.2 1156.88 1284.8 1143.51 1268.29 1143.54C1251.78 1143.56 1238.41 1156.96 1238.44 1173.48C1238.46 1189.99 1251.86 1203.36 1268.37 1203.34Z" fill="#3D3D3D"/>
<path d="M1268.37 1116.08C1284.88 1116.05 1298.25 1102.65 1298.23 1086.13C1298.2 1069.62 1284.8 1056.25 1268.29 1056.27C1251.78 1056.29 1238.42 1069.7 1238.44 1086.21C1238.46 1102.73 1251.86 1116.1 1268.37 1116.08Z" fill="#3D3D3D"/>
<path d="M1268.36 1028.83C1284.87 1028.81 1298.24 1015.4 1298.22 998.887C1298.2 982.372 1284.8 969.002 1268.29 969.024C1251.78 969.045 1238.41 982.45 1238.43 998.964C1238.45 1015.48 1251.85 1028.85 1268.36 1028.83Z" fill="#3D3D3D"/>
<path d="M1268.28 926.861C1267.06 926.861 1266.08 925.876 1266.08 924.659V696.956C1266.08 695.739 1267.06 694.754 1268.28 694.754H1549.71C1550.93 694.754 1551.92 695.739 1551.92 696.956C1551.92 698.173 1550.93 699.158 1549.71 699.158H1270.48V924.659C1270.48 925.876 1269.5 926.861 1268.28 926.861Z" fill="#3D3D3D"/>
<path d="M2590.35 1341.31L2646.18 1504.55L2684.57 1512.01C2684.57 1512.01 2625.99 1639.18 2527.26 1617.87C2428.53 1596.57 2450.24 1512.01 2450.24 1512.01L2471.13 1510.32C2483.63 1509.31 2492.21 1497.27 2489.07 1485.12L2465.6 1394.2C2465.6 1394.2 2561.26 1317.1 2590.35 1341.31Z" fill="white"/>
<path d="M2549.12 1622.44C2541.71 1622.44 2534.26 1621.64 2526.8 1620.03C2494.58 1613.08 2471.56 1598.73 2458.38 1577.4C2439.38 1546.67 2447.75 1512.89 2448.11 1511.46C2448.35 1510.55 2449.13 1509.89 2450.07 1509.82L2470.95 1508.13C2476.26 1507.7 2481.08 1504.96 2484.17 1500.62C2487.26 1496.28 2488.27 1490.84 2486.94 1485.68L2463.46 1394.76C2463.25 1393.92 2463.54 1393.03 2464.21 1392.49C2468.18 1389.3 2561.63 1314.55 2591.76 1339.62C2592.07 1339.88 2592.3 1340.22 2592.43 1340.6L2647.85 1502.63L2684.99 1509.85C2685.65 1509.98 2686.22 1510.41 2686.53 1511.01C2686.83 1511.61 2686.85 1512.32 2686.57 1512.93C2686.42 1513.26 2671.46 1545.38 2644.55 1574.43C2615.19 1606.12 2582.57 1622.44 2549.12 1622.44ZM2452.05 1514.08C2450.69 1520.91 2446.33 1549.57 2462.15 1575.13C2474.68 1595.38 2496.74 1609.04 2527.72 1615.72C2615.89 1634.76 2672.38 1531.31 2681.32 1513.62L2645.76 1506.71C2644.99 1506.56 2644.35 1506 2644.1 1505.26L2588.47 1342.63C2562.17 1322.33 2478.71 1386.68 2468.09 1395.04L2491.2 1484.57C2492.86 1490.99 2491.61 1497.78 2487.76 1503.18C2483.91 1508.58 2477.92 1511.98 2471.31 1512.52L2452.05 1514.08Z" fill="#3D3D3D"/>
<path d="M2567.01 1147.3C2589.64 1154.08 2608.77 1171.68 2617.39 1193.67C2621.82 1204.96 2623.58 1217.14 2627.78 1228.52C2631.99 1239.9 2639.46 1251.03 2650.88 1255.13C2656.59 1257.19 2662.81 1257.31 2668.7 1258.8C2680.53 1261.78 2690.98 1270.98 2693.92 1282.81C2696.86 1294.64 2691.15 1308.48 2680.05 1313.53C2684.18 1323.76 2681.98 1336.25 2674.61 1344.47C2667.25 1352.69 2655.06 1356.23 2644.43 1353.24C2644.04 1376.98 2626.74 1398.04 2605.51 1408.7C2584.29 1419.35 2559.76 1421.24 2536.01 1420.67C2491.03 1419.59 2445.8 1410.17 2405.96 1389.28C2395.66 1383.88 2385.57 1377.58 2378.03 1368.73C2370.49 1359.87 2365.74 1348.07 2367.52 1336.58C2351.66 1326.49 2336.08 1314.61 2327.32 1297.99C2318.55 1281.37 2318.36 1258.96 2331.36 1245.38C2341.86 1234.41 2358.52 1231.13 2369.12 1220.25C2378.32 1210.8 2381.47 1197.24 2386.21 1184.93C2392.14 1169.53 2401.37 1154.98 2414.76 1145.32C2431.09 1133.53 2453.01 1131.1 2472.05 1136.94C2482.4 1140.1 2489.23 1146.1 2497.94 1151.94C2506.37 1157.59 2517.02 1148.54 2526 1146.37C2539.44 1143.13 2553.75 1143.33 2567.01 1147.3Z" fill="#3D3D3D"/>
<path d="M2554.81 1391.35C2547.26 1409.61 2535.84 1426.57 2520.19 1438.64C2504.54 1450.72 2484.44 1457.57 2464.81 1455.29C2431.96 1451.48 2406.24 1422.94 2395.76 1391.59C2385.28 1360.23 2387.08 1326.26 2389.29 1293.27C2389.29 1293.27 2403.4 1243.7 2440.24 1227.37C2447.24 1299.46 2571.28 1246.3 2538.49 1347.7C2538.49 1347.7 2561.17 1320.2 2575.52 1321.76C2591.03 1323.44 2604.06 1337.45 2604.91 1353.02C2605.76 1368.59 2595.17 1383.8 2580.63 1389.47C2572.42 1392.67 2564.48 1394.8 2554.81 1391.35Z" fill="white"/>
<path d="M2472.34 1457.93C2469.73 1457.93 2467.13 1457.78 2464.56 1457.48C2433.52 1453.88 2405.7 1428.29 2393.67 1392.28C2382.66 1359.34 2385.12 1322.62 2387.1 1293.13C2387.11 1292.97 2387.13 1292.82 2387.17 1292.67C2387.76 1290.61 2402 1241.92 2439.34 1225.36C2439.99 1225.07 2440.74 1225.11 2441.35 1225.47C2441.96 1225.82 2442.36 1226.45 2442.43 1227.16C2445.39 1257.61 2469.62 1264.43 2495.28 1271.65C2513.93 1276.9 2533.21 1282.33 2541.68 1298.15C2547.11 1308.29 2547.64 1321.76 2543.26 1339.15C2551.3 1330.84 2565.26 1318.46 2575.76 1319.57C2592.14 1321.35 2606.2 1336.3 2607.11 1352.9C2607.99 1369.13 2597.2 1385.37 2581.43 1391.52C2574.34 1394.28 2566 1396.94 2556.05 1394.06C2547.75 1413.35 2535.85 1429.34 2521.53 1440.39C2506.84 1451.73 2489.28 1457.93 2472.34 1457.93ZM2391.47 1293.67C2389.53 1322.73 2387.14 1358.85 2397.85 1390.88C2407.26 1419.06 2431.7 1449.23 2465.06 1453.1C2483.17 1455.2 2502.78 1449.3 2518.84 1436.9C2533.01 1425.97 2544.74 1409.93 2552.77 1390.5C2553.22 1389.42 2554.44 1388.87 2555.54 1389.27C2564.03 1392.3 2571.13 1390.81 2579.83 1387.42C2593.87 1381.94 2603.49 1367.53 2602.71 1353.14C2601.91 1338.6 2589.61 1325.5 2575.28 1323.95C2564.48 1322.81 2546.29 1341.71 2540.19 1349.1C2539.52 1349.91 2538.36 1350.13 2537.43 1349.63C2536.51 1349.12 2536.07 1348.02 2536.4 1347.02C2543.1 1326.28 2543.56 1310.98 2537.8 1300.23C2530.21 1286.06 2512.66 1281.12 2494.09 1275.9C2468.95 1268.82 2442.98 1261.51 2438.42 1230.67C2406.1 1246.99 2392.51 1290.23 2391.47 1293.67Z" fill="#3D3D3D"/>
<path d="M2557.99 1372.39C2557.36 1372.39 2556.74 1372.12 2556.3 1371.6C2555.52 1370.67 2555.65 1369.28 2556.58 1368.5C2562.3 1363.7 2567.2 1358.05 2571.14 1351.7C2571.78 1350.67 2573.14 1350.35 2574.17 1350.99C2575.21 1351.64 2575.53 1352.99 2574.88 1354.03C2570.7 1360.77 2565.49 1366.78 2559.41 1371.88C2558.99 1372.22 2558.49 1372.39 2557.99 1372.39Z" fill="#3D3D3D"/>
<path d="M2238.81 1579.27C2268.02 1539.82 2312.65 1514.74 2361.53 1510.24C2389.37 1507.67 2424.27 1504.94 2463.2 1502.95C2465.34 1509.96 2468.34 1516.74 2472.23 1523.15C2483.51 1541.71 2501.18 1556.01 2520.87 1564.88C2540.57 1573.76 2562.63 1577.78 2584.16 1575.18C2605.25 1572.63 2625.31 1563.65 2639.88 1547.95C2651.76 1535.16 2666.01 1519.69 2669.66 1502.91C2704.97 1504.92 2732.81 1507.84 2765.96 1513.03C2829.22 1522.94 2883.7 1561.25 2918.26 1615.17C2993.64 1732.79 3077.47 1856.97 3077.47 2000.22C3077.47 2163.08 2686.49 2148.94 2686.49 2148.94H2305.3L2061.55 1941.84C2061.55 1941.84 2137.42 1716.21 2238.81 1579.27Z" fill="#00BE75"/>
<path d="M2721.25 2122.46C2724.13 2141.89 2686.49 2148.93 2686.49 2148.93C2640.89 2148.93 2569.86 2148.93 2569.86 2148.93L2396.18 2126.61C2396.18 2126.61 2382.62 1902.83 2628.17 1929.86C2628.17 1929.86 2702.27 1994.32 2721.25 2122.46Z" fill="white"/>
<path d="M2686.49 2151.14H2569.86C2569.77 2151.14 2569.67 2151.13 2569.58 2151.12L2395.9 2128.8C2394.69 2128.64 2393.84 2127.54 2393.99 2126.33C2394.15 2125.12 2395.25 2124.3 2396.46 2124.43L2570 2146.73H2686.49C2687.71 2146.73 2688.7 2147.72 2688.7 2148.93C2688.7 2150.15 2687.71 2151.14 2686.49 2151.14Z" fill="#3D3D3D"/>
<path d="M2524.1 2129.68C2523.03 2129.68 2522.08 2128.89 2521.92 2127.8C2519.98 2114.43 2523.07 2099.65 2530.64 2086.17C2536.88 2075.07 2546.04 2064.64 2558.66 2054.31C2561.2 2052.23 2563.96 2050.07 2567.25 2048.64C2568.36 2048.14 2569.66 2048.66 2570.15 2049.77C2570.63 2050.89 2570.12 2052.19 2569.01 2052.67C2566.24 2053.88 2563.76 2055.83 2561.45 2057.71C2549.27 2067.7 2540.44 2077.71 2534.48 2088.33C2527.39 2100.96 2524.47 2114.75 2526.28 2127.16C2526.46 2128.36 2525.62 2129.48 2524.42 2129.66C2524.31 2129.67 2524.21 2129.68 2524.1 2129.68Z" fill="#3D3D3D"/>
<path d="M2467.96 2126.46C2467.86 2126.46 2467.76 2126.46 2467.65 2126.44C2466.45 2126.27 2465.61 2125.16 2465.78 2123.95C2467.92 2108.86 2471 2091.19 2477.64 2074.55C2484.62 2057.07 2494.91 2042.76 2507.4 2033.17C2508.37 2032.43 2509.75 2032.61 2510.49 2033.57C2511.23 2034.54 2511.05 2035.92 2510.08 2036.66C2498.22 2045.78 2488.42 2059.44 2481.74 2076.18C2475.27 2092.39 2472.24 2109.74 2470.14 2124.57C2469.99 2125.67 2469.04 2126.46 2467.96 2126.46Z" fill="#3D3D3D"/>
<path d="M2422.99 2126.46C2421.89 2126.46 2420.94 2125.64 2420.8 2124.52C2412.99 2059.07 2456 2018.21 2456.43 2017.8C2457.32 2016.98 2458.72 2017.03 2459.55 2017.91C2460.37 2018.8 2460.33 2020.2 2459.44 2021.03C2459.02 2021.42 2417.64 2060.84 2425.18 2124C2425.32 2125.21 2424.46 2126.3 2423.25 2126.45C2423.16 2126.46 2423.07 2126.46 2422.99 2126.46Z" fill="#3D3D3D"/>
<path d="M1972.05 2160.55H2605.58C2609.33 2160.55 2613.08 2159.58 2616.17 2157.46C2623.42 2152.47 2625.93 2143.56 2623.07 2135.9C2615.6 2120.23 2600.16 2114.72 2577.33 2114.72H1930.48L1938.87 2137.53C1944.05 2151.37 1957.27 2160.55 1972.05 2160.55Z" fill="#3D3D3D"/>
<path d="M1941.07 2144.47L1827.82 1860.24C1825.51 1854.43 1825.16 1847.92 1827.38 1842.08C1831.05 1832.43 1840.17 1826.37 1850.08 1826.37H2239.45C2262.91 1826.37 2283.83 1841.15 2291.66 1863.27L2396.93 2160.55H1964.79C1954.34 2160.55 1944.94 2154.18 1941.07 2144.47Z" fill="#3D3D3D"/>
<path d="M2080.37 1966.91C2084.3 1957.42 2079.8 1946.54 2070.31 1942.61C2060.81 1938.68 2049.93 1943.19 2046 1952.68C2042.07 1962.17 2046.58 1973.05 2056.07 1976.98C2065.56 1980.91 2076.44 1976.4 2080.37 1966.91Z" fill="white"/>
<path d="M2924.14 1936.12C2924.13 1936.12 2924.12 1936.12 2924.1 1936.12L2640.85 1930.75C2639.63 1930.73 2638.66 1929.72 2638.69 1928.51C2638.71 1927.29 2639.75 1926.34 2640.93 1926.35L2924.19 1931.72C2925.4 1931.74 2926.37 1932.75 2926.35 1933.96C2926.32 1935.16 2925.34 1936.12 2924.14 1936.12Z" fill="#3D3D3D"/>
<path d="M2829.55 1920.05C2828.6 1920.05 2827.73 1919.44 2827.44 1918.49C2817.22 1884.45 2803.12 1851.53 2785.53 1820.65C2782.45 1815.25 2777.64 1808.12 2771.18 1808.12C2771.06 1808.12 2770.94 1808.13 2770.81 1808.13C2769.63 1808.13 2768.65 1807.19 2768.61 1806C2768.57 1804.78 2769.52 1803.76 2770.74 1803.73C2779.69 1803.37 2785.67 1812 2789.36 1818.46C2807.11 1849.64 2821.35 1882.86 2831.66 1917.22C2832.01 1918.38 2831.35 1919.61 2830.19 1919.96C2829.98 1920.02 2829.76 1920.05 2829.55 1920.05Z" fill="#3D3D3D"/>
<path d="M2911.01 1066.22C2927.52 1066.22 2940.9 1052.84 2940.9 1036.32C2940.9 1019.81 2927.52 1006.42 2911.01 1006.42C2894.5 1006.42 2881.12 1019.81 2881.12 1036.32C2881.12 1052.84 2894.5 1066.22 2911.01 1066.22Z" fill="#3D3D3D"/>
<path d="M2911.01 1153.49C2927.52 1153.49 2940.9 1140.1 2940.9 1123.59C2940.9 1107.07 2927.52 1093.68 2911.01 1093.68C2894.5 1093.68 2881.12 1107.07 2881.12 1123.59C2881.12 1140.1 2894.5 1153.49 2911.01 1153.49Z" fill="#3D3D3D"/>
<path d="M2911.01 1240.75C2927.52 1240.75 2940.9 1227.36 2940.9 1210.85C2940.9 1194.33 2927.52 1180.95 2911.01 1180.95C2894.5 1180.95 2881.12 1194.33 2881.12 1210.85C2881.12 1227.36 2894.5 1240.75 2911.01 1240.75Z" fill="#3D3D3D"/>
<path d="M2911.1 1457.93H2770.81C2769.6 1457.93 2768.61 1456.94 2768.61 1455.73C2768.61 1454.51 2769.6 1453.52 2770.81 1453.52H2908.89V1285.06C2908.89 1283.84 2909.88 1282.86 2911.1 1282.86C2912.31 1282.86 2913.3 1283.84 2913.3 1285.06V1455.73C2913.3 1456.94 2912.31 1457.93 2911.1 1457.93Z" fill="#3D3D3D"/>
<path d="M802.121 555.928H1179.76L1146.6 942.778L990.941 984.682L836.201 941.857L802.121 555.928Z" fill="white"/>
<path d="M836.201 594.619H1145.68L1118.51 911.648L990.941 945.988L864.13 910.893L836.201 594.619Z" fill="white"/>
<path d="M990.933 948.271L990.353 948.112L862.07 912.608L833.795 592.418H1148.08L1120.57 913.374L990.933 948.271ZM866.189 909.179L990.948 943.706L1116.44 909.923L1143.28 596.822H838.606L866.189 909.179Z" fill="#3D3D3D"/>
<path d="M1535.11 1467.44H1192.52C1190.49 1467.44 1188.46 1466.92 1186.79 1465.77C1182.87 1463.07 1181.51 1458.25 1183.06 1454.11C1187.1 1445.64 1195.45 1442.66 1207.79 1442.66H1557.59L1553.05 1454.99C1550.25 1462.48 1543.1 1467.44 1535.11 1467.44Z" fill="#3D3D3D"/>
<path d="M1548.39 1467.44L1613.24 1304.69C1614.85 1300.65 1614.36 1296.08 1611.92 1292.48C1609.48 1288.88 1605.41 1286.72 1601.06 1286.72H1390.51C1377.82 1286.72 1366.51 1294.72 1362.28 1306.68L1305.35 1467.44H1548.39Z" fill="#3D3D3D"/>
<path d="M1490.06 1351.49C1494.45 1351.49 1498.01 1347.93 1498.01 1343.54C1498.01 1339.14 1494.45 1335.58 1490.06 1335.58C1485.66 1335.58 1482.1 1339.14 1482.1 1343.54C1482.1 1347.93 1485.66 1351.49 1490.06 1351.49Z" fill="white"/>
<path d="M979.983 1515.6C981.854 1528.67 982.822 1542.02 982.822 1555.61C982.822 1710.17 857.526 1835.47 702.966 1835.47C548.406 1835.47 423.11 1710.17 423.11 1555.61C423.11 1401.05 548.406 1275.75 702.966 1275.75C820.52 1275.75 921.146 1348.23 962.592 1450.94L979.983 1515.6Z" fill="white"/>
<path d="M702.966 1837.67C547.439 1837.67 420.908 1711.14 420.908 1555.61C420.908 1400.08 547.439 1273.55 702.966 1273.55C760.307 1273.55 815.496 1290.66 862.568 1323.02C908.541 1354.62 943.836 1398.58 964.635 1450.12C965.09 1451.25 964.545 1452.53 963.417 1452.99C962.29 1453.44 961.007 1452.9 960.551 1451.77C917.944 1346.18 816.836 1277.96 702.967 1277.96C549.868 1277.96 425.314 1402.52 425.314 1555.61C425.314 1708.71 549.869 1833.27 702.967 1833.27C856.065 1833.27 980.622 1708.71 980.622 1555.61C980.622 1542.33 979.675 1528.97 977.806 1515.91C977.633 1514.71 978.47 1513.59 979.674 1513.42C980.875 1513.25 981.993 1514.08 982.166 1515.29C984.065 1528.55 985.028 1542.12 985.028 1555.61C985.025 1711.14 858.494 1837.67 702.966 1837.67Z" fill="#3D3D3D"/>
<path d="M710.113 1768.04C710.059 1768.04 710.006 1768.04 709.952 1768.04C579.294 1758.57 548.539 1693.09 547.293 1690.31C546.796 1689.2 547.293 1687.9 548.401 1687.4C549.507 1686.9 550.811 1687.4 551.312 1688.5C551.609 1689.16 582.47 1754.38 710.27 1763.64C711.483 1763.73 712.395 1764.79 712.308 1766C712.223 1767.16 711.257 1768.04 710.113 1768.04Z" fill="#3D3D3D"/>
<path d="M366.378 2118.81C366.073 2118.81 365.764 2118.75 365.468 2118.61C364.36 2118.11 363.871 2116.8 364.373 2115.7L521.644 1769.57C522.147 1768.46 523.453 1767.97 524.56 1768.48C525.668 1768.98 526.157 1770.28 525.655 1771.39L368.384 2117.52C368.015 2118.33 367.214 2118.81 366.378 2118.81Z" fill="#3D3D3D"/>
<path d="M356.809 2162.8C367.924 2162.8 376.936 2153.79 376.936 2142.67C376.936 2131.56 367.924 2122.54 356.809 2122.54C345.693 2122.54 336.682 2131.56 336.682 2142.67C336.682 2153.79 345.693 2162.8 356.809 2162.8Z" fill="#3D3D3D"/>
<path d="M1039.56 2118.81C1038.72 2118.81 1037.92 2118.33 1037.55 2117.52L880.281 1771.39C879.779 1770.28 880.268 1768.98 881.376 1768.48C882.479 1767.97 883.787 1768.46 884.292 1769.57L1041.56 2115.7C1042.07 2116.8 1041.58 2118.11 1040.47 2118.61C1040.17 2118.75 1039.87 2118.81 1039.56 2118.81Z" fill="#3D3D3D"/>
<path d="M1049.13 2162.8C1060.24 2162.8 1069.26 2153.79 1069.26 2142.67C1069.26 2131.56 1060.24 2122.54 1049.13 2122.54C1038.01 2122.54 1029 2131.56 1029 2142.67C1029 2153.79 1038.01 2162.8 1049.13 2162.8Z" fill="#3D3D3D"/>
<path d="M1049.13 2165C1036.81 2165 1026.8 2154.99 1026.8 2142.67C1026.8 2130.36 1036.81 2120.34 1049.13 2120.34C1061.44 2120.34 1071.46 2130.36 1071.46 2142.67C1071.46 2154.99 1061.44 2165 1049.13 2165ZM1049.13 2124.75C1039.24 2124.75 1031.2 2132.79 1031.2 2142.67C1031.2 2152.56 1039.24 2160.6 1049.13 2160.6C1059.01 2160.6 1067.05 2152.55 1067.05 2142.67C1067.05 2132.79 1059.01 2124.75 1049.13 2124.75Z" fill="#3D3D3D"/>
<path d="M1826.04 2118.81C1825.2 2118.81 1824.41 2118.33 1824.04 2117.53L1539.48 1499.27C1538.97 1498.16 1539.45 1496.86 1540.56 1496.35C1541.66 1495.84 1542.97 1496.32 1543.48 1497.43L1828.04 2115.69C1828.55 2116.79 1828.06 2118.1 1826.96 2118.61C1826.66 2118.74 1826.35 2118.81 1826.04 2118.81Z" fill="#3D3D3D"/>
<path d="M1835.61 2162.8C1846.72 2162.8 1855.73 2153.79 1855.73 2142.67C1855.73 2131.55 1846.72 2122.54 1835.61 2122.54C1824.49 2122.54 1815.48 2131.55 1815.48 2142.67C1815.48 2153.79 1824.49 2162.8 1835.61 2162.8Z" fill="#3D3D3D"/>
<path d="M1597.9 1468.2H1009.68V1495.72H1597.9V1468.2Z" fill="white"/>
<path d="M1073.35 938.649C1054.32 919.093 1025.59 923.563 1002.02 930.946C974.52 939.559 949.294 953.869 922.344 963.901C909.577 968.654 896.422 972.305 882.865 973.904C870.618 975.348 858.199 975.139 845.943 973.869C820.911 971.276 796.611 964.198 772.603 956.942C748.479 949.651 724.355 941.936 699.489 937.548C673.278 932.923 646.78 932.842 620.831 939.18C567.918 952.103 517.555 988.188 494.456 1038.34C472.267 1086.51 475.334 1143.21 502.503 1188.7C515.736 1210.86 534.117 1229.65 555.929 1243.43C579.635 1258.41 606.682 1267.92 633.793 1274.59C688.152 1287.96 745.613 1288.13 800.133 1275.54C851.52 1263.68 899.704 1240.34 940.84 1207.35C979.809 1176.09 1012.22 1136.79 1035.23 1092.43C1040.04 1083.17 1044.39 1073.68 1048.34 1064.02C1065.89 1044.95 1083.32 1023.1 1088.56 997.167C1092.63 977.067 1087.96 953.654 1073.35 938.649Z" fill="#3D3D3D"/>
<path d="M883.923 1126.4L928.755 1069.17C931.907 1065.15 955.923 1056.73 959.672 1060.2L982.314 1105.85C985.525 1108.82 986.045 1113.71 983.533 1117.29L950.565 1164.34C944.953 1172.35 935.392 1176.62 925.691 1175.43C913.352 1173.9 896.7 1167.8 883.195 1148.34C878.582 1141.7 878.931 1132.78 883.923 1126.4Z" fill="white"/>
<path d="M878.712 1134.44C878.227 1134.44 877.738 1134.28 877.331 1133.95C876.384 1133.18 876.235 1131.8 876.998 1130.85L931.267 1063.51C932.03 1062.57 933.418 1062.42 934.364 1063.18C935.311 1063.95 935.46 1065.33 934.697 1066.28L880.428 1133.62C879.992 1134.16 879.355 1134.44 878.712 1134.44Z" fill="#3D3D3D"/>
<path d="M946.057 1172.39C945.609 1172.39 945.156 1172.26 944.764 1171.97C943.78 1171.26 943.562 1169.88 944.277 1168.89L986.537 1110.72C987.253 1109.73 988.63 1109.51 989.614 1110.23C990.598 1110.94 990.816 1112.32 990.101 1113.31L947.841 1171.48C947.41 1172.08 946.739 1172.39 946.057 1172.39Z" fill="#3D3D3D"/>
<path d="M956.383 1041.28C956.383 1041.28 954.304 1031.75 944.914 1031.35C935.668 1030.96 927.263 1039.21 925.986 1048.38C924.708 1057.54 930.209 1067.06 938.52 1071.13C943.214 1073.43 947.805 1075.09 953.693 1073.53C957.247 1084.7 963.151 1095.3 971.798 1103.22C980.445 1111.13 991.985 1116.18 1003.7 1115.81C1023.31 1115.19 1039.93 1099.6 1047.69 1081.57C1055.44 1063.55 1056.07 1043.38 1056.41 1023.76C1056.41 1023.76 1028.26 1045.55 988.506 1017.48C982.26 1035.95 972.327 1045.71 956.383 1041.28Z" fill="white"/>
<path d="M1002.5 1118.03C991.177 1118.03 979.515 1113.27 970.31 1104.84C962.453 1097.65 956.224 1087.74 952.22 1076.09C946.296 1077.04 941.566 1075.08 937.549 1073.11C928.201 1068.53 922.42 1058 923.804 1048.07C925.291 1037.39 934.98 1028.71 945.008 1029.15C952.84 1029.49 956.798 1035.44 958.156 1039.47C971.16 1042.51 980.161 1035.28 986.419 1016.78C986.642 1016.12 987.162 1015.6 987.823 1015.39C988.484 1015.18 989.207 1015.29 989.775 1015.68C1027.76 1042.5 1054.79 1022.23 1055.06 1022.02C1055.73 1021.5 1056.63 1021.42 1057.39 1021.79C1058.15 1022.17 1058.62 1022.95 1058.61 1023.8C1058.31 1041.42 1057.93 1063.35 1049.71 1082.45C1040.67 1103.45 1022.64 1117.41 1003.77 1118.01C1003.35 1118.03 1002.93 1118.03 1002.5 1118.03ZM953.694 1071.33C954.631 1071.33 955.495 1071.93 955.792 1072.86C959.523 1084.6 965.572 1094.53 973.285 1101.59C981.993 1109.56 993.039 1113.91 1003.63 1113.61C1023.16 1112.99 1038.81 1096.64 1045.67 1080.7C1052.94 1063.8 1053.81 1044.21 1054.13 1027.74C1045.27 1032.52 1020.88 1041.69 989.618 1020.92C982.394 1040.07 971.026 1047.64 955.793 1043.41C955.009 1043.19 954.409 1042.55 954.233 1041.76C954.156 1041.42 952.346 1033.87 944.819 1033.55C937.116 1033.31 929.336 1040.29 928.166 1048.68C927.038 1056.78 931.8 1065.39 939.488 1069.15C944.402 1071.57 948.211 1072.71 953.129 1071.4C953.317 1071.35 953.507 1071.33 953.694 1071.33Z" fill="#3D3D3D"/>
<path d="M951.542 1063.04C950.626 1063.04 949.771 1062.47 949.458 1061.55C947.833 1056.81 944.39 1052.68 940.012 1050.23C938.951 1049.63 938.571 1048.29 939.166 1047.23C939.761 1046.17 941.106 1045.79 942.163 1046.38C947.476 1049.36 951.654 1054.37 953.626 1060.13C954.02 1061.28 953.406 1062.53 952.255 1062.93C952.018 1063.01 951.778 1063.04 951.542 1063.04Z" fill="#3D3D3D"/>
<path d="M1055.31 1026.76C1054.49 1026.76 1053.72 1026.31 1053.33 1025.54C1052.79 1024.45 1053.23 1023.12 1054.32 1022.58C1059.58 1019.97 1064.12 1016.04 1067.44 1011.21C1068.13 1010.21 1069.5 1009.95 1070.51 1010.65C1071.51 1011.33 1071.76 1012.71 1071.07 1013.71C1067.32 1019.15 1062.21 1023.59 1056.28 1026.53C1055.97 1026.69 1055.63 1026.76 1055.31 1026.76Z" fill="#3D3D3D"/>
<path d="M891.443 1847.28L747.339 2106.2C733.211 2131.58 751.564 2162.8 780.614 2162.8H1193.49C1202.44 2162.8 1206.56 2151.66 1199.77 2145.84L1083.12 2045.88L1203.17 1832.11L891.443 1847.28Z" fill="white"/>
<path d="M1193.49 2165H780.616C766.184 2165 753.201 2157.57 745.888 2145.13C738.574 2132.69 738.398 2117.74 745.416 2105.13L889.522 1846.21C889.892 1845.55 890.579 1845.12 891.338 1845.08L1203.06 1829.91C1203.87 1829.88 1204.62 1830.27 1205.04 1830.95C1205.47 1831.63 1205.48 1832.49 1205.09 1833.19L1085.93 2045.38L1201.2 2144.16C1205.01 2147.42 1206.34 2152.57 1204.6 2157.27C1202.86 2161.97 1198.5 2165 1193.49 2165ZM892.774 1849.42L749.264 2107.27C743.013 2118.5 743.17 2131.82 749.684 2142.9C756.198 2153.98 767.762 2160.6 780.615 2160.6H1193.49C1197.31 2160.6 1199.6 2158.09 1200.47 2155.74C1201.34 2153.39 1201.23 2149.99 1198.33 2147.51L1081.69 2047.55C1080.89 2046.87 1080.69 2045.71 1081.2 2044.8L1199.3 1834.5L892.774 1849.42Z" fill="#3D3D3D"/>
<path d="M887.206 2072.16C846.229 2072.16 809.468 2068.19 775.591 2060.15C774.407 2059.87 773.676 2058.68 773.957 2057.5C774.239 2056.31 775.428 2055.58 776.609 2055.86C819.321 2066 866.72 2069.61 921.515 2066.87C970.182 2064.45 1019.28 2057.33 1066.76 2050.44C1067.97 2050.27 1069.08 2051.1 1069.25 2052.31C1069.43 2053.51 1068.59 2054.63 1067.39 2054.8C1019.81 2061.71 970.608 2068.84 921.734 2071.28C909.893 2071.86 898.39 2072.16 887.206 2072.16Z" fill="#3D3D3D"/>
<path d="M1100.2 1811.42L1263.22 2121.4C1276.61 2146.85 1303.01 2162.8 1331.77 2162.8H1633.27C1641.7 2162.8 1645.47 2152.22 1638.94 2146.89L1511.53 2042.87L1418.29 1853.07L1100.2 1811.42Z" fill="white"/>
<path d="M1633.27 2165H1331.77C1302.1 2165 1275.08 2148.69 1261.27 2122.42L1098.25 1812.45C1097.87 1811.72 1097.92 1810.84 1098.39 1810.17C1098.86 1809.49 1099.66 1809.12 1100.48 1809.24L1418.57 1850.89C1419.3 1850.99 1419.94 1851.44 1420.26 1852.1L1513.3 2041.47L1640.33 2145.18C1644.04 2148.21 1645.4 2153.08 1643.79 2157.58C1642.19 2162.09 1638.06 2165 1633.27 2165ZM1104.13 1814.16L1265.17 2120.37C1278.22 2145.18 1303.74 2160.6 1331.77 2160.6H1633.27C1636.79 2160.6 1638.87 2158.28 1639.64 2156.1C1640.42 2153.93 1640.27 2150.82 1637.55 2148.6L1510.14 2044.58C1509.89 2044.38 1509.7 2044.13 1509.56 2043.85L1416.83 1855.11L1104.13 1814.16Z" fill="#3D3D3D"/>
<path d="M1333.94 2070.21C1299.8 2070.21 1265.66 2068.42 1231.62 2064.83C1230.41 2064.71 1229.54 2063.62 1229.66 2062.41C1229.79 2061.21 1230.86 2060.33 1232.08 2060.46C1322.77 2070 1414.27 2066.76 1504.05 2050.8C1505.26 2050.58 1506.4 2051.39 1506.61 2052.59C1506.82 2053.78 1506.02 2054.93 1504.82 2055.14C1448.34 2065.18 1391.16 2070.21 1333.94 2070.21Z" fill="#3D3D3D"/>
<path d="M839.963 1900.8C839.963 1900.8 1135.67 1989.07 1433.7 1861.25C1433.7 1861.25 1356.46 1716.57 1292.19 1609.18C1252.17 1542.32 1179.97 1501.41 1102.05 1501.41H604.247L570.849 1566.62C533.566 1639.4 581.164 1726.94 662.528 1735.16C766.272 1745.65 860.079 1751.84 934.178 1749.51L839.963 1900.8Z" fill="#00BE75"/>
<path d="M1151.56 1920.49C1151.22 1920.49 1150.88 1920.41 1150.56 1920.25C1149.47 1919.69 1149.05 1918.36 1149.61 1917.28C1177.29 1863.64 1199.15 1806.86 1214.57 1748.51C1225.43 1707.43 1235.34 1654.52 1215.48 1609.53C1202.22 1579.48 1175.86 1553.02 1134.9 1528.63C1133.86 1528 1133.52 1526.65 1134.14 1525.61C1134.76 1524.56 1136.11 1524.22 1137.16 1524.84C1178.93 1549.72 1205.87 1576.83 1219.51 1607.75C1239.92 1653.99 1229.87 1707.86 1218.83 1749.63C1203.33 1808.3 1181.35 1865.38 1153.52 1919.3C1153.13 1920.06 1152.36 1920.49 1151.56 1920.49Z" fill="#3D3D3D"/>
<path d="M936.634 1750.78C935.447 1750.78 934.468 1749.83 934.434 1748.64C934.398 1747.42 935.354 1746.41 936.571 1746.37L998.511 1744.56C999.7 1744.56 1000.74 1745.48 1000.78 1746.69C1000.81 1747.91 999.857 1748.92 998.64 1748.96L936.7 1750.78C936.678 1750.78 936.656 1750.78 936.634 1750.78Z" fill="#3D3D3D"/>
<path d="M604.246 1501.41H857.856L895.944 1425.53C895.944 1425.53 945.944 1476.98 1009.68 1468.2C1073.41 1459.42 1143.16 1404.44 1203.17 1404.99C1203.17 1404.99 1220.52 1408.68 1229.9 1423.07C1239.28 1437.47 1252.99 1435.31 1255.34 1426.15C1257.7 1416.99 1242.27 1390.97 1242.27 1390.97C1242.27 1390.97 1250.32 1402.75 1261.34 1422.59C1269.85 1437.92 1279.2 1421.54 1279.2 1421.54C1279.2 1421.54 1293.65 1412.01 1289.53 1388.87C1289.53 1388.87 1294.9 1381.68 1292.18 1371.76C1289.46 1361.84 1261.09 1307 1182.58 1317.21C1131.19 1323.9 1081.8 1336.22 1053.81 1343.94C1038.5 1348.16 1022.2 1342.14 1013.33 1328.97C1005.89 1317.93 997.661 1303.5 992.357 1287.57C978.077 1244.68 960.323 1139.34 899.903 1139.28C854.375 1139.23 814.188 1151.25 707.249 1317.21C633.391 1431.83 604.246 1501.41 604.246 1501.41Z" fill="white"/>
<path d="M604.244 1503.62C603.96 1503.62 603.672 1503.56 603.395 1503.44C602.273 1502.98 601.745 1501.69 602.215 1500.56C602.507 1499.87 632.281 1429.49 705.397 1316.02C812.284 1150.14 853.417 1137.07 899.658 1137.07C899.743 1137.07 899.82 1137.07 899.905 1137.07C919.347 1137.09 936.415 1147.77 950.637 1168.81C951.318 1169.82 951.053 1171.19 950.046 1171.87C949.038 1172.55 947.67 1172.29 946.987 1171.28C933.446 1151.24 918.044 1141.5 899.901 1141.48C899.824 1141.48 899.744 1141.48 899.668 1141.48C854.824 1141.48 814.794 1154.38 709.103 1318.4C636.221 1431.51 606.569 1501.57 606.278 1502.27C605.923 1503.11 605.106 1503.62 604.244 1503.62Z" fill="#3D3D3D"/>
<path d="M857.854 1503.62C857.523 1503.62 857.185 1503.54 856.868 1503.38C855.781 1502.84 855.342 1501.51 855.888 1500.43L893.975 1424.54C894.294 1423.91 894.903 1423.46 895.607 1423.36C896.307 1423.24 897.024 1423.48 897.521 1424C897.832 1424.31 929.048 1455.98 972.627 1464.75C973.82 1464.99 974.592 1466.15 974.352 1467.34C974.111 1468.53 972.944 1469.31 971.758 1469.06C933 1461.27 904.514 1436.69 896.561 1429.21L859.824 1502.4C859.438 1503.17 858.662 1503.62 857.854 1503.62Z" fill="#3D3D3D"/>
<path d="M1279.69 1422.76C1279.66 1422.76 1279.62 1422.76 1279.58 1422.75C1278.37 1422.69 1277.43 1421.66 1277.49 1420.45C1278.26 1404.77 1272.27 1388.62 1261.47 1377.23C1260.64 1376.35 1260.67 1374.95 1261.56 1374.12C1262.44 1373.28 1263.83 1373.32 1264.67 1374.2C1276.28 1386.44 1282.72 1403.81 1281.89 1420.66C1281.83 1421.84 1280.86 1422.76 1279.69 1422.76Z" fill="#3D3D3D"/>
<path d="M1289.65 1391.96C1288.73 1391.96 1287.87 1391.37 1287.56 1390.45C1283.49 1378.19 1276.34 1367.07 1266.87 1358.29C1265.98 1357.46 1265.93 1356.07 1266.75 1355.18C1267.58 1354.29 1268.97 1354.24 1269.87 1355.06C1279.88 1364.35 1287.44 1376.1 1291.74 1389.06C1292.13 1390.22 1291.5 1391.46 1290.35 1391.85C1290.12 1391.92 1289.88 1391.96 1289.65 1391.96Z" fill="#3D3D3D"/>
<path d="M1140.61 1421C1139.6 1421 1138.68 1420.3 1138.46 1419.27L1118.9 1328.44C1118.64 1327.25 1119.4 1326.08 1120.59 1325.82C1121.77 1325.56 1122.95 1326.32 1123.2 1327.51L1142.77 1418.34C1143.02 1419.53 1142.27 1420.7 1141.08 1420.95C1140.92 1420.99 1140.77 1421 1140.61 1421Z" fill="#3D3D3D"/>
<path d="M889.676 1423.94C889.054 1423.94 888.436 1423.68 888.001 1423.17C849.727 1378.39 823.717 1324.12 812.781 1266.23C812.555 1265.04 813.34 1263.89 814.536 1263.66C815.724 1263.44 816.882 1264.22 817.108 1265.41C827.901 1322.55 853.573 1376.11 891.349 1420.31C892.139 1421.24 892.03 1422.62 891.106 1423.41C890.691 1423.77 890.182 1423.94 889.676 1423.94Z" fill="#3D3D3D"/>
</svg>
