<svg width="547" height="373" viewBox="0 0 547 373" fill="none" xmlns="http://www.w3.org/2000/svg">
<path d="M508.375 373H30.6192C30.41 373 30.2402 372.801 30.2402 372.555C30.2402 372.309 30.41 372.11 30.6192 372.11H508.375C508.584 372.11 508.754 372.309 508.754 372.555C508.754 372.801 508.584 373 508.375 373Z" fill="#D4D4D8"/>
<path d="M339.429 372.566H207.572C203.288 372.566 199.814 369.087 199.814 364.796V320.467H347.187V364.796C347.187 369.087 343.714 372.566 339.429 372.566Z" fill="white"/>
<path d="M339.431 373H207.574C203.057 373 199.383 369.319 199.383 364.796V320.467C199.383 320.227 199.577 320.033 199.816 320.033H347.189C347.428 320.033 347.622 320.227 347.622 320.467V364.796C347.622 369.319 343.948 373 339.431 373ZM200.249 320.901V364.796C200.249 368.841 203.535 372.132 207.574 372.132H339.431C343.47 372.132 346.756 368.841 346.756 364.796V320.901H200.249Z" fill="#292929"/>
<path d="M341.079 343.896H205.921C205.682 343.896 205.488 343.701 205.488 343.462C205.488 343.222 205.682 343.028 205.921 343.028H341.079C341.318 343.028 341.512 343.222 341.512 343.462C341.512 343.701 341.318 343.896 341.079 343.896Z" fill="#292929"/>
<path d="M473.676 311.784V323.221C473.676 327.15 470.497 330.334 466.575 330.334H80.4274C76.5054 330.334 73.3262 327.15 73.3262 323.221V311.784H473.676Z" fill="white"/>
<path d="M466.574 330.768H80.427C76.2725 330.768 72.8926 327.383 72.8926 323.221V311.784C72.8926 311.544 73.0864 311.35 73.3258 311.35C73.5652 311.35 73.7589 311.544 73.7589 311.784V323.221C73.7589 326.904 76.7502 329.9 80.427 329.9H466.574C470.251 329.9 473.242 326.904 473.242 323.221V311.784C473.242 311.544 473.436 311.35 473.676 311.35C473.915 311.35 474.109 311.544 474.109 311.784V323.221C474.109 327.383 470.729 330.768 466.574 330.768Z" fill="#292929"/>
<path d="M473.676 313.362H73.3262V81.5114C73.3262 77.2439 76.7798 73.7847 81.0402 73.7847H465.962C470.222 73.7847 473.676 77.2439 473.676 81.5114V313.362Z" fill="white"/>
<path d="M473.676 313.796H73.3258C73.0864 313.796 72.8926 313.602 72.8926 313.362V81.5114C72.8926 77.0117 76.5474 73.3511 81.0398 73.3511H465.961C470.454 73.3511 474.109 77.0119 474.109 81.5114V313.362C474.109 313.602 473.915 313.796 473.676 313.796ZM73.7589 312.929H473.242V81.5114C473.242 77.4901 469.976 74.2189 465.961 74.2189H81.0398C77.0251 74.2189 73.7589 77.4904 73.7589 81.5114V312.929Z" fill="#292929"/>
<path d="M459.488 300.969H87.5094C87.2699 300.969 87.0762 300.775 87.0762 300.535V87.4017C87.0762 87.1622 87.2699 86.9678 87.5094 86.9678H459.488C459.727 86.9678 459.921 87.1622 459.921 87.4017V300.535C459.921 300.775 459.727 300.969 459.488 300.969ZM87.9425 300.101H459.055V87.8356H87.9425V300.101Z" fill="#292929"/>
<path d="M459.199 108.884H87.4996C87.2602 108.884 87.0664 108.69 87.0664 108.45C87.0664 108.21 87.2602 108.016 87.4996 108.016H459.199C459.438 108.016 459.632 108.21 459.632 108.45C459.632 108.69 459.438 108.884 459.199 108.884Z" fill="#292929"/>
<path d="M101.676 97.3024C101.676 98.23 100.925 98.9821 99.9992 98.9821C99.0731 98.9821 98.3223 98.23 98.3223 97.3024C98.3223 96.3747 99.0731 95.6227 99.9992 95.6227C100.925 95.6224 101.676 96.3744 101.676 97.3024Z" fill="#292929"/>
<path d="M107.775 99.1348C108.701 99.1348 109.452 98.3828 109.452 97.4551C109.452 96.5274 108.701 95.7754 107.775 95.7754C106.848 95.7754 106.098 96.5274 106.098 97.4551C106.098 98.3828 106.848 99.1348 107.775 99.1348Z" fill="#292929"/>
<path d="M117.227 97.6075C117.227 98.5352 116.476 99.2873 115.55 99.2873C114.624 99.2873 113.873 98.5352 113.873 97.6075C113.873 96.6799 114.624 95.9278 115.55 95.9278C116.476 95.9278 117.227 96.6799 117.227 97.6075Z" fill="#292929"/>
<path d="M271.118 118.062H194.093C191.598 118.062 189.576 116.036 189.576 113.538V36.6616C189.576 34.1632 191.598 32.1378 194.093 32.1378H271.118C273.612 32.1378 275.634 34.1632 275.634 36.6616V113.538C275.634 116.036 273.612 118.062 271.118 118.062Z" fill="white"/>
<path d="M271.116 118.496H194.09C191.361 118.496 189.141 116.272 189.141 113.538V36.6617C189.141 33.9279 191.361 31.7038 194.09 31.7038H271.116C273.845 31.7038 276.066 33.9279 276.066 36.6617V113.538C276.066 116.272 273.845 118.496 271.116 118.496ZM194.09 32.5716C191.839 32.5716 190.007 34.4063 190.007 36.6617V113.538C190.007 115.793 191.839 117.628 194.09 117.628H271.116C273.367 117.628 275.199 115.793 275.199 113.538V36.6617C275.199 34.4063 273.368 32.5716 271.116 32.5716H194.09Z" fill="#292929"/>
<path d="M218.702 60.1565L198.062 70.8513V74.5524L218.702 85.2472L220.845 80.9644L203.888 72.702L220.845 64.4393L218.702 60.1565Z" fill="#292929"/>
<path d="M223.498 96.6042H228.541L241.718 53.5956H236.676L223.498 96.6042Z" fill="#292929"/>
<path d="M246.509 60.1565L244.365 64.4393L261.323 72.702L244.365 80.9644L246.509 85.2472L267.148 74.5524V70.8513L246.509 60.1565Z" fill="#292929"/>
<path d="M475.22 350.245H398.194C395.7 350.245 393.678 348.22 393.678 345.722V268.845C393.678 266.347 395.7 264.321 398.194 264.321H475.22C477.714 264.321 479.736 266.347 479.736 268.845V345.722C479.736 348.22 477.714 350.245 475.22 350.245Z" fill="white"/>
<path d="M475.219 350.679H398.194C395.465 350.679 393.244 348.455 393.244 345.721V268.845C393.244 266.111 395.464 263.887 398.194 263.887H475.219C477.949 263.887 480.169 266.111 480.169 268.845V345.721C480.169 348.455 477.949 350.679 475.219 350.679ZM398.194 264.755C395.942 264.755 394.11 266.59 394.11 268.845V345.722C394.11 347.977 395.942 349.812 398.194 349.812H475.219C477.471 349.812 479.303 347.977 479.303 345.722V268.845C479.303 266.59 477.471 264.755 475.219 264.755H398.194Z" fill="#292929"/>
<path d="M415.619 324.715C415.619 320.441 416.199 317.79 416.199 313.898C416.199 311.677 414.964 309.432 410.781 309.36V305.205C414.964 305.134 416.199 302.889 416.199 300.716C416.199 296.776 415.619 294.125 415.619 289.85C415.619 283.522 418.038 281.612 423.33 281.612H426.731V285.361H425.32C422.309 285.361 421.49 286.579 421.49 290.161C421.49 293.564 421.792 296.584 421.792 300.429C421.792 304.632 420.52 306.447 417.559 307.163V307.402C420.52 308.119 421.792 309.981 421.792 314.136C421.792 317.981 421.49 321.002 421.49 324.405C421.49 327.987 422.309 329.205 425.32 329.205H426.731V332.954H423.33C418.038 332.954 415.619 331.044 415.619 324.715Z" fill="#070633"/>
<path d="M446.684 329.205H448.095C451.106 329.205 451.925 327.987 451.925 324.405C451.925 321.002 451.622 317.982 451.622 314.137C451.622 309.982 452.895 308.119 455.855 307.403V307.164C452.895 306.447 451.622 304.633 451.622 300.43C451.622 296.585 451.925 293.564 451.925 290.161C451.925 286.579 451.106 285.361 448.095 285.361H446.684V281.612H450.085C455.377 281.612 457.796 283.522 457.796 289.851C457.796 294.125 457.216 296.776 457.216 300.716C457.216 302.889 458.451 305.134 462.633 305.206V309.361C458.45 309.432 457.216 311.677 457.216 313.898C457.216 317.79 457.796 320.441 457.796 324.716C457.796 331.044 455.377 332.954 450.085 332.954H446.684V329.205Z" fill="#070633"/>
<path d="M493.478 0.433945H339.209V21.5699H493.478V0.433945Z" fill="white"/>
<path d="M493.477 22.0037H339.209C338.969 22.0037 338.775 21.8096 338.775 21.5698V0.43389C338.775 0.194093 338.969 0 339.209 0H493.477C493.716 0 493.91 0.194093 493.91 0.43389V21.5698C493.91 21.8093 493.716 22.0037 493.477 22.0037ZM339.642 21.1359H493.044V0.86778H339.642V21.1359Z" fill="#292929"/>
<path d="M493.478 21.5698V198.84H339.209V21.5698H493.478Z" fill="white"/>
<path d="M493.477 199.273H339.209C338.969 199.273 338.775 199.079 338.775 198.84V21.5698C338.775 21.33 338.969 21.1359 339.209 21.1359H493.477C493.716 21.1359 493.91 21.33 493.91 21.5698V198.84C493.91 199.079 493.716 199.273 493.477 199.273ZM339.642 198.406H493.044V22.0037H339.642V198.406Z" fill="#292929"/>
<path d="M459.781 13.5909C461.194 13.5909 462.339 12.4437 462.339 11.0286C462.339 9.61353 461.194 8.46637 459.781 8.46637C458.368 8.46637 457.223 9.61353 457.223 11.0286C457.223 12.4437 458.368 13.5909 459.781 13.5909Z" fill="#5A5A70"/>
<path d="M469.736 13.5909C471.149 13.5909 472.294 12.4437 472.294 11.0286C472.294 9.61353 471.149 8.46637 469.736 8.46637C468.323 8.46637 467.178 9.61353 467.178 11.0286C467.178 12.4437 468.323 13.5909 469.736 13.5909Z" fill="#5A5A70"/>
<path d="M479.693 13.5909C481.106 13.5909 482.251 12.4437 482.251 11.0286C482.251 9.61353 481.106 8.46637 479.693 8.46637C478.28 8.46637 477.135 9.61353 477.135 11.0286C477.135 12.4437 478.28 13.5909 479.693 13.5909Z" fill="#5A5A70"/>
<path d="M436.782 38.5998H363.633V41.6465H436.782V38.5998Z" fill="#292929"/>
<path d="M469.055 38.7383H448.77V41.785H469.055V38.7383Z" fill="#070633"/>
<path d="M436.782 49.4024H363.633V52.4491H436.782V49.4024Z" fill="#292929"/>
<path d="M395.903 63.3906L469.053 63.3906V60.3438L395.903 60.3438V63.3906Z" fill="#292929"/>
<path d="M363.631 63.2522H383.916V60.2054H363.631V63.2522Z" fill="#070633"/>
<path d="M411.272 71.0078H363.633V74.0546H411.272V71.0078Z" fill="#292929"/>
<path d="M469.055 71.1464H421.723V74.1931H469.055V71.1464Z" fill="#292929"/>
<path d="M418.649 81.8105H363.633V84.8573H418.649V81.8105Z" fill="#292929"/>
<path d="M469.051 81.9491H435.857V84.9959H469.051V81.9491Z" fill="#070633"/>
<path d="M436.782 92.6132H363.633V95.6599H436.782V92.6132Z" fill="#292929"/>
<path d="M454.916 103.416H363.633V106.463H454.916V103.416Z" fill="#292929"/>
<path d="M395.903 117.404L469.053 117.404V114.357L395.903 114.357V117.404Z" fill="#292929"/>
<path d="M363.631 117.265H383.916V114.219H363.631V117.265Z" fill="#070633"/>
<path d="M436.782 125.021H363.633V128.068H436.782V125.021Z" fill="#292929"/>
<path d="M469.055 125.16H448.77V128.207H469.055V125.16Z" fill="#070633"/>
<path d="M416.805 135.824H363.633V138.871H416.805V135.824Z" fill="#070633"/>
<path d="M436.782 146.627H363.633V149.673H436.782V146.627Z" fill="#292929"/>
<path d="M469.055 146.765H448.77V149.812H469.055V146.765Z" fill="#070633"/>
<path d="M413.729 160.615H469.053V157.568H413.729V160.615Z" fill="#292929"/>
<path d="M363.634 160.476H406.355V157.429H363.634V160.476Z" fill="#070633"/>
<path d="M395.903 171.417H469.053V168.37H395.903V171.417Z" fill="#292929"/>
<path d="M363.631 171.279H383.916V168.232H363.631V171.279Z" fill="#070633"/>
<path d="M436.782 179.035H363.633V182.082H436.782V179.035Z" fill="#292929"/>
<path d="M155.341 280.28H55.1862C52.692 280.28 50.6699 278.254 50.6699 275.756V175.786C50.6699 173.288 52.692 171.263 55.1862 171.263H155.341C157.835 171.263 159.857 173.288 159.857 175.786V275.756C159.857 278.254 157.835 280.28 155.341 280.28Z" fill="white"/>
<path d="M155.341 280.714H55.1861C52.4568 280.714 50.2363 278.49 50.2363 275.756V175.786C50.2363 173.053 52.4568 170.829 55.1861 170.829H155.341C158.07 170.829 160.291 173.053 160.291 175.786V275.756C160.29 278.49 158.07 280.714 155.341 280.714ZM55.1861 171.697C52.9345 171.697 51.1027 173.531 51.1027 175.786V275.756C51.1027 278.011 52.9345 279.846 55.1861 279.846H155.341C157.593 279.846 159.424 278.011 159.424 275.756V175.786C159.424 173.531 157.593 171.697 155.341 171.697H55.1861Z" fill="#292929"/>
<path d="M140.146 214.623H83.4609V204.239H140.146C142.857 204.239 145.055 206.441 145.055 209.156V209.706C145.055 212.422 142.857 214.623 140.146 214.623Z" fill="#E7ECF2"/>
<path d="M140.145 215.057H83.4605C83.2211 215.057 83.0273 214.863 83.0273 214.623V204.239C83.0273 204 83.2211 203.805 83.4605 203.805H140.145C143.091 203.805 145.488 206.206 145.488 209.157V209.706C145.488 212.657 143.091 215.057 140.145 215.057ZM83.8937 214.189H140.145C142.614 214.189 144.622 212.178 144.622 209.706V209.157C144.622 206.684 142.614 204.673 140.145 204.673H83.8937V214.189Z" fill="#292929"/>
<path d="M83.0248 219.663H68.3461C66.7581 219.663 65.4707 218.373 65.4707 216.783V202.08C65.4707 200.489 66.7581 199.199 68.3461 199.199H83.0248C84.6129 199.199 85.9003 200.489 85.9003 202.08V216.783C85.9003 218.373 84.6129 219.663 83.0248 219.663Z" fill="#070633"/>
<path d="M83.0247 220.096H68.346C66.5215 220.096 65.0371 218.61 65.0371 216.782V202.08C65.0371 200.252 66.5215 198.765 68.346 198.765H83.0247C84.8493 198.765 86.3336 200.252 86.3336 202.08V216.782C86.3333 218.61 84.8493 220.096 83.0247 220.096ZM68.346 199.633C66.9991 199.633 65.9035 200.731 65.9035 202.08V216.782C65.9035 218.131 66.9991 219.229 68.346 219.229H83.0247C84.3716 219.229 85.4673 218.131 85.4673 216.782V202.08C85.4673 200.731 84.3716 199.633 83.0247 199.633H68.346Z" fill="#292929"/>
<path d="M70.3801 236.919H127.065V247.304H70.3801C67.6687 247.304 65.4707 245.102 65.4707 242.386V241.837C65.4707 239.121 67.6687 236.919 70.3801 236.919Z" fill="#E7ECF2"/>
<path d="M127.064 247.737H70.3797C67.4337 247.737 65.0371 245.337 65.0371 242.386V241.837C65.0371 238.886 67.4337 236.485 70.3797 236.485H127.065C127.304 236.485 127.498 236.68 127.498 236.919V247.303C127.497 247.543 127.304 247.737 127.064 247.737ZM70.3797 237.353C67.9114 237.353 65.9035 239.364 65.9035 241.837V242.386C65.9035 244.858 67.9114 246.869 70.3797 246.869H126.631V237.353H70.3797Z" fill="#292929"/>
<path d="M127.502 231.88H142.181C143.769 231.88 145.057 233.169 145.057 234.76V249.463C145.057 251.053 143.769 252.343 142.181 252.343H127.502C125.914 252.343 124.627 251.053 124.627 249.463V234.76C124.627 233.169 125.914 231.88 127.502 231.88Z" fill="#070633"/>
<path d="M142.179 252.777H127.5C125.675 252.777 124.191 251.29 124.191 249.463V234.76C124.191 232.933 125.676 231.446 127.5 231.446H142.179C144.003 231.446 145.488 232.933 145.488 234.76V249.463C145.488 251.29 144.003 252.777 142.179 252.777ZM127.5 232.314C126.153 232.314 125.058 233.411 125.058 234.76V249.463C125.058 250.811 126.154 251.909 127.5 251.909H142.179C143.526 251.909 144.622 250.811 144.622 249.463V234.76C144.622 233.411 143.526 232.314 142.179 232.314H127.5Z" fill="#292929"/>
<path d="M141.311 141.155H41.157C38.6627 141.155 36.6406 139.129 36.6406 136.631V36.6613C36.6406 34.163 38.6627 32.1376 41.157 32.1376H141.312C143.806 32.1376 145.828 34.163 145.828 36.6613V136.631C145.828 139.13 143.806 141.155 141.311 141.155Z" fill="white"/>
<path d="M141.311 141.589H41.1565C38.4272 141.589 36.207 139.365 36.207 136.631V36.6617C36.207 33.9279 38.4275 31.7038 41.1565 31.7038H141.311C144.041 31.7038 146.261 33.9279 146.261 36.6617V136.631C146.261 139.365 144.04 141.589 141.311 141.589ZM41.1565 32.5716C38.9052 32.5716 37.0734 34.4063 37.0734 36.6617V136.631C37.0734 138.886 38.9052 140.721 41.1565 140.721H141.311C143.563 140.721 145.395 138.886 145.395 136.631V36.6617C145.395 34.4066 143.563 32.5716 141.311 32.5716H41.1565Z" fill="#292929"/>
<path d="M81.6245 41.4727C83.112 41.1461 84.5868 40.639 86.09 40.5314C89.0209 40.3211 91.5362 42.4226 92.2934 45.4865C92.6015 46.7332 92.8178 48.0047 93.1664 49.2393C93.7988 51.479 95.4065 52.68 97.6174 53.0622C99.8841 53.4538 101.701 52.5967 103.028 50.751C103.73 49.775 104.33 48.7262 104.982 47.7137C106.773 44.9319 110.505 44.1 113.292 45.8677C115.359 47.178 117.423 48.4927 119.477 49.8216C122.528 51.7943 123.269 55.181 121.328 58.2752C120.731 59.2263 120.07 60.1372 119.475 61.0894C118.19 63.1437 118.316 65.2522 119.625 67.1743C120.885 69.0241 122.739 69.8789 125.032 69.467C126.41 69.2191 127.772 68.8265 129.16 68.692C132.397 68.3782 134.326 69.4568 135.29 72.5675C136.176 75.4274 136.79 78.4062 137.174 81.3781C137.567 84.4121 135.687 86.6941 132.694 87.3938C131.523 87.6678 130.333 87.8714 129.173 88.1832C126.789 88.8242 125.456 90.4447 125.107 92.8565C124.775 95.1475 125.668 96.8885 127.594 98.1529C128.963 99.0513 130.431 99.8647 131.604 100.98C133.614 102.89 133.839 105.886 132.367 108.229C131.022 110.37 129.66 112.501 128.269 114.612C126.499 117.298 123.04 118.122 120.236 116.528C119.226 115.954 118.276 115.276 117.284 114.669C115.145 113.362 112.962 113.198 110.888 114.722C108.861 116.211 108.116 118.269 108.659 120.757C108.907 121.895 109.186 123.027 109.398 124.172C109.997 127.416 108.015 130.378 104.792 131.089C102.521 131.59 100.234 132.031 97.9802 132.599C94.8514 133.388 91.583 131.475 90.7204 128C90.44 126.87 90.219 125.725 89.9681 124.587C89.4688 122.324 87.743 120.649 85.515 120.277C83.0929 119.872 81.2005 120.71 79.8438 122.75C79.244 123.653 78.6872 124.584 78.0865 125.486C76.1251 128.431 72.5785 129.217 69.5853 127.35C67.5118 126.058 65.4542 124.738 63.4073 123.403C60.5243 121.523 59.7865 118.029 61.6321 115.101C62.1672 114.252 62.6989 113.4 63.2562 112.566C64.6369 110.498 64.8067 108.356 63.4278 106.27C62.0049 104.119 59.9225 103.357 57.3901 103.868C56.2604 104.096 55.1321 104.332 54.0021 104.561C50.6175 105.245 47.6289 103.304 46.8899 99.9411C46.433 97.8622 46.0911 95.75 45.4994 93.7104C44.5322 90.377 46.321 86.804 50.3914 85.8634C51.3291 85.6467 52.2714 85.4509 53.2108 85.2415C55.7975 84.6652 57.3592 83.1423 57.7667 80.7709C58.2028 78.235 57.2073 76.336 55.1249 74.9429C54.4249 74.4746 53.7174 74.0156 52.9971 73.5791C49.3856 71.3908 48.6191 67.9238 50.971 64.367C52.2099 62.4935 53.4476 60.6191 54.6908 58.7484C56.5798 55.9065 60.2315 55.1503 63.1116 56.9678C64.3949 57.7777 65.646 58.7123 67.0414 59.257C70.959 60.7863 75.0332 57.3663 74.3488 53.2169C74.0817 51.5973 73.6268 49.9975 73.4969 48.3695C73.256 45.3499 75.2458 42.8423 78.2084 42.1863C79.3439 41.9349 80.4803 41.6873 81.6161 41.438C81.6193 41.4495 81.6219 41.4611 81.6245 41.4727ZM72.7094 90.7385C74.8839 101.178 85.1179 107.668 95.3551 105.511C106.003 103.267 112.661 92.9933 110.233 82.3489C107.844 71.8742 97.6602 65.6427 87.4946 67.7826C76.8589 70.0212 70.3378 80.6035 72.7094 90.7385Z" fill="white"/>
<path d="M96.5592 133.211C95.4393 133.211 94.3341 132.906 93.3442 132.311C91.8286 131.401 90.7477 129.907 90.3004 128.104C90.1121 127.347 89.9486 126.573 89.7907 125.825C89.7101 125.444 89.6295 125.062 89.5455 124.681C89.0805 122.574 87.509 121.051 85.4439 120.705C83.1916 120.328 81.4774 121.076 80.2044 122.991C79.9093 123.435 79.6248 123.886 79.3401 124.337C79.0516 124.794 78.753 125.267 78.4469 125.727C76.3581 128.863 72.5345 129.701 69.3562 127.719C67.4346 126.521 65.4113 125.229 63.1707 123.767C60.0856 121.755 59.2845 118.013 61.2655 114.87L61.4645 114.554C61.9266 113.82 62.4045 113.06 62.896 112.325C64.2348 110.32 64.292 108.364 63.0664 106.51C61.7715 104.552 59.8906 103.807 57.4755 104.294C56.906 104.409 56.3371 104.526 55.7679 104.643C55.208 104.758 54.648 104.873 54.0878 104.986C50.4623 105.719 47.2585 103.637 46.467 100.035C46.3223 99.3775 46.1895 98.7169 46.0566 98.0562C45.7751 96.6576 45.484 95.2116 45.0834 93.8318C44.5656 92.0474 44.779 90.2132 45.6844 88.6677C46.6287 87.0559 48.2655 85.9099 50.294 85.4413C50.8678 85.3088 51.4433 85.1838 52.0189 85.0592C52.3851 84.9796 52.7513 84.9004 53.1171 84.8188C55.5421 84.2785 56.9632 82.892 57.3404 80.6983C57.7293 78.4345 56.9262 76.6701 54.8848 75.3047C54.0831 74.7685 53.412 74.3383 52.7735 73.9513C50.9048 72.8191 49.7141 71.3147 49.33 69.6011C48.9427 67.8734 49.3855 65.981 50.6108 64.1283L51.2816 63.1133C52.297 61.5776 53.3121 60.042 54.3312 58.5089C56.3588 55.4589 60.2334 54.6392 63.3434 56.6015C63.6431 56.7907 63.9408 56.9865 64.2394 57.1826C65.1887 57.8066 66.17 58.4519 67.1998 58.8537C68.8649 59.5036 70.697 59.2109 72.1008 58.0704C73.5424 56.8991 74.2234 55.1118 73.9227 53.2889C73.8263 52.704 73.7018 52.1073 73.5817 51.5302C73.37 50.514 73.1508 49.4631 73.0665 48.4053C72.8115 45.2099 74.8882 42.4787 78.1165 41.7636C78.8806 41.5944 79.6453 41.4269 80.41 41.2594L81.5247 41.015C81.5839 41.0023 81.6426 41.002 81.6986 41.0124C82.1003 40.9207 82.5078 40.8154 82.9031 40.7136C83.9266 40.4495 84.985 40.1764 86.0596 40.0992C89.1576 39.8762 91.8907 42.05 92.7143 45.3828C92.842 45.8992 92.9552 46.4253 93.0646 46.9339C93.2203 47.6573 93.3814 48.4053 93.5836 49.1218C94.1357 51.0775 95.5179 52.2594 97.6916 52.6352C99.7278 52.9857 101.404 52.2672 102.677 50.4978C103.135 49.8614 103.56 49.1756 103.97 48.5123C104.185 48.1667 104.399 47.8207 104.619 47.4791C106.541 44.4939 110.535 43.6065 113.525 45.5014C115.236 46.5867 117.486 48.0171 119.713 49.4574C122.972 51.5655 123.769 55.2021 121.695 58.5066C121.396 58.9833 121.077 59.455 120.77 59.9112C120.46 60.3705 120.139 60.8455 119.842 61.3199C118.69 63.1625 118.739 65.1026 119.983 66.9301C121.175 68.6807 122.895 69.4111 124.956 69.04C125.444 68.9523 125.943 68.8433 126.425 68.738C127.3 68.5468 128.205 68.3492 129.119 68.2604C132.672 67.9162 134.702 69.2048 135.704 72.439C136.559 75.1995 137.199 78.1884 137.604 81.3225C138.014 84.4882 136.126 87.0374 132.793 87.8167C132.329 87.9252 131.863 88.0224 131.397 88.1198C130.699 88.2656 129.978 88.416 129.285 88.6023C127.128 89.182 125.867 90.6344 125.536 92.9189C125.237 94.9863 125.988 96.5798 127.832 97.7901C128.147 97.9969 128.468 98.1994 128.789 98.4021C129.861 99.0793 130.97 99.7793 131.903 100.666C134.014 102.673 134.356 105.878 132.734 108.461C131.241 110.836 129.899 112.926 128.631 114.851C126.731 117.733 123.031 118.617 120.023 116.906C119.416 116.561 118.826 116.176 118.256 115.804C117.864 115.549 117.46 115.286 117.058 115.04C114.932 113.741 112.941 113.751 111.144 115.072C109.267 116.451 108.574 118.333 109.082 120.665C109.16 121.022 109.241 121.379 109.322 121.736C109.497 122.505 109.677 123.301 109.824 124.094C110.465 127.561 108.341 130.751 104.885 131.513C104.153 131.675 103.42 131.83 102.686 131.986C101.172 132.306 99.6068 132.637 98.086 133.021C97.5807 133.148 97.0684 133.211 96.5592 133.211ZM84.3629 119.743C84.7565 119.743 85.1643 119.779 85.5868 119.849C87.971 120.248 89.8571 122.071 90.3916 124.494C90.4759 124.877 90.5574 125.261 90.6382 125.645C90.7948 126.386 90.9568 127.152 91.141 127.895C91.5323 129.472 92.4729 130.776 93.7895 131.567C95.0304 132.313 96.4812 132.53 97.8746 132.179C99.4116 131.791 100.985 131.458 102.507 131.136C103.239 130.981 103.969 130.826 104.699 130.666C107.689 130.006 109.526 127.248 108.972 124.251C108.829 123.475 108.65 122.689 108.477 121.928C108.396 121.569 108.314 121.21 108.236 120.85C107.656 118.19 108.485 115.95 110.632 114.372C112.71 112.844 115.089 112.819 117.51 114.298C117.923 114.551 118.333 114.818 118.729 115.076C119.288 115.441 119.867 115.818 120.45 116.151C123.057 117.632 126.263 116.868 127.908 114.373C129.173 112.453 130.512 110.368 132.001 107.998C133.401 105.77 133.115 103.013 131.306 101.294C130.436 100.467 129.364 99.7903 128.327 99.1357C128.002 98.9301 127.677 98.7253 127.357 98.5152C125.232 97.1204 124.331 95.1954 124.679 92.7937C125.059 90.1713 126.574 88.4319 129.061 87.7635C129.777 87.5708 130.511 87.4178 131.22 87.2697C131.679 87.1737 132.139 87.0776 132.596 86.9706C135.465 86.2998 137.094 84.1263 136.746 81.433C136.346 78.3481 135.717 75.4083 134.877 72.695C133.996 69.8525 132.353 68.8178 129.202 69.1227C128.34 69.2063 127.46 69.3984 126.61 69.5843C126.12 69.6914 125.613 69.8022 125.109 69.8927C122.721 70.3214 120.647 69.4429 119.267 67.4175C117.814 65.2831 117.759 63.0147 119.108 60.8577C119.413 60.3706 119.737 59.8892 120.052 59.4235C120.355 58.9731 120.67 58.5074 120.961 58.0429C122.763 55.1726 122.072 52.0147 119.243 50.1848C117.019 48.7464 114.771 47.3174 113.061 46.233C110.473 44.5917 107.012 45.3609 105.346 47.9477C105.129 48.2853 104.918 48.6266 104.706 48.9679C104.288 49.6436 103.855 50.3428 103.38 51.0035C101.918 53.0361 99.8993 53.8949 97.544 53.4885C95.0492 53.0575 93.3912 51.6285 92.7496 49.3564C92.5399 48.6139 92.3759 47.852 92.2173 47.1155C92.109 46.6131 91.9973 46.0935 91.8728 45.5899C91.1526 42.6745 88.7857 40.7732 86.121 40.9635C85.1247 41.035 84.1504 41.2863 83.1185 41.5528C82.6608 41.6708 82.1875 41.7928 81.7171 41.8964C81.657 41.9091 81.5978 41.9094 81.5412 41.8984L80.5943 42.1061C79.8301 42.2736 79.066 42.4408 78.3025 42.61C75.5079 43.229 73.7096 45.583 73.9291 48.335C74.0091 49.3385 74.2225 50.3622 74.4287 51.3517C74.5508 51.9375 74.677 52.5432 74.7767 53.1463C75.1287 55.2807 74.3322 57.3732 72.6457 58.7435C70.997 60.0827 68.8436 60.4264 66.8844 59.6613C65.77 59.2262 64.75 58.5557 63.7635 57.9072C63.4695 57.7143 63.1764 57.521 62.8813 57.3351C60.1785 55.6296 56.8124 56.3409 55.052 58.9893C54.0335 60.5218 53.0184 62.0569 52.0036 63.5923L51.3325 64.6071C50.2408 66.2579 49.8406 67.9191 50.175 69.4108C50.5062 70.8883 51.5597 72.2016 53.2217 73.2085C53.8717 73.6022 54.553 74.0389 55.3656 74.5825C57.6892 76.1369 58.6408 78.2439 58.1937 80.8449C57.7574 83.3832 56.0668 85.0502 53.3049 85.6655C52.9375 85.7473 52.5699 85.8272 52.202 85.9067C51.6305 86.0308 51.0584 86.1546 50.4886 86.2865C48.6947 86.7013 47.2539 87.7027 46.4315 89.1068C45.648 90.4443 45.4646 92.0367 45.9151 93.5897C46.3255 95.0042 46.6203 96.4687 46.9054 97.8847C47.0376 98.5401 47.1696 99.1959 47.3128 99.8481C47.9984 102.967 50.7762 104.77 53.9162 104.136C54.4756 104.022 55.0347 103.908 55.5935 103.793C56.1635 103.676 56.7336 103.558 57.3043 103.443C60.059 102.887 62.3014 103.782 63.7887 106.031C65.2057 108.174 65.1459 110.517 63.616 112.807C63.1311 113.533 62.6563 114.287 62.1972 115.016L61.9982 115.333C60.2813 118.057 60.9733 121.298 63.6434 123.04C65.8789 124.498 67.8972 125.787 69.8139 126.982C72.6244 128.734 75.8781 128.02 77.726 125.245C78.0264 124.794 78.3218 124.326 78.6077 123.873C78.8962 123.416 79.1844 122.959 79.4833 122.51C80.7066 120.671 82.3443 119.743 84.3629 119.743ZM91.3735 106.362C87.6051 106.362 83.9136 105.268 80.6821 103.153C76.3312 100.304 73.3498 95.9293 72.2868 90.8322C71.1232 85.8529 72.0609 80.4709 74.8598 76.0658C77.7292 71.5493 82.1849 68.4565 87.4061 67.3576C98.0268 65.1208 108.241 71.6638 110.656 82.2519C111.849 87.4817 110.941 92.8108 108.1 97.257C105.237 101.737 100.743 104.819 95.4451 105.935C94.0901 106.221 92.7265 106.362 91.3735 106.362ZM91.5707 67.7886C90.2594 67.7886 88.9255 67.9246 87.584 68.2069C82.593 69.2575 78.3337 72.214 75.5905 76.5318C72.9152 80.7428 72.0188 85.8847 73.1315 90.6396C73.1323 90.643 73.1329 90.6465 73.1338 90.65C74.1489 95.522 76.9977 99.7041 81.156 102.426C85.3537 105.174 90.3645 106.119 95.2663 105.086C100.335 104.018 104.633 101.072 107.37 96.7892C110.085 92.5406 110.952 87.4467 109.812 82.4454C107.808 73.6603 100.188 67.7886 91.5707 67.7886Z" fill="#292929"/>
<path d="M102.154 128.654L101.656 128.78C99.1969 129.399 96.7021 127.905 96.0835 125.441L87.9062 92.8767L97.3094 90.5076L105.487 123.072C106.105 125.536 104.613 128.035 102.154 128.654Z" fill="#070633"/>
<path d="M105.856 83.348C107.446 89.6813 104.732 96.087 99.5602 99.4652C98.213 100.347 96.7032 101.021 95.056 101.436C93.4088 101.851 91.7604 101.973 90.157 101.834C84.0056 101.309 78.5883 96.9516 76.9979 90.6182C75.4076 84.2849 78.1225 77.8792 83.2935 74.501L85.0126 81.3474C85.6659 83.949 88.2996 85.5267 90.8966 84.8724C93.494 84.2181 95.069 81.58 94.4158 78.9787L92.6966 72.1322C98.8481 72.6575 104.265 77.0146 105.856 83.348Z" fill="#070633"/>
<path d="M103.03 123.253C103.368 124.598 102.553 125.963 101.21 126.302C99.8666 126.64 98.5041 125.824 98.1662 124.478C97.8283 123.133 98.6433 121.768 99.9864 121.43C101.33 121.092 102.692 121.908 103.03 123.253Z" fill="white"/>
<path d="M273.919 132.674C276.374 132.674 278.871 132.385 281.276 132.735C285.964 133.417 289.201 137.596 289.338 142.683C289.393 144.753 289.296 146.83 289.419 148.895C289.644 152.641 291.762 155.088 295.112 156.454C298.547 157.855 301.703 157.133 304.43 154.685C305.871 153.391 307.178 151.947 308.554 150.577C312.333 146.816 318.496 146.795 322.277 150.543C325.08 153.321 327.878 156.105 330.655 158.908C334.78 163.07 334.781 168.66 330.656 172.862C329.389 174.153 328.034 175.359 326.768 176.653C324.037 179.444 323.509 182.808 324.908 186.288C326.254 189.637 328.879 191.624 332.633 191.768C334.889 191.855 337.169 191.707 339.402 191.975C344.607 192.6 347.273 194.966 347.72 200.198C348.13 205.008 348.07 209.912 347.651 214.725C347.224 219.639 343.478 222.583 338.522 222.65C336.583 222.677 334.64 222.586 332.705 222.676C328.729 222.861 326.072 224.953 324.691 228.63C323.379 232.124 324.185 235.174 326.783 237.831C328.629 239.719 330.66 241.508 332.124 243.67C334.631 247.374 333.954 252.169 330.827 255.351C327.971 258.258 325.092 261.143 322.173 263.986C318.46 267.604 312.729 267.707 308.863 264.227C307.47 262.973 306.207 261.576 304.853 260.278C301.935 257.481 298.553 256.467 294.762 258.15C291.056 259.794 289.175 262.778 289.172 266.884C289.17 268.762 289.22 270.642 289.159 272.518C288.985 277.834 284.842 281.813 279.522 281.819C275.772 281.824 272.019 281.727 268.273 281.843C263.074 282.003 258.586 277.86 258.425 272.088C258.373 270.212 258.42 268.333 258.416 266.455C258.41 262.718 256.269 259.483 252.889 258.127C249.213 256.652 245.945 257.316 243.105 260.061C241.849 261.275 240.651 262.548 239.395 263.761C235.291 267.721 229.435 267.733 225.364 263.759C222.543 261.006 219.758 258.217 216.994 255.406C213.102 251.448 213.144 245.692 217.06 241.717C218.195 240.565 219.326 239.407 220.491 238.286C223.378 235.508 224.384 232.192 222.931 228.431C221.431 224.55 218.414 222.631 214.25 222.561C212.392 222.529 210.534 222.511 208.676 222.48C203.11 222.387 199.072 218.297 199.067 212.746C199.064 209.314 199.253 205.869 199.024 202.452C198.649 196.868 202.698 191.86 209.433 191.786C210.984 191.769 212.536 191.786 214.087 191.781C218.359 191.768 221.344 189.909 222.803 186.316C224.363 182.473 223.45 179.138 220.651 176.224C219.71 175.244 218.754 174.277 217.77 173.34C212.836 168.645 212.824 162.92 217.754 158.132C220.35 155.61 222.946 153.086 225.548 150.57C229.503 146.747 235.514 146.819 239.424 150.676C241.166 152.395 242.814 154.3 244.824 155.64C250.466 159.403 258.062 155.426 258.414 148.654C258.551 146.012 258.386 143.335 258.743 140.726C259.404 135.887 263.402 132.626 268.294 132.617C270.168 132.613 272.043 132.616 273.918 132.616C273.918 132.636 273.918 132.655 273.919 132.674ZM242.9 207.18C242.728 224.372 256.608 238.131 273.474 238.274C291.016 238.422 305.043 224.544 304.888 206.94C304.734 189.618 290.843 176.283 274.096 176.138C256.575 175.987 242.658 190.398 242.9 207.18Z" fill="#29815B"/>
</svg>
