<svg width="1176" height="784" viewBox="0 0 1176 784" fill="none" xmlns="http://www.w3.org/2000/svg">
<rect width="1176" height="784" fill="white"/>
<path d="M356 107L315.585 177L396.414 177L356 107ZM356 609L363 609L363 170L356 170L349 170L349 609L356 609Z" fill="black"/>
<path d="M978 609L908 568.585V649.415L978 609ZM349 609V616L915 616V609V602L349 602V609Z" fill="black"/>
<path d="M392.081 708C391.705 708 391.397 707.88 391.157 707.641C390.918 707.401 390.798 707.093 390.798 706.717V673.357C390.798 672.981 390.918 672.673 391.157 672.433C391.397 672.194 391.705 672.074 392.081 672.074H396.751C397.265 672.074 397.641 672.194 397.88 672.433C398.12 672.673 398.274 672.861 398.342 672.998L412.045 694.4V673.357C412.045 672.981 412.165 672.673 412.405 672.433C412.644 672.194 412.935 672.074 413.277 672.074H418.512C418.888 672.074 419.196 672.194 419.436 672.433C419.675 672.673 419.795 672.981 419.795 673.357V706.717C419.795 707.059 419.675 707.367 419.436 707.641C419.196 707.88 418.888 708 418.512 708H413.79C413.277 708 412.901 707.88 412.661 707.641C412.456 707.367 412.302 707.179 412.199 707.076L398.548 686.342V706.717C398.548 707.093 398.428 707.401 398.188 707.641C397.949 707.88 397.641 708 397.265 708H392.081ZM436.623 708.513C434.639 708.513 432.877 708.068 431.337 707.179C429.832 706.255 428.651 704.938 427.796 703.227C426.975 701.482 426.564 699.378 426.564 696.914V682.595C426.564 682.219 426.684 681.911 426.923 681.672C427.163 681.432 427.454 681.312 427.796 681.312H433.236C433.612 681.312 433.92 681.432 434.16 681.672C434.399 681.911 434.519 682.219 434.519 682.595V696.606C434.519 700.438 436.196 702.355 439.549 702.355C441.157 702.355 442.423 701.858 443.347 700.866C444.305 699.84 444.784 698.42 444.784 696.606V682.595C444.784 682.219 444.903 681.911 445.143 681.672C445.382 681.432 445.69 681.312 446.067 681.312H451.507C451.849 681.312 452.14 681.432 452.379 681.672C452.619 681.911 452.739 682.219 452.739 682.595V706.717C452.739 707.093 452.619 707.401 452.379 707.641C452.14 707.88 451.849 708 451.507 708H446.477C446.101 708 445.793 707.88 445.553 707.641C445.314 707.401 445.194 707.093 445.194 706.717V704.715C444.305 705.947 443.158 706.888 441.756 707.538C440.353 708.188 438.642 708.513 436.623 708.513ZM460.43 708C460.088 708 459.797 707.88 459.557 707.641C459.318 707.401 459.198 707.093 459.198 706.717V682.595C459.198 682.219 459.318 681.911 459.557 681.672C459.797 681.432 460.088 681.312 460.43 681.312H465.203C465.545 681.312 465.836 681.432 466.075 681.672C466.349 681.911 466.486 682.219 466.486 682.595V684.34C467.17 683.382 468.111 682.561 469.309 681.877C470.54 681.193 471.994 680.833 473.671 680.799C477.64 680.731 480.36 682.236 481.831 685.315C482.618 683.981 483.747 682.903 485.219 682.082C486.724 681.227 488.366 680.799 490.145 680.799C491.925 680.799 493.533 681.21 494.97 682.031C496.407 682.818 497.536 684.049 498.357 685.726C499.212 687.368 499.64 689.49 499.64 692.09V706.717C499.64 707.093 499.52 707.401 499.281 707.641C499.041 707.88 498.751 708 498.408 708H493.327C492.985 708 492.694 707.88 492.455 707.641C492.215 707.401 492.096 707.093 492.096 706.717V692.501C492.096 691.098 491.89 690.003 491.48 689.216C491.069 688.395 490.522 687.813 489.838 687.471C489.187 687.129 488.452 686.958 487.631 686.958C486.912 686.958 486.211 687.129 485.526 687.471C484.876 687.813 484.329 688.395 483.884 689.216C483.474 690.003 483.268 691.098 483.268 692.501V706.717C483.268 707.093 483.148 707.401 482.909 707.641C482.669 707.88 482.362 708 481.985 708H476.956C476.579 708 476.271 707.88 476.032 707.641C475.792 707.401 475.673 707.093 475.673 706.717V692.501C475.673 691.098 475.467 690.003 475.057 689.216C474.646 688.395 474.099 687.813 473.414 687.471C472.764 687.129 472.046 686.958 471.259 686.958C470.54 686.958 469.839 687.146 469.155 687.522C468.47 687.864 467.906 688.429 467.461 689.216C467.05 690.003 466.845 691.081 466.845 692.449V706.717C466.845 707.093 466.725 707.401 466.486 707.641C466.246 707.88 465.955 708 465.613 708H460.43ZM521.359 708.513C519.409 708.513 517.783 708.188 516.483 707.538C515.183 706.854 514.122 705.998 513.301 704.972V706.717C513.301 707.093 513.181 707.401 512.942 707.641C512.702 707.88 512.394 708 512.018 708H507.142C506.766 708 506.458 707.88 506.219 707.641C505.979 707.401 505.859 707.093 505.859 706.717V672.844C505.859 672.468 505.979 672.16 506.219 671.92C506.458 671.681 506.766 671.561 507.142 671.561H512.429C512.771 671.561 513.062 671.681 513.301 671.92C513.541 672.16 513.66 672.468 513.66 672.844V684.032C514.516 683.074 515.576 682.305 516.842 681.723C518.108 681.107 519.614 680.799 521.359 680.799C523.138 680.799 524.678 681.107 525.978 681.723C527.312 682.305 528.441 683.143 529.365 684.238C530.289 685.298 530.99 686.564 531.469 688.036C531.983 689.507 532.256 691.132 532.29 692.911C532.325 693.527 532.342 694.109 532.342 694.656C532.342 695.169 532.325 695.751 532.29 696.401C532.222 698.215 531.931 699.874 531.418 701.379C530.939 702.851 530.238 704.134 529.314 705.229C528.424 706.289 527.312 707.11 525.978 707.692C524.678 708.24 523.138 708.513 521.359 708.513ZM519.049 702.355C520.349 702.355 521.376 702.081 522.129 701.533C522.881 700.952 523.412 700.199 523.72 699.275C524.062 698.351 524.267 697.342 524.336 696.247C524.404 695.186 524.404 694.126 524.336 693.065C524.267 691.97 524.062 690.961 523.72 690.037C523.412 689.113 522.881 688.378 522.129 687.83C521.376 687.249 520.349 686.958 519.049 686.958C517.818 686.958 516.808 687.231 516.021 687.779C515.269 688.326 514.687 689.028 514.276 689.883C513.9 690.704 513.695 691.594 513.66 692.552C513.626 693.168 513.609 693.801 513.609 694.451C513.609 695.101 513.626 695.751 513.66 696.401C513.729 697.428 513.934 698.386 514.276 699.275C514.618 700.165 515.183 700.9 515.97 701.482C516.757 702.064 517.783 702.355 519.049 702.355ZM549.692 708.513C545.758 708.513 542.627 707.418 540.3 705.229C538.008 703.039 536.793 699.857 536.657 695.683C536.657 695.409 536.657 695.05 536.657 694.605C536.657 694.126 536.657 693.749 536.657 693.476C536.793 690.841 537.392 688.583 538.453 686.701C539.513 684.785 541.002 683.331 542.918 682.339C544.834 681.312 547.075 680.799 549.641 680.799C552.515 680.799 554.91 681.398 556.826 682.595C558.777 683.759 560.231 685.367 561.189 687.42C562.181 689.438 562.677 691.765 562.677 694.4V695.58C562.677 695.922 562.54 696.213 562.266 696.452C562.027 696.692 561.736 696.812 561.394 696.812H544.612C544.612 696.846 544.612 696.914 544.612 697.017C544.612 697.085 544.612 697.154 544.612 697.222C544.646 698.317 544.851 699.326 545.227 700.25C545.638 701.14 546.203 701.858 546.921 702.406C547.674 702.953 548.563 703.227 549.59 703.227C550.445 703.227 551.147 703.107 551.694 702.868C552.241 702.628 552.686 702.337 553.028 701.995C553.405 701.653 553.678 701.362 553.85 701.123C554.158 700.781 554.397 700.575 554.568 700.507C554.773 700.404 555.081 700.353 555.492 700.353H560.829C561.172 700.353 561.445 700.456 561.651 700.661C561.89 700.832 561.993 701.089 561.959 701.431C561.924 701.978 561.633 702.662 561.086 703.484C560.573 704.271 559.803 705.058 558.777 705.844C557.75 706.597 556.467 707.23 554.927 707.743C553.422 708.257 551.677 708.513 549.692 708.513ZM544.612 692.141H554.671V692.039C554.671 690.807 554.465 689.746 554.055 688.857C553.678 687.933 553.114 687.214 552.361 686.701C551.608 686.188 550.702 685.931 549.641 685.931C548.58 685.931 547.674 686.188 546.921 686.701C546.168 687.214 545.587 687.933 545.176 688.857C544.8 689.746 544.612 690.807 544.612 692.039V692.141ZM569.039 708C568.697 708 568.406 707.88 568.167 707.641C567.927 707.401 567.807 707.093 567.807 706.717V682.595C567.807 682.253 567.927 681.962 568.167 681.723C568.406 681.449 568.697 681.312 569.039 681.312H574.069C574.411 681.312 574.702 681.449 574.941 681.723C575.215 681.962 575.352 682.253 575.352 682.595V684.648C576.207 683.588 577.251 682.766 578.482 682.185C579.748 681.603 581.202 681.312 582.845 681.312H585.052C585.394 681.312 585.685 681.432 585.924 681.672C586.164 681.911 586.283 682.219 586.283 682.595V687.009C586.283 687.385 586.164 687.693 585.924 687.933C585.685 688.172 585.394 688.292 585.052 688.292H580.535C579.03 688.292 577.849 688.72 576.994 689.575C576.139 690.396 575.711 691.577 575.711 693.116V706.717C575.711 707.093 575.591 707.401 575.352 707.641C575.112 707.88 574.804 708 574.428 708H569.039ZM612.6 708.513C609.76 708.513 607.382 708.051 605.466 707.128C603.55 706.169 602.079 704.818 601.052 703.073C600.06 701.328 599.513 699.292 599.41 696.966C599.376 696.281 599.359 695.512 599.359 694.656C599.359 693.767 599.376 692.997 599.41 692.347C599.513 689.986 600.094 687.95 601.155 686.239C602.216 684.494 603.704 683.16 605.62 682.236C607.536 681.278 609.863 680.799 612.6 680.799C615.303 680.799 617.612 681.278 619.528 682.236C621.444 683.16 622.933 684.494 623.993 686.239C625.054 687.95 625.636 689.986 625.738 692.347C625.807 692.997 625.841 693.767 625.841 694.656C625.841 695.512 625.807 696.281 625.738 696.966C625.636 699.292 625.071 701.328 624.045 703.073C623.053 704.818 621.598 706.169 619.682 707.128C617.766 708.051 615.405 708.513 612.6 708.513ZM612.6 702.868C614.276 702.868 615.542 702.355 616.398 701.328C617.253 700.267 617.715 698.728 617.783 696.709C617.818 696.196 617.835 695.512 617.835 694.656C617.835 693.801 617.818 693.116 617.783 692.603C617.715 690.619 617.253 689.096 616.398 688.036C615.542 686.975 614.276 686.445 612.6 686.445C610.923 686.445 609.64 686.975 608.751 688.036C607.895 689.096 607.433 690.619 607.365 692.603C607.331 693.116 607.314 693.801 607.314 694.656C607.314 695.512 607.331 696.196 607.365 696.709C607.433 698.728 607.895 700.267 608.751 701.328C609.64 702.355 610.923 702.868 612.6 702.868ZM635.167 708C634.79 708 634.482 707.88 634.243 707.641C634.003 707.401 633.883 707.093 633.883 706.717V687.368H629.88C629.504 687.368 629.196 687.249 628.956 687.009C628.717 686.77 628.597 686.462 628.597 686.085V682.595C628.597 682.219 628.717 681.911 628.956 681.672C629.196 681.432 629.504 681.312 629.88 681.312H633.883V679.465C633.883 677.275 634.294 675.479 635.115 674.076C635.936 672.673 637.134 671.647 638.708 670.996C640.282 670.346 642.215 670.021 644.507 670.021H648.254C648.63 670.021 648.938 670.141 649.178 670.381C649.417 670.62 649.537 670.928 649.537 671.304V674.794C649.537 675.171 649.417 675.479 649.178 675.718C648.938 675.958 648.63 676.077 648.254 676.077H644.815C643.549 676.077 642.66 676.385 642.146 677.001C641.667 677.617 641.428 678.524 641.428 679.721V681.312H647.741C648.117 681.312 648.425 681.432 648.664 681.672C648.904 681.911 649.024 682.219 649.024 682.595V686.085C649.024 686.462 648.904 686.77 648.664 687.009C648.425 687.249 648.117 687.368 647.741 687.368H641.428V706.717C641.428 707.093 641.308 707.401 641.069 707.641C640.829 707.88 640.538 708 640.196 708H635.167ZM675.4 708.513C672.56 708.513 670.182 708.051 668.266 707.128C666.35 706.169 664.879 704.818 663.852 703.073C662.86 701.328 662.313 699.292 662.21 696.966C662.176 696.281 662.159 695.512 662.159 694.656C662.159 693.767 662.176 692.997 662.21 692.347C662.313 689.986 662.894 687.95 663.955 686.239C665.016 684.494 666.504 683.16 668.42 682.236C670.336 681.278 672.663 680.799 675.4 680.799C678.103 680.799 680.412 681.278 682.328 682.236C684.244 683.16 685.733 684.494 686.793 686.239C687.854 687.95 688.436 689.986 688.538 692.347C688.607 692.997 688.641 693.767 688.641 694.656C688.641 695.512 688.607 696.281 688.538 696.966C688.436 699.292 687.871 701.328 686.845 703.073C685.852 704.818 684.398 706.169 682.482 707.128C680.566 708.051 678.205 708.513 675.4 708.513ZM675.4 702.868C677.076 702.868 678.342 702.355 679.198 701.328C680.053 700.267 680.515 698.728 680.583 696.709C680.618 696.196 680.635 695.512 680.635 694.656C680.635 693.801 680.618 693.116 680.583 692.603C680.515 690.619 680.053 689.096 679.198 688.036C678.342 686.975 677.076 686.445 675.4 686.445C673.723 686.445 672.44 686.975 671.551 688.036C670.695 689.096 670.233 690.619 670.165 692.603C670.131 693.116 670.114 693.801 670.114 694.656C670.114 695.512 670.131 696.196 670.165 696.709C670.233 698.728 670.695 700.267 671.551 701.328C672.44 702.355 673.723 702.868 675.4 702.868ZM695.292 717.751C694.915 717.751 694.607 717.632 694.368 717.392C694.128 717.153 694.009 716.845 694.009 716.468V682.595C694.009 682.219 694.128 681.911 694.368 681.672C694.607 681.432 694.915 681.312 695.292 681.312H700.167C700.544 681.312 700.852 681.432 701.091 681.672C701.331 681.911 701.45 682.219 701.45 682.595V684.546C702.272 683.451 703.332 682.561 704.632 681.877C705.933 681.158 707.558 680.799 709.508 680.799C711.287 680.799 712.827 681.09 714.127 681.672C715.461 682.219 716.573 683.023 717.463 684.084C718.387 685.11 719.088 686.359 719.567 687.83C720.08 689.301 720.371 690.961 720.44 692.809C720.474 693.459 720.491 694.074 720.491 694.656C720.491 695.238 720.474 695.871 720.44 696.555C720.406 698.3 720.132 699.908 719.619 701.379C719.14 702.851 718.438 704.117 717.514 705.177C716.591 706.238 715.461 707.059 714.127 707.641C712.827 708.222 711.287 708.513 709.508 708.513C707.763 708.513 706.24 708.205 704.94 707.589C703.674 706.939 702.631 706.067 701.81 704.972V716.468C701.81 716.845 701.69 717.153 701.45 717.392C701.211 717.632 700.92 717.751 700.578 717.751H695.292ZM707.199 702.355C708.499 702.355 709.525 702.081 710.278 701.533C711.031 700.952 711.561 700.199 711.869 699.275C712.211 698.351 712.416 697.342 712.485 696.247C712.553 695.186 712.553 694.126 712.485 693.065C712.416 691.97 712.211 690.961 711.869 690.037C711.561 689.113 711.031 688.378 710.278 687.83C709.525 687.249 708.499 686.958 707.199 686.958C705.933 686.958 704.906 687.249 704.119 687.83C703.332 688.412 702.768 689.148 702.426 690.037C702.083 690.927 701.878 691.885 701.81 692.911C701.775 693.527 701.758 694.16 701.758 694.81C701.758 695.46 701.775 696.11 701.81 696.76C701.844 697.718 702.049 698.625 702.426 699.48C702.836 700.302 703.418 700.986 704.17 701.533C704.957 702.081 705.967 702.355 707.199 702.355ZM738.615 708C736.494 708 734.68 707.658 733.175 706.974C731.669 706.255 730.523 705.16 729.736 703.689C728.984 702.218 728.607 700.37 728.607 698.146V687.368H724.604C724.228 687.368 723.92 687.249 723.68 687.009C723.441 686.77 723.321 686.462 723.321 686.085V682.595C723.321 682.219 723.441 681.911 723.68 681.672C723.92 681.432 724.228 681.312 724.604 681.312H728.607V672.844C728.607 672.468 728.727 672.16 728.966 671.92C729.24 671.681 729.548 671.561 729.89 671.561H734.92C735.296 671.561 735.604 671.681 735.844 671.92C736.083 672.16 736.203 672.468 736.203 672.844V681.312H742.618C742.96 681.312 743.251 681.432 743.491 681.672C743.73 681.911 743.85 682.219 743.85 682.595V686.085C743.85 686.462 743.73 686.77 743.491 687.009C743.251 687.249 742.96 687.368 742.618 687.368H736.203V697.53C736.203 698.83 736.425 699.857 736.87 700.61C737.349 701.328 738.17 701.687 739.334 701.687H743.08C743.422 701.687 743.713 701.807 743.953 702.047C744.192 702.286 744.312 702.577 744.312 702.919V706.717C744.312 707.093 744.192 707.401 743.953 707.641C743.713 707.88 743.422 708 743.08 708H738.615ZM750.021 708C749.679 708 749.388 707.88 749.149 707.641C748.909 707.401 748.789 707.093 748.789 706.717V682.595C748.789 682.219 748.909 681.911 749.149 681.672C749.388 681.432 749.679 681.312 750.021 681.312H755.153C755.53 681.312 755.838 681.432 756.077 681.672C756.317 681.911 756.436 682.219 756.436 682.595V706.717C756.436 707.093 756.317 707.401 756.077 707.641C755.838 707.88 755.53 708 755.153 708H750.021ZM749.867 677.206C749.525 677.206 749.234 677.087 748.995 676.847C748.755 676.608 748.635 676.3 748.635 675.923V671.818C748.635 671.441 748.755 671.133 748.995 670.894C749.234 670.62 749.525 670.483 749.867 670.483H755.256C755.632 670.483 755.94 670.62 756.18 670.894C756.454 671.133 756.59 671.441 756.59 671.818V675.923C756.59 676.3 756.454 676.608 756.18 676.847C755.94 677.087 755.632 677.206 755.256 677.206H749.867ZM775.088 708.513C772.248 708.513 769.87 708.051 767.954 707.128C766.038 706.169 764.567 704.818 763.54 703.073C762.548 701.328 762.001 699.292 761.898 696.966C761.864 696.281 761.847 695.512 761.847 694.656C761.847 693.767 761.864 692.997 761.898 692.347C762.001 689.986 762.582 687.95 763.643 686.239C764.704 684.494 766.192 683.16 768.108 682.236C770.024 681.278 772.351 680.799 775.088 680.799C777.791 680.799 780.1 681.278 782.016 682.236C783.932 683.16 785.421 684.494 786.481 686.239C787.542 687.95 788.124 689.986 788.226 692.347C788.295 692.997 788.329 693.767 788.329 694.656C788.329 695.512 788.295 696.281 788.226 696.966C788.124 699.292 787.559 701.328 786.533 703.073C785.54 704.818 784.086 706.169 782.17 707.128C780.254 708.051 777.893 708.513 775.088 708.513ZM775.088 702.868C776.764 702.868 778.03 702.355 778.886 701.328C779.741 700.267 780.203 698.728 780.271 696.709C780.306 696.196 780.323 695.512 780.323 694.656C780.323 693.801 780.306 693.116 780.271 692.603C780.203 690.619 779.741 689.096 778.886 688.036C778.03 686.975 776.764 686.445 775.088 686.445C773.411 686.445 772.128 686.975 771.239 688.036C770.383 689.096 769.921 690.619 769.853 692.603C769.819 693.116 769.802 693.801 769.802 694.656C769.802 695.512 769.819 696.196 769.853 696.709C769.921 698.728 770.383 700.267 771.239 701.328C772.128 702.355 773.411 702.868 775.088 702.868ZM794.928 708C794.586 708 794.295 707.88 794.056 707.641C793.816 707.401 793.697 707.093 793.697 706.717V682.595C793.697 682.219 793.816 681.911 794.056 681.672C794.295 681.432 794.586 681.312 794.928 681.312H799.958C800.334 681.312 800.642 681.432 800.882 681.672C801.121 681.911 801.241 682.219 801.241 682.595V684.597C802.131 683.502 803.277 682.595 804.68 681.877C806.082 681.158 807.793 680.799 809.812 680.799C811.831 680.799 813.593 681.261 815.098 682.185C816.638 683.074 817.835 684.392 818.691 686.137C819.58 687.847 820.025 689.934 820.025 692.398V706.717C820.025 707.093 819.888 707.401 819.615 707.641C819.375 707.88 819.084 708 818.742 708H813.302C812.925 708 812.618 707.88 812.378 707.641C812.139 707.401 812.019 707.093 812.019 706.717V692.706C812.019 690.892 811.574 689.49 810.684 688.497C809.829 687.471 808.563 686.958 806.887 686.958C805.278 686.958 803.995 687.471 803.037 688.497C802.079 689.49 801.6 690.892 801.6 692.706V706.717C801.6 707.093 801.481 707.401 801.241 707.641C801.002 707.88 800.711 708 800.369 708H794.928ZM836.695 708.513C834.574 708.513 832.743 708.274 831.204 707.795C829.698 707.281 828.467 706.666 827.509 705.947C826.585 705.229 825.883 704.51 825.404 703.792C824.96 703.039 824.72 702.406 824.686 701.893C824.652 701.516 824.771 701.208 825.045 700.969C825.319 700.729 825.593 700.61 825.866 700.61H830.845C830.947 700.61 831.05 700.627 831.152 700.661C831.255 700.695 831.358 700.781 831.46 700.917C831.905 701.225 832.367 701.585 832.846 701.995C833.325 702.372 833.873 702.697 834.488 702.97C835.139 703.244 835.943 703.381 836.901 703.381C838.03 703.381 838.988 703.159 839.775 702.714C840.562 702.235 840.955 701.568 840.955 700.712C840.955 700.096 840.767 699.583 840.391 699.173C840.048 698.762 839.381 698.386 838.389 698.043C837.397 697.701 835.925 697.325 833.975 696.914C832.128 696.504 830.554 695.956 829.254 695.272C827.953 694.588 826.978 693.732 826.328 692.706C825.678 691.645 825.353 690.379 825.353 688.908C825.353 687.574 825.764 686.291 826.585 685.059C827.44 683.827 828.689 682.818 830.331 682.031C831.974 681.21 834.027 680.799 836.49 680.799C838.372 680.799 840.014 681.039 841.417 681.518C842.854 681.962 844.052 682.544 845.01 683.263C845.968 683.947 846.686 684.665 847.165 685.418C847.678 686.137 847.952 686.77 847.986 687.317C848.02 687.659 847.918 687.95 847.678 688.19C847.439 688.429 847.165 688.549 846.857 688.549H842.289C842.118 688.549 841.964 688.532 841.828 688.497C841.691 688.429 841.571 688.343 841.468 688.241C841.058 687.967 840.63 687.659 840.185 687.317C839.775 686.941 839.279 686.616 838.697 686.342C838.115 686.068 837.362 685.931 836.439 685.931C835.31 685.931 834.437 686.188 833.821 686.701C833.24 687.18 832.949 687.796 832.949 688.549C832.949 689.028 833.103 689.473 833.411 689.883C833.719 690.294 834.352 690.67 835.31 691.012C836.268 691.354 837.722 691.714 839.672 692.09C841.999 692.501 843.846 693.116 845.215 693.938C846.583 694.759 847.559 695.717 848.14 696.812C848.756 697.872 849.064 699.019 849.064 700.25C849.064 701.858 848.585 703.295 847.627 704.561C846.669 705.793 845.266 706.768 843.419 707.487C841.605 708.171 839.364 708.513 836.695 708.513Z" fill="black"/>
<path d="M100.985 336C100.608 336 100.3 335.88 100.061 335.641C99.8213 335.401 99.7015 335.093 99.7015 334.717V307.208H90.3608C90.0187 307.208 89.7279 307.088 89.4884 306.849C89.2488 306.609 89.1291 306.318 89.1291 305.976V301.357C89.1291 300.981 89.2488 300.673 89.4884 300.433C89.7279 300.194 90.0187 300.074 90.3608 300.074H117.254C117.63 300.074 117.938 300.194 118.178 300.433C118.417 300.673 118.537 300.981 118.537 301.357V305.976C118.537 306.318 118.417 306.609 118.178 306.849C117.938 307.088 117.63 307.208 117.254 307.208H107.964V334.717C107.964 335.093 107.845 335.401 107.605 335.641C107.366 335.88 107.058 336 106.681 336H100.985ZM123.74 336C123.398 336 123.107 335.88 122.867 335.641C122.628 335.401 122.508 335.093 122.508 334.717V310.595C122.508 310.219 122.628 309.911 122.867 309.672C123.107 309.432 123.398 309.312 123.74 309.312H128.872C129.248 309.312 129.556 309.432 129.796 309.672C130.035 309.911 130.155 310.219 130.155 310.595V334.717C130.155 335.093 130.035 335.401 129.796 335.641C129.556 335.88 129.248 336 128.872 336H123.74ZM123.586 305.206C123.244 305.206 122.953 305.087 122.713 304.847C122.474 304.608 122.354 304.3 122.354 303.923V299.818C122.354 299.441 122.474 299.133 122.713 298.894C122.953 298.62 123.244 298.483 123.586 298.483H128.975C129.351 298.483 129.659 298.62 129.898 298.894C130.172 299.133 130.309 299.441 130.309 299.818V303.923C130.309 304.3 130.172 304.608 129.898 304.847C129.659 305.087 129.351 305.206 128.975 305.206H123.586ZM137.823 336C137.481 336 137.19 335.88 136.951 335.641C136.711 335.401 136.592 335.093 136.592 334.717V310.595C136.592 310.219 136.711 309.911 136.951 309.672C137.19 309.432 137.481 309.312 137.823 309.312H142.596C142.939 309.312 143.229 309.432 143.469 309.672C143.743 309.911 143.879 310.219 143.879 310.595V312.34C144.564 311.382 145.505 310.561 146.702 309.877C147.934 309.193 149.388 308.833 151.065 308.799C155.034 308.731 157.754 310.236 159.225 313.315C160.012 311.981 161.141 310.903 162.612 310.082C164.118 309.227 165.76 308.799 167.539 308.799C169.318 308.799 170.926 309.21 172.363 310.031C173.8 310.818 174.93 312.049 175.751 313.726C176.606 315.368 177.034 317.49 177.034 320.09V334.717C177.034 335.093 176.914 335.401 176.675 335.641C176.435 335.88 176.144 336 175.802 336H170.721C170.379 336 170.088 335.88 169.849 335.641C169.609 335.401 169.489 335.093 169.489 334.717V320.501C169.489 319.098 169.284 318.003 168.873 317.216C168.463 316.395 167.915 315.813 167.231 315.471C166.581 315.129 165.845 314.958 165.024 314.958C164.306 314.958 163.604 315.129 162.92 315.471C162.27 315.813 161.723 316.395 161.278 317.216C160.867 318.003 160.662 319.098 160.662 320.501V334.717C160.662 335.093 160.542 335.401 160.303 335.641C160.063 335.88 159.755 336 159.379 336H154.349C153.973 336 153.665 335.88 153.425 335.641C153.186 335.401 153.066 335.093 153.066 334.717V320.501C153.066 319.098 152.861 318.003 152.45 317.216C152.04 316.395 151.492 315.813 150.808 315.471C150.158 315.129 149.439 314.958 148.652 314.958C147.934 314.958 147.232 315.146 146.548 315.522C145.864 315.864 145.299 316.429 144.855 317.216C144.444 318.003 144.239 319.081 144.239 320.449V334.717C144.239 335.093 144.119 335.401 143.879 335.641C143.64 335.88 143.349 336 143.007 336H137.823ZM195.16 336.513C191.225 336.513 188.094 335.418 185.768 333.229C183.475 331.039 182.261 327.857 182.124 323.683C182.124 323.409 182.124 323.05 182.124 322.605C182.124 322.126 182.124 321.749 182.124 321.476C182.261 318.841 182.86 316.583 183.92 314.701C184.981 312.785 186.469 311.331 188.385 310.339C190.301 309.312 192.542 308.799 195.109 308.799C197.983 308.799 200.378 309.398 202.294 310.595C204.244 311.759 205.698 313.367 206.656 315.42C207.648 317.438 208.144 319.765 208.144 322.4V323.58C208.144 323.922 208.008 324.213 207.734 324.452C207.494 324.692 207.204 324.812 206.861 324.812H190.079C190.079 324.846 190.079 324.914 190.079 325.017C190.079 325.085 190.079 325.154 190.079 325.222C190.113 326.317 190.318 327.326 190.695 328.25C191.105 329.14 191.67 329.858 192.388 330.406C193.141 330.953 194.031 331.227 195.057 331.227C195.913 331.227 196.614 331.107 197.161 330.868C197.709 330.628 198.154 330.337 198.496 329.995C198.872 329.653 199.146 329.362 199.317 329.123C199.625 328.781 199.864 328.575 200.035 328.507C200.241 328.404 200.549 328.353 200.959 328.353H206.297C206.639 328.353 206.913 328.456 207.118 328.661C207.358 328.832 207.46 329.089 207.426 329.431C207.392 329.978 207.101 330.662 206.553 331.484C206.04 332.271 205.27 333.058 204.244 333.844C203.217 334.597 201.934 335.23 200.395 335.743C198.889 336.257 197.144 336.513 195.16 336.513ZM190.079 320.141H200.138V320.039C200.138 318.807 199.933 317.746 199.522 316.857C199.146 315.933 198.581 315.214 197.829 314.701C197.076 314.188 196.169 313.931 195.109 313.931C194.048 313.931 193.141 314.188 192.388 314.701C191.636 315.214 191.054 315.933 190.643 316.857C190.267 317.746 190.079 318.807 190.079 320.039V320.141ZM104.064 387C101.943 387 100.129 386.658 98.6238 385.974C97.1183 385.255 95.9721 384.16 95.1852 382.689C94.4324 381.218 94.0561 379.37 94.0561 377.146V366.368H90.0529C89.6765 366.368 89.3686 366.249 89.1291 366.009C88.8896 365.77 88.7698 365.462 88.7698 365.085V361.595C88.7698 361.219 88.8896 360.911 89.1291 360.672C89.3686 360.432 89.6765 360.312 90.0529 360.312H94.0561V351.844C94.0561 351.468 94.1758 351.16 94.4153 350.92C94.689 350.681 94.997 350.561 95.3391 350.561H100.369C100.745 350.561 101.053 350.681 101.293 350.92C101.532 351.16 101.652 351.468 101.652 351.844V360.312H108.067C108.409 360.312 108.7 360.432 108.94 360.672C109.179 360.911 109.299 361.219 109.299 361.595V365.085C109.299 365.462 109.179 365.77 108.94 366.009C108.7 366.249 108.409 366.368 108.067 366.368H101.652V376.53C101.652 377.83 101.874 378.857 102.319 379.61C102.798 380.328 103.619 380.687 104.782 380.687H108.529C108.871 380.687 109.162 380.807 109.401 381.047C109.641 381.286 109.761 381.577 109.761 381.919V385.717C109.761 386.093 109.641 386.401 109.401 386.641C109.162 386.88 108.871 387 108.529 387H104.064ZM122.091 387.513C120.277 387.513 118.652 387.171 117.215 386.487C115.778 385.768 114.632 384.81 113.776 383.613C112.921 382.415 112.493 381.081 112.493 379.61C112.493 377.18 113.468 375.264 115.419 373.861C117.403 372.459 120.003 371.501 123.22 370.987L129.943 370.012V369.088C129.943 367.754 129.635 366.728 129.019 366.009C128.403 365.291 127.325 364.931 125.786 364.931C124.657 364.931 123.75 365.154 123.066 365.599C122.381 366.043 121.851 366.625 121.475 367.343C121.201 367.788 120.808 368.011 120.294 368.011H115.419C115.042 368.011 114.751 367.908 114.546 367.703C114.341 367.463 114.255 367.19 114.29 366.882C114.29 366.3 114.512 365.616 114.957 364.829C115.402 364.042 116.086 363.272 117.01 362.519C117.933 361.732 119.114 361.082 120.551 360.569C121.988 360.056 123.75 359.799 125.837 359.799C127.993 359.799 129.84 360.056 131.38 360.569C132.92 361.082 134.151 361.801 135.075 362.724C135.999 363.648 136.683 364.726 137.128 365.958C137.573 367.155 137.795 368.455 137.795 369.858V385.717C137.795 386.093 137.676 386.401 137.436 386.641C137.197 386.88 136.889 387 136.512 387H131.483C131.14 387 130.85 386.88 130.61 386.641C130.371 386.401 130.251 386.093 130.251 385.717V383.818C129.806 384.468 129.207 385.084 128.455 385.666C127.702 386.213 126.795 386.658 125.734 387C124.708 387.342 123.493 387.513 122.091 387.513ZM124.143 382.176C125.273 382.176 126.282 381.936 127.172 381.457C128.061 380.978 128.763 380.243 129.276 379.25C129.789 378.258 130.046 377.009 130.046 375.504V374.631L125.273 375.401C123.425 375.709 122.073 376.171 121.218 376.787C120.363 377.403 119.935 378.155 119.935 379.045C119.935 379.695 120.123 380.26 120.5 380.739C120.91 381.218 121.441 381.577 122.091 381.816C122.741 382.056 123.425 382.176 124.143 382.176ZM145.292 387C144.916 387 144.608 386.88 144.369 386.641C144.129 386.401 144.009 386.093 144.009 385.717V351.844C144.009 351.468 144.129 351.16 144.369 350.92C144.608 350.681 144.916 350.561 145.292 350.561H150.322C150.664 350.561 150.955 350.681 151.194 350.92C151.434 351.16 151.554 351.468 151.554 351.844V369.191L159.457 361.185C159.731 360.945 159.971 360.74 160.176 360.569C160.415 360.398 160.775 360.312 161.254 360.312H167.053C167.395 360.312 167.669 360.432 167.874 360.672C168.08 360.877 168.182 361.133 168.182 361.441C168.182 361.578 168.148 361.732 168.08 361.903C168.011 362.074 167.891 362.211 167.72 362.314L157.815 372.27L169.003 385.05C169.311 385.323 169.465 385.597 169.465 385.871C169.465 386.179 169.346 386.453 169.106 386.692C168.901 386.897 168.644 387 168.336 387H162.383C161.87 387 161.493 386.914 161.254 386.743C161.048 386.572 160.809 386.367 160.535 386.128L151.554 376.068V385.717C151.554 386.093 151.434 386.401 151.194 386.641C150.955 386.88 150.664 387 150.322 387H145.292ZM183.833 387.513C179.898 387.513 176.767 386.418 174.441 384.229C172.148 382.039 170.934 378.857 170.797 374.683C170.797 374.409 170.797 374.05 170.797 373.605C170.797 373.126 170.797 372.749 170.797 372.476C170.934 369.841 171.533 367.583 172.593 365.701C173.654 363.785 175.142 362.331 177.058 361.339C178.974 360.312 181.215 359.799 183.781 359.799C186.656 359.799 189.051 360.398 190.967 361.595C192.917 362.759 194.371 364.367 195.329 366.42C196.321 368.438 196.817 370.765 196.817 373.4V374.58C196.817 374.922 196.681 375.213 196.407 375.452C196.167 375.692 195.876 375.812 195.534 375.812H178.752C178.752 375.846 178.752 375.914 178.752 376.017C178.752 376.085 178.752 376.154 178.752 376.222C178.786 377.317 178.991 378.326 179.368 379.25C179.778 380.14 180.343 380.858 181.061 381.406C181.814 381.953 182.704 382.227 183.73 382.227C184.586 382.227 185.287 382.107 185.834 381.868C186.382 381.628 186.827 381.337 187.169 380.995C187.545 380.653 187.819 380.362 187.99 380.123C188.298 379.781 188.537 379.575 188.708 379.507C188.914 379.404 189.222 379.353 189.632 379.353H194.97C195.312 379.353 195.586 379.456 195.791 379.661C196.03 379.832 196.133 380.089 196.099 380.431C196.065 380.978 195.774 381.662 195.226 382.484C194.713 383.271 193.943 384.058 192.917 384.844C191.89 385.597 190.607 386.23 189.068 386.743C187.562 387.257 185.817 387.513 183.833 387.513ZM178.752 371.141H188.811V371.039C188.811 369.807 188.606 368.746 188.195 367.857C187.819 366.933 187.254 366.214 186.502 365.701C185.749 365.188 184.842 364.931 183.781 364.931C182.721 364.931 181.814 365.188 181.061 365.701C180.309 366.214 179.727 366.933 179.316 367.857C178.94 368.746 178.752 369.807 178.752 371.039V371.141ZM203.179 387C202.837 387 202.546 386.88 202.307 386.641C202.067 386.401 201.948 386.093 201.948 385.717V361.595C201.948 361.219 202.067 360.911 202.307 360.672C202.546 360.432 202.837 360.312 203.179 360.312H208.209C208.585 360.312 208.893 360.432 209.133 360.672C209.372 360.911 209.492 361.219 209.492 361.595V363.597C210.382 362.502 211.528 361.595 212.931 360.877C214.333 360.158 216.044 359.799 218.063 359.799C220.082 359.799 221.844 360.261 223.349 361.185C224.889 362.074 226.086 363.392 226.942 365.137C227.831 366.847 228.276 368.934 228.276 371.398V385.717C228.276 386.093 228.139 386.401 227.866 386.641C227.626 386.88 227.335 387 226.993 387H221.553C221.177 387 220.869 386.88 220.629 386.641C220.39 386.401 220.27 386.093 220.27 385.717V371.706C220.27 369.892 219.825 368.49 218.935 367.497C218.08 366.471 216.814 365.958 215.138 365.958C213.529 365.958 212.246 366.471 211.288 367.497C210.33 368.49 209.851 369.892 209.851 371.706V385.717C209.851 386.093 209.732 386.401 209.492 386.641C209.253 386.88 208.962 387 208.62 387H203.179ZM257.53 387C255.409 387 253.596 386.658 252.09 385.974C250.585 385.255 249.439 384.16 248.652 382.689C247.899 381.218 247.522 379.37 247.522 377.146V366.368H243.519C243.143 366.368 242.835 366.249 242.596 366.009C242.356 365.77 242.236 365.462 242.236 365.085V361.595C242.236 361.219 242.356 360.911 242.596 360.672C242.835 360.432 243.143 360.312 243.519 360.312H247.522V351.844C247.522 351.468 247.642 351.16 247.882 350.92C248.155 350.681 248.463 350.561 248.806 350.561H253.835C254.212 350.561 254.519 350.681 254.759 350.92C254.998 351.16 255.118 351.468 255.118 351.844V360.312H261.534C261.876 360.312 262.167 360.432 262.406 360.672C262.646 360.911 262.765 361.219 262.765 361.595V365.085C262.765 365.462 262.646 365.77 262.406 366.009C262.167 366.249 261.876 366.368 261.534 366.368H255.118V376.53C255.118 377.83 255.341 378.857 255.785 379.61C256.264 380.328 257.086 380.687 258.249 380.687H261.995C262.338 380.687 262.628 380.807 262.868 381.047C263.107 381.286 263.227 381.577 263.227 381.919V385.717C263.227 386.093 263.107 386.401 262.868 386.641C262.628 386.88 262.338 387 261.995 387H257.53ZM279.919 387.513C277.08 387.513 274.702 387.051 272.786 386.128C270.87 385.169 269.398 383.818 268.372 382.073C267.38 380.328 266.832 378.292 266.73 375.966C266.695 375.281 266.678 374.512 266.678 373.656C266.678 372.767 266.695 371.997 266.73 371.347C266.832 368.986 267.414 366.95 268.475 365.239C269.535 363.494 271.024 362.16 272.94 361.236C274.856 360.278 277.182 359.799 279.919 359.799C282.622 359.799 284.932 360.278 286.848 361.236C288.764 362.16 290.252 363.494 291.313 365.239C292.374 366.95 292.955 368.986 293.058 371.347C293.126 371.997 293.161 372.767 293.161 373.656C293.161 374.512 293.126 375.281 293.058 375.966C292.955 378.292 292.391 380.328 291.364 382.073C290.372 383.818 288.918 385.169 287.002 386.128C285.086 387.051 282.725 387.513 279.919 387.513ZM279.919 381.868C281.596 381.868 282.862 381.355 283.717 380.328C284.573 379.267 285.035 377.728 285.103 375.709C285.137 375.196 285.154 374.512 285.154 373.656C285.154 372.801 285.137 372.116 285.103 371.603C285.035 369.619 284.573 368.096 283.717 367.036C282.862 365.975 281.596 365.445 279.919 365.445C278.243 365.445 276.96 365.975 276.07 367.036C275.215 368.096 274.753 369.619 274.685 371.603C274.65 372.116 274.633 372.801 274.633 373.656C274.633 374.512 274.65 375.196 274.685 375.709C274.753 377.728 275.215 379.267 276.07 380.328C276.96 381.355 278.243 381.868 279.919 381.868ZM92.4651 438C92.1229 438 91.8321 437.88 91.5926 437.641C91.3531 437.401 91.2333 437.093 91.2333 436.717V412.595C91.2333 412.253 91.3531 411.962 91.5926 411.723C91.8321 411.449 92.1229 411.312 92.4651 411.312H97.4947C97.8368 411.312 98.1276 411.449 98.3672 411.723C98.6409 411.962 98.7777 412.253 98.7777 412.595V414.648C99.6331 413.588 100.677 412.766 101.908 412.185C103.174 411.603 104.629 411.312 106.271 411.312H108.478C108.82 411.312 109.111 411.432 109.35 411.672C109.59 411.911 109.709 412.219 109.709 412.595V417.009C109.709 417.385 109.59 417.693 109.35 417.933C109.111 418.172 108.82 418.292 108.478 418.292H103.961C102.456 418.292 101.275 418.72 100.42 419.575C99.5647 420.396 99.137 421.577 99.137 423.116V436.717C99.137 437.093 99.0172 437.401 98.7777 437.641C98.5382 437.88 98.2303 438 97.8539 438H92.4651ZM125.143 438.513C121.208 438.513 118.077 437.418 115.751 435.229C113.458 433.039 112.244 429.857 112.107 425.683C112.107 425.409 112.107 425.05 112.107 424.605C112.107 424.126 112.107 423.749 112.107 423.476C112.244 420.841 112.842 418.583 113.903 416.701C114.964 414.785 116.452 413.331 118.368 412.339C120.284 411.312 122.525 410.799 125.091 410.799C127.965 410.799 130.36 411.398 132.277 412.595C134.227 413.759 135.681 415.367 136.639 417.42C137.631 419.438 138.127 421.765 138.127 424.4V425.58C138.127 425.922 137.99 426.213 137.717 426.452C137.477 426.692 137.186 426.812 136.844 426.812H120.062C120.062 426.846 120.062 426.914 120.062 427.017C120.062 427.085 120.062 427.154 120.062 427.222C120.096 428.317 120.301 429.326 120.678 430.25C121.088 431.14 121.653 431.858 122.371 432.406C123.124 432.953 124.014 433.227 125.04 433.227C125.895 433.227 126.597 433.107 127.144 432.868C127.692 432.628 128.136 432.337 128.479 431.995C128.855 431.653 129.129 431.362 129.3 431.123C129.608 430.781 129.847 430.575 130.018 430.507C130.224 430.404 130.532 430.353 130.942 430.353H136.28C136.622 430.353 136.896 430.456 137.101 430.661C137.34 430.832 137.443 431.089 137.409 431.431C137.375 431.978 137.084 432.662 136.536 433.484C136.023 434.271 135.253 435.058 134.227 435.844C133.2 436.597 131.917 437.23 130.378 437.743C128.872 438.257 127.127 438.513 125.143 438.513ZM120.062 422.141H130.121V422.039C130.121 420.807 129.916 419.746 129.505 418.857C129.129 417.933 128.564 417.214 127.811 416.701C127.059 416.188 126.152 415.931 125.091 415.931C124.031 415.931 123.124 416.188 122.371 416.701C121.619 417.214 121.037 417.933 120.626 418.857C120.25 419.746 120.062 420.807 120.062 422.039V422.141ZM153.779 438.513C151.657 438.513 149.827 438.274 148.287 437.795C146.782 437.281 145.55 436.666 144.592 435.947C143.668 435.229 142.967 434.51 142.488 433.792C142.043 433.039 141.803 432.406 141.769 431.893C141.735 431.516 141.855 431.208 142.128 430.969C142.402 430.729 142.676 430.61 142.95 430.61H147.928C148.031 430.61 148.133 430.627 148.236 430.661C148.338 430.695 148.441 430.781 148.544 430.917C148.989 431.225 149.45 431.585 149.929 431.995C150.408 432.372 150.956 432.697 151.572 432.97C152.222 433.244 153.026 433.381 153.984 433.381C155.113 433.381 156.071 433.159 156.858 432.714C157.645 432.235 158.038 431.568 158.038 430.712C158.038 430.096 157.85 429.583 157.474 429.173C157.132 428.762 156.465 428.386 155.472 428.043C154.48 427.701 153.009 427.325 151.059 426.914C149.211 426.504 147.637 425.956 146.337 425.272C145.037 424.588 144.062 423.732 143.411 422.706C142.761 421.645 142.436 420.379 142.436 418.908C142.436 417.574 142.847 416.291 143.668 415.059C144.523 413.827 145.772 412.818 147.415 412.031C149.057 411.21 151.11 410.799 153.573 410.799C155.455 410.799 157.098 411.039 158.5 411.518C159.937 411.962 161.135 412.544 162.093 413.263C163.051 413.947 163.769 414.665 164.248 415.418C164.762 416.137 165.035 416.77 165.07 417.317C165.104 417.659 165.001 417.95 164.762 418.19C164.522 418.429 164.248 418.549 163.941 418.549H159.373C159.202 418.549 159.048 418.532 158.911 418.497C158.774 418.429 158.654 418.343 158.552 418.241C158.141 417.967 157.713 417.659 157.269 417.317C156.858 416.941 156.362 416.616 155.78 416.342C155.199 416.068 154.446 415.931 153.522 415.931C152.393 415.931 151.52 416.188 150.905 416.701C150.323 417.18 150.032 417.796 150.032 418.549C150.032 419.028 150.186 419.473 150.494 419.883C150.802 420.294 151.435 420.67 152.393 421.012C153.351 421.354 154.805 421.714 156.755 422.09C159.082 422.501 160.93 423.116 162.298 423.938C163.667 424.759 164.642 425.717 165.224 426.812C165.839 427.872 166.147 429.019 166.147 430.25C166.147 431.858 165.668 433.295 164.71 434.561C163.752 435.793 162.35 436.768 160.502 437.487C158.689 438.171 156.447 438.513 153.779 438.513ZM172.357 447.751C171.981 447.751 171.673 447.632 171.433 447.392C171.194 447.153 171.074 446.845 171.074 446.468V412.595C171.074 412.219 171.194 411.911 171.433 411.672C171.673 411.432 171.981 411.312 172.357 411.312H177.233C177.609 411.312 177.917 411.432 178.156 411.672C178.396 411.911 178.516 412.219 178.516 412.595V414.546C179.337 413.451 180.398 412.561 181.698 411.877C182.998 411.158 184.623 410.799 186.573 410.799C188.353 410.799 189.892 411.09 191.192 411.672C192.527 412.219 193.639 413.023 194.528 414.084C195.452 415.11 196.154 416.359 196.633 417.83C197.146 419.301 197.437 420.961 197.505 422.809C197.539 423.459 197.556 424.074 197.556 424.656C197.556 425.238 197.539 425.871 197.505 426.555C197.471 428.3 197.197 429.908 196.684 431.379C196.205 432.851 195.503 434.117 194.58 435.177C193.656 436.238 192.527 437.059 191.192 437.641C189.892 438.222 188.353 438.513 186.573 438.513C184.828 438.513 183.306 438.205 182.006 437.589C180.74 436.939 179.696 436.067 178.875 434.972V446.468C178.875 446.845 178.755 447.153 178.516 447.392C178.276 447.632 177.985 447.751 177.643 447.751H172.357ZM184.264 432.355C185.564 432.355 186.59 432.081 187.343 431.533C188.096 430.952 188.626 430.199 188.934 429.275C189.276 428.351 189.482 427.342 189.55 426.247C189.618 425.186 189.618 424.126 189.55 423.065C189.482 421.97 189.276 420.961 188.934 420.037C188.626 419.113 188.096 418.378 187.343 417.83C186.59 417.249 185.564 416.958 184.264 416.958C182.998 416.958 181.971 417.249 181.184 417.83C180.398 418.412 179.833 419.148 179.491 420.037C179.149 420.927 178.943 421.885 178.875 422.911C178.841 423.527 178.824 424.16 178.824 424.81C178.824 425.46 178.841 426.11 178.875 426.76C178.909 427.718 179.114 428.625 179.491 429.48C179.901 430.302 180.483 430.986 181.236 431.533C182.023 432.081 183.032 432.355 184.264 432.355ZM215.215 438.513C212.375 438.513 209.997 438.051 208.081 437.128C206.165 436.169 204.694 434.818 203.667 433.073C202.675 431.328 202.128 429.292 202.025 426.966C201.991 426.281 201.974 425.512 201.974 424.656C201.974 423.767 201.991 422.997 202.025 422.347C202.128 419.986 202.709 417.95 203.77 416.239C204.831 414.494 206.319 413.16 208.235 412.236C210.151 411.278 212.478 410.799 215.215 410.799C217.918 410.799 220.227 411.278 222.143 412.236C224.06 413.16 225.548 414.494 226.609 416.239C227.669 417.95 228.251 419.986 228.354 422.347C228.422 422.997 228.456 423.767 228.456 424.656C228.456 425.512 228.422 426.281 228.354 426.966C228.251 429.292 227.686 431.328 226.66 433.073C225.668 434.818 224.213 436.169 222.297 437.128C220.381 438.051 218.021 438.513 215.215 438.513ZM215.215 432.868C216.891 432.868 218.157 432.355 219.013 431.328C219.868 430.267 220.33 428.728 220.399 426.709C220.433 426.196 220.45 425.512 220.45 424.656C220.45 423.801 220.433 423.116 220.399 422.603C220.33 420.619 219.868 419.096 219.013 418.036C218.157 416.975 216.891 416.445 215.215 416.445C213.538 416.445 212.255 416.975 211.366 418.036C210.51 419.096 210.048 420.619 209.98 422.603C209.946 423.116 209.929 423.801 209.929 424.656C209.929 425.512 209.946 426.196 209.98 426.709C210.048 428.728 210.51 430.267 211.366 431.328C212.255 432.355 213.538 432.868 215.215 432.868ZM235.055 438C234.713 438 234.423 437.88 234.183 437.641C233.944 437.401 233.824 437.093 233.824 436.717V412.595C233.824 412.219 233.944 411.911 234.183 411.672C234.423 411.432 234.713 411.312 235.055 411.312H240.085C240.461 411.312 240.769 411.432 241.009 411.672C241.248 411.911 241.368 412.219 241.368 412.595V414.597C242.258 413.502 243.404 412.595 244.807 411.877C246.21 411.158 247.92 410.799 249.939 410.799C251.958 410.799 253.72 411.261 255.225 412.185C256.765 413.074 257.962 414.392 258.818 416.137C259.707 417.847 260.152 419.934 260.152 422.398V436.717C260.152 437.093 260.015 437.401 259.742 437.641C259.502 437.88 259.211 438 258.869 438H253.429C253.053 438 252.745 437.88 252.505 437.641C252.266 437.401 252.146 437.093 252.146 436.717V422.706C252.146 420.892 251.701 419.49 250.812 418.497C249.956 417.471 248.69 416.958 247.014 416.958C245.406 416.958 244.122 417.471 243.164 418.497C242.206 419.49 241.727 420.892 241.727 422.706V436.717C241.727 437.093 241.608 437.401 241.368 437.641C241.129 437.88 240.838 438 240.496 438H235.055ZM276.207 438.513C274.496 438.513 272.973 438.24 271.639 437.692C270.304 437.11 269.175 436.289 268.252 435.229C267.328 434.134 266.626 432.851 266.147 431.379C265.668 429.874 265.378 428.215 265.275 426.401C265.241 425.751 265.224 425.169 265.224 424.656C265.224 424.109 265.241 423.527 265.275 422.911C265.343 421.132 265.617 419.507 266.096 418.036C266.609 416.564 267.311 415.298 268.2 414.238C269.124 413.143 270.253 412.305 271.588 411.723C272.956 411.107 274.496 410.799 276.207 410.799C277.986 410.799 279.508 411.107 280.774 411.723C282.04 412.305 283.084 413.074 283.905 414.032V402.844C283.905 402.468 284.025 402.16 284.264 401.92C284.504 401.681 284.812 401.561 285.188 401.561H290.474C290.816 401.561 291.107 401.681 291.347 401.92C291.586 402.16 291.706 402.468 291.706 402.844V436.717C291.706 437.093 291.586 437.401 291.347 437.641C291.107 437.88 290.816 438 290.474 438H285.547C285.205 438 284.914 437.88 284.675 437.641C284.435 437.401 284.316 437.093 284.316 436.717V434.972C283.46 435.998 282.382 436.854 281.082 437.538C279.782 438.188 278.157 438.513 276.207 438.513ZM278.567 432.355C279.833 432.355 280.843 432.064 281.595 431.482C282.382 430.9 282.947 430.165 283.289 429.275C283.665 428.386 283.871 427.428 283.905 426.401C283.973 425.751 284.008 425.101 284.008 424.451C284.008 423.801 283.973 423.168 283.905 422.552C283.871 421.594 283.665 420.704 283.289 419.883C282.913 419.028 282.331 418.326 281.544 417.779C280.791 417.231 279.799 416.958 278.567 416.958C277.267 416.958 276.241 417.249 275.488 417.83C274.735 418.378 274.188 419.113 273.846 420.037C273.538 420.961 273.35 421.97 273.281 423.065C273.179 424.126 273.179 425.186 273.281 426.247C273.35 427.342 273.538 428.351 273.846 429.275C274.188 430.199 274.735 430.952 275.488 431.533C276.241 432.081 277.267 432.355 278.567 432.355Z" fill="black"/>
<path d="M408 559C437.724 451.5 583.5 216.5 969.5 173" stroke="#FF0000" stroke-width="13" stroke-linecap="round"/>
</svg>
