<svg width="1176" height="784" viewBox="0 0 1176 784" fill="none" xmlns="http://www.w3.org/2000/svg">
<rect width="1176" height="784" fill="#29815B"/>
<ellipse cx="712.5" cy="602.252" rx="12" ry="12.5" transform="rotate(90 712.5 602.252)" fill="#F5F5F5"/>
<ellipse cx="712.5" cy="454.252" rx="12" ry="12.5" transform="rotate(90 712.5 454.252)" fill="#F5F5F5"/>
<ellipse cx="714" cy="528" rx="30" ry="30" transform="rotate(90 714 528)" fill="black"/>
<ellipse cx="750.5" cy="601.252" rx="12" ry="12.5" transform="rotate(-90 750.5 601.252)" fill="#F5F5F5"/>
<ellipse cx="750.5" cy="453.252" rx="12" ry="12.5" transform="rotate(-90 750.5 453.252)" fill="#F5F5F5"/>
<ellipse cx="750.5" cy="490.252" rx="12" ry="12.5" transform="rotate(-90 750.5 490.252)" fill="#F5F5F5"/>
<ellipse cx="750.5" cy="564.252" rx="12" ry="12.5" transform="rotate(-90 750.5 564.252)" fill="#F5F5F5"/>
<ellipse cx="675.5" cy="601.752" rx="12.5" ry="12.5" transform="rotate(90 675.5 601.752)" fill="#F5F5F5"/>
<ellipse cx="675.5" cy="453.752" rx="12.5" ry="12.5" transform="rotate(90 675.5 453.752)" fill="#F5F5F5"/>
<ellipse cx="675.5" cy="490.752" rx="12.5" ry="12.5" transform="rotate(90 675.5 490.752)" fill="#F5F5F5"/>
<ellipse cx="675.5" cy="564.752" rx="12.5" ry="12.5" transform="rotate(90 675.5 564.752)" fill="#F5F5F5"/>
<ellipse cx="638.5" cy="601.752" rx="12.5" ry="12.5" transform="rotate(90 638.5 601.752)" fill="#F5F5F5"/>
<ellipse cx="638.5" cy="564.752" rx="12.5" ry="12.5" transform="rotate(90 638.5 564.752)" fill="#F5F5F5"/>
<ellipse cx="787.5" cy="564.752" rx="12.5" ry="12.5" transform="rotate(90 787.5 564.752)" fill="#F5F5F5"/>
<ellipse cx="638.5" cy="527.752" rx="12.5" ry="12.5" transform="rotate(90 638.5 527.752)" fill="#F5F5F5"/>
<ellipse cx="787.5" cy="527.752" rx="12.5" ry="12.5" transform="rotate(90 787.5 527.752)" fill="#F5F5F5"/>
<ellipse cx="638.5" cy="490.752" rx="12.5" ry="12.5" transform="rotate(90 638.5 490.752)" fill="#F5F5F5"/>
<ellipse cx="787.5" cy="490.752" rx="12.5" ry="12.5" transform="rotate(90 787.5 490.752)" fill="#F5F5F5"/>
<ellipse cx="638.5" cy="453.752" rx="12.5" ry="12.5" transform="rotate(90 638.5 453.752)" fill="#F5F5F5"/>
<ellipse cx="787.5" cy="600.752" rx="12.5" ry="12.5" transform="rotate(-90 787.5 600.752)" fill="#F5F5F5"/>
<ellipse cx="787.5" cy="452.752" rx="12.5" ry="12.5" transform="rotate(-90 787.5 452.752)" fill="#F5F5F5"/>
<path d="M651.891 665.221V669.09H641.671V673.964H650.562V677.627H641.671V686.252H637.063V665.221H651.891ZM661.632 670.567C663.966 670.567 665.856 671.306 667.274 672.783C668.692 674.259 669.43 676.209 669.43 678.631C669.43 681.083 668.692 683.032 667.274 684.509C665.856 685.986 663.936 686.725 661.573 686.725C659.181 686.725 657.261 685.986 655.843 684.509C654.395 683.032 653.686 681.083 653.686 678.631C653.686 676.209 654.395 674.259 655.872 672.783C657.32 671.306 659.24 670.567 661.632 670.567ZM661.514 673.757C660.392 673.757 659.505 674.2 658.856 675.087C658.206 675.943 657.881 677.125 657.881 678.661C657.881 680.197 658.206 681.408 658.856 682.294C659.505 683.15 660.392 683.594 661.573 683.594C662.725 683.594 663.611 683.15 664.261 682.264C664.911 681.378 665.236 680.167 665.236 678.602C665.236 677.095 664.881 675.914 664.232 675.057C663.582 674.2 662.666 673.757 661.514 673.757ZM686.72 680.374C686.454 682.353 685.686 683.889 684.386 685.011C683.087 686.104 681.432 686.665 679.424 686.665C677.061 686.665 675.2 685.927 673.782 684.509C672.364 683.062 671.655 681.142 671.655 678.749C671.655 676.298 672.364 674.319 673.782 672.812C675.2 671.335 677.12 670.567 679.483 670.567C681.491 670.567 683.146 671.099 684.445 672.133C685.715 673.167 686.454 674.555 686.631 676.327H682.525C682.2 674.584 681.196 673.698 679.512 673.698C678.36 673.698 677.474 674.141 676.824 675.027C676.175 675.914 675.879 677.125 675.879 678.69C675.879 680.197 676.175 681.378 676.795 682.205C677.415 683.032 678.301 683.446 679.424 683.446C681.255 683.446 682.319 682.442 682.673 680.374H686.72ZM703.327 686.252H699.044C698.925 685.868 698.807 685.366 698.748 684.775C697.478 686.075 695.824 686.695 693.815 686.695C692.132 686.695 690.802 686.311 689.828 685.484C688.882 684.657 688.38 683.534 688.38 682.087C688.38 681.437 688.469 680.876 688.646 680.374C688.823 679.901 689.089 679.488 689.473 679.133C689.857 678.808 690.212 678.543 690.566 678.306C690.921 678.099 691.393 677.922 691.984 677.775C692.604 677.656 693.106 677.538 693.461 677.479C693.845 677.42 694.377 677.331 695.056 677.243C696.533 677.066 697.508 676.859 698.01 676.623C698.512 676.416 698.778 676.002 698.778 675.411C698.778 674.053 697.862 673.373 696.031 673.373C695.056 673.373 694.347 673.551 693.904 673.905C693.431 674.259 693.136 674.85 693.018 675.707H689.089C689.326 672.28 691.659 670.567 696.149 670.567C700.58 670.567 702.795 672.221 702.795 675.53V682.117C702.795 684.066 702.972 685.425 703.327 686.252ZM698.719 678.838C698.246 679.133 697.242 679.429 695.765 679.665C694.524 679.842 693.727 680.108 693.343 680.403C692.929 680.758 692.693 681.29 692.693 681.939C692.693 682.56 692.9 683.062 693.313 683.416C693.727 683.771 694.288 683.948 694.997 683.948C696.119 683.948 697.035 683.653 697.714 683.062C698.394 682.471 698.719 681.614 698.719 680.551V678.838ZM710.422 665.221V686.252H706.228V665.221H710.422ZM725.904 671.01V672.901C726.997 671.365 728.562 670.597 730.63 670.597C732.668 670.597 734.322 671.335 735.563 672.812C736.804 674.289 737.424 676.268 737.424 678.72C737.424 681.112 736.804 683.032 735.593 684.48C734.381 685.927 732.786 686.636 730.807 686.636C728.74 686.636 727.174 685.897 726.111 684.362V691.657H721.946V671.01H725.904ZM729.596 673.964C728.444 673.964 727.558 674.378 726.908 675.205C726.258 676.032 725.963 677.184 725.963 678.661C725.963 680.138 726.288 681.29 726.938 682.117C727.588 682.944 728.474 683.357 729.626 683.357C730.748 683.357 731.605 682.944 732.255 682.117C732.905 681.29 733.229 680.167 733.229 678.72C733.229 677.243 732.905 676.091 732.255 675.234C731.605 674.407 730.719 673.964 729.596 673.964ZM747.506 670.567C749.84 670.567 751.73 671.306 753.148 672.783C754.566 674.259 755.304 676.209 755.304 678.631C755.304 681.083 754.566 683.032 753.148 684.509C751.73 685.986 749.81 686.725 747.447 686.725C745.054 686.725 743.134 685.986 741.717 684.509C740.269 683.032 739.56 681.083 739.56 678.631C739.56 676.209 740.269 674.259 741.746 672.783C743.193 671.306 745.113 670.567 747.506 670.567ZM747.388 673.757C746.265 673.757 745.379 674.2 744.729 675.087C744.08 675.943 743.755 677.125 743.755 678.661C743.755 680.197 744.08 681.408 744.729 682.294C745.379 683.15 746.265 683.594 747.447 683.594C748.599 683.594 749.485 683.15 750.135 682.264C750.785 681.378 751.11 680.167 751.11 678.602C751.11 677.095 750.755 675.914 750.105 675.057C749.456 674.2 748.54 673.757 747.388 673.757ZM762.373 665.221V668.765H758.179V665.221H762.373ZM762.373 671.01V686.252H758.179V671.01H762.373ZM780.032 686.252H775.778V677.361C775.778 676.298 775.601 675.471 775.246 674.909C774.892 674.348 774.183 674.053 773.179 674.053C770.963 674.053 769.871 675.411 769.871 678.07V686.252H765.706V671.01H769.693V673.137C770.934 671.453 772.618 670.597 774.744 670.597C776.369 670.597 777.669 671.069 778.614 672.015C779.559 672.96 780.032 674.319 780.032 676.061V686.252ZM791.574 671.01V673.876H788.473V681.053C788.473 681.496 788.473 681.821 788.502 682.028C788.502 682.235 788.591 682.442 788.709 682.678C788.827 682.885 789.004 683.032 789.241 683.091C789.477 683.15 789.832 683.18 790.304 683.18C790.806 683.18 791.22 683.18 791.574 683.121V686.311C790.54 686.4 789.684 686.429 789.034 686.429C787.203 686.429 785.933 686.134 785.283 685.484C784.633 684.834 784.308 683.594 784.308 681.762V673.846H781.768V671.01H784.308V666.402H788.473V671.01H791.574Z" fill="white"/>
<ellipse cx="783.389" cy="183.64" rx="12.5" ry="12.5" transform="rotate(45 783.389 183.64)" fill="white"/>
<ellipse cx="677.033" cy="183.64" rx="12.5" ry="12.5" transform="rotate(45 677.033 183.64)" fill="white"/>
<ellipse cx="748.033" cy="183.64" rx="12.5" ry="12.5" transform="rotate(45 748.033 183.64)" fill="white"/>
<ellipse cx="641.678" cy="183.64" rx="12.5" ry="12.5" transform="rotate(45 641.678 183.64)" fill="white"/>
<ellipse cx="712.678" cy="183.64" rx="12.5" ry="12.5" transform="rotate(45 712.678 183.64)" fill="white"/>
<ellipse cx="712.678" cy="254.351" rx="12.5" ry="12.5" transform="rotate(135 712.678 254.351)" fill="white"/>
<ellipse cx="712.678" cy="218.996" rx="12.5" ry="12.5" transform="rotate(135 712.678 218.996)" fill="white"/>
<ellipse cx="712.678" cy="183.64" rx="12.5" ry="12.5" transform="rotate(135 712.678 183.64)" fill="white"/>
<ellipse cx="712.678" cy="148.285" rx="12.5" ry="12.5" transform="rotate(135 712.678 148.285)" fill="#F5F5F5"/>
<ellipse cx="712.678" cy="112.93" rx="12.5" ry="12.5" transform="rotate(135 712.678 112.93)" fill="#F5F5F5"/>
<path d="M660.926 331.129C660.69 333.787 659.745 335.885 658.15 337.45C656.525 338.986 654.31 339.784 651.504 339.784C648.432 339.784 645.98 338.75 644.119 336.741C642.258 334.733 641.343 332.045 641.343 328.736C641.343 325.576 642.258 322.947 644.149 320.879C646.039 318.782 648.55 317.748 651.681 317.748C654.162 317.748 656.259 318.457 657.972 319.875C659.656 321.293 660.601 323.095 660.779 325.28H656.259C656.023 324.099 655.491 323.213 654.664 322.563C653.837 321.913 652.833 321.618 651.592 321.618C650.293 321.618 649.229 321.972 648.343 322.681C647.457 323.39 646.866 324.276 646.512 325.31C646.157 326.373 645.98 327.496 645.98 328.736C645.98 330.922 646.482 332.635 647.486 333.935C648.491 335.235 649.82 335.855 651.533 335.855C654.339 335.855 655.934 334.29 656.348 331.129H660.926ZM671.094 323.567C673.427 323.567 675.318 324.306 676.735 325.783C678.153 327.259 678.892 329.209 678.892 331.631C678.892 334.083 678.153 336.032 676.735 337.509C675.318 338.986 673.398 339.725 671.035 339.725C668.642 339.725 666.722 338.986 665.304 337.509C663.857 336.032 663.148 334.083 663.148 331.631C663.148 329.209 663.857 327.259 665.334 325.783C666.781 324.306 668.701 323.567 671.094 323.567ZM670.975 326.757C669.853 326.757 668.967 327.2 668.317 328.087C667.667 328.943 667.342 330.125 667.342 331.661C667.342 333.197 667.667 334.408 668.317 335.294C668.967 336.15 669.853 336.594 671.035 336.594C672.186 336.594 673.073 336.15 673.722 335.264C674.372 334.378 674.697 333.167 674.697 331.602C674.697 330.095 674.343 328.914 673.693 328.057C673.043 327.2 672.127 326.757 670.975 326.757ZM696.004 339.252H691.75V330.361C691.75 329.298 691.573 328.471 691.219 327.909C690.864 327.348 690.155 327.053 689.151 327.053C686.936 327.053 685.843 328.411 685.843 331.07V339.252H681.678V324.01H685.666V326.137C686.906 324.453 688.59 323.597 690.717 323.597C692.341 323.597 693.641 324.069 694.586 325.015C695.531 325.96 696.004 327.319 696.004 329.061V339.252ZM707.547 324.01V326.876H704.445V334.053C704.445 334.496 704.445 334.821 704.475 335.028C704.475 335.235 704.563 335.442 704.681 335.678C704.8 335.885 704.977 336.032 705.213 336.091C705.449 336.15 705.804 336.18 706.276 336.18C706.779 336.18 707.192 336.18 707.547 336.121V339.311C706.513 339.4 705.656 339.429 705.006 339.429C703.175 339.429 701.905 339.134 701.255 338.484C700.605 337.834 700.28 336.594 700.28 334.762V326.846H697.74V324.01H700.28V319.402H704.445V324.01H707.547ZM713.855 318.221V321.765H709.66V318.221H713.855ZM713.855 324.01V339.252H709.66V324.01H713.855ZM731.513 339.252H727.26V330.361C727.26 329.298 727.082 328.471 726.728 327.909C726.373 327.348 725.664 327.053 724.66 327.053C722.445 327.053 721.352 328.411 721.352 331.07V339.252H717.187V324.01H721.175V326.137C722.415 324.453 724.099 323.597 726.226 323.597C727.85 323.597 729.15 324.069 730.095 325.015C731.04 325.96 731.513 327.319 731.513 329.061V339.252ZM748.963 324.01V339.252H744.976V337.096C743.794 338.838 742.14 339.695 740.013 339.695C738.33 339.695 737.03 339.252 736.085 338.336C735.14 337.421 734.696 336.062 734.696 334.26V324.01H738.92V332.724C738.92 333.315 738.92 333.758 738.979 334.112C739.039 334.467 739.127 334.792 739.304 335.146C739.452 335.501 739.718 335.766 740.072 335.944C740.427 336.121 740.899 336.18 741.49 336.18C743.676 336.18 744.798 334.762 744.798 331.867V324.01H748.963ZM756.489 318.221V321.765H752.294V318.221H756.489ZM756.489 324.01V339.252H752.294V324.01H756.489ZM768.18 324.01V326.876H765.079V334.053C765.079 334.496 765.079 334.821 765.108 335.028C765.108 335.235 765.197 335.442 765.315 335.678C765.433 335.885 765.611 336.032 765.847 336.091C766.083 336.15 766.438 336.18 766.91 336.18C767.412 336.18 767.826 336.18 768.18 336.121V339.311C767.147 339.4 766.29 339.429 765.64 339.429C763.809 339.429 762.539 339.134 761.889 338.484C761.239 337.834 760.914 336.594 760.914 334.762V326.846H758.374V324.01H760.914V319.402H765.079V324.01H768.18ZM784.029 324.01L778.388 339.222C778.122 339.99 777.915 340.522 777.797 340.817C777.679 341.113 777.472 341.556 777.206 342.117C776.94 342.649 776.704 343.033 776.468 343.269C776.231 343.476 775.936 343.712 775.552 344.008C775.168 344.273 774.725 344.451 774.252 344.539C773.78 344.657 773.218 344.687 772.598 344.687C772.066 344.687 771.151 344.687 769.792 344.657V341.201H771.83C772.51 341.201 773.041 341.024 773.396 340.67C773.75 340.315 773.957 339.813 773.957 339.163C773.957 339.016 773.898 338.809 773.839 338.573L768.315 324.01H772.834L776.32 334.378L779.687 324.01H784.029Z" fill="white"/>
<ellipse cx="169.5" cy="258.252" rx="12" ry="12.5" transform="rotate(90 169.5 258.252)" fill="#F5F5F5"/>
<ellipse cx="169.5" cy="110.252" rx="12" ry="12.5" transform="rotate(90 169.5 110.252)" fill="#F5F5F5"/>
<ellipse cx="207.5" cy="257.252" rx="12" ry="12.5" transform="rotate(-90 207.5 257.252)" fill="#F5F5F5"/>
<ellipse cx="207.5" cy="109.252" rx="12" ry="12.5" transform="rotate(-90 207.5 109.252)" fill="#F5F5F5"/>
<ellipse cx="132.5" cy="257.752" rx="12.5" ry="12.5" transform="rotate(90 132.5 257.752)" fill="#F5F5F5"/>
<ellipse cx="132.5" cy="109.752" rx="12.5" ry="12.5" transform="rotate(90 132.5 109.752)" fill="#F5F5F5"/>
<ellipse cx="95.5" cy="257.752" rx="12.5" ry="12.5" transform="rotate(90 95.5 257.752)" fill="#F5F5F5"/>
<ellipse cx="95.5" cy="220.752" rx="12.5" ry="12.5" transform="rotate(90 95.5 220.752)" fill="#F5F5F5"/>
<ellipse cx="244.5" cy="220.752" rx="12.5" ry="12.5" transform="rotate(90 244.5 220.752)" fill="#F5F5F5"/>
<ellipse cx="95.5" cy="183.752" rx="12.5" ry="12.5" transform="rotate(90 95.5 183.752)" fill="#F5F5F5"/>
<ellipse cx="244.5" cy="183.752" rx="12.5" ry="12.5" transform="rotate(90 244.5 183.752)" fill="#F5F5F5"/>
<ellipse cx="95.5" cy="146.752" rx="12.5" ry="12.5" transform="rotate(90 95.5 146.752)" fill="#F5F5F5"/>
<ellipse cx="244.5" cy="146.752" rx="12.5" ry="12.5" transform="rotate(90 244.5 146.752)" fill="#F5F5F5"/>
<ellipse cx="95.5" cy="109.752" rx="12.5" ry="12.5" transform="rotate(90 95.5 109.752)" fill="#F5F5F5"/>
<ellipse cx="244.5" cy="256.752" rx="12.5" ry="12.5" transform="rotate(-90 244.5 256.752)" fill="#F5F5F5"/>
<ellipse cx="244.5" cy="108.752" rx="12.5" ry="12.5" transform="rotate(-90 244.5 108.752)" fill="#F5F5F5"/>
<path d="M105.319 318.221H114.387C116.75 318.221 118.611 318.812 119.999 319.934C121.387 321.057 122.096 322.74 122.096 324.985C122.096 327.2 121.387 328.884 120.029 330.007C118.64 331.129 116.838 331.69 114.623 331.69H109.897V339.252H105.319V318.221ZM109.897 322.002V328.057H114.003C116.395 328.057 117.606 327.053 117.606 325.044C117.606 323.036 116.395 322.002 114.032 322.002H109.897ZM134.443 323.744V327.614C133.852 327.496 133.291 327.437 132.818 327.437C131.43 327.437 130.426 327.88 129.776 328.766C129.126 329.652 128.801 330.804 128.801 332.281V339.252H124.607V324.01H128.594V326.816C129.599 324.719 131.223 323.656 133.527 323.656C133.704 323.656 134.029 323.685 134.443 323.744ZM140.045 328.677L135.851 328.707C135.969 326.905 136.708 325.605 138.066 324.808C139.425 323.981 141.079 323.597 143.029 323.597C147.489 323.597 149.734 325.044 149.734 327.939V335.885C149.734 337.568 149.911 338.691 150.266 339.281H146.012C145.835 338.72 145.717 338.218 145.717 337.775C144.506 339.045 142.792 339.665 140.577 339.665C139.041 339.665 137.771 339.281 136.826 338.514C135.851 337.746 135.378 336.594 135.378 335.087C135.378 334.024 135.615 333.138 136.146 332.429C136.678 331.749 137.298 331.277 138.066 331.04C138.834 330.804 139.661 330.627 140.548 330.45C141.434 330.302 142.231 330.213 142.999 330.154C143.738 330.095 144.358 329.947 144.831 329.652C145.303 329.386 145.539 328.973 145.539 328.441C145.539 327.643 145.303 327.112 144.831 326.816C144.358 326.521 143.679 326.373 142.822 326.373C141.109 326.373 140.164 327.141 140.045 328.677ZM145.539 333.374V331.808C145.362 331.927 145.155 332.045 144.86 332.163C144.565 332.281 144.269 332.34 144.033 332.399C143.797 332.429 143.442 332.488 143.029 332.547C142.586 332.606 142.261 332.635 142.054 332.695C140.4 332.99 139.573 333.728 139.573 334.939C139.573 336.239 140.429 336.889 142.143 336.889C144.387 336.889 145.539 335.707 145.539 333.374ZM138.037 321.618V318.162H142.024V321.618H138.037ZM144.122 321.618V318.162H148.109V321.618H144.122ZM167.611 324.01V337.686C167.611 340.168 166.991 341.999 165.75 343.181C164.509 344.362 162.619 344.953 160.108 344.953C155.737 344.953 153.374 343.358 152.96 340.197H157.125C157.273 340.877 157.597 341.379 158.1 341.674C158.572 341.969 159.281 342.147 160.197 342.147C161.496 342.147 162.383 341.822 162.855 341.172C163.298 340.522 163.535 339.547 163.564 338.189L163.594 336.475C162.442 338.041 160.876 338.838 158.927 338.838C156.918 338.838 155.353 338.159 154.171 336.8C152.99 335.442 152.428 333.61 152.428 331.336C152.428 329.002 153.019 327.141 154.26 325.724C155.471 324.306 157.095 323.597 159.104 323.597C160.167 323.597 161.024 323.804 161.733 324.188C162.442 324.572 163.062 325.192 163.653 326.048V324.01H167.611ZM160.079 326.876C158.956 326.876 158.1 327.259 157.479 328.027C156.859 328.795 156.534 329.888 156.534 331.306C156.534 332.635 156.859 333.699 157.509 334.496C158.159 335.294 159.015 335.707 160.079 335.707C161.172 335.707 162.028 335.294 162.648 334.496C163.298 333.669 163.594 332.576 163.594 331.218C163.594 329.859 163.298 328.795 162.648 328.027C162.028 327.259 161.172 326.876 160.079 326.876ZM185.402 339.252H181.149V330.361C181.149 329.298 180.972 328.471 180.617 327.909C180.263 327.348 179.554 327.053 178.55 327.053C176.334 327.053 175.241 328.411 175.241 331.07V339.252H171.077V324.01H175.064V326.137C176.305 324.453 177.988 323.597 180.115 323.597C181.74 323.597 183.039 324.069 183.985 325.015C184.93 325.96 185.402 327.319 185.402 329.061V339.252ZM202.735 339.252H198.452C198.333 338.868 198.215 338.366 198.156 337.775C196.886 339.075 195.232 339.695 193.223 339.695C191.54 339.695 190.21 339.311 189.236 338.484C188.291 337.657 187.788 336.534 187.788 335.087C187.788 334.437 187.877 333.876 188.054 333.374C188.231 332.901 188.497 332.488 188.881 332.133C189.265 331.808 189.62 331.543 189.974 331.306C190.329 331.099 190.801 330.922 191.392 330.775C192.012 330.656 192.514 330.538 192.869 330.479C193.253 330.42 193.785 330.331 194.464 330.243C195.941 330.066 196.916 329.859 197.418 329.623C197.92 329.416 198.186 329.002 198.186 328.411C198.186 327.053 197.27 326.373 195.439 326.373C194.464 326.373 193.755 326.551 193.312 326.905C192.839 327.259 192.544 327.85 192.426 328.707H188.497C188.734 325.28 191.067 323.567 195.557 323.567C199.988 323.567 202.203 325.221 202.203 328.53V335.117C202.203 337.066 202.38 338.425 202.735 339.252ZM198.127 331.838C197.654 332.133 196.65 332.429 195.173 332.665C193.932 332.842 193.135 333.108 192.751 333.403C192.337 333.758 192.101 334.29 192.101 334.939C192.101 335.56 192.308 336.062 192.721 336.416C193.135 336.771 193.696 336.948 194.405 336.948C195.527 336.948 196.443 336.653 197.122 336.062C197.802 335.471 198.127 334.614 198.127 333.551V331.838ZM219.873 339.252H215.62V330.361C215.62 329.298 215.442 328.471 215.088 327.909C214.734 327.348 214.025 327.053 213.02 327.053C210.805 327.053 209.712 328.411 209.712 331.07V339.252H205.547V324.01H209.535V326.137C210.775 324.453 212.459 323.597 214.586 323.597C216.21 323.597 217.51 324.069 218.455 325.015C219.401 325.96 219.873 327.319 219.873 329.061V339.252ZM235.581 324.01V327.053L227.546 335.944H236.112V339.252H222.082V336.062L230.146 327.23H222.702V324.01H235.581Z" fill="white"/>
<path d="M95.1141 678.129C94.8778 680.787 93.9326 682.885 92.3375 684.45C90.7129 685.986 88.4975 686.784 85.6914 686.784C82.6195 686.784 80.1678 685.75 78.3069 683.741C76.446 681.733 75.5303 679.045 75.5303 675.736C75.5303 672.576 76.446 669.947 78.3364 667.879C80.2269 665.782 82.7376 664.748 85.8687 664.748C88.3499 664.748 90.4471 665.457 92.1603 666.875C93.8439 668.293 94.7892 670.095 94.9664 672.28H90.4471C90.2108 671.099 89.6791 670.213 88.852 669.563C88.0249 668.913 87.0206 668.618 85.78 668.618C84.4804 668.618 83.417 668.972 82.5309 669.681C81.6447 670.39 81.054 671.276 80.6995 672.31C80.345 673.373 80.1678 674.496 80.1678 675.736C80.1678 677.922 80.67 679.635 81.6743 680.935C82.6785 682.235 84.0078 682.855 85.721 682.855C88.5271 682.855 90.1221 681.29 90.5357 678.129H95.1141ZM105.281 670.567C107.615 670.567 109.505 671.306 110.923 672.783C112.341 674.259 113.079 676.209 113.079 678.631C113.079 681.083 112.341 683.032 110.923 684.509C109.505 685.986 107.585 686.725 105.222 686.725C102.83 686.725 100.91 685.986 99.4919 684.509C98.0446 683.032 97.3357 681.083 97.3357 678.631C97.3357 676.209 98.0446 674.259 99.5215 672.783C100.969 671.306 102.889 670.567 105.281 670.567ZM105.163 673.757C104.041 673.757 103.155 674.2 102.505 675.087C101.855 675.943 101.53 677.125 101.53 678.661C101.53 680.197 101.855 681.408 102.505 682.294C103.155 683.15 104.041 683.594 105.222 683.594C106.374 683.594 107.26 683.15 107.91 682.264C108.56 681.378 108.885 680.167 108.885 678.602C108.885 677.095 108.531 675.914 107.881 675.057C107.231 674.2 106.315 673.757 105.163 673.757ZM139.319 686.252H135.065V677.154C135.065 676.15 134.888 675.382 134.593 674.85C134.268 674.319 133.618 674.023 132.643 674.023C130.694 674.023 129.719 675.264 129.719 677.686V686.252H125.525V676.977C125.525 676.032 125.347 675.323 125.052 674.791C124.727 674.259 124.107 673.994 123.221 673.994C121.183 673.994 120.178 675.323 120.178 677.981V686.252H115.984V671.01H119.972V673.108C121.153 671.453 122.778 670.597 124.816 670.597C126.913 670.597 128.36 671.453 129.128 673.108C130.339 671.453 131.994 670.597 134.12 670.597C135.774 670.597 137.074 671.099 137.96 672.074C138.846 673.048 139.319 674.348 139.319 676.002V686.252ZM166.088 686.252H161.834V677.154C161.834 676.15 161.657 675.382 161.362 674.85C161.037 674.319 160.387 674.023 159.412 674.023C157.463 674.023 156.488 675.264 156.488 677.686V686.252H152.294V676.977C152.294 676.032 152.116 675.323 151.821 674.791C151.496 674.259 150.876 673.994 149.99 673.994C147.951 673.994 146.947 675.323 146.947 677.981V686.252H142.753V671.01H146.74V673.108C147.922 671.453 149.547 670.597 151.585 670.597C153.682 670.597 155.129 671.453 155.897 673.108C157.108 671.453 158.762 670.597 160.889 670.597C162.543 670.597 163.843 671.099 164.729 672.074C165.615 673.048 166.088 674.348 166.088 676.002V686.252ZM176.877 670.567C179.21 670.567 181.101 671.306 182.518 672.783C183.936 674.259 184.675 676.209 184.675 678.631C184.675 681.083 183.936 683.032 182.518 684.509C181.101 685.986 179.181 686.725 176.818 686.725C174.425 686.725 172.505 685.986 171.087 684.509C169.64 683.032 168.931 681.083 168.931 678.631C168.931 676.209 169.64 674.259 171.117 672.783C172.564 671.306 174.484 670.567 176.877 670.567ZM176.758 673.757C175.636 673.757 174.75 674.2 174.1 675.087C173.45 675.943 173.125 677.125 173.125 678.661C173.125 680.197 173.45 681.408 174.1 682.294C174.75 683.15 175.636 683.594 176.818 683.594C177.97 683.594 178.856 683.15 179.505 682.264C180.155 681.378 180.48 680.167 180.48 678.602C180.48 677.095 180.126 675.914 179.476 675.057C178.826 674.2 177.91 673.757 176.758 673.757ZM201.787 686.252H197.533V677.361C197.533 676.298 197.356 675.471 197.002 674.909C196.647 674.348 195.938 674.053 194.934 674.053C192.719 674.053 191.626 675.411 191.626 678.07V686.252H187.461V671.01H191.449V673.137C192.689 671.453 194.373 670.597 196.5 670.597C198.124 670.597 199.424 671.069 200.369 672.015C201.314 672.96 201.787 674.319 201.787 676.061V686.252ZM221.462 665.221V668.293C220.576 668.263 220.133 668.234 220.074 668.234C219.306 668.234 218.804 668.352 218.567 668.559C218.331 668.765 218.213 669.179 218.213 669.799V671.01H221.196V673.846H218.242V686.252H214.048V673.846H211.567V671.01H214.048V670.213C214.048 668.44 214.432 667.141 215.259 666.343C216.057 665.546 217.386 665.132 219.276 665.132C219.483 665.132 219.719 665.162 219.956 665.162C220.192 665.162 220.487 665.191 220.783 665.191C221.078 665.221 221.285 665.221 221.462 665.221ZM237.176 686.252H232.893C232.775 685.868 232.657 685.366 232.598 684.775C231.328 686.075 229.674 686.695 227.665 686.695C225.982 686.695 224.652 686.311 223.678 685.484C222.732 684.657 222.23 683.534 222.23 682.087C222.23 681.437 222.319 680.876 222.496 680.374C222.673 679.901 222.939 679.488 223.323 679.133C223.707 678.808 224.062 678.543 224.416 678.306C224.771 678.099 225.243 677.922 225.834 677.775C226.454 677.656 226.956 677.538 227.311 677.479C227.695 677.42 228.226 677.331 228.906 677.243C230.383 677.066 231.357 676.859 231.86 676.623C232.362 676.416 232.628 676.002 232.628 675.411C232.628 674.053 231.712 673.373 229.881 673.373C228.906 673.373 228.197 673.551 227.754 673.905C227.281 674.259 226.986 674.85 226.868 675.707H222.939C223.175 672.28 225.509 670.567 229.999 670.567C234.429 670.567 236.645 672.221 236.645 675.53V682.117C236.645 684.066 236.822 685.425 237.176 686.252ZM232.569 678.838C232.096 679.133 231.092 679.429 229.615 679.665C228.374 679.842 227.577 680.108 227.193 680.403C226.779 680.758 226.543 681.29 226.543 681.939C226.543 682.56 226.75 683.062 227.163 683.416C227.577 683.771 228.138 683.948 228.847 683.948C229.969 683.948 230.885 683.653 231.564 683.062C232.244 682.471 232.569 681.614 232.569 680.551V678.838ZM248.348 671.01V673.876H245.247V681.053C245.247 681.496 245.247 681.821 245.276 682.028C245.276 682.235 245.365 682.442 245.483 682.678C245.601 682.885 245.779 683.032 246.015 683.091C246.251 683.15 246.606 683.18 247.078 683.18C247.58 683.18 247.994 683.18 248.348 683.121V686.311C247.315 686.4 246.458 686.429 245.808 686.429C243.977 686.429 242.707 686.134 242.057 685.484C241.407 684.834 241.082 683.594 241.082 681.762V673.846H238.542V671.01H241.082V666.402H245.247V671.01H248.348ZM264.67 681.526C264.197 683.18 263.311 684.45 262.041 685.336C260.771 686.252 259.264 686.695 257.492 686.695C255.159 686.695 253.268 685.986 251.85 684.509C250.433 683.062 249.724 681.142 249.724 678.72C249.724 676.357 250.433 674.407 251.88 672.871C253.298 671.335 255.129 670.567 257.374 670.567C259.678 670.567 261.509 671.365 262.868 672.93C264.227 674.496 264.906 676.623 264.906 679.281V679.695H253.977C253.977 681.024 254.302 682.028 254.922 682.707C255.543 683.416 256.429 683.741 257.551 683.741C259.028 683.741 260.062 683.003 260.653 681.526H264.67ZM260.623 677.036C260.535 676.032 260.21 675.234 259.648 674.584C259.117 673.935 258.349 673.61 257.345 673.61C256.429 673.61 255.661 673.935 255.041 674.525C254.45 675.146 254.066 675.973 253.948 677.036H260.623Z" fill="white"/>
<path d="M248.092 463.666C248.873 464.447 250.139 464.447 250.92 463.666L263.648 450.938C264.429 450.157 264.429 448.891 263.648 448.11C262.867 447.329 261.601 447.329 260.82 448.11L249.506 459.424L238.192 448.11C237.411 447.329 236.145 447.329 235.364 448.11C234.583 448.891 234.583 450.157 235.364 450.938L248.092 463.666ZM249.506 429.252L247.506 429.252L247.506 462.252L249.506 462.252L251.506 462.252L251.506 429.252L249.506 429.252Z" fill="white"/>
<path d="M208.092 463.666C208.873 464.447 210.139 464.447 210.92 463.666L223.648 450.938C224.429 450.157 224.429 448.891 223.648 448.11C222.867 447.329 221.601 447.329 220.82 448.11L209.506 459.424L198.192 448.11C197.411 447.329 196.145 447.329 195.364 448.11C194.583 448.891 194.583 450.157 195.364 450.938L208.092 463.666ZM209.506 429.252L207.506 429.252L207.506 462.252L209.506 462.252L211.506 462.252L211.506 429.252L209.506 429.252Z" fill="white"/>
<path d="M168.092 463.666C168.873 464.447 170.139 464.447 170.92 463.666L183.648 450.938C184.429 450.157 184.429 448.891 183.648 448.11C182.867 447.329 181.601 447.329 180.82 448.11L169.506 459.424L158.192 448.11C157.411 447.329 156.145 447.329 155.364 448.11C154.583 448.891 154.583 450.157 155.364 450.938L168.092 463.666ZM169.506 429.252L167.506 429.252L167.506 462.252L169.506 462.252L171.506 462.252L171.506 429.252L169.506 429.252Z" fill="white"/>
<path d="M147.414 450.161C148.195 449.38 148.195 448.114 147.414 447.333L134.686 434.605C133.905 433.824 132.639 433.824 131.858 434.605C131.077 435.386 131.077 436.652 131.858 437.433L143.172 448.747L131.858 460.061C131.077 460.842 131.077 462.108 131.858 462.889C132.639 463.67 133.905 463.67 134.686 462.889L147.414 450.161ZM113 448.747V450.747H146V448.747V446.747H113V448.747Z" fill="black"/>
<path d="M107.414 450.161C108.195 449.38 108.195 448.114 107.414 447.333L94.6863 434.605C93.9052 433.824 92.6389 433.824 91.8579 434.605C91.0768 435.386 91.0768 436.652 91.8579 437.433L103.172 448.747L91.8579 460.061C91.0768 460.842 91.0768 462.108 91.8579 462.889C92.6389 463.67 93.9052 463.67 94.6863 462.889L107.414 450.161ZM73 448.747V450.747H106V448.747V446.747H73V448.747Z" fill="black"/>
<path d="M248.092 517.666C248.873 518.447 250.139 518.447 250.92 517.666L263.648 504.938C264.429 504.157 264.429 502.891 263.648 502.11C262.867 501.329 261.601 501.329 260.82 502.11L249.506 513.424L238.192 502.11C237.411 501.329 236.145 501.329 235.364 502.11C234.583 502.891 234.583 504.157 235.364 504.938L248.092 517.666ZM249.506 484.252L247.506 484.252L247.506 516.252L249.506 516.252L251.506 516.252L251.506 484.252L249.506 484.252Z" fill="white"/>
<path d="M208.092 517.666C208.873 518.447 210.139 518.447 210.92 517.666L223.648 504.938C224.429 504.157 224.429 502.891 223.648 502.11C222.867 501.329 221.601 501.329 220.82 502.11L209.506 513.424L198.192 502.11C197.411 501.329 196.145 501.329 195.364 502.11C194.583 502.891 194.583 504.157 195.364 504.938L208.092 517.666ZM209.506 484.252L207.506 484.252L207.506 516.252L209.506 516.252L211.506 516.252L211.506 484.252L209.506 484.252Z" fill="white"/>
<path d="M168.092 517.666C168.873 518.447 170.139 518.447 170.92 517.666L183.648 504.938C184.429 504.157 184.429 502.891 183.648 502.11C182.867 501.329 181.601 501.329 180.82 502.11L169.506 513.424L158.192 502.11C157.411 501.329 156.145 501.329 155.364 502.11C154.583 502.891 154.583 504.157 155.364 504.938L168.092 517.666ZM169.506 484.252L167.506 484.252L167.506 516.252L169.506 516.252L171.506 516.252L171.506 484.252L169.506 484.252Z" fill="white"/>
<path d="M146.914 504.661C147.695 503.88 147.695 502.614 146.914 501.833L134.186 489.105C133.405 488.324 132.139 488.324 131.358 489.105C130.577 489.886 130.577 491.152 131.358 491.933L142.672 503.247L131.358 514.561C130.577 515.342 130.577 516.608 131.358 517.389C132.139 518.17 133.405 518.17 134.186 517.389L146.914 504.661ZM113.5 503.247V505.247H145.5V503.247V501.247H113.5V503.247Z" fill="black"/>
<path d="M106.914 504.661C107.695 503.88 107.695 502.614 106.914 501.833L94.1863 489.105C93.4052 488.324 92.1389 488.324 91.3579 489.105C90.5768 489.886 90.5768 491.152 91.3579 491.933L102.672 503.247L91.3579 514.561C90.5768 515.342 90.5768 516.608 91.3579 517.389C92.1389 518.17 93.4052 518.17 94.1863 517.389L106.914 504.661ZM73.5 503.247V505.247H105.5V503.247V501.247H73.5V503.247Z" fill="black"/>
<path d="M248.092 571.666C248.873 572.447 250.139 572.447 250.92 571.666L263.648 558.938C264.429 558.157 264.429 556.891 263.648 556.11C262.867 555.329 261.601 555.329 260.82 556.11L249.506 567.424L238.192 556.11C237.411 555.329 236.145 555.329 235.364 556.11C234.583 556.891 234.583 558.157 235.364 558.938L248.092 571.666ZM249.506 538.252L247.506 538.252L247.506 570.252L249.506 570.252L251.506 570.252L251.506 538.252L249.506 538.252Z" fill="white"/>
<path d="M208.092 571.666C208.873 572.447 210.139 572.447 210.92 571.666L223.648 558.938C224.429 558.157 224.429 556.891 223.648 556.11C222.867 555.329 221.601 555.329 220.82 556.11L209.506 567.424L198.192 556.11C197.411 555.329 196.145 555.329 195.364 556.11C194.583 556.891 194.583 558.157 195.364 558.938L208.092 571.666ZM209.506 538.252L207.506 538.252L207.506 570.252L209.506 570.252L211.506 570.252L211.506 538.252L209.506 538.252Z" fill="white"/>
<path d="M168.092 571.666C168.873 572.447 170.139 572.447 170.92 571.666L183.648 558.938C184.429 558.157 184.429 556.891 183.648 556.11C182.867 555.329 181.601 555.329 180.82 556.11L169.506 567.424L158.192 556.11C157.411 555.329 156.145 555.329 155.364 556.11C154.583 556.891 154.583 558.157 155.364 558.938L168.092 571.666ZM169.506 538.252L167.506 538.252L167.506 570.252L169.506 570.252L171.506 570.252L171.506 538.252L169.506 538.252Z" fill="white"/>
<path d="M146.914 558.661C147.695 557.88 147.695 556.614 146.914 555.833L134.186 543.105C133.405 542.324 132.139 542.324 131.358 543.105C130.577 543.886 130.577 545.152 131.358 545.933L142.672 557.247L131.358 568.561C130.577 569.342 130.577 570.608 131.358 571.389C132.139 572.17 133.405 572.17 134.186 571.389L146.914 558.661ZM113.5 557.247V559.247H145.5V557.247V555.247H113.5V557.247Z" fill="black"/>
<path d="M106.914 558.661C107.695 557.88 107.695 556.614 106.914 555.833L94.1863 543.105C93.4052 542.324 92.1389 542.324 91.3579 543.105C90.5768 543.886 90.5768 545.152 91.3579 545.933L102.672 557.247L91.3579 568.561C90.5768 569.342 90.5768 570.608 91.3579 571.389C92.1389 572.17 93.4052 572.17 94.1863 571.389L106.914 558.661ZM73.5 557.247V559.247H105.5V557.247V555.247H73.5V557.247Z" fill="black"/>
<path d="M248.092 626.666C248.873 627.447 250.139 627.447 250.92 626.666L263.648 613.938C264.429 613.157 264.429 611.891 263.648 611.11C262.867 610.329 261.601 610.329 260.82 611.11L249.506 622.424L238.192 611.11C237.411 610.329 236.145 610.329 235.364 611.11C234.583 611.891 234.583 613.157 235.364 613.938L248.092 626.666ZM249.506 592.252L247.506 592.252L247.506 625.252L249.506 625.252L251.506 625.252L251.506 592.252L249.506 592.252Z" fill="white"/>
<path d="M208.092 626.666C208.873 627.447 210.139 627.447 210.92 626.666L223.648 613.938C224.429 613.157 224.429 611.891 223.648 611.11C222.867 610.329 221.601 610.329 220.82 611.11L209.506 622.424L198.192 611.11C197.411 610.329 196.145 610.329 195.364 611.11C194.583 611.891 194.583 613.157 195.364 613.938L208.092 626.666ZM209.506 592.252L207.506 592.252L207.506 625.252L209.506 625.252L211.506 625.252L211.506 592.252L209.506 592.252Z" fill="white"/>
<path d="M168.092 626.666C168.873 627.447 170.139 627.447 170.92 626.666L183.648 613.938C184.429 613.157 184.429 611.891 183.648 611.11C182.867 610.329 181.601 610.329 180.82 611.11L169.506 622.424L158.192 611.11C157.411 610.329 156.145 610.329 155.364 611.11C154.583 611.891 154.583 613.157 155.364 613.938L168.092 626.666ZM169.506 592.252L167.506 592.252L167.506 625.252L169.506 625.252L171.506 625.252L171.506 592.252L169.506 592.252Z" fill="white"/>
<path d="M147.414 613.161C148.195 612.38 148.195 611.114 147.414 610.333L134.686 597.605C133.905 596.824 132.639 596.824 131.858 597.605C131.077 598.386 131.077 599.652 131.858 600.433L143.172 611.747L131.858 623.061C131.077 623.842 131.077 625.108 131.858 625.889C132.639 626.67 133.905 626.67 134.686 625.889L147.414 613.161ZM113 611.747V613.747H146V611.747V609.747H113V611.747Z" fill="black"/>
<path d="M107.414 613.161C108.195 612.38 108.195 611.114 107.414 610.333L94.6863 597.605C93.9052 596.824 92.6389 596.824 91.8579 597.605C91.0768 598.386 91.0768 599.652 91.8579 600.433L103.172 611.747L91.8579 623.061C91.0768 623.842 91.0768 625.108 91.8579 625.889C92.6389 626.67 93.9052 626.67 94.6863 625.889L107.414 613.161ZM73 611.747V613.747H106V611.747V609.747H73V611.747Z" fill="black"/>
<path d="M414.892 331.129C414.656 333.787 413.711 335.885 412.116 337.45C410.491 338.986 408.276 339.784 405.47 339.784C402.398 339.784 399.946 338.75 398.085 336.741C396.224 334.733 395.309 332.045 395.309 328.736C395.309 325.576 396.224 322.947 398.115 320.879C400.005 318.782 402.516 317.748 405.647 317.748C408.128 317.748 410.225 318.457 411.939 319.875C413.622 321.293 414.567 323.095 414.745 325.28H410.225C409.989 324.099 409.457 323.213 408.63 322.563C407.803 321.913 406.799 321.618 405.558 321.618C404.259 321.618 403.195 321.972 402.309 322.681C401.423 323.39 400.832 324.276 400.478 325.31C400.123 326.373 399.946 327.496 399.946 328.736C399.946 330.922 400.448 332.635 401.453 333.935C402.457 335.235 403.786 335.855 405.499 335.855C408.305 335.855 409.9 334.29 410.314 331.129H414.892ZM421.87 318.221V339.252H417.675V318.221H421.87ZM432.675 323.567C435.008 323.567 436.899 324.306 438.317 325.783C439.735 327.259 440.473 329.209 440.473 331.631C440.473 334.083 439.735 336.032 438.317 337.509C436.899 338.986 434.979 339.725 432.616 339.725C430.223 339.725 428.303 338.986 426.886 337.509C425.438 336.032 424.729 334.083 424.729 331.631C424.729 329.209 425.438 327.259 426.915 325.783C428.362 324.306 430.282 323.567 432.675 323.567ZM432.557 326.757C431.434 326.757 430.548 327.2 429.898 328.087C429.249 328.943 428.924 330.125 428.924 331.661C428.924 333.197 429.249 334.408 429.898 335.294C430.548 336.15 431.434 336.594 432.616 336.594C433.768 336.594 434.654 336.15 435.304 335.264C435.954 334.378 436.279 333.167 436.279 331.602C436.279 330.095 435.924 328.914 435.274 328.057C434.624 327.2 433.709 326.757 432.557 326.757ZM456.108 328.441L452.18 328.471C452.062 327.703 451.796 327.141 451.323 326.846C450.851 326.521 450.171 326.373 449.285 326.373C448.547 326.373 447.956 326.492 447.542 326.757C447.129 327.023 446.922 327.407 446.922 327.88C446.922 328.411 447.158 328.795 447.631 329.032C448.104 329.239 448.96 329.475 450.171 329.741C450.408 329.77 450.555 329.8 450.644 329.829C451.353 329.947 451.943 330.066 452.357 330.184C452.771 330.302 453.302 330.479 453.893 330.715C454.513 330.952 454.986 331.247 455.311 331.543C455.665 331.838 455.961 332.251 456.197 332.754C456.463 333.285 456.581 333.876 456.581 334.526C456.581 336.121 455.961 337.391 454.72 338.307C453.479 339.252 451.796 339.695 449.61 339.695C447.542 339.695 445.859 339.252 444.5 338.366C443.171 337.48 442.491 336.121 442.462 334.29H446.449C446.597 336.003 447.69 336.83 449.699 336.83C450.555 336.83 451.235 336.682 451.737 336.328C452.239 335.973 452.475 335.53 452.475 334.939C452.475 334.378 452.268 333.965 451.796 333.728C451.353 333.492 450.526 333.256 449.285 332.96C449.196 332.96 449.108 332.931 449.049 332.901C448.931 332.872 448.606 332.813 448.133 332.695C447.66 332.606 447.336 332.547 447.158 332.488C446.981 332.429 446.656 332.34 446.243 332.222C445.829 332.104 445.504 332.015 445.297 331.897C445.12 331.779 444.854 331.661 444.529 331.483C444.205 331.306 443.968 331.129 443.791 330.922C443.643 330.745 443.466 330.509 443.289 330.243C443.112 329.977 442.964 329.682 442.905 329.327C442.846 329.002 442.816 328.648 442.816 328.234C442.816 326.757 443.377 325.605 444.559 324.778C445.711 323.981 447.365 323.567 449.492 323.567C451.382 323.567 452.948 323.981 454.188 324.749C455.399 325.546 456.049 326.787 456.108 328.441ZM473.391 324.01V339.252H469.404V337.096C468.222 338.838 466.568 339.695 464.441 339.695C462.758 339.695 461.458 339.252 460.513 338.336C459.568 337.421 459.124 336.062 459.124 334.26V324.01H463.348V332.724C463.348 333.315 463.348 333.758 463.407 334.112C463.467 334.467 463.555 334.792 463.732 335.146C463.88 335.501 464.146 335.766 464.5 335.944C464.855 336.121 465.327 336.18 465.918 336.18C468.104 336.18 469.226 334.762 469.226 331.867V324.01H473.391ZM486.5 323.744V327.614C485.909 327.496 485.348 327.437 484.875 327.437C483.487 327.437 482.482 327.88 481.833 328.766C481.183 329.652 480.858 330.804 480.858 332.281V339.252H476.663V324.01H480.651V326.816C481.655 324.719 483.28 323.656 485.584 323.656C485.761 323.656 486.086 323.685 486.5 323.744ZM501.892 334.526C501.419 336.18 500.533 337.45 499.263 338.336C497.993 339.252 496.486 339.695 494.714 339.695C492.38 339.695 490.49 338.986 489.072 337.509C487.654 336.062 486.945 334.142 486.945 331.72C486.945 329.357 487.654 327.407 489.102 325.871C490.52 324.335 492.351 323.567 494.596 323.567C496.9 323.567 498.731 324.365 500.09 325.93C501.449 327.496 502.128 329.623 502.128 332.281V332.695H491.199C491.199 334.024 491.524 335.028 492.144 335.707C492.764 336.416 493.651 336.741 494.773 336.741C496.25 336.741 497.284 336.003 497.874 334.526H501.892ZM497.845 330.036C497.756 329.032 497.431 328.234 496.87 327.584C496.339 326.935 495.571 326.61 494.566 326.61C493.651 326.61 492.883 326.935 492.262 327.525C491.672 328.146 491.288 328.973 491.169 330.036H497.845Z" fill="white"/>
<path d="M354 109.088V97.252H421.25L425.493 109.088H354Z" fill="#F5F5F5"/>
<path d="M472.507 109.088L476.75 97.252H543.351V109.088H472.507Z" fill="#F5F5F5"/>
<path d="M354 132.107V120.287H429.404L433.332 132.107H354Z" fill="#F5F5F5"/>
<path d="M464.335 132.107L468.263 120.287H543.351V132.107H464.335Z" fill="#F5F5F5"/>
<path d="M377.831 155.142V143.289H437.259L441.503 155.142H377.831Z" fill="#F5F5F5"/>
<path d="M456.181 155.142L460.441 143.289H520.169V155.142H456.181Z" fill="#F5F5F5"/>
<path d="M377.831 178.161V166.325H445.58L449.175 176.35L452.753 166.325H520.169V178.161H484.256V171.572L481.809 178.161H416.024L413.744 171.572V178.161H377.831Z" fill="#F5F5F5"/>
<path d="M377.831 201.179V189.343H413.744V201.179H377.831Z" fill="#F5F5F5"/>
<path d="M424.611 201.179L420.268 189.343H478.065L473.938 201.179H424.611Z" fill="#F5F5F5"/>
<path d="M484.256 201.179V189.343H520.169V201.179H484.256Z" fill="#F5F5F5"/>
<path d="M377.831 224.198V212.362H413.744V224.198H377.831Z" fill="#F5F5F5"/>
<path d="M432.633 224.198L428.422 212.362H469.944L465.7 224.198H432.633Z" fill="#F5F5F5"/>
<path d="M484.256 224.198V212.362H520.169V224.198H484.256Z" fill="#F5F5F5"/>
<path d="M354.649 247.233V235.38H413.744V247.233H354.649Z" fill="#F5F5F5"/>
<path d="M440.92 247.233L436.593 235.38H461.806L457.745 247.233H440.92Z" fill="#F5F5F5"/>
<path d="M484.256 247.233V235.38H544V247.233H484.256Z" fill="#F5F5F5"/>
<path d="M354.649 270.252V258.416H413.744V270.252H354.649Z" fill="#F5F5F5"/>
<path d="M448.958 270.218L444.798 258.416H453.901L449.674 270.235L448.958 270.218Z" fill="#F5F5F5"/>
<path d="M484.256 270.252V258.416H544V270.252H484.256Z" fill="#F5F5F5"/>
<path d="M399.865 671.483L395.464 671.512C395.287 669.415 393.958 668.381 391.476 668.381C390.413 668.381 389.586 668.588 388.995 669.002C388.404 669.415 388.08 670.006 388.08 670.774C388.08 671.01 388.139 671.247 388.198 671.453C388.286 671.631 388.434 671.808 388.641 671.985C388.877 672.162 389.084 672.28 389.291 672.399C389.527 672.517 389.852 672.635 390.265 672.753C390.679 672.871 391.063 672.989 391.417 673.108C391.772 673.196 392.244 673.314 392.865 673.492C393.515 673.639 394.046 673.787 394.519 673.935C396.586 674.525 398.152 675.264 399.156 676.15C400.161 677.036 400.663 678.306 400.663 679.96C400.663 681.142 400.426 682.205 399.924 683.091C399.452 683.978 398.772 684.686 397.945 685.218C397.118 685.75 396.202 686.134 395.198 686.37C394.194 686.606 393.131 686.754 392.008 686.754C389.172 686.754 386.928 686.075 385.332 684.775C383.737 683.475 382.91 681.614 382.881 679.251H387.459C387.548 681.88 389.143 683.21 392.215 683.21C393.426 683.21 394.371 682.944 395.08 682.442C395.789 681.939 396.114 681.26 396.114 680.403C396.114 679.665 395.818 679.133 395.169 678.808C394.519 678.454 393.19 678.011 391.122 677.42C391.004 677.391 390.915 677.361 390.856 677.361C390.797 677.331 390.738 677.302 390.62 677.272C390.531 677.243 390.443 677.213 390.354 677.213C389.645 677.007 389.172 676.859 388.877 676.77C388.611 676.682 388.168 676.534 387.577 676.327C386.987 676.091 386.544 675.914 386.278 675.736C385.982 675.559 385.657 675.293 385.244 674.998C384.83 674.673 384.564 674.348 384.387 673.994C384.21 673.639 384.033 673.226 383.885 672.724C383.737 672.221 383.678 671.69 383.678 671.099C383.678 669.179 384.417 667.643 385.894 666.491C387.371 665.369 389.32 664.778 391.772 664.778C394.135 664.778 396.055 665.339 397.561 666.461C399.038 667.584 399.806 669.238 399.865 671.483ZM407.351 665.221V668.765H403.156V665.221H407.351ZM407.351 671.01V686.252H403.156V671.01H407.351ZM434.136 686.252H429.883V677.154C429.883 676.15 429.705 675.382 429.41 674.85C429.085 674.319 428.435 674.023 427.46 674.023C425.511 674.023 424.536 675.264 424.536 677.686V686.252H420.342V676.977C420.342 676.032 420.165 675.323 419.869 674.791C419.544 674.259 418.924 673.994 418.038 673.994C416 673.994 414.995 675.323 414.995 677.981V686.252H410.801V671.01H414.789V673.108C415.97 671.453 417.595 670.597 419.633 670.597C421.73 670.597 423.177 671.453 423.945 673.108C425.156 671.453 426.811 670.597 428.937 670.597C430.591 670.597 431.891 671.099 432.777 672.074C433.663 673.048 434.136 674.348 434.136 676.002V686.252ZM460.905 686.252H456.651V677.154C456.651 676.15 456.474 675.382 456.179 674.85C455.854 674.319 455.204 674.023 454.229 674.023C452.28 674.023 451.305 675.264 451.305 677.686V686.252H447.111V676.977C447.111 676.032 446.933 675.323 446.638 674.791C446.313 674.259 445.693 673.994 444.807 673.994C442.769 673.994 441.764 675.323 441.764 677.981V686.252H437.57V671.01H441.557V673.108C442.739 671.453 444.364 670.597 446.402 670.597C448.499 670.597 449.946 671.453 450.714 673.108C451.925 671.453 453.579 670.597 455.706 670.597C457.36 670.597 458.66 671.099 459.546 672.074C460.432 673.048 460.905 674.348 460.905 676.002V686.252ZM478.517 681.526C478.044 683.18 477.158 684.45 475.888 685.336C474.618 686.252 473.112 686.695 471.339 686.695C469.006 686.695 467.115 685.986 465.697 684.509C464.28 683.062 463.571 681.142 463.571 678.72C463.571 676.357 464.28 674.407 465.727 672.871C467.145 671.335 468.976 670.567 471.221 670.567C473.525 670.567 475.356 671.365 476.715 672.93C478.074 674.496 478.753 676.623 478.753 679.281V679.695H467.824C467.824 681.024 468.149 682.028 468.769 682.707C469.39 683.416 470.276 683.741 471.398 683.741C472.875 683.741 473.909 683.003 474.5 681.526H478.517ZM474.47 677.036C474.382 676.032 474.057 675.234 473.496 674.584C472.964 673.935 472.196 673.61 471.192 673.61C470.276 673.61 469.508 673.935 468.888 674.525C468.297 675.146 467.913 675.973 467.795 677.036H474.47ZM489.541 671.01V673.876H486.44V681.053C486.44 681.496 486.44 681.821 486.469 682.028C486.469 682.235 486.558 682.442 486.676 682.678C486.794 682.885 486.971 683.032 487.208 683.091C487.444 683.15 487.798 683.18 488.271 683.18C488.773 683.18 489.187 683.18 489.541 683.121V686.311C488.507 686.4 487.651 686.429 487.001 686.429C485.17 686.429 483.899 686.134 483.25 685.484C482.6 684.834 482.275 683.594 482.275 681.762V673.846H479.735V671.01H482.275V666.402H486.44V671.01H489.541ZM501.432 670.744V674.614C500.841 674.496 500.28 674.437 499.807 674.437C498.419 674.437 497.415 674.88 496.765 675.766C496.115 676.652 495.79 677.804 495.79 679.281V686.252H491.596V671.01H495.584V673.816C496.588 671.719 498.212 670.656 500.516 670.656C500.694 670.656 501.019 670.685 501.432 670.744ZM516.871 671.01L511.229 686.222C510.963 686.99 510.756 687.522 510.638 687.817C510.52 688.113 510.313 688.556 510.048 689.117C509.782 689.649 509.545 690.033 509.309 690.269C509.073 690.476 508.777 690.712 508.393 691.008C508.009 691.273 507.566 691.451 507.094 691.539C506.621 691.657 506.06 691.687 505.44 691.687C504.908 691.687 503.992 691.687 502.633 691.657V688.201H504.672C505.351 688.201 505.883 688.024 506.237 687.67C506.592 687.315 506.798 686.813 506.798 686.163C506.798 686.016 506.739 685.809 506.68 685.573L501.157 671.01H505.676L509.161 681.378L512.529 671.01H516.871Z" fill="white"/>
<path d="M523.191 445.252V608.917H489.236V596.701H508.639V457.468H489.236V445.252H523.191Z" fill="white"/>
<path d="M407.955 445.252V457.468H388.552V596.701H407.955V608.917H374V445.252H407.955Z" fill="white"/>
<path d="M895.105 331.129C894.868 333.787 893.923 335.885 892.328 337.45C890.704 338.986 888.488 339.784 885.682 339.784C882.61 339.784 880.158 338.75 878.298 336.741C876.437 334.733 875.521 332.045 875.521 328.736C875.521 325.576 876.437 322.947 878.327 320.879C880.218 318.782 882.728 317.748 885.859 317.748C888.34 317.748 890.438 318.457 892.151 319.875C893.835 321.293 894.78 323.095 894.957 325.28H890.438C890.201 324.099 889.67 323.213 888.843 322.563C888.016 321.913 887.011 321.618 885.771 321.618C884.471 321.618 883.408 321.972 882.521 322.681C881.635 323.39 881.045 324.276 880.69 325.31C880.336 326.373 880.158 327.496 880.158 328.736C880.158 330.922 880.661 332.635 881.665 333.935C882.669 335.235 883.998 335.855 885.712 335.855C888.518 335.855 890.113 334.29 890.526 331.129H895.105ZM905.272 323.567C907.606 323.567 909.496 324.306 910.914 325.783C912.332 327.259 913.07 329.209 913.07 331.631C913.07 334.083 912.332 336.032 910.914 337.509C909.496 338.986 907.576 339.725 905.213 339.725C902.82 339.725 900.9 338.986 899.483 337.509C898.035 336.032 897.326 334.083 897.326 331.631C897.326 329.209 898.035 327.259 899.512 325.783C900.959 324.306 902.879 323.567 905.272 323.567ZM905.154 326.757C904.031 326.757 903.145 327.2 902.495 328.087C901.846 328.943 901.521 330.125 901.521 331.661C901.521 333.197 901.846 334.408 902.495 335.294C903.145 336.15 904.031 336.594 905.213 336.594C906.365 336.594 907.251 336.15 907.901 335.264C908.551 334.378 908.876 333.167 908.876 331.602C908.876 330.095 908.521 328.914 907.871 328.057C907.222 327.2 906.306 326.757 905.154 326.757ZM939.31 339.252H935.056V330.154C935.056 329.15 934.879 328.382 934.583 327.85C934.259 327.319 933.609 327.023 932.634 327.023C930.684 327.023 929.71 328.264 929.71 330.686V339.252H925.515V329.977C925.515 329.032 925.338 328.323 925.043 327.791C924.718 327.259 924.097 326.994 923.211 326.994C921.173 326.994 920.169 328.323 920.169 330.981V339.252H915.974V324.01H919.962V326.108C921.144 324.453 922.768 323.597 924.806 323.597C926.904 323.597 928.351 324.453 929.119 326.108C930.33 324.453 931.984 323.597 934.111 323.597C935.765 323.597 937.065 324.099 937.951 325.074C938.837 326.048 939.31 327.348 939.31 329.002V339.252ZM966.078 339.252H961.825V330.154C961.825 329.15 961.648 328.382 961.352 327.85C961.027 327.319 960.378 327.023 959.403 327.023C957.453 327.023 956.479 328.264 956.479 330.686V339.252H952.284V329.977C952.284 329.032 952.107 328.323 951.812 327.791C951.487 327.259 950.866 326.994 949.98 326.994C947.942 326.994 946.938 328.323 946.938 330.981V339.252H942.743V324.01H946.731V326.108C947.913 324.453 949.537 323.597 951.575 323.597C953.672 323.597 955.12 324.453 955.888 326.108C957.099 324.453 958.753 323.597 960.88 323.597C962.534 323.597 963.834 324.099 964.72 325.074C965.606 326.048 966.078 327.348 966.078 329.002V339.252ZM976.867 323.567C979.201 323.567 981.091 324.306 982.509 325.783C983.927 327.259 984.665 329.209 984.665 331.631C984.665 334.083 983.927 336.032 982.509 337.509C981.091 338.986 979.171 339.725 976.808 339.725C974.416 339.725 972.496 338.986 971.078 337.509C969.63 336.032 968.921 334.083 968.921 331.631C968.921 329.209 969.63 327.259 971.107 325.783C972.555 324.306 974.475 323.567 976.867 323.567ZM976.749 326.757C975.627 326.757 974.74 327.2 974.091 328.087C973.441 328.943 973.116 330.125 973.116 331.661C973.116 333.197 973.441 334.408 974.091 335.294C974.74 336.15 975.627 336.594 976.808 336.594C977.96 336.594 978.846 336.15 979.496 335.264C980.146 334.378 980.471 333.167 980.471 331.602C980.471 330.095 980.116 328.914 979.467 328.057C978.817 327.2 977.901 326.757 976.749 326.757ZM1001.78 339.252H997.524V330.361C997.524 329.298 997.347 328.471 996.992 327.909C996.638 327.348 995.929 327.053 994.925 327.053C992.709 327.053 991.616 328.411 991.616 331.07V339.252H987.452V324.01H991.439V326.137C992.68 324.453 994.363 323.597 996.49 323.597C998.115 323.597 999.414 324.069 1000.36 325.015C1001.3 325.96 1001.78 327.319 1001.78 329.061V339.252ZM1023.05 323.744V327.614C1022.46 327.496 1021.9 327.437 1021.42 327.437C1020.03 327.437 1019.03 327.88 1018.38 328.766C1017.73 329.652 1017.41 330.804 1017.41 332.281V339.252H1013.21V324.01H1017.2V326.816C1018.2 324.719 1019.83 323.656 1022.13 323.656C1022.31 323.656 1022.63 323.685 1023.05 323.744ZM1038.44 334.526C1037.97 336.18 1037.08 337.45 1035.81 338.336C1034.54 339.252 1033.03 339.695 1031.26 339.695C1028.93 339.695 1027.04 338.986 1025.62 337.509C1024.2 336.062 1023.49 334.142 1023.49 331.72C1023.49 329.357 1024.2 327.407 1025.65 325.871C1027.07 324.335 1028.9 323.567 1031.14 323.567C1033.45 323.567 1035.28 324.365 1036.64 325.93C1038 327.496 1038.68 329.623 1038.68 332.281V332.695H1027.75C1027.75 334.024 1028.07 335.028 1028.69 335.707C1029.31 336.416 1030.2 336.741 1031.32 336.741C1032.8 336.741 1033.83 336.003 1034.42 334.526H1038.44ZM1034.39 330.036C1034.3 329.032 1033.98 328.234 1033.42 327.584C1032.89 326.935 1032.12 326.61 1031.11 326.61C1030.2 326.61 1029.43 326.935 1028.81 327.525C1028.22 328.146 1027.84 328.973 1027.72 330.036H1034.39ZM1055.7 324.01V337.686C1055.7 340.168 1055.08 341.999 1053.84 343.181C1052.59 344.362 1050.7 344.953 1048.19 344.953C1043.82 344.953 1041.46 343.358 1041.05 340.197H1045.21C1045.36 340.877 1045.68 341.379 1046.19 341.674C1046.66 341.969 1047.37 342.147 1048.28 342.147C1049.58 342.147 1050.47 341.822 1050.94 341.172C1051.38 340.522 1051.62 339.547 1051.65 338.189L1051.68 336.475C1050.53 338.041 1048.96 338.838 1047.01 338.838C1045 338.838 1043.44 338.159 1042.26 336.8C1041.08 335.442 1040.51 333.61 1040.51 331.336C1040.51 329.002 1041.1 327.141 1042.35 325.724C1043.56 324.306 1045.18 323.597 1047.19 323.597C1048.25 323.597 1049.11 323.804 1049.82 324.188C1050.53 324.572 1051.15 325.192 1051.74 326.048V324.01H1055.7ZM1048.16 326.876C1047.04 326.876 1046.19 327.259 1045.56 328.027C1044.94 328.795 1044.62 329.888 1044.62 331.306C1044.62 332.635 1044.94 333.699 1045.59 334.496C1046.24 335.294 1047.1 335.707 1048.16 335.707C1049.26 335.707 1050.11 335.294 1050.73 334.496C1051.38 333.669 1051.68 332.576 1051.68 331.218C1051.68 329.859 1051.38 328.795 1050.73 328.027C1050.11 327.259 1049.26 326.876 1048.16 326.876ZM1063.45 318.221V321.765H1059.25V318.221H1063.45ZM1063.45 324.01V339.252H1059.25V324.01H1063.45ZM1074.25 323.567C1076.58 323.567 1078.47 324.306 1079.89 325.783C1081.31 327.259 1082.05 329.209 1082.05 331.631C1082.05 334.083 1081.31 336.032 1079.89 337.509C1078.47 338.986 1076.55 339.725 1074.19 339.725C1071.8 339.725 1069.88 338.986 1068.46 337.509C1067.01 336.032 1066.3 334.083 1066.3 331.631C1066.3 329.209 1067.01 327.259 1068.49 325.783C1069.94 324.306 1071.86 323.567 1074.25 323.567ZM1074.13 326.757C1073.01 326.757 1072.12 327.2 1071.47 328.087C1070.82 328.943 1070.5 330.125 1070.5 331.661C1070.5 333.197 1070.82 334.408 1071.47 335.294C1072.12 336.15 1073.01 336.594 1074.19 336.594C1075.34 336.594 1076.23 336.15 1076.88 335.264C1077.53 334.378 1077.85 333.167 1077.85 331.602C1077.85 330.095 1077.5 328.914 1076.85 328.057C1076.2 327.2 1075.28 326.757 1074.13 326.757ZM1099.16 339.252H1094.91V330.361C1094.91 329.298 1094.73 328.471 1094.38 327.909C1094.02 327.348 1093.31 327.053 1092.31 327.053C1090.09 327.053 1089 328.411 1089 331.07V339.252H1084.83V324.01H1088.82V326.137C1090.06 324.453 1091.75 323.597 1093.87 323.597C1095.5 323.597 1096.8 324.069 1097.74 325.015C1098.69 325.96 1099.16 327.319 1099.16 329.061V339.252Z" fill="white"/>
<ellipse cx="983.016" cy="258.089" rx="11.7668" ry="11.7668" transform="rotate(90 983.016 258.089)" fill="#F5F5F5"/>
<ellipse cx="983.016" cy="111.239" rx="11.7668" ry="11.7668" transform="rotate(90 983.016 111.239)" fill="#F5F5F5"/>
<ellipse cx="1026.32" cy="254.324" rx="11.7668" ry="11.7668" transform="rotate(-90 1026.32 254.324)" fill="#F5F5F5"/>
<ellipse cx="1026.32" cy="112.18" rx="11.7668" ry="11.7668" transform="rotate(-90 1026.32 112.18)" fill="#F5F5F5"/>
<ellipse cx="1026.32" cy="147.01" rx="11.7668" ry="11.7668" transform="rotate(-90 1026.32 147.01)" fill="#F5F5F5"/>
<ellipse cx="1026.32" cy="181.84" rx="11.7668" ry="11.7668" transform="rotate(-90 1026.32 181.84)" fill="#F5F5F5"/>
<ellipse cx="1026.32" cy="219.494" rx="11.7668" ry="11.7668" transform="rotate(-90 1026.32 219.494)" fill="#F5F5F5"/>
<ellipse cx="948.186" cy="257.148" rx="11.7668" ry="11.7668" transform="rotate(90 948.186 257.148)" fill="#F5F5F5"/>
<ellipse cx="948.186" cy="110.298" rx="11.7668" ry="11.7668" transform="rotate(90 948.186 110.298)" fill="#F5F5F5"/>
<ellipse cx="948.186" cy="145.127" rx="11.7668" ry="11.7668" transform="rotate(90 948.186 145.127)" fill="#F5F5F5"/>
<ellipse cx="948.186" cy="179.957" rx="11.7668" ry="11.7668" transform="rotate(90 948.186 179.957)" fill="#F5F5F5"/>
<ellipse cx="983.016" cy="145.127" rx="11.7668" ry="11.7668" transform="rotate(90 983.016 145.127)" fill="#F5F5F5"/>
<ellipse cx="983.016" cy="179.957" rx="11.7668" ry="11.7668" transform="rotate(90 983.016 179.957)" fill="#F5F5F5"/>
<ellipse cx="948.186" cy="222.318" rx="11.7668" ry="11.7668" transform="rotate(90 948.186 222.318)" fill="#F5F5F5"/>
<ellipse cx="983.016" cy="222.318" rx="11.7668" ry="11.7668" transform="rotate(90 983.016 222.318)" fill="#F5F5F5"/>
<ellipse cx="913.356" cy="257.148" rx="11.7668" ry="11.7668" transform="rotate(90 913.356 257.148)" fill="#F5F5F5"/>
<ellipse cx="913.356" cy="222.318" rx="11.7668" ry="11.7668" transform="rotate(90 913.356 222.318)" fill="#F5F5F5"/>
<ellipse cx="1061.15" cy="220.435" rx="11.7668" ry="11.7668" transform="rotate(90 1061.15 220.435)" fill="#F5F5F5"/>
<ellipse cx="913.356" cy="179.957" rx="11.7668" ry="11.7668" transform="rotate(90 913.356 179.957)" fill="#F5F5F5"/>
<ellipse cx="1061.15" cy="182.781" rx="11.7668" ry="11.7668" transform="rotate(90 1061.15 182.781)" fill="#F5F5F5"/>
<ellipse cx="913.356" cy="145.127" rx="11.7668" ry="11.7668" transform="rotate(90 913.356 145.127)" fill="#F5F5F5"/>
<ellipse cx="1061.15" cy="147.951" rx="11.7668" ry="11.7668" transform="rotate(90 1061.15 147.951)" fill="#F5F5F5"/>
<ellipse cx="913.356" cy="110.298" rx="11.7668" ry="11.7668" transform="rotate(90 913.356 110.298)" fill="#F5F5F5"/>
<ellipse cx="1061.15" cy="254.324" rx="11.7668" ry="11.7668" transform="rotate(-90 1061.15 254.324)" fill="#F5F5F5"/>
<ellipse cx="1061.15" cy="112.18" rx="11.7668" ry="11.7668" transform="rotate(-90 1061.15 112.18)" fill="#F5F5F5"/>
<rect x="896.5" y="92.5" width="103.372" height="104.313" rx="14.5" stroke="black" stroke-width="3"/>
<rect x="896.5" y="205.461" width="103.372" height="68.5423" rx="14.5" stroke="black" stroke-width="3"/>
<rect x="1009.46" y="92.5" width="68.5423" height="181.504" rx="14.5" stroke="black" stroke-width="3"/>
<path d="M903.969 665.221V669.09H893.748V673.964H902.639V677.627H893.748V686.252H889.14V665.221H903.969ZM910.519 665.221V668.765H906.325V665.221H910.519ZM910.519 671.01V686.252H906.325V671.01H910.519ZM928.443 671.01V684.686C928.443 687.168 927.823 688.999 926.582 690.181C925.342 691.362 923.451 691.953 920.941 691.953C916.569 691.953 914.206 690.358 913.792 687.197H917.957C918.105 687.877 918.43 688.379 918.932 688.674C919.405 688.969 920.114 689.147 921.029 689.147C922.329 689.147 923.215 688.822 923.688 688.172C924.131 687.522 924.367 686.547 924.397 685.189L924.426 683.475C923.274 685.041 921.709 685.838 919.759 685.838C917.751 685.838 916.185 685.159 915.004 683.8C913.822 682.442 913.261 680.61 913.261 678.336C913.261 676.002 913.852 674.141 915.092 672.724C916.303 671.306 917.928 670.597 919.936 670.597C921 670.597 921.856 670.804 922.565 671.188C923.274 671.572 923.895 672.192 924.485 673.048V671.01H928.443ZM920.911 673.876C919.789 673.876 918.932 674.259 918.312 675.027C917.692 675.795 917.367 676.888 917.367 678.306C917.367 679.635 917.692 680.699 918.341 681.496C918.991 682.294 919.848 682.707 920.911 682.707C922.004 682.707 922.861 682.294 923.481 681.496C924.131 680.669 924.426 679.576 924.426 678.218C924.426 676.859 924.131 675.795 923.481 675.027C922.861 674.259 922.004 673.876 920.911 673.876ZM946.176 671.01V686.252H942.188V684.096C941.007 685.838 939.353 686.695 937.226 686.695C935.542 686.695 934.243 686.252 933.297 685.336C932.352 684.421 931.909 683.062 931.909 681.26V671.01H936.133V679.724C936.133 680.315 936.133 680.758 936.192 681.112C936.251 681.467 936.34 681.792 936.517 682.146C936.665 682.501 936.93 682.766 937.285 682.944C937.639 683.121 938.112 683.18 938.703 683.18C940.889 683.18 942.011 681.762 942.011 678.867V671.01H946.176ZM959.284 670.744V674.614C958.693 674.496 958.132 674.437 957.66 674.437C956.271 674.437 955.267 674.88 954.617 675.766C953.967 676.652 953.642 677.804 953.642 679.281V686.252H949.448V671.01H953.436V673.816C954.44 671.719 956.064 670.656 958.368 670.656C958.546 670.656 958.871 670.685 959.284 670.744ZM974.676 681.526C974.204 683.18 973.317 684.45 972.047 685.336C970.777 686.252 969.271 686.695 967.498 686.695C965.165 686.695 963.275 685.986 961.857 684.509C960.439 683.062 959.73 681.142 959.73 678.72C959.73 676.357 960.439 674.407 961.886 672.871C963.304 671.335 965.135 670.567 967.38 670.567C969.684 670.567 971.516 671.365 972.874 672.93C974.233 674.496 974.913 676.623 974.913 679.281V679.695H963.983C963.983 681.024 964.308 682.028 964.929 682.707C965.549 683.416 966.435 683.741 967.558 683.741C969.034 683.741 970.068 683.003 970.659 681.526H974.676ZM970.629 677.036C970.541 676.032 970.216 675.234 969.655 674.584C969.123 673.935 968.355 673.61 967.351 673.61C966.435 673.61 965.667 673.935 965.047 674.525C964.456 675.146 964.072 675.973 963.954 677.036H970.629ZM986.173 676.327V680.078H977.282V676.327H986.173ZM1003.96 671.01V684.686C1003.96 687.168 1003.34 688.999 1002.1 690.181C1000.86 691.362 998.97 691.953 996.459 691.953C992.087 691.953 989.724 690.358 989.311 687.197H993.476C993.623 687.877 993.948 688.379 994.45 688.674C994.923 688.969 995.632 689.147 996.548 689.147C997.847 689.147 998.733 688.822 999.206 688.172C999.649 687.522 999.885 686.547 999.915 685.189L999.944 683.475C998.792 685.041 997.227 685.838 995.277 685.838C993.269 685.838 991.703 685.159 990.522 683.8C989.34 682.442 988.779 680.61 988.779 678.336C988.779 676.002 989.37 674.141 990.61 672.724C991.821 671.306 993.446 670.597 995.455 670.597C996.518 670.597 997.375 670.804 998.084 671.188C998.792 671.572 999.413 672.192 1000 673.048V671.01H1003.96ZM996.429 673.876C995.307 673.876 994.45 674.259 993.83 675.027C993.21 675.795 992.885 676.888 992.885 678.306C992.885 679.635 993.21 680.699 993.86 681.496C994.509 682.294 995.366 682.707 996.429 682.707C997.522 682.707 998.379 682.294 998.999 681.496C999.649 680.669 999.944 679.576 999.944 678.218C999.944 676.859 999.649 675.795 998.999 675.027C998.379 674.259 997.522 673.876 996.429 673.876ZM1017.29 670.744V674.614C1016.7 674.496 1016.14 674.437 1015.67 674.437C1014.28 674.437 1013.28 674.88 1012.63 675.766C1011.98 676.652 1011.65 677.804 1011.65 679.281V686.252H1007.46V671.01H1011.44V673.816C1012.45 671.719 1014.07 670.656 1016.38 670.656C1016.55 670.656 1016.88 670.685 1017.29 670.744ZM1025.86 670.567C1028.2 670.567 1030.09 671.306 1031.5 672.783C1032.92 674.259 1033.66 676.209 1033.66 678.631C1033.66 681.083 1032.92 683.032 1031.5 684.509C1030.09 685.986 1028.17 686.725 1025.8 686.725C1023.41 686.725 1021.49 685.986 1020.07 684.509C1018.62 683.032 1017.92 681.083 1017.92 678.631C1017.92 676.209 1018.62 674.259 1020.1 672.783C1021.55 671.306 1023.47 670.567 1025.86 670.567ZM1025.74 673.757C1024.62 673.757 1023.74 674.2 1023.09 675.087C1022.44 675.943 1022.11 677.125 1022.11 678.661C1022.11 680.197 1022.44 681.408 1023.09 682.294C1023.74 683.15 1024.62 683.594 1025.8 683.594C1026.95 683.594 1027.84 683.15 1028.49 682.264C1029.14 681.378 1029.47 680.167 1029.47 678.602C1029.47 677.095 1029.11 675.914 1028.46 675.057C1027.81 674.2 1026.9 673.757 1025.74 673.757ZM1050.71 671.01V686.252H1046.73V684.096C1045.54 685.838 1043.89 686.695 1041.76 686.695C1040.08 686.695 1038.78 686.252 1037.83 685.336C1036.89 684.421 1036.45 683.062 1036.45 681.26V671.01H1040.67V679.724C1040.67 680.315 1040.67 680.758 1040.73 681.112C1040.79 681.467 1040.88 681.792 1041.05 682.146C1041.2 682.501 1041.47 682.766 1041.82 682.944C1042.18 683.121 1042.65 683.18 1043.24 683.18C1045.43 683.18 1046.55 681.762 1046.55 678.867V671.01H1050.71ZM1068.28 686.252H1064.03V677.361C1064.03 676.298 1063.85 675.471 1063.5 674.909C1063.14 674.348 1062.43 674.053 1061.43 674.053C1059.21 674.053 1058.12 675.411 1058.12 678.07V686.252H1053.96V671.01H1057.94V673.137C1059.18 671.453 1060.87 670.597 1062.99 670.597C1064.62 670.597 1065.92 671.069 1066.86 672.015C1067.81 672.96 1068.28 674.319 1068.28 676.061V686.252ZM1086.29 686.252H1082.31V684.302C1081.3 685.897 1079.77 686.665 1077.7 686.665C1075.6 686.665 1073.92 685.957 1072.68 684.48C1071.44 683.003 1070.81 681.053 1070.81 678.572C1070.81 676.179 1071.41 674.259 1072.62 672.812C1073.83 671.335 1075.45 670.626 1077.49 670.626C1078.44 670.626 1079.32 670.804 1080.15 671.217C1080.98 671.601 1081.66 672.162 1082.13 672.901V665.221H1086.29V686.252ZM1082.25 678.602C1082.25 677.125 1081.95 676.002 1081.3 675.175C1080.65 674.348 1079.77 673.935 1078.64 673.935C1077.49 673.935 1076.6 674.348 1075.98 675.175C1075.33 676.002 1075.04 677.125 1075.04 678.602C1075.04 680.078 1075.33 681.23 1075.98 682.058C1076.63 682.885 1077.52 683.328 1078.64 683.328C1079.79 683.328 1080.68 682.914 1081.3 682.087C1081.95 681.26 1082.25 680.108 1082.25 678.602Z" fill="white"/>
<rect x="896" y="435.252" width="184" height="184" fill="#A9A9A9"/>
<rect x="944.139" y="471.624" width="87.7209" height="111.256" rx="20" fill="white"/>
</svg>
