<svg width="1176" height="784" viewBox="0 0 1176 784" fill="none" xmlns="http://www.w3.org/2000/svg">
<rect width="1176" height="784" fill="#29815B"/>
<ellipse cx="709.5" cy="602.252" rx="12" ry="12.5" transform="rotate(90 709.5 602.252)" fill="#F5F5F5"/>
<ellipse cx="709.5" cy="454.252" rx="12" ry="12.5" transform="rotate(90 709.5 454.252)" fill="#F5F5F5"/>
<ellipse cx="709.5" cy="528.252" rx="30" ry="31.5" transform="rotate(90 709.5 528.252)" fill="black"/>
<ellipse cx="747.5" cy="601.252" rx="12" ry="12.5" transform="rotate(-90 747.5 601.252)" fill="#F5F5F5"/>
<ellipse cx="747.5" cy="453.252" rx="12" ry="12.5" transform="rotate(-90 747.5 453.252)" fill="#F5F5F5"/>
<ellipse cx="747.5" cy="490.252" rx="12" ry="12.5" transform="rotate(-90 747.5 490.252)" fill="#F5F5F5"/>
<ellipse cx="747.5" cy="564.252" rx="12" ry="12.5" transform="rotate(-90 747.5 564.252)" fill="#F5F5F5"/>
<ellipse cx="672.5" cy="601.752" rx="12.5" ry="12.5" transform="rotate(90 672.5 601.752)" fill="#F5F5F5"/>
<ellipse cx="672.5" cy="453.752" rx="12.5" ry="12.5" transform="rotate(90 672.5 453.752)" fill="#F5F5F5"/>
<ellipse cx="672.5" cy="490.752" rx="12.5" ry="12.5" transform="rotate(90 672.5 490.752)" fill="#F5F5F5"/>
<ellipse cx="672.5" cy="564.752" rx="12.5" ry="12.5" transform="rotate(90 672.5 564.752)" fill="#F5F5F5"/>
<ellipse cx="635.5" cy="601.752" rx="12.5" ry="12.5" transform="rotate(90 635.5 601.752)" fill="#F5F5F5"/>
<ellipse cx="635.5" cy="564.752" rx="12.5" ry="12.5" transform="rotate(90 635.5 564.752)" fill="#F5F5F5"/>
<ellipse cx="784.5" cy="564.752" rx="12.5" ry="12.5" transform="rotate(90 784.5 564.752)" fill="#F5F5F5"/>
<ellipse cx="635.5" cy="527.752" rx="12.5" ry="12.5" transform="rotate(90 635.5 527.752)" fill="#F5F5F5"/>
<ellipse cx="784.5" cy="527.752" rx="12.5" ry="12.5" transform="rotate(90 784.5 527.752)" fill="#F5F5F5"/>
<ellipse cx="635.5" cy="490.752" rx="12.5" ry="12.5" transform="rotate(90 635.5 490.752)" fill="#F5F5F5"/>
<ellipse cx="784.5" cy="490.752" rx="12.5" ry="12.5" transform="rotate(90 784.5 490.752)" fill="#F5F5F5"/>
<ellipse cx="635.5" cy="453.752" rx="12.5" ry="12.5" transform="rotate(90 635.5 453.752)" fill="#F5F5F5"/>
<ellipse cx="784.5" cy="600.752" rx="12.5" ry="12.5" transform="rotate(-90 784.5 600.752)" fill="#F5F5F5"/>
<ellipse cx="784.5" cy="452.752" rx="12.5" ry="12.5" transform="rotate(-90 784.5 452.752)" fill="#F5F5F5"/>
<path d="M648.891 665.221V669.09H638.671V673.964H647.562V677.627H638.671V686.252H634.063V665.221H648.891ZM658.632 670.567C660.966 670.567 662.856 671.306 664.274 672.783C665.692 674.259 666.43 676.209 666.43 678.631C666.43 681.083 665.692 683.032 664.274 684.509C662.856 685.986 660.936 686.725 658.573 686.725C656.181 686.725 654.261 685.986 652.843 684.509C651.395 683.032 650.686 681.083 650.686 678.631C650.686 676.209 651.395 674.259 652.872 672.783C654.32 671.306 656.24 670.567 658.632 670.567ZM658.514 673.757C657.392 673.757 656.505 674.2 655.856 675.087C655.206 675.943 654.881 677.125 654.881 678.661C654.881 680.197 655.206 681.408 655.856 682.294C656.505 683.15 657.392 683.594 658.573 683.594C659.725 683.594 660.611 683.15 661.261 682.264C661.911 681.378 662.236 680.167 662.236 678.602C662.236 677.095 661.881 675.914 661.232 675.057C660.582 674.2 659.666 673.757 658.514 673.757ZM683.72 680.374C683.454 682.353 682.686 683.889 681.386 685.011C680.087 686.104 678.432 686.665 676.424 686.665C674.061 686.665 672.2 685.927 670.782 684.509C669.364 683.062 668.655 681.142 668.655 678.749C668.655 676.298 669.364 674.319 670.782 672.812C672.2 671.335 674.12 670.567 676.483 670.567C678.491 670.567 680.146 671.099 681.445 672.133C682.715 673.167 683.454 674.555 683.631 676.327H679.525C679.2 674.584 678.196 673.698 676.512 673.698C675.36 673.698 674.474 674.141 673.824 675.027C673.175 675.914 672.879 677.125 672.879 678.69C672.879 680.197 673.175 681.378 673.795 682.205C674.415 683.032 675.301 683.446 676.424 683.446C678.255 683.446 679.319 682.442 679.673 680.374H683.72ZM700.327 686.252H696.044C695.925 685.868 695.807 685.366 695.748 684.775C694.478 686.075 692.824 686.695 690.815 686.695C689.132 686.695 687.802 686.311 686.828 685.484C685.882 684.657 685.38 683.534 685.38 682.087C685.38 681.437 685.469 680.876 685.646 680.374C685.823 679.901 686.089 679.488 686.473 679.133C686.857 678.808 687.212 678.543 687.566 678.306C687.921 678.099 688.393 677.922 688.984 677.775C689.604 677.656 690.106 677.538 690.461 677.479C690.845 677.42 691.377 677.331 692.056 677.243C693.533 677.066 694.508 676.859 695.01 676.623C695.512 676.416 695.778 676.002 695.778 675.411C695.778 674.053 694.862 673.373 693.031 673.373C692.056 673.373 691.347 673.551 690.904 673.905C690.431 674.259 690.136 674.85 690.018 675.707H686.089C686.326 672.28 688.659 670.567 693.149 670.567C697.58 670.567 699.795 672.221 699.795 675.53V682.117C699.795 684.066 699.972 685.425 700.327 686.252ZM695.719 678.838C695.246 679.133 694.242 679.429 692.765 679.665C691.524 679.842 690.727 680.108 690.343 680.403C689.929 680.758 689.693 681.29 689.693 681.939C689.693 682.56 689.9 683.062 690.313 683.416C690.727 683.771 691.288 683.948 691.997 683.948C693.119 683.948 694.035 683.653 694.714 683.062C695.394 682.471 695.719 681.614 695.719 680.551V678.838ZM707.422 665.221V686.252H703.228V665.221H707.422ZM722.904 671.01V672.901C723.997 671.365 725.562 670.597 727.63 670.597C729.668 670.597 731.322 671.335 732.563 672.812C733.804 674.289 734.424 676.268 734.424 678.72C734.424 681.112 733.804 683.032 732.593 684.48C731.381 685.927 729.786 686.636 727.807 686.636C725.74 686.636 724.174 685.897 723.111 684.362V691.657H718.946V671.01H722.904ZM726.596 673.964C725.444 673.964 724.558 674.378 723.908 675.205C723.258 676.032 722.963 677.184 722.963 678.661C722.963 680.138 723.288 681.29 723.938 682.117C724.588 682.944 725.474 683.357 726.626 683.357C727.748 683.357 728.605 682.944 729.255 682.117C729.905 681.29 730.229 680.167 730.229 678.72C730.229 677.243 729.905 676.091 729.255 675.234C728.605 674.407 727.719 673.964 726.596 673.964ZM744.506 670.567C746.84 670.567 748.73 671.306 750.148 672.783C751.566 674.259 752.304 676.209 752.304 678.631C752.304 681.083 751.566 683.032 750.148 684.509C748.73 685.986 746.81 686.725 744.447 686.725C742.054 686.725 740.134 685.986 738.717 684.509C737.269 683.032 736.56 681.083 736.56 678.631C736.56 676.209 737.269 674.259 738.746 672.783C740.193 671.306 742.113 670.567 744.506 670.567ZM744.388 673.757C743.265 673.757 742.379 674.2 741.729 675.087C741.08 675.943 740.755 677.125 740.755 678.661C740.755 680.197 741.08 681.408 741.729 682.294C742.379 683.15 743.265 683.594 744.447 683.594C745.599 683.594 746.485 683.15 747.135 682.264C747.785 681.378 748.11 680.167 748.11 678.602C748.11 677.095 747.755 675.914 747.105 675.057C746.456 674.2 745.54 673.757 744.388 673.757ZM759.373 665.221V668.765H755.179V665.221H759.373ZM759.373 671.01V686.252H755.179V671.01H759.373ZM777.032 686.252H772.778V677.361C772.778 676.298 772.601 675.471 772.246 674.909C771.892 674.348 771.183 674.053 770.179 674.053C767.963 674.053 766.871 675.411 766.871 678.07V686.252H762.706V671.01H766.693V673.137C767.934 671.453 769.618 670.597 771.744 670.597C773.369 670.597 774.669 671.069 775.614 672.015C776.559 672.96 777.032 674.319 777.032 676.061V686.252ZM788.574 671.01V673.876H785.473V681.053C785.473 681.496 785.473 681.821 785.502 682.028C785.502 682.235 785.591 682.442 785.709 682.678C785.827 682.885 786.004 683.032 786.241 683.091C786.477 683.15 786.832 683.18 787.304 683.18C787.806 683.18 788.22 683.18 788.574 683.121V686.311C787.54 686.4 786.684 686.429 786.034 686.429C784.203 686.429 782.933 686.134 782.283 685.484C781.633 684.834 781.308 683.594 781.308 681.762V673.846H778.768V671.01H781.308V666.402H785.473V671.01H788.574Z" fill="white"/>
<ellipse cx="780.389" cy="183.64" rx="12.5" ry="12.5" transform="rotate(45 780.389 183.64)" fill="white"/>
<ellipse cx="674.033" cy="183.64" rx="12.5" ry="12.5" transform="rotate(45 674.033 183.64)" fill="white"/>
<ellipse cx="745.033" cy="183.64" rx="12.5" ry="12.5" transform="rotate(45 745.033 183.64)" fill="white"/>
<ellipse cx="638.678" cy="183.64" rx="12.5" ry="12.5" transform="rotate(45 638.678 183.64)" fill="white"/>
<ellipse cx="709.678" cy="183.64" rx="12.5" ry="12.5" transform="rotate(45 709.678 183.64)" fill="white"/>
<ellipse cx="709.678" cy="254.351" rx="12.5" ry="12.5" transform="rotate(135 709.678 254.351)" fill="white"/>
<ellipse cx="709.678" cy="218.996" rx="12.5" ry="12.5" transform="rotate(135 709.678 218.996)" fill="white"/>
<ellipse cx="709.678" cy="183.64" rx="12.5" ry="12.5" transform="rotate(135 709.678 183.64)" fill="white"/>
<ellipse cx="709.678" cy="148.285" rx="12.5" ry="12.5" transform="rotate(135 709.678 148.285)" fill="#F5F5F5"/>
<ellipse cx="709.678" cy="112.93" rx="12.5" ry="12.5" transform="rotate(135 709.678 112.93)" fill="#F5F5F5"/>
<path d="M657.926 331.129C657.69 333.787 656.745 335.885 655.15 337.45C653.525 338.986 651.31 339.784 648.504 339.784C645.432 339.784 642.98 338.75 641.119 336.741C639.258 334.733 638.343 332.045 638.343 328.736C638.343 325.576 639.258 322.947 641.149 320.879C643.039 318.782 645.55 317.748 648.681 317.748C651.162 317.748 653.259 318.457 654.972 319.875C656.656 321.293 657.601 323.095 657.779 325.28H653.259C653.023 324.099 652.491 323.213 651.664 322.563C650.837 321.913 649.833 321.618 648.592 321.618C647.293 321.618 646.229 321.972 645.343 322.681C644.457 323.39 643.866 324.276 643.512 325.31C643.157 326.373 642.98 327.496 642.98 328.736C642.98 330.922 643.482 332.635 644.486 333.935C645.491 335.235 646.82 335.855 648.533 335.855C651.339 335.855 652.934 334.29 653.348 331.129H657.926ZM668.094 323.567C670.427 323.567 672.318 324.306 673.735 325.783C675.153 327.259 675.892 329.209 675.892 331.631C675.892 334.083 675.153 336.032 673.735 337.509C672.318 338.986 670.398 339.725 668.035 339.725C665.642 339.725 663.722 338.986 662.304 337.509C660.857 336.032 660.148 334.083 660.148 331.631C660.148 329.209 660.857 327.259 662.334 325.783C663.781 324.306 665.701 323.567 668.094 323.567ZM667.975 326.757C666.853 326.757 665.967 327.2 665.317 328.087C664.667 328.943 664.342 330.125 664.342 331.661C664.342 333.197 664.667 334.408 665.317 335.294C665.967 336.15 666.853 336.594 668.035 336.594C669.186 336.594 670.073 336.15 670.722 335.264C671.372 334.378 671.697 333.167 671.697 331.602C671.697 330.095 671.343 328.914 670.693 328.057C670.043 327.2 669.127 326.757 667.975 326.757ZM693.004 339.252H688.75V330.361C688.75 329.298 688.573 328.471 688.219 327.909C687.864 327.348 687.155 327.053 686.151 327.053C683.936 327.053 682.843 328.411 682.843 331.07V339.252H678.678V324.01H682.666V326.137C683.906 324.453 685.59 323.597 687.717 323.597C689.341 323.597 690.641 324.069 691.586 325.015C692.531 325.96 693.004 327.319 693.004 329.061V339.252ZM704.547 324.01V326.876H701.445V334.053C701.445 334.496 701.445 334.821 701.475 335.028C701.475 335.235 701.563 335.442 701.681 335.678C701.8 335.885 701.977 336.032 702.213 336.091C702.449 336.15 702.804 336.18 703.276 336.18C703.779 336.18 704.192 336.18 704.547 336.121V339.311C703.513 339.4 702.656 339.429 702.006 339.429C700.175 339.429 698.905 339.134 698.255 338.484C697.605 337.834 697.28 336.594 697.28 334.762V326.846H694.74V324.01H697.28V319.402H701.445V324.01H704.547ZM710.855 318.221V321.765H706.66V318.221H710.855ZM710.855 324.01V339.252H706.66V324.01H710.855ZM728.513 339.252H724.26V330.361C724.26 329.298 724.082 328.471 723.728 327.909C723.373 327.348 722.664 327.053 721.66 327.053C719.445 327.053 718.352 328.411 718.352 331.07V339.252H714.187V324.01H718.175V326.137C719.415 324.453 721.099 323.597 723.226 323.597C724.85 323.597 726.15 324.069 727.095 325.015C728.04 325.96 728.513 327.319 728.513 329.061V339.252ZM745.963 324.01V339.252H741.976V337.096C740.794 338.838 739.14 339.695 737.013 339.695C735.33 339.695 734.03 339.252 733.085 338.336C732.14 337.421 731.696 336.062 731.696 334.26V324.01H735.92V332.724C735.92 333.315 735.92 333.758 735.979 334.112C736.039 334.467 736.127 334.792 736.304 335.146C736.452 335.501 736.718 335.766 737.072 335.944C737.427 336.121 737.899 336.18 738.49 336.18C740.676 336.18 741.798 334.762 741.798 331.867V324.01H745.963ZM753.489 318.221V321.765H749.294V318.221H753.489ZM753.489 324.01V339.252H749.294V324.01H753.489ZM765.18 324.01V326.876H762.079V334.053C762.079 334.496 762.079 334.821 762.108 335.028C762.108 335.235 762.197 335.442 762.315 335.678C762.433 335.885 762.611 336.032 762.847 336.091C763.083 336.15 763.438 336.18 763.91 336.18C764.412 336.18 764.826 336.18 765.18 336.121V339.311C764.147 339.4 763.29 339.429 762.64 339.429C760.809 339.429 759.539 339.134 758.889 338.484C758.239 337.834 757.914 336.594 757.914 334.762V326.846H755.374V324.01H757.914V319.402H762.079V324.01H765.18ZM781.029 324.01L775.388 339.222C775.122 339.99 774.915 340.522 774.797 340.817C774.679 341.113 774.472 341.556 774.206 342.117C773.94 342.649 773.704 343.033 773.468 343.269C773.231 343.476 772.936 343.712 772.552 344.008C772.168 344.273 771.725 344.451 771.252 344.539C770.78 344.657 770.218 344.687 769.598 344.687C769.066 344.687 768.151 344.687 766.792 344.657V341.201H768.83C769.51 341.201 770.041 341.024 770.396 340.67C770.75 340.315 770.957 339.813 770.957 339.163C770.957 339.016 770.898 338.809 770.839 338.573L765.315 324.01H769.834L773.32 334.378L776.687 324.01H781.029Z" fill="white"/>
<ellipse cx="169.5" cy="258.252" rx="12" ry="12.5" transform="rotate(90 169.5 258.252)" fill="#F5F5F5"/>
<ellipse cx="169.5" cy="110.252" rx="12" ry="12.5" transform="rotate(90 169.5 110.252)" fill="#F5F5F5"/>
<ellipse cx="207.5" cy="257.252" rx="12" ry="12.5" transform="rotate(-90 207.5 257.252)" fill="#F5F5F5"/>
<ellipse cx="207.5" cy="109.252" rx="12" ry="12.5" transform="rotate(-90 207.5 109.252)" fill="#F5F5F5"/>
<ellipse cx="132.5" cy="257.752" rx="12.5" ry="12.5" transform="rotate(90 132.5 257.752)" fill="#F5F5F5"/>
<ellipse cx="132.5" cy="109.752" rx="12.5" ry="12.5" transform="rotate(90 132.5 109.752)" fill="#F5F5F5"/>
<ellipse cx="95.5" cy="257.752" rx="12.5" ry="12.5" transform="rotate(90 95.5 257.752)" fill="#F5F5F5"/>
<ellipse cx="95.5" cy="220.752" rx="12.5" ry="12.5" transform="rotate(90 95.5 220.752)" fill="#F5F5F5"/>
<ellipse cx="244.5" cy="220.752" rx="12.5" ry="12.5" transform="rotate(90 244.5 220.752)" fill="#F5F5F5"/>
<ellipse cx="95.5" cy="183.752" rx="12.5" ry="12.5" transform="rotate(90 95.5 183.752)" fill="#F5F5F5"/>
<ellipse cx="244.5" cy="183.752" rx="12.5" ry="12.5" transform="rotate(90 244.5 183.752)" fill="#F5F5F5"/>
<ellipse cx="95.5" cy="146.752" rx="12.5" ry="12.5" transform="rotate(90 95.5 146.752)" fill="#F5F5F5"/>
<ellipse cx="244.5" cy="146.752" rx="12.5" ry="12.5" transform="rotate(90 244.5 146.752)" fill="#F5F5F5"/>
<ellipse cx="95.5" cy="109.752" rx="12.5" ry="12.5" transform="rotate(90 95.5 109.752)" fill="#F5F5F5"/>
<ellipse cx="244.5" cy="256.752" rx="12.5" ry="12.5" transform="rotate(-90 244.5 256.752)" fill="#F5F5F5"/>
<ellipse cx="244.5" cy="108.752" rx="12.5" ry="12.5" transform="rotate(-90 244.5 108.752)" fill="#F5F5F5"/>
<path d="M105.319 318.221H114.387C116.75 318.221 118.611 318.812 119.999 319.934C121.387 321.057 122.096 322.74 122.096 324.985C122.096 327.2 121.387 328.884 120.029 330.007C118.64 331.129 116.838 331.69 114.623 331.69H109.897V339.252H105.319V318.221ZM109.897 322.002V328.057H114.003C116.395 328.057 117.606 327.053 117.606 325.044C117.606 323.036 116.395 322.002 114.032 322.002H109.897ZM134.443 323.744V327.614C133.852 327.496 133.291 327.437 132.818 327.437C131.43 327.437 130.426 327.88 129.776 328.766C129.126 329.652 128.801 330.804 128.801 332.281V339.252H124.607V324.01H128.594V326.816C129.599 324.719 131.223 323.656 133.527 323.656C133.704 323.656 134.029 323.685 134.443 323.744ZM140.045 328.677L135.851 328.707C135.969 326.905 136.708 325.605 138.066 324.808C139.425 323.981 141.079 323.597 143.029 323.597C147.489 323.597 149.734 325.044 149.734 327.939V335.885C149.734 337.568 149.911 338.691 150.266 339.281H146.012C145.835 338.72 145.717 338.218 145.717 337.775C144.506 339.045 142.792 339.665 140.577 339.665C139.041 339.665 137.771 339.281 136.826 338.514C135.851 337.746 135.378 336.594 135.378 335.087C135.378 334.024 135.615 333.138 136.146 332.429C136.678 331.749 137.298 331.277 138.066 331.04C138.834 330.804 139.661 330.627 140.548 330.45C141.434 330.302 142.231 330.213 142.999 330.154C143.738 330.095 144.358 329.947 144.831 329.652C145.303 329.386 145.539 328.973 145.539 328.441C145.539 327.643 145.303 327.112 144.831 326.816C144.358 326.521 143.679 326.373 142.822 326.373C141.109 326.373 140.164 327.141 140.045 328.677ZM145.539 333.374V331.808C145.362 331.927 145.155 332.045 144.86 332.163C144.565 332.281 144.269 332.34 144.033 332.399C143.797 332.429 143.442 332.488 143.029 332.547C142.586 332.606 142.261 332.635 142.054 332.695C140.4 332.99 139.573 333.728 139.573 334.939C139.573 336.239 140.429 336.889 142.143 336.889C144.387 336.889 145.539 335.707 145.539 333.374ZM138.037 321.618V318.162H142.024V321.618H138.037ZM144.122 321.618V318.162H148.109V321.618H144.122ZM167.611 324.01V337.686C167.611 340.168 166.991 341.999 165.75 343.181C164.509 344.362 162.619 344.953 160.108 344.953C155.737 344.953 153.374 343.358 152.96 340.197H157.125C157.273 340.877 157.597 341.379 158.1 341.674C158.572 341.969 159.281 342.147 160.197 342.147C161.496 342.147 162.383 341.822 162.855 341.172C163.298 340.522 163.535 339.547 163.564 338.189L163.594 336.475C162.442 338.041 160.876 338.838 158.927 338.838C156.918 338.838 155.353 338.159 154.171 336.8C152.99 335.442 152.428 333.61 152.428 331.336C152.428 329.002 153.019 327.141 154.26 325.724C155.471 324.306 157.095 323.597 159.104 323.597C160.167 323.597 161.024 323.804 161.733 324.188C162.442 324.572 163.062 325.192 163.653 326.048V324.01H167.611ZM160.079 326.876C158.956 326.876 158.1 327.259 157.479 328.027C156.859 328.795 156.534 329.888 156.534 331.306C156.534 332.635 156.859 333.699 157.509 334.496C158.159 335.294 159.015 335.707 160.079 335.707C161.172 335.707 162.028 335.294 162.648 334.496C163.298 333.669 163.594 332.576 163.594 331.218C163.594 329.859 163.298 328.795 162.648 328.027C162.028 327.259 161.172 326.876 160.079 326.876ZM185.402 339.252H181.149V330.361C181.149 329.298 180.972 328.471 180.617 327.909C180.263 327.348 179.554 327.053 178.55 327.053C176.334 327.053 175.241 328.411 175.241 331.07V339.252H171.077V324.01H175.064V326.137C176.305 324.453 177.988 323.597 180.115 323.597C181.74 323.597 183.039 324.069 183.985 325.015C184.93 325.96 185.402 327.319 185.402 329.061V339.252ZM202.735 339.252H198.452C198.333 338.868 198.215 338.366 198.156 337.775C196.886 339.075 195.232 339.695 193.223 339.695C191.54 339.695 190.21 339.311 189.236 338.484C188.291 337.657 187.788 336.534 187.788 335.087C187.788 334.437 187.877 333.876 188.054 333.374C188.231 332.901 188.497 332.488 188.881 332.133C189.265 331.808 189.62 331.543 189.974 331.306C190.329 331.099 190.801 330.922 191.392 330.775C192.012 330.656 192.514 330.538 192.869 330.479C193.253 330.42 193.785 330.331 194.464 330.243C195.941 330.066 196.916 329.859 197.418 329.623C197.92 329.416 198.186 329.002 198.186 328.411C198.186 327.053 197.27 326.373 195.439 326.373C194.464 326.373 193.755 326.551 193.312 326.905C192.839 327.259 192.544 327.85 192.426 328.707H188.497C188.734 325.28 191.067 323.567 195.557 323.567C199.988 323.567 202.203 325.221 202.203 328.53V335.117C202.203 337.066 202.38 338.425 202.735 339.252ZM198.127 331.838C197.654 332.133 196.65 332.429 195.173 332.665C193.932 332.842 193.135 333.108 192.751 333.403C192.337 333.758 192.101 334.29 192.101 334.939C192.101 335.56 192.308 336.062 192.721 336.416C193.135 336.771 193.696 336.948 194.405 336.948C195.527 336.948 196.443 336.653 197.122 336.062C197.802 335.471 198.127 334.614 198.127 333.551V331.838ZM219.873 339.252H215.62V330.361C215.62 329.298 215.442 328.471 215.088 327.909C214.734 327.348 214.025 327.053 213.02 327.053C210.805 327.053 209.712 328.411 209.712 331.07V339.252H205.547V324.01H209.535V326.137C210.775 324.453 212.459 323.597 214.586 323.597C216.21 323.597 217.51 324.069 218.455 325.015C219.401 325.96 219.873 327.319 219.873 329.061V339.252ZM235.581 324.01V327.053L227.546 335.944H236.112V339.252H222.082V336.062L230.146 327.23H222.702V324.01H235.581Z" fill="white"/>
<path d="M95.1141 678.129C94.8778 680.787 93.9326 682.885 92.3375 684.45C90.7129 685.986 88.4975 686.784 85.6914 686.784C82.6195 686.784 80.1678 685.75 78.3069 683.741C76.446 681.733 75.5303 679.045 75.5303 675.736C75.5303 672.576 76.446 669.947 78.3364 667.879C80.2269 665.782 82.7376 664.748 85.8687 664.748C88.3499 664.748 90.4471 665.457 92.1603 666.875C93.8439 668.293 94.7892 670.095 94.9664 672.28H90.4471C90.2108 671.099 89.6791 670.213 88.852 669.563C88.0249 668.913 87.0206 668.618 85.78 668.618C84.4804 668.618 83.417 668.972 82.5309 669.681C81.6447 670.39 81.054 671.276 80.6995 672.31C80.345 673.373 80.1678 674.496 80.1678 675.736C80.1678 677.922 80.67 679.635 81.6743 680.935C82.6785 682.235 84.0078 682.855 85.721 682.855C88.5271 682.855 90.1221 681.29 90.5357 678.129H95.1141ZM105.281 670.567C107.615 670.567 109.505 671.306 110.923 672.783C112.341 674.259 113.079 676.209 113.079 678.631C113.079 681.083 112.341 683.032 110.923 684.509C109.505 685.986 107.585 686.725 105.222 686.725C102.83 686.725 100.91 685.986 99.4919 684.509C98.0446 683.032 97.3357 681.083 97.3357 678.631C97.3357 676.209 98.0446 674.259 99.5215 672.783C100.969 671.306 102.889 670.567 105.281 670.567ZM105.163 673.757C104.041 673.757 103.155 674.2 102.505 675.087C101.855 675.943 101.53 677.125 101.53 678.661C101.53 680.197 101.855 681.408 102.505 682.294C103.155 683.15 104.041 683.594 105.222 683.594C106.374 683.594 107.26 683.15 107.91 682.264C108.56 681.378 108.885 680.167 108.885 678.602C108.885 677.095 108.531 675.914 107.881 675.057C107.231 674.2 106.315 673.757 105.163 673.757ZM139.319 686.252H135.065V677.154C135.065 676.15 134.888 675.382 134.593 674.85C134.268 674.319 133.618 674.023 132.643 674.023C130.694 674.023 129.719 675.264 129.719 677.686V686.252H125.525V676.977C125.525 676.032 125.347 675.323 125.052 674.791C124.727 674.259 124.107 673.994 123.221 673.994C121.183 673.994 120.178 675.323 120.178 677.981V686.252H115.984V671.01H119.972V673.108C121.153 671.453 122.778 670.597 124.816 670.597C126.913 670.597 128.36 671.453 129.128 673.108C130.339 671.453 131.994 670.597 134.12 670.597C135.774 670.597 137.074 671.099 137.96 672.074C138.846 673.048 139.319 674.348 139.319 676.002V686.252ZM166.088 686.252H161.834V677.154C161.834 676.15 161.657 675.382 161.362 674.85C161.037 674.319 160.387 674.023 159.412 674.023C157.463 674.023 156.488 675.264 156.488 677.686V686.252H152.294V676.977C152.294 676.032 152.116 675.323 151.821 674.791C151.496 674.259 150.876 673.994 149.99 673.994C147.951 673.994 146.947 675.323 146.947 677.981V686.252H142.753V671.01H146.74V673.108C147.922 671.453 149.547 670.597 151.585 670.597C153.682 670.597 155.129 671.453 155.897 673.108C157.108 671.453 158.762 670.597 160.889 670.597C162.543 670.597 163.843 671.099 164.729 672.074C165.615 673.048 166.088 674.348 166.088 676.002V686.252ZM176.877 670.567C179.21 670.567 181.101 671.306 182.518 672.783C183.936 674.259 184.675 676.209 184.675 678.631C184.675 681.083 183.936 683.032 182.518 684.509C181.101 685.986 179.181 686.725 176.818 686.725C174.425 686.725 172.505 685.986 171.087 684.509C169.64 683.032 168.931 681.083 168.931 678.631C168.931 676.209 169.64 674.259 171.117 672.783C172.564 671.306 174.484 670.567 176.877 670.567ZM176.758 673.757C175.636 673.757 174.75 674.2 174.1 675.087C173.45 675.943 173.125 677.125 173.125 678.661C173.125 680.197 173.45 681.408 174.1 682.294C174.75 683.15 175.636 683.594 176.818 683.594C177.97 683.594 178.856 683.15 179.505 682.264C180.155 681.378 180.48 680.167 180.48 678.602C180.48 677.095 180.126 675.914 179.476 675.057C178.826 674.2 177.91 673.757 176.758 673.757ZM201.787 686.252H197.533V677.361C197.533 676.298 197.356 675.471 197.002 674.909C196.647 674.348 195.938 674.053 194.934 674.053C192.719 674.053 191.626 675.411 191.626 678.07V686.252H187.461V671.01H191.449V673.137C192.689 671.453 194.373 670.597 196.5 670.597C198.124 670.597 199.424 671.069 200.369 672.015C201.314 672.96 201.787 674.319 201.787 676.061V686.252ZM221.462 665.221V668.293C220.576 668.263 220.133 668.234 220.074 668.234C219.306 668.234 218.804 668.352 218.567 668.559C218.331 668.765 218.213 669.179 218.213 669.799V671.01H221.196V673.846H218.242V686.252H214.048V673.846H211.567V671.01H214.048V670.213C214.048 668.44 214.432 667.141 215.259 666.343C216.057 665.546 217.386 665.132 219.276 665.132C219.483 665.132 219.719 665.162 219.956 665.162C220.192 665.162 220.487 665.191 220.783 665.191C221.078 665.221 221.285 665.221 221.462 665.221ZM237.176 686.252H232.893C232.775 685.868 232.657 685.366 232.598 684.775C231.328 686.075 229.674 686.695 227.665 686.695C225.982 686.695 224.652 686.311 223.678 685.484C222.732 684.657 222.23 683.534 222.23 682.087C222.23 681.437 222.319 680.876 222.496 680.374C222.673 679.901 222.939 679.488 223.323 679.133C223.707 678.808 224.062 678.543 224.416 678.306C224.771 678.099 225.243 677.922 225.834 677.775C226.454 677.656 226.956 677.538 227.311 677.479C227.695 677.42 228.226 677.331 228.906 677.243C230.383 677.066 231.357 676.859 231.86 676.623C232.362 676.416 232.628 676.002 232.628 675.411C232.628 674.053 231.712 673.373 229.881 673.373C228.906 673.373 228.197 673.551 227.754 673.905C227.281 674.259 226.986 674.85 226.868 675.707H222.939C223.175 672.28 225.509 670.567 229.999 670.567C234.429 670.567 236.645 672.221 236.645 675.53V682.117C236.645 684.066 236.822 685.425 237.176 686.252ZM232.569 678.838C232.096 679.133 231.092 679.429 229.615 679.665C228.374 679.842 227.577 680.108 227.193 680.403C226.779 680.758 226.543 681.29 226.543 681.939C226.543 682.56 226.75 683.062 227.163 683.416C227.577 683.771 228.138 683.948 228.847 683.948C229.969 683.948 230.885 683.653 231.564 683.062C232.244 682.471 232.569 681.614 232.569 680.551V678.838ZM248.348 671.01V673.876H245.247V681.053C245.247 681.496 245.247 681.821 245.276 682.028C245.276 682.235 245.365 682.442 245.483 682.678C245.601 682.885 245.779 683.032 246.015 683.091C246.251 683.15 246.606 683.18 247.078 683.18C247.58 683.18 247.994 683.18 248.348 683.121V686.311C247.315 686.4 246.458 686.429 245.808 686.429C243.977 686.429 242.707 686.134 242.057 685.484C241.407 684.834 241.082 683.594 241.082 681.762V673.846H238.542V671.01H241.082V666.402H245.247V671.01H248.348ZM264.67 681.526C264.197 683.18 263.311 684.45 262.041 685.336C260.771 686.252 259.264 686.695 257.492 686.695C255.159 686.695 253.268 685.986 251.85 684.509C250.433 683.062 249.724 681.142 249.724 678.72C249.724 676.357 250.433 674.407 251.88 672.871C253.298 671.335 255.129 670.567 257.374 670.567C259.678 670.567 261.509 671.365 262.868 672.93C264.227 674.496 264.906 676.623 264.906 679.281V679.695H253.977C253.977 681.024 254.302 682.028 254.922 682.707C255.543 683.416 256.429 683.741 257.551 683.741C259.028 683.741 260.062 683.003 260.653 681.526H264.67ZM260.623 677.036C260.535 676.032 260.21 675.234 259.648 674.584C259.117 673.935 258.349 673.61 257.345 673.61C256.429 673.61 255.661 673.935 255.041 674.525C254.45 675.146 254.066 675.973 253.948 677.036H260.623Z" fill="white"/>
<path d="M248.092 463.666C248.873 464.447 250.139 464.447 250.92 463.666L263.648 450.938C264.429 450.157 264.429 448.891 263.648 448.11C262.867 447.329 261.601 447.329 260.82 448.11L249.506 459.424L238.192 448.11C237.411 447.329 236.145 447.329 235.364 448.11C234.583 448.891 234.583 450.157 235.364 450.938L248.092 463.666ZM249.506 429.252L247.506 429.252L247.506 462.252L249.506 462.252L251.506 462.252L251.506 429.252L249.506 429.252Z" fill="white"/>
<path d="M208.092 463.666C208.873 464.447 210.139 464.447 210.92 463.666L223.648 450.938C224.429 450.157 224.429 448.891 223.648 448.11C222.867 447.329 221.601 447.329 220.82 448.11L209.506 459.424L198.192 448.11C197.411 447.329 196.145 447.329 195.364 448.11C194.583 448.891 194.583 450.157 195.364 450.938L208.092 463.666ZM209.506 429.252L207.506 429.252L207.506 462.252L209.506 462.252L211.506 462.252L211.506 429.252L209.506 429.252Z" fill="white"/>
<path d="M168.092 463.666C168.873 464.447 170.139 464.447 170.92 463.666L183.648 450.938C184.429 450.157 184.429 448.891 183.648 448.11C182.867 447.329 181.601 447.329 180.82 448.11L169.506 459.424L158.192 448.11C157.411 447.329 156.145 447.329 155.364 448.11C154.583 448.891 154.583 450.157 155.364 450.938L168.092 463.666ZM169.506 429.252L167.506 429.252L167.506 462.252L169.506 462.252L171.506 462.252L171.506 429.252L169.506 429.252Z" fill="white"/>
<path d="M147.414 450.161C148.195 449.38 148.195 448.114 147.414 447.333L134.686 434.605C133.905 433.824 132.639 433.824 131.858 434.605C131.077 435.386 131.077 436.652 131.858 437.433L143.172 448.747L131.858 460.061C131.077 460.842 131.077 462.108 131.858 462.889C132.639 463.67 133.905 463.67 134.686 462.889L147.414 450.161ZM113 448.747V450.747H146V448.747V446.747H113V448.747Z" fill="black"/>
<path d="M107.414 450.161C108.195 449.38 108.195 448.114 107.414 447.333L94.6863 434.605C93.9052 433.824 92.6389 433.824 91.8579 434.605C91.0768 435.386 91.0768 436.652 91.8579 437.433L103.172 448.747L91.8579 460.061C91.0768 460.842 91.0768 462.108 91.8579 462.889C92.6389 463.67 93.9052 463.67 94.6863 462.889L107.414 450.161ZM73 448.747V450.747H106V448.747V446.747H73V448.747Z" fill="black"/>
<path d="M248.092 517.666C248.873 518.447 250.139 518.447 250.92 517.666L263.648 504.938C264.429 504.157 264.429 502.891 263.648 502.11C262.867 501.329 261.601 501.329 260.82 502.11L249.506 513.424L238.192 502.11C237.411 501.329 236.145 501.329 235.364 502.11C234.583 502.891 234.583 504.157 235.364 504.938L248.092 517.666ZM249.506 484.252L247.506 484.252L247.506 516.252L249.506 516.252L251.506 516.252L251.506 484.252L249.506 484.252Z" fill="white"/>
<path d="M208.092 517.666C208.873 518.447 210.139 518.447 210.92 517.666L223.648 504.938C224.429 504.157 224.429 502.891 223.648 502.11C222.867 501.329 221.601 501.329 220.82 502.11L209.506 513.424L198.192 502.11C197.411 501.329 196.145 501.329 195.364 502.11C194.583 502.891 194.583 504.157 195.364 504.938L208.092 517.666ZM209.506 484.252L207.506 484.252L207.506 516.252L209.506 516.252L211.506 516.252L211.506 484.252L209.506 484.252Z" fill="white"/>
<path d="M168.092 517.666C168.873 518.447 170.139 518.447 170.92 517.666L183.648 504.938C184.429 504.157 184.429 502.891 183.648 502.11C182.867 501.329 181.601 501.329 180.82 502.11L169.506 513.424L158.192 502.11C157.411 501.329 156.145 501.329 155.364 502.11C154.583 502.891 154.583 504.157 155.364 504.938L168.092 517.666ZM169.506 484.252L167.506 484.252L167.506 516.252L169.506 516.252L171.506 516.252L171.506 484.252L169.506 484.252Z" fill="white"/>
<path d="M146.914 504.661C147.695 503.88 147.695 502.614 146.914 501.833L134.186 489.105C133.405 488.324 132.139 488.324 131.358 489.105C130.577 489.886 130.577 491.152 131.358 491.933L142.672 503.247L131.358 514.561C130.577 515.342 130.577 516.608 131.358 517.389C132.139 518.17 133.405 518.17 134.186 517.389L146.914 504.661ZM113.5 503.247V505.247H145.5V503.247V501.247H113.5V503.247Z" fill="black"/>
<path d="M106.914 504.661C107.695 503.88 107.695 502.614 106.914 501.833L94.1863 489.105C93.4052 488.324 92.1389 488.324 91.3579 489.105C90.5768 489.886 90.5768 491.152 91.3579 491.933L102.672 503.247L91.3579 514.561C90.5768 515.342 90.5768 516.608 91.3579 517.389C92.1389 518.17 93.4052 518.17 94.1863 517.389L106.914 504.661ZM73.5 503.247V505.247H105.5V503.247V501.247H73.5V503.247Z" fill="black"/>
<path d="M248.092 571.666C248.873 572.447 250.139 572.447 250.92 571.666L263.648 558.938C264.429 558.157 264.429 556.891 263.648 556.11C262.867 555.329 261.601 555.329 260.82 556.11L249.506 567.424L238.192 556.11C237.411 555.329 236.145 555.329 235.364 556.11C234.583 556.891 234.583 558.157 235.364 558.938L248.092 571.666ZM249.506 538.252L247.506 538.252L247.506 570.252L249.506 570.252L251.506 570.252L251.506 538.252L249.506 538.252Z" fill="white"/>
<path d="M208.092 571.666C208.873 572.447 210.139 572.447 210.92 571.666L223.648 558.938C224.429 558.157 224.429 556.891 223.648 556.11C222.867 555.329 221.601 555.329 220.82 556.11L209.506 567.424L198.192 556.11C197.411 555.329 196.145 555.329 195.364 556.11C194.583 556.891 194.583 558.157 195.364 558.938L208.092 571.666ZM209.506 538.252L207.506 538.252L207.506 570.252L209.506 570.252L211.506 570.252L211.506 538.252L209.506 538.252Z" fill="white"/>
<path d="M168.092 571.666C168.873 572.447 170.139 572.447 170.92 571.666L183.648 558.938C184.429 558.157 184.429 556.891 183.648 556.11C182.867 555.329 181.601 555.329 180.82 556.11L169.506 567.424L158.192 556.11C157.411 555.329 156.145 555.329 155.364 556.11C154.583 556.891 154.583 558.157 155.364 558.938L168.092 571.666ZM169.506 538.252L167.506 538.252L167.506 570.252L169.506 570.252L171.506 570.252L171.506 538.252L169.506 538.252Z" fill="white"/>
<path d="M146.914 558.661C147.695 557.88 147.695 556.614 146.914 555.833L134.186 543.105C133.405 542.324 132.139 542.324 131.358 543.105C130.577 543.886 130.577 545.152 131.358 545.933L142.672 557.247L131.358 568.561C130.577 569.342 130.577 570.608 131.358 571.389C132.139 572.17 133.405 572.17 134.186 571.389L146.914 558.661ZM113.5 557.247V559.247H145.5V557.247V555.247H113.5V557.247Z" fill="black"/>
<path d="M106.914 558.661C107.695 557.88 107.695 556.614 106.914 555.833L94.1863 543.105C93.4052 542.324 92.1389 542.324 91.3579 543.105C90.5768 543.886 90.5768 545.152 91.3579 545.933L102.672 557.247L91.3579 568.561C90.5768 569.342 90.5768 570.608 91.3579 571.389C92.1389 572.17 93.4052 572.17 94.1863 571.389L106.914 558.661ZM73.5 557.247V559.247H105.5V557.247V555.247H73.5V557.247Z" fill="black"/>
<path d="M248.092 626.666C248.873 627.447 250.139 627.447 250.92 626.666L263.648 613.938C264.429 613.157 264.429 611.891 263.648 611.11C262.867 610.329 261.601 610.329 260.82 611.11L249.506 622.424L238.192 611.11C237.411 610.329 236.145 610.329 235.364 611.11C234.583 611.891 234.583 613.157 235.364 613.938L248.092 626.666ZM249.506 592.252L247.506 592.252L247.506 625.252L249.506 625.252L251.506 625.252L251.506 592.252L249.506 592.252Z" fill="white"/>
<path d="M208.092 626.666C208.873 627.447 210.139 627.447 210.92 626.666L223.648 613.938C224.429 613.157 224.429 611.891 223.648 611.11C222.867 610.329 221.601 610.329 220.82 611.11L209.506 622.424L198.192 611.11C197.411 610.329 196.145 610.329 195.364 611.11C194.583 611.891 194.583 613.157 195.364 613.938L208.092 626.666ZM209.506 592.252L207.506 592.252L207.506 625.252L209.506 625.252L211.506 625.252L211.506 592.252L209.506 592.252Z" fill="white"/>
<path d="M168.092 626.666C168.873 627.447 170.139 627.447 170.92 626.666L183.648 613.938C184.429 613.157 184.429 611.891 183.648 611.11C182.867 610.329 181.601 610.329 180.82 611.11L169.506 622.424L158.192 611.11C157.411 610.329 156.145 610.329 155.364 611.11C154.583 611.891 154.583 613.157 155.364 613.938L168.092 626.666ZM169.506 592.252L167.506 592.252L167.506 625.252L169.506 625.252L171.506 625.252L171.506 592.252L169.506 592.252Z" fill="white"/>
<path d="M147.414 613.161C148.195 612.38 148.195 611.114 147.414 610.333L134.686 597.605C133.905 596.824 132.639 596.824 131.858 597.605C131.077 598.386 131.077 599.652 131.858 600.433L143.172 611.747L131.858 623.061C131.077 623.842 131.077 625.108 131.858 625.889C132.639 626.67 133.905 626.67 134.686 625.889L147.414 613.161ZM113 611.747V613.747H146V611.747V609.747H113V611.747Z" fill="black"/>
<path d="M107.414 613.161C108.195 612.38 108.195 611.114 107.414 610.333L94.6863 597.605C93.9052 596.824 92.6389 596.824 91.8579 597.605C91.0768 598.386 91.0768 599.652 91.8579 600.433L103.172 611.747L91.8579 623.061C91.0768 623.842 91.0768 625.108 91.8579 625.889C92.6389 626.67 93.9052 626.67 94.6863 625.889L107.414 613.161ZM73 611.747V613.747H106V611.747V609.747H73V611.747Z" fill="black"/>
<path d="M413.892 331.129C413.656 333.787 412.711 335.885 411.116 337.45C409.491 338.986 407.276 339.784 404.47 339.784C401.398 339.784 398.946 338.75 397.085 336.741C395.224 334.733 394.309 332.045 394.309 328.736C394.309 325.576 395.224 322.947 397.115 320.879C399.005 318.782 401.516 317.748 404.647 317.748C407.128 317.748 409.225 318.457 410.939 319.875C412.622 321.293 413.567 323.095 413.745 325.28H409.225C408.989 324.099 408.457 323.213 407.63 322.563C406.803 321.913 405.799 321.618 404.558 321.618C403.259 321.618 402.195 321.972 401.309 322.681C400.423 323.39 399.832 324.276 399.478 325.31C399.123 326.373 398.946 327.496 398.946 328.736C398.946 330.922 399.448 332.635 400.453 333.935C401.457 335.235 402.786 335.855 404.499 335.855C407.305 335.855 408.9 334.29 409.314 331.129H413.892ZM420.87 318.221V339.252H416.675V318.221H420.87ZM431.675 323.567C434.008 323.567 435.899 324.306 437.317 325.783C438.735 327.259 439.473 329.209 439.473 331.631C439.473 334.083 438.735 336.032 437.317 337.509C435.899 338.986 433.979 339.725 431.616 339.725C429.223 339.725 427.303 338.986 425.886 337.509C424.438 336.032 423.729 334.083 423.729 331.631C423.729 329.209 424.438 327.259 425.915 325.783C427.362 324.306 429.282 323.567 431.675 323.567ZM431.557 326.757C430.434 326.757 429.548 327.2 428.898 328.087C428.249 328.943 427.924 330.125 427.924 331.661C427.924 333.197 428.249 334.408 428.898 335.294C429.548 336.15 430.434 336.594 431.616 336.594C432.768 336.594 433.654 336.15 434.304 335.264C434.954 334.378 435.279 333.167 435.279 331.602C435.279 330.095 434.924 328.914 434.274 328.057C433.624 327.2 432.709 326.757 431.557 326.757ZM455.108 328.441L451.18 328.471C451.062 327.703 450.796 327.141 450.323 326.846C449.851 326.521 449.171 326.373 448.285 326.373C447.547 326.373 446.956 326.492 446.542 326.757C446.129 327.023 445.922 327.407 445.922 327.88C445.922 328.411 446.158 328.795 446.631 329.032C447.104 329.239 447.96 329.475 449.171 329.741C449.408 329.77 449.555 329.8 449.644 329.829C450.353 329.947 450.943 330.066 451.357 330.184C451.771 330.302 452.302 330.479 452.893 330.715C453.513 330.952 453.986 331.247 454.311 331.543C454.665 331.838 454.961 332.251 455.197 332.754C455.463 333.285 455.581 333.876 455.581 334.526C455.581 336.121 454.961 337.391 453.72 338.307C452.479 339.252 450.796 339.695 448.61 339.695C446.542 339.695 444.859 339.252 443.5 338.366C442.171 337.48 441.491 336.121 441.462 334.29H445.449C445.597 336.003 446.69 336.83 448.699 336.83C449.555 336.83 450.235 336.682 450.737 336.328C451.239 335.973 451.475 335.53 451.475 334.939C451.475 334.378 451.268 333.965 450.796 333.728C450.353 333.492 449.526 333.256 448.285 332.96C448.196 332.96 448.108 332.931 448.049 332.901C447.931 332.872 447.606 332.813 447.133 332.695C446.66 332.606 446.336 332.547 446.158 332.488C445.981 332.429 445.656 332.34 445.243 332.222C444.829 332.104 444.504 332.015 444.297 331.897C444.12 331.779 443.854 331.661 443.529 331.483C443.205 331.306 442.968 331.129 442.791 330.922C442.643 330.745 442.466 330.509 442.289 330.243C442.112 329.977 441.964 329.682 441.905 329.327C441.846 329.002 441.816 328.648 441.816 328.234C441.816 326.757 442.377 325.605 443.559 324.778C444.711 323.981 446.365 323.567 448.492 323.567C450.382 323.567 451.948 323.981 453.188 324.749C454.399 325.546 455.049 326.787 455.108 328.441ZM472.391 324.01V339.252H468.404V337.096C467.222 338.838 465.568 339.695 463.441 339.695C461.758 339.695 460.458 339.252 459.513 338.336C458.568 337.421 458.124 336.062 458.124 334.26V324.01H462.348V332.724C462.348 333.315 462.348 333.758 462.407 334.112C462.467 334.467 462.555 334.792 462.732 335.146C462.88 335.501 463.146 335.766 463.5 335.944C463.855 336.121 464.327 336.18 464.918 336.18C467.104 336.18 468.226 334.762 468.226 331.867V324.01H472.391ZM485.5 323.744V327.614C484.909 327.496 484.348 327.437 483.875 327.437C482.487 327.437 481.482 327.88 480.833 328.766C480.183 329.652 479.858 330.804 479.858 332.281V339.252H475.663V324.01H479.651V326.816C480.655 324.719 482.28 323.656 484.584 323.656C484.761 323.656 485.086 323.685 485.5 323.744ZM500.892 334.526C500.419 336.18 499.533 337.45 498.263 338.336C496.993 339.252 495.486 339.695 493.714 339.695C491.38 339.695 489.49 338.986 488.072 337.509C486.654 336.062 485.945 334.142 485.945 331.72C485.945 329.357 486.654 327.407 488.102 325.871C489.52 324.335 491.351 323.567 493.596 323.567C495.9 323.567 497.731 324.365 499.09 325.93C500.449 327.496 501.128 329.623 501.128 332.281V332.695H490.199C490.199 334.024 490.524 335.028 491.144 335.707C491.764 336.416 492.651 336.741 493.773 336.741C495.25 336.741 496.284 336.003 496.874 334.526H500.892ZM496.845 330.036C496.756 329.032 496.431 328.234 495.87 327.584C495.339 326.935 494.571 326.61 493.566 326.61C492.651 326.61 491.883 326.935 491.262 327.525C490.672 328.146 490.288 328.973 490.169 330.036H496.845Z" fill="white"/>
<path d="M353 109.088V97.252H420.25L424.493 109.088H353Z" fill="#F5F5F5"/>
<path d="M471.507 109.088L475.75 97.252H542.351V109.088H471.507Z" fill="#F5F5F5"/>
<path d="M353 132.107V120.287H428.404L432.332 132.107H353Z" fill="#F5F5F5"/>
<path d="M463.335 132.107L467.263 120.287H542.351V132.107H463.335Z" fill="#F5F5F5"/>
<path d="M376.831 155.142V143.289H436.259L440.503 155.142H376.831Z" fill="#F5F5F5"/>
<path d="M455.181 155.142L459.441 143.289H519.169V155.142H455.181Z" fill="#F5F5F5"/>
<path d="M376.831 178.161V166.325H444.58L448.175 176.35L451.753 166.325H519.169V178.161H483.256V171.572L480.809 178.161H415.024L412.744 171.572V178.161H376.831Z" fill="#F5F5F5"/>
<path d="M376.831 201.179V189.343H412.744V201.179H376.831Z" fill="#F5F5F5"/>
<path d="M423.611 201.179L419.268 189.343H477.065L472.938 201.179H423.611Z" fill="#F5F5F5"/>
<path d="M483.256 201.179V189.343H519.169V201.179H483.256Z" fill="#F5F5F5"/>
<path d="M376.831 224.198V212.362H412.744V224.198H376.831Z" fill="#F5F5F5"/>
<path d="M431.633 224.198L427.422 212.362H468.944L464.7 224.198H431.633Z" fill="#F5F5F5"/>
<path d="M483.256 224.198V212.362H519.169V224.198H483.256Z" fill="#F5F5F5"/>
<path d="M353.649 247.233V235.38H412.744V247.233H353.649Z" fill="#F5F5F5"/>
<path d="M439.92 247.233L435.593 235.38H460.806L456.745 247.233H439.92Z" fill="#F5F5F5"/>
<path d="M483.256 247.233V235.38H543V247.233H483.256Z" fill="#F5F5F5"/>
<path d="M353.649 270.252V258.416H412.744V270.252H353.649Z" fill="#F5F5F5"/>
<path d="M447.958 270.218L443.798 258.416H452.901L448.674 270.235L447.958 270.218Z" fill="#F5F5F5"/>
<path d="M483.256 270.252V258.416H543V270.252H483.256Z" fill="#F5F5F5"/>
<path d="M398.865 671.483L394.464 671.512C394.287 669.415 392.958 668.381 390.476 668.381C389.413 668.381 388.586 668.588 387.995 669.002C387.404 669.415 387.08 670.006 387.08 670.774C387.08 671.01 387.139 671.247 387.198 671.453C387.286 671.631 387.434 671.808 387.641 671.985C387.877 672.162 388.084 672.28 388.291 672.399C388.527 672.517 388.852 672.635 389.265 672.753C389.679 672.871 390.063 672.989 390.417 673.108C390.772 673.196 391.244 673.314 391.865 673.492C392.515 673.639 393.046 673.787 393.519 673.935C395.586 674.525 397.152 675.264 398.156 676.15C399.161 677.036 399.663 678.306 399.663 679.96C399.663 681.142 399.426 682.205 398.924 683.091C398.452 683.978 397.772 684.686 396.945 685.218C396.118 685.75 395.202 686.134 394.198 686.37C393.194 686.606 392.131 686.754 391.008 686.754C388.172 686.754 385.928 686.075 384.332 684.775C382.737 683.475 381.91 681.614 381.881 679.251H386.459C386.548 681.88 388.143 683.21 391.215 683.21C392.426 683.21 393.371 682.944 394.08 682.442C394.789 681.939 395.114 681.26 395.114 680.403C395.114 679.665 394.818 679.133 394.169 678.808C393.519 678.454 392.19 678.011 390.122 677.42C390.004 677.391 389.915 677.361 389.856 677.361C389.797 677.331 389.738 677.302 389.62 677.272C389.531 677.243 389.443 677.213 389.354 677.213C388.645 677.007 388.172 676.859 387.877 676.77C387.611 676.682 387.168 676.534 386.577 676.327C385.987 676.091 385.544 675.914 385.278 675.736C384.982 675.559 384.657 675.293 384.244 674.998C383.83 674.673 383.564 674.348 383.387 673.994C383.21 673.639 383.033 673.226 382.885 672.724C382.737 672.221 382.678 671.69 382.678 671.099C382.678 669.179 383.417 667.643 384.894 666.491C386.371 665.369 388.32 664.778 390.772 664.778C393.135 664.778 395.055 665.339 396.561 666.461C398.038 667.584 398.806 669.238 398.865 671.483ZM406.351 665.221V668.765H402.156V665.221H406.351ZM406.351 671.01V686.252H402.156V671.01H406.351ZM433.136 686.252H428.883V677.154C428.883 676.15 428.705 675.382 428.41 674.85C428.085 674.319 427.435 674.023 426.46 674.023C424.511 674.023 423.536 675.264 423.536 677.686V686.252H419.342V676.977C419.342 676.032 419.165 675.323 418.869 674.791C418.544 674.259 417.924 673.994 417.038 673.994C415 673.994 413.995 675.323 413.995 677.981V686.252H409.801V671.01H413.789V673.108C414.97 671.453 416.595 670.597 418.633 670.597C420.73 670.597 422.177 671.453 422.945 673.108C424.156 671.453 425.811 670.597 427.937 670.597C429.591 670.597 430.891 671.099 431.777 672.074C432.663 673.048 433.136 674.348 433.136 676.002V686.252ZM459.905 686.252H455.651V677.154C455.651 676.15 455.474 675.382 455.179 674.85C454.854 674.319 454.204 674.023 453.229 674.023C451.28 674.023 450.305 675.264 450.305 677.686V686.252H446.111V676.977C446.111 676.032 445.933 675.323 445.638 674.791C445.313 674.259 444.693 673.994 443.807 673.994C441.769 673.994 440.764 675.323 440.764 677.981V686.252H436.57V671.01H440.557V673.108C441.739 671.453 443.364 670.597 445.402 670.597C447.499 670.597 448.946 671.453 449.714 673.108C450.925 671.453 452.579 670.597 454.706 670.597C456.36 670.597 457.66 671.099 458.546 672.074C459.432 673.048 459.905 674.348 459.905 676.002V686.252ZM477.517 681.526C477.044 683.18 476.158 684.45 474.888 685.336C473.618 686.252 472.112 686.695 470.339 686.695C468.006 686.695 466.115 685.986 464.697 684.509C463.28 683.062 462.571 681.142 462.571 678.72C462.571 676.357 463.28 674.407 464.727 672.871C466.145 671.335 467.976 670.567 470.221 670.567C472.525 670.567 474.356 671.365 475.715 672.93C477.074 674.496 477.753 676.623 477.753 679.281V679.695H466.824C466.824 681.024 467.149 682.028 467.769 682.707C468.39 683.416 469.276 683.741 470.398 683.741C471.875 683.741 472.909 683.003 473.5 681.526H477.517ZM473.47 677.036C473.382 676.032 473.057 675.234 472.496 674.584C471.964 673.935 471.196 673.61 470.192 673.61C469.276 673.61 468.508 673.935 467.888 674.525C467.297 675.146 466.913 675.973 466.795 677.036H473.47ZM488.541 671.01V673.876H485.44V681.053C485.44 681.496 485.44 681.821 485.469 682.028C485.469 682.235 485.558 682.442 485.676 682.678C485.794 682.885 485.971 683.032 486.208 683.091C486.444 683.15 486.798 683.18 487.271 683.18C487.773 683.18 488.187 683.18 488.541 683.121V686.311C487.507 686.4 486.651 686.429 486.001 686.429C484.17 686.429 482.899 686.134 482.25 685.484C481.6 684.834 481.275 683.594 481.275 681.762V673.846H478.735V671.01H481.275V666.402H485.44V671.01H488.541ZM500.432 670.744V674.614C499.841 674.496 499.28 674.437 498.807 674.437C497.419 674.437 496.415 674.88 495.765 675.766C495.115 676.652 494.79 677.804 494.79 679.281V686.252H490.596V671.01H494.584V673.816C495.588 671.719 497.212 670.656 499.516 670.656C499.694 670.656 500.019 670.685 500.432 670.744ZM515.871 671.01L510.229 686.222C509.963 686.99 509.756 687.522 509.638 687.817C509.52 688.113 509.313 688.556 509.048 689.117C508.782 689.649 508.545 690.033 508.309 690.269C508.073 690.476 507.777 690.712 507.393 691.008C507.009 691.273 506.566 691.451 506.094 691.539C505.621 691.657 505.06 691.687 504.44 691.687C503.908 691.687 502.992 691.687 501.633 691.657V688.201H503.672C504.351 688.201 504.883 688.024 505.237 687.67C505.592 687.315 505.798 686.813 505.798 686.163C505.798 686.016 505.739 685.809 505.68 685.573L500.157 671.01H504.676L508.161 681.378L511.529 671.01H515.871Z" fill="white"/>
<path d="M522.191 445.252V608.917H488.236V596.701H507.639V457.468H488.236V445.252H522.191Z" fill="white"/>
<path d="M406.955 445.252V457.468H387.552V596.701H406.955V608.917H373V445.252H406.955Z" fill="white"/>
<path d="M895.105 331.129C894.868 333.787 893.923 335.885 892.328 337.45C890.704 338.986 888.488 339.784 885.682 339.784C882.61 339.784 880.158 338.75 878.298 336.741C876.437 334.733 875.521 332.045 875.521 328.736C875.521 325.576 876.437 322.947 878.327 320.879C880.218 318.782 882.728 317.748 885.859 317.748C888.34 317.748 890.438 318.457 892.151 319.875C893.835 321.293 894.78 323.095 894.957 325.28H890.438C890.201 324.099 889.67 323.213 888.843 322.563C888.016 321.913 887.011 321.618 885.771 321.618C884.471 321.618 883.408 321.972 882.521 322.681C881.635 323.39 881.045 324.276 880.69 325.31C880.336 326.373 880.158 327.496 880.158 328.736C880.158 330.922 880.661 332.635 881.665 333.935C882.669 335.235 883.998 335.855 885.712 335.855C888.518 335.855 890.113 334.29 890.526 331.129H895.105ZM905.272 323.567C907.606 323.567 909.496 324.306 910.914 325.783C912.332 327.259 913.07 329.209 913.07 331.631C913.07 334.083 912.332 336.032 910.914 337.509C909.496 338.986 907.576 339.725 905.213 339.725C902.82 339.725 900.9 338.986 899.483 337.509C898.035 336.032 897.326 334.083 897.326 331.631C897.326 329.209 898.035 327.259 899.512 325.783C900.959 324.306 902.879 323.567 905.272 323.567ZM905.154 326.757C904.031 326.757 903.145 327.2 902.495 328.087C901.846 328.943 901.521 330.125 901.521 331.661C901.521 333.197 901.846 334.408 902.495 335.294C903.145 336.15 904.031 336.594 905.213 336.594C906.365 336.594 907.251 336.15 907.901 335.264C908.551 334.378 908.876 333.167 908.876 331.602C908.876 330.095 908.521 328.914 907.871 328.057C907.222 327.2 906.306 326.757 905.154 326.757ZM939.31 339.252H935.056V330.154C935.056 329.15 934.879 328.382 934.583 327.85C934.259 327.319 933.609 327.023 932.634 327.023C930.684 327.023 929.71 328.264 929.71 330.686V339.252H925.515V329.977C925.515 329.032 925.338 328.323 925.043 327.791C924.718 327.259 924.097 326.994 923.211 326.994C921.173 326.994 920.169 328.323 920.169 330.981V339.252H915.974V324.01H919.962V326.108C921.144 324.453 922.768 323.597 924.806 323.597C926.904 323.597 928.351 324.453 929.119 326.108C930.33 324.453 931.984 323.597 934.111 323.597C935.765 323.597 937.065 324.099 937.951 325.074C938.837 326.048 939.31 327.348 939.31 329.002V339.252ZM966.078 339.252H961.825V330.154C961.825 329.15 961.648 328.382 961.352 327.85C961.027 327.319 960.378 327.023 959.403 327.023C957.453 327.023 956.479 328.264 956.479 330.686V339.252H952.284V329.977C952.284 329.032 952.107 328.323 951.812 327.791C951.487 327.259 950.866 326.994 949.98 326.994C947.942 326.994 946.938 328.323 946.938 330.981V339.252H942.743V324.01H946.731V326.108C947.913 324.453 949.537 323.597 951.575 323.597C953.672 323.597 955.12 324.453 955.888 326.108C957.099 324.453 958.753 323.597 960.88 323.597C962.534 323.597 963.834 324.099 964.72 325.074C965.606 326.048 966.078 327.348 966.078 329.002V339.252ZM976.867 323.567C979.201 323.567 981.091 324.306 982.509 325.783C983.927 327.259 984.665 329.209 984.665 331.631C984.665 334.083 983.927 336.032 982.509 337.509C981.091 338.986 979.171 339.725 976.808 339.725C974.416 339.725 972.496 338.986 971.078 337.509C969.63 336.032 968.921 334.083 968.921 331.631C968.921 329.209 969.63 327.259 971.107 325.783C972.555 324.306 974.475 323.567 976.867 323.567ZM976.749 326.757C975.627 326.757 974.74 327.2 974.091 328.087C973.441 328.943 973.116 330.125 973.116 331.661C973.116 333.197 973.441 334.408 974.091 335.294C974.74 336.15 975.627 336.594 976.808 336.594C977.96 336.594 978.846 336.15 979.496 335.264C980.146 334.378 980.471 333.167 980.471 331.602C980.471 330.095 980.116 328.914 979.467 328.057C978.817 327.2 977.901 326.757 976.749 326.757ZM1001.78 339.252H997.524V330.361C997.524 329.298 997.347 328.471 996.992 327.909C996.638 327.348 995.929 327.053 994.925 327.053C992.709 327.053 991.616 328.411 991.616 331.07V339.252H987.452V324.01H991.439V326.137C992.68 324.453 994.363 323.597 996.49 323.597C998.115 323.597 999.414 324.069 1000.36 325.015C1001.3 325.96 1001.78 327.319 1001.78 329.061V339.252ZM1023.05 323.744V327.614C1022.46 327.496 1021.9 327.437 1021.42 327.437C1020.03 327.437 1019.03 327.88 1018.38 328.766C1017.73 329.652 1017.41 330.804 1017.41 332.281V339.252H1013.21V324.01H1017.2V326.816C1018.2 324.719 1019.83 323.656 1022.13 323.656C1022.31 323.656 1022.63 323.685 1023.05 323.744ZM1038.44 334.526C1037.97 336.18 1037.08 337.45 1035.81 338.336C1034.54 339.252 1033.03 339.695 1031.26 339.695C1028.93 339.695 1027.04 338.986 1025.62 337.509C1024.2 336.062 1023.49 334.142 1023.49 331.72C1023.49 329.357 1024.2 327.407 1025.65 325.871C1027.07 324.335 1028.9 323.567 1031.14 323.567C1033.45 323.567 1035.28 324.365 1036.64 325.93C1038 327.496 1038.68 329.623 1038.68 332.281V332.695H1027.75C1027.75 334.024 1028.07 335.028 1028.69 335.707C1029.31 336.416 1030.2 336.741 1031.32 336.741C1032.8 336.741 1033.83 336.003 1034.42 334.526H1038.44ZM1034.39 330.036C1034.3 329.032 1033.98 328.234 1033.42 327.584C1032.89 326.935 1032.12 326.61 1031.11 326.61C1030.2 326.61 1029.43 326.935 1028.81 327.525C1028.22 328.146 1027.84 328.973 1027.72 330.036H1034.39ZM1055.7 324.01V337.686C1055.7 340.168 1055.08 341.999 1053.84 343.181C1052.59 344.362 1050.7 344.953 1048.19 344.953C1043.82 344.953 1041.46 343.358 1041.05 340.197H1045.21C1045.36 340.877 1045.68 341.379 1046.19 341.674C1046.66 341.969 1047.37 342.147 1048.28 342.147C1049.58 342.147 1050.47 341.822 1050.94 341.172C1051.38 340.522 1051.62 339.547 1051.65 338.189L1051.68 336.475C1050.53 338.041 1048.96 338.838 1047.01 338.838C1045 338.838 1043.44 338.159 1042.26 336.8C1041.08 335.442 1040.51 333.61 1040.51 331.336C1040.51 329.002 1041.1 327.141 1042.35 325.724C1043.56 324.306 1045.18 323.597 1047.19 323.597C1048.25 323.597 1049.11 323.804 1049.82 324.188C1050.53 324.572 1051.15 325.192 1051.74 326.048V324.01H1055.7ZM1048.16 326.876C1047.04 326.876 1046.19 327.259 1045.56 328.027C1044.94 328.795 1044.62 329.888 1044.62 331.306C1044.62 332.635 1044.94 333.699 1045.59 334.496C1046.24 335.294 1047.1 335.707 1048.16 335.707C1049.26 335.707 1050.11 335.294 1050.73 334.496C1051.38 333.669 1051.68 332.576 1051.68 331.218C1051.68 329.859 1051.38 328.795 1050.73 328.027C1050.11 327.259 1049.26 326.876 1048.16 326.876ZM1063.45 318.221V321.765H1059.25V318.221H1063.45ZM1063.45 324.01V339.252H1059.25V324.01H1063.45ZM1074.25 323.567C1076.58 323.567 1078.47 324.306 1079.89 325.783C1081.31 327.259 1082.05 329.209 1082.05 331.631C1082.05 334.083 1081.31 336.032 1079.89 337.509C1078.47 338.986 1076.55 339.725 1074.19 339.725C1071.8 339.725 1069.88 338.986 1068.46 337.509C1067.01 336.032 1066.3 334.083 1066.3 331.631C1066.3 329.209 1067.01 327.259 1068.49 325.783C1069.94 324.306 1071.86 323.567 1074.25 323.567ZM1074.13 326.757C1073.01 326.757 1072.12 327.2 1071.47 328.087C1070.82 328.943 1070.5 330.125 1070.5 331.661C1070.5 333.197 1070.82 334.408 1071.47 335.294C1072.12 336.15 1073.01 336.594 1074.19 336.594C1075.34 336.594 1076.23 336.15 1076.88 335.264C1077.53 334.378 1077.85 333.167 1077.85 331.602C1077.85 330.095 1077.5 328.914 1076.85 328.057C1076.2 327.2 1075.28 326.757 1074.13 326.757ZM1099.16 339.252H1094.91V330.361C1094.91 329.298 1094.73 328.471 1094.38 327.909C1094.02 327.348 1093.31 327.053 1092.31 327.053C1090.09 327.053 1089 328.411 1089 331.07V339.252H1084.83V324.01H1088.82V326.137C1090.06 324.453 1091.75 323.597 1093.87 323.597C1095.5 323.597 1096.8 324.069 1097.74 325.015C1098.69 325.96 1099.16 327.319 1099.16 329.061V339.252Z" fill="white"/>
<ellipse cx="983.016" cy="258.089" rx="11.7668" ry="11.7668" transform="rotate(90 983.016 258.089)" fill="#F5F5F5"/>
<ellipse cx="983.016" cy="111.239" rx="11.7668" ry="11.7668" transform="rotate(90 983.016 111.239)" fill="#F5F5F5"/>
<ellipse cx="1026.32" cy="254.324" rx="11.7668" ry="11.7668" transform="rotate(-90 1026.32 254.324)" fill="#F5F5F5"/>
<ellipse cx="1026.32" cy="112.18" rx="11.7668" ry="11.7668" transform="rotate(-90 1026.32 112.18)" fill="#F5F5F5"/>
<ellipse cx="1026.32" cy="147.01" rx="11.7668" ry="11.7668" transform="rotate(-90 1026.32 147.01)" fill="#F5F5F5"/>
<ellipse cx="1026.32" cy="181.84" rx="11.7668" ry="11.7668" transform="rotate(-90 1026.32 181.84)" fill="#F5F5F5"/>
<ellipse cx="1026.32" cy="219.494" rx="11.7668" ry="11.7668" transform="rotate(-90 1026.32 219.494)" fill="#F5F5F5"/>
<ellipse cx="948.186" cy="257.148" rx="11.7668" ry="11.7668" transform="rotate(90 948.186 257.148)" fill="#F5F5F5"/>
<ellipse cx="948.186" cy="110.298" rx="11.7668" ry="11.7668" transform="rotate(90 948.186 110.298)" fill="#F5F5F5"/>
<ellipse cx="948.186" cy="145.127" rx="11.7668" ry="11.7668" transform="rotate(90 948.186 145.127)" fill="#F5F5F5"/>
<ellipse cx="948.186" cy="179.957" rx="11.7668" ry="11.7668" transform="rotate(90 948.186 179.957)" fill="#F5F5F5"/>
<ellipse cx="983.016" cy="145.127" rx="11.7668" ry="11.7668" transform="rotate(90 983.016 145.127)" fill="#F5F5F5"/>
<ellipse cx="983.016" cy="179.957" rx="11.7668" ry="11.7668" transform="rotate(90 983.016 179.957)" fill="#F5F5F5"/>
<ellipse cx="948.186" cy="222.318" rx="11.7668" ry="11.7668" transform="rotate(90 948.186 222.318)" fill="#F5F5F5"/>
<ellipse cx="983.016" cy="222.318" rx="11.7668" ry="11.7668" transform="rotate(90 983.016 222.318)" fill="#F5F5F5"/>
<ellipse cx="913.356" cy="257.148" rx="11.7668" ry="11.7668" transform="rotate(90 913.356 257.148)" fill="#F5F5F5"/>
<ellipse cx="913.356" cy="222.318" rx="11.7668" ry="11.7668" transform="rotate(90 913.356 222.318)" fill="#F5F5F5"/>
<ellipse cx="1061.15" cy="220.435" rx="11.7668" ry="11.7668" transform="rotate(90 1061.15 220.435)" fill="#F5F5F5"/>
<ellipse cx="913.356" cy="179.957" rx="11.7668" ry="11.7668" transform="rotate(90 913.356 179.957)" fill="#F5F5F5"/>
<ellipse cx="1061.15" cy="182.781" rx="11.7668" ry="11.7668" transform="rotate(90 1061.15 182.781)" fill="#F5F5F5"/>
<ellipse cx="913.356" cy="145.127" rx="11.7668" ry="11.7668" transform="rotate(90 913.356 145.127)" fill="#F5F5F5"/>
<ellipse cx="1061.15" cy="147.951" rx="11.7668" ry="11.7668" transform="rotate(90 1061.15 147.951)" fill="#F5F5F5"/>
<ellipse cx="913.356" cy="110.298" rx="11.7668" ry="11.7668" transform="rotate(90 913.356 110.298)" fill="#F5F5F5"/>
<ellipse cx="1061.15" cy="254.324" rx="11.7668" ry="11.7668" transform="rotate(-90 1061.15 254.324)" fill="#F5F5F5"/>
<ellipse cx="1061.15" cy="112.18" rx="11.7668" ry="11.7668" transform="rotate(-90 1061.15 112.18)" fill="#F5F5F5"/>
<rect x="896.5" y="92.5" width="103.372" height="104.313" rx="14.5" stroke="black" stroke-width="3"/>
<rect x="896.5" y="205.461" width="103.372" height="68.5423" rx="14.5" stroke="black" stroke-width="3"/>
<rect x="1009.46" y="92.5" width="68.5423" height="181.504" rx="14.5" stroke="black" stroke-width="3"/>
<path d="M903.969 665.221V669.09H893.748V673.964H902.639V677.627H893.748V686.252H889.14V665.221H903.969ZM910.519 665.221V668.765H906.325V665.221H910.519ZM910.519 671.01V686.252H906.325V671.01H910.519ZM928.443 671.01V684.686C928.443 687.168 927.823 688.999 926.582 690.181C925.342 691.362 923.451 691.953 920.941 691.953C916.569 691.953 914.206 690.358 913.792 687.197H917.957C918.105 687.877 918.43 688.379 918.932 688.674C919.405 688.969 920.114 689.147 921.029 689.147C922.329 689.147 923.215 688.822 923.688 688.172C924.131 687.522 924.367 686.547 924.397 685.189L924.426 683.475C923.274 685.041 921.709 685.838 919.759 685.838C917.751 685.838 916.185 685.159 915.004 683.8C913.822 682.442 913.261 680.61 913.261 678.336C913.261 676.002 913.852 674.141 915.092 672.724C916.303 671.306 917.928 670.597 919.936 670.597C921 670.597 921.856 670.804 922.565 671.188C923.274 671.572 923.895 672.192 924.485 673.048V671.01H928.443ZM920.911 673.876C919.789 673.876 918.932 674.259 918.312 675.027C917.692 675.795 917.367 676.888 917.367 678.306C917.367 679.635 917.692 680.699 918.341 681.496C918.991 682.294 919.848 682.707 920.911 682.707C922.004 682.707 922.861 682.294 923.481 681.496C924.131 680.669 924.426 679.576 924.426 678.218C924.426 676.859 924.131 675.795 923.481 675.027C922.861 674.259 922.004 673.876 920.911 673.876ZM946.176 671.01V686.252H942.188V684.096C941.007 685.838 939.353 686.695 937.226 686.695C935.542 686.695 934.243 686.252 933.297 685.336C932.352 684.421 931.909 683.062 931.909 681.26V671.01H936.133V679.724C936.133 680.315 936.133 680.758 936.192 681.112C936.251 681.467 936.34 681.792 936.517 682.146C936.665 682.501 936.93 682.766 937.285 682.944C937.639 683.121 938.112 683.18 938.703 683.18C940.889 683.18 942.011 681.762 942.011 678.867V671.01H946.176ZM959.284 670.744V674.614C958.693 674.496 958.132 674.437 957.66 674.437C956.271 674.437 955.267 674.88 954.617 675.766C953.967 676.652 953.642 677.804 953.642 679.281V686.252H949.448V671.01H953.436V673.816C954.44 671.719 956.064 670.656 958.368 670.656C958.546 670.656 958.871 670.685 959.284 670.744ZM974.676 681.526C974.204 683.18 973.317 684.45 972.047 685.336C970.777 686.252 969.271 686.695 967.498 686.695C965.165 686.695 963.275 685.986 961.857 684.509C960.439 683.062 959.73 681.142 959.73 678.72C959.73 676.357 960.439 674.407 961.886 672.871C963.304 671.335 965.135 670.567 967.38 670.567C969.684 670.567 971.516 671.365 972.874 672.93C974.233 674.496 974.913 676.623 974.913 679.281V679.695H963.983C963.983 681.024 964.308 682.028 964.929 682.707C965.549 683.416 966.435 683.741 967.558 683.741C969.034 683.741 970.068 683.003 970.659 681.526H974.676ZM970.629 677.036C970.541 676.032 970.216 675.234 969.655 674.584C969.123 673.935 968.355 673.61 967.351 673.61C966.435 673.61 965.667 673.935 965.047 674.525C964.456 675.146 964.072 675.973 963.954 677.036H970.629ZM986.173 676.327V680.078H977.282V676.327H986.173ZM1003.96 671.01V684.686C1003.96 687.168 1003.34 688.999 1002.1 690.181C1000.86 691.362 998.97 691.953 996.459 691.953C992.087 691.953 989.724 690.358 989.311 687.197H993.476C993.623 687.877 993.948 688.379 994.45 688.674C994.923 688.969 995.632 689.147 996.548 689.147C997.847 689.147 998.733 688.822 999.206 688.172C999.649 687.522 999.885 686.547 999.915 685.189L999.944 683.475C998.792 685.041 997.227 685.838 995.277 685.838C993.269 685.838 991.703 685.159 990.522 683.8C989.34 682.442 988.779 680.61 988.779 678.336C988.779 676.002 989.37 674.141 990.61 672.724C991.821 671.306 993.446 670.597 995.455 670.597C996.518 670.597 997.375 670.804 998.084 671.188C998.792 671.572 999.413 672.192 1000 673.048V671.01H1003.96ZM996.429 673.876C995.307 673.876 994.45 674.259 993.83 675.027C993.21 675.795 992.885 676.888 992.885 678.306C992.885 679.635 993.21 680.699 993.86 681.496C994.509 682.294 995.366 682.707 996.429 682.707C997.522 682.707 998.379 682.294 998.999 681.496C999.649 680.669 999.944 679.576 999.944 678.218C999.944 676.859 999.649 675.795 998.999 675.027C998.379 674.259 997.522 673.876 996.429 673.876ZM1017.29 670.744V674.614C1016.7 674.496 1016.14 674.437 1015.67 674.437C1014.28 674.437 1013.28 674.88 1012.63 675.766C1011.98 676.652 1011.65 677.804 1011.65 679.281V686.252H1007.46V671.01H1011.44V673.816C1012.45 671.719 1014.07 670.656 1016.38 670.656C1016.55 670.656 1016.88 670.685 1017.29 670.744ZM1025.86 670.567C1028.2 670.567 1030.09 671.306 1031.5 672.783C1032.92 674.259 1033.66 676.209 1033.66 678.631C1033.66 681.083 1032.92 683.032 1031.5 684.509C1030.09 685.986 1028.17 686.725 1025.8 686.725C1023.41 686.725 1021.49 685.986 1020.07 684.509C1018.62 683.032 1017.92 681.083 1017.92 678.631C1017.92 676.209 1018.62 674.259 1020.1 672.783C1021.55 671.306 1023.47 670.567 1025.86 670.567ZM1025.74 673.757C1024.62 673.757 1023.74 674.2 1023.09 675.087C1022.44 675.943 1022.11 677.125 1022.11 678.661C1022.11 680.197 1022.44 681.408 1023.09 682.294C1023.74 683.15 1024.62 683.594 1025.8 683.594C1026.95 683.594 1027.84 683.15 1028.49 682.264C1029.14 681.378 1029.47 680.167 1029.47 678.602C1029.47 677.095 1029.11 675.914 1028.46 675.057C1027.81 674.2 1026.9 673.757 1025.74 673.757ZM1050.71 671.01V686.252H1046.73V684.096C1045.54 685.838 1043.89 686.695 1041.76 686.695C1040.08 686.695 1038.78 686.252 1037.83 685.336C1036.89 684.421 1036.45 683.062 1036.45 681.26V671.01H1040.67V679.724C1040.67 680.315 1040.67 680.758 1040.73 681.112C1040.79 681.467 1040.88 681.792 1041.05 682.146C1041.2 682.501 1041.47 682.766 1041.82 682.944C1042.18 683.121 1042.65 683.18 1043.24 683.18C1045.43 683.18 1046.55 681.762 1046.55 678.867V671.01H1050.71ZM1068.28 686.252H1064.03V677.361C1064.03 676.298 1063.85 675.471 1063.5 674.909C1063.14 674.348 1062.43 674.053 1061.43 674.053C1059.21 674.053 1058.12 675.411 1058.12 678.07V686.252H1053.96V671.01H1057.94V673.137C1059.18 671.453 1060.87 670.597 1062.99 670.597C1064.62 670.597 1065.92 671.069 1066.86 672.015C1067.81 672.96 1068.28 674.319 1068.28 676.061V686.252ZM1086.29 686.252H1082.31V684.302C1081.3 685.897 1079.77 686.665 1077.7 686.665C1075.6 686.665 1073.92 685.957 1072.68 684.48C1071.44 683.003 1070.81 681.053 1070.81 678.572C1070.81 676.179 1071.41 674.259 1072.62 672.812C1073.83 671.335 1075.45 670.626 1077.49 670.626C1078.44 670.626 1079.32 670.804 1080.15 671.217C1080.98 671.601 1081.66 672.162 1082.13 672.901V665.221H1086.29V686.252ZM1082.25 678.602C1082.25 677.125 1081.95 676.002 1081.3 675.175C1080.65 674.348 1079.77 673.935 1078.64 673.935C1077.49 673.935 1076.6 674.348 1075.98 675.175C1075.33 676.002 1075.04 677.125 1075.04 678.602C1075.04 680.078 1075.33 681.23 1075.98 682.058C1076.63 682.885 1077.52 683.328 1078.64 683.328C1079.79 683.328 1080.68 682.914 1081.3 682.087C1081.95 681.26 1082.25 680.108 1082.25 678.602Z" fill="white"/>
<rect x="896" y="435.252" width="184" height="184" fill="#A9A9A9"/>
<rect x="944.139" y="471.624" width="87.7209" height="111.256" rx="20" fill="white"/>
</svg>
