<svg width="1176" height="784" viewBox="0 0 1176 784" fill="none" xmlns="http://www.w3.org/2000/svg">
<rect width="1176" height="784" fill="#29815B"/>
<circle cx="671.5" cy="182.5" r="25.5" fill="#F5F5F5"/>
<circle cx="457.5" cy="177.5" r="25.5" transform="rotate(90 457.5 177.5)" fill="#F5F5F5"/>
<circle cx="878.5" cy="182.5" r="25.5" fill="#F5F5F5"/>
<circle cx="457.5" cy="384.5" r="25.5" transform="rotate(90 457.5 384.5)" fill="#F5F5F5"/>
<circle cx="671.5" cy="251.5" r="25.5" fill="#F5F5F5"/>
<circle cx="388.5" cy="177.5" r="25.5" transform="rotate(90 388.5 177.5)" fill="#F5F5F5"/>
<circle cx="878.5" cy="251.5" r="25.5" fill="#F5F5F5"/>
<circle cx="388.5" cy="384.5" r="25.5" transform="rotate(90 388.5 384.5)" fill="#F5F5F5"/>
<circle cx="671.5" cy="384.5" r="25.5" fill="#F5F5F5"/>
<path d="M319.5 156.5L341.584 194.75H297.416L319.5 156.5Z" fill="black"/>
<circle cx="878.5" cy="384.5" r="25.5" fill="#F5F5F5"/>
<path d="M319.5 363.5L341.584 401.75H297.416L319.5 363.5Z" fill="black"/>
<circle cx="671.5" cy="453.5" r="25.5" fill="#F5F5F5"/>
<circle cx="250.5" cy="177.5" r="25.5" transform="rotate(90 250.5 177.5)" fill="#F5F5F5"/>
<circle cx="878.5" cy="453.5" r="25.5" fill="#F5F5F5"/>
<circle cx="250.5" cy="384.5" r="25.5" transform="rotate(90 250.5 384.5)" fill="#F5F5F5"/>
<circle cx="671.5" cy="522.5" r="25.5" fill="#F5F5F5"/>
<circle cx="181.5" cy="177.5" r="25.5" transform="rotate(90 181.5 177.5)" fill="#F5F5F5"/>
<circle cx="878.5" cy="522.5" r="25.5" fill="#F5F5F5"/>
<circle cx="181.5" cy="384.5" r="25.5" transform="rotate(90 181.5 384.5)" fill="#F5F5F5"/>
<circle cx="740.5" cy="182.5" r="25.5" fill="#F5F5F5"/>
<circle cx="457.5" cy="246.5" r="25.5" transform="rotate(90 457.5 246.5)" fill="#F5F5F5"/>
<circle cx="947.5" cy="182.5" r="25.5" fill="#F5F5F5"/>
<circle cx="457.5" cy="453.5" r="25.5" transform="rotate(90 457.5 453.5)" fill="#F5F5F5"/>
<circle cx="740.5" cy="251.5" r="25.5" fill="#F5F5F5"/>
<circle cx="388.5" cy="246.5" r="25.5" transform="rotate(90 388.5 246.5)" fill="#F5F5F5"/>
<circle cx="947.5" cy="251.5" r="25.5" fill="#F5F5F5"/>
<circle cx="388.5" cy="453.5" r="25.5" transform="rotate(90 388.5 453.5)" fill="#F5F5F5"/>
<circle cx="740.5" cy="384.5" r="25.5" fill="#F5F5F5"/>
<path d="M319.5 225.5L341.584 263.75H297.416L319.5 225.5Z" fill="black"/>
<circle cx="947.5" cy="384.5" r="25.5" fill="#F5F5F5"/>
<path d="M319.5 432.5L341.584 470.75H297.416L319.5 432.5Z" fill="black"/>
<circle cx="740.5" cy="453.5" r="25.5" fill="#F5F5F5"/>
<circle cx="250.5" cy="246.5" r="25.5" transform="rotate(90 250.5 246.5)" fill="#F5F5F5"/>
<circle cx="947.5" cy="453.5" r="25.5" fill="#F5F5F5"/>
<circle cx="250.5" cy="453.5" r="25.5" transform="rotate(90 250.5 453.5)" fill="#F5F5F5"/>
<circle cx="740.5" cy="522.5" r="25.5" fill="#F5F5F5"/>
<circle cx="181.5" cy="246.5" r="25.5" transform="rotate(90 181.5 246.5)" fill="#F5F5F5"/>
<circle cx="947.5" cy="522.5" r="25.5" fill="#F5F5F5"/>
<circle cx="181.5" cy="453.5" r="25.5" transform="rotate(90 181.5 453.5)" fill="#F5F5F5"/>
<circle cx="809.5" cy="182.5" r="25.5" fill="#F5F5F5"/>
<circle cx="457.5" cy="315.5" r="25.5" transform="rotate(90 457.5 315.5)" fill="#F5F5F5"/>
<circle cx="1016.5" cy="182.5" r="25.5" fill="#F5F5F5"/>
<circle cx="457.5" cy="522.5" r="25.5" transform="rotate(90 457.5 522.5)" fill="#F5F5F5"/>
<circle cx="809.5" cy="251.5" r="25.5" fill="#F5F5F5"/>
<circle cx="388.5" cy="315.5" r="25.5" transform="rotate(90 388.5 315.5)" fill="#F5F5F5"/>
<circle cx="1016.5" cy="251.5" r="25.5" fill="#F5F5F5"/>
<circle cx="388.5" cy="522.5" r="25.5" transform="rotate(90 388.5 522.5)" fill="#F5F5F5"/>
<circle cx="809.5" cy="384.5" r="25.5" fill="#F5F5F5"/>
<path d="M319.5 294.5L341.584 332.75H297.416L319.5 294.5Z" fill="black"/>
<circle cx="1016.5" cy="384.5" r="25.5" fill="#F5F5F5"/>
<path d="M319.5 501.5L341.584 539.75H297.416L319.5 501.5Z" fill="black"/>
<circle cx="809.5" cy="453.5" r="25.5" fill="#F5F5F5"/>
<circle cx="250.5" cy="315.5" r="25.5" transform="rotate(90 250.5 315.5)" fill="#F5F5F5"/>
<circle cx="1016.5" cy="453.5" r="25.5" fill="#F5F5F5"/>
<circle cx="250.5" cy="522.5" r="25.5" transform="rotate(90 250.5 522.5)" fill="#F5F5F5"/>
<circle cx="809.5" cy="522.5" r="25.5" fill="#F5F5F5"/>
<circle cx="181.5" cy="315.5" r="25.5" transform="rotate(90 181.5 315.5)" fill="#F5F5F5"/>
<circle cx="1016.5" cy="522.5" r="25.5" fill="#F5F5F5"/>
<circle cx="181.5" cy="522.5" r="25.5" transform="rotate(90 181.5 522.5)" fill="#F5F5F5"/>
<path d="M250.998 658.5L244.293 658.545C244.023 655.35 241.998 653.775 238.218 653.775C236.598 653.775 235.338 654.09 234.438 654.72C233.538 655.35 233.043 656.25 233.043 657.42C233.043 657.78 233.133 658.14 233.223 658.455C233.358 658.725 233.583 658.995 233.898 659.265C234.258 659.535 234.573 659.715 234.888 659.895C235.248 660.075 235.743 660.255 236.373 660.435C237.003 660.615 237.588 660.795 238.128 660.975C238.668 661.11 239.388 661.29 240.333 661.56C241.323 661.785 242.133 662.01 242.853 662.235C246.003 663.135 248.388 664.26 249.918 665.61C251.448 666.96 252.213 668.895 252.213 671.415C252.213 673.215 251.853 674.835 251.088 676.185C250.368 677.535 249.333 678.615 248.073 679.425C246.813 680.235 245.418 680.82 243.888 681.18C242.358 681.54 240.738 681.765 239.028 681.765C234.708 681.765 231.288 680.73 228.858 678.75C226.428 676.77 225.168 673.935 225.123 670.335H232.098C232.233 674.34 234.663 676.365 239.343 676.365C241.188 676.365 242.628 675.96 243.708 675.195C244.788 674.43 245.283 673.395 245.283 672.09C245.283 670.965 244.833 670.155 243.843 669.66C242.853 669.12 240.828 668.445 237.678 667.545C237.498 667.5 237.363 667.455 237.273 667.455C237.183 667.41 237.093 667.365 236.913 667.32C236.778 667.275 236.643 667.23 236.508 667.23C235.428 666.915 234.708 666.69 234.258 666.555C233.853 666.42 233.178 666.195 232.278 665.88C231.378 665.52 230.703 665.25 230.298 664.98C229.848 664.71 229.353 664.305 228.723 663.855C228.093 663.36 227.688 662.865 227.418 662.325C227.148 661.785 226.878 661.155 226.653 660.39C226.428 659.625 226.338 658.815 226.338 657.915C226.338 654.99 227.463 652.65 229.713 650.895C231.963 649.185 234.933 648.285 238.668 648.285C242.268 648.285 245.193 649.14 247.488 650.85C249.738 652.56 250.908 655.08 250.998 658.5ZM262.402 648.96V654.36H256.012V648.96H262.402ZM262.402 657.78V681H256.012V657.78H262.402ZM303.208 681H296.728V667.14C296.728 665.61 296.458 664.44 296.008 663.63C295.513 662.82 294.523 662.37 293.038 662.37C290.068 662.37 288.583 664.26 288.583 667.95V681H282.193V666.87C282.193 665.43 281.923 664.35 281.473 663.54C280.978 662.73 280.033 662.325 278.683 662.325C275.578 662.325 274.048 664.35 274.048 668.4V681H267.658V657.78H273.733V660.975C275.533 658.455 278.008 657.15 281.113 657.15C284.308 657.15 286.513 658.455 287.683 660.975C289.528 658.455 292.048 657.15 295.288 657.15C297.808 657.15 299.788 657.915 301.138 659.4C302.488 660.885 303.208 662.865 303.208 665.385V681ZM314.784 648.96V654.36H308.394V648.96H314.784ZM314.784 657.78V681H308.394V657.78H314.784ZM326.386 648.96V681H319.996V648.96H326.386ZM353.018 681H346.493C346.313 680.415 346.133 679.65 346.043 678.75C344.108 680.73 341.588 681.675 338.528 681.675C335.963 681.675 333.938 681.09 332.453 679.83C331.013 678.57 330.248 676.86 330.248 674.655C330.248 673.665 330.383 672.81 330.653 672.045C330.923 671.325 331.328 670.695 331.913 670.155C332.498 669.66 333.038 669.255 333.578 668.895C334.118 668.58 334.838 668.31 335.738 668.085C336.683 667.905 337.448 667.725 337.988 667.635C338.573 667.545 339.383 667.41 340.418 667.275C342.668 667.005 344.153 666.69 344.918 666.33C345.683 666.015 346.088 665.385 346.088 664.485C346.088 662.415 344.693 661.38 341.903 661.38C340.418 661.38 339.338 661.65 338.663 662.19C337.943 662.73 337.493 663.63 337.313 664.935H331.328C331.688 659.715 335.243 657.105 342.083 657.105C348.833 657.105 352.208 659.625 352.208 664.665V674.7C352.208 677.67 352.478 679.74 353.018 681ZM345.998 669.705C345.278 670.155 343.748 670.605 341.498 670.965C339.608 671.235 338.393 671.64 337.808 672.09C337.178 672.63 336.818 673.44 336.818 674.43C336.818 675.375 337.133 676.14 337.763 676.68C338.393 677.22 339.248 677.49 340.328 677.49C342.038 677.49 343.433 677.04 344.468 676.14C345.503 675.24 345.998 673.935 345.998 672.315V669.705ZM372.332 657.375V663.27C371.432 663.09 370.577 663 369.857 663C367.742 663 366.212 663.675 365.222 665.025C364.232 666.375 363.737 668.13 363.737 670.38V681H357.347V657.78H363.422V662.055C364.952 658.86 367.427 657.24 370.937 657.24C371.207 657.24 371.702 657.285 372.332 657.375ZM381.318 648.96V654.36H374.928V648.96H381.318ZM381.318 657.78V681H374.928V657.78H381.318ZM399.129 657.78V662.145H394.404V673.08C394.404 673.755 394.404 674.25 394.449 674.565C394.449 674.88 394.584 675.195 394.764 675.555C394.944 675.87 395.214 676.095 395.574 676.185C395.934 676.275 396.474 676.32 397.194 676.32C397.959 676.32 398.589 676.32 399.129 676.23V681.09C397.554 681.225 396.249 681.27 395.259 681.27C392.469 681.27 390.534 680.82 389.544 679.83C388.554 678.84 388.059 676.95 388.059 674.16V662.1H384.189V657.78H388.059V650.76H394.404V657.78H399.129ZM423.275 657.78L414.68 680.955C414.275 682.125 413.96 682.935 413.78 683.385C413.6 683.835 413.285 684.51 412.88 685.365C412.475 686.175 412.115 686.76 411.755 687.12C411.395 687.435 410.945 687.795 410.36 688.245C409.775 688.65 409.1 688.92 408.38 689.055C407.66 689.235 406.805 689.28 405.86 689.28C405.05 689.28 403.655 689.28 401.585 689.235V683.97H404.69C405.725 683.97 406.535 683.7 407.075 683.16C407.615 682.62 407.93 681.855 407.93 680.865C407.93 680.64 407.84 680.325 407.75 679.965L399.335 657.78H406.22L411.53 673.575L416.66 657.78H423.275Z" fill="white"/>
<path d="M753.01 648.96H766.825C770.425 648.96 773.26 649.86 775.375 651.57C777.49 653.28 778.57 655.845 778.57 659.265C778.57 662.64 777.49 665.205 775.42 666.915C773.305 668.625 770.56 669.48 767.185 669.48H759.985V681H753.01V648.96ZM759.985 654.72V663.945H766.24C769.885 663.945 771.73 662.415 771.73 659.355C771.73 656.295 769.885 654.72 766.285 654.72H759.985ZM797.379 657.375V663.27C796.479 663.09 795.624 663 794.904 663C792.789 663 791.259 663.675 790.269 665.025C789.279 666.375 788.784 668.13 788.784 670.38V681H782.394V657.78H788.469V662.055C789.999 658.86 792.474 657.24 795.984 657.24C796.254 657.24 796.749 657.285 797.379 657.375ZM810.434 657.105C813.989 657.105 816.869 658.23 819.029 660.48C821.189 662.73 822.314 665.7 822.314 669.39C822.314 673.125 821.189 676.095 819.029 678.345C816.869 680.595 813.944 681.72 810.344 681.72C806.699 681.72 803.774 680.595 801.614 678.345C799.409 676.095 798.329 673.125 798.329 669.39C798.329 665.7 799.409 662.73 801.659 660.48C803.864 658.23 806.789 657.105 810.434 657.105ZM810.254 661.965C808.544 661.965 807.194 662.64 806.204 663.99C805.214 665.295 804.719 667.095 804.719 669.435C804.719 671.775 805.214 673.62 806.204 674.97C807.194 676.275 808.544 676.95 810.344 676.95C812.099 676.95 813.449 676.275 814.439 674.925C815.429 673.575 815.924 671.73 815.924 669.345C815.924 667.05 815.384 665.25 814.394 663.945C813.404 662.64 812.009 661.965 810.254 661.965ZM847.348 657.78L839.698 668.625L848.293 681H841.003L836.098 673.485L831.238 681H823.993L832.453 668.76L824.758 657.78H832.048L836.188 663.99L840.283 657.78H847.348ZM857.253 648.96V654.36H850.863V648.96H857.253ZM857.253 657.78V681H850.863V657.78H857.253ZM898.06 681H891.58V667.14C891.58 665.61 891.31 664.44 890.86 663.63C890.365 662.82 889.375 662.37 887.89 662.37C884.92 662.37 883.435 664.26 883.435 667.95V681H877.045V666.87C877.045 665.43 876.775 664.35 876.325 663.54C875.83 662.73 874.885 662.325 873.535 662.325C870.43 662.325 868.9 664.35 868.9 668.4V681H862.51V657.78H868.585V660.975C870.385 658.455 872.86 657.15 875.965 657.15C879.16 657.15 881.365 658.455 882.535 660.975C884.38 658.455 886.9 657.15 890.14 657.15C892.66 657.15 894.64 657.915 895.99 659.4C897.34 660.885 898.06 662.865 898.06 665.385V681ZM909.636 648.96V654.36H903.246V648.96H909.636ZM909.636 657.78V681H903.246V657.78H909.636ZM927.448 657.78V662.145H922.723V673.08C922.723 673.755 922.723 674.25 922.768 674.565C922.768 674.88 922.903 675.195 923.083 675.555C923.263 675.87 923.533 676.095 923.893 676.185C924.253 676.275 924.793 676.32 925.513 676.32C926.278 676.32 926.908 676.32 927.448 676.23V681.09C925.873 681.225 924.568 681.27 923.578 681.27C920.788 681.27 918.853 680.82 917.863 679.83C916.873 678.84 916.378 676.95 916.378 674.16V662.1H912.508V657.78H916.378V650.76H922.723V657.78H927.448ZM951.593 657.78L942.998 680.955C942.593 682.125 942.278 682.935 942.098 683.385C941.918 683.835 941.603 684.51 941.198 685.365C940.793 686.175 940.433 686.76 940.073 687.12C939.713 687.435 939.263 687.795 938.678 688.245C938.093 688.65 937.418 688.92 936.698 689.055C935.978 689.235 935.123 689.28 934.178 689.28C933.368 689.28 931.973 689.28 929.903 689.235V683.97H933.008C934.043 683.97 934.853 683.7 935.393 683.16C935.933 682.62 936.248 681.855 936.248 680.865C936.248 680.64 936.158 680.325 936.068 679.965L927.653 657.78H934.538L939.848 673.575L944.978 657.78H951.593Z" fill="white"/>
</svg>
