<svg width="1176" height="784" viewBox="0 0 1176 784" fill="none" xmlns="http://www.w3.org/2000/svg">
<rect width="1176" height="784" fill="#29815B"/>
<circle cx="671.5" cy="182.5" r="25.5" fill="#F5F5F5"/>
<circle cx="457.5" cy="177.5" r="25.5" transform="rotate(90 457.5 177.5)" fill="#F5F5F5"/>
<circle cx="878.5" cy="182.5" r="25.5" fill="#F5F5F5"/>
<circle cx="457.5" cy="384.5" r="25.5" transform="rotate(90 457.5 384.5)" fill="#F5F5F5"/>
<circle cx="671.5" cy="251.5" r="25.5" fill="#F5F5F5"/>
<circle cx="388.5" cy="177.5" r="25.5" transform="rotate(90 388.5 177.5)" fill="#F5F5F5"/>
<circle cx="878.5" cy="251.5" r="25.5" fill="#F5F5F5"/>
<circle cx="388.5" cy="384.5" r="25.5" transform="rotate(90 388.5 384.5)" fill="#F5F5F5"/>
<circle cx="671.5" cy="384.5" r="25.5" fill="#F5F5F5"/>
<path d="M319.5 156.5L341.584 194.75H297.416L319.5 156.5Z" fill="black"/>
<circle cx="878.5" cy="384.5" r="25.5" fill="#F5F5F5"/>
<path d="M319.5 363.5L341.584 401.75H297.416L319.5 363.5Z" fill="black"/>
<circle cx="671.5" cy="453.5" r="25.5" fill="#F5F5F5"/>
<circle cx="250.5" cy="177.5" r="25.5" transform="rotate(90 250.5 177.5)" fill="#F5F5F5"/>
<circle cx="878.5" cy="453.5" r="25.5" fill="#F5F5F5"/>
<circle cx="250.5" cy="384.5" r="25.5" transform="rotate(90 250.5 384.5)" fill="#F5F5F5"/>
<circle cx="671.5" cy="522.5" r="25.5" fill="#F5F5F5"/>
<circle cx="181.5" cy="177.5" r="25.5" transform="rotate(90 181.5 177.5)" fill="#F5F5F5"/>
<circle cx="878.5" cy="522.5" r="25.5" fill="#F5F5F5"/>
<circle cx="181.5" cy="384.5" r="25.5" transform="rotate(90 181.5 384.5)" fill="#F5F5F5"/>
<circle cx="740.5" cy="182.5" r="25.5" fill="#F5F5F5"/>
<circle cx="457.5" cy="246.5" r="25.5" transform="rotate(90 457.5 246.5)" fill="#F5F5F5"/>
<circle cx="947.5" cy="182.5" r="25.5" fill="#F5F5F5"/>
<circle cx="457.5" cy="453.5" r="25.5" transform="rotate(90 457.5 453.5)" fill="#F5F5F5"/>
<circle cx="740.5" cy="251.5" r="25.5" fill="#F5F5F5"/>
<circle cx="388.5" cy="246.5" r="25.5" transform="rotate(90 388.5 246.5)" fill="#F5F5F5"/>
<circle cx="947.5" cy="251.5" r="25.5" fill="#F5F5F5"/>
<circle cx="388.5" cy="453.5" r="25.5" transform="rotate(90 388.5 453.5)" fill="#F5F5F5"/>
<circle cx="740.5" cy="384.5" r="25.5" fill="#F5F5F5"/>
<path d="M319.5 225.5L341.584 263.75H297.416L319.5 225.5Z" fill="black"/>
<circle cx="947.5" cy="384.5" r="25.5" fill="#F5F5F5"/>
<path d="M319.5 432.5L341.584 470.75H297.416L319.5 432.5Z" fill="black"/>
<circle cx="740.5" cy="453.5" r="25.5" fill="#F5F5F5"/>
<circle cx="250.5" cy="246.5" r="25.5" transform="rotate(90 250.5 246.5)" fill="#F5F5F5"/>
<circle cx="947.5" cy="453.5" r="25.5" fill="#F5F5F5"/>
<circle cx="250.5" cy="453.5" r="25.5" transform="rotate(90 250.5 453.5)" fill="#F5F5F5"/>
<circle cx="740.5" cy="522.5" r="25.5" fill="#F5F5F5"/>
<circle cx="181.5" cy="246.5" r="25.5" transform="rotate(90 181.5 246.5)" fill="#F5F5F5"/>
<circle cx="947.5" cy="522.5" r="25.5" fill="#F5F5F5"/>
<circle cx="181.5" cy="453.5" r="25.5" transform="rotate(90 181.5 453.5)" fill="#F5F5F5"/>
<circle cx="809.5" cy="182.5" r="25.5" fill="#F5F5F5"/>
<circle cx="457.5" cy="315.5" r="25.5" transform="rotate(90 457.5 315.5)" fill="#F5F5F5"/>
<circle cx="1016.5" cy="182.5" r="25.5" fill="#F5F5F5"/>
<circle cx="457.5" cy="522.5" r="25.5" transform="rotate(90 457.5 522.5)" fill="#F5F5F5"/>
<circle cx="809.5" cy="251.5" r="25.5" fill="#F5F5F5"/>
<circle cx="388.5" cy="315.5" r="25.5" transform="rotate(90 388.5 315.5)" fill="#F5F5F5"/>
<circle cx="1016.5" cy="251.5" r="25.5" fill="#F5F5F5"/>
<circle cx="388.5" cy="522.5" r="25.5" transform="rotate(90 388.5 522.5)" fill="#F5F5F5"/>
<circle cx="809.5" cy="384.5" r="25.5" fill="#F5F5F5"/>
<path d="M319.5 294.5L341.584 332.75H297.416L319.5 294.5Z" fill="black"/>
<circle cx="1016.5" cy="384.5" r="25.5" fill="#F5F5F5"/>
<path d="M319.5 501.5L341.584 539.75H297.416L319.5 501.5Z" fill="black"/>
<circle cx="809.5" cy="453.5" r="25.5" fill="#F5F5F5"/>
<circle cx="250.5" cy="315.5" r="25.5" transform="rotate(90 250.5 315.5)" fill="#F5F5F5"/>
<circle cx="1016.5" cy="453.5" r="25.5" fill="#F5F5F5"/>
<circle cx="250.5" cy="522.5" r="25.5" transform="rotate(90 250.5 522.5)" fill="#F5F5F5"/>
<circle cx="809.5" cy="522.5" r="25.5" fill="#F5F5F5"/>
<circle cx="181.5" cy="315.5" r="25.5" transform="rotate(90 181.5 315.5)" fill="#F5F5F5"/>
<circle cx="1016.5" cy="522.5" r="25.5" fill="#F5F5F5"/>
<circle cx="181.5" cy="522.5" r="25.5" transform="rotate(90 181.5 522.5)" fill="#F5F5F5"/>
<path d="M232.366 689.45C229.486 689.45 227.071 689.03 225.121 688.19C223.201 687.35 221.746 686.255 220.756 684.905C219.766 683.555 219.241 682.115 219.181 680.585C219.181 680.345 219.271 680.135 219.451 679.955C219.631 679.745 219.856 679.64 220.126 679.64H224.941C225.331 679.64 225.631 679.73 225.841 679.91C226.051 680.06 226.246 680.255 226.426 680.495C226.636 681.005 226.966 681.5 227.416 681.98C227.896 682.46 228.541 682.865 229.351 683.195C230.161 683.495 231.166 683.645 232.366 683.645C234.316 683.645 235.771 683.33 236.731 682.7C237.721 682.07 238.216 681.215 238.216 680.135C238.216 679.355 237.946 678.725 237.406 678.245C236.896 677.765 236.071 677.33 234.931 676.94C233.821 676.55 232.336 676.13 230.476 675.68C228.226 675.2 226.306 674.585 224.716 673.835C223.156 673.055 221.971 672.065 221.161 670.865C220.381 669.635 219.991 668.12 219.991 666.32C219.991 664.52 220.486 662.93 221.476 661.55C222.466 660.14 223.861 659.045 225.661 658.265C227.461 657.455 229.606 657.05 232.096 657.05C234.106 657.05 235.876 657.32 237.406 657.86C238.966 658.4 240.256 659.105 241.276 659.975C242.326 660.845 243.121 661.775 243.661 662.765C244.201 663.755 244.486 664.715 244.516 665.645C244.516 665.885 244.426 666.11 244.246 666.32C244.066 666.5 243.841 666.59 243.571 666.59H238.531C238.231 666.59 237.961 666.53 237.721 666.41C237.481 666.29 237.286 666.08 237.136 665.78C236.956 665 236.416 664.325 235.516 663.755C234.646 663.155 233.506 662.855 232.096 662.855C230.626 662.855 229.456 663.125 228.586 663.665C227.746 664.205 227.326 665.03 227.326 666.14C227.326 666.86 227.536 667.475 227.956 667.985C228.406 668.465 229.141 668.9 230.161 669.29C231.211 669.65 232.591 670.055 234.301 670.505C236.941 671.045 239.086 671.69 240.736 672.44C242.386 673.19 243.601 674.165 244.381 675.365C245.161 676.535 245.551 678.02 245.551 679.82C245.551 681.83 244.981 683.555 243.841 684.995C242.731 686.435 241.186 687.545 239.206 688.325C237.256 689.075 234.976 689.45 232.366 689.45ZM250.967 689C250.667 689 250.412 688.895 250.202 688.685C249.992 688.475 249.887 688.205 249.887 687.875V666.725C249.887 666.395 249.992 666.125 250.202 665.915C250.412 665.705 250.667 665.6 250.967 665.6H255.467C255.797 665.6 256.067 665.705 256.277 665.915C256.487 666.125 256.592 666.395 256.592 666.725V687.875C256.592 688.205 256.487 688.475 256.277 688.685C256.067 688.895 255.797 689 255.467 689H250.967ZM250.832 662C250.532 662 250.277 661.895 250.067 661.685C249.857 661.475 249.752 661.205 249.752 660.875V657.275C249.752 656.945 249.857 656.675 250.067 656.465C250.277 656.225 250.532 656.105 250.832 656.105H255.557C255.887 656.105 256.157 656.225 256.367 656.465C256.607 656.675 256.727 656.945 256.727 657.275V660.875C256.727 661.205 256.607 661.475 256.367 661.685C256.157 661.895 255.887 662 255.557 662H250.832ZM263.315 689C263.015 689 262.76 688.895 262.55 688.685C262.34 688.475 262.235 688.205 262.235 687.875V666.725C262.235 666.395 262.34 666.125 262.55 665.915C262.76 665.705 263.015 665.6 263.315 665.6H267.5C267.8 665.6 268.055 665.705 268.265 665.915C268.505 666.125 268.625 666.395 268.625 666.725V668.255C269.225 667.415 270.05 666.695 271.1 666.095C272.18 665.495 273.455 665.18 274.925 665.15C278.405 665.09 280.79 666.41 282.08 669.11C282.77 667.94 283.76 666.995 285.05 666.275C286.37 665.525 287.81 665.15 289.37 665.15C290.93 665.15 292.34 665.51 293.6 666.23C294.86 666.92 295.85 668 296.57 669.47C297.32 670.91 297.695 672.77 297.695 675.05V687.875C297.695 688.205 297.59 688.475 297.38 688.685C297.17 688.895 296.915 689 296.615 689H292.16C291.86 689 291.605 688.895 291.395 688.685C291.185 688.475 291.08 688.205 291.08 687.875V675.41C291.08 674.18 290.9 673.22 290.54 672.53C290.18 671.81 289.7 671.3 289.1 671C288.53 670.7 287.885 670.55 287.165 670.55C286.535 670.55 285.92 670.7 285.32 671C284.75 671.3 284.27 671.81 283.88 672.53C283.52 673.22 283.34 674.18 283.34 675.41V687.875C283.34 688.205 283.235 688.475 283.025 688.685C282.815 688.895 282.545 689 282.215 689H277.805C277.475 689 277.205 688.895 276.995 688.685C276.785 688.475 276.68 688.205 276.68 687.875V675.41C276.68 674.18 276.5 673.22 276.14 672.53C275.78 671.81 275.3 671.3 274.7 671C274.13 670.7 273.5 670.55 272.81 670.55C272.18 670.55 271.565 670.715 270.965 671.045C270.365 671.345 269.87 671.84 269.48 672.53C269.12 673.22 268.94 674.165 268.94 675.365V687.875C268.94 688.205 268.835 688.475 268.625 688.685C268.415 688.895 268.16 689 267.86 689H263.315ZM304.228 689C303.928 689 303.673 688.895 303.463 688.685C303.253 688.475 303.148 688.205 303.148 687.875V666.725C303.148 666.395 303.253 666.125 303.463 665.915C303.673 665.705 303.928 665.6 304.228 665.6H308.728C309.058 665.6 309.328 665.705 309.538 665.915C309.748 666.125 309.853 666.395 309.853 666.725V687.875C309.853 688.205 309.748 688.475 309.538 688.685C309.328 688.895 309.058 689 308.728 689H304.228ZM304.093 662C303.793 662 303.538 661.895 303.328 661.685C303.118 661.475 303.013 661.205 303.013 660.875V657.275C303.013 656.945 303.118 656.675 303.328 656.465C303.538 656.225 303.793 656.105 304.093 656.105H308.818C309.148 656.105 309.418 656.225 309.628 656.465C309.868 656.675 309.988 656.945 309.988 657.275V660.875C309.988 661.205 309.868 661.475 309.628 661.685C309.418 661.895 309.148 662 308.818 662H304.093ZM316.622 689C316.292 689 316.022 688.895 315.812 688.685C315.602 688.475 315.497 688.205 315.497 687.875V658.175C315.497 657.845 315.602 657.575 315.812 657.365C316.022 657.155 316.292 657.05 316.622 657.05H321.122C321.422 657.05 321.677 657.155 321.887 657.365C322.097 657.575 322.202 657.845 322.202 658.175V687.875C322.202 688.205 322.097 688.475 321.887 688.685C321.677 688.895 321.422 689 321.122 689H316.622ZM334.774 689.45C333.184 689.45 331.759 689.15 330.499 688.55C329.239 687.92 328.234 687.08 327.484 686.03C326.734 684.98 326.359 683.81 326.359 682.52C326.359 680.39 327.214 678.71 328.924 677.48C330.664 676.25 332.944 675.41 335.764 674.96L341.659 674.105V673.295C341.659 672.125 341.389 671.225 340.849 670.595C340.309 669.965 339.364 669.65 338.014 669.65C337.024 669.65 336.229 669.845 335.629 670.235C335.029 670.625 334.564 671.135 334.234 671.765C333.994 672.155 333.649 672.35 333.199 672.35H328.924C328.594 672.35 328.339 672.26 328.159 672.08C327.979 671.87 327.904 671.63 327.934 671.36C327.934 670.85 328.129 670.25 328.519 669.56C328.909 668.87 329.509 668.195 330.319 667.535C331.129 666.845 332.164 666.275 333.424 665.825C334.684 665.375 336.229 665.15 338.059 665.15C339.949 665.15 341.569 665.375 342.919 665.825C344.269 666.275 345.349 666.905 346.159 667.715C346.969 668.525 347.569 669.47 347.959 670.55C348.349 671.6 348.544 672.74 348.544 673.97V687.875C348.544 688.205 348.439 688.475 348.229 688.685C348.019 688.895 347.749 689 347.419 689H343.009C342.709 689 342.454 688.895 342.244 688.685C342.034 688.475 341.929 688.205 341.929 687.875V686.21C341.539 686.78 341.014 687.32 340.354 687.83C339.694 688.31 338.899 688.7 337.969 689C337.069 689.3 336.004 689.45 334.774 689.45ZM336.574 684.77C337.564 684.77 338.449 684.56 339.229 684.14C340.009 683.72 340.624 683.075 341.074 682.205C341.524 681.335 341.749 680.24 341.749 678.92V678.155L337.564 678.83C335.944 679.1 334.759 679.505 334.009 680.045C333.259 680.585 332.884 681.245 332.884 682.025C332.884 682.595 333.049 683.09 333.379 683.51C333.739 683.93 334.204 684.245 334.774 684.455C335.344 684.665 335.944 684.77 336.574 684.77ZM355.073 689C354.773 689 354.518 688.895 354.308 688.685C354.098 688.475 353.993 688.205 353.993 687.875V666.725C353.993 666.425 354.098 666.17 354.308 665.96C354.518 665.72 354.773 665.6 355.073 665.6H359.483C359.783 665.6 360.038 665.72 360.248 665.96C360.488 666.17 360.608 666.425 360.608 666.725V668.525C361.358 667.595 362.273 666.875 363.353 666.365C364.463 665.855 365.738 665.6 367.178 665.6H369.113C369.413 665.6 369.668 665.705 369.878 665.915C370.088 666.125 370.193 666.395 370.193 666.725V670.595C370.193 670.925 370.088 671.195 369.878 671.405C369.668 671.615 369.413 671.72 369.113 671.72H365.153C363.833 671.72 362.798 672.095 362.048 672.845C361.298 673.565 360.923 674.6 360.923 675.95V687.875C360.923 688.205 360.818 688.475 360.608 688.685C360.398 688.895 360.128 689 359.798 689H355.073ZM374.629 689C374.329 689 374.074 688.895 373.864 688.685C373.654 688.475 373.549 688.205 373.549 687.875V666.725C373.549 666.395 373.654 666.125 373.864 665.915C374.074 665.705 374.329 665.6 374.629 665.6H379.129C379.459 665.6 379.729 665.705 379.939 665.915C380.149 666.125 380.254 666.395 380.254 666.725V687.875C380.254 688.205 380.149 688.475 379.939 688.685C379.729 688.895 379.459 689 379.129 689H374.629ZM374.494 662C374.194 662 373.939 661.895 373.729 661.685C373.519 661.475 373.414 661.205 373.414 660.875V657.275C373.414 656.945 373.519 656.675 373.729 656.465C373.939 656.225 374.194 656.105 374.494 656.105H379.219C379.549 656.105 379.819 656.225 380.029 656.465C380.269 656.675 380.389 656.945 380.389 657.275V660.875C380.389 661.205 380.269 661.475 380.029 661.685C379.819 661.895 379.549 662 379.219 662H374.494ZM397.147 689C395.287 689 393.697 688.7 392.377 688.1C391.057 687.47 390.052 686.51 389.362 685.22C388.702 683.93 388.372 682.31 388.372 680.36V670.91H384.862C384.532 670.91 384.262 670.805 384.052 670.595C383.842 670.385 383.737 670.115 383.737 669.785V666.725C383.737 666.395 383.842 666.125 384.052 665.915C384.262 665.705 384.532 665.6 384.862 665.6H388.372V658.175C388.372 657.845 388.477 657.575 388.687 657.365C388.927 657.155 389.197 657.05 389.497 657.05H393.907C394.237 657.05 394.507 657.155 394.717 657.365C394.927 657.575 395.032 657.845 395.032 658.175V665.6H400.657C400.957 665.6 401.212 665.705 401.422 665.915C401.632 666.125 401.737 666.395 401.737 666.725V669.785C401.737 670.115 401.632 670.385 401.422 670.595C401.212 670.805 400.957 670.91 400.657 670.91H395.032V679.82C395.032 680.96 395.227 681.86 395.617 682.52C396.037 683.15 396.757 683.465 397.777 683.465H401.062C401.362 683.465 401.617 683.57 401.827 683.78C402.037 683.99 402.142 684.245 402.142 684.545V687.875C402.142 688.205 402.037 688.475 401.827 688.685C401.617 688.895 401.362 689 401.062 689H397.147ZM410.343 697.55C410.103 697.55 409.878 697.46 409.668 697.28C409.488 697.1 409.398 696.875 409.398 696.605C409.398 696.545 409.413 696.455 409.443 696.335C409.473 696.245 409.518 696.125 409.578 695.975L413.088 687.56L404.448 667.175C404.358 666.935 404.313 666.74 404.313 666.59C404.343 666.32 404.448 666.095 404.628 665.915C404.808 665.705 405.033 665.6 405.303 665.6H409.668C410.058 665.6 410.343 665.705 410.523 665.915C410.703 666.095 410.838 666.29 410.928 666.5L416.508 680.45L422.223 666.5C422.343 666.26 422.493 666.05 422.673 665.87C422.853 665.69 423.138 665.6 423.528 665.6H427.803C428.073 665.6 428.298 665.705 428.478 665.915C428.688 666.095 428.793 666.305 428.793 666.545C428.793 666.695 428.733 666.905 428.613 667.175L415.878 696.65C415.788 696.89 415.638 697.1 415.428 697.28C415.248 697.46 414.963 697.55 414.573 697.55H410.343Z" fill="white"/>
<path d="M748.316 689C747.986 689 747.716 688.895 747.506 688.685C747.296 688.475 747.191 688.205 747.191 687.875V658.625C747.191 658.295 747.296 658.025 747.506 657.815C747.716 657.605 747.986 657.5 748.316 657.5H760.601C763.031 657.5 765.131 657.875 766.901 658.625C768.701 659.375 770.096 660.515 771.086 662.045C772.106 663.545 772.616 665.42 772.616 667.67C772.616 669.95 772.106 671.84 771.086 673.34C770.096 674.81 768.701 675.905 766.901 676.625C765.131 677.345 763.031 677.705 760.601 677.705H754.571V687.875C754.571 688.205 754.466 688.475 754.256 688.685C754.046 688.895 753.776 689 753.446 689H748.316ZM754.436 672.125H760.376C761.906 672.125 763.091 671.75 763.931 671C764.801 670.25 765.236 669.125 765.236 667.625C765.236 666.305 764.846 665.225 764.066 664.385C763.316 663.545 762.086 663.125 760.376 663.125H754.436V672.125ZM777.791 689C777.491 689 777.236 688.895 777.026 688.685C776.816 688.475 776.711 688.205 776.711 687.875V666.725C776.711 666.425 776.816 666.17 777.026 665.96C777.236 665.72 777.491 665.6 777.791 665.6H782.201C782.501 665.6 782.756 665.72 782.966 665.96C783.206 666.17 783.326 666.425 783.326 666.725V668.525C784.076 667.595 784.991 666.875 786.071 666.365C787.181 665.855 788.456 665.6 789.896 665.6H791.831C792.131 665.6 792.386 665.705 792.596 665.915C792.806 666.125 792.911 666.395 792.911 666.725V670.595C792.911 670.925 792.806 671.195 792.596 671.405C792.386 671.615 792.131 671.72 791.831 671.72H787.871C786.551 671.72 785.516 672.095 784.766 672.845C784.016 673.565 783.641 674.6 783.641 675.95V687.875C783.641 688.205 783.536 688.475 783.326 688.685C783.116 688.895 782.846 689 782.516 689H777.791ZM806.713 689.45C804.223 689.45 802.138 689.045 800.458 688.235C798.778 687.395 797.488 686.21 796.588 684.68C795.718 683.15 795.238 681.365 795.148 679.325C795.118 678.725 795.103 678.05 795.103 677.3C795.103 676.52 795.118 675.845 795.148 675.275C795.238 673.205 795.748 671.42 796.678 669.92C797.608 668.39 798.913 667.22 800.593 666.41C802.273 665.57 804.313 665.15 806.713 665.15C809.083 665.15 811.108 665.57 812.788 666.41C814.468 667.22 815.773 668.39 816.703 669.92C817.633 671.42 818.143 673.205 818.233 675.275C818.293 675.845 818.323 676.52 818.323 677.3C818.323 678.05 818.293 678.725 818.233 679.325C818.143 681.365 817.648 683.15 816.748 684.68C815.878 686.21 814.603 687.395 812.923 688.235C811.243 689.045 809.173 689.45 806.713 689.45ZM806.713 684.5C808.183 684.5 809.293 684.05 810.043 683.15C810.793 682.22 811.198 680.87 811.258 679.1C811.288 678.65 811.303 678.05 811.303 677.3C811.303 676.55 811.288 675.95 811.258 675.5C811.198 673.76 810.793 672.425 810.043 671.495C809.293 670.565 808.183 670.1 806.713 670.1C805.243 670.1 804.118 670.565 803.338 671.495C802.588 672.425 802.183 673.76 802.123 675.5C802.093 675.95 802.078 676.55 802.078 677.3C802.078 678.05 802.093 678.65 802.123 679.1C802.183 680.87 802.588 682.22 803.338 683.15C804.118 684.05 805.243 684.5 806.713 684.5ZM821.248 689C820.978 689 820.738 688.91 820.528 688.73C820.348 688.52 820.258 688.28 820.258 688.01C820.258 687.92 820.273 687.815 820.303 687.695C820.363 687.545 820.438 687.41 820.528 687.29L828.133 676.985L821.158 667.31C821.068 667.19 820.993 667.07 820.933 666.95C820.903 666.83 820.888 666.71 820.888 666.59C820.888 666.32 820.978 666.095 821.158 665.915C821.368 665.705 821.608 665.6 821.878 665.6H826.558C826.918 665.6 827.188 665.69 827.368 665.87C827.578 666.05 827.728 666.215 827.818 666.365L832.453 672.665L837.088 666.41C837.208 666.26 837.358 666.095 837.538 665.915C837.718 665.705 838.003 665.6 838.393 665.6H842.848C843.118 665.6 843.343 665.705 843.523 665.915C843.733 666.095 843.838 666.32 843.838 666.59C843.838 666.71 843.823 666.83 843.793 666.95C843.763 667.07 843.688 667.19 843.568 667.31L836.458 677.03L844.153 687.29C844.243 687.41 844.303 687.53 844.333 687.65C844.393 687.77 844.423 687.89 844.423 688.01C844.423 688.28 844.318 688.52 844.108 688.73C843.928 688.91 843.703 689 843.433 689H838.528C838.198 689 837.943 688.925 837.763 688.775C837.583 688.595 837.433 688.43 837.313 688.28L832.318 681.62L827.233 688.28C827.143 688.4 827.008 688.55 826.828 688.73C826.648 688.91 826.378 689 826.018 689H821.248ZM849.202 689C848.902 689 848.647 688.895 848.437 688.685C848.227 688.475 848.122 688.205 848.122 687.875V666.725C848.122 666.395 848.227 666.125 848.437 665.915C848.647 665.705 848.902 665.6 849.202 665.6H853.702C854.032 665.6 854.302 665.705 854.512 665.915C854.722 666.125 854.827 666.395 854.827 666.725V687.875C854.827 688.205 854.722 688.475 854.512 688.685C854.302 688.895 854.032 689 853.702 689H849.202ZM849.067 662C848.767 662 848.512 661.895 848.302 661.685C848.092 661.475 847.987 661.205 847.987 660.875V657.275C847.987 656.945 848.092 656.675 848.302 656.465C848.512 656.225 848.767 656.105 849.067 656.105H853.792C854.122 656.105 854.392 656.225 854.602 656.465C854.842 656.675 854.962 656.945 854.962 657.275V660.875C854.962 661.205 854.842 661.475 854.602 661.685C854.392 661.895 854.122 662 853.792 662H849.067ZM861.551 689C861.251 689 860.996 688.895 860.786 688.685C860.576 688.475 860.471 688.205 860.471 687.875V666.725C860.471 666.395 860.576 666.125 860.786 665.915C860.996 665.705 861.251 665.6 861.551 665.6H865.736C866.036 665.6 866.291 665.705 866.501 665.915C866.741 666.125 866.861 666.395 866.861 666.725V668.255C867.461 667.415 868.286 666.695 869.336 666.095C870.416 665.495 871.691 665.18 873.161 665.15C876.641 665.09 879.026 666.41 880.316 669.11C881.006 667.94 881.996 666.995 883.286 666.275C884.606 665.525 886.046 665.15 887.606 665.15C889.166 665.15 890.576 665.51 891.836 666.23C893.096 666.92 894.086 668 894.806 669.47C895.556 670.91 895.931 672.77 895.931 675.05V687.875C895.931 688.205 895.826 688.475 895.616 688.685C895.406 688.895 895.151 689 894.851 689H890.396C890.096 689 889.841 688.895 889.631 688.685C889.421 688.475 889.316 688.205 889.316 687.875V675.41C889.316 674.18 889.136 673.22 888.776 672.53C888.416 671.81 887.936 671.3 887.336 671C886.766 670.7 886.121 670.55 885.401 670.55C884.771 670.55 884.156 670.7 883.556 671C882.986 671.3 882.506 671.81 882.116 672.53C881.756 673.22 881.576 674.18 881.576 675.41V687.875C881.576 688.205 881.471 688.475 881.261 688.685C881.051 688.895 880.781 689 880.451 689H876.041C875.711 689 875.441 688.895 875.231 688.685C875.021 688.475 874.916 688.205 874.916 687.875V675.41C874.916 674.18 874.736 673.22 874.376 672.53C874.016 671.81 873.536 671.3 872.936 671C872.366 670.7 871.736 670.55 871.046 670.55C870.416 670.55 869.801 670.715 869.201 671.045C868.601 671.345 868.106 671.84 867.716 672.53C867.356 673.22 867.176 674.165 867.176 675.365V687.875C867.176 688.205 867.071 688.475 866.861 688.685C866.651 688.895 866.396 689 866.096 689H861.551ZM902.464 689C902.164 689 901.909 688.895 901.699 688.685C901.489 688.475 901.384 688.205 901.384 687.875V666.725C901.384 666.395 901.489 666.125 901.699 665.915C901.909 665.705 902.164 665.6 902.464 665.6H906.964C907.294 665.6 907.564 665.705 907.774 665.915C907.984 666.125 908.089 666.395 908.089 666.725V687.875C908.089 688.205 907.984 688.475 907.774 688.685C907.564 688.895 907.294 689 906.964 689H902.464ZM902.329 662C902.029 662 901.774 661.895 901.564 661.685C901.354 661.475 901.249 661.205 901.249 660.875V657.275C901.249 656.945 901.354 656.675 901.564 656.465C901.774 656.225 902.029 656.105 902.329 656.105H907.054C907.384 656.105 907.654 656.225 907.864 656.465C908.104 656.675 908.224 656.945 908.224 657.275V660.875C908.224 661.205 908.104 661.475 907.864 661.685C907.654 661.895 907.384 662 907.054 662H902.329ZM924.982 689C923.122 689 921.532 688.7 920.212 688.1C918.892 687.47 917.887 686.51 917.197 685.22C916.537 683.93 916.207 682.31 916.207 680.36V670.91H912.697C912.367 670.91 912.097 670.805 911.887 670.595C911.677 670.385 911.572 670.115 911.572 669.785V666.725C911.572 666.395 911.677 666.125 911.887 665.915C912.097 665.705 912.367 665.6 912.697 665.6H916.207V658.175C916.207 657.845 916.312 657.575 916.522 657.365C916.762 657.155 917.032 657.05 917.332 657.05H921.742C922.072 657.05 922.342 657.155 922.552 657.365C922.762 657.575 922.867 657.845 922.867 658.175V665.6H928.492C928.792 665.6 929.047 665.705 929.257 665.915C929.467 666.125 929.572 666.395 929.572 666.725V669.785C929.572 670.115 929.467 670.385 929.257 670.595C929.047 670.805 928.792 670.91 928.492 670.91H922.867V679.82C922.867 680.96 923.062 681.86 923.452 682.52C923.872 683.15 924.592 683.465 925.612 683.465H928.897C929.197 683.465 929.452 683.57 929.662 683.78C929.872 683.99 929.977 684.245 929.977 684.545V687.875C929.977 688.205 929.872 688.475 929.662 688.685C929.452 688.895 929.197 689 928.897 689H924.982ZM938.178 697.55C937.938 697.55 937.713 697.46 937.503 697.28C937.323 697.1 937.233 696.875 937.233 696.605C937.233 696.545 937.248 696.455 937.278 696.335C937.308 696.245 937.353 696.125 937.413 695.975L940.923 687.56L932.283 667.175C932.193 666.935 932.148 666.74 932.148 666.59C932.178 666.32 932.283 666.095 932.463 665.915C932.643 665.705 932.868 665.6 933.138 665.6H937.503C937.893 665.6 938.178 665.705 938.358 665.915C938.538 666.095 938.673 666.29 938.763 666.5L944.343 680.45L950.058 666.5C950.178 666.26 950.328 666.05 950.508 665.87C950.688 665.69 950.973 665.6 951.363 665.6H955.638C955.908 665.6 956.133 665.705 956.313 665.915C956.523 666.095 956.628 666.305 956.628 666.545C956.628 666.695 956.568 666.905 956.448 667.175L943.713 696.65C943.623 696.89 943.473 697.1 943.263 697.28C943.083 697.46 942.798 697.55 942.408 697.55H938.178Z" fill="white"/>
</svg>
