<svg width="1176" height="784" viewBox="0 0 1176 784" fill="none" xmlns="http://www.w3.org/2000/svg">
<rect width="1176" height="784" fill="#838391"/>
<rect x="131.107" y="345.5" width="313.393" height="93.6916" fill="#FF0000" stroke="black" stroke-width="5"/>
<path d="M164.505 406.172H147.004L147.247 405.528C148.176 405.505 148.797 405.429 149.111 405.302C149.598 405.093 149.958 404.82 150.19 404.483C150.55 403.949 150.933 402.986 151.34 401.593L155.502 387.226C155.85 386.042 156.024 385.171 156.024 384.614C156.024 384.173 155.861 383.83 155.536 383.587C155.223 383.343 154.625 383.221 153.743 383.221C153.545 383.221 153.389 383.215 153.273 383.204L153.482 382.559H163.111L162.972 383.204C161.892 383.204 161.126 383.308 160.673 383.517C160.221 383.726 159.843 384.068 159.542 384.544C159.333 384.858 158.99 385.833 158.514 387.47L154.422 401.593C154.108 402.661 153.952 403.404 153.952 403.821C153.952 404.1 154.108 404.367 154.422 404.623C154.619 404.797 155.066 404.884 155.763 404.884H158.044C159.704 404.884 161.022 404.675 161.997 404.257C162.717 403.943 163.378 403.473 163.982 402.846C164.307 402.498 164.882 401.633 165.706 400.252L166.159 399.468H166.803L164.505 406.172ZM183.079 382.019C184.646 382.019 186.033 382.362 187.241 383.047C188.448 383.72 189.394 384.724 190.079 386.059C190.764 387.383 191.107 388.759 191.107 390.186C191.107 392.717 190.369 395.376 188.895 398.162C187.432 400.937 185.517 403.055 183.148 404.518C180.78 405.981 178.331 406.712 175.8 406.712C173.977 406.712 172.451 406.312 171.22 405.511C170.001 404.698 169.095 403.63 168.503 402.306C167.923 400.983 167.633 399.7 167.633 398.458C167.633 396.252 168.161 394.076 169.217 391.928C170.285 389.769 171.557 387.969 173.031 386.53C174.505 385.078 176.078 383.964 177.75 383.186C179.422 382.408 181.198 382.019 183.079 382.019ZM182.487 383.134C181.326 383.134 180.188 383.424 179.074 384.005C177.971 384.573 176.874 385.514 175.782 386.826C174.691 388.126 173.71 389.832 172.839 391.945C171.771 394.546 171.237 397.001 171.237 399.311C171.237 400.96 171.661 402.423 172.509 403.7C173.356 404.965 174.656 405.598 176.409 405.598C177.466 405.598 178.499 405.336 179.509 404.814C180.531 404.292 181.593 403.398 182.696 402.132C184.077 400.542 185.238 398.516 186.178 396.055C187.119 393.582 187.589 391.278 187.589 389.142C187.589 387.563 187.165 386.17 186.318 384.962C185.47 383.743 184.193 383.134 182.487 383.134ZM214.452 382.019L212.693 389.455H212.032C212.136 388.584 212.188 387.94 212.188 387.522C212.188 386.384 211.683 385.38 210.673 384.51C209.675 383.627 208.294 383.186 206.529 383.186C202.919 383.186 199.97 384.881 197.683 388.271C195.86 390.953 194.949 393.954 194.949 397.274C194.949 399.48 195.512 401.384 196.638 402.986C197.764 404.588 199.5 405.389 201.845 405.389C202.425 405.389 202.971 405.336 203.482 405.232C204.004 405.128 204.788 404.895 205.832 404.535L207.556 398.458C207.8 397.622 207.922 396.955 207.922 396.455C207.922 396.038 207.771 395.718 207.469 395.498C206.982 395.161 206.192 394.993 205.101 394.993H204.613L204.805 394.314H214.626L214.452 394.993C213.558 395.004 212.908 395.109 212.502 395.306C212.096 395.503 211.747 395.84 211.457 396.316C211.26 396.63 210.94 397.541 210.499 399.05L208.758 405.023C207.167 405.708 205.885 406.161 204.909 406.381C203.934 406.614 202.907 406.73 201.827 406.73C199.343 406.73 197.329 406.265 195.785 405.336C194.241 404.396 193.097 403.16 192.354 401.627C191.623 400.083 191.257 398.551 191.257 397.03C191.257 394.987 191.687 393.048 192.546 391.214C193.405 389.368 194.473 387.812 195.75 386.547C197.038 385.27 198.437 384.266 199.947 383.534C202.025 382.524 204.207 382.019 206.494 382.019C208.177 382.019 209.698 382.298 211.057 382.855C211.602 383.076 212.003 383.186 212.258 383.186C212.548 383.186 212.792 383.122 212.99 382.995C213.198 382.855 213.465 382.53 213.791 382.019H214.452ZM220.854 405.528L220.663 406.172H210.946L211.19 405.528C212.165 405.505 212.809 405.424 213.123 405.284C213.633 405.087 214.011 404.814 214.254 404.466C214.638 403.92 215.032 402.945 215.439 401.54L219.548 387.296C219.897 386.112 220.071 385.218 220.071 384.614C220.071 384.312 219.995 384.057 219.844 383.848C219.693 383.639 219.461 383.482 219.148 383.378C218.846 383.262 218.248 383.204 217.354 383.204L217.563 382.559H226.688L226.496 383.204C225.753 383.192 225.202 383.273 224.842 383.447C224.32 383.679 223.919 384.01 223.641 384.44C223.374 384.869 223.025 385.821 222.596 387.296L218.503 401.54C218.132 402.852 217.946 403.688 217.946 404.048C217.946 404.338 218.016 404.588 218.155 404.797C218.306 404.994 218.538 405.151 218.852 405.267C219.177 405.371 219.844 405.458 220.854 405.528ZM231.662 382.559L238.958 401.07L242.911 387.244C243.236 386.106 243.399 385.224 243.399 384.597C243.399 384.167 243.248 383.83 242.946 383.587C242.644 383.343 242.081 383.221 241.257 383.221C241.118 383.221 240.973 383.215 240.822 383.204L241.013 382.559H248.606L248.397 383.204C247.607 383.192 247.021 383.273 246.638 383.447C246.092 383.691 245.686 384.005 245.419 384.388C245.047 384.933 244.67 385.885 244.287 387.244L238.732 406.712H238.105L230.252 386.791L226.055 401.505C225.741 402.62 225.585 403.473 225.585 404.065C225.585 404.506 225.724 404.843 226.003 405.075C226.293 405.296 226.972 405.447 228.04 405.528L227.866 406.172H220.448L220.691 405.528C221.62 405.505 222.241 405.424 222.555 405.284C223.031 405.075 223.385 404.802 223.617 404.466C223.954 403.955 224.331 402.968 224.749 401.505L229.433 385.084C228.98 384.388 228.493 383.912 227.97 383.656C227.459 383.389 226.658 383.238 225.567 383.204L225.759 382.559H231.662ZM253.974 406.712L256.011 387.035C256.093 386.28 256.133 385.699 256.133 385.293C256.133 384.62 255.942 384.109 255.559 383.761C255.176 383.412 254.485 383.227 253.486 383.204L253.678 382.559H262.524L262.333 383.204C261.149 383.192 260.336 383.407 259.895 383.848C259.465 384.277 259.169 385.34 259.007 387.035L257.701 399.781L266.669 385.937C266.68 385.705 266.686 385.508 266.686 385.345C266.686 384.695 266.495 384.196 266.111 383.848C265.728 383.5 264.904 383.285 263.639 383.204L263.778 382.559H273.338L273.147 383.204C272.044 383.215 271.301 383.308 270.918 383.482C270.639 383.61 270.401 383.819 270.204 384.109C270.018 384.388 269.867 384.869 269.751 385.554C269.716 385.752 269.571 387.098 269.316 389.594C269.072 392.09 268.7 395.486 268.201 399.781L275.672 388.428C276.484 387.185 276.995 386.315 277.204 385.816C277.413 385.316 277.518 384.893 277.518 384.544C277.518 384.219 277.378 383.935 277.1 383.691C276.821 383.436 276.345 383.273 275.672 383.204L275.811 382.559H282.811L282.637 383.204C282.022 383.25 281.476 383.401 281 383.656C280.524 383.912 279.961 384.399 279.311 385.119C278.94 385.537 278.173 386.64 277.013 388.428L265.154 406.712H264.509L266.425 388.428L254.566 406.712H253.974ZM285.156 405.528L284.964 406.172H275.247L275.491 405.528C276.466 405.505 277.111 405.424 277.424 405.284C277.935 405.087 278.312 404.814 278.556 404.466C278.939 403.92 279.334 402.945 279.74 401.54L283.85 387.296C284.198 386.112 284.372 385.218 284.372 384.614C284.372 384.312 284.297 384.057 284.146 383.848C283.995 383.639 283.763 383.482 283.449 383.378C283.148 383.262 282.55 383.204 281.656 383.204L281.865 382.559H290.99L290.798 383.204C290.055 383.192 289.504 383.273 289.144 383.447C288.621 383.679 288.221 384.01 287.942 384.44C287.675 384.869 287.327 385.821 286.897 387.296L282.805 401.54C282.434 402.852 282.248 403.688 282.248 404.048C282.248 404.338 282.318 404.588 282.457 404.797C282.608 404.994 282.84 405.151 283.153 405.267C283.478 405.371 284.146 405.458 285.156 405.528ZM290.966 382.559H308.902L306.969 388.828H306.308C306.528 387.911 306.638 387.093 306.638 386.373C306.638 385.525 306.377 384.887 305.855 384.457C305.46 384.132 304.444 383.97 302.807 383.97H300.944L296.277 400.234C295.685 402.277 295.389 403.537 295.389 404.013C295.389 404.454 295.575 404.82 295.946 405.11C296.318 405.389 296.974 405.528 297.914 405.528H298.715L298.506 406.172H288.232L288.424 405.528H288.876C289.782 405.528 290.478 405.383 290.966 405.093C291.303 404.895 291.604 404.541 291.871 404.03C292.15 403.508 292.533 402.411 293.021 400.739L297.914 383.97H296.504C295.145 383.97 294.048 384.144 293.212 384.492C292.388 384.84 291.721 385.345 291.21 386.007C290.699 386.669 290.281 387.609 289.956 388.828H289.312L290.966 382.559ZM311.891 393.095H322.792L324.516 387.261C324.841 386.123 325.004 385.241 325.004 384.614C325.004 384.312 324.928 384.057 324.777 383.848C324.638 383.627 324.417 383.465 324.116 383.36C323.814 383.256 323.222 383.204 322.339 383.204L322.514 382.559H332.022L331.813 383.204C331.011 383.192 330.414 383.273 330.019 383.447C329.462 383.691 329.05 384.005 328.783 384.388C328.399 384.933 328.011 385.891 327.616 387.261L323.454 401.523C323.106 402.707 322.931 403.554 322.931 404.065C322.931 404.506 323.082 404.843 323.384 405.075C323.698 405.296 324.435 405.447 325.596 405.528L325.404 406.172H316.21L316.454 405.528C317.359 405.505 317.963 405.424 318.265 405.284C318.729 405.075 319.066 404.808 319.275 404.483C319.576 404.03 319.948 403.044 320.389 401.523L322.514 394.296H311.56L309.418 401.523C309.082 402.684 308.913 403.531 308.913 404.065C308.913 404.506 309.064 404.843 309.366 405.075C309.668 405.296 310.399 405.447 311.56 405.528L311.421 406.172H302.157L302.383 405.528C303.3 405.505 303.91 405.424 304.212 405.284C304.676 405.075 305.018 404.808 305.239 404.483C305.541 404.007 305.912 403.02 306.353 401.523L310.533 387.261C310.869 386.1 311.038 385.218 311.038 384.614C311.038 384.312 310.962 384.057 310.811 383.848C310.672 383.627 310.446 383.465 310.132 383.36C309.83 383.256 309.233 383.204 308.339 383.204L308.548 382.559H317.864L317.672 383.204C316.895 383.192 316.32 383.273 315.949 383.447C315.403 383.679 315.002 383.987 314.747 384.37C314.399 384.881 314.016 385.845 313.598 387.261L311.891 393.095ZM344.338 383.83L341.639 393.164H343.85C345.429 393.164 346.573 392.926 347.281 392.45C347.989 391.963 348.599 391.069 349.109 389.769H349.754L347.333 398.336H346.637C346.846 397.616 346.95 397.001 346.95 396.49C346.95 395.991 346.846 395.591 346.637 395.289C346.439 394.987 346.161 394.766 345.801 394.627C345.452 394.476 344.709 394.401 343.572 394.401H341.325L339.044 402.219C338.824 402.974 338.713 403.549 338.713 403.943C338.713 404.245 338.858 404.512 339.149 404.744C339.346 404.907 339.839 404.988 340.629 404.988H342.718C344.982 404.988 346.793 404.588 348.152 403.787C349.521 402.986 350.746 401.593 351.826 399.607H352.47L350.241 406.172H331.992L332.218 405.528C333.123 405.505 333.733 405.424 334.046 405.284C334.511 405.075 334.847 404.808 335.056 404.483C335.37 404.007 335.741 403.009 336.171 401.488L340.315 387.244C340.64 386.094 340.803 385.218 340.803 384.614C340.803 384.173 340.646 383.83 340.333 383.587C340.031 383.331 339.433 383.204 338.539 383.204H338.173L338.382 382.559H355.344L353.881 388.254H353.236C353.318 387.719 353.358 387.273 353.358 386.913C353.358 386.297 353.207 385.781 352.906 385.363C352.511 384.829 351.936 384.422 351.182 384.144C350.624 383.935 349.342 383.83 347.333 383.83H344.338ZM363.4 382.559L365.577 401.575L379.281 382.559H385.045V383.204C383.791 383.285 383.054 383.366 382.834 383.447C382.451 383.598 382.097 383.9 381.771 384.353C381.458 384.806 381.116 385.676 380.744 386.965L376.373 401.941C376.118 402.811 375.99 403.496 375.99 403.996C375.99 404.448 376.147 404.791 376.46 405.023C376.901 405.36 377.598 405.528 378.55 405.528H378.968L378.811 406.172H368.868L369.042 405.528H369.512C370.394 405.528 371.068 405.4 371.532 405.145C371.892 404.959 372.211 404.611 372.49 404.1C372.78 403.578 373.181 402.428 373.691 400.652L377.592 386.965L363.818 406.172H363.121L360.91 386.965L356.696 401.575C356.336 402.817 356.156 403.653 356.156 404.083C356.156 404.512 356.312 404.843 356.626 405.075C356.939 405.296 357.7 405.447 358.907 405.528L358.716 406.172H350.932L351.123 405.528H351.593C352.743 405.528 353.573 405.238 354.083 404.657C354.455 404.239 354.844 403.334 355.25 401.941L360.387 384.335C360.004 383.941 359.638 383.674 359.29 383.534C358.942 383.395 358.298 383.285 357.357 383.204L357.531 382.559H363.4ZM397.681 382.019L395.888 401.662C395.795 402.579 395.749 403.183 395.749 403.473C395.749 403.938 395.836 404.292 396.01 404.535C396.23 404.872 396.526 405.122 396.898 405.284C397.281 405.447 397.919 405.528 398.813 405.528L398.622 406.172H389.323L389.514 405.528H389.915C390.669 405.528 391.285 405.366 391.761 405.04C392.097 404.82 392.359 404.454 392.544 403.943C392.672 403.584 392.794 402.736 392.91 401.401L393.189 398.406H386.432L384.029 401.662C383.483 402.394 383.141 402.922 383.002 403.247C382.862 403.56 382.793 403.856 382.793 404.135C382.793 404.506 382.944 404.826 383.245 405.093C383.547 405.36 384.046 405.505 384.743 405.528L384.551 406.172H377.568L377.76 405.528C378.619 405.493 379.374 405.209 380.024 404.675C380.686 404.129 381.667 402.974 382.967 401.209L397.072 382.019H397.681ZM394.234 387.818L387.39 397.135H393.328L394.234 387.818ZM407.41 405.528L407.218 406.172H397.501L397.745 405.528C398.72 405.505 399.364 405.424 399.678 405.284C400.189 405.087 400.566 404.814 400.81 404.466C401.193 403.92 401.588 402.945 401.994 401.54L406.103 387.296C406.452 386.112 406.626 385.218 406.626 384.614C406.626 384.312 406.55 384.057 406.4 383.848C406.249 383.639 406.016 383.482 405.703 383.378C405.401 383.262 404.803 383.204 403.909 383.204L404.118 382.559H413.243L413.052 383.204C412.309 383.192 411.757 383.273 411.397 383.447C410.875 383.679 410.474 384.01 410.196 384.44C409.929 384.869 409.58 385.821 409.151 387.296L405.059 401.54C404.687 402.852 404.501 403.688 404.501 404.048C404.501 404.338 404.571 404.588 404.71 404.797C404.861 404.994 405.093 405.151 405.407 405.267C405.732 405.371 406.4 405.458 407.41 405.528ZM424.347 406.172H406.846L407.09 405.528C408.019 405.505 408.64 405.429 408.953 405.302C409.441 405.093 409.801 404.82 410.033 404.483C410.393 403.949 410.776 402.986 411.182 401.593L415.344 387.226C415.692 386.042 415.866 385.171 415.866 384.614C415.866 384.173 415.704 383.83 415.379 383.587C415.065 383.343 414.467 383.221 413.585 383.221C413.388 383.221 413.231 383.215 413.115 383.204L413.324 382.559H422.954L422.814 383.204C421.735 383.204 420.969 383.308 420.516 383.517C420.063 383.726 419.686 384.068 419.384 384.544C419.175 384.858 418.833 385.833 418.357 387.47L414.264 401.593C413.951 402.661 413.794 403.404 413.794 403.821C413.794 404.1 413.951 404.367 414.264 404.623C414.462 404.797 414.909 404.884 415.605 404.884H417.886C419.546 404.884 420.864 404.675 421.839 404.257C422.559 403.943 423.221 403.473 423.824 402.846C424.15 402.498 424.724 401.633 425.548 400.252L426.001 399.468H426.646L424.347 406.172Z" fill="black"/>
<path d="M729 368.606C729 358.33 737.33 350 747.606 350H1033.82C1044.09 350 1052.42 358.33 1052.42 368.606V415.606C1052.42 425.882 1044.09 434.212 1033.82 434.212H747.606C737.33 434.212 729 425.882 729 415.606V368.606Z" fill="#4F39F6"/>
<path d="M769.391 403.606V380.488H772.908V402.304L771.052 400.382H784.173V403.606H769.391ZM793.97 403.997C792.32 403.997 790.877 403.628 789.639 402.89C788.402 402.152 787.447 401.099 786.774 399.731C786.101 398.364 785.765 396.768 785.765 394.945C785.765 393.1 786.101 391.504 786.774 390.159C787.447 388.813 788.402 387.771 789.639 387.033C790.877 386.273 792.32 385.893 793.97 385.893C795.62 385.893 797.063 386.273 798.3 387.033C799.538 387.771 800.493 388.813 801.166 390.159C801.839 391.504 802.175 393.1 802.175 394.945C802.175 396.768 801.839 398.364 801.166 399.731C800.493 401.099 799.538 402.152 798.3 402.89C797.063 403.628 795.62 403.997 793.97 403.997ZM793.97 401.001C795.446 401.001 796.586 400.469 797.389 399.406C798.192 398.32 798.594 396.833 798.594 394.945C798.594 393.056 798.192 391.58 797.389 390.517C796.586 389.431 795.446 388.889 793.97 388.889C792.516 388.889 791.376 389.431 790.551 390.517C789.748 391.58 789.346 393.056 789.346 394.945C789.346 396.833 789.748 398.32 790.551 399.406C791.376 400.469 792.516 401.001 793.97 401.001ZM812.631 408.881C811.264 408.881 810.059 408.675 809.017 408.262C807.975 407.85 807.118 407.264 806.445 406.504C805.772 405.766 805.316 404.898 805.077 403.899L808.659 403.671C808.897 404.387 809.31 404.952 809.896 405.364C810.504 405.798 811.415 406.015 812.631 406.015C814.064 406.015 815.16 405.712 815.92 405.104C816.701 404.496 817.092 403.573 817.092 402.336V399.829C816.679 400.719 816.017 401.424 815.106 401.945C814.194 402.466 813.174 402.727 812.045 402.727C810.591 402.727 809.299 402.369 808.17 401.652C807.042 400.936 806.162 399.948 805.533 398.689C804.903 397.43 804.589 395.976 804.589 394.326C804.589 392.655 804.893 391.19 805.5 389.931C806.13 388.672 806.998 387.684 808.105 386.968C809.234 386.251 810.504 385.893 811.915 385.893C813.152 385.893 814.237 386.175 815.171 386.74C816.126 387.304 816.81 388.064 817.222 389.019V386.284H820.543V402.238C820.543 403.671 820.218 404.876 819.566 405.853C818.937 406.851 818.025 407.6 816.831 408.099C815.659 408.62 814.259 408.881 812.631 408.881ZM812.598 399.796C813.944 399.796 815.019 399.308 815.822 398.331C816.647 397.354 817.07 396.009 817.092 394.294C817.114 393.165 816.94 392.199 816.571 391.396C816.202 390.571 815.67 389.942 814.975 389.507C814.302 389.052 813.51 388.824 812.598 388.824C811.188 388.824 810.091 389.323 809.31 390.321C808.55 391.298 808.17 392.622 808.17 394.294C808.17 395.987 808.561 397.333 809.342 398.331C810.146 399.308 811.231 399.796 812.598 399.796ZM825.028 403.606V386.284H828.479V403.606H825.028ZM824.962 383.777V380.325H828.544V383.777H824.962ZM833.645 403.606V386.284H836.803L836.933 390.907L836.51 390.68C836.705 389.551 837.074 388.639 837.617 387.944C838.16 387.25 838.822 386.74 839.603 386.414C840.385 386.067 841.231 385.893 842.143 385.893C843.445 385.893 844.52 386.186 845.366 386.772C846.235 387.337 846.886 388.118 847.32 389.117C847.776 390.093 848.004 391.211 848.004 392.47V403.606H844.552V393.512C844.552 392.492 844.444 391.635 844.227 390.94C844.01 390.245 843.651 389.714 843.152 389.345C842.653 388.976 842.002 388.791 841.199 388.791C839.983 388.791 838.995 389.193 838.236 389.996C837.476 390.799 837.096 391.971 837.096 393.512V403.606H833.645ZM864.348 403.606L859.074 386.284H862.688L866.4 399.829L870.209 386.284H873.465L877.275 399.829L881.019 386.284H884.633L879.359 403.606H875.484L871.837 391.233L868.191 403.606H864.348ZM887.477 403.606V386.284H890.929V403.606H887.477ZM887.412 383.777V380.325H890.994V383.777H887.412ZM901.274 403.606C899.624 403.606 898.409 403.226 897.627 402.466C896.846 401.707 896.455 400.524 896.455 398.917V382.214H899.906V398.657C899.906 399.46 900.08 400.013 900.427 400.317C900.775 400.621 901.306 400.773 902.023 400.773H904.497V403.606H901.274ZM893.818 389.117V386.284H904.497V389.117H893.818ZM907.796 403.606V380.488H911.247V390.191L910.824 390.126C911.019 389.149 911.377 388.357 911.898 387.749C912.419 387.12 913.059 386.653 913.819 386.349C914.579 386.045 915.415 385.893 916.326 385.893C917.585 385.893 918.649 386.175 919.517 386.74C920.386 387.282 921.037 388.053 921.471 389.052C921.927 390.05 922.155 391.19 922.155 392.47V403.606H918.703V393.382C918.703 391.819 918.432 390.669 917.889 389.931C917.368 389.171 916.543 388.791 915.415 388.791C914.156 388.791 913.146 389.193 912.387 389.996C911.627 390.777 911.247 391.928 911.247 393.447V403.606H907.796ZM942.081 403.997C940.388 403.997 938.923 403.628 937.685 402.89C936.47 402.152 935.526 401.099 934.853 399.731C934.201 398.364 933.876 396.768 933.876 394.945C933.876 393.122 934.201 391.537 934.853 390.191C935.526 388.824 936.47 387.771 937.685 387.033C938.901 386.273 940.334 385.893 941.983 385.893C943.546 385.893 944.925 386.262 946.118 387C947.312 387.717 948.235 388.758 948.886 390.126C949.559 391.494 949.895 393.143 949.895 395.075V395.954H937.457C937.544 397.647 937.989 398.917 938.792 399.764C939.617 400.61 940.724 401.034 942.114 401.034C943.134 401.034 943.98 400.795 944.653 400.317C945.326 399.84 945.793 399.199 946.053 398.396L949.635 398.624C949.179 400.231 948.278 401.533 946.932 402.531C945.608 403.508 943.991 403.997 942.081 403.997ZM937.457 393.349H946.249C946.14 391.808 945.695 390.669 944.914 389.931C944.154 389.193 943.177 388.824 941.983 388.824C940.746 388.824 939.726 389.214 938.923 389.996C938.141 390.756 937.653 391.873 937.457 393.349ZM953.393 403.606V386.284H956.551L956.649 390.582L956.258 390.452C956.453 389.497 956.79 388.683 957.267 388.01C957.767 387.337 958.374 386.816 959.091 386.447C959.807 386.078 960.588 385.893 961.435 385.893C962.911 385.893 964.116 386.316 965.049 387.163C965.983 387.988 966.569 389.127 966.807 390.582H966.254C966.449 389.562 966.775 388.715 967.231 388.042C967.708 387.348 968.316 386.816 969.054 386.447C969.792 386.078 970.628 385.893 971.561 385.893C972.777 385.893 973.808 386.154 974.654 386.675C975.523 387.174 976.174 387.912 976.608 388.889C977.064 389.866 977.292 391.059 977.292 392.47V403.606H973.84V393.317C973.84 391.819 973.569 390.69 973.026 389.931C972.484 389.171 971.659 388.791 970.552 388.791C969.836 388.791 969.206 388.976 968.663 389.345C968.121 389.714 967.697 390.245 967.394 390.94C967.111 391.635 966.97 392.47 966.97 393.447V403.606H963.682V393.447C963.682 391.971 963.432 390.831 962.933 390.028C962.455 389.203 961.63 388.791 960.458 388.791C959.72 388.791 959.08 388.976 958.537 389.345C958.016 389.714 957.604 390.256 957.3 390.973C956.996 391.667 956.844 392.492 956.844 393.447V403.606H953.393ZM986.703 403.997C984.901 403.997 983.457 403.584 982.372 402.759C981.308 401.935 980.777 400.773 980.777 399.275C980.777 397.778 981.222 396.616 982.112 395.791C983.023 394.945 984.423 394.337 986.312 393.968L992.27 392.829C992.27 391.483 991.956 390.484 991.326 389.833C990.697 389.16 989.763 388.824 988.526 388.824C987.419 388.824 986.551 389.073 985.921 389.572C985.292 390.05 984.857 390.766 984.619 391.721L981.07 391.494C981.395 389.757 982.198 388.389 983.479 387.391C984.781 386.392 986.464 385.893 988.526 385.893C990.87 385.893 992.65 386.523 993.866 387.782C995.103 389.019 995.722 390.766 995.722 393.024V399.764C995.722 400.176 995.787 400.469 995.917 400.643C996.069 400.795 996.308 400.871 996.633 400.871H997.252V403.606C997.144 403.628 996.97 403.649 996.731 403.671C996.492 403.693 996.243 403.704 995.982 403.704C995.244 403.704 994.604 403.584 994.061 403.345C993.54 403.107 993.149 402.716 992.889 402.173C992.628 401.609 992.498 400.86 992.498 399.927L992.856 400.089C992.683 400.849 992.303 401.522 991.717 402.108C991.152 402.694 990.425 403.161 989.535 403.508C988.667 403.834 987.723 403.997 986.703 403.997ZM987.256 401.262C988.298 401.262 989.188 401.066 989.926 400.676C990.664 400.263 991.239 399.699 991.652 398.982C992.064 398.266 992.27 397.452 992.27 396.54V395.433L987.191 396.41C986.149 396.606 985.411 396.92 984.977 397.354C984.564 397.767 984.358 398.299 984.358 398.95C984.358 399.688 984.608 400.263 985.107 400.676C985.628 401.066 986.344 401.262 987.256 401.262ZM1000.01 403.606V386.284H1003.46V403.606H1000.01ZM999.942 383.777V380.325H1003.52V383.777H999.942ZM1011.86 403.606C1010.73 403.606 1009.82 403.313 1009.13 402.727C1008.43 402.141 1008.08 401.207 1008.08 399.927V380.488H1011.54V399.601C1011.54 399.992 1011.63 400.285 1011.83 400.48C1012.05 400.676 1012.35 400.773 1012.74 400.773H1014.11V403.606H1011.86Z" fill="white"/>
<path d="M588 0.5L588 782.5" stroke="#52525C" stroke-width="5"/>
</svg>
