<svg width="1176" height="784" viewBox="0 0 1176 784" fill="none" xmlns="http://www.w3.org/2000/svg">
<rect width="1176" height="784" fill="#C8E6DC"/>
<g filter="url(#filter0_d_998_6238)">
<rect x="129" y="343" width="317.607" height="98.6916" fill="#C3C3C3"/>
<rect x="129.5" y="343.5" width="316.607" height="97.6916" stroke="black"/>
</g>
<path d="M181.654 392.994L180.766 401.283H159.799V400.639H160.583C161.268 400.639 161.819 400.517 162.237 400.273C162.539 400.111 162.771 399.832 162.934 399.437C163.061 399.159 163.125 398.427 163.125 397.243V381.71C163.125 380.503 163.061 379.748 162.934 379.446C162.806 379.144 162.545 378.883 162.15 378.663C161.767 378.43 161.245 378.314 160.583 378.314H159.799V377.67H172.389V378.314H171.362C170.677 378.314 170.126 378.436 169.708 378.68C169.406 378.843 169.168 379.121 168.994 379.516C168.866 379.795 168.802 380.526 168.802 381.71V396.756C168.802 397.963 168.872 398.735 169.011 399.072C169.151 399.397 169.423 399.64 169.83 399.803C170.12 399.908 170.822 399.96 171.937 399.96H173.904C175.158 399.96 176.203 399.739 177.039 399.298C177.875 398.857 178.595 398.16 179.198 397.208C179.814 396.256 180.394 394.852 180.94 392.994H181.654ZM191.806 384.514C193.222 384.514 194.54 384.879 195.759 385.611C196.978 386.342 197.901 387.381 198.528 388.728C199.166 390.074 199.485 391.549 199.485 393.151C199.485 395.461 198.899 397.394 197.727 398.95C196.31 400.83 194.354 401.771 191.858 401.771C189.409 401.771 187.522 400.912 186.199 399.194C184.875 397.475 184.213 395.484 184.213 393.221C184.213 390.887 184.887 388.856 186.233 387.126C187.592 385.384 189.449 384.514 191.806 384.514ZM191.876 385.75C191.284 385.75 190.773 385.976 190.343 386.429C189.925 386.87 189.647 387.753 189.507 389.076C189.38 390.388 189.316 392.216 189.316 394.561C189.316 395.804 189.397 396.965 189.56 398.044C189.687 398.868 189.96 399.495 190.378 399.925C190.796 400.354 191.272 400.569 191.806 400.569C192.328 400.569 192.764 400.424 193.112 400.134C193.565 399.739 193.867 399.188 194.017 398.48C194.25 397.377 194.366 395.148 194.366 391.793C194.366 389.819 194.255 388.467 194.035 387.735C193.814 386.992 193.489 386.452 193.06 386.116C192.758 385.872 192.363 385.75 191.876 385.75ZM212.407 385.193H217.892V387.108H214.775C215.344 387.677 215.738 388.194 215.959 388.658C216.238 389.285 216.377 389.941 216.377 390.626C216.377 391.787 216.052 392.797 215.402 393.656C214.763 394.503 213.887 395.171 212.772 395.659C211.669 396.135 210.688 396.372 209.829 396.372C209.76 396.372 209.063 396.343 207.74 396.285C207.217 396.285 206.776 396.46 206.416 396.808C206.068 397.145 205.894 397.551 205.894 398.027C205.894 398.445 206.05 398.787 206.364 399.054C206.689 399.321 207.211 399.455 207.931 399.455L210.944 399.42C213.382 399.42 215.059 399.687 215.976 400.221C217.288 400.964 217.944 402.107 217.944 403.651C217.944 404.638 217.642 405.532 217.039 406.333C216.435 407.146 215.64 407.744 214.653 408.127C213.155 408.696 211.431 408.98 209.481 408.98C208.018 408.98 206.683 408.835 205.476 408.545C204.268 408.266 203.404 407.871 202.881 407.361C202.359 406.861 202.098 406.333 202.098 405.776C202.098 405.242 202.295 404.76 202.69 404.331C203.096 403.913 203.845 403.559 204.936 403.268C203.427 402.525 202.672 401.492 202.672 400.169C202.672 399.368 202.98 398.59 203.595 397.835C204.21 397.081 205.186 396.425 206.521 395.867C204.965 395.299 203.839 394.55 203.142 393.621C202.446 392.692 202.098 391.619 202.098 390.4C202.098 388.809 202.748 387.433 204.048 386.272C205.348 385.1 207.02 384.514 209.063 384.514C210.143 384.514 211.257 384.74 212.407 385.193ZM209.394 385.593C208.721 385.593 208.152 385.936 207.687 386.621C207.223 387.294 206.991 388.699 206.991 390.835C206.991 392.565 207.217 393.755 207.67 394.405C208.134 395.043 208.68 395.362 209.307 395.362C210.003 395.362 210.584 395.043 211.048 394.405C211.513 393.766 211.745 392.524 211.745 390.678C211.745 388.6 211.484 387.184 210.961 386.429C210.59 385.872 210.067 385.593 209.394 385.593ZM208.366 403.686C207.182 403.686 206.399 403.785 206.016 403.982C205.354 404.342 205.023 404.83 205.023 405.445C205.023 406.037 205.366 406.571 206.05 407.047C206.735 407.535 208.024 407.779 209.916 407.779C211.53 407.779 212.795 407.564 213.713 407.134C214.641 406.705 215.106 406.101 215.106 405.323C215.106 405.033 215.019 404.789 214.844 404.592C214.531 404.244 214.055 404.006 213.417 403.878C212.79 403.75 211.106 403.686 208.366 403.686ZM223.708 377.113C224.463 377.113 225.101 377.38 225.624 377.914C226.146 378.436 226.407 379.069 226.407 379.812C226.407 380.555 226.14 381.188 225.606 381.71C225.084 382.232 224.451 382.494 223.708 382.494C222.965 382.494 222.332 382.232 221.81 381.71C221.288 381.188 221.026 380.555 221.026 379.812C221.026 379.069 221.288 378.436 221.81 377.914C222.332 377.38 222.965 377.113 223.708 377.113ZM226.146 385.001V397.905C226.146 399.054 226.28 399.791 226.547 400.116C226.814 400.43 227.336 400.61 228.114 400.656V401.283H219.32V400.656C220.04 400.633 220.574 400.424 220.922 400.029C221.154 399.762 221.27 399.054 221.27 397.905V388.397C221.27 387.248 221.137 386.516 220.87 386.203C220.603 385.878 220.086 385.692 219.32 385.646V385.001H226.146ZM236.368 385.001V387.108C237.204 386.203 238.005 385.547 238.771 385.141C239.537 384.723 240.362 384.514 241.244 384.514C242.3 384.514 243.177 384.81 243.873 385.402C244.57 385.982 245.034 386.708 245.266 387.579C245.452 388.24 245.545 389.511 245.545 391.392V397.731C245.545 398.985 245.655 399.768 245.876 400.082C246.108 400.383 246.584 400.575 247.304 400.656V401.283H239.067V400.656C239.682 400.575 240.124 400.32 240.391 399.89C240.576 399.6 240.669 398.88 240.669 397.731V390.487C240.669 389.152 240.617 388.31 240.512 387.962C240.408 387.613 240.228 387.346 239.973 387.161C239.729 386.963 239.456 386.865 239.154 386.865C238.156 386.865 237.227 387.579 236.368 389.006V397.731C236.368 398.95 236.478 399.722 236.699 400.047C236.931 400.372 237.355 400.575 237.97 400.656V401.283H229.733V400.656C230.418 400.587 230.906 400.366 231.196 399.995C231.393 399.739 231.492 398.985 231.492 397.731V388.536C231.492 387.306 231.376 386.539 231.144 386.238C230.923 385.936 230.453 385.738 229.733 385.646V385.001H236.368ZM274.626 401.771L270.168 389.825L265.797 401.771H264.892L260.556 389.964C259.906 388.165 259.354 386.992 258.901 386.447C258.611 386.075 258.17 385.808 257.578 385.646V385.001H265.797V385.646C265.24 385.646 264.857 385.727 264.648 385.889C264.439 386.052 264.335 386.238 264.335 386.447C264.335 386.644 264.52 387.236 264.892 388.223L267.278 394.579L269.576 388.223L269.402 387.805C269.054 386.934 268.746 386.383 268.479 386.151C268.224 385.907 267.823 385.738 267.278 385.646V385.001H275.619V385.646C274.969 385.68 274.557 385.773 274.382 385.924C274.208 386.064 274.121 386.267 274.121 386.534C274.121 386.789 274.29 387.352 274.626 388.223L276.925 394.579L279.014 388.728C279.316 387.892 279.467 387.323 279.467 387.021C279.467 386.569 279.357 386.238 279.136 386.029C278.916 385.82 278.486 385.692 277.848 385.646V385.001H282.671V385.646C282.137 385.715 281.714 385.907 281.4 386.22C281.087 386.522 280.68 387.393 280.181 388.832L275.619 401.771H274.626ZM288.174 377.113C288.929 377.113 289.567 377.38 290.09 377.914C290.612 378.436 290.873 379.069 290.873 379.812C290.873 380.555 290.606 381.188 290.072 381.71C289.55 382.232 288.917 382.494 288.174 382.494C287.431 382.494 286.798 382.232 286.276 381.71C285.754 381.188 285.492 380.555 285.492 379.812C285.492 379.069 285.754 378.436 286.276 377.914C286.798 377.38 287.431 377.113 288.174 377.113ZM290.612 385.001V397.905C290.612 399.054 290.746 399.791 291.013 400.116C291.28 400.43 291.802 400.61 292.58 400.656V401.283H283.786V400.656C284.506 400.633 285.04 400.424 285.388 400.029C285.62 399.762 285.736 399.054 285.736 397.905V388.397C285.736 387.248 285.603 386.516 285.336 386.203C285.069 385.878 284.552 385.692 283.786 385.646V385.001H290.612ZM300.642 379.046V385.001H304.508V386.725H300.642V396.773C300.642 397.713 300.683 398.323 300.764 398.601C300.857 398.868 301.014 399.089 301.235 399.263C301.455 399.426 301.658 399.507 301.844 399.507C302.599 399.507 303.313 398.932 303.986 397.783L304.508 398.166C303.568 400.395 302.041 401.51 299.928 401.51C298.895 401.51 298.019 401.225 297.299 400.656C296.591 400.076 296.138 399.432 295.941 398.723C295.825 398.329 295.767 397.261 295.767 395.519V386.725H293.642V386.116C295.105 385.083 296.347 383.997 297.369 382.859C298.402 381.722 299.302 380.45 300.068 379.046H300.642ZM312.71 377.67V387.091C313.604 386.151 314.423 385.489 315.166 385.106C315.909 384.711 316.681 384.514 317.482 384.514C318.503 384.514 319.374 384.804 320.094 385.384C320.825 385.965 321.307 386.65 321.539 387.439C321.783 388.217 321.905 389.535 321.905 391.392V397.748C321.905 398.99 322.021 399.768 322.253 400.082C322.485 400.383 322.955 400.575 323.664 400.656V401.283H315.409V400.656C315.99 400.575 316.425 400.343 316.715 399.96C316.924 399.658 317.029 398.921 317.029 397.748V390.487C317.029 389.14 316.977 388.298 316.872 387.962C316.768 387.613 316.588 387.346 316.332 387.161C316.089 386.963 315.81 386.865 315.496 386.865C315.032 386.865 314.579 387.027 314.138 387.352C313.697 387.666 313.221 388.223 312.71 389.024V397.748C312.71 398.909 312.797 399.635 312.971 399.925C313.192 400.32 313.645 400.563 314.33 400.656V401.283H306.076V400.656C306.761 400.587 307.248 400.366 307.538 399.995C307.736 399.739 307.834 398.99 307.834 397.748V381.205C307.834 379.974 307.718 379.208 307.486 378.906C307.266 378.605 306.795 378.407 306.076 378.314V377.67H312.71ZM348.618 392.559H339.684C339.789 394.718 340.363 396.425 341.408 397.679C342.209 398.642 343.173 399.124 344.299 399.124C344.996 399.124 345.628 398.932 346.197 398.549C346.766 398.155 347.375 397.452 348.026 396.442L348.618 396.825C347.735 398.625 346.76 399.902 345.692 400.656C344.624 401.399 343.388 401.771 341.983 401.771C339.568 401.771 337.74 400.842 336.498 398.985C335.499 397.487 335 395.63 335 393.412C335 390.696 335.731 388.536 337.194 386.934C338.668 385.321 340.392 384.514 342.366 384.514C344.015 384.514 345.442 385.193 346.65 386.551C347.869 387.898 348.525 389.9 348.618 392.559ZM344.334 391.392C344.334 389.523 344.229 388.24 344.02 387.544C343.823 386.847 343.51 386.319 343.08 385.959C342.836 385.75 342.511 385.646 342.105 385.646C341.501 385.646 341.008 385.942 340.625 386.534C339.94 387.567 339.597 388.983 339.597 390.783V391.392H344.334ZM357.429 385.001V387.143C358.323 386.168 359.147 385.489 359.902 385.106C360.668 384.711 361.504 384.514 362.409 384.514C363.454 384.514 364.331 384.757 365.039 385.245C365.747 385.733 366.293 386.476 366.676 387.474C367.604 386.429 368.493 385.675 369.34 385.21C370.199 384.746 371.093 384.514 372.022 384.514C373.148 384.514 374.042 384.775 374.704 385.297C375.377 385.808 375.841 386.464 376.097 387.265C376.364 388.054 376.497 389.32 376.497 391.061V397.731C376.497 398.985 376.607 399.762 376.828 400.064C377.06 400.366 377.536 400.563 378.256 400.656V401.283H369.845V400.656C370.507 400.598 370.994 400.343 371.308 399.89C371.517 399.577 371.621 398.857 371.621 397.731V390.73C371.621 389.279 371.563 388.356 371.447 387.962C371.331 387.567 371.145 387.277 370.89 387.091C370.646 386.894 370.356 386.795 370.019 386.795C369.52 386.795 369.015 386.981 368.504 387.352C367.993 387.712 367.477 388.258 366.954 388.989V397.731C366.954 398.903 367.053 399.64 367.25 399.942C367.517 400.372 368.028 400.61 368.783 400.656V401.283H360.355V400.656C360.807 400.633 361.161 400.523 361.417 400.325C361.684 400.116 361.858 399.873 361.939 399.594C362.032 399.304 362.078 398.683 362.078 397.731V390.73C362.078 389.256 362.02 388.333 361.904 387.962C361.788 387.59 361.591 387.3 361.312 387.091C361.045 386.882 360.755 386.777 360.442 386.777C359.977 386.777 359.553 386.899 359.17 387.143C358.625 387.503 358.044 388.118 357.429 388.989V397.731C357.429 398.88 357.539 399.64 357.76 400.012C357.992 400.372 358.468 400.587 359.188 400.656V401.283H350.794V400.656C351.479 400.587 351.967 400.366 352.257 399.995C352.454 399.739 352.553 398.985 352.553 397.731V388.536C352.553 387.306 352.437 386.539 352.205 386.238C351.984 385.936 351.514 385.738 350.794 385.646V385.001H357.429ZM389.366 398.88C387.381 400.633 385.599 401.51 384.02 401.51C383.091 401.51 382.319 401.208 381.704 400.604C381.089 399.989 380.781 399.223 380.781 398.305C380.781 397.063 381.315 395.949 382.383 394.962C383.451 393.964 385.779 392.64 389.366 390.992V389.355C389.366 388.124 389.296 387.352 389.157 387.039C389.029 386.714 388.78 386.435 388.408 386.203C388.037 385.959 387.619 385.837 387.154 385.837C386.4 385.837 385.779 386.005 385.291 386.342C384.989 386.551 384.838 386.795 384.838 387.074C384.838 387.317 385.001 387.619 385.326 387.979C385.767 388.478 385.988 388.96 385.988 389.424C385.988 389.993 385.773 390.481 385.343 390.887C384.925 391.282 384.374 391.479 383.689 391.479C382.958 391.479 382.342 391.259 381.843 390.817C381.356 390.376 381.112 389.86 381.112 389.268C381.112 388.432 381.443 387.637 382.104 386.882C382.766 386.116 383.689 385.529 384.873 385.123C386.057 384.717 387.288 384.514 388.565 384.514C390.109 384.514 391.328 384.845 392.222 385.506C393.127 386.156 393.714 386.865 393.981 387.631C394.143 388.118 394.224 389.239 394.224 390.992V397.313C394.224 398.056 394.253 398.526 394.312 398.723C394.37 398.909 394.457 399.048 394.573 399.141C394.689 399.234 394.822 399.281 394.973 399.281C395.275 399.281 395.583 399.066 395.896 398.636L396.419 399.054C395.838 399.913 395.234 400.54 394.608 400.935C393.992 401.318 393.29 401.51 392.5 401.51C391.572 401.51 390.846 401.295 390.324 400.865C389.801 400.424 389.482 399.762 389.366 398.88ZM389.366 397.609V392.158C387.961 392.983 386.916 393.865 386.231 394.805C385.779 395.432 385.552 396.065 385.552 396.703C385.552 397.237 385.744 397.708 386.127 398.114C386.417 398.427 386.824 398.584 387.346 398.584C387.926 398.584 388.6 398.259 389.366 397.609ZM402.13 377.113C402.885 377.113 403.523 377.38 404.046 377.914C404.568 378.436 404.829 379.069 404.829 379.812C404.829 380.555 404.562 381.188 404.028 381.71C403.506 382.232 402.873 382.494 402.13 382.494C401.387 382.494 400.755 382.232 400.232 381.71C399.71 381.188 399.449 380.555 399.449 379.812C399.449 379.069 399.71 378.436 400.232 377.914C400.755 377.38 401.387 377.113 402.13 377.113ZM404.568 385.001V397.905C404.568 399.054 404.702 399.791 404.969 400.116C405.236 400.43 405.758 400.61 406.536 400.656V401.283H397.742V400.656C398.462 400.633 398.996 400.424 399.344 400.029C399.576 399.762 399.692 399.054 399.692 397.905V388.397C399.692 387.248 399.559 386.516 399.292 386.203C399.025 385.878 398.508 385.692 397.742 385.646V385.001H404.568ZM414.512 377.67V397.905C414.512 399.054 414.645 399.791 414.912 400.116C415.179 400.43 415.702 400.61 416.479 400.656V401.283H407.685V400.656C408.405 400.633 408.939 400.424 409.287 400.029C409.52 399.762 409.636 399.054 409.636 397.905V381.048C409.636 379.911 409.502 379.185 409.235 378.872C408.968 378.547 408.452 378.361 407.685 378.314V377.67H414.512Z" fill="black"/>
<path d="M729 368.606C729 358.33 737.33 350 747.606 350H1034.82C1045.09 350 1053.42 358.33 1053.42 368.606V415.606C1053.42 425.882 1045.09 434.212 1034.82 434.212H747.606C737.33 434.212 729 425.882 729 415.606V368.606Z" fill="#171717"/>
<path d="M769.191 403.606V380.488H772.708V402.304L770.852 400.382H783.974V403.606H769.191ZM793.77 403.997C792.121 403.997 790.677 403.628 789.44 402.89C788.203 402.152 787.248 401.099 786.575 399.731C785.902 398.364 785.565 396.768 785.565 394.945C785.565 393.1 785.902 391.504 786.575 390.159C787.248 388.813 788.203 387.771 789.44 387.033C790.677 386.273 792.121 385.893 793.77 385.893C795.42 385.893 796.864 386.273 798.101 387.033C799.338 387.771 800.293 388.813 800.966 390.159C801.639 391.504 801.976 393.1 801.976 394.945C801.976 396.768 801.639 398.364 800.966 399.731C800.293 401.099 799.338 402.152 798.101 402.89C796.864 403.628 795.42 403.997 793.77 403.997ZM793.77 401.001C795.246 401.001 796.386 400.469 797.189 399.406C797.992 398.32 798.394 396.833 798.394 394.945C798.394 393.056 797.992 391.58 797.189 390.517C796.386 389.431 795.246 388.889 793.77 388.889C792.316 388.889 791.176 389.431 790.352 390.517C789.548 391.58 789.147 393.056 789.147 394.945C789.147 396.833 789.548 398.32 790.352 399.406C791.176 400.469 792.316 401.001 793.77 401.001ZM812.432 408.881C811.064 408.881 809.859 408.675 808.817 408.262C807.775 407.85 806.918 407.264 806.245 406.504C805.572 405.766 805.116 404.898 804.878 403.899L808.459 403.671C808.698 404.387 809.11 404.952 809.696 405.364C810.304 405.798 811.216 406.015 812.432 406.015C813.864 406.015 814.96 405.712 815.72 405.104C816.502 404.496 816.892 403.573 816.892 402.336V399.829C816.48 400.719 815.818 401.424 814.906 401.945C813.994 402.466 812.974 402.727 811.845 402.727C810.391 402.727 809.1 402.369 807.971 401.652C806.842 400.936 805.963 399.948 805.333 398.689C804.704 397.43 804.389 395.976 804.389 394.326C804.389 392.655 804.693 391.19 805.301 389.931C805.93 388.672 806.799 387.684 807.906 386.968C809.034 386.251 810.304 385.893 811.715 385.893C812.952 385.893 814.038 386.175 814.971 386.74C815.926 387.304 816.61 388.064 817.023 389.019V386.284H820.344V402.238C820.344 403.671 820.018 404.876 819.367 405.853C818.737 406.851 817.826 407.6 816.632 408.099C815.46 408.62 814.06 408.881 812.432 408.881ZM812.399 399.796C813.745 399.796 814.819 399.308 815.622 398.331C816.447 397.354 816.871 396.009 816.892 394.294C816.914 393.165 816.74 392.199 816.371 391.396C816.002 390.571 815.47 389.942 814.776 389.507C814.103 389.052 813.311 388.824 812.399 388.824C810.988 388.824 809.892 389.323 809.11 390.321C808.351 391.298 807.971 392.622 807.971 394.294C807.971 395.987 808.361 397.333 809.143 398.331C809.946 399.308 811.031 399.796 812.399 399.796ZM824.828 403.606V386.284H828.279V403.606H824.828ZM824.763 383.777V380.325H828.345V383.777H824.763ZM833.445 403.606V386.284H836.603L836.734 390.907L836.31 390.68C836.506 389.551 836.875 388.639 837.417 387.944C837.96 387.25 838.622 386.74 839.404 386.414C840.185 386.067 841.032 385.893 841.943 385.893C843.246 385.893 844.32 386.186 845.167 386.772C846.035 387.337 846.686 388.118 847.12 389.117C847.576 390.093 847.804 391.211 847.804 392.47V403.606H844.353V393.512C844.353 392.492 844.244 391.635 844.027 390.94C843.81 390.245 843.452 389.714 842.953 389.345C842.453 388.976 841.802 388.791 840.999 388.791C839.783 388.791 838.796 389.193 838.036 389.996C837.276 390.799 836.896 391.971 836.896 393.512V403.606H833.445ZM864.149 403.606L858.874 386.284H862.488L866.2 399.829L870.01 386.284H873.266L877.075 399.829L880.82 386.284H884.434L879.159 403.606H875.285L871.638 391.233L867.991 403.606H864.149ZM887.278 403.606V386.284H890.729V403.606H887.278ZM887.213 383.777V380.325H890.794V383.777H887.213ZM901.074 403.606C899.425 403.606 898.209 403.226 897.428 402.466C896.646 401.707 896.255 400.524 896.255 398.917V382.214H899.707V398.657C899.707 399.46 899.88 400.013 900.228 400.317C900.575 400.621 901.107 400.773 901.823 400.773H904.298V403.606H901.074ZM893.618 389.117V386.284H904.298V389.117H893.618ZM907.596 403.606V380.488H911.047V390.191L910.624 390.126C910.819 389.149 911.178 388.357 911.699 387.749C912.22 387.12 912.86 386.653 913.62 386.349C914.379 386.045 915.215 385.893 916.127 385.893C917.386 385.893 918.449 386.175 919.318 386.74C920.186 387.282 920.837 388.053 921.271 389.052C921.727 390.05 921.955 391.19 921.955 392.47V403.606H918.504V393.382C918.504 391.819 918.232 390.669 917.69 389.931C917.169 389.171 916.344 388.791 915.215 388.791C913.956 388.791 912.947 389.193 912.187 389.996C911.427 390.777 911.047 391.928 911.047 393.447V403.606H907.596ZM935.109 403.606V380.488H950.152V383.712H938.625V390.452H949.761V393.577H938.625V400.382H950.412V403.606H935.109ZM954.592 403.606V386.284H957.751L957.848 390.582L957.457 390.452C957.653 389.497 957.989 388.683 958.467 388.01C958.966 387.337 959.574 386.816 960.29 386.447C961.007 386.078 961.788 385.893 962.635 385.893C964.111 385.893 965.315 386.316 966.249 387.163C967.182 387.988 967.768 389.127 968.007 390.582H967.453C967.649 389.562 967.974 388.715 968.43 388.042C968.908 387.348 969.516 386.816 970.254 386.447C970.992 386.078 971.827 385.893 972.761 385.893C973.976 385.893 975.007 386.154 975.854 386.675C976.722 387.174 977.373 387.912 977.808 388.889C978.263 389.866 978.491 391.059 978.491 392.47V403.606H975.04V393.317C975.04 391.819 974.769 390.69 974.226 389.931C973.683 389.171 972.858 388.791 971.751 388.791C971.035 388.791 970.406 388.976 969.863 389.345C969.32 389.714 968.897 390.245 968.593 390.94C968.311 391.635 968.17 392.47 968.17 393.447V403.606H964.881V393.447C964.881 391.971 964.632 390.831 964.132 390.028C963.655 389.203 962.83 388.791 961.658 388.791C960.92 388.791 960.279 388.976 959.737 389.345C959.216 389.714 958.803 390.256 958.499 390.973C958.196 391.667 958.044 392.492 958.044 393.447V403.606H954.592ZM987.902 403.997C986.1 403.997 984.657 403.584 983.572 402.759C982.508 401.935 981.976 400.773 981.976 399.275C981.976 397.778 982.421 396.616 983.311 395.791C984.223 394.945 985.623 394.337 987.511 393.968L993.47 392.829C993.47 391.483 993.155 390.484 992.526 389.833C991.896 389.16 990.963 388.824 989.725 388.824C988.618 388.824 987.75 389.073 987.121 389.572C986.491 390.05 986.057 390.766 985.818 391.721L982.269 391.494C982.595 389.757 983.398 388.389 984.679 387.391C985.981 386.392 987.663 385.893 989.725 385.893C992.07 385.893 993.85 386.523 995.065 387.782C996.303 389.019 996.921 390.766 996.921 393.024V399.764C996.921 400.176 996.986 400.469 997.117 400.643C997.269 400.795 997.507 400.871 997.833 400.871H998.452V403.606C998.343 403.628 998.169 403.649 997.931 403.671C997.692 403.693 997.442 403.704 997.182 403.704C996.444 403.704 995.803 403.584 995.261 403.345C994.74 403.107 994.349 402.716 994.089 402.173C993.828 401.609 993.698 400.86 993.698 399.927L994.056 400.089C993.882 400.849 993.502 401.522 992.916 402.108C992.352 402.694 991.625 403.161 990.735 403.508C989.867 403.834 988.922 403.997 987.902 403.997ZM988.456 401.262C989.498 401.262 990.387 401.066 991.126 400.676C991.864 400.263 992.439 399.699 992.851 398.982C993.264 398.266 993.47 397.452 993.47 396.54V395.433L988.39 396.41C987.349 396.606 986.61 396.92 986.176 397.354C985.764 397.767 985.558 398.299 985.558 398.95C985.558 399.688 985.807 400.263 986.307 400.676C986.828 401.066 987.544 401.262 988.456 401.262ZM1001.21 403.606V386.284H1004.66V403.606H1001.21ZM1001.14 383.777V380.325H1004.72V383.777H1001.14ZM1013.06 403.606C1011.93 403.606 1011.02 403.313 1010.33 402.727C1009.63 402.141 1009.28 401.207 1009.28 399.927V380.488H1012.73V399.601C1012.73 399.992 1012.83 400.285 1013.03 400.48C1013.24 400.676 1013.55 400.773 1013.94 400.773H1015.31V403.606H1013.06Z" fill="#FAFAFA"/>
<path d="M588 0.5L588 782.5" stroke="black" stroke-width="5"/>
<defs>
<filter id="filter0_d_998_6238" x="119.9" y="337.9" width="335.807" height="116.892" filterUnits="userSpaceOnUse" color-interpolation-filters="sRGB">
<feFlood flood-opacity="0" result="BackgroundImageFix"/>
<feColorMatrix in="SourceAlpha" type="matrix" values="0 0 0 0 0 0 0 0 0 0 0 0 0 0 0 0 0 0 127 0" result="hardAlpha"/>
<feMorphology radius="3" operator="dilate" in="SourceAlpha" result="effect1_dropShadow_998_6238"/>
<feOffset dy="4"/>
<feGaussianBlur stdDeviation="3.05"/>
<feComposite in2="hardAlpha" operator="out"/>
<feColorMatrix type="matrix" values="0 0 0 0 0 0 0 0 0 0 0 0 0 0 0 0 0 0 0.25 0"/>
<feBlend mode="normal" in2="BackgroundImageFix" result="effect1_dropShadow_998_6238"/>
<feBlend mode="normal" in="SourceGraphic" in2="effect1_dropShadow_998_6238" result="shape"/>
</filter>
</defs>
</svg>
