<svg width="1176" height="784" viewBox="0 0 1176 784" fill="none" xmlns="http://www.w3.org/2000/svg">
<rect width="1176" height="784" fill="white"/>
<path fill-rule="evenodd" clip-rule="evenodd" d="M372.598 583.065L376.764 578.898L387.598 589.732L398.431 578.898L402.598 583.065L391.764 593.898L402.598 604.732L398.431 608.898L387.598 598.065L376.764 608.898L372.598 604.732L383.431 593.898L372.598 583.065Z" fill="#D22022" stroke="#D22022" stroke-width="1.48148" stroke-linecap="round" stroke-linejoin="round"/>
<path d="M380.416 508C380.177 508 379.982 507.924 379.83 507.772C379.7 507.62 379.635 507.436 379.635 507.219V490.352L374.686 494.162C374.49 494.292 374.295 494.346 374.1 494.325C373.904 494.281 373.731 494.162 373.579 493.967L372.211 492.208C372.081 492.013 372.027 491.807 372.048 491.59C372.092 491.373 372.211 491.199 372.406 491.069L379.7 485.436C379.83 485.327 379.96 485.262 380.091 485.24C380.221 485.219 380.362 485.208 380.514 485.208H383.379C383.596 485.208 383.781 485.284 383.933 485.436C384.085 485.588 384.161 485.772 384.161 485.989V507.219C384.161 507.436 384.085 507.62 383.933 507.772C383.781 507.924 383.596 508 383.379 508H380.416ZM395.032 508.326C393.73 508.326 392.612 508.174 391.678 507.87C390.767 507.566 390.018 507.186 389.432 506.73C388.846 506.274 388.412 505.818 388.129 505.363C387.847 504.907 387.695 504.527 387.674 504.223C387.652 503.984 387.717 503.8 387.869 503.669C388.043 503.518 388.227 503.442 388.422 503.442H390.995C391.082 503.442 391.158 503.452 391.223 503.474C391.288 503.496 391.375 503.561 391.483 503.669C391.765 503.908 392.058 504.158 392.362 504.418C392.688 504.679 393.068 504.907 393.502 505.102C393.936 505.276 394.479 505.363 395.13 505.363C395.976 505.363 396.682 505.2 397.246 504.874C397.832 504.527 398.125 504.039 398.125 503.409C398.125 502.953 397.995 502.584 397.735 502.302C397.496 502.02 397.04 501.77 396.367 501.553C395.694 501.314 394.739 501.065 393.502 500.804C392.286 500.522 391.277 500.164 390.474 499.73C389.671 499.296 389.074 498.753 388.683 498.102C388.292 497.45 388.097 496.691 388.097 495.822C388.097 494.976 388.346 494.173 388.846 493.413C389.367 492.632 390.126 491.991 391.125 491.492C392.145 490.993 393.404 490.743 394.902 490.743C396.074 490.743 397.094 490.895 397.963 491.199C398.831 491.481 399.547 491.839 400.112 492.273C400.698 492.708 401.143 493.153 401.447 493.608C401.75 494.043 401.913 494.422 401.935 494.748C401.957 494.987 401.892 495.182 401.74 495.334C401.588 495.464 401.414 495.529 401.219 495.529H398.809C398.701 495.529 398.603 495.508 398.516 495.464C398.429 495.421 398.343 495.367 398.256 495.301C398.017 495.084 397.756 494.857 397.474 494.618C397.192 494.379 396.845 494.173 396.432 493.999C396.042 493.804 395.521 493.706 394.869 493.706C394.045 493.706 393.415 493.891 392.981 494.26C392.547 494.607 392.33 495.052 392.33 495.595C392.33 495.964 392.427 496.289 392.623 496.571C392.84 496.832 393.263 497.081 393.893 497.32C394.522 497.559 395.477 497.809 396.758 498.069C398.212 498.33 399.363 498.72 400.209 499.241C401.078 499.741 401.685 500.327 402.033 501C402.402 501.651 402.586 502.378 402.586 503.181C402.586 504.158 402.293 505.037 401.707 505.818C401.143 506.6 400.296 507.219 399.167 507.674C398.06 508.109 396.682 508.326 395.032 508.326Z" fill="black"/>
<path d="M807.572 583.054C808.21 583.657 808.583 584.489 808.608 585.367C808.633 586.245 808.308 587.097 807.705 587.735L788.934 607.61C788.63 607.932 788.264 608.189 787.859 608.367C787.453 608.545 787.016 608.64 786.574 608.646C786.131 608.652 785.692 608.57 785.282 608.403C784.872 608.237 784.499 607.99 784.186 607.677L774.248 597.739C773.663 597.111 773.345 596.281 773.36 595.423C773.375 594.564 773.723 593.746 774.33 593.139C774.936 592.532 775.755 592.184 776.613 592.169C777.472 592.154 778.302 592.472 778.93 593.058L786.46 600.584L802.89 583.186C803.494 582.548 804.326 582.176 805.204 582.151C806.082 582.126 806.934 582.451 807.572 583.054Z" fill="#006F06"/>
<path d="M768.829 508.326C767.288 508.326 765.975 508.098 764.889 507.642C763.804 507.186 762.914 506.556 762.22 505.753C761.525 504.95 761.004 504.028 760.657 502.986C760.309 501.922 760.103 500.793 760.038 499.599C760.016 499.013 759.995 498.373 759.973 497.678C759.973 496.962 759.973 496.246 759.973 495.529C759.995 494.813 760.016 494.151 760.038 493.543C760.081 492.349 760.288 491.231 760.657 490.19C761.026 489.126 761.557 488.203 762.252 487.422C762.968 486.64 763.869 486.022 764.955 485.566C766.04 485.11 767.331 484.882 768.829 484.882C770.349 484.882 771.651 485.11 772.736 485.566C773.822 486.022 774.712 486.64 775.406 487.422C776.123 488.203 776.655 489.126 777.002 490.19C777.371 491.231 777.577 492.349 777.621 493.543C777.664 494.151 777.686 494.813 777.686 495.529C777.686 496.246 777.686 496.962 777.686 497.678C777.686 498.373 777.664 499.013 777.621 499.599C777.577 500.793 777.382 501.922 777.034 502.986C776.687 504.028 776.166 504.95 775.472 505.753C774.777 506.556 773.876 507.186 772.769 507.642C771.684 508.098 770.37 508.326 768.829 508.326ZM768.829 504.581C770.24 504.581 771.271 504.125 771.922 503.214C772.595 502.28 772.943 501.021 772.964 499.437C773.008 498.807 773.03 498.178 773.03 497.548C773.03 496.897 773.03 496.246 773.03 495.595C773.03 494.943 773.008 494.325 772.964 493.739C772.943 492.197 772.595 490.96 771.922 490.027C771.271 489.072 770.24 488.594 768.829 488.594C767.44 488.594 766.409 489.072 765.736 490.027C765.085 490.96 764.738 492.197 764.694 493.739C764.694 494.325 764.683 494.943 764.662 495.595C764.662 496.246 764.662 496.897 764.662 497.548C764.683 498.178 764.694 498.807 764.694 499.437C764.738 501.021 765.096 502.28 765.769 503.214C766.442 504.125 767.462 504.581 768.829 504.581ZM781.934 508C781.717 508 781.533 507.924 781.381 507.772C781.229 507.62 781.153 507.436 781.153 507.219V503.995C781.153 503.756 781.229 503.561 781.381 503.409C781.533 503.257 781.717 503.181 781.934 503.181H785.19C785.407 503.181 785.592 503.257 785.744 503.409C785.896 503.561 785.972 503.756 785.972 503.995V507.219C785.972 507.436 785.896 507.62 785.744 507.772C785.592 507.924 785.407 508 785.19 508H781.934ZM800.423 508C800.206 508 800.022 507.924 799.87 507.772C799.718 507.62 799.642 507.436 799.642 507.219V503.051H789.32C789.081 503.051 788.886 502.975 788.734 502.823C788.604 502.671 788.539 502.486 788.539 502.269V500.055C788.539 499.925 788.56 499.773 788.604 499.599C788.669 499.404 788.767 499.23 788.897 499.078L798.502 485.761C798.784 485.392 799.186 485.208 799.707 485.208H803.256C803.473 485.208 803.657 485.284 803.809 485.436C803.961 485.588 804.037 485.772 804.037 485.989V499.209H806.935C807.196 499.209 807.391 499.285 807.521 499.437C807.673 499.567 807.749 499.751 807.749 499.99V502.269C807.749 502.486 807.673 502.671 807.521 502.823C807.369 502.975 807.185 503.051 806.968 503.051H804.037V507.219C804.037 507.436 803.961 507.62 803.809 507.772C803.657 507.924 803.473 508 803.256 508H800.423ZM793.065 499.339H799.739V489.929L793.065 499.339ZM817.366 508.326C816.063 508.326 814.945 508.174 814.012 507.87C813.1 507.566 812.351 507.186 811.765 506.73C811.179 506.274 810.745 505.818 810.463 505.363C810.181 504.907 810.029 504.527 810.007 504.223C809.985 503.984 810.05 503.8 810.202 503.669C810.376 503.518 810.561 503.442 810.756 503.442H813.328C813.415 503.442 813.491 503.452 813.556 503.474C813.621 503.496 813.708 503.561 813.817 503.669C814.099 503.908 814.392 504.158 814.696 504.418C815.021 504.679 815.401 504.907 815.835 505.102C816.269 505.276 816.812 505.363 817.463 505.363C818.31 505.363 819.015 505.2 819.58 504.874C820.166 504.527 820.459 504.039 820.459 503.409C820.459 502.953 820.329 502.584 820.068 502.302C819.829 502.02 819.374 501.77 818.701 501.553C818.028 501.314 817.073 501.065 815.835 500.804C814.62 500.522 813.61 500.164 812.807 499.73C812.004 499.296 811.407 498.753 811.016 498.102C810.626 497.45 810.43 496.691 810.43 495.822C810.43 494.976 810.68 494.173 811.179 493.413C811.7 492.632 812.46 491.991 813.458 491.492C814.479 490.993 815.738 490.743 817.235 490.743C818.408 490.743 819.428 490.895 820.296 491.199C821.164 491.481 821.881 491.839 822.445 492.273C823.031 492.708 823.476 493.153 823.78 493.608C824.084 494.043 824.247 494.422 824.268 494.748C824.29 494.987 824.225 495.182 824.073 495.334C823.921 495.464 823.747 495.529 823.552 495.529H821.143C821.034 495.529 820.936 495.508 820.85 495.464C820.763 495.421 820.676 495.367 820.589 495.301C820.35 495.084 820.09 494.857 819.808 494.618C819.526 494.379 819.178 494.173 818.766 493.999C818.375 493.804 817.854 493.706 817.203 493.706C816.378 493.706 815.749 493.891 815.314 494.26C814.88 494.607 814.663 495.052 814.663 495.595C814.663 495.964 814.761 496.289 814.956 496.571C815.173 496.832 815.597 497.081 816.226 497.32C816.856 497.559 817.811 497.809 819.091 498.069C820.546 498.33 821.696 498.72 822.543 499.241C823.411 499.741 824.019 500.327 824.366 501C824.735 501.651 824.92 502.378 824.92 503.181C824.92 504.158 824.627 505.037 824.041 505.818C823.476 506.6 822.63 507.219 821.501 507.674C820.394 508.109 819.015 508.326 817.366 508.326Z" fill="black"/>
<circle cx="315.225" cy="322.008" r="14.5" transform="rotate(-0.1 315.225 322.008)" fill="#D9D9D9"/>
<circle cx="460.225" cy="321.755" r="14.5" transform="rotate(-0.1 460.225 321.755)" fill="#2D2D2D"/>
<circle cx="387.598" cy="249.382" r="14.5" transform="rotate(-0.1 387.598 249.382)" fill="#2D2D2D"/>
<circle cx="387.851" cy="394.381" r="14.5" transform="rotate(-0.1 387.851 394.381)" fill="#D9D9D9"/>
<circle cx="438.899" cy="270.527" r="14.5" transform="rotate(44.9 438.899 270.527)" fill="#2D2D2D"/>
<circle cx="336.548" cy="373.237" r="14.5" transform="rotate(44.9 336.548 373.237)" fill="#D9D9D9"/>
<circle cx="439.078" cy="373.057" r="14.5" transform="rotate(134.9 439.078 373.057)" fill="#D9D9D9"/>
<circle cx="336.369" cy="270.706" r="14.5" transform="rotate(134.9 336.369 270.706)" fill="#D9D9D9"/>
<circle cx="715.514" cy="322.008" r="14.5" transform="rotate(-0.1 715.514 322.008)" fill="#2D2D2D"/>
<circle cx="860.514" cy="321.755" r="14.5" transform="rotate(-0.1 860.514 321.755)" fill="#2D2D2D"/>
<circle cx="787.887" cy="249.382" r="14.5" transform="rotate(-0.1 787.887 249.382)" fill="#2D2D2D"/>
<circle cx="788.141" cy="394.381" r="14.5" transform="rotate(-0.1 788.141 394.381)" fill="#2D2D2D"/>
<circle cx="839.188" cy="270.527" r="14.5" transform="rotate(44.9 839.188 270.527)" fill="#2D2D2D"/>
<circle cx="736.837" cy="373.237" r="14.5" transform="rotate(44.9 736.837 373.237)" fill="#2D2D2D"/>
<circle cx="839.367" cy="373.057" r="14.5" transform="rotate(134.9 839.367 373.057)" fill="#2D2D2D"/>
<circle cx="736.658" cy="270.706" r="14.5" transform="rotate(134.9 736.658 270.706)" fill="#2D2D2D"/>
</svg>
