<svg width="1176" height="784" viewBox="0 0 1176 784" fill="none" xmlns="http://www.w3.org/2000/svg">
<rect width="1176" height="784" fill="#29815B"/>
<path d="M159 392H1027" stroke="white" stroke-width="10"/>
<circle cx="164" cy="392" r="24" fill="white"/>
<circle cx="376" cy="392" r="24" fill="white"/>
<circle cx="588" cy="392" r="24" fill="white"/>
<circle cx="800" cy="392" r="24" fill="white"/>
<circle cx="1012" cy="392" r="24" fill="white"/>
<path d="M139.457 444.212V468H134.326V452.538H128.549V448.97H129.16C132.762 448.97 134.869 447.407 135.481 444.212H139.457ZM144.169 462.019H148.757C149.13 463.854 150.218 464.738 152.019 464.738C152.835 464.738 153.548 464.534 154.126 464.058C154.704 463.616 155.145 462.971 155.451 462.155C155.723 461.339 155.961 460.626 156.097 459.946C156.233 459.267 156.335 458.485 156.403 457.601C155.111 459.436 153.412 460.354 151.305 460.354C149.097 460.354 147.295 459.64 145.868 458.145C144.441 456.684 143.761 454.815 143.761 452.504C143.761 450.091 144.577 448.086 146.208 446.455C147.839 444.824 149.878 444.009 152.325 444.009C153.888 444.009 155.281 444.348 156.471 445.028C157.66 445.708 158.578 446.591 159.257 447.713C159.903 448.868 160.379 450.091 160.718 451.383C161.024 452.708 161.194 454.101 161.194 455.596C161.194 457.16 161.024 458.621 160.718 460.048C160.379 461.475 159.903 462.835 159.223 464.126C158.544 465.417 157.592 466.471 156.369 467.252C155.111 468.034 153.65 468.408 151.985 468.408C149.81 468.408 148.043 467.83 146.616 466.675C145.223 465.519 144.407 463.99 144.169 462.019ZM152.223 447.984C151.135 447.984 150.252 448.426 149.538 449.242C148.825 450.057 148.485 451.111 148.485 452.334C148.485 453.626 148.825 454.645 149.538 455.461C150.218 456.276 151.135 456.684 152.257 456.684C153.344 456.684 154.228 456.276 154.941 455.461C155.655 454.645 156.029 453.626 156.029 452.368C156.029 451.145 155.655 450.091 154.941 449.242C154.194 448.426 153.31 447.984 152.223 447.984ZM180.553 450.397H175.931C175.489 448.63 174.436 447.713 172.737 447.713C170.086 447.713 168.591 450.091 168.217 454.781C169.542 453.014 171.309 452.096 173.518 452.096C175.693 452.096 177.494 452.844 178.888 454.305C180.281 455.8 180.96 457.669 180.96 459.946C180.994 462.427 180.213 464.466 178.616 466.029C177.018 467.626 174.98 468.408 172.499 468.408C169.712 468.408 167.503 467.388 165.906 465.315C164.343 463.242 163.528 460.354 163.528 456.616C163.528 452.708 164.377 449.65 166.008 447.407C167.673 445.164 169.95 444.043 172.805 444.043C174.98 444.043 176.713 444.62 178.072 445.708C179.431 446.829 180.247 448.392 180.553 450.397ZM172.397 455.698C171.309 455.698 170.426 456.14 169.712 456.956C169.033 457.805 168.659 458.859 168.659 460.116C168.659 461.407 169.033 462.461 169.712 463.276C170.426 464.092 171.343 464.5 172.431 464.5C173.552 464.5 174.47 464.092 175.183 463.242C175.931 462.427 176.271 461.373 176.271 460.082C176.271 458.825 175.931 457.771 175.183 456.956C174.47 456.14 173.552 455.698 172.397 455.698ZM183.634 462.019H188.221C188.595 463.854 189.682 464.738 191.484 464.738C192.299 464.738 193.013 464.534 193.59 464.058C194.168 463.616 194.61 462.971 194.916 462.155C195.188 461.339 195.425 460.626 195.561 459.946C195.697 459.267 195.799 458.485 195.867 457.601C194.576 459.436 192.877 460.354 190.77 460.354C188.561 460.354 186.76 459.64 185.333 458.145C183.905 456.684 183.226 454.815 183.226 452.504C183.226 450.091 184.041 448.086 185.673 446.455C187.304 444.824 189.343 444.009 191.789 444.009C193.353 444.009 194.746 444.348 195.935 445.028C197.125 445.708 198.042 446.591 198.722 447.713C199.367 448.868 199.843 450.091 200.183 451.383C200.489 452.708 200.659 454.101 200.659 455.596C200.659 457.16 200.489 458.621 200.183 460.048C199.843 461.475 199.367 462.835 198.688 464.126C198.008 465.417 197.057 466.471 195.833 467.252C194.576 468.034 193.115 468.408 191.45 468.408C189.275 468.408 187.508 467.83 186.08 466.675C184.687 465.519 183.871 463.99 183.634 462.019ZM191.687 447.984C190.6 447.984 189.716 448.426 189.003 449.242C188.289 450.057 187.949 451.111 187.949 452.334C187.949 453.626 188.289 454.645 189.003 455.461C189.682 456.276 190.6 456.684 191.721 456.684C192.809 456.684 193.692 456.276 194.406 455.461C195.12 454.645 195.493 453.626 195.493 452.368C195.493 451.145 195.12 450.091 194.406 449.242C193.658 448.426 192.775 447.984 191.687 447.984Z" fill="white"/>
<path d="M97.9864 287.462L105.032 306H100.768L99.3124 301.866H92.4224L90.9144 306H86.7544L93.8004 287.462H97.9864ZM98.3244 298.902L95.8804 292.012L93.4104 298.902H98.3244ZM114.381 292.35V295.756C113.861 295.652 113.367 295.6 112.951 295.6C111.729 295.6 110.845 295.99 110.273 296.77C109.701 297.55 109.415 298.564 109.415 299.864V306H105.723V292.584H109.233V295.054C110.117 293.208 111.547 292.272 113.575 292.272C113.731 292.272 114.017 292.298 114.381 292.35ZM127.592 300.826C127.358 302.568 126.682 303.92 125.538 304.908C124.394 305.87 122.938 306.364 121.17 306.364C119.09 306.364 117.452 305.714 116.204 304.466C114.956 303.192 114.332 301.502 114.332 299.396C114.332 297.238 114.956 295.496 116.204 294.17C117.452 292.87 119.142 292.194 121.222 292.194C122.99 292.194 124.446 292.662 125.59 293.572C126.708 294.482 127.358 295.704 127.514 297.264H123.9C123.614 295.73 122.73 294.95 121.248 294.95C120.234 294.95 119.454 295.34 118.882 296.12C118.31 296.9 118.05 297.966 118.05 299.344C118.05 300.67 118.31 301.71 118.856 302.438C119.402 303.166 120.182 303.53 121.17 303.53C122.782 303.53 123.718 302.646 124.03 300.826H127.592ZM132.875 287.488V294.404C133.915 292.974 135.345 292.272 137.113 292.272C140.233 292.272 141.819 293.91 141.819 297.238V306.026H138.127V298.122C138.127 297.186 137.945 296.484 137.633 296.016C137.295 295.522 136.671 295.288 135.761 295.288C134.643 295.288 133.889 295.626 133.473 296.354C133.057 297.056 132.875 297.992 132.875 299.162V306H129.235V287.488H132.875ZM147.897 287.488V290.608H144.205V287.488H147.897ZM147.897 292.584V306H144.205V292.584H147.897ZM157.669 292.584V295.106H154.939V301.424C154.939 301.814 154.939 302.1 154.965 302.282C154.965 302.464 155.043 302.646 155.147 302.854C155.251 303.036 155.407 303.166 155.615 303.218C155.823 303.27 156.135 303.296 156.551 303.296C156.993 303.296 157.357 303.296 157.669 303.244V306.052C156.759 306.13 156.005 306.156 155.433 306.156C153.821 306.156 152.703 305.896 152.131 305.324C151.559 304.752 151.273 303.66 151.273 302.048V295.08H149.037V292.584H151.273V288.528H154.939V292.584H157.669ZM171.515 301.84C171.099 303.296 170.319 304.414 169.201 305.194C168.083 306 166.757 306.39 165.197 306.39C163.143 306.39 161.479 305.766 160.231 304.466C158.983 303.192 158.359 301.502 158.359 299.37C158.359 297.29 158.983 295.574 160.257 294.222C161.505 292.87 163.117 292.194 165.093 292.194C167.121 292.194 168.733 292.896 169.929 294.274C171.125 295.652 171.723 297.524 171.723 299.864V300.228H162.103C162.103 301.398 162.389 302.282 162.935 302.88C163.481 303.504 164.261 303.79 165.249 303.79C166.549 303.79 167.459 303.14 167.979 301.84H171.515ZM167.953 297.888C167.875 297.004 167.589 296.302 167.095 295.73C166.627 295.158 165.951 294.872 165.067 294.872C164.261 294.872 163.585 295.158 163.039 295.678C162.519 296.224 162.181 296.952 162.077 297.888H167.953ZM186.107 300.826C185.873 302.568 185.197 303.92 184.053 304.908C182.909 305.87 181.453 306.364 179.685 306.364C177.605 306.364 175.967 305.714 174.719 304.466C173.471 303.192 172.847 301.502 172.847 299.396C172.847 297.238 173.471 295.496 174.719 294.17C175.967 292.87 177.657 292.194 179.737 292.194C181.505 292.194 182.961 292.662 184.105 293.572C185.223 294.482 185.873 295.704 186.029 297.264H182.415C182.129 295.73 181.245 294.95 179.763 294.95C178.749 294.95 177.969 295.34 177.397 296.12C176.825 296.9 176.565 297.966 176.565 299.344C176.565 300.67 176.825 301.71 177.371 302.438C177.917 303.166 178.697 303.53 179.685 303.53C181.297 303.53 182.233 302.646 182.545 300.826H186.107ZM195.109 292.584V295.106H192.379V301.424C192.379 301.814 192.379 302.1 192.405 302.282C192.405 302.464 192.483 302.646 192.587 302.854C192.691 303.036 192.847 303.166 193.055 303.218C193.263 303.27 193.575 303.296 193.991 303.296C194.433 303.296 194.797 303.296 195.109 303.244V306.052C194.199 306.13 193.445 306.156 192.873 306.156C191.261 306.156 190.143 305.896 189.571 305.324C188.999 304.752 188.713 303.66 188.713 302.048V295.08H186.477V292.584H188.713V288.528H192.379V292.584H195.109ZM208.929 292.584V306H205.419V304.102C204.379 305.636 202.923 306.39 201.051 306.39C199.569 306.39 198.425 306 197.593 305.194C196.761 304.388 196.371 303.192 196.371 301.606V292.584H200.089V300.254C200.089 300.774 200.089 301.164 200.141 301.476C200.193 301.788 200.271 302.074 200.427 302.386C200.557 302.698 200.791 302.932 201.103 303.088C201.415 303.244 201.831 303.296 202.351 303.296C204.275 303.296 205.263 302.048 205.263 299.5V292.584H208.929ZM219.947 292.35V295.756C219.427 295.652 218.933 295.6 218.517 295.6C217.295 295.6 216.411 295.99 215.839 296.77C215.267 297.55 214.981 298.564 214.981 299.864V306H211.289V292.584H214.799V295.054C215.683 293.208 217.113 292.272 219.141 292.272C219.297 292.272 219.583 292.298 219.947 292.35ZM233.303 306H229.533C229.429 305.662 229.325 305.22 229.273 304.7C228.155 305.844 226.699 306.39 224.931 306.39C223.449 306.39 222.279 306.052 221.421 305.324C220.589 304.596 220.147 303.608 220.147 302.334C220.147 301.762 220.225 301.268 220.381 300.826C220.537 300.41 220.771 300.046 221.109 299.734C221.447 299.448 221.759 299.214 222.071 299.006C222.383 298.824 222.799 298.668 223.319 298.538C223.865 298.434 224.307 298.33 224.619 298.278C224.957 298.226 225.425 298.148 226.023 298.07C227.323 297.914 228.181 297.732 228.623 297.524C229.065 297.342 229.299 296.978 229.299 296.458C229.299 295.262 228.493 294.664 226.881 294.664C226.023 294.664 225.399 294.82 225.009 295.132C224.593 295.444 224.333 295.964 224.229 296.718H220.771C220.979 293.702 223.033 292.194 226.985 292.194C230.885 292.194 232.835 293.65 232.835 296.562V302.36C232.835 304.076 232.991 305.272 233.303 306ZM229.247 299.474C228.831 299.734 227.947 299.994 226.647 300.202C225.555 300.358 224.853 300.592 224.515 300.852C224.151 301.164 223.943 301.632 223.943 302.204C223.943 302.75 224.125 303.192 224.489 303.504C224.853 303.816 225.347 303.972 225.971 303.972C226.959 303.972 227.765 303.712 228.363 303.192C228.961 302.672 229.247 301.918 229.247 300.982V299.474ZM239.028 287.488V306H235.336V287.488H239.028ZM94.0001 317.488H102.762C104.478 317.488 105.908 317.878 107 318.658C108.092 319.438 108.664 320.582 108.664 322.142C108.664 323.026 108.43 323.78 107.988 324.456C107.52 325.132 106.922 325.626 106.142 325.964C108.378 326.614 109.522 328.122 109.522 330.488C109.522 332.256 108.924 333.608 107.754 334.57C106.558 335.532 105.076 336 103.256 336H94.0001V317.488ZM97.9521 320.634V325.002H101.644C103.672 325.002 104.712 324.274 104.712 322.844C104.712 321.986 104.426 321.414 103.88 321.102C103.308 320.79 102.58 320.634 101.644 320.634H97.9521ZM97.9521 327.758L97.9261 332.802H102.008C103.074 332.802 103.906 332.62 104.53 332.282C105.154 331.918 105.466 331.268 105.466 330.28C105.466 329.266 105.128 328.59 104.478 328.252C103.828 327.914 102.944 327.758 101.826 327.758H97.9521ZM123.903 336H120.133C120.029 335.662 119.925 335.22 119.873 334.7C118.755 335.844 117.299 336.39 115.531 336.39C114.049 336.39 112.879 336.052 112.021 335.324C111.189 334.596 110.747 333.608 110.747 332.334C110.747 331.762 110.825 331.268 110.981 330.826C111.137 330.41 111.371 330.046 111.709 329.734C112.047 329.448 112.359 329.214 112.671 329.006C112.983 328.824 113.399 328.668 113.919 328.538C114.465 328.434 114.907 328.33 115.219 328.278C115.557 328.226 116.025 328.148 116.623 328.07C117.923 327.914 118.781 327.732 119.223 327.524C119.665 327.342 119.899 326.978 119.899 326.458C119.899 325.262 119.093 324.664 117.481 324.664C116.623 324.664 115.999 324.82 115.609 325.132C115.193 325.444 114.933 325.964 114.829 326.718H111.371C111.579 323.702 113.633 322.194 117.585 322.194C121.485 322.194 123.435 323.65 123.435 326.562V332.36C123.435 334.076 123.591 335.272 123.903 336ZM119.847 329.474C119.431 329.734 118.547 329.994 117.247 330.202C116.155 330.358 115.453 330.592 115.115 330.852C114.751 331.164 114.543 331.632 114.543 332.204C114.543 332.75 114.725 333.192 115.089 333.504C115.453 333.816 115.947 333.972 116.571 333.972C117.559 333.972 118.365 333.712 118.963 333.192C119.561 332.672 119.847 331.918 119.847 330.982V329.474ZM134.542 322.35V325.756C134.022 325.652 133.528 325.6 133.112 325.6C131.89 325.6 131.006 325.99 130.434 326.77C129.862 327.55 129.576 328.564 129.576 329.864V336H125.884V322.584H129.394V325.054C130.278 323.208 131.708 322.272 133.736 322.272C133.892 322.272 134.178 322.298 134.542 322.35ZM144.128 322.35V325.756C143.608 325.652 143.114 325.6 142.698 325.6C141.476 325.6 140.592 325.99 140.02 326.77C139.448 327.55 139.162 328.564 139.162 329.864V336H135.47V322.584H138.98V325.054C139.864 323.208 141.294 322.272 143.322 322.272C143.478 322.272 143.764 322.298 144.128 322.35ZM148.799 317.488V320.608H145.107V317.488H148.799ZM148.799 322.584V336H145.107V322.584H148.799ZM163.796 331.84C163.38 333.296 162.6 334.414 161.482 335.194C160.364 336 159.038 336.39 157.478 336.39C155.424 336.39 153.76 335.766 152.512 334.466C151.264 333.192 150.64 331.502 150.64 329.37C150.64 327.29 151.264 325.574 152.538 324.222C153.786 322.87 155.398 322.194 157.374 322.194C159.402 322.194 161.014 322.896 162.21 324.274C163.406 325.652 164.004 327.524 164.004 329.864V330.228H154.384C154.384 331.398 154.67 332.282 155.216 332.88C155.762 333.504 156.542 333.79 157.53 333.79C158.83 333.79 159.74 333.14 160.26 331.84H163.796ZM160.234 327.888C160.156 327.004 159.87 326.302 159.376 325.73C158.908 325.158 158.232 324.872 157.348 324.872C156.542 324.872 155.866 325.158 155.32 325.678C154.8 326.224 154.462 326.952 154.358 327.888H160.234ZM174.306 322.35V325.756C173.786 325.652 173.292 325.6 172.876 325.6C171.654 325.6 170.77 325.99 170.198 326.77C169.626 327.55 169.34 328.564 169.34 329.864V336H165.648V322.584H169.158V325.054C170.042 323.208 171.472 322.272 173.5 322.272C173.656 322.272 173.942 322.298 174.306 322.35ZM186.518 326.484L183.06 326.51C182.956 325.834 182.722 325.34 182.306 325.08C181.89 324.794 181.292 324.664 180.512 324.664C179.862 324.664 179.342 324.768 178.978 325.002C178.614 325.236 178.432 325.574 178.432 325.99C178.432 326.458 178.64 326.796 179.056 327.004C179.472 327.186 180.226 327.394 181.292 327.628C181.5 327.654 181.63 327.68 181.708 327.706C182.332 327.81 182.852 327.914 183.216 328.018C183.58 328.122 184.048 328.278 184.568 328.486C185.114 328.694 185.53 328.954 185.816 329.214C186.128 329.474 186.388 329.838 186.596 330.28C186.83 330.748 186.934 331.268 186.934 331.84C186.934 333.244 186.388 334.362 185.296 335.168C184.204 336 182.722 336.39 180.798 336.39C178.978 336.39 177.496 336 176.3 335.22C175.13 334.44 174.532 333.244 174.506 331.632H178.016C178.146 333.14 179.108 333.868 180.876 333.868C181.63 333.868 182.228 333.738 182.67 333.426C183.112 333.114 183.32 332.724 183.32 332.204C183.32 331.71 183.138 331.346 182.722 331.138C182.332 330.93 181.604 330.722 180.512 330.462C180.434 330.462 180.356 330.436 180.304 330.41C180.2 330.384 179.914 330.332 179.498 330.228C179.082 330.15 178.796 330.098 178.64 330.046C178.484 329.994 178.198 329.916 177.834 329.812C177.47 329.708 177.184 329.63 177.002 329.526C176.846 329.422 176.612 329.318 176.326 329.162C176.04 329.006 175.832 328.85 175.676 328.668C175.546 328.512 175.39 328.304 175.234 328.07C175.078 327.836 174.948 327.576 174.896 327.264C174.844 326.978 174.818 326.666 174.818 326.302C174.818 325.002 175.312 323.988 176.352 323.26C177.366 322.558 178.822 322.194 180.694 322.194C182.358 322.194 183.736 322.558 184.828 323.234C185.894 323.936 186.466 325.028 186.518 326.484ZM204.937 317.462L211.983 336H207.719L206.263 331.866H199.373L197.865 336H193.705L200.751 317.462H204.937ZM205.275 328.902L202.831 322.012L200.361 328.902H205.275ZM225.414 330.826C225.18 332.568 224.504 333.92 223.36 334.908C222.216 335.87 220.76 336.364 218.992 336.364C216.912 336.364 215.274 335.714 214.026 334.466C212.778 333.192 212.154 331.502 212.154 329.396C212.154 327.238 212.778 325.496 214.026 324.17C215.274 322.87 216.964 322.194 219.044 322.194C220.812 322.194 222.268 322.662 223.412 323.572C224.53 324.482 225.18 325.704 225.336 327.264H221.722C221.436 325.73 220.552 324.95 219.07 324.95C218.056 324.95 217.276 325.34 216.704 326.12C216.132 326.9 215.872 327.966 215.872 329.344C215.872 330.67 216.132 331.71 216.678 332.438C217.224 333.166 218.004 333.53 218.992 333.53C220.604 333.53 221.54 332.646 221.852 330.826H225.414ZM234.415 322.584V325.106H231.685V331.424C231.685 331.814 231.685 332.1 231.711 332.282C231.711 332.464 231.789 332.646 231.893 332.854C231.997 333.036 232.153 333.166 232.361 333.218C232.569 333.27 232.881 333.296 233.297 333.296C233.739 333.296 234.103 333.296 234.415 333.244V336.052C233.505 336.13 232.751 336.156 232.179 336.156C230.567 336.156 229.449 335.896 228.877 335.324C228.305 334.752 228.019 333.66 228.019 332.048V325.08H225.783V322.584H228.019V318.528H231.685V322.584H234.415Z" fill="white"/>
<path d="M321.36 323L317.486 323.026C317.33 321.18 316.16 320.27 313.976 320.27C313.04 320.27 312.312 320.452 311.792 320.816C311.272 321.18 310.986 321.7 310.986 322.376C310.986 322.584 311.038 322.792 311.09 322.974C311.168 323.13 311.298 323.286 311.48 323.442C311.688 323.598 311.87 323.702 312.052 323.806C312.26 323.91 312.546 324.014 312.91 324.118C313.274 324.222 313.612 324.326 313.924 324.43C314.236 324.508 314.652 324.612 315.198 324.768C315.77 324.898 316.238 325.028 316.654 325.158C318.474 325.678 319.852 326.328 320.736 327.108C321.62 327.888 322.062 329.006 322.062 330.462C322.062 331.502 321.854 332.438 321.412 333.218C320.996 333.998 320.398 334.622 319.67 335.09C318.942 335.558 318.136 335.896 317.252 336.104C316.368 336.312 315.432 336.442 314.444 336.442C311.948 336.442 309.972 335.844 308.568 334.7C307.164 333.556 306.436 331.918 306.41 329.838H310.44C310.518 332.152 311.922 333.322 314.626 333.322C315.692 333.322 316.524 333.088 317.148 332.646C317.772 332.204 318.058 331.606 318.058 330.852C318.058 330.202 317.798 329.734 317.226 329.448C316.654 329.136 315.484 328.746 313.664 328.226C313.56 328.2 313.482 328.174 313.43 328.174C313.378 328.148 313.326 328.122 313.222 328.096C313.144 328.07 313.066 328.044 312.988 328.044C312.364 327.862 311.948 327.732 311.688 327.654C311.454 327.576 311.064 327.446 310.544 327.264C310.024 327.056 309.634 326.9 309.4 326.744C309.14 326.588 308.854 326.354 308.49 326.094C308.126 325.808 307.892 325.522 307.736 325.21C307.58 324.898 307.424 324.534 307.294 324.092C307.164 323.65 307.112 323.182 307.112 322.662C307.112 320.972 307.762 319.62 309.062 318.606C310.362 317.618 312.078 317.098 314.236 317.098C316.316 317.098 318.006 317.592 319.332 318.58C320.632 319.568 321.308 321.024 321.36 323ZM336.242 331.84C335.826 333.296 335.046 334.414 333.928 335.194C332.81 336 331.484 336.39 329.924 336.39C327.87 336.39 326.206 335.766 324.958 334.466C323.71 333.192 323.086 331.502 323.086 329.37C323.086 327.29 323.71 325.574 324.984 324.222C326.232 322.87 327.844 322.194 329.82 322.194C331.848 322.194 333.46 322.896 334.656 324.274C335.852 325.652 336.45 327.524 336.45 329.864V330.228H326.83C326.83 331.398 327.116 332.282 327.662 332.88C328.208 333.504 328.988 333.79 329.976 333.79C331.276 333.79 332.186 333.14 332.706 331.84H336.242ZM332.68 327.888C332.602 327.004 332.316 326.302 331.822 325.73C331.354 325.158 330.678 324.872 329.794 324.872C328.988 324.872 328.312 325.158 327.766 325.678C327.246 326.224 326.908 326.952 326.804 327.888H332.68ZM350.834 330.826C350.6 332.568 349.924 333.92 348.78 334.908C347.636 335.87 346.18 336.364 344.412 336.364C342.332 336.364 340.694 335.714 339.446 334.466C338.198 333.192 337.574 331.502 337.574 329.396C337.574 327.238 338.198 325.496 339.446 324.17C340.694 322.87 342.384 322.194 344.464 322.194C346.232 322.194 347.688 322.662 348.832 323.572C349.95 324.482 350.6 325.704 350.756 327.264H347.142C346.856 325.73 345.972 324.95 344.49 324.95C343.476 324.95 342.696 325.34 342.124 326.12C341.552 326.9 341.292 327.966 341.292 329.344C341.292 330.67 341.552 331.71 342.098 332.438C342.644 333.166 343.424 333.53 344.412 333.53C346.024 333.53 346.96 332.646 347.272 330.826H350.834ZM359.836 322.584V325.106H357.106V331.424C357.106 331.814 357.106 332.1 357.132 332.282C357.132 332.464 357.21 332.646 357.314 332.854C357.418 333.036 357.574 333.166 357.782 333.218C357.99 333.27 358.302 333.296 358.718 333.296C359.16 333.296 359.524 333.296 359.836 333.244V336.052C358.926 336.13 358.172 336.156 357.6 336.156C355.988 336.156 354.87 335.896 354.298 335.324C353.726 334.752 353.44 333.66 353.44 332.048V325.08H351.204V322.584H353.44V318.528H357.106V322.584H359.836ZM364.868 317.488V320.608H361.176V317.488H364.868ZM364.868 322.584V336H361.176V322.584H364.868ZM373.86 322.194C375.914 322.194 377.578 322.844 378.826 324.144C380.074 325.444 380.724 327.16 380.724 329.292C380.724 331.45 380.074 333.166 378.826 334.466C377.578 335.766 375.888 336.416 373.808 336.416C371.702 336.416 370.012 335.766 368.764 334.466C367.49 333.166 366.866 331.45 366.866 329.292C366.866 327.16 367.49 325.444 368.79 324.144C370.064 322.844 371.754 322.194 373.86 322.194ZM373.756 325.002C372.768 325.002 371.988 325.392 371.416 326.172C370.844 326.926 370.558 327.966 370.558 329.318C370.558 330.67 370.844 331.736 371.416 332.516C371.988 333.27 372.768 333.66 373.808 333.66C374.822 333.66 375.602 333.27 376.174 332.49C376.746 331.71 377.032 330.644 377.032 329.266C377.032 327.94 376.72 326.9 376.148 326.146C375.576 325.392 374.77 325.002 373.756 325.002ZM395.266 336H391.522V328.174C391.522 327.238 391.366 326.51 391.054 326.016C390.742 325.522 390.118 325.262 389.234 325.262C387.284 325.262 386.322 326.458 386.322 328.798V336H382.656V322.584H386.166V324.456C387.258 322.974 388.74 322.22 390.612 322.22C392.042 322.22 393.186 322.636 394.018 323.468C394.85 324.3 395.266 325.496 395.266 327.03V336ZM415.627 317.956L415.601 321.102H408.139L407.437 325.054C408.295 324.222 409.413 323.78 410.791 323.78C412.559 323.78 413.963 324.326 415.003 325.418C416.069 326.51 416.589 327.966 416.589 329.734C416.589 331.658 415.965 333.218 414.665 334.44C413.391 335.688 411.753 336.286 409.725 336.286C407.827 336.286 406.267 335.818 405.071 334.83C403.875 333.842 403.225 332.438 403.121 330.618H406.761C406.839 331.424 407.151 332.074 407.697 332.568C408.243 333.062 408.919 333.296 409.751 333.296C410.661 333.296 411.415 332.984 412.013 332.334C412.585 331.684 412.897 330.852 412.897 329.812C412.897 328.798 412.611 327.992 412.039 327.368C411.467 326.77 410.687 326.458 409.725 326.458C408.555 326.458 407.645 326.978 406.995 327.966H403.693L405.461 317.956H415.627ZM424.016 317.696C425.004 317.696 425.914 317.904 426.694 318.294C427.474 318.658 428.124 319.152 428.592 319.776C429.086 320.374 429.502 321.102 429.814 321.934C430.126 322.766 430.36 323.598 430.464 324.43C430.594 325.262 430.646 326.12 430.646 327.056C430.646 329.942 430.074 332.204 428.878 333.842C427.708 335.506 426.096 336.312 424.016 336.312C421.91 336.312 420.272 335.506 419.076 333.868C417.88 332.23 417.282 329.942 417.282 327.03C417.282 325.886 417.412 324.794 417.62 323.754C417.854 322.714 418.218 321.726 418.712 320.79C419.18 319.854 419.882 319.1 420.792 318.528C421.702 317.982 422.768 317.696 424.016 317.696ZM423.964 320.764C423.496 320.764 423.054 320.868 422.69 321.076C422.326 321.284 422.04 321.57 421.832 321.986C421.624 322.402 421.442 322.792 421.312 323.156C421.182 323.52 421.078 324.014 421.026 324.612C420.974 325.21 420.948 325.678 420.948 325.99C420.948 326.302 420.922 326.718 420.922 327.238C420.922 331.294 421.962 333.348 423.99 333.348C426.018 333.348 427.006 331.242 427.006 327.056C427.006 324.872 426.772 323.286 426.278 322.272C425.81 321.258 425.03 320.764 423.964 320.764ZM444.703 328.746V331.814H442.259V336H438.827V331.814H431.027V328.408L438.931 317.748H442.259V328.746H444.703ZM438.827 328.746V321.986L433.991 328.746H438.827Z" fill="white"/>
<path d="M528.837 317.462L535.883 336H531.619L530.163 331.866H523.273L521.765 336H517.605L524.651 317.462H528.837ZM529.175 328.902L526.731 322.012L524.261 328.902H529.175ZM536.938 336V317.488H544.426C547.286 317.488 549.496 318.294 551.056 319.88C552.616 321.492 553.396 323.78 553.396 326.744C553.396 329.734 552.616 332.022 551.056 333.608C549.496 335.22 547.286 336 544.426 336H536.938ZM540.968 332.62H543.906C547.494 332.62 549.288 330.67 549.288 326.744C549.288 324.872 548.846 323.416 547.962 322.402C547.078 321.388 545.726 320.868 543.932 320.868H540.968V332.62ZM564.867 317.462L571.913 336H567.649L566.193 331.866H559.303L557.795 336H553.635L560.681 317.462H564.867ZM565.205 328.902L562.761 322.012L560.291 328.902H565.205ZM594.01 327.056C593.802 328.902 593.204 330.41 592.242 331.606L596.012 336H591.514L589.98 334.18C588.602 335.662 586.886 336.39 584.806 336.39C583.09 336.39 581.66 335.922 580.49 334.934C579.32 333.946 578.748 332.62 578.748 330.93C578.748 329.708 579.138 328.616 579.918 327.68C580.698 326.744 581.686 325.99 582.934 325.444C581.764 324.04 581.192 322.766 581.192 321.596C581.192 320.348 581.66 319.308 582.596 318.476C583.532 317.67 584.728 317.254 586.184 317.254C587.562 317.254 588.706 317.67 589.616 318.502C590.526 319.334 590.994 320.4 590.994 321.648C590.994 323.624 589.902 325.184 587.77 326.328L590.162 329.24C590.448 328.72 590.682 327.992 590.838 327.056H594.01ZM585.95 324.144C586.626 323.728 587.12 323.338 587.432 322.922C587.718 322.532 587.874 322.09 587.874 321.57C587.874 321.076 587.692 320.66 587.38 320.348C587.068 320.036 586.652 319.854 586.184 319.854C585.69 319.854 585.274 320.01 584.962 320.322C584.624 320.634 584.468 321.024 584.468 321.466C584.468 322.142 584.962 323.052 585.95 324.144ZM584.832 327.836C583.168 328.694 582.336 329.682 582.336 330.826C582.336 331.528 582.57 332.126 583.09 332.594C583.61 333.088 584.234 333.322 584.962 333.322C586.054 333.322 587.068 332.802 588.03 331.71L584.832 327.836ZM603.679 336V317.488H611.167C614.027 317.488 616.237 318.294 617.797 319.88C619.357 321.492 620.137 323.78 620.137 326.744C620.137 329.734 619.357 332.022 617.797 333.608C616.237 335.22 614.027 336 611.167 336H603.679ZM607.709 332.62H610.647C614.235 332.62 616.029 330.67 616.029 326.744C616.029 324.872 615.587 323.416 614.703 322.402C613.819 321.388 612.467 320.868 610.673 320.868H607.709V332.62ZM622.431 336V317.488H629.919C632.779 317.488 634.989 318.294 636.549 319.88C638.109 321.492 638.889 323.78 638.889 326.744C638.889 329.734 638.109 332.022 636.549 333.608C634.989 335.22 632.779 336 629.919 336H622.431ZM626.461 332.62H629.399C632.987 332.62 634.781 330.67 634.781 326.744C634.781 324.872 634.339 323.416 633.455 322.402C632.571 321.388 631.219 320.868 629.425 320.868H626.461V332.62ZM650.36 317.462L657.406 336H653.142L651.686 331.866H644.796L643.288 336H639.128L646.174 317.462H650.36ZM650.698 328.902L648.254 322.012L645.784 328.902H650.698Z" fill="white"/>
<path d="M739.039 317.488H743.121L746.085 330.072L749.335 317.488H753.157L756.355 330.228L759.423 317.488H763.427L758.435 336H754.379L751.207 323.364L748.087 336H743.953L739.039 317.488ZM781.323 328.85C781.115 331.19 780.283 333.036 778.879 334.414C777.449 335.766 775.499 336.468 773.029 336.468C770.325 336.468 768.167 335.558 766.529 333.79C764.891 332.022 764.085 329.656 764.085 326.744C764.085 323.962 764.891 321.648 766.555 319.828C768.219 317.982 770.429 317.072 773.185 317.072C775.369 317.072 777.215 317.696 778.723 318.944C780.205 320.192 781.037 321.778 781.193 323.702H777.215C777.007 322.662 776.539 321.882 775.811 321.31C775.083 320.738 774.199 320.478 773.107 320.478C771.963 320.478 771.027 320.79 770.247 321.414C769.467 322.038 768.947 322.818 768.635 323.728C768.323 324.664 768.167 325.652 768.167 326.744C768.167 328.668 768.609 330.176 769.493 331.32C770.377 332.464 771.547 333.01 773.055 333.01C775.525 333.01 776.929 331.632 777.293 328.85H781.323ZM792.743 317.462L799.789 336H795.525L794.069 331.866H787.179L785.671 336H781.511L788.557 317.462H792.743ZM793.081 328.902L790.637 322.012L788.167 328.902H793.081ZM817.302 325.99L817.276 336H814.702L814.312 333.894C812.934 335.61 811.088 336.442 808.748 336.442C806.174 336.442 804.068 335.558 802.456 333.764C800.844 331.996 800.038 329.682 800.038 326.822C800.038 323.962 800.896 321.648 802.586 319.828C804.302 318.008 806.486 317.098 809.138 317.098C811.27 317.098 813.038 317.696 814.494 318.892C815.95 320.088 816.808 321.648 817.042 323.572H813.116C812.934 322.61 812.492 321.856 811.764 321.31C811.062 320.79 810.178 320.504 809.112 320.504C807.552 320.504 806.356 321.076 805.472 322.194C804.588 323.312 804.146 324.846 804.146 326.822C804.146 328.85 804.588 330.41 805.472 331.528C806.356 332.646 807.63 333.192 809.242 333.192C810.49 333.192 811.53 332.828 812.362 332.048C813.168 331.268 813.61 330.254 813.662 329.006H809.528V325.99H817.302ZM835.245 317.8V336H831.319V324.17H826.899V321.44H827.367C830.123 321.44 831.735 320.244 832.203 317.8H835.245ZM844.544 331.944V336H840.436V331.944H844.544ZM852.846 317.696C853.834 317.696 854.744 317.904 855.524 318.294C856.304 318.658 856.954 319.152 857.422 319.776C857.916 320.374 858.332 321.102 858.644 321.934C858.956 322.766 859.19 323.598 859.294 324.43C859.424 325.262 859.476 326.12 859.476 327.056C859.476 329.942 858.904 332.204 857.708 333.842C856.538 335.506 854.926 336.312 852.846 336.312C850.74 336.312 849.102 335.506 847.906 333.868C846.71 332.23 846.112 329.942 846.112 327.03C846.112 325.886 846.242 324.794 846.45 323.754C846.684 322.714 847.048 321.726 847.542 320.79C848.01 319.854 848.712 319.1 849.622 318.528C850.532 317.982 851.598 317.696 852.846 317.696ZM852.794 320.764C852.326 320.764 851.884 320.868 851.52 321.076C851.156 321.284 850.87 321.57 850.662 321.986C850.454 322.402 850.272 322.792 850.142 323.156C850.012 323.52 849.908 324.014 849.856 324.612C849.804 325.21 849.778 325.678 849.778 325.99C849.778 326.302 849.752 326.718 849.752 327.238C849.752 331.294 850.792 333.348 852.82 333.348C854.848 333.348 855.836 331.242 855.836 327.056C855.836 324.872 855.602 323.286 855.108 322.272C854.64 321.258 853.86 320.764 852.794 320.764Z" fill="white"/>
<path d="M1001.47 317.488V320.816H991.615V324.846H1000.66V328.044H991.615V332.594H1001.65V336H987.585V317.488H1001.47ZM1013.13 317.462L1020.17 336H1015.91L1014.45 331.866H1007.56L1006.06 336H1001.9L1008.94 317.462H1013.13ZM1013.47 328.902L1011.02 322.012L1008.55 328.902H1013.47ZM1030.41 317.462L1037.45 336H1033.19L1031.73 331.866H1024.84L1023.34 336H1019.18L1026.22 317.462H1030.41ZM1030.75 328.902L1028.3 322.012L1025.83 328.902H1030.75Z" fill="white"/>
<path d="M352.457 444.212V468H347.326V452.538H341.549V448.97H342.16C345.762 448.97 347.869 447.407 348.481 444.212H352.457ZM357.169 462.019H361.757C362.13 463.854 363.218 464.738 365.019 464.738C365.835 464.738 366.548 464.534 367.126 464.058C367.704 463.616 368.145 462.971 368.451 462.155C368.723 461.339 368.961 460.626 369.097 459.946C369.233 459.267 369.335 458.485 369.403 457.601C368.111 459.436 366.412 460.354 364.305 460.354C362.097 460.354 360.295 459.64 358.868 458.145C357.441 456.684 356.761 454.815 356.761 452.504C356.761 450.091 357.577 448.086 359.208 446.455C360.839 444.824 362.878 444.009 365.325 444.009C366.888 444.009 368.281 444.348 369.471 445.028C370.66 445.708 371.578 446.591 372.257 447.713C372.903 448.868 373.379 450.091 373.718 451.383C374.024 452.708 374.194 454.101 374.194 455.596C374.194 457.16 374.024 458.621 373.718 460.048C373.379 461.475 372.903 462.835 372.223 464.126C371.544 465.417 370.592 466.471 369.369 467.252C368.111 468.034 366.65 468.408 364.985 468.408C362.81 468.408 361.043 467.83 359.616 466.675C358.223 465.519 357.407 463.99 357.169 462.019ZM365.223 447.984C364.135 447.984 363.252 448.426 362.538 449.242C361.825 450.057 361.485 451.111 361.485 452.334C361.485 453.626 361.825 454.645 362.538 455.461C363.218 456.276 364.135 456.684 365.257 456.684C366.344 456.684 367.228 456.276 367.941 455.461C368.655 454.645 369.029 453.626 369.029 452.368C369.029 451.145 368.655 450.091 367.941 449.242C367.194 448.426 366.31 447.984 365.223 447.984ZM391.548 444.416L391.514 448.392C388.897 451.281 386.994 454.237 385.805 457.296C384.615 460.354 383.902 463.922 383.664 468H378.668C378.668 465.145 379.484 461.781 381.115 457.839C382.746 453.897 384.581 450.873 386.654 448.766H375.304V444.416H391.548ZM393.337 451.994C393.405 449.548 394.187 447.611 395.614 446.183C397.075 444.756 399.046 444.043 401.527 444.043C403.906 444.043 405.809 444.654 407.27 445.878C408.731 447.101 409.445 448.664 409.445 450.601C409.445 451.756 409.173 452.742 408.561 453.592C407.95 454.441 407.134 455.019 406.115 455.291C407.44 455.596 408.459 456.242 409.207 457.194C409.955 458.145 410.328 459.335 410.328 460.728C410.328 463.005 409.513 464.874 407.882 466.301C406.251 467.728 404.11 468.442 401.493 468.442C398.808 468.442 396.668 467.694 395.07 466.199C393.507 464.704 392.692 462.699 392.692 460.15V459.81H397.347C397.381 461.305 397.755 462.427 398.435 463.209C399.114 463.99 400.1 464.364 401.391 464.364C402.581 464.364 403.532 464.058 404.246 463.378C404.993 462.699 405.333 461.849 405.333 460.762C405.333 459.538 404.959 458.621 404.144 458.077C403.328 457.533 402.309 457.228 401.017 457.228C400.542 457.228 400.168 457.262 399.828 457.262V453.863C400.1 453.897 400.372 453.897 400.644 453.897C403.43 453.897 404.789 452.912 404.789 450.907C404.789 450.023 404.517 449.276 403.906 448.732C403.294 448.188 402.513 447.916 401.493 447.916C400.372 447.916 399.488 448.29 398.876 448.97C398.265 449.684 397.925 450.703 397.925 451.994H393.337Z" fill="white"/>
<path d="M991.943 463.82V468.034H974.51C974.51 466.947 974.646 465.961 974.918 465.078C975.189 464.194 975.495 463.446 975.835 462.835C976.175 462.223 976.719 461.577 977.466 460.898C978.18 460.218 978.825 459.674 979.369 459.267C979.913 458.859 980.728 458.281 981.816 457.567C981.952 457.466 982.292 457.228 982.903 456.854C983.481 456.446 983.889 456.174 984.127 456.038C984.331 455.868 984.67 455.596 985.146 455.189C985.588 454.781 985.894 454.441 986.098 454.135C986.302 453.863 986.471 453.49 986.675 453.048C986.845 452.606 986.947 452.13 986.947 451.655C986.947 450.635 986.607 449.786 985.996 449.174C985.384 448.562 984.568 448.222 983.549 448.222C981.102 448.222 979.811 449.955 979.675 453.388H975.053V452.878C975.053 450.193 975.835 448.052 977.398 446.455C978.961 444.858 981.068 444.043 983.719 444.043C986.098 444.043 988.069 444.722 989.564 446.081C991.059 447.441 991.807 449.174 991.807 451.315C991.807 453.082 991.399 454.475 990.617 455.495C989.802 456.548 988.578 457.635 986.879 458.791C986.641 458.961 986.234 459.233 985.622 459.64C985.01 460.048 984.501 460.354 984.161 460.626C983.821 460.864 983.379 461.17 982.903 461.543C982.394 461.951 981.952 462.325 981.612 462.699C981.238 463.073 980.932 463.446 980.695 463.82H991.943ZM1002.36 444.077C1003.66 444.077 1004.84 444.348 1005.86 444.858C1006.88 445.334 1007.73 445.98 1008.34 446.795C1008.99 447.577 1009.53 448.528 1009.94 449.616C1010.35 450.703 1010.66 451.79 1010.79 452.878C1010.96 453.965 1011.03 455.087 1011.03 456.31C1011.03 460.082 1010.28 463.039 1008.72 465.179C1007.19 467.354 1005.08 468.408 1002.36 468.408C999.611 468.408 997.47 467.354 995.907 465.213C994.344 463.073 993.562 460.082 993.562 456.276C993.562 454.781 993.732 453.354 994.004 451.994C994.31 450.635 994.786 449.344 995.431 448.12C996.043 446.897 996.961 445.912 998.15 445.164C999.339 444.45 1000.73 444.077 1002.36 444.077ZM1002.3 448.086C1001.68 448.086 1001.11 448.222 1000.63 448.494C1000.15 448.766 999.781 449.14 999.509 449.684C999.237 450.227 999 450.737 998.83 451.213C998.66 451.689 998.524 452.334 998.456 453.116C998.388 453.897 998.354 454.509 998.354 454.917C998.354 455.325 998.32 455.868 998.32 456.548C998.32 461.849 999.679 464.534 1002.33 464.534C1004.98 464.534 1006.27 461.781 1006.27 456.31C1006.27 453.456 1005.97 451.383 1005.32 450.057C1004.71 448.732 1003.69 448.086 1002.3 448.086ZM1029.71 463.82V468.034H1012.28C1012.28 466.947 1012.41 465.961 1012.68 465.078C1012.95 464.194 1013.26 463.446 1013.6 462.835C1013.94 462.223 1014.48 461.577 1015.23 460.898C1015.95 460.218 1016.59 459.674 1017.13 459.267C1017.68 458.859 1018.49 458.281 1019.58 457.567C1019.72 457.466 1020.06 457.228 1020.67 456.854C1021.25 456.446 1021.65 456.174 1021.89 456.038C1022.1 455.868 1022.44 455.596 1022.91 455.189C1023.35 454.781 1023.66 454.441 1023.86 454.135C1024.07 453.863 1024.24 453.49 1024.44 453.048C1024.61 452.606 1024.71 452.13 1024.71 451.655C1024.71 450.635 1024.37 449.786 1023.76 449.174C1023.15 448.562 1022.33 448.222 1021.31 448.222C1018.87 448.222 1017.58 449.955 1017.44 453.388H1012.82V452.878C1012.82 450.193 1013.6 448.052 1015.16 446.455C1016.73 444.858 1018.83 444.043 1021.48 444.043C1023.86 444.043 1025.83 444.722 1027.33 446.081C1028.82 447.441 1029.57 449.174 1029.57 451.315C1029.57 453.082 1029.16 454.475 1028.38 455.495C1027.57 456.548 1026.34 457.635 1024.64 458.791C1024.41 458.961 1024 459.233 1023.39 459.64C1022.78 460.048 1022.27 460.354 1021.93 460.626C1021.59 460.864 1021.14 461.17 1020.67 461.543C1020.16 461.951 1019.72 462.325 1019.38 462.699C1019 463.073 1018.7 463.446 1018.46 463.82H1029.71ZM1047.37 444.416L1047.33 448.528H1037.58L1036.66 453.693C1037.78 452.606 1039.25 452.028 1041.05 452.028C1043.36 452.028 1045.19 452.742 1046.55 454.169C1047.95 455.596 1048.62 457.499 1048.62 459.81C1048.62 462.325 1047.81 464.364 1046.11 465.961C1044.44 467.592 1042.3 468.374 1039.65 468.374C1037.17 468.374 1035.13 467.762 1033.57 466.471C1032.01 465.179 1031.16 463.344 1031.02 460.966H1035.78C1035.88 462.019 1036.29 462.869 1037 463.514C1037.72 464.16 1038.6 464.466 1039.69 464.466C1040.88 464.466 1041.86 464.058 1042.64 463.209C1043.39 462.359 1043.8 461.272 1043.8 459.912C1043.8 458.587 1043.43 457.533 1042.68 456.718C1041.93 455.936 1040.91 455.529 1039.65 455.529C1038.12 455.529 1036.93 456.208 1036.09 457.499H1031.77L1034.08 444.416H1047.37Z" fill="white"/>
<path d="M555.457 444.212V468H550.326V452.538H544.549V448.97H545.16C548.762 448.97 550.869 447.407 551.481 444.212H555.457ZM559.489 462.019H564.077C564.451 463.854 565.538 464.738 567.339 464.738C568.155 464.738 568.869 464.534 569.446 464.058C570.024 463.616 570.466 462.971 570.772 462.155C571.043 461.339 571.281 460.626 571.417 459.946C571.553 459.267 571.655 458.485 571.723 457.601C570.432 459.436 568.733 460.354 566.626 460.354C564.417 460.354 562.616 459.64 561.189 458.145C559.761 456.684 559.082 454.815 559.082 452.504C559.082 450.091 559.897 448.086 561.528 446.455C563.16 444.824 565.198 444.009 567.645 444.009C569.208 444.009 570.602 444.348 571.791 445.028C572.98 445.708 573.898 446.591 574.578 447.713C575.223 448.868 575.699 450.091 576.039 451.383C576.345 452.708 576.515 454.101 576.515 455.596C576.515 457.16 576.345 458.621 576.039 460.048C575.699 461.475 575.223 462.835 574.544 464.126C573.864 465.417 572.912 466.471 571.689 467.252C570.432 468.034 568.97 468.408 567.305 468.408C565.13 468.408 563.363 467.83 561.936 466.675C560.543 465.519 559.727 463.99 559.489 462.019ZM567.543 447.984C566.456 447.984 565.572 448.426 564.859 449.242C564.145 450.057 563.805 451.111 563.805 452.334C563.805 453.626 564.145 454.645 564.859 455.461C565.538 456.276 566.456 456.684 567.577 456.684C568.665 456.684 569.548 456.276 570.262 455.461C570.975 454.645 571.349 453.626 571.349 452.368C571.349 451.145 570.975 450.091 570.262 449.242C569.514 448.426 568.631 447.984 567.543 447.984ZM578.712 462.019H583.3C583.673 463.854 584.761 464.738 586.562 464.738C587.377 464.738 588.091 464.534 588.669 464.058C589.246 463.616 589.688 462.971 589.994 462.155C590.266 461.339 590.504 460.626 590.64 459.946C590.776 459.267 590.878 458.485 590.946 457.601C589.654 459.436 587.955 460.354 585.848 460.354C583.639 460.354 581.838 459.64 580.411 458.145C578.984 456.684 578.304 454.815 578.304 452.504C578.304 450.091 579.12 448.086 580.751 446.455C582.382 444.824 584.421 444.009 586.868 444.009C588.431 444.009 589.824 444.348 591.014 445.028C592.203 445.708 593.12 446.591 593.8 447.713C594.446 448.868 594.921 450.091 595.261 451.383C595.567 452.708 595.737 454.101 595.737 455.596C595.737 457.16 595.567 458.621 595.261 460.048C594.921 461.475 594.446 462.835 593.766 464.126C593.086 465.417 592.135 466.471 590.912 467.252C589.654 468.034 588.193 468.408 586.528 468.408C584.353 468.408 582.586 467.83 581.159 466.675C579.765 465.519 578.95 463.99 578.712 462.019ZM586.766 447.984C585.678 447.984 584.795 448.426 584.081 449.242C583.368 450.057 583.028 451.111 583.028 452.334C583.028 453.626 583.368 454.645 584.081 455.461C584.761 456.276 585.678 456.684 586.8 456.684C587.887 456.684 588.771 456.276 589.484 455.461C590.198 454.645 590.572 453.626 590.572 452.368C590.572 451.145 590.198 450.091 589.484 449.242C588.737 448.426 587.853 447.984 586.766 447.984ZM605.75 444.077C607.042 444.077 608.231 444.348 609.251 444.858C610.27 445.334 611.12 445.98 611.731 446.795C612.377 447.577 612.921 448.528 613.328 449.616C613.736 450.703 614.042 451.79 614.178 452.878C614.348 453.965 614.416 455.087 614.416 456.31C614.416 460.082 613.668 463.039 612.105 465.179C610.576 467.354 608.469 468.408 605.75 468.408C602.998 468.408 600.857 467.354 599.294 465.213C597.731 463.073 596.949 460.082 596.949 456.276C596.949 454.781 597.119 453.354 597.391 451.994C597.697 450.635 598.172 449.344 598.818 448.12C599.43 446.897 600.347 445.912 601.537 445.164C602.726 444.45 604.119 444.077 605.75 444.077ZM605.682 448.086C605.071 448.086 604.493 448.222 604.017 448.494C603.542 448.766 603.168 449.14 602.896 449.684C602.624 450.227 602.386 450.737 602.216 451.213C602.046 451.689 601.91 452.334 601.842 453.116C601.774 453.897 601.741 454.509 601.741 454.917C601.741 455.325 601.707 455.868 601.707 456.548C601.707 461.849 603.066 464.534 605.716 464.534C608.367 464.534 609.658 461.781 609.658 456.31C609.658 453.456 609.353 451.383 608.707 450.057C608.095 448.732 607.076 448.086 605.682 448.086ZM631.124 455.563L626.604 455.596C626.468 454.713 626.162 454.067 625.619 453.727C625.075 453.354 624.293 453.184 623.274 453.184C622.424 453.184 621.745 453.32 621.269 453.626C620.793 453.931 620.555 454.373 620.555 454.917C620.555 455.529 620.827 455.97 621.371 456.242C621.915 456.48 622.9 456.752 624.293 457.058C624.565 457.092 624.735 457.126 624.837 457.16C625.653 457.296 626.332 457.432 626.808 457.567C627.284 457.703 627.895 457.907 628.575 458.179C629.289 458.451 629.832 458.791 630.206 459.131C630.614 459.47 630.954 459.946 631.226 460.524C631.532 461.136 631.667 461.815 631.667 462.563C631.667 464.398 630.954 465.859 629.527 466.913C628.099 468 626.162 468.51 623.648 468.51C621.269 468.51 619.332 468 617.769 466.981C616.24 465.961 615.458 464.398 615.424 462.291H620.012C620.181 464.262 621.439 465.213 623.75 465.213C624.735 465.213 625.517 465.044 626.094 464.636C626.672 464.228 626.944 463.718 626.944 463.039C626.944 462.393 626.706 461.917 626.162 461.645C625.653 461.373 624.701 461.102 623.274 460.762C623.172 460.762 623.07 460.728 623.002 460.694C622.866 460.66 622.492 460.592 621.949 460.456C621.405 460.354 621.031 460.286 620.827 460.218C620.623 460.15 620.249 460.048 619.774 459.912C619.298 459.776 618.924 459.674 618.686 459.538C618.482 459.402 618.176 459.267 617.803 459.063C617.429 458.859 617.157 458.655 616.953 458.417C616.783 458.213 616.579 457.941 616.375 457.635C616.172 457.33 616.002 456.99 615.934 456.582C615.866 456.208 615.832 455.8 615.832 455.325C615.832 453.626 616.477 452.3 617.837 451.349C619.162 450.431 621.065 449.955 623.512 449.955C625.687 449.955 627.488 450.431 628.915 451.315C630.308 452.232 631.056 453.659 631.124 455.563Z" fill="white"/>
<path d="M776.457 444.212V468H771.326V452.538H765.549V448.97H766.16C769.762 448.97 771.869 447.407 772.481 444.212H776.457ZM780.489 462.019H785.077C785.451 463.854 786.538 464.738 788.339 464.738C789.155 464.738 789.869 464.534 790.446 464.058C791.024 463.616 791.466 462.971 791.772 462.155C792.043 461.339 792.281 460.626 792.417 459.946C792.553 459.267 792.655 458.485 792.723 457.601C791.432 459.436 789.733 460.354 787.626 460.354C785.417 460.354 783.616 459.64 782.189 458.145C780.761 456.684 780.082 454.815 780.082 452.504C780.082 450.091 780.897 448.086 782.528 446.455C784.16 444.824 786.198 444.009 788.645 444.009C790.208 444.009 791.602 444.348 792.791 445.028C793.98 445.708 794.898 446.591 795.578 447.713C796.223 448.868 796.699 450.091 797.039 451.383C797.345 452.708 797.515 454.101 797.515 455.596C797.515 457.16 797.345 458.621 797.039 460.048C796.699 461.475 796.223 462.835 795.544 464.126C794.864 465.417 793.912 466.471 792.689 467.252C791.432 468.034 789.97 468.408 788.305 468.408C786.13 468.408 784.363 467.83 782.936 466.675C781.543 465.519 780.727 463.99 780.489 462.019ZM788.543 447.984C787.456 447.984 786.572 448.426 785.859 449.242C785.145 450.057 784.805 451.111 784.805 452.334C784.805 453.626 785.145 454.645 785.859 455.461C786.538 456.276 787.456 456.684 788.577 456.684C789.665 456.684 790.548 456.276 791.262 455.461C791.975 454.645 792.349 453.626 792.349 452.368C792.349 451.145 791.975 450.091 791.262 449.242C790.514 448.426 789.631 447.984 788.543 447.984ZM799.712 462.019H804.3C804.673 463.854 805.761 464.738 807.562 464.738C808.377 464.738 809.091 464.534 809.669 464.058C810.246 463.616 810.688 462.971 810.994 462.155C811.266 461.339 811.504 460.626 811.64 459.946C811.776 459.267 811.878 458.485 811.946 457.601C810.654 459.436 808.955 460.354 806.848 460.354C804.639 460.354 802.838 459.64 801.411 458.145C799.984 456.684 799.304 454.815 799.304 452.504C799.304 450.091 800.12 448.086 801.751 446.455C803.382 444.824 805.421 444.009 807.868 444.009C809.431 444.009 810.824 444.348 812.014 445.028C813.203 445.708 814.12 446.591 814.8 447.713C815.446 448.868 815.921 450.091 816.261 451.383C816.567 452.708 816.737 454.101 816.737 455.596C816.737 457.16 816.567 458.621 816.261 460.048C815.921 461.475 815.446 462.835 814.766 464.126C814.086 465.417 813.135 466.471 811.912 467.252C810.654 468.034 809.193 468.408 807.528 468.408C805.353 468.408 803.586 467.83 802.159 466.675C800.765 465.519 799.95 463.99 799.712 462.019ZM807.766 447.984C806.678 447.984 805.795 448.426 805.081 449.242C804.368 450.057 804.028 451.111 804.028 452.334C804.028 453.626 804.368 454.645 805.081 455.461C805.761 456.276 806.678 456.684 807.8 456.684C808.887 456.684 809.771 456.276 810.484 455.461C811.198 454.645 811.572 453.626 811.572 452.368C811.572 451.145 811.198 450.091 810.484 449.242C809.737 448.426 808.853 447.984 807.766 447.984ZM818.255 462.019H822.842C823.216 463.854 824.304 464.738 826.105 464.738C826.92 464.738 827.634 464.534 828.212 464.058C828.789 463.616 829.231 462.971 829.537 462.155C829.809 461.339 830.047 460.626 830.183 459.946C830.319 459.267 830.42 458.485 830.488 457.601C829.197 459.436 827.498 460.354 825.391 460.354C823.182 460.354 821.381 459.64 819.954 458.145C818.527 456.684 817.847 454.815 817.847 452.504C817.847 450.091 818.663 448.086 820.294 446.455C821.925 444.824 823.964 444.009 826.411 444.009C827.974 444.009 829.367 444.348 830.556 445.028C831.746 445.708 832.663 446.591 833.343 447.713C833.989 448.868 834.464 450.091 834.804 451.383C835.11 452.708 835.28 454.101 835.28 455.596C835.28 457.16 835.11 458.621 834.804 460.048C834.464 461.475 833.989 462.835 833.309 464.126C832.629 465.417 831.678 466.471 830.454 467.252C829.197 468.034 827.736 468.408 826.071 468.408C823.896 468.408 822.129 467.83 820.702 466.675C819.308 465.519 818.493 463.99 818.255 462.019ZM826.309 447.984C825.221 447.984 824.338 448.426 823.624 449.242C822.91 450.057 822.571 451.111 822.571 452.334C822.571 453.626 822.91 454.645 823.624 455.461C824.304 456.276 825.221 456.684 826.343 456.684C827.43 456.684 828.314 456.276 829.027 455.461C829.741 454.645 830.115 453.626 830.115 452.368C830.115 451.145 829.741 450.091 829.027 449.242C828.28 448.426 827.396 447.984 826.309 447.984Z" fill="white"/>
</svg>
