<svg width="1176" height="784" viewBox="0 0 1176 784" fill="none" xmlns="http://www.w3.org/2000/svg">
<rect width="1176" height="784" fill="#29815B"/>
<path d="M159 392H1027" stroke="white" stroke-width="10"/>
<circle cx="164" cy="392" r="24" fill="white"/>
<circle cx="376" cy="392" r="24" fill="white"/>
<circle cx="588" cy="392" r="24" fill="white"/>
<circle cx="800" cy="392" r="24" fill="white"/>
<circle cx="1012" cy="392" r="24" fill="white"/>
<path d="M135.413 471C135.187 471 134.983 470.921 134.801 470.762C134.643 470.604 134.564 470.4 134.564 470.15V453.261L129.67 457.033C129.466 457.192 129.251 457.249 129.024 457.203C128.821 457.158 128.639 457.033 128.481 456.829L126.782 454.621C126.646 454.417 126.589 454.201 126.612 453.975C126.657 453.748 126.782 453.567 126.985 453.431L134.733 447.45C134.869 447.36 134.994 447.303 135.107 447.28C135.243 447.235 135.39 447.212 135.549 447.212H139.151C139.378 447.212 139.57 447.292 139.729 447.45C139.887 447.609 139.967 447.813 139.967 448.062V470.15C139.967 470.4 139.887 470.604 139.729 470.762C139.57 470.921 139.378 471 139.151 471H135.413ZM146.645 471C146.441 471 146.271 470.932 146.135 470.796C145.999 470.638 145.931 470.456 145.931 470.252C145.931 470.139 145.942 470.048 145.965 469.981C146.01 469.913 146.044 469.856 146.067 469.811L150.994 463.082C150.587 463.173 150.179 463.207 149.771 463.184C148.684 463.139 147.653 462.924 146.679 462.538C145.705 462.131 144.832 461.576 144.062 460.873C143.292 460.171 142.691 459.344 142.261 458.393C141.831 457.441 141.615 456.388 141.615 455.232C141.615 454.19 141.808 453.171 142.193 452.174C142.601 451.177 143.201 450.282 143.994 449.489C144.787 448.696 145.773 448.062 146.951 447.586C148.129 447.11 149.499 446.873 151.062 446.873C152.626 446.873 153.996 447.088 155.174 447.518C156.375 447.949 157.383 448.549 158.199 449.319C159.014 450.067 159.626 450.939 160.034 451.936C160.442 452.91 160.645 453.952 160.645 455.062C160.645 456.059 160.476 456.988 160.136 457.849C159.796 458.71 159.377 459.514 158.878 460.262C158.38 461.009 157.882 461.734 157.383 462.436L151.674 470.32C151.583 470.434 151.448 470.581 151.266 470.762C151.085 470.921 150.825 471 150.485 471H146.645ZM151.096 459.174C151.844 459.174 152.524 459.016 153.135 458.698C153.747 458.381 154.223 457.928 154.563 457.339C154.925 456.75 155.106 456.048 155.106 455.232C155.106 454.394 154.925 453.68 154.563 453.091C154.223 452.502 153.747 452.049 153.135 451.732C152.524 451.415 151.844 451.256 151.096 451.256C150.371 451.256 149.703 451.415 149.091 451.732C148.48 452.049 147.993 452.502 147.63 453.091C147.29 453.68 147.12 454.394 147.12 455.232C147.12 456.048 147.29 456.75 147.63 457.339C147.993 457.928 148.48 458.381 149.091 458.698C149.703 459.016 150.371 459.174 151.096 459.174ZM170.74 471.34C168.746 471.34 167.013 470.977 165.54 470.252C164.091 469.527 162.958 468.531 162.142 467.262C161.349 465.971 160.953 464.521 160.953 462.912C160.953 462.233 161.055 461.553 161.259 460.873C161.463 460.194 161.712 459.559 162.006 458.97C162.301 458.359 162.595 457.815 162.89 457.339C163.207 456.863 163.468 456.478 163.671 456.184L169.788 447.892C169.902 447.779 170.049 447.643 170.23 447.484C170.411 447.303 170.66 447.212 170.978 447.212H174.784C174.988 447.212 175.157 447.292 175.293 447.45C175.429 447.586 175.497 447.756 175.497 447.96C175.497 448.051 175.486 448.141 175.463 448.232C175.441 448.3 175.407 448.357 175.361 448.402L170.672 454.824C170.853 454.779 171.057 454.745 171.283 454.723C171.533 454.7 171.748 454.689 171.929 454.689C173.017 454.734 174.059 454.96 175.055 455.368C176.075 455.776 176.981 456.342 177.774 457.067C178.567 457.77 179.19 458.608 179.643 459.582C180.119 460.556 180.357 461.644 180.357 462.844C180.357 464.362 179.96 465.767 179.167 467.058C178.397 468.349 177.287 469.392 175.837 470.184C174.41 470.955 172.711 471.34 170.74 471.34ZM170.672 466.956C171.419 466.956 172.11 466.809 172.745 466.514C173.379 466.197 173.889 465.733 174.274 465.121C174.659 464.509 174.852 463.773 174.852 462.912C174.852 462.029 174.659 461.292 174.274 460.703C173.889 460.092 173.379 459.639 172.745 459.344C172.11 459.027 171.419 458.868 170.672 458.868C169.924 458.868 169.233 459.027 168.599 459.344C167.965 459.639 167.455 460.092 167.07 460.703C166.685 461.292 166.492 462.029 166.492 462.912C166.492 463.773 166.685 464.509 167.07 465.121C167.477 465.733 167.987 466.197 168.599 466.514C169.233 466.809 169.924 466.956 170.672 466.956ZM186.089 471C185.885 471 185.716 470.932 185.58 470.796C185.444 470.638 185.376 470.456 185.376 470.252C185.376 470.139 185.387 470.048 185.41 469.981C185.455 469.913 185.489 469.856 185.512 469.811L190.439 463.082C190.031 463.173 189.624 463.207 189.216 463.184C188.128 463.139 187.097 462.924 186.123 462.538C185.149 462.131 184.277 461.576 183.507 460.873C182.736 460.171 182.136 459.344 181.706 458.393C181.275 457.441 181.06 456.388 181.06 455.232C181.06 454.19 181.253 453.171 181.638 452.174C182.045 451.177 182.646 450.282 183.439 449.489C184.232 448.696 185.217 448.062 186.395 447.586C187.573 447.11 188.944 446.873 190.507 446.873C192.07 446.873 193.441 447.088 194.619 447.518C195.82 447.949 196.828 448.549 197.643 449.319C198.459 450.067 199.071 450.939 199.478 451.936C199.886 452.91 200.09 453.952 200.09 455.062C200.09 456.059 199.92 456.988 199.58 457.849C199.24 458.71 198.821 459.514 198.323 460.262C197.825 461.009 197.326 461.734 196.828 462.436L191.119 470.32C191.028 470.434 190.892 470.581 190.711 470.762C190.53 470.921 190.269 471 189.929 471H186.089ZM190.541 459.174C191.289 459.174 191.968 459.016 192.58 458.698C193.192 458.381 193.667 457.928 194.007 457.339C194.37 456.75 194.551 456.048 194.551 455.232C194.551 454.394 194.37 453.68 194.007 453.091C193.667 452.502 193.192 452.049 192.58 451.732C191.968 451.415 191.289 451.256 190.541 451.256C189.816 451.256 189.148 451.415 188.536 451.732C187.924 452.049 187.437 452.502 187.075 453.091C186.735 453.68 186.565 454.394 186.565 455.232C186.565 456.048 186.735 456.75 187.075 457.339C187.437 457.928 187.924 458.381 188.536 458.698C189.148 459.016 189.816 459.174 190.541 459.174Z" fill="white"/>
<path d="M81.9431 308C81.7871 308 81.6571 307.948 81.5531 307.844C81.4491 307.723 81.3971 307.593 81.3971 307.454C81.3971 307.367 81.4057 307.289 81.4231 307.22L87.6111 290.502C87.6631 290.311 87.7671 290.147 87.9231 290.008C88.0791 289.869 88.2957 289.8 88.5731 289.8H91.9011C92.1784 289.8 92.3951 289.869 92.5511 290.008C92.7071 290.147 92.8111 290.311 92.8631 290.502L99.0511 307.22C99.0684 307.289 99.0771 307.367 99.0771 307.454C99.0771 307.593 99.0251 307.723 98.9211 307.844C98.8171 307.948 98.6871 308 98.5311 308H95.8271C95.5671 308 95.3764 307.939 95.2551 307.818C95.1337 307.697 95.0557 307.584 95.0211 307.48L93.9031 304.568H86.5711L85.4531 307.48C85.4184 307.584 85.3404 307.697 85.2191 307.818C85.0977 307.939 84.9071 308 84.6471 308H81.9431ZM87.5331 301.214H92.9151L90.2371 293.726L87.5331 301.214ZM101.134 308C100.96 308 100.813 307.939 100.692 307.818C100.57 307.697 100.51 307.541 100.51 307.35V295.13C100.51 294.957 100.57 294.809 100.692 294.688C100.813 294.549 100.96 294.48 101.134 294.48H103.682C103.855 294.48 104.002 294.549 104.124 294.688C104.262 294.809 104.332 294.957 104.332 295.13V296.17C104.765 295.633 105.294 295.217 105.918 294.922C106.559 294.627 107.296 294.48 108.128 294.48H109.246C109.419 294.48 109.566 294.541 109.688 294.662C109.809 294.783 109.87 294.939 109.87 295.13V297.366C109.87 297.557 109.809 297.713 109.688 297.834C109.566 297.955 109.419 298.016 109.246 298.016H106.958C106.195 298.016 105.597 298.233 105.164 298.666C104.73 299.082 104.514 299.68 104.514 300.46V307.35C104.514 307.541 104.453 307.697 104.332 307.818C104.21 307.939 104.054 308 103.864 308H101.134ZM117.142 308.26C115.877 308.26 114.759 308.026 113.788 307.558C112.835 307.09 112.081 306.414 111.526 305.53C110.972 304.629 110.668 303.554 110.616 302.306C110.599 302.029 110.59 301.682 110.59 301.266C110.59 300.833 110.599 300.477 110.616 300.2C110.668 298.935 110.963 297.86 111.5 296.976C112.055 296.075 112.818 295.39 113.788 294.922C114.759 294.454 115.877 294.22 117.142 294.22C118.304 294.22 119.292 294.385 120.106 294.714C120.921 295.026 121.588 295.425 122.108 295.91C122.628 296.395 123.01 296.907 123.252 297.444C123.512 297.964 123.651 298.423 123.668 298.822C123.686 298.995 123.625 299.151 123.486 299.29C123.365 299.411 123.218 299.472 123.044 299.472H120.262C120.089 299.472 119.95 299.429 119.846 299.342C119.76 299.238 119.673 299.099 119.586 298.926C119.344 298.319 119.032 297.886 118.65 297.626C118.269 297.366 117.792 297.236 117.22 297.236C116.44 297.236 115.825 297.487 115.374 297.99C114.924 298.493 114.681 299.273 114.646 300.33C114.629 301.006 114.629 301.621 114.646 302.176C114.698 303.251 114.941 304.031 115.374 304.516C115.825 305.001 116.44 305.244 117.22 305.244C117.827 305.244 118.312 305.114 118.676 304.854C119.04 304.594 119.344 304.161 119.586 303.554C119.656 303.381 119.742 303.251 119.846 303.164C119.95 303.06 120.089 303.008 120.262 303.008H123.044C123.218 303.008 123.365 303.077 123.486 303.216C123.625 303.337 123.686 303.485 123.668 303.658C123.651 303.953 123.564 304.299 123.408 304.698C123.27 305.097 123.036 305.504 122.706 305.92C122.394 306.336 121.987 306.726 121.484 307.09C120.982 307.437 120.366 307.723 119.638 307.948C118.928 308.156 118.096 308.26 117.142 308.26ZM126.348 308C126.158 308 126.002 307.939 125.88 307.818C125.759 307.697 125.698 307.541 125.698 307.35V290.19C125.698 289.999 125.759 289.843 125.88 289.722C126.002 289.601 126.158 289.54 126.348 289.54H129.156C129.33 289.54 129.477 289.601 129.598 289.722C129.72 289.843 129.78 289.999 129.78 290.19V296.04C130.248 295.485 130.82 295.043 131.496 294.714C132.172 294.385 132.987 294.22 133.94 294.22C134.963 294.22 135.864 294.454 136.644 294.922C137.442 295.373 138.066 296.04 138.516 296.924C138.967 297.791 139.192 298.848 139.192 300.096V307.35C139.192 307.541 139.132 307.697 139.01 307.818C138.889 307.939 138.733 308 138.542 308H135.708C135.535 308 135.388 307.939 135.266 307.818C135.145 307.697 135.084 307.541 135.084 307.35V300.252C135.084 299.333 134.859 298.623 134.408 298.12C133.958 297.6 133.316 297.34 132.484 297.34C131.67 297.34 131.011 297.6 130.508 298.12C130.023 298.623 129.78 299.333 129.78 300.252V307.35C129.78 307.541 129.72 307.697 129.598 307.818C129.477 307.939 129.33 308 129.156 308H126.348ZM142.408 308C142.234 308 142.087 307.939 141.966 307.818C141.844 307.697 141.784 307.541 141.784 307.35V295.13C141.784 294.939 141.844 294.783 141.966 294.662C142.087 294.541 142.234 294.48 142.408 294.48H145.008C145.198 294.48 145.354 294.541 145.476 294.662C145.597 294.783 145.658 294.939 145.658 295.13V307.35C145.658 307.541 145.597 307.697 145.476 307.818C145.354 307.939 145.198 308 145.008 308H142.408ZM142.33 292.4C142.156 292.4 142.009 292.339 141.888 292.218C141.766 292.097 141.706 291.941 141.706 291.75V289.67C141.706 289.479 141.766 289.323 141.888 289.202C142.009 289.063 142.156 288.994 142.33 288.994H145.06C145.25 288.994 145.406 289.063 145.528 289.202C145.666 289.323 145.736 289.479 145.736 289.67V291.75C145.736 291.941 145.666 292.097 145.528 292.218C145.406 292.339 145.25 292.4 145.06 292.4H142.33ZM154.898 308C153.824 308 152.905 307.827 152.142 307.48C151.38 307.116 150.799 306.561 150.4 305.816C150.019 305.071 149.828 304.135 149.828 303.008V297.548H147.8C147.61 297.548 147.454 297.487 147.332 297.366C147.211 297.245 147.15 297.089 147.15 296.898V295.13C147.15 294.939 147.211 294.783 147.332 294.662C147.454 294.541 147.61 294.48 147.8 294.48H149.828V290.19C149.828 289.999 149.889 289.843 150.01 289.722C150.149 289.601 150.305 289.54 150.478 289.54H153.026C153.217 289.54 153.373 289.601 153.494 289.722C153.616 289.843 153.676 289.999 153.676 290.19V294.48H156.926C157.1 294.48 157.247 294.541 157.368 294.662C157.49 294.783 157.55 294.939 157.55 295.13V296.898C157.55 297.089 157.49 297.245 157.368 297.366C157.247 297.487 157.1 297.548 156.926 297.548H153.676V302.696C153.676 303.355 153.789 303.875 154.014 304.256C154.257 304.62 154.673 304.802 155.262 304.802H157.16C157.334 304.802 157.481 304.863 157.602 304.984C157.724 305.105 157.784 305.253 157.784 305.426V307.35C157.784 307.541 157.724 307.697 157.602 307.818C157.481 307.939 157.334 308 157.16 308H154.898ZM165.565 308.26C163.571 308.26 161.985 307.705 160.807 306.596C159.645 305.487 159.03 303.875 158.961 301.76C158.961 301.621 158.961 301.439 158.961 301.214C158.961 300.971 158.961 300.781 158.961 300.642C159.03 299.307 159.333 298.163 159.871 297.21C160.408 296.239 161.162 295.503 162.133 295C163.103 294.48 164.239 294.22 165.539 294.22C166.995 294.22 168.208 294.523 169.179 295.13C170.167 295.719 170.903 296.534 171.389 297.574C171.891 298.597 172.143 299.775 172.143 301.11V301.708C172.143 301.881 172.073 302.029 171.935 302.15C171.813 302.271 171.666 302.332 171.493 302.332H162.991C162.991 302.349 162.991 302.384 162.991 302.436C162.991 302.471 162.991 302.505 162.991 302.54C163.008 303.095 163.112 303.606 163.303 304.074C163.511 304.525 163.797 304.889 164.161 305.166C164.542 305.443 164.993 305.582 165.513 305.582C165.946 305.582 166.301 305.521 166.579 305.4C166.856 305.279 167.081 305.131 167.255 304.958C167.445 304.785 167.584 304.637 167.671 304.516C167.827 304.343 167.948 304.239 168.035 304.204C168.139 304.152 168.295 304.126 168.503 304.126H171.207C171.38 304.126 171.519 304.178 171.623 304.282C171.744 304.369 171.796 304.499 171.779 304.672C171.761 304.949 171.614 305.296 171.337 305.712C171.077 306.111 170.687 306.509 170.167 306.908C169.647 307.289 168.997 307.61 168.217 307.87C167.454 308.13 166.57 308.26 165.565 308.26ZM162.991 299.966H168.087V299.914C168.087 299.29 167.983 298.753 167.775 298.302C167.584 297.834 167.298 297.47 166.917 297.21C166.535 296.95 166.076 296.82 165.539 296.82C165.001 296.82 164.542 296.95 164.161 297.21C163.779 297.47 163.485 297.834 163.277 298.302C163.086 298.753 162.991 299.29 162.991 299.914V299.966ZM180.228 308.26C178.962 308.26 177.844 308.026 176.874 307.558C175.92 307.09 175.166 306.414 174.612 305.53C174.057 304.629 173.754 303.554 173.702 302.306C173.684 302.029 173.676 301.682 173.676 301.266C173.676 300.833 173.684 300.477 173.702 300.2C173.754 298.935 174.048 297.86 174.586 296.976C175.14 296.075 175.903 295.39 176.874 294.922C177.844 294.454 178.962 294.22 180.228 294.22C181.389 294.22 182.377 294.385 183.192 294.714C184.006 295.026 184.674 295.425 185.194 295.91C185.714 296.395 186.095 296.907 186.338 297.444C186.598 297.964 186.736 298.423 186.754 298.822C186.771 298.995 186.71 299.151 186.572 299.29C186.45 299.411 186.303 299.472 186.13 299.472H183.348C183.174 299.472 183.036 299.429 182.932 299.342C182.845 299.238 182.758 299.099 182.672 298.926C182.429 298.319 182.117 297.886 181.736 297.626C181.354 297.366 180.878 297.236 180.306 297.236C179.526 297.236 178.91 297.487 178.46 297.99C178.009 298.493 177.766 299.273 177.732 300.33C177.714 301.006 177.714 301.621 177.732 302.176C177.784 303.251 178.026 304.031 178.46 304.516C178.91 305.001 179.526 305.244 180.306 305.244C180.912 305.244 181.398 305.114 181.762 304.854C182.126 304.594 182.429 304.161 182.672 303.554C182.741 303.381 182.828 303.251 182.932 303.164C183.036 303.06 183.174 303.008 183.348 303.008H186.13C186.303 303.008 186.45 303.077 186.572 303.216C186.71 303.337 186.771 303.485 186.754 303.658C186.736 303.953 186.65 304.299 186.494 304.698C186.355 305.097 186.121 305.504 185.792 305.92C185.48 306.336 185.072 306.726 184.57 307.09C184.067 307.437 183.452 307.723 182.724 307.948C182.013 308.156 181.181 308.26 180.228 308.26ZM195.284 308C194.209 308 193.29 307.827 192.528 307.48C191.765 307.116 191.184 306.561 190.786 305.816C190.404 305.071 190.214 304.135 190.214 303.008V297.548H188.186C187.995 297.548 187.839 297.487 187.718 297.366C187.596 297.245 187.536 297.089 187.536 296.898V295.13C187.536 294.939 187.596 294.783 187.718 294.662C187.839 294.541 187.995 294.48 188.186 294.48H190.214V290.19C190.214 289.999 190.274 289.843 190.396 289.722C190.534 289.601 190.69 289.54 190.864 289.54H193.412C193.602 289.54 193.758 289.601 193.88 289.722C194.001 289.843 194.062 289.999 194.062 290.19V294.48H197.312C197.485 294.48 197.632 294.541 197.754 294.662C197.875 294.783 197.936 294.939 197.936 295.13V296.898C197.936 297.089 197.875 297.245 197.754 297.366C197.632 297.487 197.485 297.548 197.312 297.548H194.062V302.696C194.062 303.355 194.174 303.875 194.4 304.256C194.642 304.62 195.058 304.802 195.648 304.802H197.546C197.719 304.802 197.866 304.863 197.988 304.984C198.109 305.105 198.17 305.253 198.17 305.426V307.35C198.17 307.541 198.109 307.697 197.988 307.818C197.866 307.939 197.719 308 197.546 308H195.284ZM204.884 308.26C203.879 308.26 202.986 308.035 202.206 307.584C201.443 307.116 200.845 306.449 200.412 305.582C199.996 304.698 199.788 303.632 199.788 302.384V295.13C199.788 294.939 199.849 294.783 199.97 294.662C200.091 294.541 200.239 294.48 200.412 294.48H203.168C203.359 294.48 203.515 294.541 203.636 294.662C203.757 294.783 203.818 294.939 203.818 295.13V302.228C203.818 304.169 204.667 305.14 206.366 305.14C207.181 305.14 207.822 304.889 208.29 304.386C208.775 303.866 209.018 303.147 209.018 302.228V295.13C209.018 294.939 209.079 294.783 209.2 294.662C209.321 294.541 209.477 294.48 209.668 294.48H212.424C212.597 294.48 212.745 294.541 212.866 294.662C212.987 294.783 213.048 294.939 213.048 295.13V307.35C213.048 307.541 212.987 307.697 212.866 307.818C212.745 307.939 212.597 308 212.424 308H209.876C209.685 308 209.529 307.939 209.408 307.818C209.287 307.697 209.226 307.541 209.226 307.35V306.336C208.775 306.96 208.195 307.437 207.484 307.766C206.773 308.095 205.907 308.26 204.884 308.26ZM216.424 308C216.251 308 216.104 307.939 215.982 307.818C215.861 307.697 215.8 307.541 215.8 307.35V295.13C215.8 294.957 215.861 294.809 215.982 294.688C216.104 294.549 216.251 294.48 216.424 294.48H218.972C219.146 294.48 219.293 294.549 219.414 294.688C219.553 294.809 219.622 294.957 219.622 295.13V296.17C220.056 295.633 220.584 295.217 221.208 294.922C221.85 294.627 222.586 294.48 223.418 294.48H224.536C224.71 294.48 224.857 294.541 224.978 294.662C225.1 294.783 225.16 294.939 225.16 295.13V297.366C225.16 297.557 225.1 297.713 224.978 297.834C224.857 297.955 224.71 298.016 224.536 298.016H222.248C221.486 298.016 220.888 298.233 220.454 298.666C220.021 299.082 219.804 299.68 219.804 300.46V307.35C219.804 307.541 219.744 307.697 219.622 307.818C219.501 307.939 219.345 308 219.154 308H216.424ZM230.329 308.26C229.41 308.26 228.587 308.087 227.859 307.74C227.131 307.376 226.55 306.891 226.117 306.284C225.683 305.677 225.467 305.001 225.467 304.256C225.467 303.025 225.961 302.055 226.949 301.344C227.954 300.633 229.271 300.148 230.901 299.888L234.307 299.394V298.926C234.307 298.25 234.151 297.73 233.839 297.366C233.527 297.002 232.981 296.82 232.201 296.82C231.629 296.82 231.169 296.933 230.823 297.158C230.476 297.383 230.207 297.678 230.017 298.042C229.878 298.267 229.679 298.38 229.419 298.38H226.949C226.758 298.38 226.611 298.328 226.507 298.224C226.403 298.103 226.359 297.964 226.377 297.808C226.377 297.513 226.489 297.167 226.715 296.768C226.94 296.369 227.287 295.979 227.755 295.598C228.223 295.199 228.821 294.87 229.549 294.61C230.277 294.35 231.169 294.22 232.227 294.22C233.319 294.22 234.255 294.35 235.035 294.61C235.815 294.87 236.439 295.234 236.907 295.702C237.375 296.17 237.721 296.716 237.947 297.34C238.172 297.947 238.285 298.605 238.285 299.316V307.35C238.285 307.541 238.224 307.697 238.103 307.818C237.981 307.939 237.825 308 237.635 308H235.087C234.913 308 234.766 307.939 234.645 307.818C234.523 307.697 234.463 307.541 234.463 307.35V306.388C234.237 306.717 233.934 307.029 233.553 307.324C233.171 307.601 232.712 307.827 232.175 308C231.655 308.173 231.039 308.26 230.329 308.26ZM231.369 305.556C231.941 305.556 232.452 305.435 232.903 305.192C233.353 304.949 233.709 304.577 233.969 304.074C234.229 303.571 234.359 302.939 234.359 302.176V301.734L231.941 302.124C231.005 302.28 230.32 302.514 229.887 302.826C229.453 303.138 229.237 303.519 229.237 303.97C229.237 304.299 229.332 304.585 229.523 304.828C229.731 305.071 229.999 305.253 230.329 305.374C230.658 305.495 231.005 305.556 231.369 305.556ZM241.563 308C241.372 308 241.216 307.939 241.095 307.818C240.973 307.697 240.913 307.541 240.913 307.35V290.19C240.913 289.999 240.973 289.843 241.095 289.722C241.216 289.601 241.372 289.54 241.563 289.54H244.163C244.336 289.54 244.483 289.601 244.605 289.722C244.726 289.843 244.787 289.999 244.787 290.19V307.35C244.787 307.541 244.726 307.697 244.605 307.818C244.483 307.939 244.336 308 244.163 308H241.563ZM92.2162 338C92.0256 338 91.8696 337.939 91.7482 337.818C91.6269 337.697 91.5662 337.541 91.5662 337.35V320.45C91.5662 320.259 91.6269 320.103 91.7482 319.982C91.8696 319.861 92.0256 319.8 92.2162 319.8H99.9382C101.377 319.8 102.556 320.008 103.474 320.424C104.393 320.84 105.069 321.429 105.502 322.192C105.953 322.955 106.178 323.847 106.178 324.87C106.178 325.511 106.057 326.075 105.814 326.56C105.589 327.045 105.303 327.444 104.956 327.756C104.627 328.068 104.306 328.302 103.994 328.458C104.67 328.77 105.26 329.29 105.762 330.018C106.282 330.729 106.542 331.578 106.542 332.566C106.542 333.658 106.3 334.611 105.814 335.426C105.329 336.241 104.61 336.873 103.656 337.324C102.703 337.775 101.542 338 100.172 338H92.2162ZM95.7002 334.958H99.6782C100.528 334.958 101.169 334.724 101.602 334.256C102.036 333.771 102.252 333.199 102.252 332.54C102.252 331.864 102.027 331.301 101.576 330.85C101.143 330.382 100.51 330.148 99.6782 330.148H95.7002V334.958ZM95.7002 327.158H99.4442C100.259 327.158 100.866 326.959 101.264 326.56C101.68 326.144 101.888 325.615 101.888 324.974C101.888 324.333 101.68 323.821 101.264 323.44C100.866 323.041 100.259 322.842 99.4442 322.842H95.7002V327.158ZM112.816 338.26C111.898 338.26 111.074 338.087 110.346 337.74C109.618 337.376 109.038 336.891 108.604 336.284C108.171 335.677 107.954 335.001 107.954 334.256C107.954 333.025 108.448 332.055 109.436 331.344C110.442 330.633 111.759 330.148 113.388 329.888L116.794 329.394V328.926C116.794 328.25 116.638 327.73 116.326 327.366C116.014 327.002 115.468 326.82 114.688 326.82C114.116 326.82 113.657 326.933 113.31 327.158C112.964 327.383 112.695 327.678 112.504 328.042C112.366 328.267 112.166 328.38 111.906 328.38H109.436C109.246 328.38 109.098 328.328 108.994 328.224C108.89 328.103 108.847 327.964 108.864 327.808C108.864 327.513 108.977 327.167 109.202 326.768C109.428 326.369 109.774 325.979 110.242 325.598C110.71 325.199 111.308 324.87 112.036 324.61C112.764 324.35 113.657 324.22 114.714 324.22C115.806 324.22 116.742 324.35 117.522 324.61C118.302 324.87 118.926 325.234 119.394 325.702C119.862 326.17 120.209 326.716 120.434 327.34C120.66 327.947 120.772 328.605 120.772 329.316V337.35C120.772 337.541 120.712 337.697 120.59 337.818C120.469 337.939 120.313 338 120.122 338H117.574C117.401 338 117.254 337.939 117.132 337.818C117.011 337.697 116.95 337.541 116.95 337.35V336.388C116.725 336.717 116.422 337.029 116.04 337.324C115.659 337.601 115.2 337.827 114.662 338C114.142 338.173 113.527 338.26 112.816 338.26ZM113.856 335.556C114.428 335.556 114.94 335.435 115.39 335.192C115.841 334.949 116.196 334.577 116.456 334.074C116.716 333.571 116.846 332.939 116.846 332.176V331.734L114.428 332.124C113.492 332.28 112.808 332.514 112.374 332.826C111.941 333.138 111.724 333.519 111.724 333.97C111.724 334.299 111.82 334.585 112.01 334.828C112.218 335.071 112.487 335.253 112.816 335.374C113.146 335.495 113.492 335.556 113.856 335.556ZM124.024 338C123.851 338 123.704 337.939 123.582 337.818C123.461 337.697 123.4 337.541 123.4 337.35V325.13C123.4 324.957 123.461 324.809 123.582 324.688C123.704 324.549 123.851 324.48 124.024 324.48H126.572C126.746 324.48 126.893 324.549 127.014 324.688C127.153 324.809 127.222 324.957 127.222 325.13V326.17C127.656 325.633 128.184 325.217 128.808 324.922C129.45 324.627 130.186 324.48 131.018 324.48H132.136C132.31 324.48 132.457 324.541 132.578 324.662C132.7 324.783 132.76 324.939 132.76 325.13V327.366C132.76 327.557 132.7 327.713 132.578 327.834C132.457 327.955 132.31 328.016 132.136 328.016H129.848C129.086 328.016 128.488 328.233 128.054 328.666C127.621 329.082 127.404 329.68 127.404 330.46V337.35C127.404 337.541 127.344 337.697 127.222 337.818C127.101 337.939 126.945 338 126.754 338H124.024ZM134.803 338C134.63 338 134.483 337.939 134.361 337.818C134.24 337.697 134.179 337.541 134.179 337.35V325.13C134.179 324.957 134.24 324.809 134.361 324.688C134.483 324.549 134.63 324.48 134.803 324.48H137.351C137.525 324.48 137.672 324.549 137.793 324.688C137.932 324.809 138.001 324.957 138.001 325.13V326.17C138.435 325.633 138.963 325.217 139.587 324.922C140.229 324.627 140.965 324.48 141.797 324.48H142.915C143.089 324.48 143.236 324.541 143.357 324.662C143.479 324.783 143.539 324.939 143.539 325.13V327.366C143.539 327.557 143.479 327.713 143.357 327.834C143.236 327.955 143.089 328.016 142.915 328.016H140.627C139.865 328.016 139.267 328.233 138.833 328.666C138.4 329.082 138.183 329.68 138.183 330.46V337.35C138.183 337.541 138.123 337.697 138.001 337.818C137.88 337.939 137.724 338 137.533 338H134.803ZM145.582 338C145.409 338 145.261 337.939 145.14 337.818C145.019 337.697 144.958 337.541 144.958 337.35V325.13C144.958 324.939 145.019 324.783 145.14 324.662C145.261 324.541 145.409 324.48 145.582 324.48H148.182C148.373 324.48 148.529 324.541 148.65 324.662C148.771 324.783 148.832 324.939 148.832 325.13V337.35C148.832 337.541 148.771 337.697 148.65 337.818C148.529 337.939 148.373 338 148.182 338H145.582ZM145.504 322.4C145.331 322.4 145.183 322.339 145.062 322.218C144.941 322.097 144.88 321.941 144.88 321.75V319.67C144.88 319.479 144.941 319.323 145.062 319.202C145.183 319.063 145.331 318.994 145.504 318.994H148.234C148.425 318.994 148.581 319.063 148.702 319.202C148.841 319.323 148.91 319.479 148.91 319.67V321.75C148.91 321.941 148.841 322.097 148.702 322.218C148.581 322.339 148.425 322.4 148.234 322.4H145.504ZM157.605 338.26C155.611 338.26 154.025 337.705 152.847 336.596C151.685 335.487 151.07 333.875 151.001 331.76C151.001 331.621 151.001 331.439 151.001 331.214C151.001 330.971 151.001 330.781 151.001 330.642C151.07 329.307 151.373 328.163 151.911 327.21C152.448 326.239 153.202 325.503 154.173 325C155.143 324.48 156.279 324.22 157.579 324.22C159.035 324.22 160.248 324.523 161.219 325.13C162.207 325.719 162.943 326.534 163.429 327.574C163.931 328.597 164.183 329.775 164.183 331.11V331.708C164.183 331.881 164.113 332.029 163.975 332.15C163.853 332.271 163.706 332.332 163.533 332.332H155.031C155.031 332.349 155.031 332.384 155.031 332.436C155.031 332.471 155.031 332.505 155.031 332.54C155.048 333.095 155.152 333.606 155.343 334.074C155.551 334.525 155.837 334.889 156.201 335.166C156.582 335.443 157.033 335.582 157.553 335.582C157.986 335.582 158.341 335.521 158.619 335.4C158.896 335.279 159.121 335.131 159.295 334.958C159.485 334.785 159.624 334.637 159.711 334.516C159.867 334.343 159.988 334.239 160.075 334.204C160.179 334.152 160.335 334.126 160.543 334.126H163.247C163.42 334.126 163.559 334.178 163.663 334.282C163.784 334.369 163.836 334.499 163.819 334.672C163.801 334.949 163.654 335.296 163.377 335.712C163.117 336.111 162.727 336.509 162.207 336.908C161.687 337.289 161.037 337.61 160.257 337.87C159.494 338.13 158.61 338.26 157.605 338.26ZM155.031 329.966H160.127V329.914C160.127 329.29 160.023 328.753 159.815 328.302C159.624 327.834 159.338 327.47 158.957 327.21C158.575 326.95 158.116 326.82 157.579 326.82C157.041 326.82 156.582 326.95 156.201 327.21C155.819 327.47 155.525 327.834 155.317 328.302C155.126 328.753 155.031 329.29 155.031 329.914V329.966ZM166.886 338C166.712 338 166.565 337.939 166.444 337.818C166.322 337.697 166.262 337.541 166.262 337.35V325.13C166.262 324.957 166.322 324.809 166.444 324.688C166.565 324.549 166.712 324.48 166.886 324.48H169.434C169.607 324.48 169.754 324.549 169.876 324.688C170.014 324.809 170.084 324.957 170.084 325.13V326.17C170.517 325.633 171.046 325.217 171.67 324.922C172.311 324.627 173.048 324.48 173.88 324.48H174.998C175.171 324.48 175.318 324.541 175.44 324.662C175.561 324.783 175.622 324.939 175.622 325.13V327.366C175.622 327.557 175.561 327.713 175.44 327.834C175.318 327.955 175.171 328.016 174.998 328.016H172.71C171.947 328.016 171.349 328.233 170.916 328.666C170.482 329.082 170.266 329.68 170.266 330.46V337.35C170.266 337.541 170.205 337.697 170.084 337.818C169.962 337.939 169.806 338 169.616 338H166.886ZM182.371 338.26C181.296 338.26 180.369 338.139 179.589 337.896C178.826 337.636 178.202 337.324 177.717 336.96C177.249 336.596 176.893 336.232 176.651 335.868C176.425 335.487 176.304 335.166 176.287 334.906C176.269 334.715 176.33 334.559 176.469 334.438C176.607 334.317 176.746 334.256 176.885 334.256H179.407C179.459 334.256 179.511 334.265 179.563 334.282C179.615 334.299 179.667 334.343 179.719 334.412C179.944 334.568 180.178 334.75 180.421 334.958C180.663 335.149 180.941 335.313 181.253 335.452C181.582 335.591 181.989 335.66 182.475 335.66C183.047 335.66 183.532 335.547 183.931 335.322C184.329 335.079 184.529 334.741 184.529 334.308C184.529 333.996 184.433 333.736 184.243 333.528C184.069 333.32 183.731 333.129 183.229 332.956C182.726 332.783 181.981 332.592 180.993 332.384C180.057 332.176 179.259 331.899 178.601 331.552C177.942 331.205 177.448 330.772 177.119 330.252C176.789 329.715 176.625 329.073 176.625 328.328C176.625 327.652 176.833 327.002 177.249 326.378C177.682 325.754 178.315 325.243 179.147 324.844C179.979 324.428 181.019 324.22 182.267 324.22C183.22 324.22 184.052 324.341 184.763 324.584C185.491 324.809 186.097 325.104 186.583 325.468C187.068 325.815 187.432 326.179 187.675 326.56C187.935 326.924 188.073 327.245 188.091 327.522C188.108 327.695 188.056 327.843 187.935 327.964C187.813 328.085 187.675 328.146 187.519 328.146H185.205C185.118 328.146 185.04 328.137 184.971 328.12C184.901 328.085 184.841 328.042 184.789 327.99C184.581 327.851 184.364 327.695 184.139 327.522C183.931 327.331 183.679 327.167 183.385 327.028C183.09 326.889 182.709 326.82 182.241 326.82C181.669 326.82 181.227 326.95 180.915 327.21C180.62 327.453 180.473 327.765 180.473 328.146C180.473 328.389 180.551 328.614 180.707 328.822C180.863 329.03 181.183 329.221 181.669 329.394C182.154 329.567 182.891 329.749 183.879 329.94C185.057 330.148 185.993 330.46 186.687 330.876C187.38 331.292 187.874 331.777 188.169 332.332C188.481 332.869 188.637 333.45 188.637 334.074C188.637 334.889 188.394 335.617 187.909 336.258C187.423 336.882 186.713 337.376 185.777 337.74C184.858 338.087 183.723 338.26 182.371 338.26ZM194.391 338C194.235 338 194.105 337.948 194.001 337.844C193.897 337.723 193.845 337.593 193.845 337.454C193.845 337.367 193.853 337.289 193.871 337.22L200.059 320.502C200.111 320.311 200.215 320.147 200.371 320.008C200.527 319.869 200.743 319.8 201.021 319.8H204.349C204.626 319.8 204.843 319.869 204.999 320.008C205.155 320.147 205.259 320.311 205.311 320.502L211.499 337.22C211.516 337.289 211.525 337.367 211.525 337.454C211.525 337.593 211.473 337.723 211.369 337.844C211.265 337.948 211.135 338 210.979 338H208.275C208.015 338 207.824 337.939 207.703 337.818C207.581 337.697 207.503 337.584 207.469 337.48L206.351 334.568H199.019L197.901 337.48C197.866 337.584 197.788 337.697 197.667 337.818C197.545 337.939 197.355 338 197.095 338H194.391ZM199.981 331.214H205.363L202.685 323.726L199.981 331.214ZM218.785 338.26C217.52 338.26 216.402 338.026 215.431 337.558C214.478 337.09 213.724 336.414 213.169 335.53C212.615 334.629 212.311 333.554 212.259 332.306C212.242 332.029 212.233 331.682 212.233 331.266C212.233 330.833 212.242 330.477 212.259 330.2C212.311 328.935 212.606 327.86 213.143 326.976C213.698 326.075 214.461 325.39 215.431 324.922C216.402 324.454 217.52 324.22 218.785 324.22C219.947 324.22 220.935 324.385 221.749 324.714C222.564 325.026 223.231 325.425 223.751 325.91C224.271 326.395 224.653 326.907 224.895 327.444C225.155 327.964 225.294 328.423 225.311 328.822C225.329 328.995 225.268 329.151 225.129 329.29C225.008 329.411 224.861 329.472 224.687 329.472H221.905C221.732 329.472 221.593 329.429 221.489 329.342C221.403 329.238 221.316 329.099 221.229 328.926C220.987 328.319 220.675 327.886 220.293 327.626C219.912 327.366 219.435 327.236 218.863 327.236C218.083 327.236 217.468 327.487 217.017 327.99C216.567 328.493 216.324 329.273 216.289 330.33C216.272 331.006 216.272 331.621 216.289 332.176C216.341 333.251 216.584 334.031 217.017 334.516C217.468 335.001 218.083 335.244 218.863 335.244C219.47 335.244 219.955 335.114 220.319 334.854C220.683 334.594 220.987 334.161 221.229 333.554C221.299 333.381 221.385 333.251 221.489 333.164C221.593 333.06 221.732 333.008 221.905 333.008H224.687C224.861 333.008 225.008 333.077 225.129 333.216C225.268 333.337 225.329 333.485 225.311 333.658C225.294 333.953 225.207 334.299 225.051 334.698C224.913 335.097 224.679 335.504 224.349 335.92C224.037 336.336 223.63 336.726 223.127 337.09C222.625 337.437 222.009 337.723 221.281 337.948C220.571 338.156 219.739 338.26 218.785 338.26ZM233.841 338C232.767 338 231.848 337.827 231.085 337.48C230.323 337.116 229.742 336.561 229.343 335.816C228.962 335.071 228.771 334.135 228.771 333.008V327.548H226.743C226.553 327.548 226.397 327.487 226.275 327.366C226.154 327.245 226.093 327.089 226.093 326.898V325.13C226.093 324.939 226.154 324.783 226.275 324.662C226.397 324.541 226.553 324.48 226.743 324.48H228.771V320.19C228.771 319.999 228.832 319.843 228.953 319.722C229.092 319.601 229.248 319.54 229.421 319.54H231.969C232.16 319.54 232.316 319.601 232.437 319.722C232.559 319.843 232.619 319.999 232.619 320.19V324.48H235.869C236.043 324.48 236.19 324.541 236.311 324.662C236.433 324.783 236.493 324.939 236.493 325.13V326.898C236.493 327.089 236.433 327.245 236.311 327.366C236.19 327.487 236.043 327.548 235.869 327.548H232.619V332.696C232.619 333.355 232.732 333.875 232.957 334.256C233.2 334.62 233.616 334.802 234.205 334.802H236.103C236.277 334.802 236.424 334.863 236.545 334.984C236.667 335.105 236.727 335.253 236.727 335.426V337.35C236.727 337.541 236.667 337.697 236.545 337.818C236.424 337.939 236.277 338 236.103 338H233.841Z" fill="white"/>
<path d="M309.084 338.26C307.42 338.26 306.024 338.017 304.898 337.532C303.788 337.047 302.948 336.414 302.376 335.634C301.804 334.854 301.5 334.022 301.466 333.138C301.466 332.999 301.518 332.878 301.622 332.774C301.726 332.653 301.856 332.592 302.012 332.592H304.794C305.019 332.592 305.192 332.644 305.314 332.748C305.435 332.835 305.548 332.947 305.652 333.086C305.773 333.381 305.964 333.667 306.224 333.944C306.501 334.221 306.874 334.455 307.342 334.646C307.81 334.819 308.39 334.906 309.084 334.906C310.21 334.906 311.051 334.724 311.606 334.36C312.178 333.996 312.464 333.502 312.464 332.878C312.464 332.427 312.308 332.063 311.996 331.786C311.701 331.509 311.224 331.257 310.566 331.032C309.924 330.807 309.066 330.564 307.992 330.304C306.692 330.027 305.582 329.671 304.664 329.238C303.762 328.787 303.078 328.215 302.61 327.522C302.159 326.811 301.934 325.936 301.934 324.896C301.934 323.856 302.22 322.937 302.792 322.14C303.364 321.325 304.17 320.693 305.21 320.242C306.25 319.774 307.489 319.54 308.928 319.54C310.089 319.54 311.112 319.696 311.996 320.008C312.897 320.32 313.642 320.727 314.232 321.23C314.838 321.733 315.298 322.27 315.61 322.842C315.922 323.414 316.086 323.969 316.104 324.506C316.104 324.645 316.052 324.775 315.948 324.896C315.844 325 315.714 325.052 315.558 325.052H312.646C312.472 325.052 312.316 325.017 312.178 324.948C312.039 324.879 311.926 324.757 311.84 324.584C311.736 324.133 311.424 323.743 310.904 323.414C310.401 323.067 309.742 322.894 308.928 322.894C308.078 322.894 307.402 323.05 306.9 323.362C306.414 323.674 306.172 324.151 306.172 324.792C306.172 325.208 306.293 325.563 306.536 325.858C306.796 326.135 307.22 326.387 307.81 326.612C308.416 326.82 309.214 327.054 310.202 327.314C311.727 327.626 312.966 327.999 313.92 328.432C314.873 328.865 315.575 329.429 316.026 330.122C316.476 330.798 316.702 331.656 316.702 332.696C316.702 333.857 316.372 334.854 315.714 335.686C315.072 336.518 314.18 337.159 313.036 337.61C311.909 338.043 310.592 338.26 309.084 338.26ZM324.719 338.26C322.725 338.26 321.139 337.705 319.961 336.596C318.799 335.487 318.184 333.875 318.115 331.76C318.115 331.621 318.115 331.439 318.115 331.214C318.115 330.971 318.115 330.781 318.115 330.642C318.184 329.307 318.487 328.163 319.025 327.21C319.562 326.239 320.316 325.503 321.287 325C322.257 324.48 323.393 324.22 324.693 324.22C326.149 324.22 327.362 324.523 328.333 325.13C329.321 325.719 330.057 326.534 330.543 327.574C331.045 328.597 331.297 329.775 331.297 331.11V331.708C331.297 331.881 331.227 332.029 331.089 332.15C330.967 332.271 330.82 332.332 330.647 332.332H322.145C322.145 332.349 322.145 332.384 322.145 332.436C322.145 332.471 322.145 332.505 322.145 332.54C322.162 333.095 322.266 333.606 322.457 334.074C322.665 334.525 322.951 334.889 323.315 335.166C323.696 335.443 324.147 335.582 324.667 335.582C325.1 335.582 325.455 335.521 325.733 335.4C326.01 335.279 326.235 335.131 326.409 334.958C326.599 334.785 326.738 334.637 326.825 334.516C326.981 334.343 327.102 334.239 327.189 334.204C327.293 334.152 327.449 334.126 327.657 334.126H330.361C330.534 334.126 330.673 334.178 330.777 334.282C330.898 334.369 330.95 334.499 330.933 334.672C330.915 334.949 330.768 335.296 330.491 335.712C330.231 336.111 329.841 336.509 329.321 336.908C328.801 337.289 328.151 337.61 327.371 337.87C326.608 338.13 325.724 338.26 324.719 338.26ZM322.145 329.966H327.241V329.914C327.241 329.29 327.137 328.753 326.929 328.302C326.738 327.834 326.452 327.47 326.071 327.21C325.689 326.95 325.23 326.82 324.693 326.82C324.155 326.82 323.696 326.95 323.315 327.21C322.933 327.47 322.639 327.834 322.431 328.302C322.24 328.753 322.145 329.29 322.145 329.914V329.966ZM339.382 338.26C338.116 338.26 336.998 338.026 336.028 337.558C335.074 337.09 334.32 336.414 333.766 335.53C333.211 334.629 332.908 333.554 332.856 332.306C332.838 332.029 332.83 331.682 332.83 331.266C332.83 330.833 332.838 330.477 332.856 330.2C332.908 328.935 333.202 327.86 333.74 326.976C334.294 326.075 335.057 325.39 336.028 324.922C336.998 324.454 338.116 324.22 339.382 324.22C340.543 324.22 341.531 324.385 342.346 324.714C343.16 325.026 343.828 325.425 344.348 325.91C344.868 326.395 345.249 326.907 345.492 327.444C345.752 327.964 345.89 328.423 345.908 328.822C345.925 328.995 345.864 329.151 345.726 329.29C345.604 329.411 345.457 329.472 345.284 329.472H342.502C342.328 329.472 342.19 329.429 342.086 329.342C341.999 329.238 341.912 329.099 341.826 328.926C341.583 328.319 341.271 327.886 340.89 327.626C340.508 327.366 340.032 327.236 339.46 327.236C338.68 327.236 338.064 327.487 337.614 327.99C337.163 328.493 336.92 329.273 336.886 330.33C336.868 331.006 336.868 331.621 336.886 332.176C336.938 333.251 337.18 334.031 337.614 334.516C338.064 335.001 338.68 335.244 339.46 335.244C340.066 335.244 340.552 335.114 340.916 334.854C341.28 334.594 341.583 334.161 341.826 333.554C341.895 333.381 341.982 333.251 342.086 333.164C342.19 333.06 342.328 333.008 342.502 333.008H345.284C345.457 333.008 345.604 333.077 345.726 333.216C345.864 333.337 345.925 333.485 345.908 333.658C345.89 333.953 345.804 334.299 345.648 334.698C345.509 335.097 345.275 335.504 344.946 335.92C344.634 336.336 344.226 336.726 343.724 337.09C343.221 337.437 342.606 337.723 341.878 337.948C341.167 338.156 340.335 338.26 339.382 338.26ZM354.438 338C353.363 338 352.444 337.827 351.682 337.48C350.919 337.116 350.338 336.561 349.94 335.816C349.558 335.071 349.368 334.135 349.368 333.008V327.548H347.34C347.149 327.548 346.993 327.487 346.872 327.366C346.75 327.245 346.69 327.089 346.69 326.898V325.13C346.69 324.939 346.75 324.783 346.872 324.662C346.993 324.541 347.149 324.48 347.34 324.48H349.368V320.19C349.368 319.999 349.428 319.843 349.55 319.722C349.688 319.601 349.844 319.54 350.018 319.54H352.566C352.756 319.54 352.912 319.601 353.034 319.722C353.155 319.843 353.216 319.999 353.216 320.19V324.48H356.466C356.639 324.48 356.786 324.541 356.908 324.662C357.029 324.783 357.09 324.939 357.09 325.13V326.898C357.09 327.089 357.029 327.245 356.908 327.366C356.786 327.487 356.639 327.548 356.466 327.548H353.216V332.696C353.216 333.355 353.328 333.875 353.554 334.256C353.796 334.62 354.212 334.802 354.802 334.802H356.7C356.873 334.802 357.02 334.863 357.142 334.984C357.263 335.105 357.324 335.253 357.324 335.426V337.35C357.324 337.541 357.263 337.697 357.142 337.818C357.02 337.939 356.873 338 356.7 338H354.438ZM359.696 338C359.523 338 359.375 337.939 359.254 337.818C359.133 337.697 359.072 337.541 359.072 337.35V325.13C359.072 324.939 359.133 324.783 359.254 324.662C359.375 324.541 359.523 324.48 359.696 324.48H362.296C362.487 324.48 362.643 324.541 362.764 324.662C362.885 324.783 362.946 324.939 362.946 325.13V337.35C362.946 337.541 362.885 337.697 362.764 337.818C362.643 337.939 362.487 338 362.296 338H359.696ZM359.618 322.4C359.445 322.4 359.297 322.339 359.176 322.218C359.055 322.097 358.994 321.941 358.994 321.75V319.67C358.994 319.479 359.055 319.323 359.176 319.202C359.297 319.063 359.445 318.994 359.618 318.994H362.348C362.539 318.994 362.695 319.063 362.816 319.202C362.955 319.323 363.024 319.479 363.024 319.67V321.75C363.024 321.941 362.955 322.097 362.816 322.218C362.695 322.339 362.539 322.4 362.348 322.4H359.618ZM371.875 338.26C370.436 338.26 369.231 338.026 368.261 337.558C367.29 337.073 366.545 336.388 366.025 335.504C365.522 334.62 365.245 333.589 365.193 332.41C365.175 332.063 365.167 331.673 365.167 331.24C365.167 330.789 365.175 330.399 365.193 330.07C365.245 328.874 365.539 327.843 366.077 326.976C366.614 326.092 367.368 325.416 368.339 324.948C369.309 324.463 370.488 324.22 371.875 324.22C373.244 324.22 374.414 324.463 375.385 324.948C376.355 325.416 377.109 326.092 377.647 326.976C378.184 327.843 378.479 328.874 378.531 330.07C378.565 330.399 378.583 330.789 378.583 331.24C378.583 331.673 378.565 332.063 378.531 332.41C378.479 333.589 378.193 334.62 377.673 335.504C377.17 336.388 376.433 337.073 375.463 337.558C374.492 338.026 373.296 338.26 371.875 338.26ZM371.875 335.4C372.724 335.4 373.365 335.14 373.799 334.62C374.232 334.083 374.466 333.303 374.501 332.28C374.518 332.02 374.527 331.673 374.527 331.24C374.527 330.807 374.518 330.46 374.501 330.2C374.466 329.195 374.232 328.423 373.799 327.886C373.365 327.349 372.724 327.08 371.875 327.08C371.025 327.08 370.375 327.349 369.925 327.886C369.491 328.423 369.257 329.195 369.223 330.2C369.205 330.46 369.197 330.807 369.197 331.24C369.197 331.673 369.205 332.02 369.223 332.28C369.257 333.303 369.491 334.083 369.925 334.62C370.375 335.14 371.025 335.4 371.875 335.4ZM381.406 338C381.233 338 381.085 337.939 380.964 337.818C380.843 337.697 380.782 337.541 380.782 337.35V325.13C380.782 324.939 380.843 324.783 380.964 324.662C381.085 324.541 381.233 324.48 381.406 324.48H383.954C384.145 324.48 384.301 324.541 384.422 324.662C384.543 324.783 384.604 324.939 384.604 325.13V326.144C385.055 325.589 385.635 325.13 386.346 324.766C387.057 324.402 387.923 324.22 388.946 324.22C389.969 324.22 390.861 324.454 391.624 324.922C392.404 325.373 393.011 326.04 393.444 326.924C393.895 327.791 394.12 328.848 394.12 330.096V337.35C394.12 337.541 394.051 337.697 393.912 337.818C393.791 337.939 393.643 338 393.47 338H390.714C390.523 338 390.367 337.939 390.246 337.818C390.125 337.697 390.064 337.541 390.064 337.35V330.252C390.064 329.333 389.839 328.623 389.388 328.12C388.955 327.6 388.313 327.34 387.464 327.34C386.649 327.34 385.999 327.6 385.514 328.12C385.029 328.623 384.786 329.333 384.786 330.252V337.35C384.786 337.541 384.725 337.697 384.604 337.818C384.483 337.939 384.335 338 384.162 338H381.406ZM408.433 338.286C406.873 338.286 405.565 338.035 404.507 337.532C403.45 337.029 402.644 336.371 402.089 335.556C401.552 334.741 401.266 333.875 401.231 332.956C401.231 332.8 401.283 332.67 401.387 332.566C401.491 332.462 401.621 332.41 401.777 332.41H404.715C404.923 332.41 405.088 332.462 405.209 332.566C405.348 332.653 405.452 332.774 405.521 332.93C405.695 333.398 405.92 333.779 406.197 334.074C406.492 334.369 406.83 334.585 407.211 334.724C407.593 334.863 408 334.932 408.433 334.932C408.988 334.932 409.499 334.819 409.967 334.594C410.435 334.351 410.808 334.005 411.085 333.554C411.363 333.103 411.501 332.549 411.501 331.89C411.501 331.318 411.371 330.815 411.111 330.382C410.851 329.949 410.487 329.611 410.019 329.368C409.551 329.125 409.023 329.004 408.433 329.004C407.983 329.004 407.61 329.056 407.315 329.16C407.038 329.264 406.804 329.394 406.613 329.55C406.423 329.689 406.249 329.819 406.093 329.94C405.937 330.044 405.764 330.096 405.573 330.096H402.687C402.531 330.096 402.393 330.044 402.271 329.94C402.167 329.819 402.115 329.68 402.115 329.524L403.025 320.554C403.06 320.311 403.147 320.129 403.285 320.008C403.441 319.869 403.623 319.8 403.831 319.8H413.919C414.11 319.8 414.266 319.861 414.387 319.982C414.509 320.103 414.569 320.259 414.569 320.45V322.53C414.569 322.703 414.509 322.851 414.387 322.972C414.266 323.093 414.11 323.154 413.919 323.154H406.405L406.015 326.976C406.362 326.751 406.787 326.551 407.289 326.378C407.809 326.187 408.529 326.092 409.447 326.092C410.279 326.092 411.068 326.231 411.813 326.508C412.576 326.768 413.252 327.158 413.841 327.678C414.431 328.198 414.89 328.822 415.219 329.55C415.566 330.261 415.739 331.075 415.739 331.994C415.739 333.242 415.445 334.343 414.855 335.296C414.266 336.232 413.425 336.969 412.333 337.506C411.241 338.026 409.941 338.286 408.433 338.286ZM424.887 338.26C423.639 338.26 422.565 338.087 421.663 337.74C420.779 337.376 420.043 336.882 419.453 336.258C418.881 335.617 418.448 334.88 418.153 334.048C417.876 333.199 417.711 332.297 417.659 331.344C417.642 330.876 417.625 330.356 417.607 329.784C417.607 329.195 417.607 328.605 417.607 328.016C417.625 327.427 417.642 326.889 417.659 326.404C417.694 325.451 417.859 324.558 418.153 323.726C418.465 322.894 418.916 322.166 419.505 321.542C420.095 320.918 420.831 320.433 421.715 320.086C422.617 319.722 423.674 319.54 424.887 319.54C426.101 319.54 427.149 319.722 428.033 320.086C428.917 320.433 429.654 320.918 430.243 321.542C430.833 322.166 431.275 322.894 431.569 323.726C431.881 324.558 432.063 325.451 432.115 326.404C432.133 326.889 432.141 327.427 432.141 328.016C432.159 328.605 432.159 329.195 432.141 329.784C432.141 330.356 432.133 330.876 432.115 331.344C432.063 332.297 431.89 333.199 431.595 334.048C431.301 334.88 430.859 335.617 430.269 336.258C429.697 336.882 428.961 337.376 428.059 337.74C427.175 338.087 426.118 338.26 424.887 338.26ZM424.887 334.88C425.893 334.88 426.629 334.551 427.097 333.892C427.565 333.233 427.817 332.341 427.851 331.214C427.869 330.711 427.877 330.191 427.877 329.654C427.895 329.117 427.895 328.579 427.877 328.042C427.877 327.505 427.869 327.002 427.851 326.534C427.817 325.459 427.565 324.584 427.097 323.908C426.629 323.232 425.893 322.885 424.887 322.868C423.865 322.885 423.119 323.232 422.651 323.908C422.201 324.584 421.958 325.459 421.923 326.534C421.906 327.002 421.889 327.505 421.871 328.042C421.871 328.579 421.871 329.117 421.871 329.654C421.889 330.191 421.906 330.711 421.923 331.214C421.958 332.341 422.209 333.233 422.677 333.892C423.145 334.551 423.882 334.88 424.887 334.88ZM443.242 338C443.069 338 442.922 337.939 442.8 337.818C442.679 337.697 442.618 337.541 442.618 337.35V334.23H434.428C434.255 334.23 434.108 334.169 433.986 334.048C433.865 333.927 433.804 333.771 433.804 333.58V331.474C433.804 331.353 433.83 331.223 433.882 331.084C433.934 330.945 434.004 330.815 434.09 330.694L441.708 320.242C441.934 319.947 442.254 319.8 442.67 319.8H445.972C446.146 319.8 446.293 319.861 446.414 319.982C446.536 320.103 446.596 320.259 446.596 320.45V330.772H448.91C449.118 330.772 449.274 330.833 449.378 330.954C449.5 331.075 449.56 331.223 449.56 331.396V333.58C449.56 333.771 449.5 333.927 449.378 334.048C449.257 334.169 449.11 334.23 448.936 334.23H446.596V337.35C446.596 337.541 446.536 337.697 446.414 337.818C446.293 337.939 446.146 338 445.972 338H443.242ZM437.834 330.902H442.696V324.064L437.834 330.902Z" fill="white"/>
<path d="M520.804 338C520.648 338 520.518 337.948 520.414 337.844C520.31 337.723 520.258 337.593 520.258 337.454C520.258 337.367 520.267 337.289 520.284 337.22L526.472 320.502C526.524 320.311 526.628 320.147 526.784 320.008C526.94 319.869 527.157 319.8 527.434 319.8H530.762C531.04 319.8 531.256 319.869 531.412 320.008C531.568 320.147 531.672 320.311 531.724 320.502L537.912 337.22C537.93 337.289 537.938 337.367 537.938 337.454C537.938 337.593 537.886 337.723 537.782 337.844C537.678 337.948 537.548 338 537.392 338H534.688C534.428 338 534.238 337.939 534.116 337.818C533.995 337.697 533.917 337.584 533.882 337.48L532.764 334.568H525.432L524.314 337.48C524.28 337.584 524.202 337.697 524.08 337.818C523.959 337.939 523.768 338 523.508 338H520.804ZM526.394 331.214H531.776L529.098 323.726L526.394 331.214ZM540.307 338C540.116 338 539.96 337.939 539.839 337.818C539.718 337.697 539.657 337.541 539.657 337.35V320.45C539.657 320.259 539.718 320.103 539.839 319.982C539.96 319.861 540.116 319.8 540.307 319.8H546.833C548.566 319.8 550.014 320.077 551.175 320.632C552.336 321.169 553.22 321.967 553.827 323.024C554.451 324.064 554.78 325.355 554.815 326.898C554.832 327.661 554.841 328.328 554.841 328.9C554.841 329.472 554.832 330.131 554.815 330.876C554.763 332.488 554.442 333.823 553.853 334.88C553.264 335.937 552.397 336.726 551.253 337.246C550.109 337.749 548.679 338 546.963 338H540.307ZM543.791 334.646H546.833C547.7 334.646 548.41 334.516 548.965 334.256C549.52 333.996 549.927 333.589 550.187 333.034C550.464 332.462 550.612 331.725 550.629 330.824C550.646 330.321 550.655 329.871 550.655 329.472C550.672 329.073 550.672 328.675 550.655 328.276C550.655 327.877 550.646 327.435 550.629 326.95C550.594 325.65 550.256 324.697 549.615 324.09C548.991 323.466 548.02 323.154 546.703 323.154H543.791V334.646ZM556.124 338C555.968 338 555.838 337.948 555.734 337.844C555.63 337.723 555.578 337.593 555.578 337.454C555.578 337.367 555.586 337.289 555.604 337.22L561.792 320.502C561.844 320.311 561.948 320.147 562.104 320.008C562.26 319.869 562.476 319.8 562.754 319.8H566.082C566.359 319.8 566.576 319.869 566.732 320.008C566.888 320.147 566.992 320.311 567.044 320.502L573.232 337.22C573.249 337.289 573.258 337.367 573.258 337.454C573.258 337.593 573.206 337.723 573.102 337.844C572.998 337.948 572.868 338 572.712 338H570.008C569.748 338 569.557 337.939 569.436 337.818C569.314 337.697 569.236 337.584 569.202 337.48L568.084 334.568H560.752L559.634 337.48C559.599 337.584 559.521 337.697 559.4 337.818C559.278 337.939 559.088 338 558.828 338H556.124ZM561.714 331.214H567.096L564.418 323.726L561.714 331.214ZM585.306 338.26C584.006 338.26 582.871 338.052 581.9 337.636C580.93 337.203 580.176 336.587 579.638 335.79C579.101 334.993 578.832 334.057 578.832 332.982C578.832 332.219 578.98 331.543 579.274 330.954C579.586 330.365 580.011 329.836 580.548 329.368C581.086 328.883 581.701 328.441 582.394 328.042C581.684 327.279 581.172 326.586 580.86 325.962C580.566 325.338 580.418 324.697 580.418 324.038C580.418 323.241 580.626 322.504 581.042 321.828C581.458 321.152 582.074 320.606 582.888 320.19C583.703 319.757 584.7 319.54 585.878 319.54C586.988 319.54 587.932 319.748 588.712 320.164C589.492 320.563 590.09 321.1 590.506 321.776C590.922 322.452 591.13 323.189 591.13 323.986C591.13 324.697 590.966 325.338 590.636 325.91C590.324 326.465 589.891 326.967 589.336 327.418C588.782 327.869 588.149 328.302 587.438 328.718L590.844 332.124C591.018 331.829 591.234 331.422 591.494 330.902C591.754 330.382 591.988 329.715 592.196 328.9C592.248 328.623 592.43 328.484 592.742 328.484H595.004C595.16 328.484 595.282 328.536 595.368 328.64C595.472 328.727 595.524 328.848 595.524 329.004C595.507 329.333 595.429 329.723 595.29 330.174C595.152 330.607 594.961 331.067 594.718 331.552C594.476 332.037 594.207 332.514 593.912 332.982C593.618 333.45 593.323 333.883 593.028 334.282L595.862 337.142C595.984 337.281 596.044 337.411 596.044 337.532C596.044 337.671 596.001 337.783 595.914 337.87C595.828 337.957 595.706 338 595.55 338H592.56C592.387 338 592.248 337.974 592.144 337.922C592.04 337.853 591.945 337.792 591.858 337.74L590.558 336.492C589.865 337.064 589.085 337.506 588.218 337.818C587.369 338.113 586.398 338.26 585.306 338.26ZM585.306 335.27C585.878 335.27 586.416 335.183 586.918 335.01C587.438 334.819 587.915 334.516 588.348 334.1L584.5 330.33C583.963 330.625 583.504 330.98 583.122 331.396C582.741 331.795 582.55 332.28 582.55 332.852C582.55 333.355 582.68 333.788 582.94 334.152C583.2 334.516 583.538 334.793 583.954 334.984C584.388 335.175 584.838 335.27 585.306 335.27ZM585.41 326.56C585.844 326.317 586.242 326.083 586.606 325.858C586.97 325.615 587.256 325.355 587.464 325.078C587.672 324.783 587.776 324.454 587.776 324.09C587.776 323.553 587.594 323.128 587.23 322.816C586.866 322.504 586.416 322.348 585.878 322.348C585.376 322.348 584.934 322.504 584.552 322.816C584.171 323.128 583.98 323.553 583.98 324.09C583.98 324.333 584.024 324.575 584.11 324.818C584.197 325.043 584.344 325.295 584.552 325.572C584.76 325.849 585.046 326.179 585.41 326.56ZM603.875 338C603.684 338 603.528 337.939 603.407 337.818C603.285 337.697 603.225 337.541 603.225 337.35V320.45C603.225 320.259 603.285 320.103 603.407 319.982C603.528 319.861 603.684 319.8 603.875 319.8H610.401C612.134 319.8 613.581 320.077 614.743 320.632C615.904 321.169 616.788 321.967 617.395 323.024C618.019 324.064 618.348 325.355 618.383 326.898C618.4 327.661 618.409 328.328 618.409 328.9C618.409 329.472 618.4 330.131 618.383 330.876C618.331 332.488 618.01 333.823 617.421 334.88C616.831 335.937 615.965 336.726 614.821 337.246C613.677 337.749 612.247 338 610.531 338H603.875ZM607.359 334.646H610.401C611.267 334.646 611.978 334.516 612.533 334.256C613.087 333.996 613.495 333.589 613.755 333.034C614.032 332.462 614.179 331.725 614.197 330.824C614.214 330.321 614.223 329.871 614.223 329.472C614.24 329.073 614.24 328.675 614.223 328.276C614.223 327.877 614.214 327.435 614.197 326.95C614.162 325.65 613.824 324.697 613.183 324.09C612.559 323.466 611.588 323.154 610.271 323.154H607.359V334.646ZM621.788 338C621.598 338 621.442 337.939 621.32 337.818C621.199 337.697 621.138 337.541 621.138 337.35V320.45C621.138 320.259 621.199 320.103 621.32 319.982C621.442 319.861 621.598 319.8 621.788 319.8H628.314C630.048 319.8 631.495 320.077 632.656 320.632C633.818 321.169 634.702 321.967 635.308 323.024C635.932 324.064 636.262 325.355 636.296 326.898C636.314 327.661 636.322 328.328 636.322 328.9C636.322 329.472 636.314 330.131 636.296 330.876C636.244 332.488 635.924 333.823 635.334 334.88C634.745 335.937 633.878 336.726 632.734 337.246C631.59 337.749 630.16 338 628.444 338H621.788ZM625.272 334.646H628.314C629.181 334.646 629.892 334.516 630.446 334.256C631.001 333.996 631.408 333.589 631.668 333.034C631.946 332.462 632.093 331.725 632.11 330.824C632.128 330.321 632.136 329.871 632.136 329.472C632.154 329.073 632.154 328.675 632.136 328.276C632.136 327.877 632.128 327.435 632.11 326.95C632.076 325.65 631.738 324.697 631.096 324.09C630.472 323.466 629.502 323.154 628.184 323.154H625.272V334.646ZM637.605 338C637.449 338 637.319 337.948 637.215 337.844C637.111 337.723 637.059 337.593 637.059 337.454C637.059 337.367 637.068 337.289 637.085 337.22L643.273 320.502C643.325 320.311 643.429 320.147 643.585 320.008C643.741 319.869 643.958 319.8 644.235 319.8H647.563C647.84 319.8 648.057 319.869 648.213 320.008C648.369 320.147 648.473 320.311 648.525 320.502L654.713 337.22C654.73 337.289 654.739 337.367 654.739 337.454C654.739 337.593 654.687 337.723 654.583 337.844C654.479 337.948 654.349 338 654.193 338H651.489C651.229 338 651.038 337.939 650.917 337.818C650.796 337.697 650.718 337.584 650.683 337.48L649.565 334.568H642.233L641.115 337.48C641.08 337.584 641.002 337.697 640.881 337.818C640.76 337.939 640.569 338 640.309 338H637.605ZM643.195 331.214H648.577L645.899 323.726L643.195 331.214Z" fill="white"/>
<path d="M747.264 338C746.986 338 746.761 337.922 746.588 337.766C746.432 337.61 746.336 337.419 746.302 337.194L743.338 320.528C743.32 320.493 743.312 320.459 743.312 320.424C743.312 320.389 743.312 320.363 743.312 320.346C743.312 320.207 743.364 320.086 743.468 319.982C743.572 319.861 743.702 319.8 743.858 319.8H746.588C747.038 319.8 747.29 319.982 747.342 320.346L749.292 331.344L751.398 324.506C751.45 324.367 751.536 324.22 751.658 324.064C751.779 323.908 751.978 323.83 752.256 323.83H753.894C754.171 323.83 754.37 323.908 754.492 324.064C754.613 324.22 754.691 324.367 754.726 324.506L756.858 331.318L758.782 320.346C758.834 319.982 759.094 319.8 759.562 319.8H762.292C762.448 319.8 762.578 319.861 762.682 319.982C762.786 320.086 762.838 320.207 762.838 320.346C762.838 320.363 762.838 320.389 762.838 320.424C762.838 320.459 762.829 320.493 762.812 320.528L759.848 337.194C759.813 337.419 759.709 337.61 759.536 337.766C759.38 337.922 759.163 338 758.886 338H756.78C756.502 338 756.286 337.931 756.13 337.792C755.991 337.636 755.896 337.48 755.844 337.324L753.062 329.264L750.306 337.324C750.254 337.48 750.15 337.636 749.994 337.792C749.855 337.931 749.638 338 749.344 338H747.264ZM772.209 338.26C770.58 338.26 769.193 337.991 768.049 337.454C766.922 336.899 766.047 336.102 765.423 335.062C764.799 334.005 764.452 332.722 764.383 331.214C764.366 330.503 764.357 329.741 764.357 328.926C764.357 328.111 764.366 327.331 764.383 326.586C764.452 325.095 764.799 323.83 765.423 322.79C766.064 321.733 766.957 320.927 768.101 320.372C769.245 319.817 770.614 319.54 772.209 319.54C773.37 319.54 774.428 319.687 775.381 319.982C776.334 320.277 777.158 320.701 777.851 321.256C778.544 321.811 779.082 322.461 779.463 323.206C779.844 323.951 780.052 324.783 780.087 325.702C780.087 325.858 780.026 325.988 779.905 326.092C779.801 326.196 779.671 326.248 779.515 326.248H776.551C776.343 326.248 776.178 326.196 776.057 326.092C775.936 325.988 775.84 325.815 775.771 325.572C775.511 324.549 775.078 323.847 774.471 323.466C773.864 323.085 773.11 322.894 772.209 322.894C771.134 322.894 770.285 323.189 769.661 323.778C769.037 324.367 768.699 325.347 768.647 326.716C768.595 328.137 768.595 329.593 768.647 331.084C768.699 332.453 769.037 333.433 769.661 334.022C770.285 334.611 771.134 334.906 772.209 334.906C773.11 334.906 773.864 334.715 774.471 334.334C775.095 333.935 775.528 333.233 775.771 332.228C775.84 331.968 775.936 331.795 776.057 331.708C776.178 331.604 776.343 331.552 776.551 331.552H779.515C779.671 331.552 779.801 331.604 779.905 331.708C780.026 331.812 780.087 331.942 780.087 332.098C780.052 333.017 779.844 333.849 779.463 334.594C779.082 335.339 778.544 335.989 777.851 336.544C777.158 337.099 776.334 337.523 775.381 337.818C774.428 338.113 773.37 338.26 772.209 338.26ZM781.194 338C781.038 338 780.908 337.948 780.804 337.844C780.7 337.723 780.648 337.593 780.648 337.454C780.648 337.367 780.656 337.289 780.674 337.22L786.862 320.502C786.914 320.311 787.018 320.147 787.174 320.008C787.33 319.869 787.546 319.8 787.824 319.8H791.152C791.429 319.8 791.646 319.869 791.802 320.008C791.958 320.147 792.062 320.311 792.114 320.502L798.302 337.22C798.319 337.289 798.328 337.367 798.328 337.454C798.328 337.593 798.276 337.723 798.172 337.844C798.068 337.948 797.938 338 797.782 338H795.078C794.818 338 794.627 337.939 794.506 337.818C794.384 337.697 794.306 337.584 794.272 337.48L793.154 334.568H785.822L784.704 337.48C784.669 337.584 784.591 337.697 784.47 337.818C784.348 337.939 784.158 338 783.898 338H781.194ZM786.784 331.214H792.166L789.488 323.726L786.784 331.214ZM806.971 338.26C805.342 338.26 803.947 337.991 802.785 337.454C801.641 336.899 800.749 336.102 800.107 335.062C799.483 334.005 799.145 332.731 799.093 331.24C799.076 330.495 799.067 329.697 799.067 328.848C799.067 327.999 799.076 327.193 799.093 326.43C799.145 324.974 799.483 323.735 800.107 322.712C800.749 321.689 801.65 320.909 802.811 320.372C803.99 319.817 805.377 319.54 806.971 319.54C808.254 319.54 809.381 319.705 810.351 320.034C811.322 320.363 812.137 320.797 812.795 321.334C813.454 321.854 813.957 322.426 814.303 323.05C814.65 323.674 814.832 324.272 814.849 324.844C814.849 325 814.797 325.139 814.693 325.26C814.589 325.364 814.451 325.416 814.277 325.416H811.053C810.88 325.416 810.741 325.381 810.637 325.312C810.551 325.243 810.473 325.139 810.403 325C810.282 324.688 810.083 324.376 809.805 324.064C809.545 323.735 809.19 323.457 808.739 323.232C808.289 323.007 807.699 322.894 806.971 322.894C805.879 322.894 805.013 323.18 804.371 323.752C803.747 324.324 803.409 325.26 803.357 326.56C803.305 328.051 803.305 329.567 803.357 331.11C803.409 332.462 803.756 333.433 804.397 334.022C805.056 334.611 805.931 334.906 807.023 334.906C807.734 334.906 808.367 334.785 808.921 334.542C809.493 334.282 809.944 333.883 810.273 333.346C810.603 332.809 810.767 332.124 810.767 331.292V330.642H807.933C807.76 330.642 807.613 330.581 807.491 330.46C807.37 330.321 807.309 330.165 807.309 329.992V328.328C807.309 328.137 807.37 327.981 807.491 327.86C807.613 327.739 807.76 327.678 807.933 327.678H814.303C814.494 327.678 814.65 327.739 814.771 327.86C814.893 327.981 814.953 328.137 814.953 328.328V331.162C814.953 332.653 814.624 333.927 813.965 334.984C813.324 336.041 812.397 336.856 811.183 337.428C809.987 337.983 808.583 338.26 806.971 338.26ZM828.101 338C827.927 338 827.771 337.939 827.633 337.818C827.511 337.697 827.451 337.541 827.451 337.35V324.428L823.707 327.314C823.551 327.435 823.386 327.479 823.213 327.444C823.057 327.409 822.918 327.314 822.797 327.158L821.497 325.468C821.393 325.312 821.349 325.147 821.367 324.974C821.401 324.801 821.497 324.662 821.653 324.558L827.581 319.982C827.685 319.913 827.78 319.869 827.867 319.852C827.971 319.817 828.083 319.8 828.205 319.8H830.961C831.134 319.8 831.281 319.861 831.403 319.982C831.524 320.103 831.585 320.259 831.585 320.45V337.35C831.585 337.541 831.524 337.697 831.403 337.818C831.281 337.939 831.134 338 830.961 338H828.101ZM834.952 338C834.761 338 834.605 337.939 834.484 337.818C834.363 337.697 834.302 337.541 834.302 337.35V334.438C834.302 334.247 834.363 334.091 834.484 333.97C834.605 333.849 834.761 333.788 834.952 333.788H837.864C838.055 333.788 838.211 333.849 838.332 333.97C838.453 334.091 838.514 334.247 838.514 334.438V337.35C838.514 337.541 838.453 337.697 838.332 337.818C838.211 337.939 838.055 338 837.864 338H834.952ZM847.941 338.26C846.693 338.26 845.618 338.087 844.717 337.74C843.833 337.376 843.096 336.882 842.507 336.258C841.935 335.617 841.502 334.88 841.207 334.048C840.93 333.199 840.765 332.297 840.713 331.344C840.696 330.876 840.678 330.356 840.661 329.784C840.661 329.195 840.661 328.605 840.661 328.016C840.678 327.427 840.696 326.889 840.713 326.404C840.748 325.451 840.912 324.558 841.207 323.726C841.519 322.894 841.97 322.166 842.559 321.542C843.148 320.918 843.885 320.433 844.769 320.086C845.67 319.722 846.728 319.54 847.941 319.54C849.154 319.54 850.203 319.722 851.087 320.086C851.971 320.433 852.708 320.918 853.297 321.542C853.886 322.166 854.328 322.894 854.623 323.726C854.935 324.558 855.117 325.451 855.169 326.404C855.186 326.889 855.195 327.427 855.195 328.016C855.212 328.605 855.212 329.195 855.195 329.784C855.195 330.356 855.186 330.876 855.169 331.344C855.117 332.297 854.944 333.199 854.649 334.048C854.354 334.88 853.912 335.617 853.323 336.258C852.751 336.882 852.014 337.376 851.113 337.74C850.229 338.087 849.172 338.26 847.941 338.26ZM847.941 334.88C848.946 334.88 849.683 334.551 850.151 333.892C850.619 333.233 850.87 332.341 850.905 331.214C850.922 330.711 850.931 330.191 850.931 329.654C850.948 329.117 850.948 328.579 850.931 328.042C850.931 327.505 850.922 327.002 850.905 326.534C850.87 325.459 850.619 324.584 850.151 323.908C849.683 323.232 848.946 322.885 847.941 322.868C846.918 322.885 846.173 323.232 845.705 323.908C845.254 324.584 845.012 325.459 844.977 326.534C844.96 327.002 844.942 327.505 844.925 328.042C844.925 328.579 844.925 329.117 844.925 329.654C844.942 330.191 844.96 330.711 844.977 331.214C845.012 332.341 845.263 333.233 845.731 333.892C846.199 334.551 846.936 334.88 847.941 334.88Z" fill="white"/>
<path d="M988.099 338C987.908 338 987.752 337.939 987.631 337.818C987.51 337.697 987.449 337.541 987.449 337.35V320.45C987.449 320.259 987.51 320.103 987.631 319.982C987.752 319.861 987.908 319.8 988.099 319.8H999.877C1000.07 319.8 1000.22 319.861 1000.34 319.982C1000.47 320.103 1000.53 320.259 1000.53 320.45V322.53C1000.53 322.703 1000.47 322.851 1000.34 322.972C1000.22 323.093 1000.07 323.154 999.877 323.154H991.453V327.236H999.305C999.496 327.236 999.652 327.297 999.773 327.418C999.894 327.539 999.955 327.695 999.955 327.886V329.81C999.955 329.983 999.894 330.131 999.773 330.252C999.652 330.373 999.496 330.434 999.305 330.434H991.453V334.646H1000.08C1000.28 334.646 1000.43 334.707 1000.55 334.828C1000.67 334.949 1000.73 335.105 1000.73 335.296V337.35C1000.73 337.541 1000.67 337.697 1000.55 337.818C1000.43 337.939 1000.28 338 1000.08 338H988.099ZM1002.24 338C1002.08 338 1001.95 337.948 1001.85 337.844C1001.75 337.723 1001.69 337.593 1001.69 337.454C1001.69 337.367 1001.7 337.289 1001.72 337.22L1007.91 320.502C1007.96 320.311 1008.06 320.147 1008.22 320.008C1008.38 319.869 1008.59 319.8 1008.87 319.8H1012.2C1012.48 319.8 1012.69 319.869 1012.85 320.008C1013 320.147 1013.11 320.311 1013.16 320.502L1019.35 337.22C1019.37 337.289 1019.37 337.367 1019.37 337.454C1019.37 337.593 1019.32 337.723 1019.22 337.844C1019.11 337.948 1018.98 338 1018.83 338H1016.12C1015.86 338 1015.67 337.939 1015.55 337.818C1015.43 337.697 1015.35 337.584 1015.32 337.48L1014.2 334.568H1006.87L1005.75 337.48C1005.72 337.584 1005.64 337.697 1005.52 337.818C1005.39 337.939 1005.2 338 1004.94 338H1002.24ZM1007.83 331.214H1013.21L1010.53 323.726L1007.83 331.214ZM1020.03 338C1019.87 338 1019.74 337.948 1019.64 337.844C1019.53 337.723 1019.48 337.593 1019.48 337.454C1019.48 337.367 1019.49 337.289 1019.51 337.22L1025.69 320.502C1025.75 320.311 1025.85 320.147 1026.01 320.008C1026.16 319.869 1026.38 319.8 1026.66 319.8H1029.98C1030.26 319.8 1030.48 319.869 1030.63 320.008C1030.79 320.147 1030.89 320.311 1030.95 320.502L1037.13 337.22C1037.15 337.289 1037.16 337.367 1037.16 337.454C1037.16 337.593 1037.11 337.723 1037 337.844C1036.9 337.948 1036.77 338 1036.61 338H1033.91C1033.65 338 1033.46 337.939 1033.34 337.818C1033.22 337.697 1033.14 337.584 1033.1 337.48L1031.99 334.568H1024.65L1023.54 337.48C1023.5 337.584 1023.42 337.697 1023.3 337.818C1023.18 337.939 1022.99 338 1022.73 338H1020.03ZM1025.62 331.214H1031L1028.32 323.726L1025.62 331.214Z" fill="white"/>
<path d="M347.413 471C347.187 471 346.983 470.921 346.801 470.762C346.643 470.604 346.564 470.4 346.564 470.15V453.261L341.67 457.033C341.466 457.192 341.251 457.249 341.024 457.203C340.821 457.158 340.639 457.033 340.481 456.829L338.782 454.621C338.646 454.417 338.589 454.201 338.612 453.975C338.657 453.748 338.782 453.567 338.985 453.431L346.733 447.45C346.869 447.36 346.994 447.303 347.107 447.28C347.243 447.235 347.39 447.212 347.549 447.212H351.151C351.378 447.212 351.57 447.292 351.729 447.45C351.887 447.609 351.967 447.813 351.967 448.062V470.15C351.967 470.4 351.887 470.604 351.729 470.762C351.57 470.921 351.378 471 351.151 471H347.413ZM358.645 471C358.441 471 358.271 470.932 358.135 470.796C357.999 470.638 357.931 470.456 357.931 470.252C357.931 470.139 357.942 470.048 357.965 469.981C358.01 469.913 358.044 469.856 358.067 469.811L362.994 463.082C362.587 463.173 362.179 463.207 361.771 463.184C360.684 463.139 359.653 462.924 358.679 462.538C357.705 462.131 356.832 461.576 356.062 460.873C355.292 460.171 354.691 459.344 354.261 458.393C353.831 457.441 353.615 456.388 353.615 455.232C353.615 454.19 353.808 453.171 354.193 452.174C354.601 451.177 355.201 450.282 355.994 449.489C356.787 448.696 357.773 448.062 358.951 447.586C360.129 447.11 361.499 446.873 363.062 446.873C364.626 446.873 365.996 447.088 367.174 447.518C368.375 447.949 369.383 448.549 370.199 449.319C371.014 450.067 371.626 450.939 372.034 451.936C372.442 452.91 372.645 453.952 372.645 455.062C372.645 456.059 372.476 456.988 372.136 457.849C371.796 458.71 371.377 459.514 370.878 460.262C370.38 461.009 369.882 461.734 369.383 462.436L363.674 470.32C363.583 470.434 363.448 470.581 363.266 470.762C363.085 470.921 362.825 471 362.485 471H358.645ZM363.096 459.174C363.844 459.174 364.524 459.016 365.135 458.698C365.747 458.381 366.223 457.928 366.563 457.339C366.925 456.75 367.106 456.048 367.106 455.232C367.106 454.394 366.925 453.68 366.563 453.091C366.223 452.502 365.747 452.049 365.135 451.732C364.524 451.415 363.844 451.256 363.096 451.256C362.371 451.256 361.703 451.415 361.091 451.732C360.48 452.049 359.993 452.502 359.63 453.091C359.29 453.68 359.12 454.394 359.12 455.232C359.12 456.048 359.29 456.75 359.63 457.339C359.993 457.928 360.48 458.381 361.091 458.698C361.703 459.016 362.371 459.174 363.096 459.174ZM377.774 471C377.57 471 377.4 470.932 377.264 470.796C377.128 470.638 377.06 470.456 377.06 470.252C377.06 470.162 377.083 470.06 377.128 469.947L385.148 451.766H374.715C374.489 451.766 374.285 451.687 374.103 451.528C373.945 451.37 373.866 451.177 373.866 450.95V448.062C373.866 447.813 373.945 447.609 374.103 447.45C374.285 447.292 374.489 447.212 374.715 447.212H390.109C390.381 447.212 390.585 447.292 390.721 447.45C390.879 447.609 390.959 447.813 390.959 448.062V450.611C390.959 450.95 390.925 451.234 390.857 451.46C390.811 451.664 390.732 451.879 390.619 452.106L382.633 470.184C382.565 470.32 382.44 470.49 382.259 470.694C382.101 470.898 381.84 471 381.478 471H377.774ZM401.99 471.34C400.313 471.34 398.875 471.136 397.674 470.728C396.473 470.32 395.488 469.799 394.718 469.165C393.947 468.531 393.37 467.84 392.985 467.092C392.599 466.322 392.396 465.585 392.373 464.883C392.373 464.679 392.441 464.509 392.577 464.373C392.713 464.238 392.883 464.17 393.087 464.17H396.825C397.074 464.17 397.278 464.226 397.436 464.339C397.595 464.43 397.742 464.6 397.878 464.849C398.059 465.37 398.354 465.789 398.762 466.107C399.169 466.424 399.645 466.65 400.189 466.786C400.755 466.899 401.356 466.956 401.99 466.956C403.259 466.956 404.255 466.662 404.98 466.073C405.705 465.484 406.068 464.657 406.068 463.592C406.068 462.504 405.728 461.723 405.048 461.247C404.369 460.771 403.406 460.533 402.16 460.533H398.524C398.297 460.533 398.105 460.454 397.946 460.296C397.787 460.137 397.708 459.944 397.708 459.718V458.053C397.708 457.781 397.753 457.554 397.844 457.373C397.957 457.192 398.071 457.056 398.184 456.965L404.029 451.596H394.446C394.197 451.596 393.993 451.517 393.834 451.358C393.676 451.2 393.596 451.007 393.596 450.781V448.062C393.596 447.813 393.676 447.609 393.834 447.45C393.993 447.292 394.197 447.212 394.446 447.212H409.534C409.783 447.212 409.987 447.292 410.146 447.45C410.304 447.609 410.383 447.813 410.383 448.062V450.509C410.383 450.758 410.338 450.973 410.248 451.154C410.157 451.313 410.044 451.438 409.908 451.528L404.369 456.999L404.708 457.033C406.045 457.169 407.234 457.498 408.277 458.019C409.319 458.54 410.134 459.287 410.723 460.262C411.335 461.213 411.641 462.425 411.641 463.898C411.641 465.438 411.222 466.764 410.383 467.874C409.545 468.984 408.401 469.845 406.951 470.456C405.501 471.045 403.848 471.34 401.99 471.34Z" fill="white"/>
<path d="M972.311 471C972.062 471 971.858 470.921 971.699 470.762C971.541 470.604 971.461 470.4 971.461 470.15V468.112C971.461 467.93 971.507 467.692 971.597 467.398C971.71 467.081 971.948 466.775 972.311 466.48L976.796 462.029C978.45 460.76 979.787 459.684 980.806 458.8C981.848 457.917 982.619 457.113 983.117 456.388C983.616 455.663 983.865 454.96 983.865 454.281C983.865 453.397 983.616 452.672 983.117 452.106C982.641 451.517 981.86 451.222 980.772 451.222C980.047 451.222 979.436 451.381 978.937 451.698C978.462 451.993 978.088 452.389 977.816 452.887C977.544 453.386 977.363 453.93 977.272 454.519C977.204 454.813 977.057 455.017 976.83 455.13C976.627 455.244 976.411 455.3 976.185 455.3H972.583C972.356 455.3 972.175 455.232 972.039 455.096C971.903 454.938 971.835 454.768 971.835 454.587C971.858 453.544 972.073 452.559 972.481 451.63C972.911 450.701 973.511 449.874 974.282 449.149C975.052 448.424 975.981 447.858 977.068 447.45C978.156 447.02 979.39 446.805 980.772 446.805C982.675 446.805 984.273 447.122 985.564 447.756C986.855 448.368 987.829 449.217 988.486 450.305C989.143 451.392 989.472 452.65 989.472 454.077C989.472 455.164 989.245 456.172 988.792 457.101C988.362 458.03 987.727 458.925 986.889 459.786C986.051 460.624 985.054 461.496 983.899 462.402L979.889 466.412H989.132C989.381 466.412 989.585 466.492 989.744 466.65C989.902 466.809 989.982 467.013 989.982 467.262V470.15C989.982 470.4 989.902 470.604 989.744 470.762C989.585 470.921 989.381 471 989.132 471H972.311ZM1001.19 471.34C999.557 471.34 998.153 471.113 996.975 470.66C995.819 470.184 994.857 469.539 994.086 468.723C993.339 467.885 992.772 466.922 992.387 465.835C992.025 464.725 991.809 463.547 991.741 462.301C991.719 461.689 991.696 461.009 991.673 460.262C991.673 459.491 991.673 458.721 991.673 457.951C991.696 457.181 991.719 456.478 991.741 455.844C991.787 454.598 992.002 453.431 992.387 452.344C992.795 451.256 993.384 450.305 994.154 449.489C994.924 448.674 995.887 448.039 997.043 447.586C998.221 447.11 999.603 446.873 1001.19 446.873C1002.77 446.873 1004.14 447.11 1005.3 447.586C1006.46 448.039 1007.42 448.674 1008.19 449.489C1008.96 450.305 1009.54 451.256 1009.92 452.344C1010.33 453.431 1010.57 454.598 1010.64 455.844C1010.66 456.478 1010.67 457.181 1010.67 457.951C1010.69 458.721 1010.69 459.491 1010.67 460.262C1010.67 461.009 1010.66 461.689 1010.64 462.301C1010.57 463.547 1010.34 464.725 1009.96 465.835C1009.57 466.922 1008.99 467.885 1008.22 468.723C1007.48 469.539 1006.51 470.184 1005.33 470.66C1004.18 471.113 1002.8 471.34 1001.19 471.34ZM1001.19 466.922C1002.5 466.922 1003.47 466.492 1004.08 465.631C1004.69 464.77 1005.02 463.603 1005.06 462.131C1005.09 461.474 1005.1 460.794 1005.1 460.092C1005.12 459.389 1005.12 458.687 1005.1 457.985C1005.1 457.283 1005.09 456.626 1005.06 456.014C1005.02 454.609 1004.69 453.465 1004.08 452.582C1003.47 451.698 1002.5 451.245 1001.19 451.222C999.852 451.245 998.878 451.698 998.266 452.582C997.677 453.465 997.36 454.609 997.315 456.014C997.292 456.626 997.269 457.283 997.247 457.985C997.247 458.687 997.247 459.389 997.247 460.092C997.269 460.794 997.292 461.474 997.315 462.131C997.36 463.603 997.688 464.77 998.3 465.631C998.912 466.492 999.875 466.922 1001.19 466.922ZM1013.15 471C1012.9 471 1012.7 470.921 1012.54 470.762C1012.38 470.604 1012.3 470.4 1012.3 470.15V468.112C1012.3 467.93 1012.34 467.692 1012.44 467.398C1012.55 467.081 1012.79 466.775 1013.15 466.48L1017.63 462.029C1019.29 460.76 1020.63 459.684 1021.64 458.8C1022.69 457.917 1023.46 457.113 1023.96 456.388C1024.45 455.663 1024.7 454.96 1024.7 454.281C1024.7 453.397 1024.45 452.672 1023.96 452.106C1023.48 451.517 1022.7 451.222 1021.61 451.222C1020.89 451.222 1020.27 451.381 1019.78 451.698C1019.3 451.993 1018.93 452.389 1018.65 452.887C1018.38 453.386 1018.2 453.93 1018.11 454.519C1018.04 454.813 1017.9 455.017 1017.67 455.13C1017.46 455.244 1017.25 455.3 1017.02 455.3H1013.42C1013.19 455.3 1013.01 455.232 1012.88 455.096C1012.74 454.938 1012.67 454.768 1012.67 454.587C1012.7 453.544 1012.91 452.559 1013.32 451.63C1013.75 450.701 1014.35 449.874 1015.12 449.149C1015.89 448.424 1016.82 447.858 1017.91 447.45C1018.99 447.02 1020.23 446.805 1021.61 446.805C1023.51 446.805 1025.11 447.122 1026.4 447.756C1027.69 448.368 1028.67 449.217 1029.32 450.305C1029.98 451.392 1030.31 452.65 1030.31 454.077C1030.31 455.164 1030.08 456.172 1029.63 457.101C1029.2 458.03 1028.57 458.925 1027.73 459.786C1026.89 460.624 1025.89 461.496 1024.74 462.402L1020.73 466.412H1029.97C1030.22 466.412 1030.42 466.492 1030.58 466.65C1030.74 466.809 1030.82 467.013 1030.82 467.262V470.15C1030.82 470.4 1030.74 470.604 1030.58 470.762C1030.42 470.921 1030.22 471 1029.97 471H1013.15ZM1041.31 471.374C1039.27 471.374 1037.56 471.045 1036.18 470.388C1034.8 469.731 1033.75 468.87 1033.02 467.806C1032.32 466.741 1031.95 465.608 1031.9 464.407C1031.9 464.204 1031.97 464.034 1032.1 463.898C1032.24 463.762 1032.41 463.694 1032.61 463.694H1036.45C1036.73 463.694 1036.94 463.762 1037.1 463.898C1037.28 464.011 1037.42 464.17 1037.51 464.373C1037.73 464.985 1038.03 465.484 1038.39 465.869C1038.78 466.254 1039.22 466.537 1039.72 466.718C1040.21 466.899 1040.75 466.99 1041.31 466.99C1042.04 466.99 1042.71 466.843 1043.32 466.548C1043.93 466.231 1044.42 465.778 1044.78 465.189C1045.14 464.6 1045.32 463.875 1045.32 463.014C1045.32 462.267 1045.15 461.61 1044.81 461.043C1044.47 460.477 1044 460.035 1043.39 459.718C1042.77 459.401 1042.08 459.242 1041.31 459.242C1040.72 459.242 1040.24 459.31 1039.85 459.446C1039.49 459.582 1039.18 459.752 1038.93 459.956C1038.69 460.137 1038.46 460.307 1038.25 460.466C1038.05 460.601 1037.82 460.669 1037.58 460.669H1033.8C1033.6 460.669 1033.42 460.601 1033.26 460.466C1033.12 460.307 1033.06 460.126 1033.06 459.922L1034.25 448.198C1034.29 447.881 1034.4 447.643 1034.58 447.484C1034.79 447.303 1035.03 447.212 1035.3 447.212H1048.48C1048.73 447.212 1048.94 447.292 1049.1 447.45C1049.25 447.609 1049.33 447.813 1049.33 448.062V450.781C1049.33 451.007 1049.25 451.2 1049.1 451.358C1048.94 451.517 1048.73 451.596 1048.48 451.596H1038.66L1038.15 456.592C1038.61 456.297 1039.16 456.036 1039.82 455.81C1040.5 455.561 1041.44 455.436 1042.64 455.436C1043.73 455.436 1044.76 455.617 1045.73 455.98C1046.73 456.32 1047.61 456.829 1048.38 457.509C1049.15 458.189 1049.75 459.004 1050.18 459.956C1050.64 460.885 1050.86 461.949 1050.86 463.15C1050.86 464.781 1050.48 466.22 1049.71 467.466C1048.94 468.689 1047.84 469.652 1046.41 470.354C1044.98 471.034 1043.28 471.374 1041.31 471.374Z" fill="white"/>
<path d="M551.413 471C551.187 471 550.983 470.921 550.801 470.762C550.643 470.604 550.564 470.4 550.564 470.15V453.261L545.67 457.033C545.466 457.192 545.251 457.249 545.024 457.203C544.821 457.158 544.639 457.033 544.481 456.829L542.782 454.621C542.646 454.417 542.589 454.201 542.612 453.975C542.657 453.748 542.782 453.567 542.985 453.431L550.733 447.45C550.869 447.36 550.994 447.303 551.107 447.28C551.243 447.235 551.39 447.212 551.549 447.212H555.151C555.378 447.212 555.57 447.292 555.729 447.45C555.887 447.609 555.967 447.813 555.967 448.062V470.15C555.967 470.4 555.887 470.604 555.729 470.762C555.57 470.921 555.378 471 555.151 471H551.413ZM561.965 471C561.761 471 561.591 470.932 561.455 470.796C561.319 470.638 561.251 470.456 561.251 470.252C561.251 470.139 561.263 470.048 561.285 469.981C561.331 469.913 561.365 469.856 561.387 469.811L566.315 463.082C565.907 463.173 565.499 463.207 565.091 463.184C564.004 463.139 562.973 462.924 561.999 462.538C561.025 462.131 560.153 461.576 559.382 460.873C558.612 460.171 558.012 459.344 557.581 458.393C557.151 457.441 556.936 456.388 556.936 455.232C556.936 454.19 557.128 453.171 557.513 452.174C557.921 451.177 558.522 450.282 559.314 449.489C560.107 448.696 561.093 448.062 562.271 447.586C563.449 447.11 564.82 446.873 566.383 446.873C567.946 446.873 569.317 447.088 570.495 447.518C571.695 447.949 572.703 448.549 573.519 449.319C574.335 450.067 574.946 450.939 575.354 451.936C575.762 452.91 575.966 453.952 575.966 455.062C575.966 456.059 575.796 456.988 575.456 457.849C575.116 458.71 574.697 459.514 574.199 460.262C573.7 461.009 573.202 461.734 572.703 462.436L566.994 470.32C566.904 470.434 566.768 470.581 566.587 470.762C566.405 470.921 566.145 471 565.805 471H561.965ZM566.417 459.174C567.164 459.174 567.844 459.016 568.456 458.698C569.067 458.381 569.543 457.928 569.883 457.339C570.245 456.75 570.427 456.048 570.427 455.232C570.427 454.394 570.245 453.68 569.883 453.091C569.543 452.502 569.067 452.049 568.456 451.732C567.844 451.415 567.164 451.256 566.417 451.256C565.692 451.256 565.023 451.415 564.412 451.732C563.8 452.049 563.313 452.502 562.951 453.091C562.611 453.68 562.441 454.394 562.441 455.232C562.441 456.048 562.611 456.75 562.951 457.339C563.313 457.928 563.8 458.381 564.412 458.698C565.023 459.016 565.692 459.174 566.417 459.174ZM582.317 471C582.113 471 581.943 470.932 581.808 470.796C581.672 470.638 581.604 470.456 581.604 470.252C581.604 470.139 581.615 470.048 581.638 469.981C581.683 469.913 581.717 469.856 581.74 469.811L586.667 463.082C586.259 463.173 585.851 463.207 585.444 463.184C584.356 463.139 583.325 462.924 582.351 462.538C581.377 462.131 580.505 461.576 579.735 460.873C578.964 460.171 578.364 459.344 577.934 458.393C577.503 457.441 577.288 456.388 577.288 455.232C577.288 454.19 577.48 453.171 577.866 452.174C578.273 451.177 578.874 450.282 579.667 449.489C580.46 448.696 581.445 448.062 582.623 447.586C583.801 447.11 585.172 446.873 586.735 446.873C588.298 446.873 589.669 447.088 590.847 447.518C592.048 447.949 593.056 448.549 593.871 449.319C594.687 450.067 595.298 450.939 595.706 451.936C596.114 452.91 596.318 453.952 596.318 455.062C596.318 456.059 596.148 456.988 595.808 457.849C595.468 458.71 595.049 459.514 594.551 460.262C594.052 461.009 593.554 461.734 593.056 462.436L587.347 470.32C587.256 470.434 587.12 470.581 586.939 470.762C586.758 470.921 586.497 471 586.157 471H582.317ZM586.769 459.174C587.517 459.174 588.196 459.016 588.808 458.698C589.42 458.381 589.895 457.928 590.235 457.339C590.598 456.75 590.779 456.048 590.779 455.232C590.779 454.394 590.598 453.68 590.235 453.091C589.895 452.502 589.42 452.049 588.808 451.732C588.196 451.415 587.517 451.256 586.769 451.256C586.044 451.256 585.376 451.415 584.764 451.732C584.152 452.049 583.665 452.502 583.303 453.091C582.963 453.68 582.793 454.394 582.793 455.232C582.793 456.048 582.963 456.75 583.303 457.339C583.665 457.928 584.152 458.381 584.764 458.698C585.376 459.016 586.044 459.174 586.769 459.174ZM607.937 471.34C606.306 471.34 604.901 471.113 603.723 470.66C602.567 470.184 601.605 469.539 600.834 468.723C600.087 467.885 599.52 466.922 599.135 465.835C598.773 464.725 598.558 463.547 598.49 462.301C598.467 461.689 598.444 461.009 598.422 460.262C598.422 459.491 598.422 458.721 598.422 457.951C598.444 457.181 598.467 456.478 598.49 455.844C598.535 454.598 598.75 453.431 599.135 452.344C599.543 451.256 600.132 450.305 600.902 449.489C601.673 448.674 602.635 448.039 603.791 447.586C604.969 447.11 606.351 446.873 607.937 446.873C609.523 446.873 610.893 447.11 612.049 447.586C613.204 448.039 614.167 448.674 614.937 449.489C615.707 450.305 616.285 451.256 616.67 452.344C617.078 453.431 617.316 454.598 617.384 455.844C617.406 456.478 617.418 457.181 617.418 457.951C617.44 458.721 617.44 459.491 617.418 460.262C617.418 461.009 617.406 461.689 617.384 462.301C617.316 463.547 617.089 464.725 616.704 465.835C616.319 466.922 615.741 467.885 614.971 468.723C614.223 469.539 613.261 470.184 612.083 470.66C610.927 471.113 609.545 471.34 607.937 471.34ZM607.937 466.922C609.251 466.922 610.213 466.492 610.825 465.631C611.437 464.77 611.765 463.603 611.811 462.131C611.833 461.474 611.845 460.794 611.845 460.092C611.867 459.389 611.867 458.687 611.845 457.985C611.845 457.283 611.833 456.626 611.811 456.014C611.765 454.609 611.437 453.465 610.825 452.582C610.213 451.698 609.251 451.245 607.937 451.222C606.6 451.245 605.626 451.698 605.014 452.582C604.425 453.465 604.108 454.609 604.063 456.014C604.04 456.626 604.017 457.283 603.995 457.985C603.995 458.687 603.995 459.389 603.995 460.092C604.017 460.794 604.04 461.474 604.063 462.131C604.108 463.603 604.437 464.77 605.048 465.631C605.66 466.492 606.623 466.922 607.937 466.922ZM627.713 471.34C626.309 471.34 625.097 471.181 624.077 470.864C623.08 470.524 622.265 470.116 621.63 469.641C621.019 469.165 620.554 468.689 620.237 468.213C619.943 467.715 619.784 467.296 619.761 466.956C619.739 466.707 619.818 466.503 619.999 466.344C620.181 466.186 620.362 466.107 620.543 466.107H623.839C623.907 466.107 623.975 466.118 624.043 466.141C624.111 466.163 624.179 466.22 624.247 466.31C624.542 466.514 624.847 466.752 625.165 467.024C625.482 467.273 625.844 467.489 626.252 467.67C626.682 467.851 627.215 467.942 627.849 467.942C628.597 467.942 629.231 467.794 629.752 467.5C630.273 467.183 630.534 466.741 630.534 466.175C630.534 465.767 630.409 465.427 630.16 465.155C629.933 464.883 629.492 464.634 628.835 464.407C628.178 464.181 627.204 463.932 625.912 463.66C624.689 463.388 623.647 463.026 622.786 462.572C621.925 462.119 621.279 461.553 620.849 460.873C620.418 460.171 620.203 459.333 620.203 458.359C620.203 457.475 620.475 456.626 621.019 455.81C621.585 454.994 622.412 454.326 623.499 453.805C624.587 453.261 625.946 452.989 627.577 452.989C628.823 452.989 629.911 453.148 630.84 453.465C631.791 453.76 632.584 454.145 633.218 454.621C633.853 455.074 634.328 455.549 634.646 456.048C634.985 456.524 635.167 456.943 635.189 457.305C635.212 457.532 635.144 457.724 634.985 457.883C634.827 458.041 634.646 458.121 634.442 458.121H631.417C631.304 458.121 631.202 458.109 631.112 458.087C631.021 458.041 630.942 457.985 630.874 457.917C630.602 457.736 630.319 457.532 630.024 457.305C629.752 457.056 629.424 456.841 629.039 456.659C628.653 456.478 628.155 456.388 627.543 456.388C626.796 456.388 626.218 456.558 625.81 456.897C625.425 457.215 625.233 457.622 625.233 458.121C625.233 458.438 625.335 458.732 625.538 459.004C625.742 459.276 626.161 459.525 626.796 459.752C627.43 459.978 628.393 460.216 629.684 460.466C631.225 460.737 632.448 461.145 633.354 461.689C634.261 462.233 634.906 462.867 635.291 463.592C635.699 464.294 635.903 465.053 635.903 465.869C635.903 466.933 635.586 467.885 634.952 468.723C634.317 469.539 633.388 470.184 632.165 470.66C630.964 471.113 629.48 471.34 627.713 471.34Z" fill="white"/>
<path d="M770.413 471C770.187 471 769.983 470.921 769.801 470.762C769.643 470.604 769.564 470.4 769.564 470.15V453.261L764.67 457.033C764.466 457.192 764.251 457.249 764.024 457.203C763.821 457.158 763.639 457.033 763.481 456.829L761.782 454.621C761.646 454.417 761.589 454.201 761.612 453.975C761.657 453.748 761.782 453.567 761.985 453.431L769.733 447.45C769.869 447.36 769.994 447.303 770.107 447.28C770.243 447.235 770.39 447.212 770.549 447.212H774.151C774.378 447.212 774.57 447.292 774.729 447.45C774.887 447.609 774.967 447.813 774.967 448.062V470.15C774.967 470.4 774.887 470.604 774.729 470.762C774.57 470.921 774.378 471 774.151 471H770.413ZM780.965 471C780.761 471 780.591 470.932 780.455 470.796C780.319 470.638 780.251 470.456 780.251 470.252C780.251 470.139 780.263 470.048 780.285 469.981C780.331 469.913 780.365 469.856 780.387 469.811L785.315 463.082C784.907 463.173 784.499 463.207 784.091 463.184C783.004 463.139 781.973 462.924 780.999 462.538C780.025 462.131 779.153 461.576 778.382 460.873C777.612 460.171 777.012 459.344 776.581 458.393C776.151 457.441 775.936 456.388 775.936 455.232C775.936 454.19 776.128 453.171 776.513 452.174C776.921 451.177 777.522 450.282 778.314 449.489C779.107 448.696 780.093 448.062 781.271 447.586C782.449 447.11 783.82 446.873 785.383 446.873C786.946 446.873 788.317 447.088 789.495 447.518C790.695 447.949 791.703 448.549 792.519 449.319C793.335 450.067 793.946 450.939 794.354 451.936C794.762 452.91 794.966 453.952 794.966 455.062C794.966 456.059 794.796 456.988 794.456 457.849C794.116 458.71 793.697 459.514 793.199 460.262C792.7 461.009 792.202 461.734 791.703 462.436L785.994 470.32C785.904 470.434 785.768 470.581 785.587 470.762C785.405 470.921 785.145 471 784.805 471H780.965ZM785.417 459.174C786.164 459.174 786.844 459.016 787.456 458.698C788.067 458.381 788.543 457.928 788.883 457.339C789.245 456.75 789.427 456.048 789.427 455.232C789.427 454.394 789.245 453.68 788.883 453.091C788.543 452.502 788.067 452.049 787.456 451.732C786.844 451.415 786.164 451.256 785.417 451.256C784.692 451.256 784.023 451.415 783.412 451.732C782.8 452.049 782.313 452.502 781.951 453.091C781.611 453.68 781.441 454.394 781.441 455.232C781.441 456.048 781.611 456.75 781.951 457.339C782.313 457.928 782.8 458.381 783.412 458.698C784.023 459.016 784.692 459.174 785.417 459.174ZM801.997 471C801.793 471 801.623 470.932 801.487 470.796C801.351 470.638 801.283 470.456 801.283 470.252C801.283 470.139 801.295 470.048 801.317 469.981C801.363 469.913 801.397 469.856 801.419 469.811L806.347 463.082C805.939 463.173 805.531 463.207 805.123 463.184C804.036 463.139 803.005 462.924 802.031 462.538C801.057 462.131 800.185 461.576 799.414 460.873C798.644 460.171 798.044 459.344 797.613 458.393C797.183 457.441 796.968 456.388 796.968 455.232C796.968 454.19 797.16 453.171 797.545 452.174C797.953 451.177 798.553 450.282 799.346 449.489C800.139 448.696 801.125 448.062 802.303 447.586C803.481 447.11 804.851 446.873 806.415 446.873C807.978 446.873 809.348 447.088 810.526 447.518C811.727 447.949 812.735 448.549 813.551 449.319C814.366 450.067 814.978 450.939 815.386 451.936C815.794 452.91 815.998 453.952 815.998 455.062C815.998 456.059 815.828 456.988 815.488 457.849C815.148 458.71 814.729 459.514 814.231 460.262C813.732 461.009 813.234 461.734 812.735 462.436L807.026 470.32C806.936 470.434 806.8 470.581 806.618 470.762C806.437 470.921 806.177 471 805.837 471H801.997ZM806.449 459.174C807.196 459.174 807.876 459.016 808.488 458.698C809.099 458.381 809.575 457.928 809.915 457.339C810.277 456.75 810.458 456.048 810.458 455.232C810.458 454.394 810.277 453.68 809.915 453.091C809.575 452.502 809.099 452.049 808.488 451.732C807.876 451.415 807.196 451.256 806.449 451.256C805.724 451.256 805.055 451.415 804.444 451.732C803.832 452.049 803.345 452.502 802.982 453.091C802.643 453.68 802.473 454.394 802.473 455.232C802.473 456.048 802.643 456.75 802.982 457.339C803.345 457.928 803.832 458.381 804.444 458.698C805.055 459.016 805.724 459.174 806.449 459.174ZM823.029 471C822.825 471 822.655 470.932 822.519 470.796C822.383 470.638 822.315 470.456 822.315 470.252C822.315 470.139 822.326 470.048 822.349 469.981C822.394 469.913 822.428 469.856 822.451 469.811L827.378 463.082C826.971 463.173 826.563 463.207 826.155 463.184C825.068 463.139 824.037 462.924 823.063 462.538C822.089 462.131 821.216 461.576 820.446 460.873C819.676 460.171 819.075 459.344 818.645 458.393C818.215 457.441 817.999 456.388 817.999 455.232C817.999 454.19 818.192 453.171 818.577 452.174C818.985 451.177 819.585 450.282 820.378 449.489C821.171 448.696 822.157 448.062 823.335 447.586C824.513 447.11 825.883 446.873 827.446 446.873C829.01 446.873 830.38 447.088 831.558 447.518C832.759 447.949 833.767 448.549 834.583 449.319C835.398 450.067 836.01 450.939 836.418 451.936C836.826 452.91 837.029 453.952 837.029 455.062C837.029 456.059 836.859 456.988 836.52 457.849C836.18 458.71 835.761 459.514 835.262 460.262C834.764 461.009 834.266 461.734 833.767 462.436L828.058 470.32C827.967 470.434 827.832 470.581 827.65 470.762C827.469 470.921 827.209 471 826.869 471H823.029ZM827.48 459.174C828.228 459.174 828.908 459.016 829.519 458.698C830.131 458.381 830.607 457.928 830.947 457.339C831.309 456.75 831.49 456.048 831.49 455.232C831.49 454.394 831.309 453.68 830.947 453.091C830.607 452.502 830.131 452.049 829.519 451.732C828.908 451.415 828.228 451.256 827.48 451.256C826.755 451.256 826.087 451.415 825.475 451.732C824.864 452.049 824.377 452.502 824.014 453.091C823.674 453.68 823.504 454.394 823.504 455.232C823.504 456.048 823.674 456.75 824.014 457.339C824.377 457.928 824.864 458.381 825.475 458.698C826.087 459.016 826.755 459.174 827.48 459.174Z" fill="white"/>
</svg>
