<svg width="1176" height="784" viewBox="0 0 1176 784" fill="none" xmlns="http://www.w3.org/2000/svg">
<rect width="1176" height="784" fill="#000894"/>
<g clip-path="url(#clip0_995_5630)">
<path d="M590.481 133L597.057 153.276H618.365L601.134 165.793L607.711 186.068L590.481 173.539L573.238 186.068L579.827 165.793L562.584 153.276H583.891L590.481 133Z" fill="#FFCC00"/>
<path d="M673.864 147.582L680.44 167.857H701.747L684.517 180.387L691.094 200.65L673.864 188.133L656.62 200.65L663.21 180.387L645.967 167.857H667.274L673.864 147.582Z" fill="#FFCC00"/>
<path d="M740.682 188.941L747.271 209.217H768.579L751.335 221.734L757.925 242.009L740.682 229.48L723.451 242.009L730.028 221.734L712.798 209.217H734.105L740.682 188.941Z" fill="#FFCC00"/>
<path d="M791.233 246.011L797.809 266.286H819.117L801.873 278.816L808.463 299.079L791.233 286.549L773.99 299.079L780.579 278.816L763.336 266.286H784.643L791.233 246.011Z" fill="#FFCC00"/>
<path d="M820.104 327.729L826.693 348.005H848L830.757 360.522L837.347 380.797L820.104 368.268L802.873 380.797L809.45 360.522L792.22 348.005H813.527L820.104 327.729Z" fill="#FFCC00"/>
<path d="M820.104 409.024L826.693 429.287H848L830.757 441.817L837.347 462.093L820.104 449.563L802.873 462.093L809.45 441.817L792.22 429.287H813.527L820.104 409.024Z" fill="#FFCC00"/>
<path d="M791.233 485.78L797.809 506.056H819.117L801.873 518.572L808.463 538.848L791.233 526.318L773.99 538.848L780.579 518.572L763.336 506.056H784.643L791.233 485.78Z" fill="#FFCC00"/>
<path d="M733.464 542.144L740.054 562.42H761.348L744.118 574.937L750.707 595.212L733.464 582.683L716.221 595.212L722.81 574.937L705.58 562.42H726.874L733.464 542.144Z" fill="#FFCC00"/>
<path d="M665.223 584.209L671.812 604.472H693.12L675.876 617.002L682.466 637.277L665.223 624.748L647.992 637.277L654.569 617.002L637.339 604.472H658.646L665.223 584.209Z" fill="#FFCC00"/>
<path d="M590.621 598.932L597.198 619.207H618.505L601.275 631.737L607.852 652L590.621 639.47L573.378 652L579.968 631.737L562.725 619.207H584.032L590.621 598.932Z" fill="#FFCC00"/>
<path d="M515.444 584.209L522.02 604.472H543.328L526.097 617.002L532.674 637.277L515.444 624.748L498.2 637.277L504.79 617.002L487.547 604.472H508.854L515.444 584.209Z" fill="#FFCC00"/>
<path d="M441.677 542.003L448.266 562.279H469.574L452.33 574.795L458.92 595.071L441.677 582.542L424.447 595.071L431.036 574.795L413.793 562.279H435.1L441.677 542.003Z" fill="#FFCC00"/>
<path d="M390.011 485.216L396.588 505.479H417.895L400.665 518.008L407.241 538.284L390.011 525.754L372.768 538.284L379.357 518.008L362.114 505.479H383.421L390.011 485.216Z" fill="#FFCC00"/>
<path d="M361.127 409.307L367.717 429.57H389.024L371.781 442.099L378.37 462.375L361.127 449.845L343.897 462.375L350.474 442.099L333.243 429.57H354.538L361.127 409.307Z" fill="#FFCC00"/>
<path d="M355.884 327.729L362.474 348.005H383.781L366.538 360.522L373.127 380.797L355.884 368.268L338.654 380.797L345.243 360.522L328 348.005H349.307L355.884 327.729Z" fill="#FFCC00"/>
<path d="M384.345 246.152L390.934 266.428H412.242L394.998 278.957L401.588 299.22L384.345 286.691L367.115 299.22L373.691 278.957L356.461 266.428H377.768L384.345 246.152Z" fill="#FFCC00"/>
<path d="M441.972 189.223L448.549 209.499H469.856L452.626 222.016L459.202 242.291L441.972 229.762L424.729 242.291L431.318 222.016L414.075 209.499H435.382L441.972 189.223Z" fill="#FFCC00"/>
<path d="M507.085 148.018L513.675 168.28H534.982L517.739 180.81L524.328 201.086L507.085 188.556L489.855 201.086L496.432 180.81L479.201 168.28H500.508L507.085 148.018Z" fill="#FFCC00"/>
<path d="M588.211 330.91C607.286 330.91 622.749 315.441 622.749 296.36C622.749 277.279 607.286 261.811 588.211 261.811C569.137 261.811 553.674 277.279 553.674 296.36C553.674 315.441 569.137 330.91 588.211 330.91Z" fill="#FFCC00"/>
<path d="M556.52 515.61L556.328 516.007C556.405 515.879 556.469 515.738 556.533 515.61H556.52Z" fill="#FFCC00"/>
<path d="M685.248 342.337C685.248 347.89 682.145 352.724 677.581 355.212L645.595 373.59L642.864 375.168L636.416 378.874V378.9C630.595 382.337 626.685 388.672 626.685 395.918C626.685 397.175 626.801 398.393 627.031 399.586L627.083 399.855L628.39 406.716L628.98 409.794L647.223 505.466C647.544 506.671 647.723 507.954 647.723 509.262C647.723 517.341 641.159 523.908 633.095 523.908C627.454 523.908 622.544 520.701 620.108 516.008C620.031 515.879 619.967 515.738 619.903 515.61L595.43 465.838L593.545 462.016C592.545 460.092 590.532 458.771 588.212 458.771C585.891 458.771 583.814 460.131 582.84 462.106H582.827L580.994 465.812L556.52 515.61C556.456 515.738 556.392 515.879 556.315 516.008C553.879 520.701 548.969 523.908 543.328 523.908C535.264 523.908 528.7 517.341 528.7 509.262C528.7 507.954 528.88 506.671 529.2 505.466L547.444 409.794L548.033 406.729L549.341 399.855L549.392 399.586C549.623 398.393 549.738 397.175 549.738 395.918C549.738 388.672 545.828 382.337 540.021 378.9V378.874L533.559 375.168L530.841 373.603L498.855 355.212C494.291 352.724 491.188 347.89 491.188 342.337C491.188 334.27 497.752 327.704 505.829 327.704C507.342 327.704 508.816 327.934 510.188 328.358L544.918 340.22C572.994 349.813 603.455 349.813 631.531 340.22L666.261 328.358C667.633 327.934 669.107 327.704 670.62 327.704C678.697 327.704 685.261 334.27 685.261 342.337H685.248Z" fill="#FFCC00"/>
<path d="M620.108 516.007L619.916 515.61C619.98 515.738 620.044 515.879 620.121 516.007H620.108Z" fill="#FFCC00"/>
</g>
<defs>
<clipPath id="clip0_995_5630">
<rect width="520" height="519" fill="white" transform="translate(328 133)"/>
</clipPath>
</defs>
</svg>
