<svg width="1176" height="784" viewBox="0 0 1176 784" fill="none" xmlns="http://www.w3.org/2000/svg">
<rect width="1176" height="784" fill="#2A2868"/>
<circle cx="174.985" cy="391.192" r="107.116" fill="#FF5C3C"/>
<circle cx="442.282" cy="391.192" r="107.116" fill="#00A36D"/>
<circle cx="709.579" cy="392.175" r="107.116" fill="#6883FF"/>
<circle cx="976.877" cy="391.192" r="107.116" fill="#ECB900"/>
<g clip-path="url(#clip0_996_5686)">
<path d="M708.124 333.876V333.877C713.44 333.841 718.729 334.619 723.809 336.187L723.812 336.188C724.865 336.521 725.915 336.901 726.933 337.317L727.551 337.576C740.487 343.15 750.202 356.406 751.271 370.073H751.27C751.888 377.184 750.085 384.296 746.152 390.254L746.15 390.257C745.501 391.215 744.924 392.153 744.361 393.068V393.069C743.613 394.283 742.834 395.551 741.878 396.874C739.466 400.215 736.628 405.286 734.629 410.775C732.69 416.098 731.553 421.774 732.322 426.628L732.402 427.096L732.404 427.107C732.647 428.723 733.227 430.271 734.106 431.649C734.986 433.026 736.145 434.203 737.509 435.104L737.637 435.195C737.925 435.418 738.146 435.718 738.272 436.063C738.417 436.456 738.431 436.886 738.312 437.288C738.192 437.69 737.946 438.043 737.609 438.294C737.273 438.545 736.866 438.681 736.446 438.681H693.547C693.174 438.681 692.808 438.574 692.494 438.372C692.18 438.171 691.931 437.883 691.776 437.543C691.621 437.204 691.567 436.827 691.62 436.457C691.673 436.088 691.832 435.741 692.076 435.459L692.463 435.001C696.254 430.396 697.08 425.664 696.712 419.49C690.283 423.182 683.15 425.486 675.771 426.246L675.771 426.245C673.723 426.463 671.666 425.928 669.984 424.74L669.982 424.739C668.643 423.781 667.657 422.408 667.176 420.833L667.174 420.827C666.477 418.391 666.822 415.697 667.089 413.599L667.09 413.592C667.196 412.885 667.263 412.172 667.296 411.458C666.845 411.37 666.084 411.215 665.418 410.828C664.708 410.416 664.084 409.728 664.052 408.594V408.582C664.057 407.982 664.229 407.399 664.543 406.896C664.128 406.788 663.735 406.608 663.384 406.358L663.374 406.35C662.135 405.393 661.866 404.132 662.011 402.904C662.153 401.697 662.698 400.487 663.109 399.569C663.273 399.203 663.539 398.608 663.73 398.073C663.827 397.803 663.899 397.563 663.931 397.382C663.944 397.308 663.946 397.254 663.946 397.217C663.462 396.872 662.921 396.614 662.347 396.459L662.335 396.456L662.323 396.452L661.951 396.321L661.949 396.32C661.835 396.278 661.713 396.239 661.582 396.197C660.377 395.912 659.312 395.207 658.58 394.208L658.572 394.198L658.566 394.188C658.221 393.634 658.015 393.005 657.968 392.355C657.92 391.704 658.033 391.051 658.294 390.453L658.297 390.446C659.12 388.696 660.187 387.072 661.467 385.622C662.506 384.386 663.444 383.068 664.272 381.682C664.474 381.326 664.684 380.967 664.894 380.607C665.597 379.399 666.298 378.193 666.779 377.038C667.26 375.883 667.501 374.823 667.331 373.895L667.228 373.369C666.211 367.929 666.932 362.301 669.298 357.287C677.318 339.953 693.117 335.628 699.526 334.573L700.587 334.411C703.064 334.057 705.565 333.878 708.068 333.876H708.124ZM708.071 337.769C705.752 337.77 703.436 337.936 701.141 338.265L700.158 338.415C694.343 339.372 680.066 343.285 672.831 358.924L672.829 358.927C670.719 363.361 670.131 368.368 671.156 373.17L671.158 373.179C671.471 374.871 671.143 376.53 670.544 378.102C669.945 379.671 669.066 381.179 668.258 382.567C668.053 382.919 667.85 383.267 667.654 383.611L667.651 383.615C666.72 385.183 665.664 386.672 664.493 388.07L664.487 388.076C663.446 389.249 662.569 390.557 661.88 391.966L661.877 391.971C661.864 391.996 661.856 392.024 661.854 392.053C661.853 392.058 661.853 392.064 661.854 392.07C662.074 392.249 662.33 392.38 662.604 392.451L662.737 392.482L662.757 392.485L662.775 392.491C662.942 392.545 663.11 392.599 663.271 392.657H663.271L663.597 392.774C664.711 393.089 665.745 393.638 666.631 394.384L666.638 394.389L666.644 394.395C667.731 395.409 667.945 396.644 667.781 397.845C667.62 399.027 667.089 400.207 666.662 401.159L666.658 401.168L666.653 401.177C666.324 401.804 666.077 402.47 665.92 403.159C666.186 403.179 666.451 403.194 666.718 403.196H666.724C667.29 403.207 668.027 403.219 668.663 403.437C669.324 403.663 669.9 404.12 670.091 405.003V405.004C670.244 405.72 670.054 406.333 669.732 406.855C669.517 407.204 669.235 407.52 668.954 407.809C669.255 407.894 669.542 408.024 669.806 408.196C670.194 408.449 670.521 408.786 670.763 409.18L670.861 409.353L670.868 409.365L670.873 409.379C671.14 410.021 671.215 410.735 671.197 411.512C671.184 412.093 671.119 412.724 671.037 413.399L670.951 414.089C670.707 416.015 670.447 418.103 670.914 419.746L671.015 420.023C671.276 420.655 671.715 421.201 672.279 421.595C673.196 422.224 674.311 422.5 675.416 422.369H675.42C682.767 421.595 689.847 419.185 696.141 415.318L696.146 415.315L697.153 414.721L697.156 414.719L697.185 414.702C697.45 414.492 697.766 414.354 698.102 414.303C698.449 414.251 698.805 414.294 699.13 414.427C699.455 414.56 699.738 414.779 699.949 415.06C700.16 415.341 700.291 415.674 700.328 416.024C701.094 423.282 700.836 429.209 697.397 434.788H731.542C730.019 432.73 729 430.34 728.575 427.809L728.483 427.28C727.608 421.783 728.843 415.492 730.917 409.697C733.06 403.709 736.112 398.21 738.723 394.595C739.592 393.391 740.294 392.249 741.045 391.029C741.625 390.086 742.229 389.104 742.927 388.073C746.366 382.848 747.939 376.612 747.389 370.38V370.377C746.415 357.921 737.397 345.798 725.46 340.921C724.54 340.545 723.591 340.2 722.64 339.9V339.901C717.939 338.452 713.044 337.733 708.126 337.769H708.071Z" fill="white" stroke="white" stroke-width="0.63776"/>
<path d="M721.409 376.574C723.429 375.667 725.416 375.408 727.333 376.456C727.75 376.684 728.06 377.069 728.193 377.525C728.327 377.982 728.274 378.472 728.046 378.89C727.818 379.307 727.433 379.616 726.977 379.75C726.52 379.884 726.029 379.831 725.612 379.603C725.001 379.267 724.198 379.333 723.235 379.704C722.277 380.074 721.198 380.731 720.064 381.521L719.546 381.882L719.82 381.312C720.528 379.85 721.031 378.296 721.314 376.696L721.329 376.61L721.409 376.574Z" fill="white" stroke="white" stroke-width="0.3309"/>
<mask id="path-7-outside-1_996_5686" maskUnits="userSpaceOnUse" x="675.185" y="342.143" width="67" height="59" fill="black">
<rect fill="white" x="675.185" y="342.143" width="67" height="59"/>
<path d="M740.516 362.373C739.729 359.987 738.048 357.999 735.826 356.828C735.018 352.923 731.982 349.307 727.523 347.01C723.043 344.703 718.16 344.258 714.416 345.752C712.381 343.703 709.016 342.767 705.261 343.281C701.508 343.794 698.427 345.632 696.994 348.115C694.634 347.88 692.263 348.427 690.245 349.671C688.227 350.916 686.674 352.79 685.826 355.004C683.199 355.639 680.885 357.191 679.301 359.381C677.739 361.572 677.089 364.284 677.487 366.945C676.739 368.35 676.302 369.898 676.205 371.486C676.108 373.074 676.355 374.664 676.927 376.149C677.395 377.404 678.123 378.547 679.063 379.503C680.003 380.458 681.134 381.205 682.382 381.693C683.203 383.956 685.51 385.719 688.653 386.411C691.421 387.022 694.795 386.758 697.113 385.07C698.042 386.32 699.199 387.384 700.522 388.206C700.885 387.175 701.381 386.195 701.995 385.292C700.76 384.416 699.719 383.295 698.936 381.999C698.734 377.99 699.564 373.335 701.926 372.194C702.312 372.005 702.608 371.67 702.749 371.264C702.889 370.857 702.863 370.411 702.676 370.024C702.489 369.636 702.156 369.339 701.75 369.196C701.344 369.054 700.898 369.078 700.509 369.263C699.202 369.933 698.137 370.995 697.462 372.3C697.384 372.75 697.344 373.206 697.342 373.663C697.343 374.951 696.834 376.187 695.926 377.1C695.685 378.714 695.603 380.348 695.682 381.978C694.484 383.268 691.937 383.801 689.353 383.232C687.581 382.842 685.595 381.832 685.335 380.171C685.286 379.859 685.148 379.569 684.938 379.334C684.727 379.1 684.453 378.932 684.149 378.85C683.191 378.588 682.31 378.099 681.581 377.424C680.852 376.749 680.297 375.908 679.962 374.972C679.529 373.864 679.357 372.67 679.461 371.484C679.566 370.298 679.943 369.152 680.563 368.136C680.791 367.781 680.871 367.351 680.787 366.938C680.572 365.964 680.565 364.956 680.766 363.979C680.967 363.003 681.371 362.08 681.952 361.27C682.581 360.399 683.378 359.664 684.297 359.108C685.216 358.552 686.238 358.188 687.301 358.036C687.623 357.992 687.924 357.854 688.166 357.638C688.409 357.422 688.581 357.139 688.661 356.825C689.17 354.945 690.4 353.342 692.084 352.364C693.723 351.373 695.687 351.069 697.55 351.517C697.955 351.622 698.384 351.567 698.749 351.364C699.115 351.16 699.387 350.824 699.511 350.425C700.107 348.505 702.595 346.931 705.701 346.507C707.541 346.186 709.435 346.468 711.101 347.31C710.098 348 709.163 348.783 708.307 349.649C706.685 351.203 705.397 352.427 703.177 352.277C702.963 352.262 702.749 352.29 702.547 352.358C702.344 352.426 702.157 352.533 701.996 352.673C701.835 352.814 701.703 352.985 701.607 353.176C701.512 353.367 701.456 353.575 701.441 353.789C701.426 354.002 701.454 354.216 701.522 354.419C701.59 354.621 701.697 354.808 701.837 354.97C701.978 355.131 702.148 355.263 702.34 355.358C702.531 355.453 702.739 355.51 702.952 355.524C703.165 355.539 703.371 355.546 703.572 355.546C704.474 355.547 705.369 355.387 706.214 355.072C706.158 355.471 706.12 355.865 706.099 356.249C707.194 356.343 708.276 356.545 709.331 356.854C709.379 354.128 710.235 351.346 714.683 349.219C714.707 349.206 714.733 349.199 714.757 349.186C717.631 347.576 722.056 347.856 726.032 349.905C729.89 351.892 732.399 354.98 732.745 358.165C732.779 358.478 732.903 358.774 733.101 359.017C733.3 359.261 733.565 359.442 733.864 359.539C734.718 359.889 735.485 360.426 736.106 361.11C736.728 361.793 737.19 362.607 737.458 363.491C738.241 365.637 738.22 367.994 737.401 370.126C736.634 369.336 735.778 368.639 734.85 368.048C734.659 367.73 734.365 367.487 734.015 367.36C731.355 366.409 730.797 362.926 730.797 360.171C730.797 359.74 730.625 359.326 730.32 359.02C730.015 358.715 729.601 358.544 729.169 358.544C728.737 358.544 728.323 358.715 728.018 359.02C727.713 359.326 727.542 359.74 727.542 360.171C727.497 362.066 727.8 363.953 728.435 365.739C726.741 365.477 725.029 365.351 723.316 365.364C722.884 365.364 722.47 365.535 722.165 365.841C721.86 366.146 721.688 366.56 721.688 366.992C721.688 367.423 721.86 367.837 722.165 368.143C722.47 368.448 722.884 368.619 723.316 368.619C731.018 368.619 734.129 370.781 736.43 374.027C736.539 374.176 736.673 374.305 736.827 374.409C737.041 376.246 736.641 378.103 735.689 379.69C734.737 381.277 733.287 382.504 731.565 383.18C731.225 383.297 730.934 383.524 730.736 383.824C730.538 384.124 730.446 384.481 730.473 384.84C730.417 385.182 730.285 385.506 730.085 385.789C729.885 386.071 729.623 386.304 729.319 386.47C729.026 386.705 728.681 386.868 728.313 386.944C727.945 387.02 727.564 387.007 727.202 386.907L727.194 386.904C726.953 386.795 726.689 386.742 726.424 386.75C726.159 386.758 725.899 386.827 725.664 386.951L725.657 386.954C725.629 386.97 725.607 386.992 725.58 387.009C725.466 387.076 725.364 387.163 725.28 387.266C725.249 387.299 725.216 387.33 725.187 387.367C725.139 387.432 725.095 387.501 725.057 387.573C725.045 387.594 725.029 387.611 725.018 387.633L725.016 387.639C724.975 387.725 724.941 387.813 724.915 387.904C724.911 387.917 724.904 387.93 724.9 387.943C724.874 388.044 724.856 388.148 724.849 388.253C724.848 388.313 724.849 388.373 724.854 388.432C724.856 388.478 724.853 388.523 724.859 388.569C724.872 388.673 724.896 388.776 724.929 388.876C724.933 388.889 724.94 388.9 724.945 388.912C724.976 389.002 725.015 389.088 725.062 389.171L725.065 389.178L728.432 394.989L727.372 396.054L720.927 388.105C720.906 388.079 720.88 388.059 720.858 388.035C720.819 387.992 720.778 387.951 720.735 387.912C720.697 387.878 720.657 387.848 720.617 387.819C720.573 387.786 720.527 387.756 720.481 387.728C720.436 387.702 720.39 387.68 720.344 387.658C720.295 387.636 720.247 387.615 720.196 387.597C720.149 387.581 720.101 387.568 720.052 387.556C719.999 387.542 719.946 387.531 719.892 387.523C719.843 387.516 719.794 387.513 719.745 387.51C719.691 387.507 719.636 387.506 719.581 387.509C719.529 387.511 719.478 387.518 719.426 387.526C719.375 387.533 719.324 387.541 719.274 387.554C719.217 387.569 719.16 387.587 719.105 387.608C719.076 387.619 719.045 387.624 719.016 387.636C718.404 387.866 717.75 387.963 717.097 387.921C716.445 387.879 715.809 387.699 715.231 387.393C714.352 388.111 713.403 388.739 712.398 389.267C712.685 389.568 713.004 389.835 713.35 390.063C714.557 390.816 715.956 391.204 717.379 391.181C717.952 391.18 718.523 391.12 719.084 391L725.982 399.51C726.126 399.688 726.306 399.833 726.509 399.936C726.712 400.04 726.935 400.099 727.163 400.11C727.191 400.112 727.219 400.113 727.247 400.113C727.461 400.113 727.673 400.071 727.871 399.988C728.069 399.906 728.249 399.786 728.4 399.634L731.62 396.401C731.873 396.147 732.035 395.817 732.081 395.462C732.127 395.107 732.055 394.746 731.875 394.436L729.318 390.024C729.962 389.834 730.573 389.548 731.131 389.174C732.336 388.413 733.218 387.233 733.607 385.862C735.982 384.697 737.89 382.758 739.017 380.365C740.145 377.972 740.425 375.267 739.811 372.694C740.646 371.119 741.14 369.387 741.262 367.609C741.383 365.831 741.129 364.047 740.516 362.373Z"/>
</mask>
<path d="M740.516 362.373C739.729 359.987 738.048 357.999 735.826 356.828C735.018 352.923 731.982 349.307 727.523 347.01C723.043 344.703 718.16 344.258 714.416 345.752C712.381 343.703 709.016 342.767 705.261 343.281C701.508 343.794 698.427 345.632 696.994 348.115C694.634 347.88 692.263 348.427 690.245 349.671C688.227 350.916 686.674 352.79 685.826 355.004C683.199 355.639 680.885 357.191 679.301 359.381C677.739 361.572 677.089 364.284 677.487 366.945C676.739 368.35 676.302 369.898 676.205 371.486C676.108 373.074 676.355 374.664 676.927 376.149C677.395 377.404 678.123 378.547 679.063 379.503C680.003 380.458 681.134 381.205 682.382 381.693C683.203 383.956 685.51 385.719 688.653 386.411C691.421 387.022 694.795 386.758 697.113 385.07C698.042 386.32 699.199 387.384 700.522 388.206C700.885 387.175 701.381 386.195 701.995 385.292C700.76 384.416 699.719 383.295 698.936 381.999C698.734 377.99 699.564 373.335 701.926 372.194C702.312 372.005 702.608 371.67 702.749 371.264C702.889 370.857 702.863 370.411 702.676 370.024C702.489 369.636 702.156 369.339 701.75 369.196C701.344 369.054 700.898 369.078 700.509 369.263C699.202 369.933 698.137 370.995 697.462 372.3C697.384 372.75 697.344 373.206 697.342 373.663C697.343 374.951 696.834 376.187 695.926 377.1C695.685 378.714 695.603 380.348 695.682 381.978C694.484 383.268 691.937 383.801 689.353 383.232C687.581 382.842 685.595 381.832 685.335 380.171C685.286 379.859 685.148 379.569 684.938 379.334C684.727 379.1 684.453 378.932 684.149 378.85C683.191 378.588 682.31 378.099 681.581 377.424C680.852 376.749 680.297 375.908 679.962 374.972C679.529 373.864 679.357 372.67 679.461 371.484C679.566 370.298 679.943 369.152 680.563 368.136C680.791 367.781 680.871 367.351 680.787 366.938C680.572 365.964 680.565 364.956 680.766 363.979C680.967 363.003 681.371 362.08 681.952 361.27C682.581 360.399 683.378 359.664 684.297 359.108C685.216 358.552 686.238 358.188 687.301 358.036C687.623 357.992 687.924 357.854 688.166 357.638C688.409 357.422 688.581 357.139 688.661 356.825C689.17 354.945 690.4 353.342 692.084 352.364C693.723 351.373 695.687 351.069 697.55 351.517C697.955 351.622 698.384 351.567 698.749 351.364C699.115 351.16 699.387 350.824 699.511 350.425C700.107 348.505 702.595 346.931 705.701 346.507C707.541 346.186 709.435 346.468 711.101 347.31C710.098 348 709.163 348.783 708.307 349.649C706.685 351.203 705.397 352.427 703.177 352.277C702.963 352.262 702.749 352.29 702.547 352.358C702.344 352.426 702.157 352.533 701.996 352.673C701.835 352.814 701.703 352.985 701.607 353.176C701.512 353.367 701.456 353.575 701.441 353.789C701.426 354.002 701.454 354.216 701.522 354.419C701.59 354.621 701.697 354.808 701.837 354.97C701.978 355.131 702.148 355.263 702.34 355.358C702.531 355.453 702.739 355.51 702.952 355.524C703.165 355.539 703.371 355.546 703.572 355.546C704.474 355.547 705.369 355.387 706.214 355.072C706.158 355.471 706.12 355.865 706.099 356.249C707.194 356.343 708.276 356.545 709.331 356.854C709.379 354.128 710.235 351.346 714.683 349.219C714.707 349.206 714.733 349.199 714.757 349.186C717.631 347.576 722.056 347.856 726.032 349.905C729.89 351.892 732.399 354.98 732.745 358.165C732.779 358.478 732.903 358.774 733.101 359.017C733.3 359.261 733.565 359.442 733.864 359.539C734.718 359.889 735.485 360.426 736.106 361.11C736.728 361.793 737.19 362.607 737.458 363.491C738.241 365.637 738.22 367.994 737.401 370.126C736.634 369.336 735.778 368.639 734.85 368.048C734.659 367.73 734.365 367.487 734.015 367.36C731.355 366.409 730.797 362.926 730.797 360.171C730.797 359.74 730.625 359.326 730.32 359.02C730.015 358.715 729.601 358.544 729.169 358.544C728.737 358.544 728.323 358.715 728.018 359.02C727.713 359.326 727.542 359.74 727.542 360.171C727.497 362.066 727.8 363.953 728.435 365.739C726.741 365.477 725.029 365.351 723.316 365.364C722.884 365.364 722.47 365.535 722.165 365.841C721.86 366.146 721.688 366.56 721.688 366.992C721.688 367.423 721.86 367.837 722.165 368.143C722.47 368.448 722.884 368.619 723.316 368.619C731.018 368.619 734.129 370.781 736.43 374.027C736.539 374.176 736.673 374.305 736.827 374.409C737.041 376.246 736.641 378.103 735.689 379.69C734.737 381.277 733.287 382.504 731.565 383.18C731.225 383.297 730.934 383.524 730.736 383.824C730.538 384.124 730.446 384.481 730.473 384.84C730.417 385.182 730.285 385.506 730.085 385.789C729.885 386.071 729.623 386.304 729.319 386.47C729.026 386.705 728.681 386.868 728.313 386.944C727.945 387.02 727.564 387.007 727.202 386.907L727.194 386.904C726.953 386.795 726.689 386.742 726.424 386.75C726.159 386.758 725.899 386.827 725.664 386.951L725.657 386.954C725.629 386.97 725.607 386.992 725.58 387.009C725.466 387.076 725.364 387.163 725.28 387.266C725.249 387.299 725.216 387.33 725.187 387.367C725.139 387.432 725.095 387.501 725.057 387.573C725.045 387.594 725.029 387.611 725.018 387.633L725.016 387.639C724.975 387.725 724.941 387.813 724.915 387.904C724.911 387.917 724.904 387.93 724.9 387.943C724.874 388.044 724.856 388.148 724.849 388.253C724.848 388.313 724.849 388.373 724.854 388.432C724.856 388.478 724.853 388.523 724.859 388.569C724.872 388.673 724.896 388.776 724.929 388.876C724.933 388.889 724.94 388.9 724.945 388.912C724.976 389.002 725.015 389.088 725.062 389.171L725.065 389.178L728.432 394.989L727.372 396.054L720.927 388.105C720.906 388.079 720.88 388.059 720.858 388.035C720.819 387.992 720.778 387.951 720.735 387.912C720.697 387.878 720.657 387.848 720.617 387.819C720.573 387.786 720.527 387.756 720.481 387.728C720.436 387.702 720.39 387.68 720.344 387.658C720.295 387.636 720.247 387.615 720.196 387.597C720.149 387.581 720.101 387.568 720.052 387.556C719.999 387.542 719.946 387.531 719.892 387.523C719.843 387.516 719.794 387.513 719.745 387.51C719.691 387.507 719.636 387.506 719.581 387.509C719.529 387.511 719.478 387.518 719.426 387.526C719.375 387.533 719.324 387.541 719.274 387.554C719.217 387.569 719.16 387.587 719.105 387.608C719.076 387.619 719.045 387.624 719.016 387.636C718.404 387.866 717.75 387.963 717.097 387.921C716.445 387.879 715.809 387.699 715.231 387.393C714.352 388.111 713.403 388.739 712.398 389.267C712.685 389.568 713.004 389.835 713.35 390.063C714.557 390.816 715.956 391.204 717.379 391.181C717.952 391.18 718.523 391.12 719.084 391L725.982 399.51C726.126 399.688 726.306 399.833 726.509 399.936C726.712 400.04 726.935 400.099 727.163 400.11C727.191 400.112 727.219 400.113 727.247 400.113C727.461 400.113 727.673 400.071 727.871 399.988C728.069 399.906 728.249 399.786 728.4 399.634L731.62 396.401C731.873 396.147 732.035 395.817 732.081 395.462C732.127 395.107 732.055 394.746 731.875 394.436L729.318 390.024C729.962 389.834 730.573 389.548 731.131 389.174C732.336 388.413 733.218 387.233 733.607 385.862C735.982 384.697 737.89 382.758 739.017 380.365C740.145 377.972 740.425 375.267 739.811 372.694C740.646 371.119 741.14 369.387 741.262 367.609C741.383 365.831 741.129 364.047 740.516 362.373Z" fill="white"/>
<path d="M740.516 362.373C739.729 359.987 738.048 357.999 735.826 356.828C735.018 352.923 731.982 349.307 727.523 347.01C723.043 344.703 718.16 344.258 714.416 345.752C712.381 343.703 709.016 342.767 705.261 343.281C701.508 343.794 698.427 345.632 696.994 348.115C694.634 347.88 692.263 348.427 690.245 349.671C688.227 350.916 686.674 352.79 685.826 355.004C683.199 355.639 680.885 357.191 679.301 359.381C677.739 361.572 677.089 364.284 677.487 366.945C676.739 368.35 676.302 369.898 676.205 371.486C676.108 373.074 676.355 374.664 676.927 376.149C677.395 377.404 678.123 378.547 679.063 379.503C680.003 380.458 681.134 381.205 682.382 381.693C683.203 383.956 685.51 385.719 688.653 386.411C691.421 387.022 694.795 386.758 697.113 385.07C698.042 386.32 699.199 387.384 700.522 388.206C700.885 387.175 701.381 386.195 701.995 385.292C700.76 384.416 699.719 383.295 698.936 381.999C698.734 377.99 699.564 373.335 701.926 372.194C702.312 372.005 702.608 371.67 702.749 371.264C702.889 370.857 702.863 370.411 702.676 370.024C702.489 369.636 702.156 369.339 701.75 369.196C701.344 369.054 700.898 369.078 700.509 369.263C699.202 369.933 698.137 370.995 697.462 372.3C697.384 372.75 697.344 373.206 697.342 373.663C697.343 374.951 696.834 376.187 695.926 377.1C695.685 378.714 695.603 380.348 695.682 381.978C694.484 383.268 691.937 383.801 689.353 383.232C687.581 382.842 685.595 381.832 685.335 380.171C685.286 379.859 685.148 379.569 684.938 379.334C684.727 379.1 684.453 378.932 684.149 378.85C683.191 378.588 682.31 378.099 681.581 377.424C680.852 376.749 680.297 375.908 679.962 374.972C679.529 373.864 679.357 372.67 679.461 371.484C679.566 370.298 679.943 369.152 680.563 368.136C680.791 367.781 680.871 367.351 680.787 366.938C680.572 365.964 680.565 364.956 680.766 363.979C680.967 363.003 681.371 362.08 681.952 361.27C682.581 360.399 683.378 359.664 684.297 359.108C685.216 358.552 686.238 358.188 687.301 358.036C687.623 357.992 687.924 357.854 688.166 357.638C688.409 357.422 688.581 357.139 688.661 356.825C689.17 354.945 690.4 353.342 692.084 352.364C693.723 351.373 695.687 351.069 697.55 351.517C697.955 351.622 698.384 351.567 698.749 351.364C699.115 351.16 699.387 350.824 699.511 350.425C700.107 348.505 702.595 346.931 705.701 346.507C707.541 346.186 709.435 346.468 711.101 347.31C710.098 348 709.163 348.783 708.307 349.649C706.685 351.203 705.397 352.427 703.177 352.277C702.963 352.262 702.749 352.29 702.547 352.358C702.344 352.426 702.157 352.533 701.996 352.673C701.835 352.814 701.703 352.985 701.607 353.176C701.512 353.367 701.456 353.575 701.441 353.789C701.426 354.002 701.454 354.216 701.522 354.419C701.59 354.621 701.697 354.808 701.837 354.97C701.978 355.131 702.148 355.263 702.34 355.358C702.531 355.453 702.739 355.51 702.952 355.524C703.165 355.539 703.371 355.546 703.572 355.546C704.474 355.547 705.369 355.387 706.214 355.072C706.158 355.471 706.12 355.865 706.099 356.249C707.194 356.343 708.276 356.545 709.331 356.854C709.379 354.128 710.235 351.346 714.683 349.219C714.707 349.206 714.733 349.199 714.757 349.186C717.631 347.576 722.056 347.856 726.032 349.905C729.89 351.892 732.399 354.98 732.745 358.165C732.779 358.478 732.903 358.774 733.101 359.017C733.3 359.261 733.565 359.442 733.864 359.539C734.718 359.889 735.485 360.426 736.106 361.11C736.728 361.793 737.19 362.607 737.458 363.491C738.241 365.637 738.22 367.994 737.401 370.126C736.634 369.336 735.778 368.639 734.85 368.048C734.659 367.73 734.365 367.487 734.015 367.36C731.355 366.409 730.797 362.926 730.797 360.171C730.797 359.74 730.625 359.326 730.32 359.02C730.015 358.715 729.601 358.544 729.169 358.544C728.737 358.544 728.323 358.715 728.018 359.02C727.713 359.326 727.542 359.74 727.542 360.171C727.497 362.066 727.8 363.953 728.435 365.739C726.741 365.477 725.029 365.351 723.316 365.364C722.884 365.364 722.47 365.535 722.165 365.841C721.86 366.146 721.688 366.56 721.688 366.992C721.688 367.423 721.86 367.837 722.165 368.143C722.47 368.448 722.884 368.619 723.316 368.619C731.018 368.619 734.129 370.781 736.43 374.027C736.539 374.176 736.673 374.305 736.827 374.409C737.041 376.246 736.641 378.103 735.689 379.69C734.737 381.277 733.287 382.504 731.565 383.18C731.225 383.297 730.934 383.524 730.736 383.824C730.538 384.124 730.446 384.481 730.473 384.84C730.417 385.182 730.285 385.506 730.085 385.789C729.885 386.071 729.623 386.304 729.319 386.47C729.026 386.705 728.681 386.868 728.313 386.944C727.945 387.02 727.564 387.007 727.202 386.907L727.194 386.904C726.953 386.795 726.689 386.742 726.424 386.75C726.159 386.758 725.899 386.827 725.664 386.951L725.657 386.954C725.629 386.97 725.607 386.992 725.58 387.009C725.466 387.076 725.364 387.163 725.28 387.266C725.249 387.299 725.216 387.33 725.187 387.367C725.139 387.432 725.095 387.501 725.057 387.573C725.045 387.594 725.029 387.611 725.018 387.633L725.016 387.639C724.975 387.725 724.941 387.813 724.915 387.904C724.911 387.917 724.904 387.93 724.9 387.943C724.874 388.044 724.856 388.148 724.849 388.253C724.848 388.313 724.849 388.373 724.854 388.432C724.856 388.478 724.853 388.523 724.859 388.569C724.872 388.673 724.896 388.776 724.929 388.876C724.933 388.889 724.94 388.9 724.945 388.912C724.976 389.002 725.015 389.088 725.062 389.171L725.065 389.178L728.432 394.989L727.372 396.054L720.927 388.105C720.906 388.079 720.88 388.059 720.858 388.035C720.819 387.992 720.778 387.951 720.735 387.912C720.697 387.878 720.657 387.848 720.617 387.819C720.573 387.786 720.527 387.756 720.481 387.728C720.436 387.702 720.39 387.68 720.344 387.658C720.295 387.636 720.247 387.615 720.196 387.597C720.149 387.581 720.101 387.568 720.052 387.556C719.999 387.542 719.946 387.531 719.892 387.523C719.843 387.516 719.794 387.513 719.745 387.51C719.691 387.507 719.636 387.506 719.581 387.509C719.529 387.511 719.478 387.518 719.426 387.526C719.375 387.533 719.324 387.541 719.274 387.554C719.217 387.569 719.16 387.587 719.105 387.608C719.076 387.619 719.045 387.624 719.016 387.636C718.404 387.866 717.75 387.963 717.097 387.921C716.445 387.879 715.809 387.699 715.231 387.393C714.352 388.111 713.403 388.739 712.398 389.267C712.685 389.568 713.004 389.835 713.35 390.063C714.557 390.816 715.956 391.204 717.379 391.181C717.952 391.18 718.523 391.12 719.084 391L725.982 399.51C726.126 399.688 726.306 399.833 726.509 399.936C726.712 400.04 726.935 400.099 727.163 400.11C727.191 400.112 727.219 400.113 727.247 400.113C727.461 400.113 727.673 400.071 727.871 399.988C728.069 399.906 728.249 399.786 728.4 399.634L731.62 396.401C731.873 396.147 732.035 395.817 732.081 395.462C732.127 395.107 732.055 394.746 731.875 394.436L729.318 390.024C729.962 389.834 730.573 389.548 731.131 389.174C732.336 388.413 733.218 387.233 733.607 385.862C735.982 384.697 737.89 382.758 739.017 380.365C740.145 377.972 740.425 375.267 739.811 372.694C740.646 371.119 741.14 369.387 741.262 367.609C741.383 365.831 741.129 364.047 740.516 362.373Z" stroke="white" stroke-width="0.661801" mask="url(#path-7-outside-1_996_5686)"/>
<path d="M706.458 395.979C706.458 396.454 706.269 396.911 705.933 397.247C705.596 397.583 705.14 397.771 704.665 397.771C704.189 397.771 703.733 397.583 703.396 397.247C703.06 396.911 702.872 396.454 702.872 395.979V392.497C702.857 390.627 703.392 388.793 704.412 387.226C705.432 385.658 706.892 384.424 708.608 383.681C710.61 382.791 712.297 381.319 713.45 379.457C714.603 377.594 715.168 375.427 715.071 373.238V373.237C714.868 367.716 710.374 363.059 705.07 362.851C703.695 362.798 702.323 363.027 701.038 363.52C699.753 364.013 698.581 364.76 697.594 365.719C696.533 366.751 695.691 367.987 695.116 369.352C694.542 370.716 694.248 372.183 694.251 373.663L694.242 373.841C694.201 374.251 694.02 374.637 693.726 374.932C693.389 375.268 692.933 375.456 692.458 375.456C691.982 375.456 691.526 375.268 691.189 374.932C690.853 374.595 690.665 374.139 690.665 373.663C690.663 371.7 691.055 369.758 691.818 367.949C692.581 366.141 693.7 364.504 695.107 363.136C696.441 361.84 698.025 360.828 699.762 360.163C701.498 359.498 703.352 359.194 705.21 359.269H705.213C708.78 359.472 712.141 361.007 714.63 363.569C717.119 366.132 718.556 369.535 718.655 373.105L718.668 373.65C718.679 376.376 717.92 379.055 716.476 381.375C715.031 383.695 712.962 385.556 710.511 386.749L710.016 386.979C708.947 387.447 708.039 388.22 707.406 389.201C706.774 390.182 706.444 391.328 706.458 392.495V395.979Z" fill="white" stroke="white" stroke-width="0.3309"/>
<path d="M704.666 399.808C706.104 399.809 707.261 401.011 707.262 402.484C707.262 403.957 706.105 405.161 704.666 405.161C703.227 405.161 702.07 403.957 702.07 402.484C702.071 401.011 703.227 399.808 704.666 399.808Z" fill="white" stroke="white" stroke-width="0.3309"/>
</g>
<path d="M174.984 379.018C169.971 379.018 165.452 382.038 163.531 386.673C161.613 391.307 162.675 396.638 166.224 400.183C169.768 403.728 175.099 404.786 179.735 402.869C184.365 400.951 187.385 396.428 187.385 391.415C187.377 384.568 181.831 379.022 174.984 379.018ZM174.984 398.707C172.028 398.707 169.363 396.925 168.237 394.192C167.107 391.458 167.735 388.316 169.828 386.231C171.921 384.142 175.063 383.522 177.793 384.656C180.522 385.789 182.3 388.459 182.292 391.415C182.288 395.449 179.018 398.715 174.984 398.719V398.707Z" fill="white"/>
<path d="M204.101 369.877C191.458 363.134 176.866 360.986 162.819 363.806C148.767 366.627 136.132 374.237 127.073 385.341C124.193 388.878 124.193 393.954 127.073 397.491C138.813 411.889 156.41 420.239 174.984 420.239C193.559 420.239 211.155 411.889 222.895 397.491C225.775 393.951 225.775 388.878 222.895 385.337C217.715 378.992 211.326 373.736 204.101 369.877ZM174.984 415.138C168.69 415.138 162.656 412.64 158.207 408.188C153.755 403.74 151.257 397.705 151.257 391.411C151.257 385.117 153.759 379.083 158.207 374.634C162.659 370.182 168.694 367.684 174.988 367.684C181.278 367.684 187.313 370.186 191.765 374.638C196.213 379.086 198.711 385.121 198.711 391.415C198.699 397.705 196.197 403.732 191.749 408.18C187.301 412.627 181.274 415.13 174.984 415.138ZM131.012 394.268C129.659 392.605 129.659 390.226 131.012 388.563C135.77 382.739 141.634 377.913 148.265 374.368C150.127 373.385 152.041 372.502 154.002 371.726C148.969 377.045 146.165 384.091 146.165 391.415C146.165 398.738 148.969 405.784 154.002 411.103C145.019 407.559 137.102 401.759 131.012 394.268ZM218.957 394.268C214.202 400.092 208.338 404.918 201.706 408.463C199.844 409.45 197.927 410.333 195.965 411.105C200.998 405.786 203.803 398.74 203.803 391.416C203.803 384.092 200.998 377.047 195.965 371.727C204.948 375.268 212.866 381.069 218.952 388.559C220.304 390.222 220.305 392.605 218.957 394.268Z" fill="white"/>
<path d="M151.305 359.008C152.009 360.226 153.565 360.643 154.786 359.943C156.004 359.239 156.421 357.679 155.717 356.462L152.578 351.016C151.874 349.798 150.319 349.381 149.097 350.085C147.88 350.785 147.462 352.345 148.166 353.562L151.305 359.008Z" fill="white"/>
<path d="M154.782 422.887C154.197 422.549 153.501 422.458 152.849 422.633C152.196 422.808 151.639 423.237 151.305 423.822L148.166 429.28C147.462 430.498 147.88 432.057 149.097 432.761C150.319 433.462 151.874 433.044 152.578 431.827L155.713 426.38C156.055 425.795 156.151 425.095 155.976 424.439C155.801 423.786 155.371 423.225 154.782 422.887Z" fill="white"/>
<path d="M174.985 428.302C173.58 428.302 172.438 429.444 172.438 430.848V437.158C172.438 438.562 173.58 439.704 174.985 439.704C176.389 439.704 177.531 438.562 177.531 437.158V430.848C177.531 429.444 176.389 428.302 174.985 428.302Z" fill="white"/>
<path d="M198.667 423.822C197.963 422.605 196.408 422.187 195.186 422.888C193.969 423.592 193.551 425.151 194.255 426.369L197.41 431.827H197.406C198.11 433.044 199.67 433.462 200.887 432.762C202.105 432.058 202.522 430.498 201.822 429.281L198.667 423.822Z" fill="white"/>
<path d="M195.191 359.939C195.775 360.277 196.472 360.369 197.124 360.194C197.773 360.023 198.329 359.593 198.668 359.008L201.822 353.546C202.523 352.329 202.105 350.769 200.888 350.065C199.67 349.365 198.111 349.783 197.407 351L194.256 356.45C193.917 357.035 193.822 357.731 193.997 358.388C194.172 359.044 194.602 359.601 195.191 359.939Z" fill="white"/>
<path d="M174.985 354.524C176.389 354.524 177.531 353.382 177.531 351.978V345.672C177.531 344.268 176.389 343.126 174.985 343.126C173.58 343.126 172.438 344.268 172.438 345.672V351.978C172.438 353.382 173.58 354.524 174.985 354.524Z" fill="white"/>
<path d="M431.831 403.854C431.831 405.141 430.789 406.183 429.501 406.183C428.214 406.183 427.172 405.141 427.172 403.854V395.341C427.167 395.264 427.135 395.191 427.085 395.141C427.031 395.091 426.953 395.055 426.867 395.055C425.689 395.055 424.615 395.537 423.837 396.306C423.068 397.084 422.586 398.157 422.586 399.331V406.01C422.586 408.553 422.918 410.892 423.596 413.094C424.278 415.305 425.32 417.425 426.749 419.513L429.883 424.108C431.567 426.574 432.809 429.108 433.632 431.783C434.46 434.468 434.861 437.257 434.861 440.232V442.539C434.861 443.826 433.819 444.868 432.531 444.868C431.244 444.868 430.202 443.826 430.202 442.539V440.232C430.202 437.693 429.87 435.35 429.192 433.148C428.509 430.937 427.467 428.817 426.044 426.729L422.909 422.134C421.226 419.668 419.984 417.134 419.155 414.459C418.327 411.779 417.927 408.986 417.927 406.01V399.331C417.927 396.874 418.932 394.636 420.552 393.016C422.181 391.401 424.415 390.391 426.867 390.391L427.172 390.4V361.56C427.172 359.295 428.1 357.234 429.592 355.741C431.08 354.254 433.145 353.321 435.411 353.321C437.677 353.321 439.742 354.249 441.23 355.741L441.362 355.887C442.777 357.37 443.65 359.367 443.65 361.56V373.708L443.955 373.699C446.407 373.699 448.646 374.709 450.265 376.324C450.766 376.829 451.212 377.389 451.585 377.998C452.094 377.821 452.64 377.725 453.204 377.725C455.657 377.725 457.895 378.735 459.515 380.35C460.056 380.892 460.529 381.501 460.921 382.166C461.403 382.006 461.922 381.92 462.454 381.92C464.906 381.92 467.144 382.93 468.764 384.545C470.388 386.174 471.398 388.408 471.398 390.86V409.476C471.398 412.088 471.093 414.526 470.461 416.892C469.833 419.244 468.869 421.515 467.558 423.785L465.916 426.619C464.82 428.521 464.014 430.418 463.487 432.397C462.963 434.349 462.713 436.396 462.713 438.612V442.543C462.713 443.83 461.671 444.872 460.384 444.872C459.096 444.872 458.054 443.83 458.054 442.543V438.612C458.054 436.001 458.359 433.562 458.996 431.192C459.624 428.853 460.584 426.587 461.899 424.308L463.541 421.451C464.642 419.549 465.447 417.647 465.971 415.682C466.494 413.73 466.744 411.687 466.744 409.467V390.851C466.744 389.673 466.262 388.599 465.493 387.825C464.72 387.052 463.641 386.574 462.467 386.574C462.386 386.574 462.308 386.611 462.254 386.665C462.199 386.715 462.163 386.793 462.163 386.879V397.034C462.163 398.321 461.121 399.363 459.833 399.363C458.546 399.363 457.504 398.321 457.504 397.034V386.661C457.504 385.482 457.022 384.409 456.253 383.635C455.479 382.862 454.401 382.384 453.227 382.384C453.145 382.384 453.068 382.421 453.013 382.475L452.977 382.511C452.941 382.562 452.922 382.625 452.922 382.693V395.383C452.922 396.67 451.881 397.712 450.593 397.712C449.305 397.712 448.264 396.67 448.264 395.383V382.59C448.25 381.434 447.768 380.379 447.012 379.619C446.239 378.845 445.161 378.368 443.987 378.368C443.905 378.368 443.828 378.404 443.773 378.459C443.723 378.509 443.687 378.582 443.682 378.659V391.907C443.682 393.195 442.64 394.237 441.353 394.237C440.065 394.237 439.023 393.195 439.023 391.907V361.566C439.023 360.624 438.655 359.769 438.063 359.127L437.972 359.041C437.326 358.395 436.43 357.99 435.447 357.99C434.465 357.99 433.568 358.395 432.922 359.041C432.276 359.687 431.871 360.583 431.871 361.566V403.858L431.831 403.854ZM418.081 376.856C418.932 377.816 418.841 379.285 417.881 380.132C416.921 380.982 415.452 380.891 414.605 379.931C412.399 377.438 410.634 374.54 409.437 371.374C408.277 368.316 407.645 365.004 407.645 361.56C407.645 353.894 410.752 346.951 415.779 341.929C420.802 336.906 427.744 333.794 435.41 333.794C443.076 333.794 450.019 336.902 455.041 341.929C460.064 346.952 463.176 353.894 463.176 361.56C463.176 363.93 462.876 366.237 462.316 368.439C461.743 370.691 460.878 372.852 459.773 374.872C459.159 375.996 457.748 376.414 456.624 375.8C455.501 375.186 455.082 373.776 455.696 372.652C456.602 371 457.316 369.199 457.803 367.292C458.271 365.464 458.517 363.539 458.517 361.56C458.517 355.177 455.933 349.399 451.752 345.223C447.571 341.042 441.793 338.458 435.415 338.458C429.032 338.458 423.254 341.042 419.077 345.223C414.896 349.404 412.312 355.182 412.312 361.56C412.312 364.454 412.84 367.211 413.795 369.736C414.796 372.374 416.261 374.786 418.095 376.856L418.081 376.856ZM424.692 368.849C425.415 369.909 425.142 371.355 424.082 372.079C423.022 372.802 421.575 372.529 420.852 371.469C419.878 370.041 419.101 368.448 418.577 366.747C418.068 365.091 417.795 363.344 417.795 361.556C417.795 356.701 419.769 352.297 422.954 349.112C426.139 345.918 430.543 343.944 435.406 343.944C440.269 343.944 444.673 345.918 447.858 349.103L447.98 349.235C451.097 352.415 453.017 356.764 453.017 361.555C453.017 362.747 452.889 363.939 452.648 365.108C452.403 366.314 452.039 367.456 451.584 368.516C451.079 369.694 449.705 370.24 448.526 369.735C447.348 369.23 446.802 367.856 447.307 366.678C447.657 365.864 447.926 365.026 448.099 364.18C448.267 363.361 448.358 362.479 448.358 361.551C448.358 358.02 446.952 354.822 444.677 352.497L444.568 352.392C442.225 350.049 438.986 348.602 435.41 348.602C431.834 348.602 428.59 350.054 426.251 352.392C423.908 354.731 422.462 357.97 422.462 361.551C422.462 362.897 422.662 364.185 423.026 365.377C423.408 366.614 423.977 367.784 424.7 368.844L424.692 368.849Z" fill="white"/>
<path d="M935.02 418.738H933.005C931.871 418.738 930.989 419.62 930.989 420.753C930.989 421.887 931.871 422.769 933.005 422.769H935.02C936.154 422.769 937.036 421.887 937.036 420.753C937.036 419.62 936.154 418.738 935.02 418.738Z" fill="white"/>
<path d="M1007.7 349.491C1013.24 349.491 1017.75 353.997 1017.75 359.534V373.045H1031.63C1035.03 373.045 1037.77 375.789 1037.77 379.184V422.517C1037.77 425.913 1035.03 428.656 1031.63 428.656H1004.05C1000.65 428.656 997.91 425.913 997.91 422.517V416.815H986.922L988.111 424.188H994.097C995.351 424.188 996.331 425.167 996.331 426.421C996.331 427.676 995.351 428.656 994.097 428.656H954.796C953.542 428.656 952.562 427.676 952.562 426.421C952.563 425.167 953.542 424.188 954.796 424.188H960.782L961.972 416.815H948.968V422.517C948.968 425.913 946.225 428.656 942.829 428.656H925.067C921.672 428.656 918.93 425.912 918.93 422.517V387.121C918.93 383.725 921.672 380.982 925.067 380.982H930.771V359.534C930.771 353.997 935.277 349.491 940.813 349.491H1007.7ZM925.067 385.575C924.054 385.575 923.271 386.36 923.271 387.373V422.769C923.271 423.782 924.055 424.566 925.067 424.566H942.829C943.842 424.566 944.626 423.782 944.626 422.769V387.373C944.626 386.359 943.842 385.575 942.829 385.575H941.026C940.912 388.869 938.216 391.495 934.894 391.496C931.571 391.496 928.875 388.869 928.761 385.575H925.067ZM1002.12 422.643C1002.13 423.656 1002.91 424.44 1003.92 424.44H1031.38C1032.4 424.44 1033.18 423.656 1033.18 422.643V420.845H1002.12V422.643ZM965.13 424.44H983.512L982.322 417.067H966.318L965.13 424.44ZM1004.05 377.513C1003.04 377.513 1002.25 378.297 1002.25 379.31V416.504H1033.31V408.57L1033.43 408.444V379.31C1033.43 378.297 1032.65 377.513 1031.63 377.513H1004.05ZM949.094 412.599H997.91V407.115H949.094V412.599ZM940.939 354.083C937.858 354.084 935.357 356.515 935.243 359.568H935.363V381.234H942.955C946.351 381.234 949.094 383.977 949.094 387.373V402.9H997.784V379.436C997.784 376.041 1000.53 373.297 1003.92 373.297H1013.53V359.786C1013.53 356.631 1010.98 354.083 1007.83 354.083H940.939ZM933.236 385.575C933.34 386.48 934.08 387.154 935.02 387.154C935.959 387.154 936.699 386.48 936.803 385.575H933.236Z" fill="white" stroke="white" stroke-width="0.436417"/>
<path d="M1027.6 387.246C1027.6 392.537 1019.79 392.537 1019.79 387.246C1019.79 381.956 1027.6 381.956 1027.6 387.246Z" fill="white"/>
<circle cx="176.212" cy="266.633" r="46.4331" fill="#F4F4F5"/>
<circle cx="709.877" cy="266.633" r="46.4331" fill="#F4F4F5"/>
<circle cx="976.191" cy="266.633" r="46.4331" fill="#F4F4F5"/>
<circle cx="443.316" cy="266.633" r="46.4331" fill="#F4F4F5"/>
<path d="M162.776 247.636H179.268C183.566 247.636 186.951 248.71 189.475 250.752C192 252.793 193.29 255.855 193.29 259.938C193.29 263.967 192 267.029 189.529 269.071C187.004 271.112 183.727 272.133 179.698 272.133H171.103V285.885H162.776V247.636ZM171.103 254.512V265.525H178.57C182.921 265.525 185.124 263.698 185.124 260.045C185.124 256.392 182.921 254.512 178.624 254.512H171.103Z" fill="#2A2868"/>
<path d="M725.992 249.601V272.594C725.992 278.073 724.649 282.156 722.017 284.735C719.384 287.313 715.302 288.603 709.715 288.603C704.02 288.603 699.884 287.313 697.198 284.681C694.512 282.049 693.222 277.966 693.222 272.486V249.601H701.603V272.486C701.603 275.602 702.194 277.912 703.376 279.416C704.557 280.921 706.706 281.673 709.822 281.673C712.831 281.673 714.872 280.921 715.946 279.416C717.021 277.912 717.612 275.602 717.612 272.486V249.601H725.992Z" fill="#2A2868"/>
<path d="M961.057 245.67L980.075 245.724C983.835 245.724 986.951 246.584 989.368 248.41C991.732 250.183 992.968 252.923 992.968 256.576C992.968 258.778 992.43 260.712 991.356 262.378C990.282 264.043 988.777 265.225 986.897 265.977C990.174 266.621 992.054 269.63 992.538 274.895C992.538 275.056 992.538 275.593 992.645 276.56C992.699 277.473 992.753 278.225 992.86 278.762C992.914 279.3 993.021 279.998 993.129 280.804C993.236 281.556 993.397 282.254 993.612 282.792C993.827 283.329 994.042 283.705 994.364 283.973H985.662C985.339 283.382 985.124 282.63 985.017 281.771C984.856 280.911 984.748 279.783 984.641 278.386C984.533 276.99 984.48 276.238 984.48 276.076C984.157 273.39 983.513 271.564 982.438 270.489C981.364 269.469 979.537 268.932 976.851 268.932H969.384V283.92H961.057V245.67ZM969.384 252.332V262.915H977.335C979.645 262.915 981.471 262.539 982.761 261.787C984.05 261.035 984.748 259.638 984.748 257.489C984.748 255.448 984.104 254.104 982.814 253.406C981.525 252.654 979.86 252.332 977.711 252.332H969.384Z" fill="#2A2868"/>
<path d="M443.684 246.231C449.271 246.231 453.783 248.111 457.221 251.818C460.659 255.525 462.432 260.36 462.432 266.323C462.432 272.34 460.659 277.174 457.221 280.828C453.783 284.481 449.217 286.307 443.63 286.307C437.935 286.307 433.369 284.481 429.931 280.828C426.439 277.174 424.72 272.34 424.72 266.323C424.72 260.306 426.439 255.417 429.877 251.764C433.315 248.111 437.935 246.231 443.684 246.231ZM443.576 253.107C440.407 253.107 437.882 254.343 436.002 256.707C434.121 259.07 433.154 262.24 433.154 266.215C433.154 270.298 434.121 273.521 435.948 275.885C437.828 278.195 440.407 279.377 443.684 279.431C446.853 279.431 449.378 278.249 451.205 275.885C453.031 273.521 453.944 270.298 453.944 266.215C453.944 262.186 452.977 259.017 451.151 256.653C449.271 254.289 446.746 253.107 443.576 253.107Z" fill="#2A2868"/>
<path d="M87.4088 549.701H97.3042C99.8828 549.701 101.913 550.346 103.428 551.57C104.943 552.795 105.717 554.633 105.717 557.082C105.717 559.5 104.943 561.337 103.461 562.562C101.946 563.787 99.9795 564.399 97.5621 564.399H92.4048V572.651H87.4088V549.701ZM92.4048 553.827V560.434H96.8852C99.496 560.434 100.818 559.339 100.818 557.147C100.818 554.955 99.496 553.827 96.9174 553.827H92.4048ZM124.025 567.493C123.509 569.298 122.542 570.684 121.156 571.651C119.77 572.651 118.126 573.134 116.192 573.134C113.646 573.134 111.583 572.361 110.036 570.749C108.489 569.17 107.715 567.074 107.715 564.431C107.715 561.853 108.489 559.725 110.068 558.049C111.615 556.373 113.614 555.535 116.063 555.535C118.577 555.535 120.576 556.405 122.059 558.114C123.541 559.822 124.283 562.143 124.283 565.044V565.495H112.357C112.357 566.945 112.711 568.041 113.388 568.783C114.065 569.556 115.032 569.911 116.257 569.911C117.868 569.911 118.997 569.105 119.641 567.493H124.025ZM119.609 562.594C119.512 561.498 119.158 560.628 118.545 559.919C117.965 559.21 117.127 558.855 116.031 558.855C115.032 558.855 114.194 559.21 113.517 559.854C112.872 560.531 112.453 561.434 112.324 562.594H119.609ZM137.698 555.729V559.951C137.054 559.822 136.441 559.758 135.926 559.758C134.411 559.758 133.315 560.241 132.606 561.208C131.897 562.175 131.542 563.432 131.542 565.044V572.651H126.965V556.019H131.316V559.081C132.412 556.792 134.185 555.632 136.699 555.632C136.893 555.632 137.247 555.664 137.698 555.729ZM154.72 566.236C154.43 568.396 153.592 570.072 152.174 571.297C150.756 572.489 148.951 573.102 146.759 573.102C144.18 573.102 142.15 572.296 140.602 570.749C139.055 569.17 138.282 567.074 138.282 564.464C138.282 561.788 139.055 559.629 140.602 557.985C142.15 556.373 144.245 555.535 146.823 555.535C149.015 555.535 150.82 556.115 152.238 557.243C153.624 558.372 154.43 559.887 154.624 561.82H150.143C149.789 559.919 148.693 558.952 146.856 558.952C145.599 558.952 144.632 559.435 143.922 560.402C143.213 561.369 142.891 562.691 142.891 564.399C142.891 566.043 143.213 567.332 143.89 568.235C144.567 569.137 145.534 569.589 146.759 569.589C148.757 569.589 149.918 568.493 150.304 566.236H154.72ZM173.003 567.493C172.488 569.298 171.521 570.684 170.135 571.651C168.749 572.651 167.105 573.134 165.171 573.134C162.624 573.134 160.561 572.361 159.014 570.749C157.467 569.17 156.694 567.074 156.694 564.431C156.694 561.853 157.467 559.725 159.047 558.049C160.594 556.373 162.592 555.535 165.042 555.535C167.556 555.535 169.554 556.405 171.037 558.114C172.52 559.822 173.261 562.143 173.261 565.044V565.495H161.335C161.335 566.945 161.69 568.041 162.367 568.783C163.043 569.556 164.01 569.911 165.235 569.911C166.847 569.911 167.975 569.105 168.62 567.493H173.003ZM168.587 562.594C168.491 561.498 168.136 560.628 167.524 559.919C166.944 559.21 166.106 558.855 165.01 558.855C164.01 558.855 163.172 559.21 162.495 559.854C161.851 560.531 161.432 561.434 161.303 562.594H168.587ZM180.585 549.701V553.569H176.008V549.701H180.585ZM180.585 556.019V572.651H176.008V556.019H180.585ZM194.536 556.019H199.08L193.44 572.651H188.315L182.61 556.019H187.445L190.99 567.364L194.536 556.019ZM216.407 572.651H211.733C211.604 572.232 211.475 571.684 211.41 571.039C210.024 572.457 208.219 573.134 206.028 573.134C204.19 573.134 202.74 572.715 201.676 571.813C200.645 570.91 200.097 569.685 200.097 568.106C200.097 567.397 200.194 566.784 200.387 566.236C200.58 565.721 200.87 565.269 201.289 564.883C201.708 564.528 202.095 564.238 202.482 563.98C202.869 563.754 203.385 563.561 204.029 563.4C204.706 563.271 205.254 563.142 205.641 563.078C206.06 563.013 206.64 562.916 207.381 562.82C208.993 562.626 210.057 562.401 210.605 562.143C211.153 561.917 211.443 561.466 211.443 560.821C211.443 559.339 210.443 558.597 208.445 558.597C207.381 558.597 206.608 558.791 206.124 559.177C205.609 559.564 205.286 560.209 205.157 561.144H200.87C201.128 557.405 203.675 555.535 208.574 555.535C213.409 555.535 215.826 557.34 215.826 560.95V568.138C215.826 570.265 216.02 571.748 216.407 572.651ZM211.378 564.56C210.863 564.883 209.767 565.205 208.155 565.463C206.801 565.656 205.931 565.946 205.512 566.269C205.061 566.655 204.803 567.236 204.803 567.945C204.803 568.622 205.028 569.17 205.48 569.556C205.931 569.943 206.543 570.136 207.317 570.136C208.542 570.136 209.541 569.814 210.282 569.17C211.024 568.525 211.378 567.59 211.378 566.43V564.56ZM223.956 549.701V558.049C225.245 556.438 226.986 555.632 229.21 555.632C231.402 555.632 233.142 556.438 234.432 558.049C235.689 559.661 236.333 561.724 236.333 564.173C236.333 566.849 235.624 569.008 234.27 570.652C232.917 572.296 231.144 573.102 228.952 573.102C226.631 573.102 224.891 572.264 223.73 570.556L223.763 572.651H219.411V549.701H223.956ZM227.792 559.145C226.567 559.145 225.568 559.629 224.859 560.531C224.149 561.434 223.795 562.691 223.795 564.238C223.795 565.85 224.149 567.139 224.859 568.041C225.568 568.976 226.535 569.427 227.792 569.427C228.952 569.427 229.919 568.976 230.628 568.009C231.337 567.074 231.724 565.817 231.724 564.206C231.724 562.691 231.337 561.466 230.628 560.531C229.919 559.629 228.952 559.145 227.792 559.145ZM243.854 549.701V572.651H239.277V549.701H243.854ZM263.091 567.493C262.575 569.298 261.608 570.684 260.222 571.651C258.836 572.651 257.192 573.134 255.258 573.134C252.712 573.134 250.649 572.361 249.102 570.749C247.555 569.17 246.781 567.074 246.781 564.431C246.781 561.853 247.555 559.725 249.134 558.049C250.681 556.373 252.68 555.535 255.13 555.535C257.644 555.535 259.642 556.405 261.125 558.114C262.607 559.822 263.349 562.143 263.349 565.044V565.495H251.423C251.423 566.945 251.777 568.041 252.454 568.783C253.131 569.556 254.098 569.911 255.323 569.911C256.935 569.911 258.063 569.105 258.707 567.493H263.091ZM258.675 562.594C258.578 561.498 258.224 560.628 257.611 559.919C257.031 559.21 256.193 558.855 255.097 558.855C254.098 558.855 253.26 559.21 252.583 559.854C251.938 560.531 251.519 561.434 251.391 562.594H258.675Z" fill="white"/>
<path d="M381.212 549.153C384.564 549.153 387.271 550.281 389.334 552.505C391.397 554.729 392.461 557.63 392.461 561.208C392.461 564.818 391.397 567.719 389.334 569.911C387.271 572.103 384.532 573.199 381.179 573.199C377.763 573.199 375.023 572.103 372.96 569.911C370.865 567.719 369.834 564.818 369.834 561.208C369.834 557.598 370.865 554.665 372.928 552.473C374.991 550.281 377.763 549.153 381.212 549.153ZM381.147 553.279C379.246 553.279 377.731 554.02 376.602 555.438C375.474 556.857 374.894 558.758 374.894 561.144C374.894 563.593 375.474 565.527 376.57 566.945C377.698 568.331 379.246 569.041 381.212 569.073C383.113 569.073 384.628 568.364 385.724 566.945C386.82 565.527 387.368 563.593 387.368 561.144C387.368 558.726 386.788 556.824 385.692 555.406C384.564 553.988 383.049 553.279 381.147 553.279ZM399.756 556.019V558.081C400.948 556.405 402.657 555.567 404.913 555.567C407.137 555.567 408.942 556.373 410.296 557.985C411.65 559.596 412.327 561.756 412.327 564.431C412.327 567.042 411.65 569.137 410.328 570.717C409.007 572.296 407.266 573.07 405.106 573.07C402.85 573.07 401.142 572.264 399.981 570.588V578.549H395.437V556.019H399.756ZM403.785 559.242C402.528 559.242 401.561 559.693 400.852 560.596C400.143 561.498 399.82 562.755 399.82 564.367C399.82 565.978 400.175 567.236 400.884 568.138C401.593 569.041 402.56 569.492 403.817 569.492C405.042 569.492 405.977 569.041 406.686 568.138C407.395 567.236 407.749 566.011 407.749 564.431C407.749 562.82 407.395 561.563 406.686 560.628C405.977 559.725 405.01 559.242 403.785 559.242ZM430.774 567.493C430.258 569.298 429.291 570.684 427.905 571.651C426.519 572.651 424.876 573.134 422.942 573.134C420.395 573.134 418.332 572.361 416.785 570.749C415.238 569.17 414.464 567.074 414.464 564.431C414.464 561.853 415.238 559.725 416.817 558.049C418.365 556.373 420.363 555.535 422.813 555.535C425.327 555.535 427.325 556.405 428.808 558.114C430.291 559.822 431.032 562.143 431.032 565.044V565.495H419.106C419.106 566.945 419.461 568.041 420.137 568.783C420.814 569.556 421.781 569.911 423.006 569.911C424.618 569.911 425.746 569.105 426.391 567.493H430.774ZM426.358 562.594C426.262 561.498 425.907 560.628 425.295 559.919C424.714 559.21 423.876 558.855 422.78 558.855C421.781 558.855 420.943 559.21 420.266 559.854C419.622 560.531 419.203 561.434 419.074 562.594H426.358ZM444.448 555.729V559.951C443.803 559.822 443.191 559.758 442.675 559.758C441.16 559.758 440.064 560.241 439.355 561.208C438.646 562.175 438.291 563.432 438.291 565.044V572.651H433.714V556.019H438.066V559.081C439.162 556.792 440.934 555.632 443.449 555.632C443.642 555.632 443.997 555.664 444.448 555.729ZM461.649 572.651H456.976C456.847 572.232 456.718 571.684 456.653 571.039C455.267 572.457 453.462 573.134 451.271 573.134C449.433 573.134 447.983 572.715 446.919 571.813C445.888 570.91 445.34 569.685 445.34 568.106C445.34 567.397 445.436 566.784 445.63 566.236C445.823 565.721 446.113 565.269 446.532 564.883C446.951 564.528 447.338 564.238 447.725 563.98C448.112 563.754 448.628 563.561 449.272 563.4C449.949 563.271 450.497 563.142 450.884 563.078C451.303 563.013 451.883 562.916 452.624 562.82C454.236 562.626 455.3 562.401 455.848 562.143C456.396 561.917 456.686 561.466 456.686 560.821C456.686 559.339 455.686 558.597 453.688 558.597C452.624 558.597 451.851 558.791 451.367 559.177C450.852 559.564 450.529 560.209 450.4 561.144H446.113C446.371 557.405 448.918 555.535 453.817 555.535C458.652 555.535 461.069 557.34 461.069 560.95V568.138C461.069 570.265 461.263 571.748 461.649 572.651ZM456.621 564.56C456.105 564.883 455.01 565.205 453.398 565.463C452.044 565.656 451.174 565.946 450.755 566.269C450.304 566.655 450.046 567.236 450.046 567.945C450.046 568.622 450.271 569.17 450.723 569.556C451.174 569.943 451.786 570.136 452.56 570.136C453.785 570.136 454.784 569.814 455.525 569.17C456.267 568.525 456.621 567.59 456.621 566.43V564.56ZM469.199 549.701V558.049C470.488 556.438 472.229 555.632 474.453 555.632C476.645 555.632 478.385 556.438 479.675 558.049C480.932 559.661 481.576 561.724 481.576 564.173C481.576 566.849 480.867 569.008 479.513 570.652C478.16 572.296 476.387 573.102 474.195 573.102C471.874 573.102 470.134 572.264 468.973 570.556L469.006 572.651H464.654V549.701H469.199ZM473.035 559.145C471.81 559.145 470.811 559.629 470.102 560.531C469.392 561.434 469.038 562.691 469.038 564.238C469.038 565.85 469.392 567.139 470.102 568.041C470.811 568.976 471.778 569.427 473.035 569.427C474.195 569.427 475.162 568.976 475.871 568.009C476.58 567.074 476.967 565.817 476.967 564.206C476.967 562.691 476.58 561.466 475.871 560.531C475.162 559.629 474.195 559.145 473.035 559.145ZM489.097 549.701V572.651H484.52V549.701H489.097ZM508.334 567.493C507.818 569.298 506.851 570.684 505.465 571.651C504.079 572.651 502.435 573.134 500.501 573.134C497.955 573.134 495.892 572.361 494.345 570.749C492.798 569.17 492.024 567.074 492.024 564.431C492.024 561.853 492.798 559.725 494.377 558.049C495.924 556.373 497.923 555.535 500.372 555.535C502.887 555.535 504.885 556.405 506.368 558.114C507.85 559.822 508.592 562.143 508.592 565.044V565.495H496.666C496.666 566.945 497.02 568.041 497.697 568.783C498.374 569.556 499.341 569.911 500.566 569.911C502.177 569.911 503.306 569.105 503.95 567.493H508.334ZM503.918 562.594C503.821 561.498 503.467 560.628 502.854 559.919C502.274 559.21 501.436 558.855 500.34 558.855C499.341 558.855 498.503 559.21 497.826 559.854C497.181 560.531 496.762 561.434 496.633 562.594H503.918Z" fill="white"/>
<path d="M608.478 549.701V563.497C608.478 566.784 607.672 569.234 606.092 570.781C604.513 572.328 602.063 573.102 598.711 573.102C595.294 573.102 592.813 572.328 591.201 570.749C589.589 569.17 588.816 566.72 588.816 563.432V549.701H593.844V563.432C593.844 565.302 594.199 566.688 594.908 567.59C595.617 568.493 596.906 568.944 598.776 568.944C600.581 568.944 601.805 568.493 602.45 567.59C603.095 566.688 603.449 565.302 603.449 563.432V549.701H608.478ZM628.017 572.651H623.376V562.949C623.376 561.788 623.183 560.886 622.796 560.273C622.409 559.661 621.635 559.339 620.539 559.339C618.122 559.339 616.929 560.821 616.929 563.722V572.651H612.385V556.019H616.736V558.339C618.09 556.502 619.927 555.567 622.248 555.567C624.021 555.567 625.439 556.083 626.47 557.115C627.502 558.146 628.017 559.629 628.017 561.53V572.651ZM647.672 572.651H643.321V570.523C642.225 572.264 640.549 573.102 638.292 573.102C636.004 573.102 634.167 572.328 632.813 570.717C631.459 569.105 630.782 566.978 630.782 564.27C630.782 561.659 631.427 559.564 632.748 557.985C634.07 556.373 635.843 555.6 638.067 555.6C639.098 555.6 640.065 555.793 640.968 556.244C641.87 556.663 642.611 557.276 643.127 558.081V549.701H647.672V572.651ZM643.256 564.302C643.256 562.691 642.934 561.466 642.225 560.563C641.516 559.661 640.549 559.21 639.324 559.21C638.067 559.21 637.1 559.661 636.423 560.563C635.714 561.466 635.391 562.691 635.391 564.302C635.391 565.914 635.714 567.171 636.423 568.074C637.132 568.976 638.099 569.46 639.324 569.46C640.581 569.46 641.548 569.008 642.225 568.106C642.934 567.203 643.256 565.946 643.256 564.302ZM666.797 567.493C666.281 569.298 665.314 570.684 663.928 571.651C662.542 572.651 660.898 573.134 658.964 573.134C656.418 573.134 654.355 572.361 652.808 570.749C651.26 569.17 650.487 567.074 650.487 564.431C650.487 561.853 651.26 559.725 652.84 558.049C654.387 556.373 656.385 555.535 658.835 555.535C661.349 555.535 663.348 556.405 664.83 558.114C666.313 559.822 667.054 562.143 667.054 565.044V565.495H655.128C655.128 566.945 655.483 568.041 656.16 568.783C656.837 569.556 657.804 569.911 659.028 569.911C660.64 569.911 661.768 569.105 662.413 567.493H666.797ZM662.381 562.594C662.284 561.498 661.929 560.628 661.317 559.919C660.737 559.21 659.899 558.855 658.803 558.855C657.804 558.855 656.966 559.21 656.289 559.854C655.644 560.531 655.225 561.434 655.096 562.594H662.381ZM680.47 555.729V559.951C679.826 559.822 679.213 559.758 678.697 559.758C677.183 559.758 676.087 560.241 675.377 561.208C674.668 562.175 674.314 563.432 674.314 565.044V572.651H669.737V556.019H674.088V559.081C675.184 556.792 676.957 555.632 679.471 555.632C679.664 555.632 680.019 555.664 680.47 555.729ZM696.254 560.853L691.967 560.886C691.838 560.048 691.548 559.435 691.032 559.113C690.516 558.758 689.775 558.597 688.808 558.597C688.002 558.597 687.357 558.726 686.906 559.016C686.455 559.306 686.229 559.725 686.229 560.241C686.229 560.821 686.487 561.24 687.003 561.498C687.519 561.724 688.453 561.982 689.775 562.272C690.033 562.304 690.194 562.336 690.291 562.368C691.064 562.497 691.709 562.626 692.16 562.755C692.611 562.884 693.192 563.078 693.836 563.335C694.513 563.593 695.029 563.916 695.383 564.238C695.77 564.56 696.092 565.012 696.35 565.559C696.64 566.14 696.769 566.784 696.769 567.493C696.769 569.234 696.092 570.62 694.739 571.619C693.385 572.651 691.548 573.134 689.162 573.134C686.906 573.134 685.069 572.651 683.586 571.684C682.136 570.717 681.394 569.234 681.362 567.236H685.714C685.875 569.105 687.067 570.008 689.259 570.008C690.194 570.008 690.935 569.846 691.483 569.46C692.031 569.073 692.289 568.589 692.289 567.945C692.289 567.332 692.063 566.881 691.548 566.623C691.064 566.365 690.162 566.107 688.808 565.785C688.711 565.785 688.615 565.753 688.55 565.721C688.421 565.688 688.067 565.624 687.551 565.495C687.035 565.398 686.681 565.334 686.487 565.269C686.294 565.205 685.939 565.108 685.488 564.979C685.037 564.85 684.682 564.754 684.457 564.625C684.263 564.496 683.973 564.367 683.618 564.173C683.264 563.98 683.006 563.787 682.813 563.561C682.651 563.368 682.458 563.11 682.265 562.82C682.071 562.53 681.91 562.207 681.846 561.82C681.781 561.466 681.749 561.079 681.749 560.628C681.749 559.016 682.361 557.759 683.651 556.857C684.908 555.986 686.713 555.535 689.034 555.535C691.096 555.535 692.805 555.986 694.159 556.824C695.48 557.695 696.189 559.048 696.254 560.853ZM708.667 556.019V559.145H705.282V566.978C705.282 567.461 705.282 567.816 705.315 568.041C705.315 568.267 705.411 568.493 705.54 568.75C705.669 568.976 705.863 569.137 706.12 569.202C706.378 569.266 706.765 569.298 707.281 569.298C707.829 569.298 708.28 569.298 708.667 569.234V572.715C707.539 572.812 706.604 572.844 705.895 572.844C703.896 572.844 702.51 572.522 701.801 571.813C701.092 571.103 700.738 569.75 700.738 567.751V559.113H697.966V556.019H700.738V550.99H705.282V556.019H708.667ZM726.316 572.651H721.642C721.513 572.232 721.385 571.684 721.32 571.039C719.934 572.457 718.129 573.134 715.937 573.134C714.1 573.134 712.649 572.715 711.586 571.813C710.554 570.91 710.006 569.685 710.006 568.106C710.006 567.397 710.103 566.784 710.296 566.236C710.49 565.721 710.78 565.269 711.199 564.883C711.618 564.528 712.005 564.238 712.392 563.98C712.778 563.754 713.294 563.561 713.939 563.4C714.616 563.271 715.164 563.142 715.55 563.078C715.969 563.013 716.55 562.916 717.291 562.82C718.903 562.626 719.966 562.401 720.514 562.143C721.062 561.917 721.352 561.466 721.352 560.821C721.352 559.339 720.353 558.597 718.355 558.597C717.291 558.597 716.517 558.791 716.034 559.177C715.518 559.564 715.196 560.209 715.067 561.144H710.78C711.038 557.405 713.584 555.535 718.484 555.535C723.318 555.535 725.736 557.34 725.736 560.95V568.138C725.736 570.265 725.929 571.748 726.316 572.651ZM721.288 564.56C720.772 564.883 719.676 565.205 718.065 565.463C716.711 565.656 715.841 565.946 715.421 566.269C714.97 566.655 714.712 567.236 714.712 567.945C714.712 568.622 714.938 569.17 715.389 569.556C715.841 569.943 716.453 570.136 717.227 570.136C718.451 570.136 719.451 569.814 720.192 569.17C720.933 568.525 721.288 567.59 721.288 566.43V564.56ZM745.018 572.651H740.377V562.949C740.377 561.788 740.183 560.886 739.796 560.273C739.41 559.661 738.636 559.339 737.54 559.339C735.123 559.339 733.93 560.821 733.93 563.722V572.651H729.385V556.019H733.737V558.339C735.09 556.502 736.928 555.567 739.248 555.567C741.021 555.567 742.439 556.083 743.471 557.115C744.502 558.146 745.018 559.629 745.018 561.53V572.651ZM764.673 572.651H760.321V570.523C759.225 572.264 757.549 573.102 755.293 573.102C753.004 573.102 751.167 572.328 749.813 570.717C748.46 569.105 747.783 566.978 747.783 564.27C747.783 561.659 748.427 559.564 749.749 557.985C751.071 556.373 752.843 555.6 755.067 555.6C756.099 555.6 757.066 555.793 757.968 556.244C758.871 556.663 759.612 557.276 760.128 558.081V549.701H764.673V572.651ZM760.257 564.302C760.257 562.691 759.934 561.466 759.225 560.563C758.516 559.661 757.549 559.21 756.324 559.21C755.067 559.21 754.1 559.661 753.424 560.563C752.714 561.466 752.392 562.691 752.392 564.302C752.392 565.914 752.714 567.171 753.424 568.074C754.133 568.976 755.1 569.46 756.324 569.46C757.582 569.46 758.548 569.008 759.225 568.106C759.934 567.203 760.257 565.946 760.257 564.302ZM783.636 572.651H778.962C778.833 572.232 778.704 571.684 778.64 571.039C777.254 572.457 775.449 573.134 773.257 573.134C771.42 573.134 769.969 572.715 768.906 571.813C767.874 570.91 767.326 569.685 767.326 568.106C767.326 567.397 767.423 566.784 767.616 566.236C767.81 565.721 768.1 565.269 768.519 564.883C768.938 564.528 769.325 564.238 769.712 563.98C770.098 563.754 770.614 563.561 771.259 563.4C771.936 563.271 772.484 563.142 772.87 563.078C773.289 563.013 773.87 562.916 774.611 562.82C776.223 562.626 777.286 562.401 777.834 562.143C778.382 561.917 778.672 561.466 778.672 560.821C778.672 559.339 777.673 558.597 775.675 558.597C774.611 558.597 773.837 558.791 773.354 559.177C772.838 559.564 772.516 560.209 772.387 561.144H768.1C768.358 557.405 770.904 555.535 775.804 555.535C780.638 555.535 783.056 557.34 783.056 560.95V568.138C783.056 570.265 783.249 571.748 783.636 572.651ZM778.608 564.56C778.092 564.883 776.996 565.205 775.385 565.463C774.031 565.656 773.16 565.946 772.741 566.269C772.29 566.655 772.032 567.236 772.032 567.945C772.032 568.622 772.258 569.17 772.709 569.556C773.16 569.943 773.773 570.136 774.546 570.136C775.771 570.136 776.771 569.814 777.512 569.17C778.253 568.525 778.608 567.59 778.608 566.43V564.56ZM791.186 549.701V558.049C792.475 556.438 794.215 555.632 796.439 555.632C798.631 555.632 800.372 556.438 801.661 558.049C802.918 559.661 803.563 561.724 803.563 564.173C803.563 566.849 802.854 569.008 801.5 570.652C800.146 572.296 798.373 573.102 796.182 573.102C793.861 573.102 792.12 572.264 790.96 570.556L790.992 572.651H786.641V549.701H791.186ZM795.021 559.145C793.796 559.145 792.797 559.629 792.088 560.531C791.379 561.434 791.024 562.691 791.024 564.238C791.024 565.85 791.379 567.139 792.088 568.041C792.797 568.976 793.764 569.427 795.021 569.427C796.182 569.427 797.149 568.976 797.858 568.009C798.567 567.074 798.954 565.817 798.954 564.206C798.954 562.691 798.567 561.466 797.858 560.531C797.149 559.629 796.182 559.145 795.021 559.145ZM811.084 549.701V572.651H806.507V549.701H811.084ZM830.321 567.493C829.805 569.298 828.838 570.684 827.452 571.651C826.066 572.651 824.422 573.134 822.488 573.134C819.942 573.134 817.879 572.361 816.332 570.749C814.784 569.17 814.011 567.074 814.011 564.431C814.011 561.853 814.784 559.725 816.364 558.049C817.911 556.373 819.909 555.535 822.359 555.535C824.873 555.535 826.872 556.405 828.354 558.114C829.837 559.822 830.578 562.143 830.578 565.044V565.495H818.652C818.652 566.945 819.007 568.041 819.684 568.783C820.361 569.556 821.328 569.911 822.552 569.911C824.164 569.911 825.292 569.105 825.937 567.493H830.321ZM825.905 562.594C825.808 561.498 825.453 560.628 824.841 559.919C824.261 559.21 823.423 558.855 822.327 558.855C821.328 558.855 820.49 559.21 819.813 559.854C819.168 560.531 818.749 561.434 818.62 562.594H825.905Z" fill="white"/>
<path d="M925.558 549.701L936.969 549.733C939.225 549.733 941.094 550.249 942.545 551.345C943.963 552.409 944.704 554.052 944.704 556.244C944.704 557.566 944.382 558.726 943.737 559.725C943.093 560.725 942.19 561.434 941.062 561.885C943.028 562.272 944.156 564.077 944.446 567.236C944.446 567.332 944.446 567.655 944.511 568.235C944.543 568.783 944.575 569.234 944.64 569.556C944.672 569.879 944.737 570.298 944.801 570.781C944.866 571.232 944.962 571.651 945.091 571.974C945.22 572.296 945.349 572.522 945.542 572.683H940.321C940.127 572.328 939.998 571.877 939.934 571.361C939.837 570.846 939.773 570.169 939.708 569.331C939.644 568.493 939.612 568.041 939.612 567.945C939.418 566.333 939.031 565.237 938.387 564.592C937.742 563.98 936.646 563.658 935.035 563.658H930.554V572.651H925.558V549.701ZM930.554 553.698V560.048H935.325C936.711 560.048 937.807 559.822 938.58 559.371C939.354 558.92 939.773 558.081 939.773 556.792C939.773 555.567 939.386 554.762 938.612 554.342C937.839 553.891 936.84 553.698 935.55 553.698H930.554ZM956.33 555.535C958.876 555.535 960.939 556.341 962.486 557.953C964.034 559.564 964.839 561.692 964.839 564.335C964.839 567.01 964.034 569.137 962.486 570.749C960.939 572.361 958.844 573.166 956.266 573.166C953.655 573.166 951.56 572.361 950.012 570.749C948.433 569.137 947.659 567.01 947.659 564.335C947.659 561.692 948.433 559.564 950.045 557.953C951.624 556.341 953.719 555.535 956.33 555.535ZM956.201 559.016C954.976 559.016 954.009 559.5 953.3 560.467C952.591 561.401 952.236 562.691 952.236 564.367C952.236 566.043 952.591 567.364 953.3 568.331C954.009 569.266 954.976 569.75 956.266 569.75C957.523 569.75 958.49 569.266 959.199 568.299C959.908 567.332 960.262 566.011 960.262 564.302C960.262 562.659 959.876 561.369 959.166 560.434C958.457 559.5 957.458 559.016 956.201 559.016ZM972.36 549.701V558.049C973.65 556.438 975.39 555.632 977.614 555.632C979.806 555.632 981.546 556.438 982.836 558.049C984.093 559.661 984.738 561.724 984.738 564.173C984.738 566.849 984.028 569.008 982.675 570.652C981.321 572.296 979.548 573.102 977.356 573.102C975.036 573.102 973.295 572.264 972.135 570.556L972.167 572.651H967.815V549.701H972.36ZM976.196 559.145C974.971 559.145 973.972 559.629 973.263 560.531C972.554 561.434 972.199 562.691 972.199 564.238C972.199 565.85 972.554 567.139 973.263 568.041C973.972 568.976 974.939 569.427 976.196 569.427C977.356 569.427 978.323 568.976 979.032 568.009C979.741 567.074 980.128 565.817 980.128 564.206C980.128 562.691 979.741 561.466 979.032 560.531C978.323 559.629 977.356 559.145 976.196 559.145ZM1003.15 556.019V572.651H998.802V570.298C997.512 572.199 995.707 573.134 993.386 573.134C991.549 573.134 990.131 572.651 989.1 571.651C988.068 570.652 987.585 569.17 987.585 567.203V556.019H992.194V565.527C992.194 566.172 992.194 566.655 992.258 567.042C992.323 567.429 992.419 567.784 992.613 568.17C992.774 568.557 993.064 568.847 993.451 569.041C993.838 569.234 994.353 569.298 994.998 569.298C997.383 569.298 998.608 567.751 998.608 564.592V556.019H1003.15ZM1020.71 560.853L1016.43 560.886C1016.3 560.048 1016.01 559.435 1015.49 559.113C1014.98 558.758 1014.23 558.597 1013.27 558.597C1012.46 558.597 1011.82 558.726 1011.36 559.016C1010.91 559.306 1010.69 559.725 1010.69 560.241C1010.69 560.821 1010.95 561.24 1011.46 561.498C1011.98 561.724 1012.91 561.982 1014.23 562.272C1014.49 562.304 1014.65 562.336 1014.75 562.368C1015.52 562.497 1016.17 562.626 1016.62 562.755C1017.07 562.884 1017.65 563.078 1018.29 563.335C1018.97 563.593 1019.49 563.916 1019.84 564.238C1020.23 564.56 1020.55 565.012 1020.81 565.559C1021.1 566.14 1021.23 566.784 1021.23 567.493C1021.23 569.234 1020.55 570.62 1019.2 571.619C1017.84 572.651 1016.01 573.134 1013.62 573.134C1011.36 573.134 1009.53 572.651 1008.04 571.684C1006.59 570.717 1005.85 569.234 1005.82 567.236H1010.17C1010.33 569.105 1011.53 570.008 1013.72 570.008C1014.65 570.008 1015.39 569.846 1015.94 569.46C1016.49 569.073 1016.75 568.589 1016.75 567.945C1016.75 567.332 1016.52 566.881 1016.01 566.623C1015.52 566.365 1014.62 566.107 1013.27 565.785C1013.17 565.785 1013.07 565.753 1013.01 565.721C1012.88 565.688 1012.53 565.624 1012.01 565.495C1011.49 565.398 1011.14 565.334 1010.95 565.269C1010.75 565.205 1010.4 565.108 1009.95 564.979C1009.5 564.85 1009.14 564.754 1008.92 564.625C1008.72 564.496 1008.43 564.367 1008.08 564.173C1007.72 563.98 1007.46 563.787 1007.27 563.561C1007.11 563.368 1006.92 563.11 1006.72 562.82C1006.53 562.53 1006.37 562.207 1006.3 561.82C1006.24 561.466 1006.21 561.079 1006.21 560.628C1006.21 559.016 1006.82 557.759 1008.11 556.857C1009.37 555.986 1011.17 555.535 1013.49 555.535C1015.56 555.535 1017.26 555.986 1018.62 556.824C1019.94 557.695 1020.65 559.048 1020.71 560.853ZM1033.13 556.019V559.145H1029.74V566.978C1029.74 567.461 1029.74 567.816 1029.77 568.041C1029.77 568.267 1029.87 568.493 1030 568.75C1030.13 568.976 1030.32 569.137 1030.58 569.202C1030.84 569.266 1031.22 569.298 1031.74 569.298C1032.29 569.298 1032.74 569.298 1033.13 569.234V572.715C1032 572.812 1031.06 572.844 1030.35 572.844C1028.36 572.844 1026.97 572.522 1026.26 571.813C1025.55 571.103 1025.2 569.75 1025.2 567.751V559.113H1022.42V556.019H1025.2V550.99H1029.74V556.019H1033.13Z" fill="white"/>
<defs>
<clipPath id="clip0_996_5686">
<rect width="104.167" height="130.209" fill="white" transform="translate(652.582 334.195)"/>
</clipPath>
</defs>
</svg>
