<svg width="1176" height="784" viewBox="0 0 1176 784" fill="none" xmlns="http://www.w3.org/2000/svg">
<rect width="1176" height="784" fill="#2A2868"/>
<circle cx="174.985" cy="391.192" r="107.116" fill="#FF5C3C"/>
<circle cx="442.282" cy="391.192" r="107.116" fill="#00A36D"/>
<circle cx="709.579" cy="392.175" r="107.116" fill="#6883FF"/>
<circle cx="976.877" cy="391.192" r="107.116" fill="#ECB900"/>
<g clip-path="url(#clip0_996_5686)">
<path d="M708.124 333.876V333.877C713.44 333.841 718.729 334.619 723.809 336.187L723.812 336.188C724.865 336.521 725.915 336.901 726.933 337.317L727.551 337.576C740.487 343.15 750.202 356.406 751.271 370.073H751.27C751.888 377.184 750.085 384.296 746.152 390.254L746.15 390.257C745.501 391.215 744.924 392.153 744.361 393.068V393.069C743.613 394.283 742.834 395.551 741.878 396.874C739.466 400.215 736.628 405.286 734.629 410.775C732.69 416.098 731.553 421.774 732.322 426.628L732.402 427.096L732.404 427.107C732.647 428.723 733.227 430.271 734.106 431.649C734.986 433.026 736.145 434.203 737.509 435.104L737.637 435.195C737.925 435.418 738.146 435.718 738.272 436.063C738.417 436.456 738.431 436.886 738.312 437.288C738.192 437.69 737.946 438.043 737.609 438.294C737.273 438.545 736.866 438.681 736.446 438.681H693.547C693.174 438.681 692.808 438.574 692.494 438.372C692.18 438.171 691.931 437.883 691.776 437.543C691.621 437.204 691.567 436.827 691.62 436.457C691.673 436.088 691.832 435.741 692.076 435.459L692.463 435.001C696.254 430.396 697.08 425.664 696.712 419.49C690.283 423.182 683.15 425.486 675.771 426.246L675.771 426.245C673.723 426.463 671.666 425.928 669.984 424.74L669.982 424.739C668.643 423.781 667.657 422.408 667.176 420.833L667.174 420.827C666.477 418.391 666.822 415.697 667.089 413.599L667.09 413.592C667.196 412.885 667.263 412.172 667.296 411.458C666.845 411.37 666.084 411.215 665.418 410.828C664.708 410.416 664.084 409.728 664.052 408.594V408.582C664.057 407.982 664.229 407.399 664.543 406.896C664.128 406.788 663.735 406.608 663.384 406.358L663.374 406.35C662.135 405.393 661.866 404.132 662.011 402.904C662.153 401.697 662.698 400.487 663.109 399.569C663.273 399.203 663.539 398.608 663.73 398.073C663.827 397.803 663.899 397.563 663.931 397.382C663.944 397.308 663.946 397.254 663.946 397.217C663.462 396.872 662.921 396.614 662.347 396.459L662.335 396.456L662.323 396.452L661.951 396.321L661.949 396.32C661.835 396.278 661.713 396.239 661.582 396.197C660.377 395.912 659.312 395.207 658.58 394.208L658.572 394.198L658.566 394.188C658.221 393.634 658.015 393.005 657.968 392.355C657.92 391.704 658.033 391.051 658.294 390.453L658.297 390.446C659.12 388.696 660.187 387.072 661.467 385.622C662.506 384.386 663.444 383.068 664.272 381.682C664.474 381.326 664.684 380.967 664.894 380.607C665.597 379.399 666.298 378.193 666.779 377.038C667.26 375.883 667.501 374.823 667.331 373.895L667.228 373.369C666.211 367.929 666.932 362.301 669.298 357.287C677.318 339.953 693.117 335.628 699.526 334.573L700.587 334.411C703.064 334.057 705.565 333.878 708.068 333.876H708.124ZM708.071 337.769C705.752 337.77 703.436 337.936 701.141 338.265L700.158 338.415C694.343 339.372 680.066 343.285 672.831 358.924L672.829 358.927C670.719 363.361 670.131 368.368 671.156 373.17L671.158 373.179C671.471 374.871 671.143 376.53 670.544 378.102C669.945 379.671 669.066 381.179 668.258 382.567C668.053 382.919 667.85 383.267 667.654 383.611L667.651 383.615C666.72 385.183 665.664 386.672 664.493 388.07L664.487 388.076C663.446 389.249 662.569 390.557 661.88 391.966L661.877 391.971C661.864 391.996 661.856 392.024 661.854 392.053C661.853 392.058 661.853 392.064 661.854 392.07C662.074 392.249 662.33 392.38 662.604 392.451L662.737 392.482L662.757 392.485L662.775 392.491C662.942 392.545 663.11 392.599 663.271 392.657H663.271L663.597 392.774C664.711 393.089 665.745 393.638 666.631 394.384L666.638 394.389L666.644 394.395C667.731 395.409 667.945 396.644 667.781 397.845C667.62 399.027 667.089 400.207 666.662 401.159L666.658 401.168L666.653 401.177C666.324 401.804 666.077 402.47 665.92 403.159C666.186 403.179 666.451 403.194 666.718 403.196H666.724C667.29 403.207 668.027 403.219 668.663 403.437C669.324 403.663 669.9 404.12 670.091 405.003V405.004C670.244 405.72 670.054 406.333 669.732 406.855C669.517 407.204 669.235 407.52 668.954 407.809C669.255 407.894 669.542 408.024 669.806 408.196C670.194 408.449 670.521 408.786 670.763 409.18L670.861 409.353L670.868 409.365L670.873 409.379C671.14 410.021 671.215 410.735 671.197 411.512C671.184 412.093 671.119 412.724 671.037 413.399L670.951 414.089C670.707 416.015 670.447 418.103 670.914 419.746L671.015 420.023C671.276 420.655 671.715 421.201 672.279 421.595C673.196 422.224 674.311 422.5 675.416 422.369H675.42C682.767 421.595 689.847 419.185 696.141 415.318L696.146 415.315L697.153 414.721L697.156 414.719L697.185 414.702C697.45 414.492 697.766 414.354 698.102 414.303C698.449 414.251 698.805 414.294 699.13 414.427C699.455 414.56 699.738 414.779 699.949 415.06C700.16 415.341 700.291 415.674 700.328 416.024C701.094 423.282 700.836 429.209 697.397 434.788H731.542C730.019 432.73 729 430.34 728.575 427.809L728.483 427.28C727.608 421.783 728.843 415.492 730.917 409.697C733.06 403.709 736.112 398.21 738.723 394.595C739.592 393.391 740.294 392.249 741.045 391.029C741.625 390.086 742.229 389.104 742.927 388.073C746.366 382.848 747.939 376.612 747.389 370.38V370.377C746.415 357.921 737.397 345.798 725.46 340.921C724.54 340.545 723.591 340.2 722.64 339.9V339.901C717.939 338.452 713.044 337.733 708.126 337.769H708.071Z" fill="white" stroke="white" stroke-width="0.63776"/>
<path d="M721.409 376.574C723.429 375.667 725.416 375.408 727.333 376.456C727.75 376.684 728.06 377.069 728.193 377.525C728.327 377.982 728.274 378.472 728.046 378.89C727.818 379.307 727.433 379.616 726.977 379.75C726.52 379.884 726.029 379.831 725.612 379.603C725.001 379.267 724.198 379.333 723.235 379.704C722.277 380.074 721.198 380.731 720.064 381.521L719.546 381.882L719.82 381.312C720.528 379.85 721.031 378.296 721.314 376.696L721.329 376.61L721.409 376.574Z" fill="white" stroke="white" stroke-width="0.3309"/>
<mask id="path-7-outside-1_996_5686" maskUnits="userSpaceOnUse" x="675.185" y="342.143" width="67" height="59" fill="black">
<rect fill="white" x="675.185" y="342.143" width="67" height="59"/>
<path d="M740.516 362.373C739.729 359.987 738.048 357.999 735.826 356.828C735.018 352.923 731.982 349.307 727.523 347.01C723.043 344.703 718.16 344.258 714.416 345.752C712.381 343.703 709.016 342.767 705.261 343.281C701.508 343.794 698.427 345.632 696.994 348.115C694.634 347.88 692.263 348.427 690.245 349.671C688.227 350.916 686.674 352.79 685.826 355.004C683.199 355.639 680.885 357.191 679.301 359.381C677.739 361.572 677.089 364.284 677.487 366.945C676.739 368.35 676.302 369.898 676.205 371.486C676.108 373.074 676.355 374.664 676.927 376.149C677.395 377.404 678.123 378.547 679.063 379.503C680.003 380.458 681.134 381.205 682.382 381.693C683.203 383.956 685.51 385.719 688.653 386.411C691.421 387.022 694.795 386.758 697.113 385.07C698.042 386.32 699.199 387.384 700.522 388.206C700.885 387.175 701.381 386.195 701.995 385.292C700.76 384.416 699.719 383.295 698.936 381.999C698.734 377.99 699.564 373.335 701.926 372.194C702.312 372.005 702.608 371.67 702.749 371.264C702.889 370.857 702.863 370.411 702.676 370.024C702.489 369.636 702.156 369.339 701.75 369.196C701.344 369.054 700.898 369.078 700.509 369.263C699.202 369.933 698.137 370.995 697.462 372.3C697.384 372.75 697.344 373.206 697.342 373.663C697.343 374.951 696.834 376.187 695.926 377.1C695.685 378.714 695.603 380.348 695.682 381.978C694.484 383.268 691.937 383.801 689.353 383.232C687.581 382.842 685.595 381.832 685.335 380.171C685.286 379.859 685.148 379.569 684.938 379.334C684.727 379.1 684.453 378.932 684.149 378.85C683.191 378.588 682.31 378.099 681.581 377.424C680.852 376.749 680.297 375.908 679.962 374.972C679.529 373.864 679.357 372.67 679.461 371.484C679.566 370.298 679.943 369.152 680.563 368.136C680.791 367.781 680.871 367.351 680.787 366.938C680.572 365.964 680.565 364.956 680.766 363.979C680.967 363.003 681.371 362.08 681.952 361.27C682.581 360.399 683.378 359.664 684.297 359.108C685.216 358.552 686.238 358.188 687.301 358.036C687.623 357.992 687.924 357.854 688.166 357.638C688.409 357.422 688.581 357.139 688.661 356.825C689.17 354.945 690.4 353.342 692.084 352.364C693.723 351.373 695.687 351.069 697.55 351.517C697.955 351.622 698.384 351.567 698.749 351.364C699.115 351.16 699.387 350.824 699.511 350.425C700.107 348.505 702.595 346.931 705.701 346.507C707.541 346.186 709.435 346.468 711.101 347.31C710.098 348 709.163 348.783 708.307 349.649C706.685 351.203 705.397 352.427 703.177 352.277C702.963 352.262 702.749 352.29 702.547 352.358C702.344 352.426 702.157 352.533 701.996 352.673C701.835 352.814 701.703 352.985 701.607 353.176C701.512 353.367 701.456 353.575 701.441 353.789C701.426 354.002 701.454 354.216 701.522 354.419C701.59 354.621 701.697 354.808 701.837 354.97C701.978 355.131 702.148 355.263 702.34 355.358C702.531 355.453 702.739 355.51 702.952 355.524C703.165 355.539 703.371 355.546 703.572 355.546C704.474 355.547 705.369 355.387 706.214 355.072C706.158 355.471 706.12 355.865 706.099 356.249C707.194 356.343 708.276 356.545 709.331 356.854C709.379 354.128 710.235 351.346 714.683 349.219C714.707 349.206 714.733 349.199 714.757 349.186C717.631 347.576 722.056 347.856 726.032 349.905C729.89 351.892 732.399 354.98 732.745 358.165C732.779 358.478 732.903 358.774 733.101 359.017C733.3 359.261 733.565 359.442 733.864 359.539C734.718 359.889 735.485 360.426 736.106 361.11C736.728 361.793 737.19 362.607 737.458 363.491C738.241 365.637 738.22 367.994 737.401 370.126C736.634 369.336 735.778 368.639 734.85 368.048C734.659 367.73 734.365 367.487 734.015 367.36C731.355 366.409 730.797 362.926 730.797 360.171C730.797 359.74 730.625 359.326 730.32 359.02C730.015 358.715 729.601 358.544 729.169 358.544C728.737 358.544 728.323 358.715 728.018 359.02C727.713 359.326 727.542 359.74 727.542 360.171C727.497 362.066 727.8 363.953 728.435 365.739C726.741 365.477 725.029 365.351 723.316 365.364C722.884 365.364 722.47 365.535 722.165 365.841C721.86 366.146 721.688 366.56 721.688 366.992C721.688 367.423 721.86 367.837 722.165 368.143C722.47 368.448 722.884 368.619 723.316 368.619C731.018 368.619 734.129 370.781 736.43 374.027C736.539 374.176 736.673 374.305 736.827 374.409C737.041 376.246 736.641 378.103 735.689 379.69C734.737 381.277 733.287 382.504 731.565 383.18C731.225 383.297 730.934 383.524 730.736 383.824C730.538 384.124 730.446 384.481 730.473 384.84C730.417 385.182 730.285 385.506 730.085 385.789C729.885 386.071 729.623 386.304 729.319 386.47C729.026 386.705 728.681 386.868 728.313 386.944C727.945 387.02 727.564 387.007 727.202 386.907L727.194 386.904C726.953 386.795 726.689 386.742 726.424 386.75C726.159 386.758 725.899 386.827 725.664 386.951L725.657 386.954C725.629 386.97 725.607 386.992 725.58 387.009C725.466 387.076 725.364 387.163 725.28 387.266C725.249 387.299 725.216 387.33 725.187 387.367C725.139 387.432 725.095 387.501 725.057 387.573C725.045 387.594 725.029 387.611 725.018 387.633L725.016 387.639C724.975 387.725 724.941 387.813 724.915 387.904C724.911 387.917 724.904 387.93 724.9 387.943C724.874 388.044 724.856 388.148 724.849 388.253C724.848 388.313 724.849 388.373 724.854 388.432C724.856 388.478 724.853 388.523 724.859 388.569C724.872 388.673 724.896 388.776 724.929 388.876C724.933 388.889 724.94 388.9 724.945 388.912C724.976 389.002 725.015 389.088 725.062 389.171L725.065 389.178L728.432 394.989L727.372 396.054L720.927 388.105C720.906 388.079 720.88 388.059 720.858 388.035C720.819 387.992 720.778 387.951 720.735 387.912C720.697 387.878 720.657 387.848 720.617 387.819C720.573 387.786 720.527 387.756 720.481 387.728C720.436 387.702 720.39 387.68 720.344 387.658C720.295 387.636 720.247 387.615 720.196 387.597C720.149 387.581 720.101 387.568 720.052 387.556C719.999 387.542 719.946 387.531 719.892 387.523C719.843 387.516 719.794 387.513 719.745 387.51C719.691 387.507 719.636 387.506 719.581 387.509C719.529 387.511 719.478 387.518 719.426 387.526C719.375 387.533 719.324 387.541 719.274 387.554C719.217 387.569 719.16 387.587 719.105 387.608C719.076 387.619 719.045 387.624 719.016 387.636C718.404 387.866 717.75 387.963 717.097 387.921C716.445 387.879 715.809 387.699 715.231 387.393C714.352 388.111 713.403 388.739 712.398 389.267C712.685 389.568 713.004 389.835 713.35 390.063C714.557 390.816 715.956 391.204 717.379 391.181C717.952 391.18 718.523 391.12 719.084 391L725.982 399.51C726.126 399.688 726.306 399.833 726.509 399.936C726.712 400.04 726.935 400.099 727.163 400.11C727.191 400.112 727.219 400.113 727.247 400.113C727.461 400.113 727.673 400.071 727.871 399.988C728.069 399.906 728.249 399.786 728.4 399.634L731.62 396.401C731.873 396.147 732.035 395.817 732.081 395.462C732.127 395.107 732.055 394.746 731.875 394.436L729.318 390.024C729.962 389.834 730.573 389.548 731.131 389.174C732.336 388.413 733.218 387.233 733.607 385.862C735.982 384.697 737.89 382.758 739.017 380.365C740.145 377.972 740.425 375.267 739.811 372.694C740.646 371.119 741.14 369.387 741.262 367.609C741.383 365.831 741.129 364.047 740.516 362.373Z"/>
</mask>
<path d="M740.516 362.373C739.729 359.987 738.048 357.999 735.826 356.828C735.018 352.923 731.982 349.307 727.523 347.01C723.043 344.703 718.16 344.258 714.416 345.752C712.381 343.703 709.016 342.767 705.261 343.281C701.508 343.794 698.427 345.632 696.994 348.115C694.634 347.88 692.263 348.427 690.245 349.671C688.227 350.916 686.674 352.79 685.826 355.004C683.199 355.639 680.885 357.191 679.301 359.381C677.739 361.572 677.089 364.284 677.487 366.945C676.739 368.35 676.302 369.898 676.205 371.486C676.108 373.074 676.355 374.664 676.927 376.149C677.395 377.404 678.123 378.547 679.063 379.503C680.003 380.458 681.134 381.205 682.382 381.693C683.203 383.956 685.51 385.719 688.653 386.411C691.421 387.022 694.795 386.758 697.113 385.07C698.042 386.32 699.199 387.384 700.522 388.206C700.885 387.175 701.381 386.195 701.995 385.292C700.76 384.416 699.719 383.295 698.936 381.999C698.734 377.99 699.564 373.335 701.926 372.194C702.312 372.005 702.608 371.67 702.749 371.264C702.889 370.857 702.863 370.411 702.676 370.024C702.489 369.636 702.156 369.339 701.75 369.196C701.344 369.054 700.898 369.078 700.509 369.263C699.202 369.933 698.137 370.995 697.462 372.3C697.384 372.75 697.344 373.206 697.342 373.663C697.343 374.951 696.834 376.187 695.926 377.1C695.685 378.714 695.603 380.348 695.682 381.978C694.484 383.268 691.937 383.801 689.353 383.232C687.581 382.842 685.595 381.832 685.335 380.171C685.286 379.859 685.148 379.569 684.938 379.334C684.727 379.1 684.453 378.932 684.149 378.85C683.191 378.588 682.31 378.099 681.581 377.424C680.852 376.749 680.297 375.908 679.962 374.972C679.529 373.864 679.357 372.67 679.461 371.484C679.566 370.298 679.943 369.152 680.563 368.136C680.791 367.781 680.871 367.351 680.787 366.938C680.572 365.964 680.565 364.956 680.766 363.979C680.967 363.003 681.371 362.08 681.952 361.27C682.581 360.399 683.378 359.664 684.297 359.108C685.216 358.552 686.238 358.188 687.301 358.036C687.623 357.992 687.924 357.854 688.166 357.638C688.409 357.422 688.581 357.139 688.661 356.825C689.17 354.945 690.4 353.342 692.084 352.364C693.723 351.373 695.687 351.069 697.55 351.517C697.955 351.622 698.384 351.567 698.749 351.364C699.115 351.16 699.387 350.824 699.511 350.425C700.107 348.505 702.595 346.931 705.701 346.507C707.541 346.186 709.435 346.468 711.101 347.31C710.098 348 709.163 348.783 708.307 349.649C706.685 351.203 705.397 352.427 703.177 352.277C702.963 352.262 702.749 352.29 702.547 352.358C702.344 352.426 702.157 352.533 701.996 352.673C701.835 352.814 701.703 352.985 701.607 353.176C701.512 353.367 701.456 353.575 701.441 353.789C701.426 354.002 701.454 354.216 701.522 354.419C701.59 354.621 701.697 354.808 701.837 354.97C701.978 355.131 702.148 355.263 702.34 355.358C702.531 355.453 702.739 355.51 702.952 355.524C703.165 355.539 703.371 355.546 703.572 355.546C704.474 355.547 705.369 355.387 706.214 355.072C706.158 355.471 706.12 355.865 706.099 356.249C707.194 356.343 708.276 356.545 709.331 356.854C709.379 354.128 710.235 351.346 714.683 349.219C714.707 349.206 714.733 349.199 714.757 349.186C717.631 347.576 722.056 347.856 726.032 349.905C729.89 351.892 732.399 354.98 732.745 358.165C732.779 358.478 732.903 358.774 733.101 359.017C733.3 359.261 733.565 359.442 733.864 359.539C734.718 359.889 735.485 360.426 736.106 361.11C736.728 361.793 737.19 362.607 737.458 363.491C738.241 365.637 738.22 367.994 737.401 370.126C736.634 369.336 735.778 368.639 734.85 368.048C734.659 367.73 734.365 367.487 734.015 367.36C731.355 366.409 730.797 362.926 730.797 360.171C730.797 359.74 730.625 359.326 730.32 359.02C730.015 358.715 729.601 358.544 729.169 358.544C728.737 358.544 728.323 358.715 728.018 359.02C727.713 359.326 727.542 359.74 727.542 360.171C727.497 362.066 727.8 363.953 728.435 365.739C726.741 365.477 725.029 365.351 723.316 365.364C722.884 365.364 722.47 365.535 722.165 365.841C721.86 366.146 721.688 366.56 721.688 366.992C721.688 367.423 721.86 367.837 722.165 368.143C722.47 368.448 722.884 368.619 723.316 368.619C731.018 368.619 734.129 370.781 736.43 374.027C736.539 374.176 736.673 374.305 736.827 374.409C737.041 376.246 736.641 378.103 735.689 379.69C734.737 381.277 733.287 382.504 731.565 383.18C731.225 383.297 730.934 383.524 730.736 383.824C730.538 384.124 730.446 384.481 730.473 384.84C730.417 385.182 730.285 385.506 730.085 385.789C729.885 386.071 729.623 386.304 729.319 386.47C729.026 386.705 728.681 386.868 728.313 386.944C727.945 387.02 727.564 387.007 727.202 386.907L727.194 386.904C726.953 386.795 726.689 386.742 726.424 386.75C726.159 386.758 725.899 386.827 725.664 386.951L725.657 386.954C725.629 386.97 725.607 386.992 725.58 387.009C725.466 387.076 725.364 387.163 725.28 387.266C725.249 387.299 725.216 387.33 725.187 387.367C725.139 387.432 725.095 387.501 725.057 387.573C725.045 387.594 725.029 387.611 725.018 387.633L725.016 387.639C724.975 387.725 724.941 387.813 724.915 387.904C724.911 387.917 724.904 387.93 724.9 387.943C724.874 388.044 724.856 388.148 724.849 388.253C724.848 388.313 724.849 388.373 724.854 388.432C724.856 388.478 724.853 388.523 724.859 388.569C724.872 388.673 724.896 388.776 724.929 388.876C724.933 388.889 724.94 388.9 724.945 388.912C724.976 389.002 725.015 389.088 725.062 389.171L725.065 389.178L728.432 394.989L727.372 396.054L720.927 388.105C720.906 388.079 720.88 388.059 720.858 388.035C720.819 387.992 720.778 387.951 720.735 387.912C720.697 387.878 720.657 387.848 720.617 387.819C720.573 387.786 720.527 387.756 720.481 387.728C720.436 387.702 720.39 387.68 720.344 387.658C720.295 387.636 720.247 387.615 720.196 387.597C720.149 387.581 720.101 387.568 720.052 387.556C719.999 387.542 719.946 387.531 719.892 387.523C719.843 387.516 719.794 387.513 719.745 387.51C719.691 387.507 719.636 387.506 719.581 387.509C719.529 387.511 719.478 387.518 719.426 387.526C719.375 387.533 719.324 387.541 719.274 387.554C719.217 387.569 719.16 387.587 719.105 387.608C719.076 387.619 719.045 387.624 719.016 387.636C718.404 387.866 717.75 387.963 717.097 387.921C716.445 387.879 715.809 387.699 715.231 387.393C714.352 388.111 713.403 388.739 712.398 389.267C712.685 389.568 713.004 389.835 713.35 390.063C714.557 390.816 715.956 391.204 717.379 391.181C717.952 391.18 718.523 391.12 719.084 391L725.982 399.51C726.126 399.688 726.306 399.833 726.509 399.936C726.712 400.04 726.935 400.099 727.163 400.11C727.191 400.112 727.219 400.113 727.247 400.113C727.461 400.113 727.673 400.071 727.871 399.988C728.069 399.906 728.249 399.786 728.4 399.634L731.62 396.401C731.873 396.147 732.035 395.817 732.081 395.462C732.127 395.107 732.055 394.746 731.875 394.436L729.318 390.024C729.962 389.834 730.573 389.548 731.131 389.174C732.336 388.413 733.218 387.233 733.607 385.862C735.982 384.697 737.89 382.758 739.017 380.365C740.145 377.972 740.425 375.267 739.811 372.694C740.646 371.119 741.14 369.387 741.262 367.609C741.383 365.831 741.129 364.047 740.516 362.373Z" fill="white"/>
<path d="M740.516 362.373C739.729 359.987 738.048 357.999 735.826 356.828C735.018 352.923 731.982 349.307 727.523 347.01C723.043 344.703 718.16 344.258 714.416 345.752C712.381 343.703 709.016 342.767 705.261 343.281C701.508 343.794 698.427 345.632 696.994 348.115C694.634 347.88 692.263 348.427 690.245 349.671C688.227 350.916 686.674 352.79 685.826 355.004C683.199 355.639 680.885 357.191 679.301 359.381C677.739 361.572 677.089 364.284 677.487 366.945C676.739 368.35 676.302 369.898 676.205 371.486C676.108 373.074 676.355 374.664 676.927 376.149C677.395 377.404 678.123 378.547 679.063 379.503C680.003 380.458 681.134 381.205 682.382 381.693C683.203 383.956 685.51 385.719 688.653 386.411C691.421 387.022 694.795 386.758 697.113 385.07C698.042 386.32 699.199 387.384 700.522 388.206C700.885 387.175 701.381 386.195 701.995 385.292C700.76 384.416 699.719 383.295 698.936 381.999C698.734 377.99 699.564 373.335 701.926 372.194C702.312 372.005 702.608 371.67 702.749 371.264C702.889 370.857 702.863 370.411 702.676 370.024C702.489 369.636 702.156 369.339 701.75 369.196C701.344 369.054 700.898 369.078 700.509 369.263C699.202 369.933 698.137 370.995 697.462 372.3C697.384 372.75 697.344 373.206 697.342 373.663C697.343 374.951 696.834 376.187 695.926 377.1C695.685 378.714 695.603 380.348 695.682 381.978C694.484 383.268 691.937 383.801 689.353 383.232C687.581 382.842 685.595 381.832 685.335 380.171C685.286 379.859 685.148 379.569 684.938 379.334C684.727 379.1 684.453 378.932 684.149 378.85C683.191 378.588 682.31 378.099 681.581 377.424C680.852 376.749 680.297 375.908 679.962 374.972C679.529 373.864 679.357 372.67 679.461 371.484C679.566 370.298 679.943 369.152 680.563 368.136C680.791 367.781 680.871 367.351 680.787 366.938C680.572 365.964 680.565 364.956 680.766 363.979C680.967 363.003 681.371 362.08 681.952 361.27C682.581 360.399 683.378 359.664 684.297 359.108C685.216 358.552 686.238 358.188 687.301 358.036C687.623 357.992 687.924 357.854 688.166 357.638C688.409 357.422 688.581 357.139 688.661 356.825C689.17 354.945 690.4 353.342 692.084 352.364C693.723 351.373 695.687 351.069 697.55 351.517C697.955 351.622 698.384 351.567 698.749 351.364C699.115 351.16 699.387 350.824 699.511 350.425C700.107 348.505 702.595 346.931 705.701 346.507C707.541 346.186 709.435 346.468 711.101 347.31C710.098 348 709.163 348.783 708.307 349.649C706.685 351.203 705.397 352.427 703.177 352.277C702.963 352.262 702.749 352.29 702.547 352.358C702.344 352.426 702.157 352.533 701.996 352.673C701.835 352.814 701.703 352.985 701.607 353.176C701.512 353.367 701.456 353.575 701.441 353.789C701.426 354.002 701.454 354.216 701.522 354.419C701.59 354.621 701.697 354.808 701.837 354.97C701.978 355.131 702.148 355.263 702.34 355.358C702.531 355.453 702.739 355.51 702.952 355.524C703.165 355.539 703.371 355.546 703.572 355.546C704.474 355.547 705.369 355.387 706.214 355.072C706.158 355.471 706.12 355.865 706.099 356.249C707.194 356.343 708.276 356.545 709.331 356.854C709.379 354.128 710.235 351.346 714.683 349.219C714.707 349.206 714.733 349.199 714.757 349.186C717.631 347.576 722.056 347.856 726.032 349.905C729.89 351.892 732.399 354.98 732.745 358.165C732.779 358.478 732.903 358.774 733.101 359.017C733.3 359.261 733.565 359.442 733.864 359.539C734.718 359.889 735.485 360.426 736.106 361.11C736.728 361.793 737.19 362.607 737.458 363.491C738.241 365.637 738.22 367.994 737.401 370.126C736.634 369.336 735.778 368.639 734.85 368.048C734.659 367.73 734.365 367.487 734.015 367.36C731.355 366.409 730.797 362.926 730.797 360.171C730.797 359.74 730.625 359.326 730.32 359.02C730.015 358.715 729.601 358.544 729.169 358.544C728.737 358.544 728.323 358.715 728.018 359.02C727.713 359.326 727.542 359.74 727.542 360.171C727.497 362.066 727.8 363.953 728.435 365.739C726.741 365.477 725.029 365.351 723.316 365.364C722.884 365.364 722.47 365.535 722.165 365.841C721.86 366.146 721.688 366.56 721.688 366.992C721.688 367.423 721.86 367.837 722.165 368.143C722.47 368.448 722.884 368.619 723.316 368.619C731.018 368.619 734.129 370.781 736.43 374.027C736.539 374.176 736.673 374.305 736.827 374.409C737.041 376.246 736.641 378.103 735.689 379.69C734.737 381.277 733.287 382.504 731.565 383.18C731.225 383.297 730.934 383.524 730.736 383.824C730.538 384.124 730.446 384.481 730.473 384.84C730.417 385.182 730.285 385.506 730.085 385.789C729.885 386.071 729.623 386.304 729.319 386.47C729.026 386.705 728.681 386.868 728.313 386.944C727.945 387.02 727.564 387.007 727.202 386.907L727.194 386.904C726.953 386.795 726.689 386.742 726.424 386.75C726.159 386.758 725.899 386.827 725.664 386.951L725.657 386.954C725.629 386.97 725.607 386.992 725.58 387.009C725.466 387.076 725.364 387.163 725.28 387.266C725.249 387.299 725.216 387.33 725.187 387.367C725.139 387.432 725.095 387.501 725.057 387.573C725.045 387.594 725.029 387.611 725.018 387.633L725.016 387.639C724.975 387.725 724.941 387.813 724.915 387.904C724.911 387.917 724.904 387.93 724.9 387.943C724.874 388.044 724.856 388.148 724.849 388.253C724.848 388.313 724.849 388.373 724.854 388.432C724.856 388.478 724.853 388.523 724.859 388.569C724.872 388.673 724.896 388.776 724.929 388.876C724.933 388.889 724.94 388.9 724.945 388.912C724.976 389.002 725.015 389.088 725.062 389.171L725.065 389.178L728.432 394.989L727.372 396.054L720.927 388.105C720.906 388.079 720.88 388.059 720.858 388.035C720.819 387.992 720.778 387.951 720.735 387.912C720.697 387.878 720.657 387.848 720.617 387.819C720.573 387.786 720.527 387.756 720.481 387.728C720.436 387.702 720.39 387.68 720.344 387.658C720.295 387.636 720.247 387.615 720.196 387.597C720.149 387.581 720.101 387.568 720.052 387.556C719.999 387.542 719.946 387.531 719.892 387.523C719.843 387.516 719.794 387.513 719.745 387.51C719.691 387.507 719.636 387.506 719.581 387.509C719.529 387.511 719.478 387.518 719.426 387.526C719.375 387.533 719.324 387.541 719.274 387.554C719.217 387.569 719.16 387.587 719.105 387.608C719.076 387.619 719.045 387.624 719.016 387.636C718.404 387.866 717.75 387.963 717.097 387.921C716.445 387.879 715.809 387.699 715.231 387.393C714.352 388.111 713.403 388.739 712.398 389.267C712.685 389.568 713.004 389.835 713.35 390.063C714.557 390.816 715.956 391.204 717.379 391.181C717.952 391.18 718.523 391.12 719.084 391L725.982 399.51C726.126 399.688 726.306 399.833 726.509 399.936C726.712 400.04 726.935 400.099 727.163 400.11C727.191 400.112 727.219 400.113 727.247 400.113C727.461 400.113 727.673 400.071 727.871 399.988C728.069 399.906 728.249 399.786 728.4 399.634L731.62 396.401C731.873 396.147 732.035 395.817 732.081 395.462C732.127 395.107 732.055 394.746 731.875 394.436L729.318 390.024C729.962 389.834 730.573 389.548 731.131 389.174C732.336 388.413 733.218 387.233 733.607 385.862C735.982 384.697 737.89 382.758 739.017 380.365C740.145 377.972 740.425 375.267 739.811 372.694C740.646 371.119 741.14 369.387 741.262 367.609C741.383 365.831 741.129 364.047 740.516 362.373Z" stroke="white" stroke-width="0.661801" mask="url(#path-7-outside-1_996_5686)"/>
<path d="M706.458 395.979C706.458 396.454 706.269 396.911 705.933 397.247C705.596 397.583 705.14 397.771 704.665 397.771C704.189 397.771 703.733 397.583 703.396 397.247C703.06 396.911 702.872 396.454 702.872 395.979V392.497C702.857 390.627 703.392 388.793 704.412 387.226C705.432 385.658 706.892 384.424 708.608 383.681C710.61 382.791 712.297 381.319 713.45 379.457C714.603 377.594 715.168 375.427 715.071 373.238V373.237C714.868 367.716 710.374 363.059 705.07 362.851C703.695 362.798 702.323 363.027 701.038 363.52C699.753 364.013 698.581 364.76 697.594 365.719C696.533 366.751 695.691 367.987 695.116 369.352C694.542 370.716 694.248 372.183 694.251 373.663L694.242 373.841C694.201 374.251 694.02 374.637 693.726 374.932C693.389 375.268 692.933 375.456 692.458 375.456C691.982 375.456 691.526 375.268 691.189 374.932C690.853 374.595 690.665 374.139 690.665 373.663C690.663 371.7 691.055 369.758 691.818 367.949C692.581 366.141 693.7 364.504 695.107 363.136C696.441 361.84 698.025 360.828 699.762 360.163C701.498 359.498 703.352 359.194 705.21 359.269H705.213C708.78 359.472 712.141 361.007 714.63 363.569C717.119 366.132 718.556 369.535 718.655 373.105L718.668 373.65C718.679 376.376 717.92 379.055 716.476 381.375C715.031 383.695 712.962 385.556 710.511 386.749L710.016 386.979C708.947 387.447 708.039 388.22 707.406 389.201C706.774 390.182 706.444 391.328 706.458 392.495V395.979Z" fill="white" stroke="white" stroke-width="0.3309"/>
<path d="M704.666 399.808C706.104 399.809 707.261 401.011 707.262 402.484C707.262 403.957 706.105 405.161 704.666 405.161C703.227 405.161 702.07 403.957 702.07 402.484C702.071 401.011 703.227 399.808 704.666 399.808Z" fill="white" stroke="white" stroke-width="0.3309"/>
</g>
<path d="M174.984 379.018C169.971 379.018 165.452 382.038 163.531 386.673C161.613 391.307 162.675 396.638 166.224 400.183C169.768 403.728 175.099 404.786 179.735 402.869C184.365 400.951 187.385 396.428 187.385 391.415C187.377 384.568 181.831 379.022 174.984 379.018ZM174.984 398.707C172.028 398.707 169.363 396.925 168.237 394.192C167.107 391.458 167.735 388.316 169.828 386.231C171.921 384.142 175.063 383.522 177.793 384.656C180.522 385.789 182.3 388.459 182.292 391.415C182.288 395.449 179.018 398.715 174.984 398.719V398.707Z" fill="white"/>
<path d="M204.101 369.877C191.458 363.134 176.866 360.986 162.819 363.806C148.767 366.627 136.132 374.237 127.073 385.341C124.193 388.878 124.193 393.954 127.073 397.491C138.813 411.889 156.41 420.239 174.984 420.239C193.559 420.239 211.155 411.889 222.895 397.491C225.775 393.951 225.775 388.878 222.895 385.337C217.715 378.992 211.326 373.736 204.101 369.877ZM174.984 415.138C168.69 415.138 162.656 412.64 158.207 408.188C153.755 403.74 151.257 397.705 151.257 391.411C151.257 385.117 153.759 379.083 158.207 374.634C162.659 370.182 168.694 367.684 174.988 367.684C181.278 367.684 187.313 370.186 191.765 374.638C196.213 379.086 198.711 385.121 198.711 391.415C198.699 397.705 196.197 403.732 191.749 408.18C187.301 412.627 181.274 415.13 174.984 415.138ZM131.012 394.268C129.659 392.605 129.659 390.226 131.012 388.563C135.77 382.739 141.634 377.913 148.265 374.368C150.127 373.385 152.041 372.502 154.002 371.726C148.969 377.045 146.165 384.091 146.165 391.415C146.165 398.738 148.969 405.784 154.002 411.103C145.019 407.559 137.102 401.759 131.012 394.268ZM218.957 394.268C214.202 400.092 208.338 404.918 201.706 408.463C199.844 409.45 197.927 410.333 195.965 411.105C200.998 405.786 203.803 398.74 203.803 391.416C203.803 384.092 200.998 377.047 195.965 371.727C204.948 375.268 212.866 381.069 218.952 388.559C220.304 390.222 220.305 392.605 218.957 394.268Z" fill="white"/>
<path d="M151.305 359.008C152.009 360.226 153.565 360.643 154.786 359.943C156.004 359.239 156.421 357.679 155.717 356.462L152.578 351.016C151.874 349.798 150.319 349.381 149.097 350.085C147.88 350.785 147.462 352.345 148.166 353.562L151.305 359.008Z" fill="white"/>
<path d="M154.782 422.887C154.197 422.549 153.501 422.458 152.849 422.633C152.196 422.808 151.639 423.237 151.305 423.822L148.166 429.28C147.462 430.498 147.88 432.057 149.097 432.761C150.319 433.462 151.874 433.044 152.578 431.827L155.713 426.38C156.055 425.795 156.151 425.095 155.976 424.439C155.801 423.786 155.371 423.225 154.782 422.887Z" fill="white"/>
<path d="M174.985 428.302C173.58 428.302 172.438 429.444 172.438 430.848V437.158C172.438 438.562 173.58 439.704 174.985 439.704C176.389 439.704 177.531 438.562 177.531 437.158V430.848C177.531 429.444 176.389 428.302 174.985 428.302Z" fill="white"/>
<path d="M198.667 423.822C197.963 422.605 196.408 422.187 195.186 422.888C193.969 423.592 193.551 425.151 194.255 426.369L197.41 431.827H197.406C198.11 433.044 199.67 433.462 200.887 432.762C202.105 432.058 202.522 430.498 201.822 429.281L198.667 423.822Z" fill="white"/>
<path d="M195.191 359.939C195.775 360.277 196.472 360.369 197.124 360.194C197.773 360.023 198.329 359.593 198.668 359.008L201.822 353.546C202.523 352.329 202.105 350.769 200.888 350.065C199.67 349.365 198.111 349.783 197.407 351L194.256 356.45C193.917 357.035 193.822 357.731 193.997 358.388C194.172 359.044 194.602 359.601 195.191 359.939Z" fill="white"/>
<path d="M174.985 354.524C176.389 354.524 177.531 353.382 177.531 351.978V345.672C177.531 344.268 176.389 343.126 174.985 343.126C173.58 343.126 172.438 344.268 172.438 345.672V351.978C172.438 353.382 173.58 354.524 174.985 354.524Z" fill="white"/>
<path d="M431.831 403.854C431.831 405.141 430.789 406.183 429.501 406.183C428.214 406.183 427.172 405.141 427.172 403.854V395.341C427.167 395.264 427.135 395.191 427.085 395.141C427.031 395.091 426.953 395.055 426.867 395.055C425.689 395.055 424.615 395.537 423.837 396.306C423.068 397.084 422.586 398.157 422.586 399.331V406.01C422.586 408.553 422.918 410.892 423.596 413.094C424.278 415.305 425.32 417.425 426.749 419.513L429.883 424.108C431.567 426.574 432.809 429.108 433.632 431.783C434.46 434.468 434.861 437.257 434.861 440.232V442.539C434.861 443.826 433.819 444.868 432.531 444.868C431.244 444.868 430.202 443.826 430.202 442.539V440.232C430.202 437.693 429.87 435.35 429.192 433.148C428.509 430.937 427.467 428.817 426.044 426.729L422.909 422.134C421.226 419.668 419.984 417.134 419.155 414.459C418.327 411.779 417.927 408.986 417.927 406.01V399.331C417.927 396.874 418.932 394.636 420.552 393.016C422.181 391.401 424.415 390.391 426.867 390.391L427.172 390.4V361.56C427.172 359.295 428.1 357.234 429.592 355.741C431.08 354.254 433.145 353.321 435.411 353.321C437.677 353.321 439.742 354.249 441.23 355.741L441.362 355.887C442.777 357.37 443.65 359.367 443.65 361.56V373.708L443.955 373.699C446.407 373.699 448.646 374.709 450.265 376.324C450.766 376.829 451.212 377.389 451.585 377.998C452.094 377.821 452.64 377.725 453.204 377.725C455.657 377.725 457.895 378.735 459.515 380.35C460.056 380.892 460.529 381.501 460.921 382.166C461.403 382.006 461.922 381.92 462.454 381.92C464.906 381.92 467.144 382.93 468.764 384.545C470.388 386.174 471.398 388.408 471.398 390.86V409.476C471.398 412.088 471.093 414.526 470.461 416.892C469.833 419.244 468.869 421.515 467.558 423.785L465.916 426.619C464.82 428.521 464.014 430.418 463.487 432.397C462.963 434.349 462.713 436.396 462.713 438.612V442.543C462.713 443.83 461.671 444.872 460.384 444.872C459.096 444.872 458.054 443.83 458.054 442.543V438.612C458.054 436.001 458.359 433.562 458.996 431.192C459.624 428.853 460.584 426.587 461.899 424.308L463.541 421.451C464.642 419.549 465.447 417.647 465.971 415.682C466.494 413.73 466.744 411.687 466.744 409.467V390.851C466.744 389.673 466.262 388.599 465.493 387.825C464.72 387.052 463.641 386.574 462.467 386.574C462.386 386.574 462.308 386.611 462.254 386.665C462.199 386.715 462.163 386.793 462.163 386.879V397.034C462.163 398.321 461.121 399.363 459.833 399.363C458.546 399.363 457.504 398.321 457.504 397.034V386.661C457.504 385.482 457.022 384.409 456.253 383.635C455.479 382.862 454.401 382.384 453.227 382.384C453.145 382.384 453.068 382.421 453.013 382.475L452.977 382.511C452.941 382.562 452.922 382.625 452.922 382.693V395.383C452.922 396.67 451.881 397.712 450.593 397.712C449.305 397.712 448.264 396.67 448.264 395.383V382.59C448.25 381.434 447.768 380.379 447.012 379.619C446.239 378.845 445.161 378.368 443.987 378.368C443.905 378.368 443.828 378.404 443.773 378.459C443.723 378.509 443.687 378.582 443.682 378.659V391.907C443.682 393.195 442.64 394.237 441.353 394.237C440.065 394.237 439.023 393.195 439.023 391.907V361.566C439.023 360.624 438.655 359.769 438.063 359.127L437.972 359.041C437.326 358.395 436.43 357.99 435.447 357.99C434.465 357.99 433.568 358.395 432.922 359.041C432.276 359.687 431.871 360.583 431.871 361.566V403.858L431.831 403.854ZM418.081 376.856C418.932 377.816 418.841 379.285 417.881 380.132C416.921 380.982 415.452 380.891 414.605 379.931C412.399 377.438 410.634 374.54 409.437 371.374C408.277 368.316 407.645 365.004 407.645 361.56C407.645 353.894 410.752 346.951 415.779 341.929C420.802 336.906 427.744 333.794 435.41 333.794C443.076 333.794 450.019 336.902 455.041 341.929C460.064 346.952 463.176 353.894 463.176 361.56C463.176 363.93 462.876 366.237 462.316 368.439C461.743 370.691 460.878 372.852 459.773 374.872C459.159 375.996 457.748 376.414 456.624 375.8C455.501 375.186 455.082 373.776 455.696 372.652C456.602 371 457.316 369.199 457.803 367.292C458.271 365.464 458.517 363.539 458.517 361.56C458.517 355.177 455.933 349.399 451.752 345.223C447.571 341.042 441.793 338.458 435.415 338.458C429.032 338.458 423.254 341.042 419.077 345.223C414.896 349.404 412.312 355.182 412.312 361.56C412.312 364.454 412.84 367.211 413.795 369.736C414.796 372.374 416.261 374.786 418.095 376.856L418.081 376.856ZM424.692 368.849C425.415 369.909 425.142 371.355 424.082 372.079C423.022 372.802 421.575 372.529 420.852 371.469C419.878 370.041 419.101 368.448 418.577 366.747C418.068 365.091 417.795 363.344 417.795 361.556C417.795 356.701 419.769 352.297 422.954 349.112C426.139 345.918 430.543 343.944 435.406 343.944C440.269 343.944 444.673 345.918 447.858 349.103L447.98 349.235C451.097 352.415 453.017 356.764 453.017 361.555C453.017 362.747 452.889 363.939 452.648 365.108C452.403 366.314 452.039 367.456 451.584 368.516C451.079 369.694 449.705 370.24 448.526 369.735C447.348 369.23 446.802 367.856 447.307 366.678C447.657 365.864 447.926 365.026 448.099 364.18C448.267 363.361 448.358 362.479 448.358 361.551C448.358 358.02 446.952 354.822 444.677 352.497L444.568 352.392C442.225 350.049 438.986 348.602 435.41 348.602C431.834 348.602 428.59 350.054 426.251 352.392C423.908 354.731 422.462 357.97 422.462 361.551C422.462 362.897 422.662 364.185 423.026 365.377C423.408 366.614 423.977 367.784 424.7 368.844L424.692 368.849Z" fill="white"/>
<path d="M935.02 418.738H933.005C931.871 418.738 930.989 419.62 930.989 420.753C930.989 421.887 931.871 422.769 933.005 422.769H935.02C936.154 422.769 937.036 421.887 937.036 420.753C937.036 419.62 936.154 418.738 935.02 418.738Z" fill="white"/>
<path d="M1007.7 349.491C1013.24 349.491 1017.75 353.997 1017.75 359.534V373.045H1031.63C1035.03 373.045 1037.77 375.789 1037.77 379.184V422.517C1037.77 425.913 1035.03 428.656 1031.63 428.656H1004.05C1000.65 428.656 997.91 425.913 997.91 422.517V416.815H986.922L988.111 424.188H994.097C995.351 424.188 996.331 425.167 996.331 426.421C996.331 427.676 995.351 428.656 994.097 428.656H954.796C953.542 428.656 952.562 427.676 952.562 426.421C952.563 425.167 953.542 424.188 954.796 424.188H960.782L961.972 416.815H948.968V422.517C948.968 425.913 946.225 428.656 942.829 428.656H925.067C921.672 428.656 918.93 425.912 918.93 422.517V387.121C918.93 383.725 921.672 380.982 925.067 380.982H930.771V359.534C930.771 353.997 935.277 349.491 940.813 349.491H1007.7ZM925.067 385.575C924.054 385.575 923.271 386.36 923.271 387.373V422.769C923.271 423.782 924.055 424.566 925.067 424.566H942.829C943.842 424.566 944.626 423.782 944.626 422.769V387.373C944.626 386.359 943.842 385.575 942.829 385.575H941.026C940.912 388.869 938.216 391.495 934.894 391.496C931.571 391.496 928.875 388.869 928.761 385.575H925.067ZM1002.12 422.643C1002.13 423.656 1002.91 424.44 1003.92 424.44H1031.38C1032.4 424.44 1033.18 423.656 1033.18 422.643V420.845H1002.12V422.643ZM965.13 424.44H983.512L982.322 417.067H966.318L965.13 424.44ZM1004.05 377.513C1003.04 377.513 1002.25 378.297 1002.25 379.31V416.504H1033.31V408.57L1033.43 408.444V379.31C1033.43 378.297 1032.65 377.513 1031.63 377.513H1004.05ZM949.094 412.599H997.91V407.115H949.094V412.599ZM940.939 354.083C937.858 354.084 935.357 356.515 935.243 359.568H935.363V381.234H942.955C946.351 381.234 949.094 383.977 949.094 387.373V402.9H997.784V379.436C997.784 376.041 1000.53 373.297 1003.92 373.297H1013.53V359.786C1013.53 356.631 1010.98 354.083 1007.83 354.083H940.939ZM933.236 385.575C933.34 386.48 934.08 387.154 935.02 387.154C935.959 387.154 936.699 386.48 936.803 385.575H933.236Z" fill="white" stroke="white" stroke-width="0.436417"/>
<path d="M1027.6 387.246C1027.6 392.537 1019.79 392.537 1019.79 387.246C1019.79 381.956 1027.6 381.956 1027.6 387.246Z" fill="white"/>
<circle cx="176.433" cy="266.433" r="46.4331" fill="#F4F4F5"/>
<circle cx="709.433" cy="266.433" r="46.4331" fill="#F4F4F5"/>
<circle cx="976.433" cy="266.433" r="46.4331" fill="#F4F4F5"/>
<circle cx="443.433" cy="266.433" r="46.4331" fill="#F4F4F5"/>
<path d="M166.343 282.605C165.949 282.605 165.627 282.479 165.376 282.229C165.125 281.978 165 281.656 165 281.262V246.343C165 245.949 165.125 245.627 165.376 245.376C165.627 245.125 165.949 245 166.343 245H181.009C183.91 245 186.417 245.448 188.53 246.343C190.679 247.238 192.344 248.599 193.526 250.426C194.744 252.217 195.352 254.455 195.352 257.141C195.352 259.863 194.744 262.119 193.526 263.91C192.344 265.665 190.679 266.972 188.53 267.831C186.417 268.691 183.91 269.121 181.009 269.121H173.81V281.262C173.81 281.656 173.685 281.978 173.434 282.229C173.184 282.479 172.861 282.605 172.467 282.605H166.343ZM173.649 262.459H180.74C182.567 262.459 183.981 262.012 184.984 261.116C186.023 260.221 186.542 258.878 186.542 257.087C186.542 255.511 186.077 254.222 185.145 253.219C184.25 252.217 182.782 251.715 180.74 251.715H173.649V262.459Z" fill="#2A2868"/>
<path d="M709.687 287.142C706.535 287.142 703.777 286.623 701.414 285.584C699.05 284.51 697.223 282.88 695.934 280.695C694.645 278.475 694 275.664 694 272.261V250.343C694 249.949 694.125 249.627 694.376 249.376C694.627 249.125 694.949 249 695.343 249H701.199C701.593 249 701.915 249.125 702.166 249.376C702.416 249.627 702.542 249.949 702.542 250.343V272.207C702.542 274.858 703.168 276.828 704.422 278.117C705.675 279.406 707.43 280.051 709.687 280.051C711.907 280.051 713.644 279.406 714.897 278.117C716.151 276.828 716.778 274.858 716.778 272.207V250.343C716.778 249.949 716.903 249.627 717.154 249.376C717.44 249.125 717.763 249 718.121 249H724.03C724.388 249 724.693 249.125 724.943 249.376C725.194 249.627 725.319 249.949 725.319 250.343V272.261C725.319 275.664 724.675 278.475 723.385 280.695C722.096 282.88 720.288 284.51 717.96 285.584C715.632 286.623 712.874 287.142 709.687 287.142Z" fill="#2A2868"/>
<path d="M965.343 284.605C964.949 284.605 964.627 284.479 964.376 284.229C964.125 283.978 964 283.656 964 283.262V248.343C964 247.949 964.125 247.627 964.376 247.376C964.627 247.125 964.949 247 965.343 247H979.579C984.056 247 987.584 248.039 990.162 250.116C992.741 252.157 994.03 255.112 994.03 258.98C994.03 261.594 993.403 263.779 992.15 265.534C990.896 267.289 989.213 268.596 987.1 269.455L994.675 282.886C994.782 283.101 994.836 283.298 994.836 283.477C994.836 283.763 994.728 284.032 994.514 284.282C994.299 284.497 994.03 284.605 993.708 284.605H987.745C987.1 284.605 986.617 284.444 986.294 284.121C985.972 283.763 985.739 283.441 985.596 283.154L979.042 270.852H972.542V283.262C972.542 283.656 972.416 283.978 972.166 284.229C971.915 284.479 971.593 284.605 971.199 284.605H965.343ZM972.542 264.03H979.418C981.388 264.03 982.838 263.582 983.769 262.687C984.736 261.791 985.22 260.538 985.22 258.926C985.22 257.314 984.754 256.043 983.823 255.112C982.892 254.181 981.424 253.715 979.418 253.715H972.542V264.03Z" fill="#2A2868"/>
<path d="M443.17 284.679C439.911 284.679 437.1 284.142 434.736 283.068C432.372 281.993 430.528 280.381 429.203 278.233C427.877 276.048 427.161 273.308 427.054 270.013C427.018 268.473 427 266.951 427 265.447C427 263.907 427.018 262.349 427.054 260.773C427.161 257.55 427.877 254.846 429.203 252.661C430.563 250.441 432.426 248.776 434.79 247.665C437.189 246.555 439.983 246 443.17 246C446.322 246 449.079 246.555 451.443 247.665C453.843 248.776 455.723 250.441 457.084 252.661C458.445 254.846 459.161 257.55 459.233 260.773C459.304 262.349 459.34 263.907 459.34 265.447C459.34 266.951 459.304 268.473 459.233 270.013C459.125 273.308 458.409 276.048 457.084 278.233C455.759 280.381 453.914 281.993 451.551 283.068C449.187 284.142 446.393 284.679 443.17 284.679ZM443.17 277.749C445.247 277.749 446.948 277.122 448.274 275.869C449.634 274.58 450.351 272.538 450.422 269.745C450.494 268.169 450.53 266.701 450.53 265.34C450.53 263.943 450.494 262.474 450.422 260.934C450.387 259.072 450.046 257.55 449.402 256.368C448.757 255.186 447.897 254.327 446.823 253.79C445.784 253.217 444.567 252.93 443.17 252.93C441.773 252.93 440.538 253.217 439.463 253.79C438.389 254.327 437.529 255.186 436.885 256.368C436.276 257.55 435.936 259.072 435.864 260.934C435.828 262.474 435.81 263.943 435.81 265.34C435.81 266.701 435.828 268.169 435.864 269.745C435.971 272.538 436.688 274.58 438.013 275.869C439.338 277.122 441.057 277.749 443.17 277.749Z" fill="#2A2868"/>
<path d="M85.3847 575.651C85.1483 575.651 84.9549 575.575 84.8045 575.425C84.6541 575.275 84.5789 575.081 84.5789 574.845V553.894C84.5789 553.657 84.6541 553.464 84.8045 553.313C84.9549 553.163 85.1483 553.088 85.3847 553.088H94.1842C95.9247 553.088 97.4289 553.356 98.6967 553.894C99.9861 554.431 100.985 555.247 101.694 556.343C102.425 557.418 102.79 558.761 102.79 560.372C102.79 562.005 102.425 563.359 101.694 564.434C100.985 565.487 99.9861 566.271 98.6967 566.787C97.4289 567.302 95.9247 567.56 94.1842 567.56H89.865V574.845C89.865 575.081 89.7898 575.275 89.6394 575.425C89.489 575.575 89.2956 575.651 89.0592 575.651H85.3847ZM89.7683 563.563H94.023C95.1189 563.563 95.9677 563.295 96.5694 562.758C97.1926 562.22 97.5041 561.415 97.5041 560.34C97.5041 559.395 97.2248 558.621 96.6661 558.019C96.1289 557.418 95.2479 557.117 94.023 557.117H89.7683V563.563ZM113.012 575.973C110.541 575.973 108.575 575.285 107.114 573.91C105.674 572.535 104.911 570.536 104.825 567.915C104.825 567.743 104.825 567.517 104.825 567.238C104.825 566.937 104.825 566.701 104.825 566.529C104.911 564.874 105.287 563.456 105.953 562.274C106.62 561.071 107.554 560.157 108.758 559.534C109.961 558.89 111.368 558.567 112.98 558.567C114.785 558.567 116.289 558.943 117.493 559.695C118.717 560.426 119.631 561.436 120.232 562.725C120.856 563.993 121.167 565.454 121.167 567.109V567.85C121.167 568.065 121.081 568.248 120.909 568.398C120.759 568.549 120.576 568.624 120.361 568.624H109.821C109.821 568.645 109.821 568.688 109.821 568.753C109.821 568.796 109.821 568.839 109.821 568.882C109.843 569.569 109.972 570.203 110.208 570.784C110.466 571.342 110.821 571.793 111.272 572.137C111.745 572.481 112.303 572.653 112.948 572.653C113.485 572.653 113.926 572.578 114.269 572.427C114.613 572.277 114.893 572.094 115.107 571.879C115.344 571.665 115.516 571.482 115.623 571.331C115.817 571.117 115.967 570.988 116.074 570.945C116.203 570.88 116.397 570.848 116.655 570.848H120.007C120.222 570.848 120.394 570.912 120.523 571.041C120.673 571.149 120.737 571.31 120.716 571.525C120.694 571.869 120.512 572.298 120.168 572.814C119.846 573.308 119.362 573.803 118.717 574.297C118.073 574.77 117.267 575.167 116.3 575.489C115.355 575.812 114.259 575.973 113.012 575.973ZM109.821 565.691H116.139V565.626C116.139 564.853 116.01 564.187 115.752 563.628C115.516 563.048 115.161 562.596 114.688 562.274C114.216 561.952 113.646 561.791 112.98 561.791C112.314 561.791 111.745 561.952 111.272 562.274C110.799 562.596 110.434 563.048 110.176 563.628C109.939 564.187 109.821 564.853 109.821 565.626V565.691ZM125.163 575.651C124.948 575.651 124.765 575.575 124.615 575.425C124.464 575.275 124.389 575.081 124.389 574.845V559.695C124.389 559.481 124.464 559.298 124.615 559.148C124.765 558.976 124.948 558.89 125.163 558.89H128.322C128.536 558.89 128.719 558.976 128.87 559.148C129.041 559.298 129.127 559.481 129.127 559.695V560.985C129.665 560.319 130.32 559.803 131.094 559.438C131.889 559.072 132.802 558.89 133.833 558.89H135.219C135.434 558.89 135.617 558.965 135.767 559.115C135.918 559.266 135.993 559.459 135.993 559.695V562.467C135.993 562.704 135.918 562.897 135.767 563.048C135.617 563.198 135.434 563.273 135.219 563.273H132.383C131.437 563.273 130.696 563.542 130.159 564.079C129.622 564.595 129.353 565.336 129.353 566.303V574.845C129.353 575.081 129.278 575.275 129.127 575.425C128.977 575.575 128.784 575.651 128.547 575.651H125.163ZM145.653 575.973C144.085 575.973 142.699 575.683 141.495 575.103C140.314 574.522 139.379 573.684 138.691 572.589C138.004 571.471 137.627 570.139 137.563 568.592C137.542 568.248 137.531 567.818 137.531 567.302C137.531 566.765 137.542 566.325 137.563 565.981C137.627 564.412 137.993 563.08 138.659 561.984C139.347 560.867 140.292 560.018 141.495 559.438C142.699 558.857 144.085 558.567 145.653 558.567C147.093 558.567 148.318 558.771 149.328 559.18C150.338 559.567 151.165 560.061 151.81 560.662C152.454 561.264 152.927 561.898 153.228 562.564C153.55 563.209 153.722 563.778 153.744 564.273C153.765 564.487 153.69 564.681 153.518 564.853C153.368 565.003 153.185 565.078 152.97 565.078H149.521C149.306 565.078 149.135 565.025 149.006 564.917C148.898 564.788 148.791 564.616 148.683 564.401C148.382 563.649 147.996 563.112 147.523 562.79C147.05 562.467 146.459 562.306 145.75 562.306C144.783 562.306 144.02 562.618 143.462 563.241C142.903 563.864 142.602 564.831 142.559 566.142C142.538 566.98 142.538 567.743 142.559 568.431C142.624 569.763 142.924 570.73 143.462 571.331C144.02 571.933 144.783 572.234 145.75 572.234C146.502 572.234 147.104 572.073 147.555 571.75C148.006 571.428 148.382 570.891 148.683 570.139C148.769 569.924 148.877 569.763 149.006 569.655C149.135 569.526 149.306 569.462 149.521 569.462H152.97C153.185 569.462 153.368 569.548 153.518 569.72C153.69 569.87 153.765 570.053 153.744 570.268C153.722 570.633 153.615 571.063 153.421 571.557C153.25 572.051 152.959 572.556 152.551 573.072C152.164 573.588 151.659 574.071 151.036 574.522C150.413 574.952 149.65 575.307 148.748 575.586C147.867 575.844 146.835 575.973 145.653 575.973ZM164.383 575.973C161.912 575.973 159.946 575.285 158.485 573.91C157.045 572.535 156.282 570.536 156.196 567.915C156.196 567.743 156.196 567.517 156.196 567.238C156.196 566.937 156.196 566.701 156.196 566.529C156.282 564.874 156.658 563.456 157.324 562.274C157.99 561.071 158.925 560.157 160.128 559.534C161.332 558.89 162.739 558.567 164.351 558.567C166.156 558.567 167.66 558.943 168.863 559.695C170.088 560.426 171.002 561.436 171.603 562.725C172.226 563.993 172.538 565.454 172.538 567.109V567.85C172.538 568.065 172.452 568.248 172.28 568.398C172.13 568.549 171.947 568.624 171.732 568.624H161.192C161.192 568.645 161.192 568.688 161.192 568.753C161.192 568.796 161.192 568.839 161.192 568.882C161.214 569.569 161.342 570.203 161.579 570.784C161.837 571.342 162.191 571.793 162.643 572.137C163.115 572.481 163.674 572.653 164.319 572.653C164.856 572.653 165.296 572.578 165.64 572.427C165.984 572.277 166.263 572.094 166.478 571.879C166.715 571.665 166.886 571.482 166.994 571.331C167.187 571.117 167.338 570.988 167.445 570.945C167.574 570.88 167.768 570.848 168.025 570.848H171.378C171.592 570.848 171.764 570.912 171.893 571.041C172.044 571.149 172.108 571.31 172.087 571.525C172.065 571.869 171.883 572.298 171.539 572.814C171.216 573.308 170.733 573.803 170.088 574.297C169.444 574.77 168.638 575.167 167.671 575.489C166.725 575.812 165.629 575.973 164.383 575.973ZM161.192 565.691H167.51V565.626C167.51 564.853 167.381 564.187 167.123 563.628C166.886 563.048 166.532 562.596 166.059 562.274C165.586 561.952 165.017 561.791 164.351 561.791C163.685 561.791 163.115 561.952 162.643 562.274C162.17 562.596 161.804 563.048 161.547 563.628C161.31 564.187 161.192 564.853 161.192 565.626V565.691ZM176.534 575.651C176.319 575.651 176.136 575.575 175.986 575.425C175.835 575.275 175.76 575.081 175.76 574.845V559.695C175.76 559.459 175.835 559.266 175.986 559.115C176.136 558.965 176.319 558.89 176.534 558.89H179.757C179.993 558.89 180.187 558.965 180.337 559.115C180.487 559.266 180.563 559.459 180.563 559.695V574.845C180.563 575.081 180.487 575.275 180.337 575.425C180.187 575.575 179.993 575.651 179.757 575.651H176.534ZM176.437 556.311C176.222 556.311 176.039 556.236 175.889 556.085C175.738 555.935 175.663 555.742 175.663 555.505V552.927C175.663 552.69 175.738 552.497 175.889 552.346C176.039 552.175 176.222 552.089 176.437 552.089H179.821C180.058 552.089 180.251 552.175 180.401 552.346C180.573 552.497 180.659 552.69 180.659 552.927V555.505C180.659 555.742 180.573 555.935 180.401 556.085C180.251 556.236 180.058 556.311 179.821 556.311H176.437ZM190.536 575.651C190.213 575.651 189.966 575.575 189.794 575.425C189.644 575.253 189.515 575.06 189.408 574.845L183.348 559.889C183.305 559.803 183.283 559.706 183.283 559.599C183.283 559.405 183.348 559.244 183.477 559.115C183.627 558.965 183.799 558.89 183.993 558.89H187.119C187.399 558.89 187.603 558.965 187.732 559.115C187.882 559.266 187.979 559.405 188.022 559.534L191.986 570.171L195.951 559.534C196.015 559.405 196.112 559.266 196.241 559.115C196.391 558.965 196.596 558.89 196.853 558.89H199.98C200.173 558.89 200.335 558.965 200.463 559.115C200.614 559.244 200.689 559.405 200.689 559.599C200.689 559.706 200.678 559.803 200.657 559.889L194.565 574.845C194.479 575.06 194.35 575.253 194.178 575.425C194.006 575.575 193.759 575.651 193.437 575.651H190.536ZM207.667 575.973C206.529 575.973 205.508 575.758 204.605 575.328C203.703 574.877 202.983 574.275 202.446 573.523C201.909 572.771 201.64 571.933 201.64 571.009C201.64 569.483 202.252 568.28 203.477 567.399C204.724 566.518 206.357 565.916 208.377 565.594L212.599 564.982V564.401C212.599 563.563 212.406 562.919 212.019 562.467C211.632 562.016 210.955 561.791 209.988 561.791C209.279 561.791 208.71 561.93 208.28 562.21C207.85 562.489 207.517 562.854 207.281 563.306C207.109 563.585 206.862 563.725 206.539 563.725H203.477C203.241 563.725 203.058 563.66 202.929 563.531C202.8 563.381 202.747 563.209 202.768 563.015C202.768 562.65 202.908 562.22 203.187 561.726C203.466 561.232 203.896 560.748 204.476 560.276C205.057 559.781 205.798 559.373 206.701 559.051C207.603 558.729 208.71 558.567 210.02 558.567C211.374 558.567 212.535 558.729 213.502 559.051C214.469 559.373 215.242 559.824 215.822 560.405C216.403 560.985 216.832 561.662 217.112 562.435C217.391 563.187 217.531 564.004 217.531 564.885V574.845C217.531 575.081 217.455 575.275 217.305 575.425C217.155 575.575 216.961 575.651 216.725 575.651H213.566C213.351 575.651 213.169 575.575 213.018 575.425C212.868 575.275 212.792 575.081 212.792 574.845V573.652C212.513 574.06 212.137 574.447 211.664 574.813C211.192 575.156 210.622 575.436 209.956 575.651C209.311 575.866 208.549 575.973 207.667 575.973ZM208.957 572.621C209.666 572.621 210.3 572.47 210.859 572.17C211.417 571.869 211.858 571.407 212.18 570.784C212.502 570.16 212.664 569.376 212.664 568.431V567.883L209.666 568.366C208.506 568.559 207.657 568.85 207.12 569.236C206.582 569.623 206.314 570.096 206.314 570.655C206.314 571.063 206.432 571.417 206.668 571.718C206.926 572.019 207.259 572.245 207.667 572.395C208.076 572.546 208.506 572.621 208.957 572.621ZM231.168 575.973C229.943 575.973 228.922 575.769 228.105 575.361C227.289 574.931 226.623 574.394 226.107 573.749V574.845C226.107 575.081 226.032 575.275 225.881 575.425C225.731 575.575 225.538 575.651 225.301 575.651H222.239C222.003 575.651 221.809 575.575 221.659 575.425C221.509 575.275 221.433 575.081 221.433 574.845V553.571C221.433 553.335 221.509 553.142 221.659 552.991C221.809 552.841 222.003 552.765 222.239 552.765H225.559C225.774 552.765 225.957 552.841 226.107 552.991C226.257 553.142 226.333 553.335 226.333 553.571V560.598C226.87 559.996 227.536 559.513 228.331 559.148C229.126 558.761 230.072 558.567 231.168 558.567C232.285 558.567 233.252 558.761 234.069 559.148C234.907 559.513 235.616 560.039 236.196 560.727C236.776 561.393 237.217 562.188 237.517 563.112C237.84 564.036 238.012 565.057 238.033 566.174C238.055 566.561 238.065 566.926 238.065 567.27C238.065 567.592 238.055 567.958 238.033 568.366C237.99 569.505 237.808 570.547 237.485 571.493C237.184 572.417 236.744 573.222 236.164 573.91C235.605 574.576 234.907 575.092 234.069 575.457C233.252 575.801 232.285 575.973 231.168 575.973ZM229.717 572.105C230.534 572.105 231.178 571.933 231.651 571.589C232.124 571.224 232.457 570.751 232.65 570.171C232.865 569.591 232.994 568.957 233.037 568.269C233.08 567.603 233.08 566.937 233.037 566.271C232.994 565.583 232.865 564.949 232.65 564.369C232.457 563.789 232.124 563.327 231.651 562.983C231.178 562.618 230.534 562.435 229.717 562.435C228.944 562.435 228.31 562.607 227.815 562.951C227.343 563.295 226.977 563.735 226.719 564.273C226.483 564.788 226.354 565.347 226.333 565.949C226.311 566.335 226.3 566.733 226.3 567.141C226.3 567.549 226.311 567.958 226.333 568.366C226.376 569.011 226.505 569.612 226.719 570.171C226.934 570.73 227.289 571.192 227.783 571.557C228.277 571.922 228.922 572.105 229.717 572.105ZM242.29 575.651C242.054 575.651 241.86 575.575 241.71 575.425C241.559 575.275 241.484 575.081 241.484 574.845V553.571C241.484 553.335 241.559 553.142 241.71 552.991C241.86 552.841 242.054 552.765 242.29 552.765H245.513C245.728 552.765 245.911 552.841 246.061 552.991C246.212 553.142 246.287 553.335 246.287 553.571V574.845C246.287 575.081 246.212 575.275 246.061 575.425C245.911 575.575 245.728 575.651 245.513 575.651H242.29ZM257.839 575.973C255.368 575.973 253.401 575.285 251.94 573.91C250.501 572.535 249.738 570.536 249.652 567.915C249.652 567.743 249.652 567.517 249.652 567.238C249.652 566.937 249.652 566.701 249.652 566.529C249.738 564.874 250.114 563.456 250.78 562.274C251.446 561.071 252.381 560.157 253.584 559.534C254.787 558.89 256.195 558.567 257.807 558.567C259.612 558.567 261.116 558.943 262.319 559.695C263.544 560.426 264.457 561.436 265.059 562.725C265.682 563.993 265.994 565.454 265.994 567.109V567.85C265.994 568.065 265.908 568.248 265.736 568.398C265.585 568.549 265.403 568.624 265.188 568.624H254.648C254.648 568.645 254.648 568.688 254.648 568.753C254.648 568.796 254.648 568.839 254.648 568.882C254.669 569.569 254.798 570.203 255.035 570.784C255.292 571.342 255.647 571.793 256.098 572.137C256.571 572.481 257.13 572.653 257.774 572.653C258.312 572.653 258.752 572.578 259.096 572.427C259.44 572.277 259.719 572.094 259.934 571.879C260.17 571.665 260.342 571.482 260.45 571.331C260.643 571.117 260.793 570.988 260.901 570.945C261.03 570.88 261.223 570.848 261.481 570.848H264.833C265.048 570.848 265.22 570.912 265.349 571.041C265.499 571.149 265.564 571.31 265.542 571.525C265.521 571.869 265.338 572.298 264.994 572.814C264.672 573.308 264.189 573.803 263.544 574.297C262.899 574.77 262.094 575.167 261.127 575.489C260.181 575.812 259.085 575.973 257.839 575.973ZM254.648 565.691H260.965V565.626C260.965 564.853 260.836 564.187 260.579 563.628C260.342 563.048 259.988 562.596 259.515 562.274C259.042 561.952 258.473 561.791 257.807 561.791C257.14 561.791 256.571 561.952 256.098 562.274C255.626 562.596 255.26 563.048 255.002 563.628C254.766 564.187 254.648 564.853 254.648 565.626V565.691Z" fill="white"/>
<path d="M379.498 575.973C377.543 575.973 375.856 575.651 374.438 575.006C373.019 574.361 371.913 573.394 371.118 572.105C370.323 570.794 369.893 569.15 369.828 567.173C369.807 566.249 369.796 565.336 369.796 564.434C369.796 563.51 369.807 562.575 369.828 561.629C369.893 559.695 370.323 558.073 371.118 556.762C371.934 555.43 373.052 554.431 374.47 553.765C375.91 553.099 377.586 552.765 379.498 552.765C381.389 552.765 383.044 553.099 384.462 553.765C385.902 554.431 387.03 555.43 387.846 556.762C388.663 558.073 389.093 559.695 389.136 561.629C389.179 562.575 389.2 563.51 389.2 564.434C389.2 565.336 389.179 566.249 389.136 567.173C389.071 569.15 388.642 570.794 387.846 572.105C387.051 573.394 385.945 574.361 384.527 575.006C383.108 575.651 381.432 575.973 379.498 575.973ZM379.498 571.815C380.745 571.815 381.765 571.439 382.56 570.687C383.377 569.913 383.807 568.688 383.85 567.012C383.893 566.067 383.914 565.186 383.914 564.369C383.914 563.531 383.893 562.65 383.85 561.726C383.828 560.609 383.624 559.695 383.237 558.986C382.85 558.277 382.335 557.762 381.69 557.439C381.067 557.095 380.336 556.923 379.498 556.923C378.66 556.923 377.919 557.095 377.274 557.439C376.63 557.762 376.114 558.277 375.727 558.986C375.362 559.695 375.158 560.609 375.115 561.726C375.093 562.65 375.082 563.531 375.082 564.369C375.082 565.186 375.093 566.067 375.115 567.012C375.179 568.688 375.609 569.913 376.404 570.687C377.199 571.439 378.23 571.815 379.498 571.815ZM393.652 581.775C393.416 581.775 393.223 581.7 393.072 581.549C392.922 581.399 392.847 581.205 392.847 580.969V559.695C392.847 559.459 392.922 559.266 393.072 559.115C393.223 558.965 393.416 558.89 393.652 558.89H396.714C396.951 558.89 397.144 558.965 397.295 559.115C397.445 559.266 397.52 559.459 397.52 559.695V560.92C398.036 560.233 398.702 559.674 399.519 559.244C400.335 558.793 401.356 558.567 402.581 558.567C403.698 558.567 404.665 558.75 405.482 559.115C406.32 559.459 407.018 559.964 407.577 560.63C408.157 561.275 408.598 562.059 408.898 562.983C409.221 563.907 409.403 564.949 409.446 566.11C409.468 566.518 409.479 566.905 409.479 567.27C409.479 567.635 409.468 568.033 409.446 568.463C409.425 569.559 409.253 570.569 408.931 571.493C408.63 572.417 408.189 573.212 407.609 573.878C407.029 574.544 406.32 575.06 405.482 575.425C404.665 575.79 403.698 575.973 402.581 575.973C401.485 575.973 400.529 575.78 399.712 575.393C398.917 574.984 398.262 574.437 397.746 573.749V580.969C397.746 581.205 397.671 581.399 397.52 581.549C397.37 581.7 397.187 581.775 396.972 581.775H393.652ZM401.13 572.105C401.947 572.105 402.592 571.933 403.064 571.589C403.537 571.224 403.87 570.751 404.064 570.171C404.278 569.591 404.407 568.957 404.45 568.269C404.493 567.603 404.493 566.937 404.45 566.271C404.407 565.583 404.278 564.949 404.064 564.369C403.87 563.789 403.537 563.327 403.064 562.983C402.592 562.618 401.947 562.435 401.13 562.435C400.335 562.435 399.691 562.618 399.196 562.983C398.702 563.349 398.348 563.811 398.133 564.369C397.918 564.928 397.789 565.53 397.746 566.174C397.724 566.561 397.714 566.959 397.714 567.367C397.714 567.775 397.724 568.183 397.746 568.592C397.767 569.193 397.896 569.763 398.133 570.3C398.391 570.816 398.756 571.246 399.229 571.589C399.723 571.933 400.357 572.105 401.13 572.105ZM420.375 575.973C417.904 575.973 415.938 575.285 414.477 573.91C413.037 572.535 412.274 570.536 412.188 567.915C412.188 567.743 412.188 567.517 412.188 567.238C412.188 566.937 412.188 566.701 412.188 566.529C412.274 564.874 412.65 563.456 413.317 562.274C413.983 561.071 414.917 560.157 416.121 559.534C417.324 558.89 418.732 558.567 420.343 558.567C422.148 558.567 423.652 558.943 424.856 559.695C426.081 560.426 426.994 561.436 427.596 562.725C428.219 563.993 428.53 565.454 428.53 567.109V567.85C428.53 568.065 428.444 568.248 428.272 568.398C428.122 568.549 427.939 568.624 427.725 568.624H417.184C417.184 568.645 417.184 568.688 417.184 568.753C417.184 568.796 417.184 568.839 417.184 568.882C417.206 569.569 417.335 570.203 417.571 570.784C417.829 571.342 418.184 571.793 418.635 572.137C419.108 572.481 419.666 572.653 420.311 572.653C420.848 572.653 421.289 572.578 421.633 572.427C421.976 572.277 422.256 572.094 422.471 571.879C422.707 571.665 422.879 571.482 422.986 571.331C423.18 571.117 423.33 570.988 423.438 570.945C423.567 570.88 423.76 570.848 424.018 570.848H427.37C427.585 570.848 427.757 570.912 427.886 571.041C428.036 571.149 428.101 571.31 428.079 571.525C428.058 571.869 427.875 572.298 427.531 572.814C427.209 573.308 426.725 573.803 426.081 574.297C425.436 574.77 424.63 575.167 423.663 575.489C422.718 575.812 421.622 575.973 420.375 575.973ZM417.184 565.691H423.502V565.626C423.502 564.853 423.373 564.187 423.115 563.628C422.879 563.048 422.524 562.596 422.052 562.274C421.579 561.952 421.009 561.791 420.343 561.791C419.677 561.791 419.108 561.952 418.635 562.274C418.162 562.596 417.797 563.048 417.539 563.628C417.303 564.187 417.184 564.853 417.184 565.626V565.691ZM432.526 575.651C432.311 575.651 432.128 575.575 431.978 575.425C431.828 575.275 431.752 575.081 431.752 574.845V559.695C431.752 559.481 431.828 559.298 431.978 559.148C432.128 558.976 432.311 558.89 432.526 558.89H435.685C435.9 558.89 436.082 558.976 436.233 559.148C436.405 559.298 436.491 559.481 436.491 559.695V560.985C437.028 560.319 437.683 559.803 438.457 559.438C439.252 559.072 440.165 558.89 441.197 558.89H442.583C442.797 558.89 442.98 558.965 443.13 559.115C443.281 559.266 443.356 559.459 443.356 559.695V562.467C443.356 562.704 443.281 562.897 443.13 563.048C442.98 563.198 442.797 563.273 442.583 563.273H439.746C438.801 563.273 438.059 563.542 437.522 564.079C436.985 564.595 436.716 565.336 436.716 566.303V574.845C436.716 575.081 436.641 575.275 436.491 575.425C436.34 575.575 436.147 575.651 435.91 575.651H432.526ZM450.408 575.973C449.269 575.973 448.248 575.758 447.346 575.328C446.443 574.877 445.724 574.275 445.186 573.523C444.649 572.771 444.38 571.933 444.38 571.009C444.38 569.483 444.993 568.28 446.218 567.399C447.464 566.518 449.097 565.916 451.117 565.594L455.34 564.982V564.401C455.34 563.563 455.146 562.919 454.759 562.467C454.373 562.016 453.696 561.791 452.729 561.791C452.02 561.791 451.45 561.93 451.02 562.21C450.591 562.489 450.258 562.854 450.021 563.306C449.849 563.585 449.602 563.725 449.28 563.725H446.218C445.981 563.725 445.799 563.66 445.67 563.531C445.541 563.381 445.487 563.209 445.509 563.015C445.509 562.65 445.648 562.22 445.928 561.726C446.207 561.232 446.637 560.748 447.217 560.276C447.797 559.781 448.539 559.373 449.441 559.051C450.344 558.729 451.45 558.567 452.761 558.567C454.115 558.567 455.275 558.729 456.242 559.051C457.209 559.373 457.983 559.824 458.563 560.405C459.143 560.985 459.573 561.662 459.852 562.435C460.132 563.187 460.271 564.004 460.271 564.885V574.845C460.271 575.081 460.196 575.275 460.046 575.425C459.895 575.575 459.702 575.651 459.465 575.651H456.307C456.092 575.651 455.909 575.575 455.759 575.425C455.608 575.275 455.533 575.081 455.533 574.845V573.652C455.254 574.06 454.878 574.447 454.405 574.813C453.932 575.156 453.363 575.436 452.697 575.651C452.052 575.866 451.289 575.973 450.408 575.973ZM451.697 572.621C452.406 572.621 453.04 572.47 453.599 572.17C454.158 571.869 454.598 571.407 454.921 570.784C455.243 570.16 455.404 569.376 455.404 568.431V567.883L452.406 568.366C451.246 568.559 450.397 568.85 449.86 569.236C449.323 569.623 449.054 570.096 449.054 570.655C449.054 571.063 449.172 571.417 449.409 571.718C449.667 572.019 450 572.245 450.408 572.395C450.816 572.546 451.246 572.621 451.697 572.621ZM473.908 575.973C472.683 575.973 471.663 575.769 470.846 575.361C470.029 574.931 469.363 574.394 468.848 573.749V574.845C468.848 575.081 468.772 575.275 468.622 575.425C468.472 575.575 468.278 575.651 468.042 575.651H464.98C464.743 575.651 464.55 575.575 464.399 575.425C464.249 575.275 464.174 575.081 464.174 574.845V553.571C464.174 553.335 464.249 553.142 464.399 552.991C464.55 552.841 464.743 552.765 464.98 552.765H468.3C468.515 552.765 468.697 552.841 468.848 552.991C468.998 553.142 469.073 553.335 469.073 553.571V560.598C469.61 559.996 470.277 559.513 471.072 559.148C471.867 558.761 472.812 558.567 473.908 558.567C475.025 558.567 475.992 558.761 476.809 559.148C477.647 559.513 478.356 560.039 478.936 560.727C479.517 561.393 479.957 562.188 480.258 563.112C480.58 564.036 480.752 565.057 480.774 566.174C480.795 566.561 480.806 566.926 480.806 567.27C480.806 567.592 480.795 567.958 480.774 568.366C480.731 569.505 480.548 570.547 480.226 571.493C479.925 572.417 479.484 573.222 478.904 573.91C478.345 574.576 477.647 575.092 476.809 575.457C475.992 575.801 475.025 575.973 473.908 575.973ZM472.458 572.105C473.274 572.105 473.919 571.933 474.392 571.589C474.864 571.224 475.197 570.751 475.391 570.171C475.606 569.591 475.735 568.957 475.778 568.269C475.821 567.603 475.821 566.937 475.778 566.271C475.735 565.583 475.606 564.949 475.391 564.369C475.197 563.789 474.864 563.327 474.392 562.983C473.919 562.618 473.274 562.435 472.458 562.435C471.684 562.435 471.05 562.607 470.556 562.951C470.083 563.295 469.718 563.735 469.46 564.273C469.224 564.788 469.095 565.347 469.073 565.949C469.052 566.335 469.041 566.733 469.041 567.141C469.041 567.549 469.052 567.958 469.073 568.366C469.116 569.011 469.245 569.612 469.46 570.171C469.675 570.73 470.029 571.192 470.524 571.557C471.018 571.922 471.663 572.105 472.458 572.105ZM485.031 575.651C484.794 575.651 484.601 575.575 484.45 575.425C484.3 575.275 484.225 575.081 484.225 574.845V553.571C484.225 553.335 484.3 553.142 484.45 552.991C484.601 552.841 484.794 552.765 485.031 552.765H488.254C488.469 552.765 488.651 552.841 488.802 552.991C488.952 553.142 489.027 553.335 489.027 553.571V574.845C489.027 575.081 488.952 575.275 488.802 575.425C488.651 575.575 488.469 575.651 488.254 575.651H485.031ZM500.579 575.973C498.108 575.973 496.142 575.285 494.681 573.91C493.241 572.535 492.478 570.536 492.392 567.915C492.392 567.743 492.392 567.517 492.392 567.238C492.392 566.937 492.392 566.701 492.392 566.529C492.478 564.874 492.854 563.456 493.52 562.274C494.187 561.071 495.121 560.157 496.325 559.534C497.528 558.89 498.935 558.567 500.547 558.567C502.352 558.567 503.856 558.943 505.06 559.695C506.285 560.426 507.198 561.436 507.799 562.725C508.423 563.993 508.734 565.454 508.734 567.109V567.85C508.734 568.065 508.648 568.248 508.476 568.398C508.326 568.549 508.143 568.624 507.928 568.624H497.388C497.388 568.645 497.388 568.688 497.388 568.753C497.388 568.796 497.388 568.839 497.388 568.882C497.41 569.569 497.539 570.203 497.775 570.784C498.033 571.342 498.388 571.793 498.839 572.137C499.312 572.481 499.87 572.653 500.515 572.653C501.052 572.653 501.493 572.578 501.836 572.427C502.18 572.277 502.46 572.094 502.674 571.879C502.911 571.665 503.083 571.482 503.19 571.331C503.384 571.117 503.534 570.988 503.641 570.945C503.77 570.88 503.964 570.848 504.222 570.848H507.574C507.789 570.848 507.961 570.912 508.09 571.041C508.24 571.149 508.304 571.31 508.283 571.525C508.261 571.869 508.079 572.298 507.735 572.814C507.413 573.308 506.929 573.803 506.285 574.297C505.64 574.77 504.834 575.167 503.867 575.489C502.922 575.812 501.826 575.973 500.579 575.973ZM497.388 565.691H503.706V565.626C503.706 564.853 503.577 564.187 503.319 563.628C503.083 563.048 502.728 562.596 502.255 562.274C501.783 561.952 501.213 561.791 500.547 561.791C499.881 561.791 499.312 561.952 498.839 562.274C498.366 562.596 498.001 563.048 497.743 563.628C497.506 564.187 497.388 564.853 497.388 565.626V565.691Z" fill="white"/>
<path d="M593.713 575.973C591.822 575.973 590.167 575.661 588.749 575.038C587.331 574.394 586.235 573.416 585.461 572.105C584.688 570.773 584.301 569.086 584.301 567.045V553.894C584.301 553.657 584.376 553.464 584.527 553.313C584.677 553.163 584.87 553.088 585.107 553.088H588.62C588.857 553.088 589.05 553.163 589.2 553.313C589.351 553.464 589.426 553.657 589.426 553.894V567.012C589.426 568.602 589.802 569.784 590.554 570.558C591.306 571.331 592.359 571.718 593.713 571.718C595.045 571.718 596.087 571.331 596.84 570.558C597.592 569.784 597.968 568.602 597.968 567.012V553.894C597.968 553.657 598.043 553.464 598.193 553.313C598.365 553.163 598.559 553.088 598.773 553.088H602.319C602.534 553.088 602.717 553.163 602.867 553.313C603.017 553.464 603.093 553.657 603.093 553.894V567.045C603.093 569.086 602.706 570.773 601.932 572.105C601.159 573.416 600.074 574.394 598.677 575.038C597.28 575.661 595.625 575.973 593.713 575.973ZM608.081 575.651C607.866 575.651 607.683 575.575 607.533 575.425C607.382 575.275 607.307 575.081 607.307 574.845V559.695C607.307 559.459 607.382 559.266 607.533 559.115C607.683 558.965 607.866 558.89 608.081 558.89H611.239C611.476 558.89 611.669 558.965 611.82 559.115C611.97 559.266 612.045 559.459 612.045 559.695V560.953C612.604 560.265 613.324 559.695 614.205 559.244C615.086 558.793 616.16 558.567 617.428 558.567C618.696 558.567 619.803 558.857 620.748 559.438C621.715 559.996 622.467 560.824 623.004 561.92C623.563 562.994 623.842 564.305 623.842 565.852V574.845C623.842 575.081 623.756 575.275 623.585 575.425C623.434 575.575 623.251 575.651 623.037 575.651H619.62C619.384 575.651 619.19 575.575 619.04 575.425C618.889 575.275 618.814 575.081 618.814 574.845V566.045C618.814 564.906 618.535 564.025 617.976 563.402C617.439 562.758 616.644 562.435 615.591 562.435C614.581 562.435 613.775 562.758 613.173 563.402C612.572 564.025 612.271 564.906 612.271 566.045V574.845C612.271 575.081 612.196 575.275 612.045 575.425C611.895 575.575 611.712 575.651 611.497 575.651H608.081ZM633.925 575.973C632.851 575.973 631.895 575.801 631.056 575.457C630.218 575.092 629.509 574.576 628.929 573.91C628.349 573.222 627.908 572.417 627.608 571.493C627.307 570.547 627.124 569.505 627.06 568.366C627.038 567.958 627.027 567.592 627.027 567.27C627.027 566.926 627.038 566.561 627.06 566.174C627.103 565.057 627.275 564.036 627.575 563.112C627.898 562.188 628.338 561.393 628.897 560.727C629.477 560.039 630.186 559.513 631.024 559.148C631.884 558.761 632.851 558.567 633.925 558.567C635.043 558.567 635.999 558.761 636.794 559.148C637.589 559.513 638.244 559.996 638.76 560.598V553.571C638.76 553.335 638.835 553.142 638.986 552.991C639.136 552.841 639.33 552.765 639.566 552.765H642.886C643.101 552.765 643.283 552.841 643.434 552.991C643.584 553.142 643.659 553.335 643.659 553.571V574.845C643.659 575.081 643.584 575.275 643.434 575.425C643.283 575.575 643.101 575.651 642.886 575.651H639.792C639.577 575.651 639.394 575.575 639.244 575.425C639.093 575.275 639.018 575.081 639.018 574.845V573.749C638.481 574.394 637.804 574.931 636.987 575.361C636.171 575.769 635.15 575.973 633.925 575.973ZM635.408 572.105C636.203 572.105 636.837 571.922 637.31 571.557C637.804 571.192 638.158 570.73 638.373 570.171C638.61 569.612 638.739 569.011 638.76 568.366C638.803 567.958 638.825 567.549 638.825 567.141C638.825 566.733 638.803 566.335 638.76 565.949C638.739 565.347 638.61 564.788 638.373 564.273C638.137 563.735 637.772 563.295 637.277 562.951C636.805 562.607 636.181 562.435 635.408 562.435C634.591 562.435 633.947 562.618 633.474 562.983C633.001 563.327 632.657 563.789 632.442 564.369C632.249 564.949 632.131 565.583 632.088 566.271C632.023 566.937 632.023 567.603 632.088 568.269C632.131 568.957 632.249 569.591 632.442 570.171C632.657 570.751 633.001 571.224 633.474 571.589C633.947 571.933 634.591 572.105 635.408 572.105ZM655.233 575.973C652.762 575.973 650.796 575.285 649.335 573.91C647.895 572.535 647.132 570.536 647.046 567.915C647.046 567.743 647.046 567.517 647.046 567.238C647.046 566.937 647.046 566.701 647.046 566.529C647.132 564.874 647.508 563.456 648.174 562.274C648.84 561.071 649.775 560.157 650.979 559.534C652.182 558.89 653.589 558.567 655.201 558.567C657.006 558.567 658.51 558.943 659.714 559.695C660.938 560.426 661.852 561.436 662.453 562.725C663.076 563.993 663.388 565.454 663.388 567.109V567.85C663.388 568.065 663.302 568.248 663.13 568.398C662.98 568.549 662.797 568.624 662.582 568.624H652.042C652.042 568.645 652.042 568.688 652.042 568.753C652.042 568.796 652.042 568.839 652.042 568.882C652.064 569.569 652.193 570.203 652.429 570.784C652.687 571.342 653.041 571.793 653.493 572.137C653.965 572.481 654.524 572.653 655.169 572.653C655.706 572.653 656.146 572.578 656.49 572.427C656.834 572.277 657.113 572.094 657.328 571.879C657.565 571.665 657.737 571.482 657.844 571.331C658.037 571.117 658.188 570.988 658.295 570.945C658.424 570.88 658.618 570.848 658.876 570.848H662.228C662.443 570.848 662.614 570.912 662.743 571.041C662.894 571.149 662.958 571.31 662.937 571.525C662.915 571.869 662.733 572.298 662.389 572.814C662.067 573.308 661.583 573.803 660.938 574.297C660.294 574.77 659.488 575.167 658.521 575.489C657.575 575.812 656.48 575.973 655.233 575.973ZM652.042 565.691H658.36V565.626C658.36 564.853 658.231 564.187 657.973 563.628C657.737 563.048 657.382 562.596 656.909 562.274C656.437 561.952 655.867 561.791 655.201 561.791C654.535 561.791 653.965 561.952 653.493 562.274C653.02 562.596 652.655 563.048 652.397 563.628C652.16 564.187 652.042 564.853 652.042 565.626V565.691ZM667.384 575.651C667.169 575.651 666.986 575.575 666.836 575.425C666.685 575.275 666.61 575.081 666.61 574.845V559.695C666.61 559.481 666.685 559.298 666.836 559.148C666.986 558.976 667.169 558.89 667.384 558.89H670.542C670.757 558.89 670.94 558.976 671.09 559.148C671.262 559.298 671.348 559.481 671.348 559.695V560.985C671.885 560.319 672.541 559.803 673.314 559.438C674.11 559.072 675.023 558.89 676.054 558.89H677.44C677.655 558.89 677.838 558.965 677.988 559.115C678.139 559.266 678.214 559.459 678.214 559.695V562.467C678.214 562.704 678.139 562.897 677.988 563.048C677.838 563.198 677.655 563.273 677.44 563.273H674.604C673.658 563.273 672.917 563.542 672.38 564.079C671.843 564.595 671.574 565.336 671.574 566.303V574.845C671.574 575.081 671.499 575.275 671.348 575.425C671.198 575.575 671.004 575.651 670.768 575.651H667.384ZM687.225 575.973C685.893 575.973 684.743 575.823 683.776 575.522C682.831 575.199 682.057 574.813 681.455 574.361C680.875 573.91 680.435 573.459 680.134 573.008C679.855 572.535 679.704 572.137 679.683 571.815C679.661 571.579 679.736 571.385 679.908 571.235C680.08 571.084 680.252 571.009 680.424 571.009H683.551C683.615 571.009 683.68 571.02 683.744 571.041C683.808 571.063 683.873 571.117 683.937 571.203C684.217 571.396 684.507 571.622 684.808 571.879C685.108 572.116 685.452 572.32 685.839 572.492C686.247 572.664 686.752 572.75 687.354 572.75C688.063 572.75 688.665 572.61 689.159 572.331C689.653 572.03 689.9 571.611 689.9 571.074C689.9 570.687 689.782 570.364 689.546 570.107C689.331 569.849 688.912 569.612 688.289 569.398C687.666 569.183 686.742 568.946 685.517 568.688C684.356 568.431 683.368 568.087 682.551 567.657C681.735 567.227 681.122 566.69 680.714 566.045C680.306 565.379 680.102 564.584 680.102 563.66C680.102 562.822 680.36 562.016 680.875 561.243C681.412 560.469 682.197 559.835 683.228 559.341C684.26 558.825 685.549 558.567 687.096 558.567C688.278 558.567 689.309 558.718 690.191 559.019C691.093 559.298 691.845 559.663 692.447 560.115C693.048 560.544 693.5 560.996 693.801 561.468C694.123 561.92 694.295 562.317 694.316 562.661C694.338 562.876 694.273 563.058 694.123 563.209C693.972 563.359 693.801 563.434 693.607 563.434H690.738C690.631 563.434 690.534 563.424 690.448 563.402C690.362 563.359 690.287 563.306 690.223 563.241C689.965 563.069 689.696 562.876 689.417 562.661C689.159 562.425 688.847 562.22 688.482 562.048C688.117 561.877 687.644 561.791 687.064 561.791C686.355 561.791 685.807 561.952 685.42 562.274C685.055 562.575 684.872 562.962 684.872 563.434C684.872 563.735 684.969 564.015 685.162 564.273C685.356 564.53 685.753 564.767 686.355 564.982C686.957 565.197 687.87 565.422 689.095 565.659C690.556 565.916 691.716 566.303 692.576 566.819C693.435 567.335 694.048 567.936 694.413 568.624C694.8 569.29 694.993 570.01 694.993 570.784C694.993 571.793 694.692 572.696 694.091 573.491C693.489 574.265 692.608 574.877 691.448 575.328C690.309 575.758 688.901 575.973 687.225 575.973ZM706.082 575.651C704.75 575.651 703.611 575.436 702.666 575.006C701.72 574.555 701 573.867 700.506 572.943C700.033 572.019 699.797 570.859 699.797 569.462V562.693H697.283C697.047 562.693 696.853 562.618 696.703 562.467C696.552 562.317 696.477 562.124 696.477 561.887V559.695C696.477 559.459 696.552 559.266 696.703 559.115C696.853 558.965 697.047 558.89 697.283 558.89H699.797V553.571C699.797 553.335 699.872 553.142 700.023 552.991C700.195 552.841 700.388 552.765 700.603 552.765H703.762C703.998 552.765 704.191 552.841 704.342 552.991C704.492 553.142 704.568 553.335 704.568 553.571V558.89H708.597C708.811 558.89 708.994 558.965 709.145 559.115C709.295 559.266 709.37 559.459 709.37 559.695V561.887C709.37 562.124 709.295 562.317 709.145 562.467C708.994 562.618 708.811 562.693 708.597 562.693H704.568V569.075C704.568 569.892 704.707 570.536 704.987 571.009C705.287 571.46 705.803 571.686 706.534 571.686H708.887C709.102 571.686 709.284 571.761 709.435 571.912C709.585 572.062 709.66 572.245 709.66 572.46V574.845C709.66 575.081 709.585 575.275 709.435 575.425C709.284 575.575 709.102 575.651 708.887 575.651H706.082ZM717.404 575.973C716.265 575.973 715.244 575.758 714.342 575.328C713.439 574.877 712.719 574.275 712.182 573.523C711.645 572.771 711.376 571.933 711.376 571.009C711.376 569.483 711.989 568.28 713.214 567.399C714.46 566.518 716.093 565.916 718.113 565.594L722.336 564.982V564.401C722.336 563.563 722.142 562.919 721.755 562.467C721.369 562.016 720.692 561.791 719.725 561.791C719.016 561.791 718.446 561.93 718.016 562.21C717.587 562.489 717.253 562.854 717.017 563.306C716.845 563.585 716.598 563.725 716.276 563.725H713.214C712.977 563.725 712.795 563.66 712.666 563.531C712.537 563.381 712.483 563.209 712.505 563.015C712.505 562.65 712.644 562.22 712.924 561.726C713.203 561.232 713.633 560.748 714.213 560.276C714.793 559.781 715.534 559.373 716.437 559.051C717.339 558.729 718.446 558.567 719.757 558.567C721.111 558.567 722.271 558.729 723.238 559.051C724.205 559.373 724.979 559.824 725.559 560.405C726.139 560.985 726.569 561.662 726.848 562.435C727.127 563.187 727.267 564.004 727.267 564.885V574.845C727.267 575.081 727.192 575.275 727.041 575.425C726.891 575.575 726.698 575.651 726.461 575.651H723.302C723.088 575.651 722.905 575.575 722.755 575.425C722.604 575.275 722.529 575.081 722.529 574.845V573.652C722.25 574.06 721.874 574.447 721.401 574.813C720.928 575.156 720.359 575.436 719.692 575.651C719.048 575.866 718.285 575.973 717.404 575.973ZM718.693 572.621C719.402 572.621 720.036 572.47 720.595 572.17C721.154 571.869 721.594 571.407 721.916 570.784C722.239 570.16 722.4 569.376 722.4 568.431V567.883L719.402 568.366C718.242 568.559 717.393 568.85 716.856 569.236C716.319 569.623 716.05 570.096 716.05 570.655C716.05 571.063 716.168 571.417 716.405 571.718C716.663 572.019 716.996 572.245 717.404 572.395C717.812 572.546 718.242 572.621 718.693 572.621ZM731.943 575.651C731.728 575.651 731.546 575.575 731.395 575.425C731.245 575.275 731.17 575.081 731.17 574.845V559.695C731.17 559.459 731.245 559.266 731.395 559.115C731.546 558.965 731.728 558.89 731.943 558.89H735.102C735.339 558.89 735.532 558.965 735.682 559.115C735.833 559.266 735.908 559.459 735.908 559.695V560.953C736.467 560.265 737.187 559.695 738.068 559.244C738.949 558.793 740.023 558.567 741.291 558.567C742.559 558.567 743.665 558.857 744.611 559.438C745.578 559.996 746.33 560.824 746.867 561.92C747.426 562.994 747.705 564.305 747.705 565.852V574.845C747.705 575.081 747.619 575.275 747.447 575.425C747.297 575.575 747.114 575.651 746.899 575.651H743.483C743.246 575.651 743.053 575.575 742.902 575.425C742.752 575.275 742.677 575.081 742.677 574.845V566.045C742.677 564.906 742.397 564.025 741.839 563.402C741.302 562.758 740.506 562.435 739.454 562.435C738.444 562.435 737.638 562.758 737.036 563.402C736.434 564.025 736.134 564.906 736.134 566.045V574.845C736.134 575.081 736.058 575.275 735.908 575.425C735.758 575.575 735.575 575.651 735.36 575.651H731.943ZM757.788 575.973C756.713 575.973 755.757 575.801 754.919 575.457C754.081 575.092 753.372 574.576 752.792 573.91C752.212 573.222 751.771 572.417 751.47 571.493C751.169 570.547 750.987 569.505 750.922 568.366C750.901 567.958 750.89 567.592 750.89 567.27C750.89 566.926 750.901 566.561 750.922 566.174C750.965 565.057 751.137 564.036 751.438 563.112C751.76 562.188 752.201 561.393 752.76 560.727C753.34 560.039 754.049 559.513 754.887 559.148C755.746 558.761 756.713 558.567 757.788 558.567C758.905 558.567 759.862 558.761 760.657 559.148C761.452 559.513 762.107 559.996 762.623 560.598V553.571C762.623 553.335 762.698 553.142 762.848 552.991C762.999 552.841 763.192 552.765 763.429 552.765H766.749C766.963 552.765 767.146 552.841 767.297 552.991C767.447 553.142 767.522 553.335 767.522 553.571V574.845C767.522 575.081 767.447 575.275 767.297 575.425C767.146 575.575 766.963 575.651 766.749 575.651H763.654C763.439 575.651 763.257 575.575 763.106 575.425C762.956 575.275 762.881 575.081 762.881 574.845V573.749C762.343 574.394 761.667 574.931 760.85 575.361C760.033 575.769 759.013 575.973 757.788 575.973ZM759.271 572.105C760.066 572.105 760.7 571.922 761.172 571.557C761.667 571.192 762.021 570.73 762.236 570.171C762.472 569.612 762.601 569.011 762.623 568.366C762.666 567.958 762.687 567.549 762.687 567.141C762.687 566.733 762.666 566.335 762.623 565.949C762.601 565.347 762.472 564.788 762.236 564.273C762 563.735 761.634 563.295 761.14 562.951C760.667 562.607 760.044 562.435 759.271 562.435C758.454 562.435 757.809 562.618 757.337 562.983C756.864 563.327 756.52 563.789 756.305 564.369C756.112 564.949 755.994 565.583 755.951 566.271C755.886 566.937 755.886 567.603 755.951 568.269C755.994 568.957 756.112 569.591 756.305 570.171C756.52 570.751 756.864 571.224 757.337 571.589C757.809 571.933 758.454 572.105 759.271 572.105ZM776.55 575.973C775.411 575.973 774.39 575.758 773.487 575.328C772.585 574.877 771.865 574.275 771.328 573.523C770.791 572.771 770.522 571.933 770.522 571.009C770.522 569.483 771.134 568.28 772.359 567.399C773.606 566.518 775.239 565.916 777.259 565.594L781.481 564.982V564.401C781.481 563.563 781.288 562.919 780.901 562.467C780.514 562.016 779.837 561.791 778.87 561.791C778.161 561.791 777.592 561.93 777.162 562.21C776.732 562.489 776.399 562.854 776.163 563.306C775.991 563.585 775.744 563.725 775.421 563.725H772.359C772.123 563.725 771.94 563.66 771.811 563.531C771.682 563.381 771.629 563.209 771.65 563.015C771.65 562.65 771.79 562.22 772.069 561.726C772.349 561.232 772.778 560.748 773.358 560.276C773.939 559.781 774.68 559.373 775.583 559.051C776.485 558.729 777.592 558.567 778.903 558.567C780.256 558.567 781.417 558.729 782.384 559.051C783.351 559.373 784.124 559.824 784.704 560.405C785.285 560.985 785.714 561.662 785.994 562.435C786.273 563.187 786.413 564.004 786.413 564.885V574.845C786.413 575.081 786.338 575.275 786.187 575.425C786.037 575.575 785.843 575.651 785.607 575.651H782.448C782.233 575.651 782.051 575.575 781.9 575.425C781.75 575.275 781.675 575.081 781.675 574.845V573.652C781.395 574.06 781.019 574.447 780.546 574.813C780.074 575.156 779.504 575.436 778.838 575.651C778.193 575.866 777.431 575.973 776.55 575.973ZM777.839 572.621C778.548 572.621 779.182 572.47 779.741 572.17C780.299 571.869 780.74 571.407 781.062 570.784C781.384 570.16 781.546 569.376 781.546 568.431V567.883L778.548 568.366C777.388 568.559 776.539 568.85 776.002 569.236C775.464 569.623 775.196 570.096 775.196 570.655C775.196 571.063 775.314 571.417 775.55 571.718C775.808 572.019 776.141 572.245 776.55 572.395C776.958 572.546 777.388 572.621 777.839 572.621ZM800.05 575.973C798.825 575.973 797.804 575.769 796.988 575.361C796.171 574.931 795.505 574.394 794.989 573.749V574.845C794.989 575.081 794.914 575.275 794.763 575.425C794.613 575.575 794.42 575.651 794.183 575.651H791.121C790.885 575.651 790.691 575.575 790.541 575.425C790.391 575.275 790.315 575.081 790.315 574.845V553.571C790.315 553.335 790.391 553.142 790.541 552.991C790.691 552.841 790.885 552.765 791.121 552.765H794.441C794.656 552.765 794.839 552.841 794.989 552.991C795.14 553.142 795.215 553.335 795.215 553.571V560.598C795.752 559.996 796.418 559.513 797.213 559.148C798.008 558.761 798.954 558.567 800.05 558.567C801.167 558.567 802.134 558.761 802.951 559.148C803.789 559.513 804.498 560.039 805.078 560.727C805.658 561.393 806.099 562.188 806.399 563.112C806.722 564.036 806.894 565.057 806.915 566.174C806.937 566.561 806.947 566.926 806.947 567.27C806.947 567.592 806.937 567.958 806.915 568.366C806.872 569.505 806.69 570.547 806.367 571.493C806.066 572.417 805.626 573.222 805.046 573.91C804.487 574.576 803.789 575.092 802.951 575.457C802.134 575.801 801.167 575.973 800.05 575.973ZM798.599 572.105C799.416 572.105 800.06 571.933 800.533 571.589C801.006 571.224 801.339 570.751 801.532 570.171C801.747 569.591 801.876 568.957 801.919 568.269C801.962 567.603 801.962 566.937 801.919 566.271C801.876 565.583 801.747 564.949 801.532 564.369C801.339 563.789 801.006 563.327 800.533 562.983C800.06 562.618 799.416 562.435 798.599 562.435C797.826 562.435 797.192 562.607 796.697 562.951C796.225 563.295 795.859 563.735 795.602 564.273C795.365 564.788 795.236 565.347 795.215 565.949C795.193 566.335 795.183 566.733 795.183 567.141C795.183 567.549 795.193 567.958 795.215 568.366C795.258 569.011 795.387 569.612 795.602 570.171C795.816 570.73 796.171 571.192 796.665 571.557C797.159 571.922 797.804 572.105 798.599 572.105ZM811.172 575.651C810.936 575.651 810.742 575.575 810.592 575.425C810.442 575.275 810.366 575.081 810.366 574.845V553.571C810.366 553.335 810.442 553.142 810.592 552.991C810.742 552.841 810.936 552.765 811.172 552.765H814.395C814.61 552.765 814.793 552.841 814.943 552.991C815.094 553.142 815.169 553.335 815.169 553.571V574.845C815.169 575.081 815.094 575.275 814.943 575.425C814.793 575.575 814.61 575.651 814.395 575.651H811.172ZM826.721 575.973C824.25 575.973 822.284 575.285 820.822 573.91C819.383 572.535 818.62 570.536 818.534 567.915C818.534 567.743 818.534 567.517 818.534 567.238C818.534 566.937 818.534 566.701 818.534 566.529C818.62 564.874 818.996 563.456 819.662 562.274C820.328 561.071 821.263 560.157 822.466 559.534C823.67 558.89 825.077 558.567 826.689 558.567C828.494 558.567 829.998 558.943 831.201 559.695C832.426 560.426 833.339 561.436 833.941 562.725C834.564 563.993 834.876 565.454 834.876 567.109V567.85C834.876 568.065 834.79 568.248 834.618 568.398C834.467 568.549 834.285 568.624 834.07 568.624H823.53C823.53 568.645 823.53 568.688 823.53 568.753C823.53 568.796 823.53 568.839 823.53 568.882C823.551 569.569 823.68 570.203 823.917 570.784C824.175 571.342 824.529 571.793 824.98 572.137C825.453 572.481 826.012 572.653 826.656 572.653C827.194 572.653 827.634 572.578 827.978 572.427C828.322 572.277 828.601 572.094 828.816 571.879C829.052 571.665 829.224 571.482 829.332 571.331C829.525 571.117 829.676 570.988 829.783 570.945C829.912 570.88 830.105 570.848 830.363 570.848H833.715C833.93 570.848 834.102 570.912 834.231 571.041C834.382 571.149 834.446 571.31 834.424 571.525C834.403 571.869 834.22 572.298 833.877 572.814C833.554 573.308 833.071 573.803 832.426 574.297C831.781 574.77 830.976 575.167 830.009 575.489C829.063 575.812 827.967 575.973 826.721 575.973ZM823.53 565.691H829.847V565.626C829.847 564.853 829.719 564.187 829.461 563.628C829.224 563.048 828.87 562.596 828.397 562.274C827.924 561.952 827.355 561.791 826.689 561.791C826.023 561.791 825.453 561.952 824.98 562.274C824.508 562.596 824.142 563.048 823.884 563.628C823.648 564.187 823.53 564.853 823.53 565.626V565.691Z" fill="white"/>
<path d="M924.868 575.651C924.632 575.651 924.438 575.575 924.288 575.425C924.137 575.275 924.062 575.081 924.062 574.845V553.894C924.062 553.657 924.137 553.464 924.288 553.313C924.438 553.163 924.632 553.088 924.868 553.088H933.41C936.096 553.088 938.212 553.711 939.76 554.957C941.307 556.182 942.08 557.955 942.08 560.276C942.08 561.844 941.704 563.155 940.952 564.208C940.2 565.261 939.19 566.045 937.922 566.561L942.467 574.619C942.532 574.748 942.564 574.866 942.564 574.974C942.564 575.146 942.499 575.307 942.37 575.457C942.241 575.586 942.08 575.651 941.887 575.651H938.309C937.922 575.651 937.632 575.554 937.439 575.361C937.245 575.146 937.106 574.952 937.02 574.78L933.087 567.399H929.187V574.845C929.187 575.081 929.112 575.275 928.962 575.425C928.811 575.575 928.618 575.651 928.381 575.651H924.868ZM929.187 563.306H933.313C934.495 563.306 935.365 563.037 935.924 562.5C936.504 561.963 936.794 561.21 936.794 560.243C936.794 559.276 936.515 558.514 935.956 557.955C935.397 557.396 934.516 557.117 933.313 557.117H929.187V563.306ZM953.13 575.973C951.346 575.973 949.853 575.683 948.649 575.103C947.446 574.501 946.522 573.652 945.877 572.556C945.254 571.46 944.91 570.182 944.846 568.721C944.825 568.291 944.814 567.807 944.814 567.27C944.814 566.711 944.825 566.228 944.846 565.82C944.91 564.337 945.276 563.058 945.942 561.984C946.608 560.888 947.543 560.05 948.746 559.47C949.95 558.868 951.411 558.567 953.13 558.567C954.827 558.567 956.278 558.868 957.481 559.47C958.685 560.05 959.619 560.888 960.285 561.984C960.952 563.058 961.317 564.337 961.381 565.82C961.424 566.228 961.446 566.711 961.446 567.27C961.446 567.807 961.424 568.291 961.381 568.721C961.317 570.182 960.962 571.46 960.318 572.556C959.695 573.652 958.781 574.501 957.578 575.103C956.375 575.683 954.892 575.973 953.13 575.973ZM953.13 572.427C954.183 572.427 954.978 572.105 955.515 571.46C956.052 570.794 956.342 569.827 956.385 568.559C956.407 568.237 956.418 567.807 956.418 567.27C956.418 566.733 956.407 566.303 956.385 565.981C956.342 564.735 956.052 563.778 955.515 563.112C954.978 562.446 954.183 562.113 953.13 562.113C952.077 562.113 951.271 562.446 950.712 563.112C950.175 563.778 949.885 564.735 949.842 565.981C949.821 566.303 949.81 566.733 949.81 567.27C949.81 567.807 949.821 568.237 949.842 568.559C949.885 569.827 950.175 570.794 950.712 571.46C951.271 572.105 952.077 572.427 953.13 572.427ZM974.551 575.973C973.326 575.973 972.306 575.769 971.489 575.361C970.672 574.931 970.006 574.394 969.491 573.749V574.845C969.491 575.081 969.415 575.275 969.265 575.425C969.115 575.575 968.921 575.651 968.685 575.651H965.623C965.386 575.651 965.193 575.575 965.043 575.425C964.892 575.275 964.817 575.081 964.817 574.845V553.571C964.817 553.335 964.892 553.142 965.043 552.991C965.193 552.841 965.386 552.765 965.623 552.765H968.943C969.158 552.765 969.34 552.841 969.491 552.991C969.641 553.142 969.716 553.335 969.716 553.571V560.598C970.253 559.996 970.92 559.513 971.715 559.148C972.51 558.761 973.455 558.567 974.551 558.567C975.669 558.567 976.636 558.761 977.452 559.148C978.29 559.513 978.999 560.039 979.579 560.727C980.16 561.393 980.6 562.188 980.901 563.112C981.223 564.036 981.395 565.057 981.417 566.174C981.438 566.561 981.449 566.926 981.449 567.27C981.449 567.592 981.438 567.958 981.417 568.366C981.374 569.505 981.191 570.547 980.869 571.493C980.568 572.417 980.127 573.222 979.547 573.91C978.988 574.576 978.29 575.092 977.452 575.457C976.636 575.801 975.669 575.973 974.551 575.973ZM973.101 572.105C973.917 572.105 974.562 571.933 975.035 571.589C975.507 571.224 975.84 570.751 976.034 570.171C976.249 569.591 976.378 568.957 976.421 568.269C976.464 567.603 976.464 566.937 976.421 566.271C976.378 565.583 976.249 564.949 976.034 564.369C975.84 563.789 975.507 563.327 975.035 562.983C974.562 562.618 973.917 562.435 973.101 562.435C972.327 562.435 971.693 562.607 971.199 562.951C970.726 563.295 970.361 563.735 970.103 564.273C969.867 564.788 969.738 565.347 969.716 565.949C969.695 566.335 969.684 566.733 969.684 567.141C969.684 567.549 969.695 567.958 969.716 568.366C969.759 569.011 969.888 569.612 970.103 570.171C970.318 570.73 970.672 571.192 971.167 571.557C971.661 571.922 972.306 572.105 973.101 572.105ZM991.024 575.973C989.778 575.973 988.671 575.694 987.704 575.135C986.759 574.555 986.017 573.727 985.48 572.653C984.965 571.557 984.707 570.236 984.707 568.688V559.695C984.707 559.459 984.782 559.266 984.932 559.115C985.083 558.965 985.265 558.89 985.48 558.89H988.897C989.133 558.89 989.327 558.965 989.477 559.115C989.628 559.266 989.703 559.459 989.703 559.695V568.495C989.703 570.902 990.756 572.105 992.862 572.105C993.871 572.105 994.667 571.793 995.247 571.17C995.848 570.526 996.149 569.634 996.149 568.495V559.695C996.149 559.459 996.224 559.266 996.375 559.115C996.525 558.965 996.719 558.89 996.955 558.89H1000.37C1000.59 558.89 1000.77 558.965 1000.92 559.115C1001.07 559.266 1001.15 559.459 1001.15 559.695V574.845C1001.15 575.081 1001.07 575.275 1000.92 575.425C1000.77 575.575 1000.59 575.651 1000.37 575.651H997.213C996.977 575.651 996.783 575.575 996.633 575.425C996.482 575.275 996.407 575.081 996.407 574.845V573.588C995.848 574.361 995.129 574.952 994.248 575.361C993.367 575.769 992.292 575.973 991.024 575.973ZM1011.81 575.973C1010.48 575.973 1009.33 575.823 1008.36 575.522C1007.42 575.199 1006.64 574.813 1006.04 574.361C1005.46 573.91 1005.02 573.459 1004.72 573.008C1004.44 572.535 1004.29 572.137 1004.27 571.815C1004.25 571.579 1004.32 571.385 1004.49 571.235C1004.66 571.084 1004.84 571.009 1005.01 571.009H1008.14C1008.2 571.009 1008.26 571.02 1008.33 571.041C1008.39 571.063 1008.46 571.117 1008.52 571.203C1008.8 571.396 1009.09 571.622 1009.39 571.879C1009.69 572.116 1010.04 572.32 1010.42 572.492C1010.83 572.664 1011.34 572.75 1011.94 572.75C1012.65 572.75 1013.25 572.61 1013.74 572.331C1014.24 572.03 1014.49 571.611 1014.49 571.074C1014.49 570.687 1014.37 570.364 1014.13 570.107C1013.92 569.849 1013.5 569.612 1012.87 569.398C1012.25 569.183 1011.33 568.946 1010.1 568.688C1008.94 568.431 1007.95 568.087 1007.14 567.657C1006.32 567.227 1005.71 566.69 1005.3 566.045C1004.89 565.379 1004.69 564.584 1004.69 563.66C1004.69 562.822 1004.94 562.016 1005.46 561.243C1006 560.469 1006.78 559.835 1007.81 559.341C1008.84 558.825 1010.13 558.567 1011.68 558.567C1012.86 558.567 1013.89 558.718 1014.78 559.019C1015.68 559.298 1016.43 559.663 1017.03 560.115C1017.63 560.544 1018.08 560.996 1018.39 561.468C1018.71 561.92 1018.88 562.317 1018.9 562.661C1018.92 562.876 1018.86 563.058 1018.71 563.209C1018.56 563.359 1018.39 563.434 1018.19 563.434H1015.32C1015.22 563.434 1015.12 563.424 1015.03 563.402C1014.95 563.359 1014.87 563.306 1014.81 563.241C1014.55 563.069 1014.28 562.876 1014 562.661C1013.74 562.425 1013.43 562.22 1013.07 562.048C1012.7 561.877 1012.23 561.791 1011.65 561.791C1010.94 561.791 1010.39 561.952 1010 562.274C1009.64 562.575 1009.46 562.962 1009.46 563.434C1009.46 563.735 1009.55 564.015 1009.75 564.273C1009.94 564.53 1010.34 564.767 1010.94 564.982C1011.54 565.197 1012.45 565.422 1013.68 565.659C1015.14 565.916 1016.3 566.303 1017.16 566.819C1018.02 567.335 1018.63 567.936 1019 568.624C1019.38 569.29 1019.58 570.01 1019.58 570.784C1019.58 571.793 1019.28 572.696 1018.68 573.491C1018.07 574.265 1017.19 574.877 1016.03 575.328C1014.89 575.758 1013.49 575.973 1011.81 575.973ZM1030.67 575.651C1029.33 575.651 1028.2 575.436 1027.25 575.006C1026.3 574.555 1025.59 573.867 1025.09 572.943C1024.62 572.019 1024.38 570.859 1024.38 569.462V562.693H1021.87C1021.63 562.693 1021.44 562.618 1021.29 562.467C1021.14 562.317 1021.06 562.124 1021.06 561.887V559.695C1021.06 559.459 1021.14 559.266 1021.29 559.115C1021.44 558.965 1021.63 558.89 1021.87 558.89H1024.38V553.571C1024.38 553.335 1024.46 553.142 1024.61 552.991C1024.78 552.841 1024.97 552.765 1025.19 552.765H1028.35C1028.58 552.765 1028.78 552.841 1028.93 552.991C1029.08 553.142 1029.15 553.335 1029.15 553.571V558.89H1033.18C1033.4 558.89 1033.58 558.965 1033.73 559.115C1033.88 559.266 1033.95 559.459 1033.95 559.695V561.887C1033.95 562.124 1033.88 562.317 1033.73 562.467C1033.58 562.618 1033.4 562.693 1033.18 562.693H1029.15V569.075C1029.15 569.892 1029.29 570.536 1029.57 571.009C1029.87 571.46 1030.39 571.686 1031.12 571.686H1033.47C1033.69 571.686 1033.87 571.761 1034.02 571.912C1034.17 572.062 1034.24 572.245 1034.24 572.46V574.845C1034.24 575.081 1034.17 575.275 1034.02 575.425C1033.87 575.575 1033.69 575.651 1033.47 575.651H1030.67Z" fill="white"/>
<defs>
<clipPath id="clip0_996_5686">
<rect width="104.167" height="130.209" fill="white" transform="translate(652.582 334.195)"/>
</clipPath>
</defs>
</svg>
