<svg width="510" height="171" viewBox="0 0 510 171" fill="none" xmlns="http://www.w3.org/2000/svg">
<path d="M275.216 9.13029L262.551 21.7949C258.544 25.8015 252.047 25.8015 248.04 21.7949L235.102 8.85217" stroke="white" stroke-width="5.2" stroke-miterlimit="10" stroke-linecap="round"/>
<path d="M226.992 16.9614L239.931 29.9001C243.937 33.9067 243.937 40.4043 239.931 44.4108L227.266 57.0754" stroke="white" stroke-width="5.2" stroke-miterlimit="10" stroke-linecap="round"/>
<path d="M235.586 65.3219L248.251 52.6573C252.257 48.6508 258.755 48.6508 262.761 52.6573L275.7 65.596" stroke="white" stroke-width="5.2" stroke-miterlimit="10" stroke-linecap="round"/>
<path d="M283.19 57.0794L270.251 44.1406C266.244 40.1341 266.244 33.6365 270.251 29.6299L282.916 16.9653" stroke="white" stroke-width="5.2" stroke-miterlimit="10" stroke-linecap="round"/>
<path d="M255.162 14.2769C259.104 14.2769 262.3 11.0809 262.3 7.13846C262.3 3.196 259.104 0 255.162 0C251.219 0 248.023 3.196 248.023 7.13846C248.023 11.0809 251.219 14.2769 255.162 14.2769Z" fill="#5CC196"/>
<path d="M284.904 44.1608C288.847 44.1608 292.043 40.9648 292.043 37.0223C292.043 33.0798 288.847 29.8839 284.904 29.8839C280.962 29.8839 277.766 33.0798 277.766 37.0223C277.766 40.9648 280.962 44.1608 284.904 44.1608Z" fill="#5CC196"/>
<path d="M255.642 74.4481C259.585 74.4481 262.781 71.2521 262.781 67.3096C262.781 63.3671 259.585 60.1711 255.642 60.1711C251.7 60.1711 248.504 63.3671 248.504 67.3096C248.504 71.2521 251.7 74.4481 255.642 74.4481Z" fill="#5CC196"/>
<path d="M225.279 44.1568C229.222 44.1568 232.418 40.9608 232.418 37.0183C232.418 33.0759 229.222 29.8799 225.279 29.8799C221.337 29.8799 218.141 33.0759 218.141 37.0183C218.141 40.9608 221.337 44.1568 225.279 44.1568Z" fill="#5CC196"/>
<path d="M23.6541 114.865L37.422 147.677C39.6055 152.833 40.5153 154.167 42.9413 154.349V156.654H26.0802V154.349C29.416 154.167 30.9323 153.439 30.9323 151.559C30.9323 150.71 30.5684 149.679 30.0225 148.344L28.0817 143.735H11.7664L9.82556 148.769C9.34035 150.043 9.09774 151.013 9.09774 151.741C9.09774 153.56 10.5534 154.167 14.0712 154.349V156.654H0.788471V154.349C3.45714 154.167 4.18496 153.075 6.06516 148.526L17.9529 119.232L16.1333 114.865H23.6541ZM19.7118 123.477L13.1007 140.399H26.7474L19.7118 123.477ZM56.8268 157.503C48.7601 157.503 43.6047 151.802 43.6047 142.946C43.6047 133.424 49.4273 127.177 57.9185 127.177C63.923 127.177 67.8654 130.392 67.8654 134.94C67.8654 137.852 66.1671 139.732 63.6198 139.732C61.3756 139.732 59.738 138.337 59.738 136.153C59.738 133.788 61.3756 132.939 62.0428 131.241C61.133 130.573 59.738 130.21 58.2824 130.21C52.9451 130.21 49.5486 134.213 49.5486 140.399C49.5486 146.707 53.0057 150.77 58.525 150.77C61.8609 150.77 64.5295 149.133 65.8032 146.404L68.108 147.192C66.713 154.106 63.1345 157.503 56.8268 157.503ZM83.8523 157.503C75.7856 157.503 70.6302 151.802 70.6302 142.946C70.6302 133.424 76.4528 127.177 84.944 127.177C90.9485 127.177 94.8909 130.392 94.8909 134.94C94.8909 137.852 93.1926 139.732 90.6453 139.732C88.4011 139.732 86.7636 138.337 86.7636 136.153C86.7636 133.788 88.4011 132.939 89.0683 131.241C88.1585 130.573 86.7636 130.21 85.3079 130.21C79.9706 130.21 76.5741 134.213 76.5741 140.399C76.5741 146.707 80.0312 150.77 85.5505 150.77C88.8864 150.77 91.555 149.133 92.8287 146.404L95.1335 147.192C93.7385 154.106 90.16 157.503 83.8523 157.503ZM122.159 139.186H103.6V140.399C103.6 146.707 107.057 150.77 112.576 150.77C116.033 150.77 118.641 149.072 119.854 146.404L122.159 147.192C120.764 154.106 117.186 157.503 110.817 157.503C102.75 157.503 97.6557 151.741 97.6557 142.886C97.6557 133.363 102.69 127.177 111.06 127.177C118.277 127.177 122.28 131.544 122.159 139.186ZM110.393 129.906C107.117 129.906 104.813 132.15 103.963 136.335H115.548C115.548 132.332 113.971 129.906 110.393 129.906ZM134.985 157.503C131.71 157.503 128.374 156.775 125.766 155.501L125.463 147.253H128.677C129.405 152.165 131.892 154.592 135.47 154.592C138.381 154.592 140.262 153.257 140.262 151.013C140.262 148.951 138.988 147.799 135.834 146.404L131.77 144.645C127.403 142.764 125.463 139.853 125.463 135.911C125.463 130.452 129.89 127.177 136.622 127.177C139.837 127.177 143.112 127.905 145.72 129.179L146.023 136.396H142.748C142.142 132.393 140.019 130.088 136.077 130.088C133.165 130.088 131.225 131.483 131.225 133.667C131.225 135.729 132.498 136.881 135.652 138.276L139.716 140.035C144.022 141.915 146.023 144.645 146.023 148.648C146.023 154.106 141.717 157.503 134.985 157.503ZM159.286 157.503C156.011 157.503 152.675 156.775 150.067 155.501L149.764 147.253H152.978C153.706 152.165 156.193 154.592 159.771 154.592C162.682 154.592 164.563 153.257 164.563 151.013C164.563 148.951 163.289 147.799 160.135 146.404L156.071 144.645C151.704 142.764 149.764 139.853 149.764 135.911C149.764 130.452 154.191 127.177 160.923 127.177C164.138 127.177 167.413 127.905 170.021 129.179L170.324 136.396H167.049C166.443 132.393 164.32 130.088 160.378 130.088C157.466 130.088 155.525 131.483 155.525 133.667C155.525 135.729 156.799 136.881 159.953 138.276L164.017 140.035C168.323 141.915 170.324 144.645 170.324 148.648C170.324 154.106 166.018 157.503 159.286 157.503ZM179.584 123.599C176.976 123.599 175.096 121.779 175.096 119.11C175.096 116.442 176.976 114.622 179.584 114.622C182.192 114.622 184.072 116.442 184.072 119.11C184.072 121.779 182.192 123.599 179.584 123.599ZM186.983 156.654H172.548V154.652C175.945 154.349 176.672 153.621 176.672 150.407V136.032C176.672 132.636 175.884 131.787 172.548 131.787V129.967L180.979 127.541H182.98V150.407C182.98 153.621 183.587 154.349 186.983 154.652V156.654ZM206.167 127.177C213.081 127.177 217.509 132.757 217.509 141.612C217.509 151.498 212.596 157.503 204.105 157.503C200.284 157.503 197.312 156.108 195.311 153.924L193.491 156.836H190.762V122.204C190.762 118.989 190.034 118.261 186.88 118.261V116.32L195.25 113.591H197.069V133C198.95 129.603 202.103 127.177 206.167 127.177ZM203.317 154.41C207.987 154.41 210.473 150.346 210.473 143.432C210.473 136.821 207.865 132.757 203.438 132.757C201.012 132.757 198.95 133.606 197.069 135.486V146.161C197.069 151.62 199.314 154.41 203.317 154.41ZM226.29 123.599C223.682 123.599 221.802 121.779 221.802 119.11C221.802 116.442 223.682 114.622 226.29 114.622C228.898 114.622 230.778 116.442 230.778 119.11C230.778 121.779 228.898 123.599 226.29 123.599ZM233.69 156.654H219.255V154.652C222.651 154.349 223.379 153.621 223.379 150.407V136.032C223.379 132.636 222.59 131.787 219.255 131.787V129.967L227.685 127.541H229.687V150.407C229.687 153.621 230.293 154.349 233.69 154.652V156.654ZM245.05 149.254C245.05 153.864 246.202 154.349 249.416 154.652V156.654H234.375V154.652C237.953 154.349 238.742 153.864 238.742 149.254V122.204C238.742 118.989 238.014 118.261 234.86 118.261V116.32L243.23 113.591H245.05V149.254ZM257.182 123.599C254.574 123.599 252.694 121.779 252.694 119.11C252.694 116.442 254.574 114.622 257.182 114.622C259.79 114.622 261.67 116.442 261.67 119.11C261.67 121.779 259.79 123.599 257.182 123.599ZM264.582 156.654H250.147V154.652C253.543 154.349 254.271 153.621 254.271 150.407V136.032C254.271 132.636 253.483 131.787 250.147 131.787V129.967L258.577 127.541H260.579V150.407C260.579 153.621 261.185 154.349 264.582 154.652V156.654ZM285.161 149.8L286.616 151.134C284.312 155.137 282.007 157.26 278.004 157.26C273.212 157.26 269.998 154.167 269.998 148.466V133.303H264.842V130.331C269.391 129.724 272.181 127.056 273.091 122.81H276.306V127.905H284.797V133.303H276.306V146.767C276.306 150.225 277.822 151.862 280.43 151.862C282.31 151.862 283.826 151.074 285.161 149.8ZM305.703 129.906V127.905H316.075V129.906C314.316 130.21 313.588 131.119 311.95 135.122L302.731 157.624C299.274 166.055 295.574 169.694 290.54 169.694C287.022 169.694 284.414 167.692 284.414 164.842C284.414 162.476 285.87 161.203 287.993 161.203C290.904 161.203 290.965 164.053 293.694 165.933C296.241 164.417 297.94 160.899 300.062 155.805L291.147 135.79C289.145 131.301 288.296 130.149 286.537 129.906V127.905H300.851V129.906C298.425 130.028 297.212 130.816 297.212 132.454C297.212 132.939 297.333 133.485 297.576 134.152L303.338 147.92L308.736 134.819C309.039 133.97 309.282 133.242 309.282 132.575C309.282 130.937 307.947 129.967 305.703 129.906ZM414.254 127.177C417.105 127.177 418.682 129.542 418.682 134.455C418.682 143.492 413.041 151.802 405.824 158.958C399.516 165.266 392.602 169.754 386.537 169.754C382.594 169.754 379.683 167.389 379.683 164.053C379.683 161.87 381.017 160.293 383.201 160.293C387.507 160.293 385.991 165.812 387.264 167.086C391.692 166.479 395.21 163.993 397.211 160.596C399.637 156.411 400.183 150.043 400.183 143.31C400.183 136.942 399.698 132.757 398.242 132.757C397.151 132.757 395.877 135.183 394.664 138.64L392.602 138.034C394.3 131.847 396.726 127.177 400.426 127.177C405.157 127.177 406.066 134.576 406.066 141.612C406.066 146.525 405.642 151.984 404.004 156.896C410.737 149.679 414.8 142.886 415.225 137.427C414.194 135.668 412.799 135.062 411.768 134.031C411.04 133.303 410.494 132.272 410.494 130.998C410.494 128.815 411.95 127.177 414.254 127.177ZM429.132 157.503C423.795 157.503 419.489 154.834 419.489 148.102C419.489 144.038 421.187 138.943 423.795 134.88C426.585 130.573 430.285 127.177 436.168 127.177C441.566 127.177 445.872 129.846 445.872 136.578C445.872 140.642 444.113 145.736 441.505 149.8C438.715 154.106 435.076 157.503 429.132 157.503ZM428.405 154.531C431.801 154.531 434.348 150.649 436.471 145.979C438.897 140.702 439.807 136.457 439.807 133.909C439.807 131.241 438.715 130.149 436.896 130.149C433.499 130.149 430.952 134.031 428.829 138.701C426.464 143.977 425.554 148.223 425.554 150.77C425.554 153.439 426.585 154.531 428.405 154.531Z" fill="white"/>
<path d="M336.373 112.985C341.892 112.985 345.349 115.35 345.349 118.746C345.349 121.172 343.833 122.628 341.71 122.628C340.012 122.628 338.92 121.961 338.192 120.323C337.525 118.868 337.465 116.988 336.676 115.896C336.312 115.835 336.009 115.774 335.706 115.774C330.854 115.774 328.003 119.535 328.003 125.843C328.003 126.449 328.003 127.116 328.064 127.905H335.402V133.303H328.246V149.194C328.246 153.621 329.216 154.41 335.402 154.652V156.654H316.419V154.652C321.271 154.41 321.938 153.742 321.938 149.497V133.303H316.419V131.059L321.938 128.269C322.362 118.746 327.7 112.985 336.373 112.985ZM351.92 157.503C343.246 157.503 337.424 151.559 337.424 142.401C337.424 133.182 343.246 127.177 351.92 127.177C360.653 127.177 366.476 133.121 366.476 142.279C366.476 151.498 360.653 157.503 351.92 157.503ZM352.405 154.531C355.619 154.531 358.895 151.862 358.895 143.432C358.895 136.881 356.529 130.149 351.495 130.149C348.281 130.149 344.945 132.818 344.945 141.248C344.945 147.859 347.371 154.531 352.405 154.531ZM386.472 127.177C389.08 127.177 391.082 128.875 391.082 131.544C391.082 134.213 389.323 135.911 387.139 135.911C384.531 135.911 384.349 133 382.651 132.332C381.256 133.849 379.679 136.335 378.345 140.702V150.407C378.345 153.56 379.376 154.349 383.258 154.652V156.654H368.216V154.652C371.491 154.349 372.037 153.742 372.037 150.407V136.032C372.037 132.636 371.309 131.787 368.216 131.787V129.967L376.404 127.541H378.345V136.093C379.8 131.968 382.59 127.177 386.472 127.177ZM453.357 157.503C450.567 157.503 448.444 155.865 448.444 152.59C448.444 151.195 448.868 149.497 449.717 147.556L454.873 136.032C455.479 134.819 455.661 134.091 455.661 133.606C455.661 133 455.358 132.757 454.873 132.757C453.781 132.757 452.629 134.152 450.87 137.306L448.686 136.639C451.173 131.059 454.024 127.177 458.087 127.177C460.453 127.177 462.151 128.329 462.151 130.877C462.151 132.029 461.605 133.97 460.635 136.153L455.722 146.767C454.873 148.587 454.691 149.557 454.691 150.225C454.691 151.438 455.419 151.862 456.389 151.862C461.302 151.862 468.519 137.609 472.098 127.905H477.617L471.309 148.405C470.885 149.679 470.764 150.285 470.764 150.71C470.764 151.377 471.067 151.62 471.613 151.62C472.644 151.62 473.736 150.225 475.494 147.01L477.617 147.677C475.131 153.318 472.462 157.2 468.338 157.2C466.457 157.2 464.88 156.047 464.88 153.621C464.88 151.438 465.426 149.618 469.733 139.671H468.823C462.333 152.711 458.694 157.503 453.357 157.503ZM508.765 127.905V129.906C507.006 130.088 505.671 131.241 502.639 134.637L496.756 141.127L504.276 150.467C506.824 153.621 507.612 154.47 508.765 154.652V156.654H494.754V154.652C496.452 154.592 497.483 153.985 497.483 152.954C497.483 152.226 497.059 151.316 496.028 150.103L492.571 145.797L488.628 150.103C487.355 151.559 486.809 152.529 486.809 153.318C486.809 154.167 487.597 154.592 489.599 154.652V156.654H478.681V154.652C480.38 154.47 481.714 153.318 484.807 149.921L490.63 143.432L483.109 134.091C480.562 130.937 479.834 130.088 478.681 129.906V127.905H492.631V129.906C490.994 129.967 489.902 130.573 489.902 131.605C489.902 132.332 490.327 133.242 491.358 134.516L494.815 138.822L498.757 134.455C500.031 133 500.637 132.029 500.637 131.241C500.637 130.392 499.788 129.967 497.787 129.906V127.905H508.765Z" fill="#5CC196"/>
</svg>
