<svg width="507" height="170" viewBox="0 0 507 170" fill="none" xmlns="http://www.w3.org/2000/svg">
<path d="M384.374 170C380.592 170 377.84 167.768 377.84 164.692C377.84 162.667 379.063 161.36 380.962 161.36C383.28 161.36 383.666 163.05 383.956 165.425C384.1 166.573 384.213 167.545 384.776 168.103L384.953 168.278L385.195 168.247C389.669 167.641 393.515 165.154 395.72 161.44C398.472 156.737 398.826 149.468 398.826 143.666C398.826 135.727 398.118 132.491 396.364 132.491C395.575 132.491 394.304 133.113 392.405 138.342L391.182 137.991C393.129 131.216 395.623 127.789 398.601 127.789C402.157 127.789 403.895 132.412 403.895 141.944C403.895 148.097 403.219 153.119 401.803 157.279L402.608 157.757C409.769 150.154 413.793 143.219 414.227 137.736V137.592L414.163 137.465C413.406 136.19 412.473 135.472 411.636 134.835C411.25 134.532 410.88 134.261 410.542 133.926C410.011 133.4 409.383 132.491 409.383 131.184C409.383 129.16 410.735 127.789 412.747 127.789C415.434 127.789 416.802 130.116 416.802 134.691C416.802 142.582 412.537 150.584 403.783 159.192C398.81 164.118 391.407 170 384.39 170H384.374ZM288.602 169.952C285.255 169.952 282.809 168.087 282.809 165.505C282.809 163.464 283.968 162.301 285.995 162.301C287.508 162.301 288.136 163.161 289.005 164.341C289.632 165.202 290.357 166.19 291.564 167.003L291.821 167.178L292.095 167.019C294.927 165.345 296.746 161.44 298.806 156.53L298.886 156.339L289.681 135.855C287.782 131.662 286.816 130.116 284.997 129.686V128.538H298.677V129.638C296.198 129.861 294.943 130.881 294.943 132.667C294.943 133.209 295.072 133.798 295.346 134.548L301.702 149.596L307.673 135.249C308.011 134.309 308.269 133.543 308.269 132.794C308.269 130.993 306.917 129.829 304.599 129.638V128.538H314.255V129.702C312.421 130.164 311.584 131.519 310.071 135.201L300.64 158.013C297.18 166.381 293.575 169.952 288.618 169.952H288.602ZM427.343 157.582C423.835 157.582 417.961 156.403 417.961 148.528C417.961 144.543 419.619 139.505 422.29 135.377C425.67 130.196 429.58 127.789 434.553 127.789C438.078 127.789 444 128.968 444 136.843C444 140.765 442.31 145.802 439.606 149.994C436.179 155.239 432.397 157.582 427.343 157.582ZM435.293 129.861C431.222 129.861 428.518 134.643 426.603 138.804C424.447 143.57 423.207 148.097 423.207 151.238C423.207 154.091 424.35 155.526 426.603 155.526C430.675 155.526 433.378 150.744 435.293 146.583C438.416 139.856 438.754 135.648 438.754 134.149C438.754 130.61 436.871 129.861 435.293 129.861ZM203.243 157.582C199.687 157.582 196.693 156.387 194.601 154.107L194.167 153.645L192.107 156.897H190.063V122.273C190.063 118.926 189.194 117.89 186.088 117.81V116.662L194.327 114H195.551V135.074L196.452 133.464C198.463 129.877 201.698 127.805 205.335 127.805C212.191 127.805 216.456 133.225 216.456 141.96C216.456 151.748 211.515 157.598 203.227 157.598L203.243 157.582ZM202.567 132.507C199.928 132.507 197.675 133.464 195.711 135.408L195.567 135.552V146.567C195.567 152.274 198.013 155.414 202.439 155.414C207.395 155.414 210.244 151.19 210.244 143.809C210.244 136.429 207.363 132.507 202.567 132.507ZM158.616 157.582C155.462 157.582 152.211 156.913 149.652 155.717L149.379 148.145H151.76C152.597 152.943 155.204 155.59 159.131 155.59C162.446 155.59 164.523 154.011 164.523 151.477C164.523 148.942 162.752 147.699 159.695 146.36L155.526 144.574C151.374 142.805 149.363 140.047 149.363 136.158C149.363 130.993 153.547 127.789 160.306 127.789C163.38 127.789 166.582 128.458 169.141 129.654L169.415 136.19H166.969C166.196 132.013 163.702 129.797 159.727 129.797C156.46 129.797 154.271 131.455 154.271 133.91C154.271 136.365 156.041 137.688 159.083 139.027L163.251 140.812C167.452 142.63 169.415 145.26 169.415 149.102C169.415 154.346 165.263 157.598 158.6 157.598L158.616 157.582ZM134.364 157.582C131.209 157.582 127.958 156.913 125.4 155.717L125.11 148.145H127.492C128.329 152.943 130.936 155.59 134.862 155.59C138.194 155.59 140.254 154.011 140.254 151.477C140.254 148.942 138.483 147.699 135.426 146.36L131.258 144.574C127.105 142.805 125.094 140.047 125.094 136.158C125.094 130.993 129.278 127.789 136.037 127.789C139.111 127.789 142.314 128.458 144.873 129.654L145.146 136.19H142.7C141.927 132.013 139.433 129.797 135.458 129.797C132.191 129.797 130.002 131.455 130.002 133.91C130.002 136.365 131.773 137.688 134.83 139.027L138.998 140.812C143.199 142.63 145.162 145.26 145.162 149.102C145.162 154.346 141.01 157.598 134.347 157.598L134.364 157.582ZM110.256 157.582C102.37 157.582 97.2683 151.955 97.2683 143.235C97.2683 133.703 102.338 127.789 110.497 127.789C113.909 127.789 116.58 128.745 118.447 130.626C120.362 132.555 121.36 135.377 121.376 139.011H102.386V140.717C102.386 147.396 106.184 151.716 112.058 151.716C115.534 151.716 118.318 150.154 119.751 147.396L121.296 147.922C119.847 154.506 116.323 157.582 110.256 157.582ZM109.821 129.606C106.184 129.606 103.673 132.061 102.772 136.508L102.66 137.082H115.583V136.604C115.583 130.818 112.444 129.606 109.821 129.606ZM83.2671 157.582C75.3331 157.582 70.2154 151.971 70.2154 143.299C70.2154 134.022 75.9124 127.789 84.3775 127.789C90.1711 127.789 94.0657 130.754 94.0657 135.185C94.0657 137.847 92.553 139.569 90.2033 139.569C88.1112 139.569 86.7111 138.31 86.7111 136.413C86.7111 135.058 87.3226 134.245 87.9503 133.384C88.3526 132.858 88.7549 132.3 89.0285 131.615L89.1573 131.28L88.8515 131.057C87.8537 130.339 86.3409 129.925 84.7155 129.925C78.9863 129.925 75.3009 134.165 75.3009 140.733C75.3009 147.3 79.0989 151.732 84.973 151.732C88.3687 151.732 91.2172 150.122 92.6656 147.412L94.2267 147.938C92.7783 154.521 89.2699 157.598 83.2349 157.598L83.2671 157.582ZM56.2302 157.582C48.2962 157.582 43.1785 151.971 43.1785 143.299C43.1785 134.022 48.8756 127.789 57.3407 127.789C63.1343 127.789 67.045 130.754 67.045 135.185C67.045 137.847 65.5322 139.569 63.1826 139.569C61.0904 139.569 59.6903 138.31 59.6903 136.413C59.6903 135.058 60.3019 134.245 60.9295 133.384C61.3318 132.858 61.7342 132.3 62.0077 131.615L62.1365 131.28L61.8307 131.057C60.8329 130.339 59.3202 129.925 57.6947 129.925C51.9655 129.925 48.2801 134.165 48.2801 140.733C48.2801 147.3 52.0781 151.732 57.9522 151.732C61.3479 151.732 64.1964 150.122 65.6449 147.412L67.2059 147.938C65.7575 154.521 62.2491 157.598 56.2141 157.598L56.2302 157.582ZM276.388 157.343C271.56 157.343 268.679 154.187 268.679 148.91V133.065H263.4V130.945C267.826 130.228 270.707 127.629 271.753 123.389H274.167V128.554H282.857V133.065H274.167V147.189C274.167 150.823 275.84 152.832 278.866 152.832C280.636 152.832 282.213 152.21 283.71 150.919L284.579 151.716C282.133 155.813 279.88 157.359 276.371 157.359L276.388 157.343ZM248.981 156.721V155.605C252.36 155.239 253.197 154.235 253.197 150.871V136.301C253.197 132.762 252.231 131.631 248.981 131.519V130.499L257.253 128.139H258.685V150.855C258.685 154.266 259.457 155.239 262.789 155.59V156.705H248.981V156.721ZM233.467 156.721V155.605C237.023 155.255 237.94 154.394 237.94 149.691V122.273C237.94 118.926 237.071 117.89 233.965 117.81V116.662L242.205 114H243.428V149.707C243.428 154.49 244.732 155.271 247.902 155.605V156.721H233.467ZM218.612 156.721V155.605C221.992 155.239 222.829 154.235 222.829 150.871V136.301C222.829 132.762 221.863 131.631 218.612 131.519V130.499L226.884 128.139H228.317V150.855C228.317 154.266 229.089 155.239 232.404 155.59V156.705H218.596L218.612 156.721ZM172.054 156.721V155.605C175.434 155.239 176.271 154.235 176.271 150.871V136.301C176.271 132.762 175.305 131.631 172.054 131.519V130.499L180.326 128.139H181.759V150.855C181.759 154.266 182.531 155.239 185.862 155.59V156.705H172.054V156.721ZM25.8781 156.721V155.319C28.5174 155.127 30.851 154.537 30.851 152.035C30.851 151.11 30.4969 150.074 29.8854 148.592L27.7772 143.618H10.4285L8.32027 149.022C7.78919 150.409 7.54779 151.413 7.54779 152.21C7.54779 154.474 9.47899 155.095 12.6333 155.303V156.705H0V155.287C2.63931 154.984 3.47616 153.645 5.35909 149.134L17.6061 119.245L15.9485 115.291H22.5951L36.5641 148.257C38.608 153.039 39.6219 154.904 42.1807 155.271V156.705H25.8942L25.8781 156.721ZM11.3941 141.211H26.7955L18.8614 122.305L11.3941 141.211ZM255.708 123.214C253.294 123.214 251.604 121.54 251.604 119.149C251.604 116.758 253.294 115.084 255.708 115.084C258.122 115.084 259.811 116.758 259.811 119.149C259.811 121.54 258.122 123.214 255.708 123.214ZM225.323 123.214C222.909 123.214 221.219 121.54 221.219 119.149C221.219 116.758 222.909 115.084 225.323 115.084C227.737 115.084 229.427 116.758 229.427 119.149C229.427 121.54 227.737 123.214 225.323 123.214ZM178.765 123.214C176.351 123.214 174.661 121.54 174.661 119.149C174.661 116.758 176.351 115.084 178.765 115.084C181.179 115.084 182.869 116.758 182.869 119.149C182.869 121.54 181.179 123.214 178.765 123.214Z" fill="#FAFAFA"/>
<path d="M351.017 157C342.346 157 336.748 151.202 336.748 142.227C336.748 133.253 342.346 127.328 351.017 127.328C359.687 127.328 365.35 133.126 365.35 142.1C365.35 151.075 359.719 157 351.017 157ZM350.585 129.377C348.441 129.377 343.45 130.521 343.45 141.068C343.45 147.755 345.978 154.967 351.513 154.967C353.64 154.967 358.599 153.823 358.599 143.276C358.599 136.588 356.088 129.377 350.585 129.377ZM493.723 156.142V155.046C495.466 154.871 496.49 154.077 496.49 152.886C496.49 151.981 495.978 150.964 494.891 149.693L491.035 144.912L486.652 149.677C485.261 151.25 484.669 152.314 484.669 153.251C484.669 154.744 486.396 154.999 487.5 155.062V156.142H477.358V154.999C479.054 154.649 480.542 153.331 483.469 150.138L489.676 143.276L481.773 133.523C479.358 130.552 478.494 129.552 477.374 129.218V128.058H490.603V129.155C488.876 129.329 487.82 130.139 487.82 131.315C487.82 132.204 488.332 133.221 489.404 134.555L493.275 139.336L497.658 134.508C499.13 132.84 499.69 131.839 499.69 130.934C499.69 129.456 497.882 129.186 496.794 129.123V128.043H507V129.17C505.24 129.504 503.769 130.838 500.889 134.047L494.635 140.909L502.537 150.662C504.808 153.458 505.8 154.601 507 154.967V156.126H493.707L493.723 156.142ZM367.461 156.142V155.03C370.677 154.665 371.348 153.791 371.348 150.313V135.794C371.348 132.284 370.469 131.14 367.461 131.045V130.028L375.444 127.677H376.803V135.858L377.731 136.017C378.451 133.983 381.154 127.328 385.537 127.328C388.017 127.328 389.745 128.948 389.745 131.267C389.745 133.586 388.289 135.206 386.209 135.206C384.898 135.206 384.322 134.365 383.666 133.412C383.17 132.697 382.674 131.966 381.826 131.632L381.522 131.505L381.298 131.744C379.475 133.697 377.971 136.604 376.819 140.385V150.329C376.803 153.918 378.275 154.729 381.794 155.062V156.174H367.445L367.461 156.142ZM316 156.142V155.046C320.767 154.76 321.615 153.823 321.615 149.391V132.554H316V131.061L321.599 128.249V127.979C322.031 118.591 327.342 113 335.82 113C341.003 113 344.474 115.144 344.474 118.353C344.474 120.45 343.21 121.8 341.259 121.8C339.675 121.8 338.763 121.212 338.123 119.751C337.851 119.147 337.675 118.448 337.5 117.765C337.26 116.796 337.036 115.891 336.524 115.192L336.412 115.033L336.044 114.97C335.724 114.922 335.436 114.874 335.148 114.874C329.933 114.874 326.83 118.861 326.83 125.517C326.83 126.136 326.83 126.819 326.894 127.63L326.926 128.074H334.348V132.57H327.07V149.105C327.07 153.775 328.237 154.792 334.348 155.078V156.174H316V156.142Z" fill="#8080ED"/>
<path d="M451.794 158C448.835 158 447 156.115 447 153.093C447 151.664 447.427 149.941 448.266 147.959L453.455 136.05C453.993 134.945 454.262 134.1 454.262 133.483C454.262 132.817 453.93 132.443 453.313 132.443C452.189 132.443 451.05 133.759 449.215 137.106L447.316 136.505C450.196 129.925 453.044 127 456.556 127C459.056 127 460.48 128.332 460.48 130.656C460.48 131.842 459.91 133.856 458.961 136.034L454.025 147.001C453.091 149.048 452.98 150.023 452.98 150.64C452.98 151.858 453.629 152.492 454.847 152.492C459.942 152.492 467.298 137.35 470.763 127.731H475.984L469.703 148.706C469.308 149.925 469.149 150.624 469.149 151.144C469.149 151.891 469.482 152.248 470.162 152.248C471.222 152.248 472.282 151.014 474.149 147.52L476 148.122C473.057 154.913 470.415 157.691 466.887 157.691C465.289 157.691 463.565 156.765 463.565 154.149C463.565 151.907 464.134 149.99 468.438 139.803L468.532 139.575H467.283L467.235 139.657C460.432 153.711 456.825 158 451.81 158H451.794Z" fill="#8080ED"/>
<path d="M274.216 9.13017L261.551 21.7948C257.544 25.8014 251.047 25.8014 247.04 21.7948L234.102 8.85205" stroke="white" stroke-width="5.2" stroke-miterlimit="10" stroke-linecap="round"/>
<path d="M225.992 16.9614L238.931 29.9001C242.937 33.9067 242.937 40.4043 238.931 44.4108L226.266 57.0754" stroke="white" stroke-width="5.2" stroke-miterlimit="10" stroke-linecap="round"/>
<path d="M234.586 65.3219L247.251 52.6573C251.257 48.6507 257.755 48.6507 261.761 52.6573L274.7 65.596" stroke="white" stroke-width="5.2" stroke-miterlimit="10" stroke-linecap="round"/>
<path d="M282.19 57.0794L269.251 44.1406C265.244 40.1341 265.244 33.6365 269.251 29.6299L281.916 16.9653" stroke="white" stroke-width="5.2" stroke-miterlimit="10" stroke-linecap="round"/>
<path d="M254.162 14.2769C258.104 14.2769 261.3 11.0809 261.3 7.13846C261.3 3.196 258.104 0 254.162 0C250.219 0 247.023 3.196 247.023 7.13846C247.023 11.0809 250.219 14.2769 254.162 14.2769Z" fill="#8080ED"/>
<path d="M283.904 44.1607C287.847 44.1607 291.043 40.9647 291.043 37.0222C291.043 33.0798 287.847 29.8838 283.904 29.8838C279.962 29.8838 276.766 33.0798 276.766 37.0222C276.766 40.9647 279.962 44.1607 283.904 44.1607Z" fill="#8080ED"/>
<path d="M254.642 74.4483C258.585 74.4483 261.781 71.2523 261.781 67.3098C261.781 63.3674 258.585 60.1714 254.642 60.1714C250.7 60.1714 247.504 63.3674 247.504 67.3098C247.504 71.2523 250.7 74.4483 254.642 74.4483Z" fill="#8080ED"/>
<path d="M224.279 44.1568C228.222 44.1568 231.418 40.9608 231.418 37.0183C231.418 33.0759 228.222 29.8799 224.279 29.8799C220.337 29.8799 217.141 33.0759 217.141 37.0183C217.141 40.9608 220.337 44.1568 224.279 44.1568Z" fill="#8080ED"/>
</svg>
