<svg width="369" height="54" viewBox="0 0 369 54" fill="none" xmlns="http://www.w3.org/2000/svg">
<path d="M8.72282 8.73068C9.48329 7.97046 10.7161 7.97066 11.4763 8.73112L19.1796 16.4369C20.8048 18.0621 23.4407 18.0621 25.0659 16.4369L32.6063 8.89648C33.3667 8.13617 34.5994 8.13616 35.3598 8.89648C36.1201 9.65682 36.1201 10.8896 35.3598 11.65L27.8193 19.1904C24.6735 22.3362 19.5721 22.3363 16.4262 19.1904L16.426 19.1902L8.72238 11.4842C7.96216 10.7237 7.96236 9.4909 8.72282 8.73068Z" fill="#070633"/>
<path d="M3.89253 13.559C4.65287 12.7987 5.8856 12.7987 6.64594 13.559L14.3496 21.2626C17.4954 24.4085 17.4954 29.5098 14.3496 32.6557L6.80914 40.1962C6.0488 40.9565 4.81607 40.9565 4.05573 40.1962C3.29538 39.4358 3.29538 38.2031 4.05573 37.4427L11.5961 29.9023C13.2213 28.2771 13.2213 25.6413 11.5961 24.0161L3.89253 16.3124C3.13218 15.5521 3.13218 14.3194 3.89253 13.559Z" fill="#070633"/>
<path d="M16.5501 34.812C19.6959 31.6662 24.7973 31.6662 27.9432 34.812L35.6468 42.5156C36.4072 43.276 36.4072 44.5087 35.6468 45.2691C34.8865 46.0294 33.6538 46.0294 32.8934 45.2691L25.1898 37.5654C23.5646 35.9403 20.9287 35.9403 19.3036 37.5654L11.7631 45.1059C11.0028 45.8662 9.77006 45.8662 9.00971 45.1059C8.24937 44.3455 8.24937 43.1128 9.00971 42.3524L16.5501 34.812Z" fill="#070633"/>
<path d="M37.1909 13.5615C37.9512 12.8011 39.1839 12.8011 39.9443 13.5615C40.7046 14.3218 40.7046 15.5545 39.9443 16.3149L32.4038 23.8553C30.7787 25.4805 30.7787 28.1164 32.4038 29.7415L40.1075 37.4452C40.8678 38.2055 40.8678 39.4382 40.1075 40.1986C39.3471 40.9589 38.1143 40.9589 37.354 40.1986L29.6504 32.4949C26.5046 29.3491 26.5046 24.2477 29.6504 21.1019L37.1909 13.5615Z" fill="#070633"/>
<path d="M22.0412 13.3373C24.3885 13.3373 26.2914 11.4344 26.2914 9.08712C26.2914 6.73979 24.3885 4.83691 22.0412 4.83691C19.6939 4.83691 17.791 6.73979 17.791 9.08712C17.791 11.4344 19.6939 13.3373 22.0412 13.3373Z" fill="#6868C8"/>
<path d="M39.7502 31.1298C42.0975 31.1298 44.0004 29.2269 44.0004 26.8796C44.0004 24.5323 42.0975 22.6294 39.7502 22.6294C37.4029 22.6294 35.5 24.5323 35.5 26.8796C35.5 29.2269 37.4029 31.1298 39.7502 31.1298Z" fill="#6868C8"/>
<path d="M22.3283 49.163C24.6756 49.163 26.5785 47.2601 26.5785 44.9128C26.5785 42.5655 24.6756 40.6626 22.3283 40.6626C19.981 40.6626 18.0781 42.5655 18.0781 44.9128C18.0781 47.2601 19.981 49.163 22.3283 49.163Z" fill="#6868C8"/>
<path d="M4.2502 31.1278C6.59752 31.1278 8.5004 29.225 8.5004 26.8776C8.5004 24.5303 6.59752 22.6274 4.2502 22.6274C1.90288 22.6274 0 24.5303 0 26.8776C0 29.225 1.90288 31.1278 4.2502 31.1278Z" fill="#6868C8"/>
<path d="M67.0429 13.4243L75.7986 34.2914C77.1871 37.57 77.7657 38.4186 79.3086 38.5343V40H68.5857V38.5343C70.7071 38.4186 71.6714 37.9557 71.6714 36.76C71.6714 36.22 71.44 35.5643 71.0929 34.7157L69.8586 31.7843H59.4829L58.2486 34.9857C57.94 35.7957 57.7857 36.4129 57.7857 36.8757C57.7857 38.0329 58.7114 38.4186 60.9486 38.5343V40H52.5014V38.5343C54.1986 38.4186 54.6614 37.7243 55.8571 34.8314L63.4171 16.2014L62.26 13.4243H67.0429ZM64.5357 18.9014L60.3314 29.6629H69.01L64.5357 18.9014ZM87.7533 40.54C82.6233 40.54 79.3447 36.9143 79.3447 31.2829C79.3447 25.2271 83.0476 21.2543 88.4476 21.2543C92.2662 21.2543 94.7733 23.2986 94.7733 26.1914C94.7733 28.0429 93.6933 29.2386 92.0733 29.2386C90.6462 29.2386 89.6047 28.3514 89.6047 26.9629C89.6047 25.4586 90.6462 24.9186 91.0704 23.8386C90.4919 23.4143 89.6047 23.1829 88.679 23.1829C85.2847 23.1829 83.1247 25.7286 83.1247 29.6629C83.1247 33.6743 85.3233 36.2586 88.8333 36.2586C90.9547 36.2586 92.6519 35.2171 93.4619 33.4814L94.9276 33.9829C94.0404 38.38 91.7647 40.54 87.7533 40.54ZM104.554 40.54C99.4245 40.54 96.1459 36.9143 96.1459 31.2829C96.1459 25.2271 99.8488 21.2543 105.249 21.2543C109.067 21.2543 111.574 23.2986 111.574 26.1914C111.574 28.0429 110.494 29.2386 108.874 29.2386C107.447 29.2386 106.406 28.3514 106.406 26.9629C106.406 25.4586 107.447 24.9186 107.872 23.8386C107.293 23.4143 106.406 23.1829 105.48 23.1829C102.086 23.1829 99.9259 25.7286 99.9259 29.6629C99.9259 33.6743 102.124 36.2586 105.634 36.2586C107.756 36.2586 109.453 35.2171 110.263 33.4814L111.729 33.9829C110.842 38.38 108.566 40.54 104.554 40.54ZM128.53 28.8914H116.727V29.6629C116.727 33.6743 118.926 36.2586 122.436 36.2586C124.634 36.2586 126.293 35.1786 127.064 33.4814L128.53 33.9829C127.643 38.38 125.367 40.54 121.317 40.54C116.187 40.54 112.947 36.8757 112.947 31.2443C112.947 25.1886 116.149 21.2543 121.471 21.2543C126.061 21.2543 128.607 24.0314 128.53 28.8914ZM121.047 22.99C118.964 22.99 117.499 24.4171 116.959 27.0786H124.326C124.326 24.5329 123.323 22.99 121.047 22.99ZM136.301 40.54C134.218 40.54 132.097 40.0771 130.438 39.2671L130.245 34.0214H132.289C132.752 37.1457 134.334 38.6886 136.609 38.6886C138.461 38.6886 139.657 37.84 139.657 36.4129C139.657 35.1014 138.847 34.3686 136.841 33.4814L134.257 32.3629C131.479 31.1671 130.245 29.3157 130.245 26.8086C130.245 23.3371 133.061 21.2543 137.342 21.2543C139.387 21.2543 141.469 21.7171 143.128 22.5271L143.321 27.1171H141.238C140.852 24.5714 139.502 23.1057 136.995 23.1057C135.144 23.1057 133.909 23.9929 133.909 25.3814C133.909 26.6929 134.719 27.4257 136.725 28.3129L139.309 29.4314C142.048 30.6271 143.321 32.3629 143.321 34.9086C143.321 38.38 140.582 40.54 136.301 40.54ZM151.369 40.54C149.286 40.54 147.165 40.0771 145.506 39.2671L145.314 34.0214H147.358C147.821 37.1457 149.402 38.6886 151.678 38.6886C153.529 38.6886 154.725 37.84 154.725 36.4129C154.725 35.1014 153.915 34.3686 151.909 33.4814L149.325 32.3629C146.548 31.1671 145.314 29.3157 145.314 26.8086C145.314 23.3371 148.129 21.2543 152.411 21.2543C154.455 21.2543 156.538 21.7171 158.196 22.5271L158.389 27.1171H156.306C155.921 24.5714 154.571 23.1057 152.064 23.1057C150.212 23.1057 148.978 23.9929 148.978 25.3814C148.978 26.6929 149.788 27.4257 151.794 28.3129L154.378 29.4314C157.116 30.6271 158.389 32.3629 158.389 34.9086C158.389 38.38 155.651 40.54 151.369 40.54ZM163.892 18.9786C162.234 18.9786 161.038 17.8214 161.038 16.1243C161.038 14.4271 162.234 13.27 163.892 13.27C165.551 13.27 166.746 14.4271 166.746 16.1243C166.746 17.8214 165.551 18.9786 163.892 18.9786ZM168.598 40H159.418V38.7271C161.578 38.5343 162.041 38.0714 162.041 36.0271V26.8857C162.041 24.7257 161.539 24.1857 159.418 24.1857V23.0286L164.779 21.4857H166.052V36.0271C166.052 38.0714 166.438 38.5343 168.598 38.7271V40ZM180.412 21.2543C184.809 21.2543 187.625 24.8029 187.625 30.4343C187.625 36.7214 184.501 40.54 179.101 40.54C176.671 40.54 174.781 39.6529 173.508 38.2643L172.351 40.1157H170.615V18.0914C170.615 16.0471 170.152 15.5843 168.146 15.5843V14.35L173.469 12.6143H174.626V24.9571C175.822 22.7971 177.828 21.2543 180.412 21.2543ZM178.599 38.5729C181.569 38.5729 183.151 35.9886 183.151 31.5914C183.151 27.3871 181.492 24.8029 178.676 24.8029C177.134 24.8029 175.822 25.3429 174.626 26.5386V33.3271C174.626 36.7986 176.054 38.5729 178.599 38.5729ZM192.824 18.9786C191.165 18.9786 189.969 17.8214 189.969 16.1243C189.969 14.4271 191.165 13.27 192.824 13.27C194.482 13.27 195.678 14.4271 195.678 16.1243C195.678 17.8214 194.482 18.9786 192.824 18.9786ZM197.529 40H188.349V38.7271C190.509 38.5343 190.972 38.0714 190.972 36.0271V26.8857C190.972 24.7257 190.471 24.1857 188.349 24.1857V23.0286L193.711 21.4857H194.984V36.0271C194.984 38.0714 195.369 38.5343 197.529 38.7271V40ZM204.368 35.2943C204.368 38.2257 205.101 38.5343 207.145 38.7271V40H197.579V38.7271C199.855 38.5343 200.357 38.2257 200.357 35.2943V18.0914C200.357 16.0471 199.894 15.5843 197.888 15.5843V14.35L203.211 12.6143H204.368V35.2943ZM211.698 18.9786C210.039 18.9786 208.844 17.8214 208.844 16.1243C208.844 14.4271 210.039 13.27 211.698 13.27C213.357 13.27 214.552 14.4271 214.552 16.1243C214.552 17.8214 213.357 18.9786 211.698 18.9786ZM216.404 40H207.224V38.7271C209.384 38.5343 209.847 38.0714 209.847 36.0271V26.8857C209.847 24.7257 209.345 24.1857 207.224 24.1857V23.0286L212.585 21.4857H213.858V36.0271C213.858 38.0714 214.244 38.5343 216.404 38.7271V40ZM229.105 35.6414L230.031 36.49C228.565 39.0357 227.1 40.3857 224.554 40.3857C221.507 40.3857 219.462 38.4186 219.462 34.7929V25.15H216.184V23.26C219.077 22.8743 220.851 21.1771 221.43 18.4771H223.474V21.7171H228.874V25.15H223.474V33.7129C223.474 35.9114 224.438 36.9529 226.097 36.9529C227.292 36.9529 228.257 36.4514 229.105 35.6414ZM241.783 22.99V21.7171H248.379V22.99C247.261 23.1829 246.798 23.7614 245.756 26.3071L239.893 40.6171C237.695 45.9786 235.342 48.2929 232.141 48.2929C229.903 48.2929 228.245 47.02 228.245 45.2071C228.245 43.7029 229.171 42.8929 230.521 42.8929C232.372 42.8929 232.411 44.7057 234.146 45.9014C235.766 44.9371 236.846 42.7 238.196 39.46L232.526 26.7314C231.253 23.8771 230.713 23.1443 229.595 22.99V21.7171H238.698V22.99C237.155 23.0671 236.383 23.5686 236.383 24.61C236.383 24.9186 236.461 25.2657 236.615 25.69L240.279 34.4457L243.712 26.1143C243.905 25.5743 244.059 25.1114 244.059 24.6871C244.059 23.6457 243.211 23.0286 241.783 22.99ZM309.274 21.2543C311.087 21.2543 312.09 22.7586 312.09 25.8829C312.09 31.63 308.502 36.9143 303.912 41.4657C299.901 45.4771 295.504 48.3314 291.647 48.3314C289.14 48.3314 287.288 46.8271 287.288 44.7057C287.288 43.3171 288.137 42.3143 289.525 42.3143C292.264 42.3143 291.3 45.8243 292.11 46.6343C294.925 46.2486 297.162 44.6671 298.435 42.5071C299.978 39.8457 300.325 35.7957 300.325 31.5143C300.325 27.4643 300.017 24.8029 299.091 24.8029C298.397 24.8029 297.587 26.3457 296.815 28.5443L295.504 28.1586C296.584 24.2243 298.127 21.2543 300.48 21.2543C303.488 21.2543 304.067 25.96 304.067 30.4343C304.067 33.5586 303.797 37.03 302.755 40.1543C307.037 35.5643 309.621 31.2443 309.891 27.7729C309.235 26.6543 308.348 26.2686 307.692 25.6129C307.23 25.15 306.882 24.4943 306.882 23.6843C306.882 22.2957 307.808 21.2543 309.274 21.2543ZM318.35 40.54C314.956 40.54 312.217 38.8429 312.217 34.5614C312.217 31.9771 313.297 28.7371 314.956 26.1529C316.73 23.4143 319.083 21.2543 322.824 21.2543C326.257 21.2543 328.996 22.9514 328.996 27.2329C328.996 29.8171 327.877 33.0571 326.218 35.6414C324.444 38.38 322.13 40.54 318.35 40.54ZM317.887 38.65C320.047 38.65 321.667 36.1814 323.017 33.2114C324.56 29.8557 325.138 27.1557 325.138 25.5357C325.138 23.8386 324.444 23.1443 323.287 23.1443C321.127 23.1443 319.507 25.6129 318.157 28.5829C316.653 31.9386 316.074 34.6386 316.074 36.2586C316.074 37.9557 316.73 38.65 317.887 38.65Z" fill="#070633"/>
<path d="M260.902 12.2286C264.412 12.2286 266.611 13.7329 266.611 15.8929C266.611 17.4357 265.647 18.3614 264.297 18.3614C263.217 18.3614 262.522 17.9371 262.059 16.8957C261.635 15.97 261.597 14.7743 261.095 14.08C260.864 14.0414 260.671 14.0029 260.478 14.0029C257.392 14.0029 255.579 16.3943 255.579 20.4057C255.579 20.7914 255.579 21.2157 255.618 21.7171H260.285V25.15H255.734V35.2557C255.734 38.0714 256.351 38.5729 260.285 38.7271V40H248.212V38.7271C251.298 38.5729 251.722 38.1486 251.722 35.4486V25.15H248.212V23.7229L251.722 21.9486C251.992 15.8929 255.387 12.2286 260.902 12.2286ZM270.403 40.54C264.888 40.54 261.185 36.76 261.185 30.9357C261.185 25.0729 264.888 21.2543 270.403 21.2543C275.958 21.2543 279.661 25.0343 279.661 30.8586C279.661 36.7214 275.958 40.54 270.403 40.54ZM270.712 38.65C272.756 38.65 274.839 36.9529 274.839 31.5914C274.839 27.4257 273.335 23.1443 270.133 23.1443C268.089 23.1443 265.968 24.8414 265.968 30.2029C265.968 34.4071 267.511 38.65 270.712 38.65ZM291.991 21.2543C293.65 21.2543 294.923 22.3343 294.923 24.0314C294.923 25.7286 293.804 26.8086 292.416 26.8086C290.757 26.8086 290.641 24.9571 289.561 24.5329C288.674 25.4971 287.671 27.0786 286.823 29.8557V36.0271C286.823 38.0329 287.479 38.5343 289.947 38.7271V40H280.381V38.7271C282.464 38.5343 282.811 38.1486 282.811 36.0271V26.8857C282.811 24.7257 282.349 24.1857 280.381 24.1857V23.0286L285.589 21.4857H286.823V26.9243C287.749 24.3014 289.523 21.2543 291.991 21.2543ZM333.37 40.54C331.595 40.54 330.245 39.4986 330.245 37.4157C330.245 36.5286 330.515 35.4486 331.055 34.2143L334.334 26.8857C334.72 26.1143 334.835 25.6514 334.835 25.3429C334.835 24.9571 334.642 24.8029 334.334 24.8029C333.64 24.8029 332.907 25.69 331.788 27.6957L330.4 27.2714C331.981 23.7229 333.794 21.2543 336.378 21.2543C337.882 21.2543 338.962 21.9871 338.962 23.6071C338.962 24.34 338.615 25.5743 337.998 26.9629L334.874 33.7129C334.334 34.87 334.218 35.4871 334.218 35.9114C334.218 36.6829 334.681 36.9529 335.298 36.9529C338.422 36.9529 343.012 27.8886 345.288 21.7171H348.798L344.787 34.7543C344.517 35.5643 344.44 35.95 344.44 36.22C344.44 36.6443 344.632 36.7986 344.98 36.7986C345.635 36.7986 346.33 35.9114 347.448 33.8671L348.798 34.2914C347.217 37.8786 345.52 40.3471 342.897 40.3471C341.701 40.3471 340.698 39.6143 340.698 38.0714C340.698 36.6829 341.045 35.5257 343.784 29.2H343.205C339.078 37.4929 336.764 40.54 333.37 40.54ZM368.221 21.7171V22.99C367.102 23.1057 366.253 23.8386 364.325 25.9986L360.583 30.1257L365.366 36.0657C366.986 38.0714 367.488 38.6114 368.221 38.7271V40H359.311V38.7271C360.391 38.6886 361.046 38.3029 361.046 37.6471C361.046 37.1843 360.776 36.6057 360.121 35.8343L357.922 33.0957L355.415 35.8343C354.605 36.76 354.258 37.3771 354.258 37.8786C354.258 38.4186 354.759 38.6886 356.032 38.7271V40H349.089V38.7271C350.169 38.6114 351.018 37.8786 352.985 35.7186L356.688 31.5914L351.905 25.6514C350.285 23.6457 349.822 23.1057 349.089 22.99V21.7171H357.961V22.99C356.919 23.0286 356.225 23.4143 356.225 24.07C356.225 24.5329 356.495 25.1114 357.151 25.9214L359.349 28.66L361.856 25.8829C362.666 24.9571 363.052 24.34 363.052 23.8386C363.052 23.2986 362.512 23.0286 361.239 22.99V21.7171H368.221Z" fill="#6868C8"/>
</svg>
