<svg width="368" height="54" viewBox="0 0 368 54" fill="none" xmlns="http://www.w3.org/2000/svg">
<path d="M22.1202 21.2101C20.1002 21.2101 18.2002 20.4201 16.7802 19.0001L9.08016 11.2901C8.81016 11.0201 8.66016 10.6501 8.66016 10.2701C8.66016 9.89008 8.81016 9.52008 9.08016 9.25008C9.35016 8.98008 9.72016 8.83008 10.1002 8.83008C10.4802 8.83008 10.8502 8.98008 11.1202 9.25008L18.8202 16.9601C19.7002 17.8401 20.8702 18.3301 22.1202 18.3301C23.3702 18.3301 24.5402 17.8501 25.4202 16.9601L32.9602 9.42008C33.2302 9.15008 33.6002 9.00008 33.9802 9.00008C34.3602 9.00008 34.7302 9.15008 35.0002 9.42008C35.2702 9.69008 35.4202 10.0601 35.4202 10.4401C35.4202 10.8301 35.2702 11.1901 35.0002 11.4601L27.4602 19.0001C26.0302 20.4301 24.1402 21.2101 22.1202 21.2101Z" fill="#FAFAFA"/>
<path d="M5.43008 40.4299C5.04008 40.4299 4.68008 40.2799 4.41008 40.0099C3.85008 39.4499 3.85008 38.5299 4.41008 37.9599L11.9501 30.4199C13.7701 28.5999 13.7701 25.6399 11.9501 23.8299L4.25008 16.1299C3.69008 15.5699 3.69008 14.6499 4.25008 14.0799C4.52008 13.8099 4.89008 13.6599 5.27008 13.6599C5.65008 13.6599 6.02008 13.8099 6.29008 14.0799L13.9901 21.7799C15.4201 23.2099 16.2001 25.0999 16.2001 27.1199C16.2001 29.1399 15.4101 31.0399 13.9901 32.4599L6.45008 39.9999C6.18008 40.2699 5.81008 40.4199 5.43008 40.4199V40.4299Z" fill="#FAFAFA"/>
<path d="M34.2692 45.4999C33.8792 45.4999 33.5192 45.3499 33.2492 45.0799L25.5492 37.3799C24.6692 36.4999 23.4992 36.0099 22.2492 36.0099C20.9992 36.0099 19.8292 36.4899 18.9492 37.3799L11.4092 44.9199C11.1392 45.1899 10.7692 45.3399 10.3892 45.3399C10.0092 45.3399 9.63922 45.1899 9.36922 44.9199C9.09922 44.6499 8.94922 44.2799 8.94922 43.8999C8.94922 43.5199 9.09922 43.1499 9.36922 42.8799L16.9092 35.3399C18.3392 33.9099 20.2292 33.1299 22.2492 33.1299C24.2692 33.1299 26.1692 33.9199 27.5892 35.3399L35.2892 43.0399C35.5592 43.3099 35.7092 43.6799 35.7092 44.0599C35.7092 44.4399 35.5592 44.8099 35.2892 45.0799C35.0192 45.3499 34.6492 45.4999 34.2692 45.4999Z" fill="#FAFAFA"/>
<path d="M38.7308 40.4299C38.3408 40.4299 37.9808 40.2799 37.7108 40.0099L30.0108 32.3099C28.5808 30.8799 27.8008 28.9799 27.8008 26.9699C27.8008 24.9599 28.5908 23.0499 30.0108 21.6299L37.5508 14.0899C37.8208 13.8199 38.1908 13.6699 38.5708 13.6699C38.9508 13.6699 39.3208 13.8199 39.5908 14.0899C39.8608 14.3599 40.0108 14.7299 40.0108 15.1099C40.0108 15.4899 39.8608 15.8599 39.5908 16.1299L32.0508 23.6699C31.1708 24.5499 30.6808 25.7199 30.6808 26.9699C30.6808 28.2199 31.1608 29.3899 32.0508 30.2699L39.7508 37.9699C40.3108 38.5299 40.3108 39.4499 39.7508 40.0199C39.4808 40.2899 39.1108 40.4399 38.7308 40.4399V40.4299Z" fill="#FAFAFA"/>
<path d="M22.0391 13.5C24.3891 13.5 26.2891 11.6 26.2891 9.25C26.2891 6.9 24.3891 5 22.0391 5C19.6891 5 17.7891 6.9 17.7891 9.25C17.7891 11.6 19.6891 13.5 22.0391 13.5Z" fill="#5CC196"/>
<path d="M39.75 31.29C42.1 31.29 44 29.39 44 27.04C44 24.69 42.1 22.79 39.75 22.79C37.4 22.79 35.5 24.69 35.5 27.04C35.5 29.39 37.4 31.29 39.75 31.29Z" fill="#5CC196"/>
<path d="M22.3301 49.3301C24.6801 49.3301 26.5801 47.4301 26.5801 45.0801C26.5801 42.7301 24.6801 40.8301 22.3301 40.8301C19.9801 40.8301 18.0801 42.7301 18.0801 45.0801C18.0801 47.4301 19.9801 49.3301 22.3301 49.3301Z" fill="#5CC196"/>
<path d="M4.25 31.29C6.6 31.29 8.5 29.39 8.5 27.04C8.5 24.69 6.6 22.79 4.25 22.79C1.9 22.79 0 24.69 0 27.04C0 29.39 1.9 31.29 4.25 31.29Z" fill="#5CC196"/>
<path d="M291.651 48.1901C289.301 48.1901 287.591 46.7901 287.591 44.8601C287.591 43.5901 288.351 42.7701 289.531 42.7701C290.971 42.7701 291.211 43.8301 291.391 45.3201C291.481 46.0401 291.551 46.6501 291.901 47.0001L292.011 47.1101L292.161 47.0901C294.941 46.7101 297.331 45.1501 298.701 42.8201C300.411 39.8701 300.631 35.3101 300.631 31.6701C300.631 26.6901 300.191 24.6601 299.101 24.6601C298.611 24.6601 297.821 25.0501 296.641 28.3301L295.881 28.1101C297.091 23.8601 298.641 21.7101 300.491 21.7101C302.701 21.7101 303.781 24.6101 303.781 30.5901C303.781 34.4501 303.361 37.6001 302.481 40.2101L302.981 40.5101C307.431 35.7401 309.931 31.3901 310.201 27.9501V27.8601L310.161 27.7801C309.691 26.9801 309.111 26.5301 308.591 26.1301C308.351 25.9401 308.121 25.7701 307.911 25.5601C307.581 25.2301 307.191 24.6601 307.191 23.8401C307.191 22.5701 308.031 21.7101 309.281 21.7101C310.951 21.7101 311.801 23.1701 311.801 26.0401C311.801 30.9901 309.151 36.0101 303.711 41.4101C300.621 44.5001 296.021 48.1901 291.661 48.1901H291.651ZM232.141 48.1601C230.061 48.1601 228.541 46.9901 228.541 45.3701C228.541 44.0901 229.261 43.3601 230.521 43.3601C231.461 43.3601 231.851 43.9001 232.391 44.6401C232.781 45.1801 233.231 45.8001 233.981 46.3101L234.141 46.4201L234.311 46.3201C236.071 45.2701 237.201 42.8201 238.481 39.7401L238.531 39.6201L232.811 26.7701C231.631 24.1401 231.031 23.1701 229.901 22.9001V22.1801H238.401V22.8701C236.861 23.0101 236.081 23.6501 236.081 24.7701C236.081 25.1101 236.161 25.4801 236.331 25.9501L240.281 35.3901L243.991 26.3901C244.201 25.8001 244.361 25.3201 244.361 24.8501C244.361 23.7201 243.521 22.9901 242.081 22.8701V22.1801H248.081V22.9101C246.941 23.2001 246.421 24.0501 245.481 26.3601L239.621 40.6701C237.471 45.9201 235.231 48.1601 232.151 48.1601H232.141ZM318.351 40.4001C316.171 40.4001 312.521 39.6601 312.521 34.7201C312.521 32.2201 313.551 29.0601 315.211 26.4701C317.311 23.2201 319.741 21.7101 322.831 21.7101C325.021 21.7101 328.701 22.4501 328.701 27.3901C328.701 29.8501 327.651 33.0101 325.971 35.6401C323.841 38.9301 321.491 40.4001 318.351 40.4001ZM323.291 23.0101C320.761 23.0101 319.081 26.0101 317.891 28.6201C316.551 31.6101 315.781 34.4501 315.781 36.4201C315.781 38.2101 316.491 39.1101 317.891 39.1101C320.421 39.1101 322.101 36.1101 323.291 33.5001C325.231 29.2801 325.441 26.6401 325.441 25.7001C325.441 23.4801 324.271 23.0101 323.291 23.0101ZM179.101 40.4001C176.891 40.4001 175.031 39.6501 173.731 38.2201L173.461 37.9301L172.181 39.9701H170.911V18.2501C170.911 16.1501 170.371 15.5001 168.441 15.4501V14.7301L173.561 13.0601H174.321V26.2801L174.881 25.2701C176.131 23.0201 178.141 21.7201 180.401 21.7201C184.661 21.7201 187.311 25.1201 187.311 30.6001C187.311 36.7401 184.241 40.4101 179.091 40.4101L179.101 40.4001ZM178.681 24.6701C177.041 24.6701 175.641 25.2701 174.421 26.4901L174.331 26.5801V33.4901C174.331 37.0701 175.851 39.0401 178.601 39.0401C181.681 39.0401 183.451 36.3901 183.451 31.7601C183.451 27.1301 181.661 24.6701 178.681 24.6701ZM151.371 40.4001C149.411 40.4001 147.391 39.9801 145.801 39.2301L145.631 34.4801H147.111C147.631 37.4901 149.251 39.1501 151.691 39.1501C153.751 39.1501 155.041 38.1601 155.041 36.5701C155.041 34.9801 153.941 34.2001 152.041 33.3601L149.451 32.2401C146.871 31.1301 145.621 29.4001 145.621 26.9601C145.621 23.7201 148.221 21.7101 152.421 21.7101C154.331 21.7101 156.321 22.1301 157.911 22.8801L158.081 26.9801H156.561C156.081 24.3601 154.531 22.9701 152.061 22.9701C150.031 22.9701 148.671 24.0101 148.671 25.5501C148.671 27.0901 149.771 27.9201 151.661 28.7601L154.251 29.8801C156.861 31.0201 158.081 32.6701 158.081 35.0801C158.081 38.3701 155.501 40.4101 151.361 40.4101L151.371 40.4001ZM136.301 40.4001C134.341 40.4001 132.321 39.9801 130.731 39.2301L130.551 34.4801H132.031C132.551 37.4901 134.171 39.1501 136.611 39.1501C138.681 39.1501 139.961 38.1601 139.961 36.5701C139.961 34.9801 138.861 34.2001 136.961 33.3601L134.371 32.2401C131.791 31.1301 130.541 29.4001 130.541 26.9601C130.541 23.7201 133.141 21.7101 137.341 21.7101C139.251 21.7101 141.241 22.1301 142.831 22.8801L143.001 26.9801H141.481C141.001 24.3601 139.451 22.9701 136.981 22.9701C134.951 22.9701 133.591 24.0101 133.591 25.5501C133.591 27.0901 134.691 27.9201 136.591 28.7601L139.181 29.8801C141.791 31.0201 143.011 32.6701 143.011 35.0801C143.011 38.3701 140.431 40.4101 136.291 40.4101L136.301 40.4001ZM121.321 40.4001C116.421 40.4001 113.251 36.8701 113.251 31.4001C113.251 25.4201 116.401 21.7101 121.471 21.7101C123.591 21.7101 125.251 22.3101 126.411 23.4901C127.601 24.7001 128.221 26.4701 128.231 28.7501H116.431V29.8201C116.431 34.0101 118.791 36.7201 122.441 36.7201C124.601 36.7201 126.331 35.7401 127.221 34.0101L128.181 34.3401C127.281 38.4701 125.091 40.4001 121.321 40.4001ZM121.051 22.8501C118.791 22.8501 117.231 24.3901 116.671 27.1801L116.601 27.5401H124.631V27.2401C124.631 23.6101 122.681 22.8501 121.051 22.8501ZM104.551 40.4001C99.6205 40.4001 96.4405 36.8801 96.4405 31.4401C96.4405 25.6201 99.9805 21.7101 105.241 21.7101C108.841 21.7101 111.261 23.5701 111.261 26.3501C111.261 28.0201 110.321 29.1001 108.861 29.1001C107.561 29.1001 106.691 28.3101 106.691 27.1201C106.691 26.2701 107.071 25.7601 107.461 25.2201C107.711 24.8901 107.961 24.5401 108.131 24.1101L108.211 23.9001L108.021 23.7601C107.401 23.3101 106.461 23.0501 105.451 23.0501C101.891 23.0501 99.6005 25.7101 99.6005 29.8301C99.6005 33.9501 101.961 36.7301 105.611 36.7301C107.721 36.7301 109.491 35.7201 110.391 34.0201L111.361 34.3501C110.461 38.4801 108.281 40.4101 104.531 40.4101L104.551 40.4001ZM87.7505 40.4001C82.8205 40.4001 79.6405 36.8801 79.6405 31.4401C79.6405 25.6201 83.1805 21.7101 88.4405 21.7101C92.0405 21.7101 94.4705 23.5701 94.4705 26.3501C94.4705 28.0201 93.5305 29.1001 92.0705 29.1001C90.7705 29.1001 89.9005 28.3101 89.9005 27.1201C89.9005 26.2701 90.2805 25.7601 90.6705 25.2201C90.9205 24.8901 91.1705 24.5401 91.3405 24.1101L91.4205 23.9001L91.2305 23.7601C90.6105 23.3101 89.6705 23.0501 88.6605 23.0501C85.1005 23.0501 82.8105 25.7101 82.8105 29.8301C82.8105 33.9501 85.1705 36.7301 88.8205 36.7301C90.9305 36.7301 92.7005 35.7201 93.6005 34.0201L94.5705 34.3501C93.6705 38.4801 91.4905 40.4101 87.7405 40.4101L87.7505 40.4001ZM224.551 40.2501C221.551 40.2501 219.761 38.2701 219.761 34.9601V25.0201H216.481V23.6901C219.231 23.2401 221.021 21.6101 221.671 18.9501H223.171V22.1901H228.571V25.0201H223.171V33.8801C223.171 36.1601 224.211 37.4201 226.091 37.4201C227.191 37.4201 228.171 37.0301 229.101 36.2201L229.641 36.7201C228.121 39.2901 226.721 40.2601 224.541 40.2601L224.551 40.2501ZM207.521 39.8601V39.1601C209.621 38.9301 210.141 38.3001 210.141 36.1901V27.0501C210.141 24.8301 209.541 24.1201 207.521 24.0501V23.4101L212.661 21.9301H213.551V36.1801C213.551 38.3201 214.031 38.9301 216.101 39.1501V39.8501H207.521V39.8601ZM197.881 39.8601V39.1601C200.091 38.9401 200.661 38.4001 200.661 35.4501V18.2501C200.661 16.1501 200.121 15.5001 198.191 15.4501V14.7301L203.311 13.0601H204.071V35.4601C204.071 38.4601 204.881 38.9501 206.851 39.1601V39.8601H197.881ZM188.651 39.8601V39.1601C190.751 38.9301 191.271 38.3001 191.271 36.1901V27.0501C191.271 24.8301 190.671 24.1201 188.651 24.0501V23.4101L193.791 21.9301H194.681V36.1801C194.681 38.3201 195.161 38.9301 197.221 39.1501V39.8501H188.641L188.651 39.8601ZM159.721 39.8601V39.1601C161.821 38.9301 162.341 38.3001 162.341 36.1901V27.0501C162.341 24.8301 161.741 24.1201 159.721 24.0501V23.4101L164.861 21.9301H165.751V36.1801C165.751 38.3201 166.231 38.9301 168.301 39.1501V39.8501H159.721V39.8601ZM68.8905 39.8601V38.9801C70.5305 38.8601 71.9805 38.4901 71.9805 36.9201C71.9805 36.3401 71.7605 35.6901 71.3805 34.7601L70.0705 31.6401H59.2905L57.9805 35.0301C57.6505 35.9001 57.5005 36.5301 57.5005 37.0301C57.5005 38.4501 58.7005 38.8401 60.6605 38.9701V39.8501H52.8105V38.9601C54.4505 38.7701 54.9705 37.9301 56.1405 35.1001L63.7505 16.3501L62.7205 13.8701H66.8505L75.5305 34.5501C76.8005 37.5501 77.4305 38.7201 79.0205 38.9501V39.8501H68.9005L68.8905 39.8601ZM59.8905 30.1301H69.4605L64.5305 18.2701L59.8905 30.1301ZM211.701 18.8401C210.201 18.8401 209.151 17.7901 209.151 16.2901C209.151 14.7901 210.201 13.7401 211.701 13.7401C213.201 13.7401 214.251 14.7901 214.251 16.2901C214.251 17.7901 213.201 18.8401 211.701 18.8401ZM192.821 18.8401C191.321 18.8401 190.271 17.7901 190.271 16.2901C190.271 14.7901 191.321 13.7401 192.821 13.7401C194.321 13.7401 195.371 14.7901 195.371 16.2901C195.371 17.7901 194.321 18.8401 192.821 18.8401ZM163.891 18.8401C162.391 18.8401 161.341 17.7901 161.341 16.2901C161.341 14.7901 162.391 13.7401 163.891 13.7401C165.391 13.7401 166.441 14.7901 166.441 16.2901C166.441 17.7901 165.391 18.8401 163.891 18.8401Z" fill="#FAFAFA"/>
<path d="M270.4 40.4C264.98 40.4 261.48 36.75 261.48 31.1C261.48 25.45 264.98 21.72 270.4 21.72C275.82 21.72 279.36 25.37 279.36 31.02C279.36 36.67 275.84 40.4 270.4 40.4ZM270.13 23.01C268.79 23.01 265.67 23.73 265.67 30.37C265.67 34.58 267.25 39.1199 270.71 39.1199C272.04 39.1199 275.14 38.4 275.14 31.76C275.14 27.55 273.57 23.01 270.13 23.01ZM359.61 39.86V39.1699C360.7 39.0599 361.34 38.56 361.34 37.81C361.34 37.24 361.02 36.5999 360.34 35.7999L357.93 32.79L355.19 35.79C354.32 36.78 353.95 37.45 353.95 38.04C353.95 38.98 355.03 39.14 355.72 39.18V39.86H349.38V39.1399C350.44 38.9199 351.37 38.09 353.2 36.08L357.08 31.76L352.14 25.62C350.63 23.75 350.09 23.12 349.39 22.91V22.18H357.66V22.87C356.58 22.98 355.92 23.49 355.92 24.23C355.92 24.79 356.24 25.43 356.91 26.27L359.33 29.28L362.07 26.24C362.99 25.19 363.34 24.56 363.34 23.99C363.34 23.06 362.21 22.89 361.53 22.85V22.17H367.91V22.88C366.81 23.09 365.89 23.93 364.09 25.95L360.18 30.27L365.12 36.41C366.54 38.17 367.16 38.8899 367.91 39.1199V39.8499H359.6L359.61 39.86ZM280.68 39.86V39.16C282.69 38.93 283.11 38.38 283.11 36.19V27.05C283.11 24.84 282.56 24.12 280.68 24.06V23.42L285.67 21.94H286.52V27.09L287.1 27.19C287.55 25.91 289.24 21.72 291.98 21.72C293.53 21.72 294.61 22.74 294.61 24.2C294.61 25.66 293.7 26.68 292.4 26.68C291.58 26.68 291.22 26.15 290.81 25.55C290.5 25.1 290.19 24.64 289.66 24.43L289.47 24.35L289.33 24.5C288.19 25.73 287.25 27.56 286.53 29.94V36.2C286.52 38.46 287.44 38.97 289.64 39.18V39.88H280.67L280.68 39.86ZM248.51 39.86V39.1699C251.49 38.9899 252.02 38.4 252.02 35.61V25.01H248.51V24.07L252.01 22.3V22.13C252.28 16.22 255.6 12.7 260.9 12.7C264.14 12.7 266.31 14.05 266.31 16.07C266.31 17.39 265.52 18.24 264.3 18.24C263.31 18.24 262.74 17.87 262.34 16.95C262.17 16.57 262.06 16.13 261.95 15.7C261.8 15.09 261.66 14.52 261.34 14.08L261.27 13.98L261.04 13.94C260.84 13.91 260.66 13.88 260.48 13.88C257.22 13.88 255.28 16.39 255.28 20.58C255.28 20.97 255.28 21.4 255.32 21.91L255.34 22.19H259.98V25.02H255.43V35.43C255.43 38.37 256.16 39.0099 259.98 39.1899V39.88H248.51V39.86Z" fill="#5CC196"/>
<path d="M333.37 40.6C331.5 40.6 330.34 39.44 330.34 37.58C330.34 36.7 330.61 35.64 331.14 34.42L334.42 27.09C334.76 26.41 334.93 25.89 334.93 25.51C334.93 25.1 334.72 24.87 334.33 24.87C333.62 24.87 332.9 25.68 331.74 27.74L330.54 27.37C332.36 23.32 334.16 21.52 336.38 21.52C337.96 21.52 338.86 22.34 338.86 23.77C338.86 24.5 338.5 25.74 337.9 27.08L334.78 33.83C334.19 35.09 334.12 35.69 334.12 36.07C334.12 36.82 334.53 37.21 335.3 37.21C338.52 37.21 343.17 27.89 345.36 21.97H348.66L344.69 34.88C344.44 35.63 344.34 36.06 344.34 36.38C344.34 36.84 344.55 37.06 344.98 37.06C345.65 37.06 346.32 36.3 347.5 34.15L348.67 34.52C346.81 38.7 345.14 40.41 342.91 40.41C341.9 40.41 340.81 39.84 340.81 38.23C340.81 36.85 341.17 35.67 343.89 29.4L343.95 29.26H343.16L343.13 29.31C338.83 37.96 336.55 40.6 333.38 40.6H333.37Z" fill="#5CC196"/>
</svg>
