<svg width="209" height="54" viewBox="0 0 209 54" fill="none" xmlns="http://www.w3.org/2000/svg">
<path d="M8.72282 8.73043C9.48329 7.97021 10.7161 7.97042 11.4763 8.73088L19.1796 16.4367C20.8048 18.0618 23.4407 18.0618 25.0659 16.4367L32.6063 8.89623C33.3667 8.13592 34.5994 8.13592 35.3598 8.89623C36.1201 9.65658 36.1201 10.8894 35.3598 11.6497L27.8193 19.1902C24.6734 22.336 19.5721 22.336 16.4262 19.1902L16.426 19.1899L8.72238 11.4839C7.96216 10.7235 7.96236 9.49066 8.72282 8.73043Z" fill="#FAFAFA"/>
<path d="M3.89253 13.559C4.65287 12.7987 5.8856 12.7987 6.64594 13.559L14.3496 21.2626C17.4954 24.4085 17.4954 29.5098 14.3496 32.6557L6.80914 40.1962C6.0488 40.9565 4.81607 40.9565 4.05573 40.1962C3.29538 39.4358 3.29538 38.2031 4.05573 37.4427L11.5961 29.9023C13.2213 28.2771 13.2213 25.6413 11.5961 24.0161L3.89253 16.3124C3.13218 15.5521 3.13218 14.3194 3.89253 13.559Z" fill="#FAFAFA"/>
<path d="M16.5501 34.812C19.6959 31.6662 24.7973 31.6662 27.9432 34.812L35.6468 42.5156C36.4072 43.276 36.4072 44.5087 35.6468 45.2691C34.8865 46.0294 33.6538 46.0294 32.8934 45.2691L25.1898 37.5654C23.5646 35.9403 20.9287 35.9403 19.3036 37.5654L11.7631 45.1059C11.0028 45.8662 9.77006 45.8662 9.00971 45.1059C8.24937 44.3455 8.24937 43.1128 9.00971 42.3524L16.5501 34.812Z" fill="#FAFAFA"/>
<path d="M37.1909 13.5612C37.9512 12.8009 39.1839 12.8009 39.9443 13.5612C40.7046 14.3216 40.7046 15.5543 39.9443 16.3146L32.4038 23.8551C30.7787 25.4802 30.7787 28.1161 32.4038 29.7413L40.1075 37.4449C40.8678 38.2053 40.8678 39.438 40.1075 40.1983C39.3471 40.9587 38.1143 40.9587 37.354 40.1983L29.6504 32.4947C26.5046 29.3488 26.5046 24.2475 29.6504 21.1016L37.1909 13.5612Z" fill="#FAFAFA"/>
<path d="M22.0412 13.3373C24.3885 13.3373 26.2914 11.4344 26.2914 9.08712C26.2914 6.73979 24.3885 4.83691 22.0412 4.83691C19.6939 4.83691 17.791 6.73979 17.791 9.08712C17.791 11.4344 19.6939 13.3373 22.0412 13.3373Z" fill="#5CC196"/>
<path d="M39.7502 31.13C42.0975 31.13 44.0004 29.2272 44.0004 26.8798C44.0004 24.5325 42.0975 22.6296 39.7502 22.6296C37.4029 22.6296 35.5 24.5325 35.5 26.8798C35.5 29.2272 37.4029 31.13 39.7502 31.13Z" fill="#5CC196"/>
<path d="M22.3283 49.1628C24.6756 49.1628 26.5785 47.2599 26.5785 44.9126C26.5785 42.5652 24.6756 40.6624 22.3283 40.6624C19.981 40.6624 18.0781 42.5652 18.0781 44.9126C18.0781 47.2599 19.981 49.1628 22.3283 49.1628Z" fill="#5CC196"/>
<path d="M4.2502 31.1276C6.59752 31.1276 8.5004 29.2247 8.5004 26.8774C8.5004 24.5301 6.59752 22.6272 4.2502 22.6272C1.90288 22.6272 0 24.5301 0 26.8774C0 29.2247 1.90288 31.1276 4.2502 31.1276Z" fill="#5CC196"/>
<path d="M67.153 13.4243L75.9087 34.2914C77.2973 37.57 77.8758 38.4186 79.4187 38.5343V40H68.6958V38.5343C70.8172 38.4186 71.7815 37.9557 71.7815 36.76C71.7815 36.22 71.5501 35.5643 71.203 34.7157L69.9687 31.7843H59.593L58.3587 34.9857C58.0501 35.7957 57.8958 36.4129 57.8958 36.8757C57.8958 38.0329 58.8215 38.4186 61.0587 38.5343V40H52.6115V38.5343C54.3087 38.4186 54.7715 37.7243 55.9673 34.8314L63.5272 16.2014L62.3701 13.4243H67.153ZM64.6458 18.9014L60.4415 29.6629H69.1201L64.6458 18.9014ZM140.315 21.2543C142.127 21.2543 143.13 22.7586 143.13 25.8829C143.13 31.63 139.543 36.9143 134.953 41.4657C130.942 45.4771 126.545 48.3314 122.687 48.3314C120.18 48.3314 118.329 46.8271 118.329 44.7057C118.329 43.3171 119.177 42.3143 120.566 42.3143C123.305 42.3143 122.34 45.8243 123.15 46.6343C125.966 46.2486 128.203 44.6671 129.476 42.5071C131.019 39.8457 131.366 35.7957 131.366 31.5143C131.366 27.4643 131.057 24.8029 130.132 24.8029C129.437 24.8029 128.627 26.3457 127.856 28.5443L126.545 28.1586C127.625 24.2243 129.167 21.2543 131.52 21.2543C134.529 21.2543 135.107 25.96 135.107 30.4343C135.107 33.5586 134.837 37.03 133.796 40.1543C138.077 35.5643 140.662 31.2443 140.932 27.7729C140.276 26.6543 139.389 26.2686 138.733 25.6129C138.27 25.15 137.923 24.4943 137.923 23.6843C137.923 22.2957 138.849 21.2543 140.315 21.2543ZM149.391 40.54C145.996 40.54 143.258 38.8429 143.258 34.5614C143.258 31.9771 144.338 28.7371 145.996 26.1529C147.771 23.4143 150.123 21.2543 153.865 21.2543C157.298 21.2543 160.036 22.9514 160.036 27.2329C160.036 29.8171 158.918 33.0571 157.259 35.6414C155.485 38.38 153.171 40.54 149.391 40.54ZM148.928 38.65C151.088 38.65 152.708 36.1814 154.058 33.2114C155.601 29.8557 156.179 27.1557 156.179 25.5357C156.179 23.8386 155.485 23.1443 154.328 23.1443C152.168 23.1443 150.548 25.6129 149.198 28.5829C147.693 31.9386 147.115 34.6386 147.115 36.2586C147.115 37.9557 147.771 38.65 148.928 38.65Z" fill="#FAFAFA"/>
<path d="M91.9429 12.2286C95.4529 12.2286 97.6515 13.7329 97.6515 15.8929C97.6515 17.4357 96.6872 18.3614 95.3372 18.3614C94.2572 18.3614 93.5629 17.9371 93.1001 16.8957C92.6758 15.97 92.6372 14.7743 92.1358 14.08C91.9044 14.0414 91.7115 14.0029 91.5187 14.0029C88.4329 14.0029 86.6201 16.3943 86.6201 20.4057C86.6201 20.7914 86.6201 21.2157 86.6587 21.7171H91.3258V25.15H86.7744V35.2557C86.7744 38.0714 87.3915 38.5729 91.3258 38.7271V40H79.2529V38.7271C82.3387 38.5729 82.7629 38.1486 82.7629 35.4486V25.15H79.2529V23.7229L82.7629 21.9486C83.0329 15.8929 86.4272 12.2286 91.9429 12.2286ZM101.444 40.54C95.9285 40.54 92.2256 36.76 92.2256 30.9357C92.2256 25.0729 95.9285 21.2543 101.444 21.2543C106.998 21.2543 110.701 25.0343 110.701 30.8586C110.701 36.7214 106.998 40.54 101.444 40.54ZM101.753 38.65C103.797 38.65 105.88 36.9529 105.88 31.5914C105.88 27.4257 104.376 23.1443 101.174 23.1443C99.1299 23.1443 97.0085 24.8414 97.0085 30.2029C97.0085 34.4071 98.5513 38.65 101.753 38.65ZM123.032 21.2543C124.691 21.2543 125.964 22.3343 125.964 24.0314C125.964 25.7286 124.845 26.8086 123.456 26.8086C121.798 26.8086 121.682 24.9571 120.602 24.5329C119.715 25.4971 118.712 27.0786 117.864 29.8557V36.0271C117.864 38.0329 118.519 38.5343 120.988 38.7271V40H111.422V38.7271C113.505 38.5343 113.852 38.1486 113.852 36.0271V26.8857C113.852 24.7257 113.389 24.1857 111.422 24.1857V23.0286L116.629 21.4857H117.864V26.9243C118.789 24.3014 120.564 21.2543 123.032 21.2543ZM164.41 40.54C162.636 40.54 161.286 39.4986 161.286 37.4157C161.286 36.5286 161.556 35.4486 162.096 34.2143L165.374 26.8857C165.76 26.1143 165.876 25.6514 165.876 25.3429C165.876 24.9571 165.683 24.8029 165.374 24.8029C164.68 24.8029 163.947 25.69 162.829 27.6957L161.44 27.2714C163.022 23.7229 164.834 21.2543 167.419 21.2543C168.923 21.2543 170.003 21.9871 170.003 23.6071C170.003 24.34 169.656 25.5743 169.039 26.9629L165.914 33.7129C165.374 34.87 165.259 35.4871 165.259 35.9114C165.259 36.6829 165.722 36.9529 166.339 36.9529C169.463 36.9529 174.053 27.8886 176.329 21.7171H179.839L175.827 34.7543C175.557 35.5643 175.48 35.95 175.48 36.22C175.48 36.6443 175.673 36.7986 176.02 36.7986C176.676 36.7986 177.37 35.9114 178.489 33.8671L179.839 34.2914C178.257 37.8786 176.56 40.3471 173.937 40.3471C172.742 40.3471 171.739 39.6143 171.739 38.0714C171.739 36.6829 172.086 35.5257 174.824 29.2H174.246C170.119 37.4929 167.804 40.54 164.41 40.54ZM199.261 21.7171V22.99C198.143 23.1057 197.294 23.8386 195.366 25.9986L191.624 30.1257L196.407 36.0657C198.027 38.0714 198.528 38.6114 199.261 38.7271V40H190.351V38.7271C191.431 38.6886 192.087 38.3029 192.087 37.6471C192.087 37.1843 191.817 36.6057 191.161 35.8343L188.963 33.0957L186.456 35.8343C185.646 36.76 185.298 37.3771 185.298 37.8786C185.298 38.4186 185.8 38.6886 187.073 38.7271V40H180.13V38.7271C181.21 38.6114 182.058 37.8786 184.026 35.7186L187.728 31.5914L182.946 25.6514C181.326 23.6457 180.863 23.1057 180.13 22.99V21.7171H189.001V22.99C187.96 23.0286 187.266 23.4143 187.266 24.07C187.266 24.5329 187.536 25.1114 188.191 25.9214L190.39 28.66L192.897 25.8829C193.707 24.9571 194.093 24.34 194.093 23.8386C194.093 23.2986 193.553 23.0286 192.28 22.99V21.7171H199.261Z" fill="#5CC196"/>
</svg>
