<svg width="48" height="48" viewBox="0 0 48 48" fill="none" xmlns="http://www.w3.org/2000/svg">
<circle cx="24" cy="24" r="24" fill="white"/>
<path d="M7.57436 18.7198C8.49622 17.7983 9.99064 17.7985 10.9122 18.7204L20.2504 28.0616C22.2205 30.0316 25.4158 30.0316 27.3859 28.0616L36.5266 18.9208C37.4483 17.9991 38.9427 17.9991 39.8644 18.9208C40.7861 19.8425 40.7861 21.3369 39.8644 22.2587L30.7236 31.3994C26.9102 35.2129 20.7261 35.2129 16.9127 31.3994L16.9124 31.3991L7.57382 22.0577C6.65226 21.1358 6.65251 19.6414 7.57436 18.7198Z" fill="#070633"/>
<path d="M23.7225 24.3044C26.568 24.3044 28.8747 21.9977 28.8747 19.1522C28.8747 16.3067 26.568 14 23.7225 14C20.877 14 18.5703 16.3067 18.5703 19.1522C18.5703 21.9977 20.877 24.3044 23.7225 24.3044Z" fill="#29815B"/>
</svg>
