<svg width="1176" height="784" viewBox="0 0 1176 784" fill="none" xmlns="http://www.w3.org/2000/svg">
<rect width="1176" height="784" fill="white"/>
<circle cx="246" cy="353" r="131" stroke="#898989" stroke-width="6"/>
<circle cx="588" cy="353" r="131" stroke="#898989" stroke-width="6"/>
<circle cx="930" cy="353" r="131" stroke="#898989" stroke-width="6"/>
<path d="M202.756 279.902L222.464 331H212.86L207.987 317.455H187.777L182.761 331H173.516L193.224 279.902H202.756ZM205.622 310.719L198.026 289.219L190.071 310.719H205.622ZM225.831 305.415C226.691 297.102 232.066 292.874 242.028 292.874C246.615 292.874 250.341 293.805 253.065 295.597C255.788 297.46 257.221 300.255 257.221 304.054V322.83C257.221 323.905 257.293 324.622 257.579 324.98C257.866 325.41 258.368 325.553 259.156 325.553C259.729 325.553 260.303 325.553 261.019 325.41V331.143C258.869 331.717 257.149 331.932 255.716 331.932C252.205 331.932 250.198 330.498 249.696 327.488C246.543 330.498 242.243 331.932 236.725 331.932C232.855 331.932 229.845 331 227.623 328.993C225.33 326.987 224.255 324.335 224.255 320.895C224.255 319.892 224.326 318.888 224.613 317.957C224.828 317.097 225.115 316.308 225.401 315.592C225.688 314.947 226.19 314.302 226.906 313.728C227.623 313.155 228.196 312.725 228.626 312.295C229.056 311.937 229.845 311.579 230.848 311.22C231.851 310.934 232.64 310.647 233.141 310.504C233.643 310.36 234.503 310.145 235.793 309.93C237.011 309.787 237.8 309.644 238.23 309.572C238.66 309.5 239.52 309.357 240.81 309.214C243.676 308.855 245.683 308.569 246.758 308.282C247.761 307.995 248.478 307.637 248.908 307.064C249.195 306.705 249.41 305.845 249.41 304.412C249.41 300.685 246.83 298.822 241.813 298.822C239.09 298.822 237.155 299.324 235.936 300.327C234.646 301.33 233.858 303.05 233.571 305.415H225.831ZM249.338 312.439C248.693 312.797 247.976 313.083 247.188 313.37C246.328 313.657 245.683 313.8 245.181 313.872C244.68 313.943 243.891 314.015 242.816 314.158C241.741 314.302 241.025 314.445 240.738 314.445C239.735 314.588 238.946 314.732 238.373 314.875C237.8 315.018 237.083 315.162 236.223 315.448C235.363 315.735 234.718 316.093 234.288 316.523C233.858 316.953 233.428 317.455 233.141 318.172C232.783 318.888 232.64 319.677 232.64 320.608C232.64 322.4 233.213 323.762 234.36 324.693C235.506 325.697 237.155 326.127 239.305 326.127C242.888 326.127 245.683 325.195 247.69 323.188C248.765 322.113 249.338 319.963 249.338 316.81V312.439Z" fill="#E2E2E2"/>
<path d="M204.756 361.902L224.464 413H214.86L209.987 399.455H189.777L184.761 413H175.516L195.224 361.902H204.756ZM207.622 392.719L200.026 371.219L192.071 392.719H207.622ZM227.831 387.415C228.691 379.102 234.066 374.874 244.028 374.874C248.615 374.874 252.341 375.805 255.065 377.597C257.788 379.46 259.221 382.255 259.221 386.054V404.83C259.221 405.905 259.293 406.622 259.579 406.98C259.866 407.41 260.368 407.553 261.156 407.553C261.729 407.553 262.303 407.553 263.019 407.41V413.143C260.869 413.717 259.149 413.932 257.716 413.932C254.205 413.932 252.198 412.498 251.696 409.488C248.543 412.498 244.243 413.932 238.725 413.932C234.855 413.932 231.845 413 229.623 410.993C227.33 408.987 226.255 406.335 226.255 402.895C226.255 401.892 226.326 400.888 226.613 399.957C226.828 399.097 227.115 398.308 227.401 397.592C227.688 396.947 228.19 396.302 228.906 395.728C229.623 395.155 230.196 394.725 230.626 394.295C231.056 393.937 231.845 393.579 232.848 393.22C233.851 392.934 234.64 392.647 235.141 392.504C235.643 392.36 236.503 392.145 237.793 391.93C239.011 391.787 239.8 391.644 240.23 391.572C240.66 391.5 241.52 391.357 242.81 391.214C245.676 390.855 247.683 390.569 248.758 390.282C249.761 389.995 250.478 389.637 250.908 389.064C251.195 388.705 251.41 387.845 251.41 386.412C251.41 382.685 248.83 380.822 243.813 380.822C241.09 380.822 239.155 381.324 237.936 382.327C236.646 383.33 235.858 385.05 235.571 387.415H227.831ZM251.338 394.439C250.693 394.797 249.976 395.083 249.188 395.37C248.328 395.657 247.683 395.8 247.181 395.872C246.68 395.943 245.891 396.015 244.816 396.158C243.741 396.302 243.025 396.445 242.738 396.445C241.735 396.588 240.946 396.732 240.373 396.875C239.8 397.018 239.083 397.162 238.223 397.448C237.363 397.735 236.718 398.093 236.288 398.523C235.858 398.953 235.428 399.455 235.141 400.172C234.783 400.888 234.64 401.677 234.64 402.608C234.64 404.4 235.213 405.762 236.36 406.693C237.506 407.697 239.155 408.127 241.305 408.127C244.888 408.127 247.683 407.195 249.69 405.188C250.765 404.113 251.338 401.963 251.338 398.81V394.439Z" fill="black"/>
<path d="M319.128 383.155C319.766 383.759 320.139 384.591 320.163 385.469C320.188 386.347 319.863 387.199 319.26 387.837L300.489 407.712C300.185 408.034 299.82 408.291 299.414 408.469C299.009 408.647 298.572 408.741 298.13 408.748C297.687 408.754 297.248 408.671 296.837 408.505C296.427 408.338 296.055 408.091 295.742 407.778L285.804 397.841C285.219 397.213 284.9 396.382 284.916 395.524C284.931 394.666 285.278 393.847 285.885 393.24C286.492 392.633 287.311 392.286 288.169 392.271C289.027 392.255 289.858 392.574 290.486 393.159L298.016 400.685L314.446 383.288C315.05 382.65 315.882 382.277 316.76 382.252C317.637 382.227 318.489 382.552 319.128 383.155Z" fill="#006F06"/>
<path d="M602.736 431.416C603.205 431.86 603.479 432.472 603.498 433.118C603.516 433.764 603.277 434.391 602.833 434.861L589.021 449.486C588.797 449.723 588.528 449.912 588.229 450.043C587.931 450.174 587.61 450.243 587.284 450.248C586.958 450.253 586.635 450.192 586.333 450.069C586.031 449.947 585.757 449.765 585.527 449.535L578.214 442.222C577.784 441.76 577.549 441.149 577.56 440.518C577.572 439.886 577.827 439.284 578.274 438.837C578.721 438.39 579.323 438.135 579.955 438.123C580.586 438.112 581.197 438.347 581.659 438.777L587.201 444.315L599.291 431.513C599.734 431.044 600.347 430.77 600.993 430.751C601.639 430.733 602.266 430.972 602.736 431.416Z" fill="#006F06"/>
<path d="M944.031 411.154C944.579 411.672 944.899 412.387 944.92 413.14C944.942 413.894 944.663 414.626 944.145 415.174L928.028 432.239C927.766 432.515 927.453 432.736 927.104 432.889C926.756 433.042 926.381 433.123 926.001 433.128C925.621 433.134 925.244 433.063 924.892 432.92C924.54 432.777 924.22 432.565 923.951 432.296L915.418 423.763C914.916 423.224 914.642 422.511 914.655 421.774C914.668 421.037 914.967 420.334 915.488 419.813C916.009 419.292 916.712 418.994 917.449 418.981C918.186 418.968 918.899 419.241 919.438 419.744L925.904 426.206L940.011 411.268C940.529 410.72 941.244 410.4 941.998 410.379C942.752 410.357 943.483 410.636 944.031 411.154Z" fill="#006F06"/>
<path fill-rule="evenodd" clip-rule="evenodd" d="M284 303.167L288.167 299L299 309.833L309.833 299L314 303.167L303.167 314L314 324.833L309.833 329L299 318.167L288.167 329L284 324.833L294.833 314L284 303.167Z" fill="#D22022" stroke="#D22022" stroke-width="1.48148" stroke-linecap="round" stroke-linejoin="round"/>
<path fill-rule="evenodd" clip-rule="evenodd" d="M577.5 259.417L580.417 256.5L588 264.083L595.583 256.5L598.5 259.417L590.917 267L598.5 274.583L595.583 277.5L588 269.917L580.417 277.5L577.5 274.583L585.083 267L577.5 259.417Z" fill="#D22022" stroke="#D22022" stroke-width="1.03704" stroke-linecap="round" stroke-linejoin="round"/>
<path d="M140.551 527.041L153.316 560.138H147.096L143.939 551.365H130.849L127.6 560.138H121.612L134.377 527.041H140.551ZM142.408 547.001L137.487 533.076L132.335 547.001H142.408ZM176.525 551.086C176.154 554.057 174.947 556.378 172.997 558.142C171.001 559.906 168.495 560.741 165.524 560.741C161.903 560.741 159.072 559.627 156.936 557.353C154.801 555.078 153.733 552.107 153.733 548.394C153.733 544.448 154.801 541.292 156.936 538.971C159.072 536.65 161.996 535.443 165.663 535.443C168.727 535.443 171.187 536.232 173.044 537.764C174.9 539.342 176.014 541.477 176.339 544.216H171.094C170.769 542.731 170.166 541.57 169.237 540.735C168.309 539.946 167.102 539.528 165.709 539.528C163.667 539.528 162.042 540.317 160.882 541.849C159.675 543.381 159.118 545.469 159.118 548.115C159.118 550.808 159.675 552.85 160.789 554.335C161.903 555.821 163.481 556.563 165.524 556.563C167.102 556.563 168.355 556.099 169.376 555.171C170.398 554.243 171.048 552.85 171.326 551.086H176.525ZM201.39 551.086C201.018 554.057 199.811 556.378 197.862 558.142C195.866 559.906 193.359 560.741 190.388 560.741C186.768 560.741 183.936 559.627 181.801 557.353C179.666 555.078 178.598 552.107 178.598 548.394C178.598 544.448 179.666 541.292 181.801 538.971C183.936 536.65 186.861 535.443 190.528 535.443C193.591 535.443 196.052 536.232 197.908 537.764C199.765 539.342 200.879 541.477 201.204 544.216H195.959C195.634 542.731 195.03 541.57 194.102 540.735C193.174 539.946 191.967 539.528 190.574 539.528C188.532 539.528 186.907 540.317 185.747 541.849C184.54 543.381 183.983 545.469 183.983 548.115C183.983 550.808 184.54 552.85 185.654 554.335C186.768 555.821 188.346 556.563 190.388 556.563C191.967 556.563 193.22 556.099 194.241 555.171C195.262 554.243 195.912 552.85 196.191 551.086H201.39ZM225.976 552.664C225.372 555.264 224.073 557.306 222.123 558.745C220.174 560.231 217.806 560.927 215.114 560.927C211.493 560.927 208.615 559.766 206.48 557.445C204.345 555.124 203.324 552.107 203.324 548.44C203.324 544.727 204.391 541.617 206.573 539.157C208.755 536.743 211.54 535.489 214.928 535.489C218.41 535.489 221.195 536.696 223.237 539.11C225.28 541.524 226.301 544.773 226.301 548.904V549.461H208.615C208.662 551.875 209.265 553.778 210.426 555.078C211.54 556.378 213.164 557.028 215.207 557.028C216.646 557.028 217.806 556.703 218.735 556.006C219.663 555.31 220.359 554.196 220.916 552.664H225.976ZM221.009 545.934C220.823 543.938 220.22 542.359 219.106 541.199C217.992 540.038 216.599 539.435 214.882 539.435C213.118 539.435 211.725 539.992 210.658 541.106C209.59 542.22 208.94 543.845 208.708 545.934H221.009ZM248.38 543.149H243.321C242.996 540.642 241.278 539.342 238.122 539.342C236.729 539.342 235.708 539.621 234.965 540.085C234.223 540.595 233.851 541.292 233.851 542.127C233.851 542.406 233.851 542.684 233.898 542.87C233.944 543.102 234.037 543.288 234.176 543.473C234.316 543.659 234.455 543.798 234.548 543.891C234.641 544.03 234.873 544.17 235.151 544.263C235.43 544.402 235.615 544.495 235.801 544.587C235.987 544.68 236.265 544.773 236.683 544.866C237.054 544.959 237.379 545.052 237.611 545.098C237.843 545.191 238.215 545.284 238.772 545.377C239.282 545.469 239.7 545.562 239.979 545.609C241.186 545.887 242.021 546.119 242.578 546.259C243.135 546.398 243.924 546.676 244.945 547.094C245.967 547.512 246.756 547.93 247.266 548.394C247.731 548.858 248.195 549.461 248.613 550.251C249.03 551.04 249.262 551.922 249.262 552.943C249.262 555.357 248.288 557.306 246.431 558.699C244.528 560.138 241.975 560.834 238.818 560.834C235.383 560.834 232.784 560.138 230.973 558.699C229.117 557.306 228.142 555.217 228.049 552.479H233.109C233.387 555.496 235.29 556.981 238.911 556.981C240.443 556.981 241.696 556.703 242.625 556.053C243.553 555.403 244.064 554.567 244.064 553.5C244.064 552.989 243.924 552.525 243.692 552.154C243.46 551.782 243.089 551.504 242.578 551.225C242.021 550.947 241.51 550.761 241.046 550.622C240.582 550.483 239.932 550.297 239.143 550.111L238.865 550.065C238.772 550.065 238.725 550.018 238.633 550.018C238.54 550.018 238.447 549.972 238.354 549.926C234.919 549.09 232.784 548.44 231.855 547.976C229.627 546.955 228.56 545.191 228.56 542.731C228.56 540.503 229.395 538.739 231.159 537.439C232.877 536.139 235.29 535.489 238.354 535.489C241.278 535.489 243.692 536.139 245.549 537.393C247.406 538.692 248.38 540.595 248.38 543.149ZM271.523 543.149H266.463C266.138 540.642 264.421 539.342 261.264 539.342C259.872 539.342 258.85 539.621 258.108 540.085C257.365 540.595 256.994 541.292 256.994 542.127C256.994 542.406 256.994 542.684 257.04 542.87C257.086 543.102 257.179 543.288 257.319 543.473C257.458 543.659 257.597 543.798 257.69 543.891C257.783 544.03 258.015 544.17 258.293 544.263C258.572 544.402 258.758 544.495 258.943 544.587C259.129 544.68 259.407 544.773 259.825 544.866C260.196 544.959 260.521 545.052 260.754 545.098C260.986 545.191 261.357 545.284 261.914 545.377C262.425 545.469 262.842 545.562 263.121 545.609C264.328 545.887 265.163 546.119 265.72 546.259C266.277 546.398 267.066 546.676 268.088 547.094C269.109 547.512 269.898 547.93 270.409 548.394C270.873 548.858 271.337 549.461 271.755 550.251C272.172 551.04 272.405 551.922 272.405 552.943C272.405 555.357 271.43 557.306 269.573 558.699C267.67 560.138 265.117 560.834 261.96 560.834C258.525 560.834 255.926 560.138 254.116 558.699C252.259 557.306 251.284 555.217 251.191 552.479H256.251C256.529 555.496 258.433 556.981 262.053 556.981C263.585 556.981 264.838 556.703 265.767 556.053C266.695 555.403 267.206 554.567 267.206 553.5C267.206 552.989 267.066 552.525 266.834 552.154C266.602 551.782 266.231 551.504 265.72 551.225C265.163 550.947 264.653 550.761 264.188 550.622C263.724 550.483 263.074 550.297 262.285 550.111L262.007 550.065C261.914 550.065 261.868 550.018 261.775 550.018C261.682 550.018 261.589 549.972 261.496 549.926C258.061 549.09 255.926 548.44 254.998 547.976C252.77 546.955 251.702 545.191 251.702 542.731C251.702 540.503 252.537 538.739 254.301 537.439C256.019 536.139 258.433 535.489 261.496 535.489C264.421 535.489 266.834 536.139 268.691 537.393C270.548 538.692 271.523 540.595 271.523 543.149ZM281.111 526.948V532.147H275.819V526.948H281.111ZM281.111 536.186V560.138H275.819V536.186H281.111ZM291.24 527.088V539.296C293.003 536.836 295.603 535.582 299.084 535.582C302.241 535.582 304.794 536.743 306.743 538.971C308.693 541.245 309.668 544.263 309.668 547.976C309.668 551.875 308.647 554.985 306.697 557.306C304.701 559.627 302.055 560.788 298.806 560.788C295.185 560.788 292.539 559.488 290.961 556.888V560.138H285.994V527.088H291.24ZM297.738 539.806C295.649 539.806 294.025 540.549 292.818 542.034C291.611 543.52 291.054 545.609 291.054 548.208C291.054 550.808 291.611 552.804 292.818 554.289C294.025 555.774 295.649 556.517 297.738 556.517C299.688 556.517 301.312 555.774 302.519 554.243C303.726 552.711 304.33 550.668 304.33 548.069C304.33 545.562 303.726 543.52 302.519 542.034C301.312 540.549 299.734 539.806 297.738 539.806ZM318.827 526.948V532.147H313.536V526.948H318.827ZM318.827 536.186V560.138H313.536V536.186H318.827ZM329.096 527.088V560.138H323.85V527.088H329.096ZM339.364 526.948V532.147H334.072V526.948H339.364ZM339.364 536.186V560.138H334.072V536.186H339.364ZM355.899 536.186V540.038H351.071V552.664C351.071 553.407 351.071 553.964 351.118 554.243C351.118 554.521 351.211 554.846 351.396 555.217C351.535 555.589 351.814 555.821 352.185 555.914C352.557 556.053 353.114 556.099 353.81 556.099C354.645 556.099 355.342 556.099 355.899 556.006V560.184C354.831 560.323 353.624 560.37 352.325 560.37C351.396 560.37 350.561 560.323 349.864 560.184C349.168 560.045 348.611 559.859 348.147 559.674C347.683 559.488 347.265 559.209 346.986 558.745C346.661 558.281 346.429 557.91 346.244 557.631C346.058 557.353 345.965 556.796 345.872 556.053C345.78 555.31 345.78 554.753 345.78 554.382V552.339V552.061V551.782V551.457V540.038H341.788V536.186H345.78V528.991H351.071V536.186H355.899ZM379.851 536.186L370.985 559.674C370.892 559.906 370.707 560.37 370.475 561.066C370.196 561.762 370.057 562.227 369.964 562.459C369.871 562.737 369.685 563.155 369.407 563.758C369.128 564.408 368.943 564.826 368.804 565.058L368.107 566.172C367.782 566.683 367.504 567.054 367.225 567.24C366.947 567.472 366.622 567.75 366.25 568.075C365.879 568.4 365.461 568.632 365.09 568.772C364.672 568.911 364.208 569.05 363.697 569.143C363.187 569.236 362.63 569.282 362.073 569.282C361.052 569.282 359.845 569.189 358.406 569.004V564.547C359.52 564.78 360.448 564.872 361.191 564.872C361.562 564.872 361.887 564.826 362.212 564.733C362.491 564.64 362.769 564.455 363.048 564.176C363.28 563.898 363.512 563.666 363.697 563.433C363.883 563.201 364.022 562.876 364.208 562.459C364.394 562.041 364.533 561.716 364.626 561.484C364.719 561.252 364.812 560.88 364.997 560.37C365.136 559.906 365.229 559.581 365.276 559.441L356.085 536.186H361.887L368.293 553.825L374.327 536.186H379.851Z" fill="black"/>
<path d="M529.796 527.088V547.326C529.796 556.331 525.293 560.788 516.334 560.788C511.646 560.788 508.211 559.674 505.983 557.445C503.755 555.217 502.687 551.829 502.687 547.233V527.088H508.49V548.394C508.49 553.5 511.135 556.006 516.427 556.006C518.005 556.006 519.352 555.821 520.373 555.357C521.394 554.939 522.183 554.289 522.694 553.361C523.158 552.479 523.529 551.504 523.715 550.483C523.901 549.461 523.993 548.162 523.993 546.583V527.088H529.796ZM553.826 543.149H548.766C548.441 540.642 546.724 539.342 543.567 539.342C542.175 539.342 541.153 539.621 540.411 540.085C539.668 540.595 539.297 541.292 539.297 542.127C539.297 542.406 539.297 542.684 539.343 542.87C539.389 543.102 539.482 543.288 539.622 543.473C539.761 543.659 539.9 543.798 539.993 543.891C540.086 544.03 540.318 544.17 540.596 544.263C540.875 544.402 541.061 544.495 541.246 544.587C541.432 544.68 541.71 544.773 542.128 544.866C542.5 544.959 542.824 545.052 543.057 545.098C543.289 545.191 543.66 545.284 544.217 545.377C544.728 545.469 545.145 545.562 545.424 545.609C546.631 545.887 547.466 546.119 548.023 546.259C548.58 546.398 549.369 546.676 550.391 547.094C551.412 547.512 552.201 547.93 552.712 548.394C553.176 548.858 553.64 549.461 554.058 550.251C554.475 551.04 554.708 551.922 554.708 552.943C554.708 555.357 553.733 557.306 551.876 558.699C549.973 560.138 547.42 560.834 544.263 560.834C540.828 560.834 538.229 560.138 536.419 558.699C534.562 557.306 533.587 555.217 533.494 552.479H538.554C538.832 555.496 540.736 556.981 544.356 556.981C545.888 556.981 547.141 556.703 548.07 556.053C548.998 555.403 549.509 554.567 549.509 553.5C549.509 552.989 549.369 552.525 549.137 552.154C548.905 551.782 548.534 551.504 548.023 551.225C547.466 550.947 546.956 550.761 546.492 550.622C546.027 550.483 545.377 550.297 544.588 550.111L544.31 550.065C544.217 550.065 544.171 550.018 544.078 550.018C543.985 550.018 543.892 549.972 543.799 549.926C540.364 549.09 538.229 548.44 537.301 547.976C535.073 546.955 534.005 545.191 534.005 542.731C534.005 540.503 534.84 538.739 536.604 537.439C538.322 536.139 540.736 535.489 543.799 535.489C546.724 535.489 549.137 536.139 550.994 537.393C552.851 538.692 553.826 540.595 553.826 543.149ZM557.751 543.566C558.308 538.182 561.789 535.443 568.241 535.443C571.212 535.443 573.626 536.046 575.39 537.207C577.153 538.414 578.082 540.224 578.082 542.684V554.846C578.082 555.542 578.128 556.006 578.314 556.239C578.5 556.517 578.825 556.61 579.335 556.61C579.706 556.61 580.078 556.61 580.542 556.517V560.231C579.149 560.602 578.035 560.741 577.107 560.741C574.833 560.741 573.533 559.813 573.208 557.863C571.165 559.813 568.38 560.741 564.806 560.741C562.3 560.741 560.35 560.138 558.911 558.838C557.426 557.538 556.729 555.821 556.729 553.593C556.729 552.943 556.776 552.293 556.961 551.69C557.101 551.133 557.286 550.622 557.472 550.158C557.658 549.74 557.983 549.322 558.447 548.951C558.911 548.579 559.282 548.301 559.561 548.022C559.839 547.79 560.35 547.558 561 547.326C561.65 547.141 562.16 546.955 562.485 546.862C562.81 546.769 563.367 546.63 564.203 546.491C564.992 546.398 565.502 546.305 565.781 546.259C566.059 546.212 566.616 546.119 567.452 546.026C569.309 545.794 570.608 545.609 571.305 545.423C571.955 545.237 572.419 545.005 572.697 544.634C572.883 544.402 573.022 543.845 573.022 542.916C573.022 540.503 571.351 539.296 568.102 539.296C566.338 539.296 565.085 539.621 564.296 540.271C563.46 540.92 562.949 542.034 562.764 543.566H557.751ZM572.976 548.115C572.558 548.347 572.094 548.533 571.583 548.719C571.026 548.904 570.608 548.997 570.284 549.044C569.959 549.09 569.448 549.137 568.752 549.229C568.055 549.322 567.591 549.415 567.406 549.415C566.756 549.508 566.245 549.601 565.874 549.694C565.502 549.786 565.038 549.879 564.481 550.065C563.924 550.251 563.506 550.483 563.228 550.761C562.949 551.04 562.671 551.365 562.485 551.829C562.253 552.293 562.16 552.804 562.16 553.407C562.16 554.567 562.532 555.449 563.274 556.053C564.017 556.703 565.085 556.981 566.477 556.981C568.798 556.981 570.608 556.378 571.908 555.078C572.604 554.382 572.976 552.989 572.976 550.947V548.115ZM588.139 527.088V539.296C589.903 536.836 592.502 535.582 595.984 535.582C599.14 535.582 601.693 536.743 603.643 538.971C605.592 541.245 606.567 544.263 606.567 547.976C606.567 551.875 605.546 554.985 603.596 557.306C601.6 559.627 598.955 560.788 595.705 560.788C592.085 560.788 589.439 559.488 587.861 556.888V560.138H582.894V527.088H588.139ZM594.638 539.806C592.549 539.806 590.924 540.549 589.717 542.034C588.51 543.52 587.953 545.609 587.953 548.208C587.953 550.808 588.51 552.804 589.717 554.289C590.924 555.774 592.549 556.517 594.638 556.517C596.587 556.517 598.212 555.774 599.419 554.243C600.626 552.711 601.229 550.668 601.229 548.069C601.229 545.562 600.626 543.52 599.419 542.034C598.212 540.549 596.634 539.806 594.638 539.806ZM615.727 526.948V532.147H610.435V526.948H615.727ZM615.727 536.186V560.138H610.435V536.186H615.727ZM625.995 527.088V560.138H620.75V527.088H625.995ZM636.263 526.948V532.147H630.972V526.948H636.263ZM636.263 536.186V560.138H630.972V536.186H636.263ZM652.798 536.186V540.038H647.971V552.664C647.971 553.407 647.971 553.964 648.017 554.243C648.017 554.521 648.11 554.846 648.296 555.217C648.435 555.589 648.713 555.821 649.085 555.914C649.456 556.053 650.013 556.099 650.709 556.099C651.545 556.099 652.241 556.099 652.798 556.006V560.184C651.731 560.323 650.524 560.37 649.224 560.37C648.296 560.37 647.46 560.323 646.764 560.184C646.068 560.045 645.511 559.859 645.046 559.674C644.582 559.488 644.164 559.209 643.886 558.745C643.561 558.281 643.329 557.91 643.143 557.631C642.958 557.353 642.865 556.796 642.772 556.053C642.679 555.31 642.679 554.753 642.679 554.382V552.339V552.061V551.782V551.457V540.038H638.687V536.186H642.679V528.991H647.971V536.186H652.798ZM676.751 536.186L667.885 559.674C667.792 559.906 667.606 560.37 667.374 561.066C667.096 561.762 666.956 562.227 666.863 562.459C666.771 562.737 666.585 563.155 666.306 563.758C666.028 564.408 665.842 564.826 665.703 565.058L665.007 566.172C664.682 566.683 664.403 567.054 664.125 567.24C663.846 567.472 663.521 567.75 663.15 568.075C662.779 568.4 662.361 568.632 661.989 568.772C661.572 568.911 661.108 569.05 660.597 569.143C660.086 569.236 659.529 569.282 658.972 569.282C657.951 569.282 656.744 569.189 655.305 569.004V564.547C656.419 564.78 657.348 564.872 658.09 564.872C658.462 564.872 658.787 564.826 659.112 564.733C659.39 564.64 659.669 564.455 659.947 564.176C660.179 563.898 660.411 563.666 660.597 563.433C660.783 563.201 660.922 562.876 661.108 562.459C661.293 562.041 661.432 561.716 661.525 561.484C661.618 561.252 661.711 560.88 661.897 560.37C662.036 559.906 662.129 559.581 662.175 559.441L652.984 536.186H658.787L665.192 553.825L671.227 536.186H676.751Z" fill="black"/>
<path d="M837.578 527.088V560.138H831.729V527.088H837.578ZM848.037 536.186V539.714C849.94 536.928 852.586 535.536 855.975 535.536C858.667 535.536 860.709 536.279 862.056 537.764C863.402 539.249 864.098 541.385 864.098 544.17V560.138H858.806V546.212C858.806 545.284 858.76 544.495 858.667 543.845C858.574 543.195 858.342 542.545 858.064 541.895C857.785 541.245 857.321 540.781 856.671 540.456C856.021 540.131 855.186 539.946 854.164 539.946C850.265 539.946 848.316 542.406 848.316 547.233V560.138H843.024V536.186H848.037ZM890.427 551.086C890.056 554.057 888.849 556.378 886.9 558.142C884.904 559.906 882.397 560.741 879.426 560.741C875.806 560.741 872.974 559.627 870.839 557.353C868.704 555.078 867.636 552.107 867.636 548.394C867.636 544.448 868.704 541.292 870.839 538.971C872.974 536.65 875.898 535.443 879.566 535.443C882.629 535.443 885.089 536.232 886.946 537.764C888.803 539.342 889.917 541.477 890.242 544.216H884.997C884.672 542.731 884.068 541.57 883.14 540.735C882.211 539.946 881.005 539.528 879.612 539.528C877.57 539.528 875.945 540.317 874.784 541.849C873.578 543.381 873.021 545.469 873.021 548.115C873.021 550.808 873.578 552.85 874.692 554.335C875.806 555.821 877.384 556.563 879.426 556.563C881.005 556.563 882.258 556.099 883.279 555.171C884.3 554.243 884.95 552.85 885.229 551.086H890.427ZM898.999 527.088V560.138H893.754V527.088H898.999ZM924.864 536.186V560.138H919.897V556.563C917.855 559.395 915.256 560.788 912.006 560.788C909.36 560.788 907.318 560.045 905.925 558.559C904.533 557.074 903.837 554.892 903.837 552.061V536.186H909.128V549.879C909.128 550.715 909.128 551.411 909.175 551.922C909.175 552.432 909.268 552.989 909.453 553.639C909.639 554.289 909.871 554.753 910.196 555.078C910.521 555.449 910.985 555.728 911.589 555.96C912.192 556.239 912.935 556.331 913.817 556.331C915.766 556.331 917.252 555.635 918.18 554.243C919.108 552.85 919.573 551.04 919.573 548.858V536.186H924.864ZM948.548 543.149H943.488C943.163 540.642 941.446 539.342 938.289 539.342C936.897 539.342 935.876 539.621 935.133 540.085C934.39 540.595 934.019 541.292 934.019 542.127C934.019 542.406 934.019 542.684 934.065 542.87C934.112 543.102 934.205 543.288 934.344 543.473C934.483 543.659 934.622 543.798 934.715 543.891C934.808 544.03 935.04 544.17 935.319 544.263C935.597 544.402 935.783 544.495 935.968 544.587C936.154 544.68 936.433 544.773 936.85 544.866C937.222 544.959 937.547 545.052 937.779 545.098C938.011 545.191 938.382 545.284 938.939 545.377C939.45 545.469 939.868 545.562 940.146 545.609C941.353 545.887 942.188 546.119 942.746 546.259C943.303 546.398 944.092 546.676 945.113 547.094C946.134 547.512 946.923 547.93 947.434 548.394C947.898 548.858 948.362 549.461 948.78 550.251C949.198 551.04 949.43 551.922 949.43 552.943C949.43 555.357 948.455 557.306 946.598 558.699C944.695 560.138 942.142 560.834 938.986 560.834C935.551 560.834 932.951 560.138 931.141 558.699C929.284 557.306 928.309 555.217 928.217 552.479H933.276C933.555 555.496 935.458 556.981 939.078 556.981C940.61 556.981 941.864 556.703 942.792 556.053C943.72 555.403 944.231 554.567 944.231 553.5C944.231 552.989 944.092 552.525 943.86 552.154C943.627 551.782 943.256 551.504 942.746 551.225C942.188 550.947 941.678 550.761 941.214 550.622C940.75 550.483 940.1 550.297 939.311 550.111L939.032 550.065C938.939 550.065 938.893 550.018 938.8 550.018C938.707 550.018 938.614 549.972 938.521 549.926C935.086 549.09 932.951 548.44 932.023 547.976C929.795 546.955 928.727 545.191 928.727 542.731C928.727 540.503 929.563 538.739 931.327 537.439C933.044 536.139 935.458 535.489 938.521 535.489C941.446 535.489 943.86 536.139 945.716 537.393C947.573 538.692 948.548 540.595 948.548 543.149ZM958.136 526.948V532.147H952.844V526.948H958.136ZM958.136 536.186V560.138H952.844V536.186H958.136ZM960.559 536.186H966.315L972.442 554.614L978.338 536.186H983.815L975.228 560.184H969.286L960.559 536.186ZM991.546 526.948V532.147H986.255V526.948H991.546ZM991.546 536.186V560.138H986.255V536.186H991.546ZM1008.08 536.186V540.038H1003.25V552.664C1003.25 553.407 1003.25 553.964 1003.3 554.243C1003.3 554.521 1003.39 554.846 1003.58 555.217C1003.72 555.589 1004 555.821 1004.37 555.914C1004.74 556.053 1005.3 556.099 1005.99 556.099C1006.83 556.099 1007.52 556.099 1008.08 556.006V560.184C1007.01 560.323 1005.81 560.37 1004.51 560.37C1003.58 560.37 1002.74 560.323 1002.05 560.184C1001.35 560.045 1000.79 559.859 1000.33 559.674C999.865 559.488 999.447 559.209 999.169 558.745C998.844 558.281 998.612 557.91 998.426 557.631C998.24 557.353 998.147 556.796 998.055 556.053C997.962 555.31 997.962 554.753 997.962 554.382V552.339V552.061V551.782V551.457V540.038H993.97V536.186H997.962V528.991H1003.25V536.186H1008.08ZM1032.03 536.186L1023.17 559.674C1023.07 559.906 1022.89 560.37 1022.66 561.066C1022.38 561.762 1022.24 562.227 1022.15 562.459C1022.05 562.737 1021.87 563.155 1021.59 563.758C1021.31 564.408 1021.12 564.826 1020.99 565.058L1020.29 566.172C1019.96 566.683 1019.69 567.054 1019.41 567.24C1019.13 567.472 1018.8 567.75 1018.43 568.075C1018.06 568.4 1017.64 568.632 1017.27 568.772C1016.85 568.911 1016.39 569.05 1015.88 569.143C1015.37 569.236 1014.81 569.282 1014.26 569.282C1013.23 569.282 1012.03 569.189 1010.59 569.004V564.547C1011.7 564.78 1012.63 564.872 1013.37 564.872C1013.74 564.872 1014.07 564.826 1014.39 564.733C1014.67 564.64 1014.95 564.455 1015.23 564.176C1015.46 563.898 1015.69 563.666 1015.88 563.433C1016.07 563.201 1016.2 562.876 1016.39 562.459C1016.58 562.041 1016.72 561.716 1016.81 561.484C1016.9 561.252 1016.99 560.88 1017.18 560.37C1017.32 559.906 1017.41 559.581 1017.46 559.441L1008.27 536.186H1014.07L1020.48 553.825L1026.51 536.186H1032.03Z" fill="black"/>
<path d="M509.727 311.166C509.727 304.999 514.726 300 520.893 300H654.107C660.273 300 665.273 304.999 665.273 311.166V338.18C665.273 344.346 660.273 349.345 654.107 349.345H520.893C514.726 349.345 509.727 344.346 509.727 338.18V311.166Z" fill="#808080"/>
<path d="M565.361 320.695C565.287 320.038 564.982 319.529 564.445 319.169C563.909 318.803 563.233 318.62 562.419 318.62C561.836 318.62 561.332 318.713 560.907 318.898C560.481 319.078 560.15 319.328 559.914 319.647C559.683 319.962 559.567 320.32 559.567 320.723C559.567 321.061 559.646 321.352 559.803 321.597C559.965 321.842 560.176 322.048 560.435 322.215C560.698 322.377 560.981 322.513 561.281 322.624C561.582 322.731 561.871 322.818 562.149 322.888L563.536 323.249C563.99 323.36 564.455 323.51 564.931 323.7C565.408 323.889 565.849 324.139 566.256 324.449C566.663 324.759 566.992 325.143 567.242 325.601C567.496 326.059 567.623 326.607 567.623 327.245C567.623 328.05 567.415 328.765 566.999 329.39C566.587 330.014 565.988 330.507 565.202 330.868C564.42 331.228 563.474 331.409 562.364 331.409C561.3 331.409 560.379 331.24 559.602 330.902C558.825 330.565 558.217 330.086 557.777 329.466C557.338 328.841 557.095 328.101 557.049 327.245H559.2C559.241 327.759 559.408 328.187 559.699 328.529C559.995 328.867 560.372 329.119 560.83 329.285C561.293 329.447 561.799 329.528 562.35 329.528C562.956 329.528 563.495 329.434 563.967 329.244C564.443 329.05 564.818 328.781 565.091 328.439C565.364 328.092 565.5 327.687 565.5 327.225C565.5 326.804 565.38 326.459 565.139 326.191C564.903 325.922 564.582 325.7 564.175 325.525C563.772 325.349 563.317 325.194 562.808 325.06L561.129 324.602C559.991 324.292 559.089 323.836 558.422 323.235C557.761 322.633 557.43 321.838 557.43 320.848C557.43 320.029 557.652 319.314 558.096 318.704C558.54 318.093 559.142 317.619 559.9 317.281C560.659 316.939 561.515 316.768 562.468 316.768C563.43 316.768 564.279 316.937 565.014 317.274C565.754 317.612 566.337 318.077 566.763 318.669C567.188 319.257 567.411 319.932 567.429 320.695H565.361ZM576.184 326.753V320.515H578.266V331.173H576.226V329.327H576.115C575.87 329.896 575.477 330.37 574.935 330.75C574.399 331.124 573.73 331.312 572.93 331.312C572.245 331.312 571.639 331.161 571.112 330.861C570.589 330.555 570.178 330.104 569.877 329.508C569.581 328.911 569.433 328.173 569.433 327.294V320.515H571.507V327.044C571.507 327.771 571.709 328.349 572.111 328.779C572.514 329.209 573.036 329.424 573.679 329.424C574.068 329.424 574.454 329.327 574.838 329.133C575.227 328.939 575.548 328.645 575.803 328.252C576.062 327.858 576.189 327.359 576.184 326.753ZM580.634 331.173V316.962H582.709V322.243H582.834C582.954 322.021 583.127 321.764 583.354 321.472C583.581 321.181 583.895 320.926 584.298 320.709C584.7 320.487 585.232 320.376 585.894 320.376C586.754 320.376 587.522 320.593 588.197 321.028C588.873 321.463 589.402 322.09 589.786 322.909C590.175 323.727 590.369 324.713 590.369 325.865C590.369 327.016 590.177 328.004 589.793 328.828C589.409 329.646 588.882 330.278 588.211 330.722C587.54 331.161 586.775 331.381 585.914 331.381C585.267 331.381 584.737 331.272 584.325 331.055C583.918 330.837 583.599 330.583 583.368 330.292C583.137 330 582.958 329.741 582.834 329.514H582.66V331.173H580.634ZM582.667 325.844C582.667 326.593 582.776 327.25 582.993 327.814C583.211 328.379 583.525 328.821 583.937 329.14C584.349 329.454 584.853 329.612 585.45 329.612C586.069 329.612 586.587 329.447 587.004 329.119C587.42 328.786 587.735 328.335 587.947 327.766C588.165 327.197 588.274 326.556 588.274 325.844C588.274 325.141 588.167 324.509 587.954 323.95C587.746 323.39 587.432 322.948 587.011 322.624C586.594 322.3 586.074 322.138 585.45 322.138C584.848 322.138 584.339 322.293 583.923 322.603C583.511 322.913 583.199 323.346 582.986 323.901C582.773 324.456 582.667 325.104 582.667 325.844ZM592.113 331.173V320.515H594.104V322.249H594.236C594.458 321.662 594.821 321.204 595.325 320.876C595.83 320.543 596.433 320.376 597.136 320.376C597.849 320.376 598.446 320.543 598.927 320.876C599.412 321.209 599.771 321.667 600.002 322.249H600.113C600.368 321.681 600.772 321.227 601.327 320.889C601.883 320.547 602.544 320.376 603.312 320.376C604.279 320.376 605.067 320.679 605.678 321.285C606.293 321.891 606.601 322.805 606.601 324.026V331.173H604.526V324.22C604.526 323.498 604.33 322.976 603.936 322.652C603.543 322.328 603.074 322.166 602.528 322.166C601.852 322.166 601.327 322.374 600.953 322.791C600.578 323.202 600.391 323.732 600.391 324.38V331.173H598.323V324.088C598.323 323.51 598.143 323.045 597.782 322.694C597.421 322.342 596.951 322.166 596.373 322.166C595.98 322.166 595.617 322.27 595.284 322.478C594.955 322.682 594.689 322.967 594.486 323.332C594.287 323.697 594.187 324.121 594.187 324.602V331.173H592.113ZM608.796 331.173V320.515H610.87V331.173H608.796ZM609.843 318.87C609.482 318.87 609.173 318.75 608.913 318.509C608.659 318.264 608.532 317.973 608.532 317.635C608.532 317.293 608.659 317.001 608.913 316.761C609.173 316.516 609.482 316.393 609.843 316.393C610.204 316.393 610.512 316.516 610.766 316.761C611.025 317.001 611.155 317.293 611.155 317.635C611.155 317.973 611.025 318.264 610.766 318.509C610.512 318.75 610.204 318.87 609.843 318.87ZM618.05 320.515V322.18H612.229V320.515H618.05ZM613.79 317.961H615.865V328.043C615.865 328.446 615.925 328.749 616.045 328.952C616.165 329.151 616.32 329.288 616.51 329.362C616.704 329.431 616.915 329.466 617.141 329.466C617.308 329.466 617.454 329.454 617.578 329.431C617.703 329.408 617.801 329.39 617.87 329.376L618.245 331.09C618.124 331.136 617.953 331.182 617.731 331.228C617.509 331.279 617.232 331.307 616.898 331.312C616.353 331.321 615.844 331.224 615.372 331.02C614.9 330.817 614.518 330.502 614.227 330.077C613.936 329.651 613.79 329.117 613.79 328.474V317.961Z" fill="white"/>
<path d="M498 374.166C498 367.999 502.999 363 509.166 363H665.834C672.001 363 677 367.999 677 374.166V401.18C677 407.346 672.001 412.345 665.834 412.345H509.166C502.999 412.345 498 407.346 498 401.18V374.166Z" fill="#0970E6"/>
<path d="M534.881 383.695C534.807 383.038 534.502 382.529 533.965 382.169C533.429 381.803 532.753 381.62 531.939 381.62C531.356 381.62 530.852 381.713 530.426 381.898C530.001 382.078 529.67 382.328 529.434 382.647C529.203 382.962 529.087 383.32 529.087 383.723C529.087 384.061 529.166 384.352 529.323 384.597C529.485 384.842 529.695 385.048 529.955 385.215C530.218 385.377 530.5 385.513 530.801 385.624C531.102 385.731 531.391 385.818 531.668 385.888L533.056 386.249C533.51 386.36 533.974 386.51 534.451 386.7C534.927 386.889 535.369 387.139 535.776 387.449C536.183 387.759 536.512 388.143 536.762 388.601C537.016 389.059 537.143 389.607 537.143 390.245C537.143 391.05 536.935 391.765 536.519 392.39C536.107 393.014 535.508 393.507 534.722 393.868C533.94 394.228 532.994 394.409 531.884 394.409C530.82 394.409 529.899 394.24 529.122 393.902C528.345 393.565 527.736 393.086 527.297 392.466C526.857 391.841 526.615 391.101 526.568 390.245H528.719C528.761 390.759 528.928 391.187 529.219 391.529C529.515 391.867 529.892 392.119 530.35 392.285C530.813 392.447 531.319 392.528 531.87 392.528C532.476 392.528 533.015 392.434 533.486 392.244C533.963 392.05 534.338 391.781 534.61 391.439C534.883 391.092 535.02 390.687 535.02 390.225C535.02 389.804 534.9 389.459 534.659 389.191C534.423 388.922 534.102 388.7 533.695 388.525C533.292 388.349 532.836 388.194 532.328 388.06L530.648 387.602C529.51 387.292 528.608 386.836 527.942 386.235C527.281 385.633 526.95 384.838 526.95 383.848C526.95 383.029 527.172 382.314 527.616 381.704C528.06 381.093 528.662 380.619 529.42 380.281C530.179 379.939 531.035 379.768 531.988 379.768C532.95 379.768 533.799 379.937 534.534 380.274C535.274 380.612 535.857 381.077 536.283 381.669C536.708 382.257 536.93 382.932 536.949 383.695H534.881ZM542.054 394.409C541.379 394.409 540.768 394.284 540.222 394.034C539.677 393.78 539.244 393.412 538.925 392.931C538.61 392.45 538.453 391.86 538.453 391.161C538.453 390.56 538.569 390.065 538.8 389.676C539.031 389.288 539.344 388.98 539.737 388.754C540.13 388.527 540.569 388.356 541.055 388.24C541.541 388.124 542.036 388.037 542.54 387.976C543.178 387.902 543.696 387.842 544.094 387.796C544.492 387.745 544.781 387.664 544.962 387.553C545.142 387.442 545.232 387.262 545.232 387.012V386.963C545.232 386.357 545.061 385.888 544.719 385.555C544.381 385.222 543.877 385.055 543.206 385.055C542.508 385.055 541.957 385.21 541.555 385.52C541.157 385.825 540.882 386.165 540.729 386.54L538.779 386.096C539.01 385.448 539.348 384.926 539.792 384.528C540.241 384.125 540.757 383.834 541.34 383.654C541.922 383.469 542.535 383.376 543.178 383.376C543.604 383.376 544.055 383.427 544.531 383.529C545.013 383.626 545.461 383.806 545.878 384.07C546.299 384.334 546.643 384.711 546.911 385.201C547.18 385.687 547.314 386.318 547.314 387.095V394.173H545.288V392.716H545.205C545.07 392.984 544.869 393.248 544.601 393.507C544.333 393.766 543.988 393.981 543.567 394.152C543.146 394.323 542.642 394.409 542.054 394.409ZM542.505 392.743C543.079 392.743 543.569 392.63 543.976 392.403C544.388 392.177 544.7 391.881 544.913 391.515C545.131 391.145 545.239 390.75 545.239 390.329V388.955C545.165 389.029 545.022 389.098 544.809 389.163C544.601 389.223 544.363 389.276 544.094 389.323C543.826 389.364 543.565 389.404 543.31 389.441C543.056 389.473 542.843 389.501 542.672 389.524C542.269 389.575 541.902 389.66 541.569 389.781C541.24 389.901 540.976 390.074 540.778 390.301C540.583 390.523 540.486 390.819 540.486 391.189C540.486 391.703 540.676 392.091 541.055 392.355C541.434 392.614 541.918 392.743 542.505 392.743ZM558.227 383.515L554.362 394.173H552.142L548.27 383.515H550.497L553.196 391.717H553.307L556 383.515H558.227ZM563.822 394.388C562.772 394.388 561.867 394.164 561.109 393.715C560.355 393.262 559.772 392.625 559.36 391.807C558.953 390.983 558.749 390.019 558.749 388.913C558.749 387.821 558.953 386.859 559.36 386.027C559.772 385.194 560.345 384.544 561.081 384.077C561.821 383.61 562.686 383.376 563.676 383.376C564.277 383.376 564.86 383.475 565.425 383.674C565.989 383.873 566.495 384.186 566.944 384.611C567.393 385.037 567.747 385.59 568.006 386.27C568.265 386.945 568.394 387.766 568.394 388.733V389.468H559.922V387.914H566.361C566.361 387.368 566.25 386.885 566.028 386.464C565.806 386.038 565.494 385.703 565.092 385.458C564.694 385.212 564.226 385.09 563.69 385.09C563.107 385.09 562.598 385.233 562.163 385.52C561.733 385.802 561.4 386.172 561.164 386.63C560.933 387.084 560.817 387.576 560.817 388.108V389.323C560.817 390.035 560.942 390.641 561.192 391.141C561.446 391.64 561.8 392.022 562.254 392.285C562.707 392.545 563.237 392.674 563.843 392.674C564.236 392.674 564.594 392.619 564.918 392.508C565.242 392.392 565.522 392.221 565.758 391.994C565.994 391.767 566.174 391.488 566.299 391.154L568.263 391.508C568.105 392.087 567.823 392.593 567.416 393.028C567.014 393.458 566.507 393.794 565.896 394.034C565.29 394.27 564.599 394.388 563.822 394.388ZM579.185 394.388C578.153 394.388 577.265 394.154 576.52 393.687C575.78 393.215 575.211 392.565 574.813 391.737C574.415 390.909 574.216 389.961 574.216 388.892C574.216 387.81 574.42 386.855 574.827 386.027C575.234 385.194 575.808 384.544 576.548 384.077C577.288 383.61 578.16 383.376 579.164 383.376C579.973 383.376 580.695 383.526 581.329 383.827C581.962 384.123 582.474 384.539 582.862 385.076C583.255 385.613 583.489 386.239 583.563 386.956H581.544C581.433 386.457 581.178 386.027 580.781 385.666C580.387 385.305 579.86 385.125 579.198 385.125C578.62 385.125 578.114 385.277 577.679 385.583C577.249 385.883 576.913 386.313 576.673 386.873C576.432 387.428 576.312 388.085 576.312 388.844C576.312 389.621 576.43 390.292 576.666 390.856C576.902 391.42 577.235 391.858 577.665 392.168C578.1 392.477 578.611 392.632 579.198 392.632C579.592 392.632 579.948 392.561 580.267 392.417C580.591 392.269 580.861 392.059 581.079 391.786C581.301 391.513 581.456 391.185 581.544 390.801H583.563C583.489 391.49 583.265 392.105 582.89 392.646C582.515 393.188 582.013 393.613 581.384 393.923C580.76 394.233 580.027 394.388 579.185 394.388ZM587.27 387.845V394.173H585.196V379.962H587.242V385.249H587.374C587.624 384.676 588.006 384.22 588.519 383.883C589.033 383.545 589.703 383.376 590.531 383.376C591.262 383.376 591.901 383.526 592.447 383.827C592.997 384.128 593.423 384.576 593.723 385.173C594.029 385.765 594.181 386.505 594.181 387.394V394.173H592.107V387.643C592.107 386.862 591.905 386.256 591.503 385.825C591.1 385.391 590.541 385.173 589.824 385.173C589.333 385.173 588.894 385.277 588.505 385.485C588.121 385.694 587.818 385.999 587.596 386.401C587.379 386.799 587.27 387.28 587.27 387.845ZM599.465 394.409C598.79 394.409 598.179 394.284 597.634 394.034C597.088 393.78 596.655 393.412 596.336 392.931C596.021 392.45 595.864 391.86 595.864 391.161C595.864 390.56 595.98 390.065 596.211 389.676C596.442 389.288 596.755 388.98 597.148 388.754C597.541 388.527 597.98 388.356 598.466 388.24C598.952 388.124 599.447 388.037 599.951 387.976C600.589 387.902 601.108 387.842 601.505 387.796C601.903 387.745 602.192 387.664 602.373 387.553C602.553 387.442 602.643 387.262 602.643 387.012V386.963C602.643 386.357 602.472 385.888 602.13 385.555C601.792 385.222 601.288 385.055 600.617 385.055C599.919 385.055 599.368 385.21 598.966 385.52C598.568 385.825 598.293 386.165 598.14 386.54L596.19 386.096C596.422 385.448 596.759 384.926 597.203 384.528C597.652 384.125 598.168 383.834 598.751 383.654C599.334 383.469 599.946 383.376 600.589 383.376C601.015 383.376 601.466 383.427 601.943 383.529C602.424 383.626 602.872 383.806 603.289 384.07C603.71 384.334 604.054 384.711 604.323 385.201C604.591 385.687 604.725 386.318 604.725 387.095V394.173H602.699V392.716H602.616C602.481 392.984 602.28 393.248 602.012 393.507C601.744 393.766 601.399 393.981 600.978 394.152C600.557 394.323 600.053 394.409 599.465 394.409ZM599.916 392.743C600.49 392.743 600.98 392.63 601.387 392.403C601.799 392.177 602.111 391.881 602.324 391.515C602.542 391.145 602.65 390.75 602.65 390.329V388.955C602.576 389.029 602.433 389.098 602.22 389.163C602.012 389.223 601.774 389.276 601.505 389.323C601.237 389.364 600.976 389.404 600.721 389.441C600.467 389.473 600.254 389.501 600.083 389.524C599.68 389.575 599.313 389.66 598.98 389.781C598.651 389.901 598.388 390.074 598.189 390.301C597.994 390.523 597.897 390.819 597.897 391.189C597.897 391.703 598.087 392.091 598.466 392.355C598.846 392.614 599.329 392.743 599.916 392.743ZM608.977 387.845V394.173H606.902V383.515H608.894V385.249H609.026C609.271 384.685 609.655 384.232 610.177 383.889C610.705 383.547 611.369 383.376 612.169 383.376C612.895 383.376 613.531 383.529 614.077 383.834C614.623 384.135 615.046 384.583 615.347 385.18C615.647 385.777 615.798 386.515 615.798 387.394V394.173H613.723V387.643C613.723 386.871 613.522 386.267 613.119 385.832C612.717 385.393 612.164 385.173 611.461 385.173C610.98 385.173 610.552 385.277 610.177 385.485C609.807 385.694 609.514 385.999 609.296 386.401C609.083 386.799 608.977 387.28 608.977 387.845ZM622.463 398.392C621.616 398.392 620.888 398.281 620.277 398.059C619.671 397.837 619.176 397.543 618.792 397.177C618.408 396.812 618.121 396.412 617.932 395.977L619.715 395.241C619.84 395.445 620.006 395.66 620.215 395.887C620.427 396.118 620.714 396.315 621.075 396.477C621.44 396.638 621.91 396.719 622.484 396.719C623.27 396.719 623.92 396.527 624.433 396.143C624.947 395.764 625.204 395.158 625.204 394.326V392.23H625.072C624.947 392.457 624.766 392.709 624.53 392.986C624.299 393.264 623.98 393.504 623.573 393.708C623.166 393.911 622.636 394.013 621.984 394.013C621.142 394.013 620.383 393.817 619.708 393.423C619.037 393.026 618.505 392.44 618.112 391.668C617.723 390.891 617.529 389.936 617.529 388.802C617.529 387.669 617.721 386.697 618.105 385.888C618.494 385.078 619.026 384.458 619.701 384.028C620.376 383.593 621.142 383.376 621.998 383.376C622.659 383.376 623.194 383.487 623.601 383.709C624.008 383.926 624.325 384.181 624.551 384.472C624.783 384.764 624.961 385.021 625.086 385.243H625.238V383.515H627.271V394.409C627.271 395.325 627.059 396.076 626.633 396.664C626.207 397.251 625.631 397.686 624.905 397.968C624.184 398.251 623.369 398.392 622.463 398.392ZM622.442 392.292C623.039 392.292 623.543 392.154 623.955 391.876C624.371 391.594 624.685 391.191 624.898 390.669C625.116 390.141 625.224 389.51 625.224 388.774C625.224 388.057 625.118 387.426 624.905 386.88C624.692 386.334 624.38 385.909 623.968 385.603C623.557 385.293 623.048 385.138 622.442 385.138C621.817 385.138 621.297 385.3 620.881 385.624C620.464 385.943 620.15 386.378 619.937 386.929C619.729 387.479 619.625 388.094 619.625 388.774C619.625 389.473 619.731 390.086 619.944 390.613C620.157 391.141 620.471 391.552 620.888 391.848C621.309 392.144 621.827 392.292 622.442 392.292ZM634.061 394.388C633.011 394.388 632.107 394.164 631.348 393.715C630.594 393.262 630.011 392.625 629.599 391.807C629.192 390.983 628.989 390.019 628.989 388.913C628.989 387.821 629.192 386.859 629.599 386.027C630.011 385.194 630.585 384.544 631.32 384.077C632.06 383.61 632.925 383.376 633.915 383.376C634.517 383.376 635.1 383.475 635.664 383.674C636.228 383.873 636.735 384.186 637.184 384.611C637.632 385.037 637.986 385.59 638.245 386.27C638.504 386.945 638.634 387.766 638.634 388.733V389.468H630.162V387.914H636.601C636.601 387.368 636.49 386.885 636.268 386.464C636.046 386.038 635.733 385.703 635.331 385.458C634.933 385.212 634.466 385.09 633.929 385.09C633.346 385.09 632.838 385.233 632.403 385.52C631.973 385.802 631.639 386.172 631.404 386.63C631.172 387.084 631.057 387.576 631.057 388.108V389.323C631.057 390.035 631.182 390.641 631.431 391.141C631.686 391.64 632.04 392.022 632.493 392.285C632.946 392.545 633.476 392.674 634.082 392.674C634.475 392.674 634.834 392.619 635.157 392.508C635.481 392.392 635.761 392.221 635.997 391.994C636.233 391.767 636.413 391.488 636.538 391.154L638.502 391.508C638.345 392.087 638.063 392.593 637.655 393.028C637.253 393.458 636.746 393.794 636.136 394.034C635.53 394.27 634.838 394.388 634.061 394.388ZM648.336 386.117L646.456 386.45C646.377 386.209 646.252 385.98 646.081 385.763C645.915 385.546 645.688 385.367 645.401 385.229C645.114 385.09 644.756 385.021 644.326 385.021C643.738 385.021 643.248 385.152 642.855 385.416C642.461 385.675 642.265 386.01 642.265 386.422C642.265 386.778 642.397 387.065 642.66 387.283C642.924 387.5 643.349 387.678 643.937 387.817L645.63 388.205C646.611 388.432 647.342 388.781 647.823 389.253C648.304 389.725 648.544 390.338 648.544 391.092C648.544 391.73 648.359 392.299 647.989 392.799C647.624 393.294 647.113 393.683 646.456 393.965C645.804 394.247 645.047 394.388 644.187 394.388C642.993 394.388 642.02 394.134 641.266 393.625C640.512 393.111 640.049 392.383 639.878 391.439L641.883 391.134C642.008 391.656 642.265 392.052 642.653 392.32C643.042 392.584 643.548 392.716 644.173 392.716C644.853 392.716 645.396 392.575 645.804 392.292C646.211 392.006 646.414 391.656 646.414 391.245C646.414 390.912 646.289 390.632 646.039 390.405C645.794 390.178 645.417 390.007 644.908 389.892L643.104 389.496C642.11 389.269 641.374 388.909 640.898 388.414C640.426 387.919 640.19 387.292 640.19 386.533C640.19 385.904 640.366 385.354 640.717 384.882C641.069 384.41 641.555 384.042 642.175 383.778C642.794 383.51 643.504 383.376 644.305 383.376C645.457 383.376 646.363 383.626 647.025 384.125C647.686 384.62 648.123 385.284 648.336 386.117Z" fill="white"/>
<rect x="845.14" y="322.106" width="169.173" height="62.7537" rx="31.3768" fill="white"/>
<rect x="845.14" y="322.106" width="169.173" height="62.7537" rx="31.3768" stroke="#71717B" stroke-width="2.28052"/>
<mask id="mask0_985_49" style="mask-type:alpha" maskUnits="userSpaceOnUse" x="859" y="336" width="36" height="36">
<rect x="859.175" y="336.141" width="35.4732" height="35.4732" fill="#D9D9D9"/>
</mask>
<g mask="url(#mask0_985_49)">
<path d="M880.053 357.019C880.915 356.156 881.346 355.109 881.346 353.878C881.346 352.646 880.915 351.599 880.053 350.737C879.191 349.875 878.144 349.444 876.912 349.444C875.68 349.444 874.633 349.875 873.771 350.737C872.909 351.599 872.478 352.646 872.478 353.878C872.478 355.109 872.909 356.156 873.771 357.019C874.633 357.881 875.68 358.312 876.912 358.312C878.144 358.312 879.191 357.881 880.053 357.019ZM871.683 359.106C870.242 357.665 869.522 355.922 869.522 353.878C869.522 351.833 870.242 350.09 871.683 348.649C873.124 347.208 874.867 346.487 876.912 346.487C878.957 346.487 880.699 347.208 882.14 348.649C883.582 350.09 884.302 351.833 884.302 353.878C884.302 355.922 883.582 357.665 882.14 359.106C880.699 360.547 878.957 361.268 876.912 361.268C874.867 361.268 873.124 360.547 871.683 359.106ZM866.566 355.356H860.653V352.4H866.566V355.356ZM893.17 355.356H887.258V352.4H893.17V355.356ZM875.434 343.531V337.619H878.39V343.531H875.434ZM875.434 370.136V364.224H878.39V370.136H875.434ZM868.635 347.596L864.903 344.012L867.009 341.832L870.556 345.527L868.635 347.596ZM886.815 365.924L883.231 362.192L885.189 360.159L888.921 363.744L886.815 365.924ZM883.194 345.601L886.778 341.869L888.958 343.975L885.263 347.522L883.194 345.601ZM864.866 363.781L868.598 360.196L870.63 362.155L867.046 365.887L864.866 363.781Z" fill="#71717B"/>
</g>
<mask id="mask1_985_49" style="mask-type:alpha" maskUnits="userSpaceOnUse" x="912" y="336" width="36" height="36">
<rect x="912.385" y="336.141" width="35.4732" height="35.4732" fill="#D9D9D9"/>
</mask>
<g mask="url(#mask1_985_49)">
<path d="M924.21 367.18V364.224H927.166V361.268H918.297C917.484 361.268 916.789 360.978 916.21 360.4C915.631 359.821 915.341 359.125 915.341 358.312V343.531C915.341 342.718 915.631 342.022 916.21 341.444C916.789 340.865 917.484 340.575 918.297 340.575H941.946C942.759 340.575 943.455 340.865 944.034 341.444C944.613 342.022 944.902 342.718 944.902 343.531V358.312C944.902 359.125 944.613 359.821 944.034 360.4C943.455 360.978 942.759 361.268 941.946 361.268H933.078V364.224H936.034V367.18H924.21ZM918.297 358.312H941.946V343.531H918.297V358.312Z" fill="#71717B"/>
</g>
<rect x="956.332" y="326.878" width="53.2098" height="53.2098" rx="26.6049" fill="#C5C5C5"/>
<mask id="mask2_985_49" style="mask-type:alpha" maskUnits="userSpaceOnUse" x="965" y="336" width="37" height="36">
<rect x="965.595" y="336.141" width="35.4732" height="35.4732" fill="#D9D9D9"/>
</mask>
<g mask="url(#mask2_985_49)">
<path d="M983.48 368.658C981.41 368.658 979.47 368.264 977.66 367.476C975.849 366.687 974.273 365.622 972.93 364.279C971.587 362.937 970.522 361.36 969.734 359.55C968.945 357.739 968.551 355.799 968.551 353.73C968.551 350.133 969.697 346.962 971.988 344.215C974.279 341.468 977.198 339.762 980.745 339.097C980.302 341.536 980.437 343.919 981.152 346.247C981.866 348.575 983.098 350.614 984.847 352.363C986.596 354.112 988.634 355.343 990.962 356.058C993.29 356.772 995.673 356.908 998.112 356.464C997.472 360.012 995.772 362.931 993.013 365.222C990.254 367.513 987.076 368.658 983.48 368.658ZM983.48 365.702C985.647 365.702 987.655 365.16 989.503 364.076C991.35 362.992 992.804 361.502 993.863 359.605C991.744 359.408 989.737 358.872 987.84 357.998C985.943 357.123 984.243 355.935 982.741 354.432C981.238 352.929 980.043 351.229 979.156 349.333C978.269 347.436 977.74 345.428 977.567 343.31C975.671 344.369 974.186 345.828 973.115 347.688C972.043 349.548 971.507 351.562 971.507 353.73C971.507 357.055 972.671 359.882 974.999 362.21C977.327 364.538 980.154 365.702 983.48 365.702Z" fill="#1C1B1F"/>
</g>
</svg>
