<svg width="1176" height="784" viewBox="0 0 1176 784" fill="none" xmlns="http://www.w3.org/2000/svg">
<rect width="1176" height="784" fill="white"/>
<circle cx="457.5" cy="492.5" r="223.5" fill="#F06A2B"/>
<circle cx="457.5" cy="492.5" r="223.5" stroke="white" stroke-width="4"/>
<circle cx="587.5" cy="297.5" r="223.5" fill="#5627FF"/>
<circle cx="587.5" cy="297.5" r="223.5" stroke="white" stroke-width="4"/>
<circle cx="703.5" cy="493.5" r="223.5" fill="#12B824"/>
<circle cx="703.5" cy="493.5" r="223.5" stroke="white" stroke-width="4"/>
<path d="M495.99 194C495.81 194 495.66 193.94 495.54 193.82C495.42 193.68 495.36 193.53 495.36 193.37C495.36 193.27 495.37 193.18 495.39 193.1L502.53 173.81C502.59 173.59 502.71 173.4 502.89 173.24C503.07 173.08 503.32 173 503.64 173H507.48C507.8 173 508.05 173.08 508.23 173.24C508.41 173.4 508.53 173.59 508.59 173.81L515.73 193.1C515.75 193.18 515.76 193.27 515.76 193.37C515.76 193.53 515.7 193.68 515.58 193.82C515.46 193.94 515.31 194 515.13 194H512.01C511.71 194 511.49 193.93 511.35 193.79C511.21 193.65 511.12 193.52 511.08 193.4L509.79 190.04H501.33L500.04 193.4C500 193.52 499.91 193.65 499.77 193.79C499.63 193.93 499.41 194 499.11 194H495.99ZM502.44 186.17H508.65L505.56 177.53L502.44 186.17ZM524.738 194.3C523.278 194.3 521.988 194.03 520.868 193.49C519.768 192.95 518.898 192.17 518.258 191.15C517.618 190.11 517.268 188.87 517.208 187.43C517.188 187.11 517.178 186.71 517.178 186.23C517.178 185.73 517.188 185.32 517.208 185C517.268 183.54 517.608 182.3 518.228 181.28C518.868 180.24 519.748 179.45 520.868 178.91C521.988 178.37 523.278 178.1 524.738 178.1C526.078 178.1 527.218 178.29 528.158 178.67C529.098 179.03 529.868 179.49 530.468 180.05C531.068 180.61 531.508 181.2 531.788 181.82C532.088 182.42 532.248 182.95 532.268 183.41C532.288 183.61 532.218 183.79 532.058 183.95C531.918 184.09 531.748 184.16 531.548 184.16H528.338C528.138 184.16 527.978 184.11 527.858 184.01C527.758 183.89 527.658 183.73 527.558 183.53C527.278 182.83 526.918 182.33 526.478 182.03C526.038 181.73 525.488 181.58 524.828 181.58C523.928 181.58 523.218 181.87 522.698 182.45C522.178 183.03 521.898 183.93 521.858 185.15C521.838 185.93 521.838 186.64 521.858 187.28C521.918 188.52 522.198 189.42 522.698 189.98C523.218 190.54 523.928 190.82 524.828 190.82C525.528 190.82 526.088 190.67 526.508 190.37C526.928 190.07 527.278 189.57 527.558 188.87C527.638 188.67 527.738 188.52 527.858 188.42C527.978 188.3 528.138 188.24 528.338 188.24H531.548C531.748 188.24 531.918 188.32 532.058 188.48C532.218 188.62 532.288 188.79 532.268 188.99C532.248 189.33 532.148 189.73 531.968 190.19C531.808 190.65 531.538 191.12 531.158 191.6C530.798 192.08 530.328 192.53 529.748 192.95C529.168 193.35 528.458 193.68 527.618 193.94C526.798 194.18 525.838 194.3 524.738 194.3ZM542.14 194.3C540.68 194.3 539.39 194.03 538.27 193.49C537.17 192.95 536.3 192.17 535.66 191.15C535.02 190.11 534.67 188.87 534.61 187.43C534.59 187.11 534.58 186.71 534.58 186.23C534.58 185.73 534.59 185.32 534.61 185C534.67 183.54 535.01 182.3 535.63 181.28C536.27 180.24 537.15 179.45 538.27 178.91C539.39 178.37 540.68 178.1 542.14 178.1C543.48 178.1 544.62 178.29 545.56 178.67C546.5 179.03 547.27 179.49 547.87 180.05C548.47 180.61 548.91 181.2 549.19 181.82C549.49 182.42 549.65 182.95 549.67 183.41C549.69 183.61 549.62 183.79 549.46 183.95C549.32 184.09 549.15 184.16 548.95 184.16H545.74C545.54 184.16 545.38 184.11 545.26 184.01C545.16 183.89 545.06 183.73 544.96 183.53C544.68 182.83 544.32 182.33 543.88 182.03C543.44 181.73 542.89 181.58 542.23 181.58C541.33 181.58 540.62 181.87 540.1 182.45C539.58 183.03 539.3 183.93 539.26 185.15C539.24 185.93 539.24 186.64 539.26 187.28C539.32 188.52 539.6 189.42 540.1 189.98C540.62 190.54 541.33 190.82 542.23 190.82C542.93 190.82 543.49 190.67 543.91 190.37C544.33 190.07 544.68 189.57 544.96 188.87C545.04 188.67 545.14 188.52 545.26 188.42C545.38 188.3 545.54 188.24 545.74 188.24H548.95C549.15 188.24 549.32 188.32 549.46 188.48C549.62 188.62 549.69 188.79 549.67 188.99C549.65 189.33 549.55 189.73 549.37 190.19C549.21 190.65 548.94 191.12 548.56 191.6C548.2 192.08 547.73 192.53 547.15 192.95C546.57 193.35 545.86 193.68 545.02 193.94C544.2 194.18 543.24 194.3 542.14 194.3ZM559.573 194.3C557.273 194.3 555.443 193.66 554.083 192.38C552.743 191.1 552.033 189.24 551.953 186.8C551.953 186.64 551.953 186.43 551.953 186.17C551.953 185.89 551.953 185.67 551.953 185.51C552.033 183.97 552.383 182.65 553.003 181.55C553.623 180.43 554.493 179.58 555.613 179C556.733 178.4 558.043 178.1 559.543 178.1C561.223 178.1 562.623 178.45 563.743 179.15C564.883 179.83 565.733 180.77 566.293 181.97C566.873 183.15 567.163 184.51 567.163 186.05V186.74C567.163 186.94 567.083 187.11 566.923 187.25C566.783 187.39 566.613 187.46 566.413 187.46H556.603C556.603 187.48 556.603 187.52 556.603 187.58C556.603 187.62 556.603 187.66 556.603 187.7C556.623 188.34 556.743 188.93 556.963 189.47C557.203 189.99 557.533 190.41 557.953 190.73C558.393 191.05 558.913 191.21 559.513 191.21C560.013 191.21 560.423 191.14 560.743 191C561.063 190.86 561.323 190.69 561.523 190.49C561.743 190.29 561.903 190.12 562.003 189.98C562.183 189.78 562.323 189.66 562.423 189.62C562.543 189.56 562.723 189.53 562.963 189.53H566.083C566.283 189.53 566.443 189.59 566.563 189.71C566.703 189.81 566.763 189.96 566.743 190.16C566.723 190.48 566.553 190.88 566.233 191.36C565.933 191.82 565.483 192.28 564.883 192.74C564.283 193.18 563.533 193.55 562.633 193.85C561.753 194.15 560.733 194.3 559.573 194.3ZM556.603 184.73H562.483V184.67C562.483 183.95 562.363 183.33 562.123 182.81C561.903 182.27 561.573 181.85 561.133 181.55C560.693 181.25 560.163 181.1 559.543 181.1C558.923 181.1 558.393 181.25 557.953 181.55C557.513 181.85 557.173 182.27 556.933 182.81C556.713 183.33 556.603 183.95 556.603 184.67V184.73ZM576.311 194.3C575.071 194.3 574.001 194.16 573.101 193.88C572.221 193.58 571.501 193.22 570.941 192.8C570.401 192.38 569.991 191.96 569.711 191.54C569.451 191.1 569.311 190.73 569.291 190.43C569.271 190.21 569.341 190.03 569.501 189.89C569.661 189.75 569.821 189.68 569.981 189.68H572.891C572.951 189.68 573.011 189.69 573.071 189.71C573.131 189.73 573.191 189.78 573.251 189.86C573.511 190.04 573.781 190.25 574.061 190.49C574.341 190.71 574.661 190.9 575.021 191.06C575.401 191.22 575.871 191.3 576.431 191.3C577.091 191.3 577.651 191.17 578.111 190.91C578.571 190.63 578.801 190.24 578.801 189.74C578.801 189.38 578.691 189.08 578.471 188.84C578.271 188.6 577.881 188.38 577.301 188.18C576.721 187.98 575.861 187.76 574.721 187.52C573.641 187.28 572.721 186.96 571.961 186.56C571.201 186.16 570.631 185.66 570.251 185.06C569.871 184.44 569.681 183.7 569.681 182.84C569.681 182.06 569.921 181.31 570.401 180.59C570.901 179.87 571.631 179.28 572.591 178.82C573.551 178.34 574.751 178.1 576.191 178.1C577.291 178.1 578.251 178.24 579.071 178.52C579.911 178.78 580.611 179.12 581.171 179.54C581.731 179.94 582.151 180.36 582.431 180.8C582.731 181.22 582.891 181.59 582.911 181.91C582.931 182.11 582.871 182.28 582.731 182.42C582.591 182.56 582.431 182.63 582.251 182.63H579.581C579.481 182.63 579.391 182.62 579.311 182.6C579.231 182.56 579.161 182.51 579.101 182.45C578.861 182.29 578.611 182.11 578.351 181.91C578.111 181.69 577.821 181.5 577.481 181.34C577.141 181.18 576.701 181.1 576.161 181.1C575.501 181.1 574.991 181.25 574.631 181.55C574.291 181.83 574.121 182.19 574.121 182.63C574.121 182.91 574.211 183.17 574.391 183.41C574.571 183.65 574.941 183.87 575.501 184.07C576.061 184.27 576.911 184.48 578.051 184.7C579.411 184.94 580.491 185.3 581.291 185.78C582.091 186.26 582.661 186.82 583.001 187.46C583.361 188.08 583.541 188.75 583.541 189.47C583.541 190.41 583.261 191.25 582.701 191.99C582.141 192.71 581.321 193.28 580.241 193.7C579.181 194.1 577.871 194.3 576.311 194.3ZM592.571 194.3C591.331 194.3 590.261 194.16 589.361 193.88C588.481 193.58 587.761 193.22 587.201 192.8C586.661 192.38 586.251 191.96 585.971 191.54C585.711 191.1 585.571 190.73 585.551 190.43C585.531 190.21 585.601 190.03 585.761 189.89C585.921 189.75 586.081 189.68 586.241 189.68H589.151C589.211 189.68 589.271 189.69 589.331 189.71C589.391 189.73 589.451 189.78 589.511 189.86C589.771 190.04 590.041 190.25 590.321 190.49C590.601 190.71 590.921 190.9 591.281 191.06C591.661 191.22 592.131 191.3 592.691 191.3C593.351 191.3 593.911 191.17 594.371 190.91C594.831 190.63 595.061 190.24 595.061 189.74C595.061 189.38 594.951 189.08 594.731 188.84C594.531 188.6 594.141 188.38 593.561 188.18C592.981 187.98 592.121 187.76 590.981 187.52C589.901 187.28 588.981 186.96 588.221 186.56C587.461 186.16 586.891 185.66 586.511 185.06C586.131 184.44 585.941 183.7 585.941 182.84C585.941 182.06 586.181 181.31 586.661 180.59C587.161 179.87 587.891 179.28 588.851 178.82C589.811 178.34 591.011 178.1 592.451 178.1C593.551 178.1 594.511 178.24 595.331 178.52C596.171 178.78 596.871 179.12 597.431 179.54C597.991 179.94 598.411 180.36 598.691 180.8C598.991 181.22 599.151 181.59 599.171 181.91C599.191 182.11 599.131 182.28 598.991 182.42C598.851 182.56 598.691 182.63 598.511 182.63H595.841C595.741 182.63 595.651 182.62 595.571 182.6C595.491 182.56 595.421 182.51 595.361 182.45C595.121 182.29 594.871 182.11 594.611 181.91C594.371 181.69 594.081 181.5 593.741 181.34C593.401 181.18 592.961 181.1 592.421 181.1C591.761 181.1 591.251 181.25 590.891 181.55C590.551 181.83 590.381 182.19 590.381 182.63C590.381 182.91 590.471 183.17 590.651 183.41C590.831 183.65 591.201 183.87 591.761 184.07C592.321 184.27 593.171 184.48 594.311 184.7C595.671 184.94 596.751 185.3 597.551 185.78C598.351 186.26 598.921 186.82 599.261 187.46C599.621 188.08 599.801 188.75 599.801 189.47C599.801 190.41 599.521 191.25 598.961 191.99C598.401 192.71 597.581 193.28 596.501 193.7C595.441 194.1 594.131 194.3 592.571 194.3ZM603.401 194C603.201 194 603.031 193.93 602.891 193.79C602.751 193.65 602.681 193.47 602.681 193.25V179.15C602.681 178.93 602.751 178.75 602.891 178.61C603.031 178.47 603.201 178.4 603.401 178.4H606.401C606.621 178.4 606.801 178.47 606.941 178.61C607.081 178.75 607.151 178.93 607.151 179.15V193.25C607.151 193.47 607.081 193.65 606.941 193.79C606.801 193.93 606.621 194 606.401 194H603.401ZM603.311 176C603.111 176 602.941 175.93 602.801 175.79C602.661 175.65 602.591 175.47 602.591 175.25V172.85C602.591 172.63 602.661 172.45 602.801 172.31C602.941 172.15 603.111 172.07 603.311 172.07H606.461C606.681 172.07 606.861 172.15 607.001 172.31C607.161 172.45 607.241 172.63 607.241 172.85V175.25C607.241 175.47 607.161 175.65 607.001 175.79C606.861 175.93 606.681 176 606.461 176H603.311ZM619.973 194.3C618.833 194.3 617.883 194.11 617.123 193.73C616.363 193.33 615.743 192.83 615.263 192.23V193.25C615.263 193.47 615.193 193.65 615.053 193.79C614.913 193.93 614.733 194 614.513 194H611.663C611.443 194 611.263 193.93 611.123 193.79C610.983 193.65 610.913 193.47 610.913 193.25V173.45C610.913 173.23 610.983 173.05 611.123 172.91C611.263 172.77 611.443 172.7 611.663 172.7H614.753C614.953 172.7 615.123 172.77 615.263 172.91C615.403 173.05 615.473 173.23 615.473 173.45V179.99C615.973 179.43 616.593 178.98 617.333 178.64C618.073 178.28 618.953 178.1 619.973 178.1C621.013 178.1 621.913 178.28 622.673 178.64C623.453 178.98 624.113 179.47 624.653 180.11C625.193 180.73 625.603 181.47 625.883 182.33C626.183 183.19 626.343 184.14 626.363 185.18C626.383 185.54 626.393 185.88 626.393 186.2C626.393 186.5 626.383 186.84 626.363 187.22C626.323 188.28 626.153 189.25 625.853 190.13C625.573 190.99 625.163 191.74 624.623 192.38C624.103 193 623.453 193.48 622.673 193.82C621.913 194.14 621.013 194.3 619.973 194.3ZM618.623 190.7C619.383 190.7 619.983 190.54 620.423 190.22C620.863 189.88 621.173 189.44 621.353 188.9C621.553 188.36 621.673 187.77 621.713 187.13C621.753 186.51 621.753 185.89 621.713 185.27C621.673 184.63 621.553 184.04 621.353 183.5C621.173 182.96 620.863 182.53 620.423 182.21C619.983 181.87 619.383 181.7 618.623 181.7C617.903 181.7 617.313 181.86 616.853 182.18C616.413 182.5 616.073 182.91 615.833 183.41C615.613 183.89 615.493 184.41 615.473 184.97C615.453 185.33 615.443 185.7 615.443 186.08C615.443 186.46 615.453 186.84 615.473 187.22C615.513 187.82 615.633 188.38 615.833 188.9C616.033 189.42 616.363 189.85 616.823 190.19C617.283 190.53 617.883 190.7 618.623 190.7ZM630.296 194C630.096 194 629.926 193.93 629.786 193.79C629.646 193.65 629.576 193.47 629.576 193.25V179.15C629.576 178.93 629.646 178.75 629.786 178.61C629.926 178.47 630.096 178.4 630.296 178.4H633.296C633.516 178.4 633.696 178.47 633.836 178.61C633.976 178.75 634.046 178.93 634.046 179.15V193.25C634.046 193.47 633.976 193.65 633.836 193.79C633.696 193.93 633.516 194 633.296 194H630.296ZM630.206 176C630.006 176 629.836 175.93 629.696 175.79C629.556 175.65 629.486 175.47 629.486 175.25V172.85C629.486 172.63 629.556 172.45 629.696 172.31C629.836 172.15 630.006 172.07 630.206 172.07H633.356C633.576 172.07 633.756 172.15 633.896 172.31C634.056 172.45 634.136 172.63 634.136 172.85V175.25C634.136 175.47 634.056 175.65 633.896 175.79C633.756 175.93 633.576 176 633.356 176H630.206ZM638.558 194C638.338 194 638.158 193.93 638.018 193.79C637.878 193.65 637.808 193.47 637.808 193.25V173.45C637.808 173.23 637.878 173.05 638.018 172.91C638.158 172.77 638.338 172.7 638.558 172.7H641.558C641.758 172.7 641.928 172.77 642.068 172.91C642.208 173.05 642.278 173.23 642.278 173.45V193.25C642.278 193.47 642.208 193.65 642.068 193.79C641.928 193.93 641.758 194 641.558 194H638.558ZM646.79 194C646.59 194 646.42 193.93 646.28 193.79C646.14 193.65 646.07 193.47 646.07 193.25V179.15C646.07 178.93 646.14 178.75 646.28 178.61C646.42 178.47 646.59 178.4 646.79 178.4H649.79C650.01 178.4 650.19 178.47 650.33 178.61C650.47 178.75 650.54 178.93 650.54 179.15V193.25C650.54 193.47 650.47 193.65 650.33 193.79C650.19 193.93 650.01 194 649.79 194H646.79ZM646.7 176C646.5 176 646.33 175.93 646.19 175.79C646.05 175.65 645.98 175.47 645.98 175.25V172.85C645.98 172.63 646.05 172.45 646.19 172.31C646.33 172.15 646.5 172.07 646.7 172.07H649.85C650.07 172.07 650.25 172.15 650.39 172.31C650.55 172.45 650.63 172.63 650.63 172.85V175.25C650.63 175.47 650.55 175.65 650.39 175.79C650.25 175.93 650.07 176 649.85 176H646.7ZM661.802 194C660.562 194 659.502 193.8 658.622 193.4C657.742 192.98 657.072 192.34 656.612 191.48C656.172 190.62 655.952 189.54 655.952 188.24V181.94H653.612C653.392 181.94 653.212 181.87 653.072 181.73C652.932 181.59 652.862 181.41 652.862 181.19V179.15C652.862 178.93 652.932 178.75 653.072 178.61C653.212 178.47 653.392 178.4 653.612 178.4H655.952V173.45C655.952 173.23 656.022 173.05 656.162 172.91C656.322 172.77 656.502 172.7 656.702 172.7H659.642C659.862 172.7 660.042 172.77 660.182 172.91C660.322 173.05 660.392 173.23 660.392 173.45V178.4H664.142C664.342 178.4 664.512 178.47 664.652 178.61C664.792 178.75 664.862 178.93 664.862 179.15V181.19C664.862 181.41 664.792 181.59 664.652 181.73C664.512 181.87 664.342 181.94 664.142 181.94H660.392V187.88C660.392 188.64 660.522 189.24 660.782 189.68C661.062 190.1 661.542 190.31 662.222 190.31H664.412C664.612 190.31 664.782 190.38 664.922 190.52C665.062 190.66 665.132 190.83 665.132 191.03V193.25C665.132 193.47 665.062 193.65 664.922 193.79C664.782 193.93 664.612 194 664.412 194H661.802ZM670.599 199.7C670.439 199.7 670.289 199.64 670.149 199.52C670.029 199.4 669.969 199.25 669.969 199.07C669.969 199.03 669.979 198.97 669.999 198.89C670.019 198.83 670.049 198.75 670.089 198.65L672.429 193.04L666.669 179.45C666.609 179.29 666.579 179.16 666.579 179.06C666.599 178.88 666.669 178.73 666.789 178.61C666.909 178.47 667.059 178.4 667.239 178.4H670.149C670.409 178.4 670.599 178.47 670.719 178.61C670.839 178.73 670.929 178.86 670.989 179L674.709 188.3L678.519 179C678.599 178.84 678.699 178.7 678.819 178.58C678.939 178.46 679.129 178.4 679.389 178.4H682.239C682.419 178.4 682.569 178.47 682.689 178.61C682.829 178.73 682.899 178.87 682.899 179.03C682.899 179.13 682.859 179.27 682.779 179.45L674.289 199.1C674.229 199.26 674.129 199.4 673.989 199.52C673.869 199.64 673.679 199.7 673.419 199.7H670.599Z" fill="white"/>
<path d="M739.8 540.3C738.04 540.3 736.5 540.01 735.18 539.43C733.86 538.83 732.84 537.92 732.12 536.7C731.4 535.46 731.04 533.89 731.04 531.99V519.75C731.04 519.53 731.11 519.35 731.25 519.21C731.39 519.07 731.57 519 731.79 519H735.06C735.28 519 735.46 519.07 735.6 519.21C735.74 519.35 735.81 519.53 735.81 519.75V531.96C735.81 533.44 736.16 534.54 736.86 535.26C737.56 535.98 738.54 536.34 739.8 536.34C741.04 536.34 742.01 535.98 742.71 535.26C743.41 534.54 743.76 533.44 743.76 531.96V519.75C743.76 519.53 743.83 519.35 743.97 519.21C744.13 519.07 744.31 519 744.51 519H747.81C748.01 519 748.18 519.07 748.32 519.21C748.46 519.35 748.53 519.53 748.53 519.75V531.99C748.53 533.89 748.17 535.46 747.45 536.7C746.73 537.92 745.72 538.83 744.42 539.43C743.12 540.01 741.58 540.3 739.8 540.3ZM758.544 540.3C757.304 540.3 756.234 540.16 755.334 539.88C754.454 539.58 753.734 539.22 753.174 538.8C752.634 538.38 752.224 537.96 751.944 537.54C751.684 537.1 751.544 536.73 751.524 536.43C751.504 536.21 751.574 536.03 751.734 535.89C751.894 535.75 752.054 535.68 752.214 535.68H755.124C755.184 535.68 755.244 535.69 755.304 535.71C755.364 535.73 755.424 535.78 755.484 535.86C755.744 536.04 756.014 536.25 756.294 536.49C756.574 536.71 756.894 536.9 757.254 537.06C757.634 537.22 758.104 537.3 758.664 537.3C759.324 537.3 759.884 537.17 760.344 536.91C760.804 536.63 761.034 536.24 761.034 535.74C761.034 535.38 760.924 535.08 760.704 534.84C760.504 534.6 760.114 534.38 759.534 534.18C758.954 533.98 758.094 533.76 756.954 533.52C755.874 533.28 754.954 532.96 754.194 532.56C753.434 532.16 752.864 531.66 752.484 531.06C752.104 530.44 751.914 529.7 751.914 528.84C751.914 528.06 752.154 527.31 752.634 526.59C753.134 525.87 753.864 525.28 754.824 524.82C755.784 524.34 756.984 524.1 758.424 524.1C759.524 524.1 760.484 524.24 761.304 524.52C762.144 524.78 762.844 525.12 763.404 525.54C763.964 525.94 764.384 526.36 764.664 526.8C764.964 527.22 765.124 527.59 765.144 527.91C765.164 528.11 765.104 528.28 764.964 528.42C764.824 528.56 764.664 528.63 764.484 528.63H761.814C761.714 528.63 761.624 528.62 761.544 528.6C761.464 528.56 761.394 528.51 761.334 528.45C761.094 528.29 760.844 528.11 760.584 527.91C760.344 527.69 760.054 527.5 759.714 527.34C759.374 527.18 758.934 527.1 758.394 527.1C757.734 527.1 757.224 527.25 756.864 527.55C756.524 527.83 756.354 528.19 756.354 528.63C756.354 528.91 756.444 529.17 756.624 529.41C756.804 529.65 757.174 529.87 757.734 530.07C758.294 530.27 759.144 530.48 760.284 530.7C761.644 530.94 762.724 531.3 763.524 531.78C764.324 532.26 764.894 532.82 765.234 533.46C765.594 534.08 765.774 534.75 765.774 535.47C765.774 536.41 765.494 537.25 764.934 537.99C764.374 538.71 763.554 539.28 762.474 539.7C761.414 540.1 760.104 540.3 758.544 540.3ZM773.244 540.3C772.184 540.3 771.234 540.1 770.394 539.7C769.554 539.28 768.884 538.72 768.384 538.02C767.884 537.32 767.634 536.54 767.634 535.68C767.634 534.26 768.204 533.14 769.344 532.32C770.504 531.5 772.024 530.94 773.904 530.64L777.834 530.07V529.53C777.834 528.75 777.654 528.15 777.294 527.73C776.934 527.31 776.304 527.1 775.404 527.1C774.744 527.1 774.214 527.23 773.814 527.49C773.414 527.75 773.104 528.09 772.884 528.51C772.724 528.77 772.494 528.9 772.194 528.9H769.344C769.124 528.9 768.954 528.84 768.834 528.72C768.714 528.58 768.664 528.42 768.684 528.24C768.684 527.9 768.814 527.5 769.074 527.04C769.334 526.58 769.734 526.13 770.274 525.69C770.814 525.23 771.504 524.85 772.344 524.55C773.184 524.25 774.214 524.1 775.434 524.1C776.694 524.1 777.774 524.25 778.674 524.55C779.574 524.85 780.294 525.27 780.834 525.81C781.374 526.35 781.774 526.98 782.034 527.7C782.294 528.4 782.424 529.16 782.424 529.98V539.25C782.424 539.47 782.354 539.65 782.214 539.79C782.074 539.93 781.894 540 781.674 540H778.734C778.534 540 778.364 539.93 778.224 539.79C778.084 539.65 778.014 539.47 778.014 539.25V538.14C777.754 538.52 777.404 538.88 776.964 539.22C776.524 539.54 775.994 539.8 775.374 540C774.774 540.2 774.064 540.3 773.244 540.3ZM774.444 537.18C775.104 537.18 775.694 537.04 776.214 536.76C776.734 536.48 777.144 536.05 777.444 535.47C777.744 534.89 777.894 534.16 777.894 533.28V532.77L775.104 533.22C774.024 533.4 773.234 533.67 772.734 534.03C772.234 534.39 771.984 534.83 771.984 535.35C771.984 535.73 772.094 536.06 772.314 536.34C772.554 536.62 772.864 536.83 773.244 536.97C773.624 537.11 774.024 537.18 774.444 537.18ZM795.116 540.3C793.976 540.3 793.026 540.11 792.266 539.73C791.506 539.33 790.886 538.83 790.406 538.23V539.25C790.406 539.47 790.336 539.65 790.196 539.79C790.056 539.93 789.876 540 789.656 540H786.806C786.586 540 786.406 539.93 786.266 539.79C786.126 539.65 786.056 539.47 786.056 539.25V519.45C786.056 519.23 786.126 519.05 786.266 518.91C786.406 518.77 786.586 518.7 786.806 518.7H789.896C790.096 518.7 790.266 518.77 790.406 518.91C790.546 519.05 790.616 519.23 790.616 519.45V525.99C791.116 525.43 791.736 524.98 792.476 524.64C793.216 524.28 794.096 524.1 795.116 524.1C796.156 524.1 797.056 524.28 797.816 524.64C798.596 524.98 799.256 525.47 799.796 526.11C800.336 526.73 800.746 527.47 801.026 528.33C801.326 529.19 801.486 530.14 801.506 531.18C801.526 531.54 801.536 531.88 801.536 532.2C801.536 532.5 801.526 532.84 801.506 533.22C801.466 534.28 801.296 535.25 800.996 536.13C800.716 536.99 800.306 537.74 799.766 538.38C799.246 539 798.596 539.48 797.816 539.82C797.056 540.14 796.156 540.3 795.116 540.3ZM793.766 536.7C794.526 536.7 795.126 536.54 795.566 536.22C796.006 535.88 796.316 535.44 796.496 534.9C796.696 534.36 796.816 533.77 796.856 533.13C796.896 532.51 796.896 531.89 796.856 531.27C796.816 530.63 796.696 530.04 796.496 529.5C796.316 528.96 796.006 528.53 795.566 528.21C795.126 527.87 794.526 527.7 793.766 527.7C793.046 527.7 792.456 527.86 791.996 528.18C791.556 528.5 791.216 528.91 790.976 529.41C790.756 529.89 790.636 530.41 790.616 530.97C790.596 531.33 790.586 531.7 790.586 532.08C790.586 532.46 790.596 532.84 790.616 533.22C790.656 533.82 790.776 534.38 790.976 534.9C791.176 535.42 791.506 535.85 791.966 536.19C792.426 536.53 793.026 536.7 793.766 536.7ZM805.438 540C805.238 540 805.068 539.93 804.928 539.79C804.788 539.65 804.718 539.47 804.718 539.25V525.15C804.718 524.93 804.788 524.75 804.928 524.61C805.068 524.47 805.238 524.4 805.438 524.4H808.438C808.658 524.4 808.838 524.47 808.978 524.61C809.118 524.75 809.188 524.93 809.188 525.15V539.25C809.188 539.47 809.118 539.65 808.978 539.79C808.838 539.93 808.658 540 808.438 540H805.438ZM805.348 522C805.148 522 804.978 521.93 804.838 521.79C804.698 521.65 804.628 521.47 804.628 521.25V518.85C804.628 518.63 804.698 518.45 804.838 518.31C804.978 518.15 805.148 518.07 805.348 518.07H808.498C808.718 518.07 808.898 518.15 809.038 518.31C809.198 518.45 809.278 518.63 809.278 518.85V521.25C809.278 521.47 809.198 521.65 809.038 521.79C808.898 521.93 808.718 522 808.498 522H805.348ZM813.701 540C813.481 540 813.301 539.93 813.161 539.79C813.021 539.65 812.951 539.47 812.951 539.25V519.45C812.951 519.23 813.021 519.05 813.161 518.91C813.301 518.77 813.481 518.7 813.701 518.7H816.701C816.901 518.7 817.071 518.77 817.211 518.91C817.351 519.05 817.421 519.23 817.421 519.45V539.25C817.421 539.47 817.351 539.65 817.211 539.79C817.071 539.93 816.901 540 816.701 540H813.701ZM821.932 540C821.732 540 821.562 539.93 821.422 539.79C821.282 539.65 821.212 539.47 821.212 539.25V525.15C821.212 524.93 821.282 524.75 821.422 524.61C821.562 524.47 821.732 524.4 821.932 524.4H824.932C825.152 524.4 825.332 524.47 825.472 524.61C825.612 524.75 825.682 524.93 825.682 525.15V539.25C825.682 539.47 825.612 539.65 825.472 539.79C825.332 539.93 825.152 540 824.932 540H821.932ZM821.842 522C821.642 522 821.472 521.93 821.332 521.79C821.192 521.65 821.122 521.47 821.122 521.25V518.85C821.122 518.63 821.192 518.45 821.332 518.31C821.472 518.15 821.642 518.07 821.842 518.07H824.992C825.212 518.07 825.392 518.15 825.532 518.31C825.692 518.45 825.772 518.63 825.772 518.85V521.25C825.772 521.47 825.692 521.65 825.532 521.79C825.392 521.93 825.212 522 824.992 522H821.842ZM836.945 540C835.705 540 834.645 539.8 833.765 539.4C832.885 538.98 832.215 538.34 831.755 537.48C831.315 536.62 831.095 535.54 831.095 534.24V527.94H828.755C828.535 527.94 828.355 527.87 828.215 527.73C828.075 527.59 828.005 527.41 828.005 527.19V525.15C828.005 524.93 828.075 524.75 828.215 524.61C828.355 524.47 828.535 524.4 828.755 524.4H831.095V519.45C831.095 519.23 831.165 519.05 831.305 518.91C831.465 518.77 831.645 518.7 831.845 518.7H834.785C835.005 518.7 835.185 518.77 835.325 518.91C835.465 519.05 835.535 519.23 835.535 519.45V524.4H839.285C839.485 524.4 839.655 524.47 839.795 524.61C839.935 524.75 840.005 524.93 840.005 525.15V527.19C840.005 527.41 839.935 527.59 839.795 527.73C839.655 527.87 839.485 527.94 839.285 527.94H835.535V533.88C835.535 534.64 835.665 535.24 835.925 535.68C836.205 536.1 836.685 536.31 837.365 536.31H839.555C839.755 536.31 839.925 536.38 840.065 536.52C840.205 536.66 840.275 536.83 840.275 537.03V539.25C840.275 539.47 840.205 539.65 840.065 539.79C839.925 539.93 839.755 540 839.555 540H836.945ZM845.742 545.7C845.582 545.7 845.432 545.64 845.292 545.52C845.172 545.4 845.112 545.25 845.112 545.07C845.112 545.03 845.122 544.97 845.142 544.89C845.162 544.83 845.192 544.75 845.232 544.65L847.572 539.04L841.812 525.45C841.752 525.29 841.722 525.16 841.722 525.06C841.742 524.88 841.812 524.73 841.932 524.61C842.052 524.47 842.202 524.4 842.382 524.4H845.292C845.552 524.4 845.742 524.47 845.862 524.61C845.982 524.73 846.072 524.86 846.132 525L849.852 534.3L853.662 525C853.742 524.84 853.842 524.7 853.962 524.58C854.082 524.46 854.272 524.4 854.532 524.4H857.382C857.562 524.4 857.712 524.47 857.832 524.61C857.972 524.73 858.042 524.87 858.042 525.03C858.042 525.13 858.002 525.27 857.922 525.45L849.432 545.1C849.372 545.26 849.272 545.4 849.132 545.52C849.012 545.64 848.822 545.7 848.562 545.7H845.742Z" fill="white"/>
<path d="M286.97 534C286.75 534 286.57 533.93 286.43 533.79C286.29 533.65 286.22 533.47 286.22 533.25V513.75C286.22 513.53 286.29 513.35 286.43 513.21C286.57 513.07 286.75 513 286.97 513H290.36C290.58 513 290.76 513.07 290.9 513.21C291.04 513.35 291.11 513.53 291.11 513.75V533.25C291.11 533.47 291.04 533.65 290.9 533.79C290.76 533.93 290.58 534 290.36 534H286.97ZM295.926 534C295.726 534 295.556 533.93 295.416 533.79C295.276 533.65 295.206 533.47 295.206 533.25V519.15C295.206 518.93 295.276 518.75 295.416 518.61C295.556 518.47 295.726 518.4 295.926 518.4H298.866C299.086 518.4 299.266 518.47 299.406 518.61C299.546 518.75 299.616 518.93 299.616 519.15V520.32C300.136 519.68 300.806 519.15 301.626 518.73C302.446 518.31 303.446 518.1 304.626 518.1C305.806 518.1 306.836 518.37 307.716 518.91C308.616 519.43 309.316 520.2 309.816 521.22C310.336 522.22 310.596 523.44 310.596 524.88V533.25C310.596 533.47 310.516 533.65 310.356 533.79C310.216 533.93 310.046 534 309.846 534H306.666C306.446 534 306.266 533.93 306.126 533.79C305.986 533.65 305.916 533.47 305.916 533.25V525.06C305.916 524 305.656 523.18 305.136 522.6C304.636 522 303.896 521.7 302.916 521.7C301.976 521.7 301.226 522 300.666 522.6C300.106 523.18 299.826 524 299.826 525.06V533.25C299.826 533.47 299.756 533.65 299.616 533.79C299.476 533.93 299.306 534 299.106 534H295.926ZM321.121 534.3C319.661 534.3 318.371 534.03 317.251 533.49C316.151 532.95 315.281 532.17 314.641 531.15C314.001 530.11 313.651 528.87 313.591 527.43C313.571 527.11 313.561 526.71 313.561 526.23C313.561 525.73 313.571 525.32 313.591 525C313.651 523.54 313.991 522.3 314.611 521.28C315.251 520.24 316.131 519.45 317.251 518.91C318.371 518.37 319.661 518.1 321.121 518.1C322.461 518.1 323.601 518.29 324.541 518.67C325.481 519.03 326.251 519.49 326.851 520.05C327.451 520.61 327.891 521.2 328.171 521.82C328.471 522.42 328.631 522.95 328.651 523.41C328.671 523.61 328.601 523.79 328.441 523.95C328.301 524.09 328.131 524.16 327.931 524.16H324.721C324.521 524.16 324.361 524.11 324.241 524.01C324.141 523.89 324.041 523.73 323.941 523.53C323.661 522.83 323.301 522.33 322.861 522.03C322.421 521.73 321.871 521.58 321.211 521.58C320.311 521.58 319.601 521.87 319.081 522.45C318.561 523.03 318.281 523.93 318.241 525.15C318.221 525.93 318.221 526.64 318.241 527.28C318.301 528.52 318.581 529.42 319.081 529.98C319.601 530.54 320.311 530.82 321.211 530.82C321.911 530.82 322.471 530.67 322.891 530.37C323.311 530.07 323.661 529.57 323.941 528.87C324.021 528.67 324.121 528.52 324.241 528.42C324.361 528.3 324.521 528.24 324.721 528.24H327.931C328.131 528.24 328.301 528.32 328.441 528.48C328.601 528.62 328.671 528.79 328.651 528.99C328.631 529.33 328.531 529.73 328.351 530.19C328.191 530.65 327.921 531.12 327.541 531.6C327.181 532.08 326.711 532.53 326.131 532.95C325.551 533.35 324.841 533.68 324.001 533.94C323.181 534.18 322.221 534.3 321.121 534.3ZM332.343 534C332.123 534 331.943 533.93 331.803 533.79C331.663 533.65 331.593 533.47 331.593 533.25V513.45C331.593 513.23 331.663 513.05 331.803 512.91C331.943 512.77 332.123 512.7 332.343 512.7H335.343C335.543 512.7 335.713 512.77 335.853 512.91C335.993 513.05 336.063 513.23 336.063 513.45V533.25C336.063 533.47 335.993 533.65 335.853 533.79C335.713 533.93 335.543 534 335.343 534H332.343ZM345.585 534.3C344.425 534.3 343.395 534.04 342.495 533.52C341.615 532.98 340.925 532.21 340.425 531.21C339.945 530.19 339.705 528.96 339.705 527.52V519.15C339.705 518.93 339.775 518.75 339.915 518.61C340.055 518.47 340.225 518.4 340.425 518.4H343.605C343.825 518.4 344.005 518.47 344.145 518.61C344.285 518.75 344.355 518.93 344.355 519.15V527.34C344.355 529.58 345.335 530.7 347.295 530.7C348.235 530.7 348.975 530.41 349.515 529.83C350.075 529.23 350.355 528.4 350.355 527.34V519.15C350.355 518.93 350.425 518.75 350.565 518.61C350.705 518.47 350.885 518.4 351.105 518.4H354.285C354.485 518.4 354.655 518.47 354.795 518.61C354.935 518.75 355.005 518.93 355.005 519.15V533.25C355.005 533.47 354.935 533.65 354.795 533.79C354.655 533.93 354.485 534 354.285 534H351.345C351.125 534 350.945 533.93 350.805 533.79C350.665 533.65 350.595 533.47 350.595 533.25V532.08C350.075 532.8 349.405 533.35 348.585 533.73C347.765 534.11 346.765 534.3 345.585 534.3ZM364.931 534.3C363.691 534.3 362.621 534.16 361.721 533.88C360.841 533.58 360.121 533.22 359.561 532.8C359.021 532.38 358.611 531.96 358.331 531.54C358.071 531.1 357.931 530.73 357.911 530.43C357.891 530.21 357.961 530.03 358.121 529.89C358.281 529.75 358.441 529.68 358.601 529.68H361.511C361.571 529.68 361.631 529.69 361.691 529.71C361.751 529.73 361.811 529.78 361.871 529.86C362.131 530.04 362.401 530.25 362.681 530.49C362.961 530.71 363.281 530.9 363.641 531.06C364.021 531.22 364.491 531.3 365.051 531.3C365.711 531.3 366.271 531.17 366.731 530.91C367.191 530.63 367.421 530.24 367.421 529.74C367.421 529.38 367.311 529.08 367.091 528.84C366.891 528.6 366.501 528.38 365.921 528.18C365.341 527.98 364.481 527.76 363.341 527.52C362.261 527.28 361.341 526.96 360.581 526.56C359.821 526.16 359.251 525.66 358.871 525.06C358.491 524.44 358.301 523.7 358.301 522.84C358.301 522.06 358.541 521.31 359.021 520.59C359.521 519.87 360.251 519.28 361.211 518.82C362.171 518.34 363.371 518.1 364.811 518.1C365.911 518.1 366.871 518.24 367.691 518.52C368.531 518.78 369.231 519.12 369.791 519.54C370.351 519.94 370.771 520.36 371.051 520.8C371.351 521.22 371.511 521.59 371.531 521.91C371.551 522.11 371.491 522.28 371.351 522.42C371.211 522.56 371.051 522.63 370.871 522.63H368.201C368.101 522.63 368.011 522.62 367.931 522.6C367.851 522.56 367.781 522.51 367.721 522.45C367.481 522.29 367.231 522.11 366.971 521.91C366.731 521.69 366.441 521.5 366.101 521.34C365.761 521.18 365.321 521.1 364.781 521.1C364.121 521.1 363.611 521.25 363.251 521.55C362.911 521.83 362.741 522.19 362.741 522.63C362.741 522.91 362.831 523.17 363.011 523.41C363.191 523.65 363.561 523.87 364.121 524.07C364.681 524.27 365.531 524.48 366.671 524.7C368.031 524.94 369.111 525.3 369.911 525.78C370.711 526.26 371.281 526.82 371.621 527.46C371.981 528.08 372.161 528.75 372.161 529.47C372.161 530.41 371.881 531.25 371.321 531.99C370.761 532.71 369.941 533.28 368.861 533.7C367.801 534.1 366.491 534.3 364.931 534.3ZM375.76 534C375.56 534 375.39 533.93 375.25 533.79C375.11 533.65 375.04 533.47 375.04 533.25V519.15C375.04 518.93 375.11 518.75 375.25 518.61C375.39 518.47 375.56 518.4 375.76 518.4H378.76C378.98 518.4 379.16 518.47 379.3 518.61C379.44 518.75 379.51 518.93 379.51 519.15V533.25C379.51 533.47 379.44 533.65 379.3 533.79C379.16 533.93 378.98 534 378.76 534H375.76ZM375.67 516C375.47 516 375.3 515.93 375.16 515.79C375.02 515.65 374.95 515.47 374.95 515.25V512.85C374.95 512.63 375.02 512.45 375.16 512.31C375.3 512.15 375.47 512.07 375.67 512.07H378.82C379.04 512.07 379.22 512.15 379.36 512.31C379.52 512.45 379.6 512.63 379.6 512.85V515.25C379.6 515.47 379.52 515.65 379.36 515.79C379.22 515.93 379.04 516 378.82 516H375.67ZM388.793 534C388.493 534 388.263 533.93 388.103 533.79C387.963 533.63 387.843 533.45 387.743 533.25L382.103 519.33C382.063 519.25 382.043 519.16 382.043 519.06C382.043 518.88 382.103 518.73 382.223 518.61C382.363 518.47 382.523 518.4 382.703 518.4H385.613C385.873 518.4 386.063 518.47 386.183 518.61C386.323 518.75 386.413 518.88 386.453 519L390.143 528.9L393.833 519C393.893 518.88 393.983 518.75 394.103 518.61C394.243 518.47 394.433 518.4 394.673 518.4H397.583C397.763 518.4 397.913 518.47 398.033 518.61C398.173 518.73 398.243 518.88 398.243 519.06C398.243 519.16 398.233 519.25 398.213 519.33L392.543 533.25C392.463 533.45 392.343 533.63 392.183 533.79C392.023 533.93 391.793 534 391.493 534H388.793ZM401.512 534C401.312 534 401.142 533.93 401.002 533.79C400.862 533.65 400.792 533.47 400.792 533.25V519.15C400.792 518.93 400.862 518.75 401.002 518.61C401.142 518.47 401.312 518.4 401.512 518.4H404.512C404.732 518.4 404.912 518.47 405.052 518.61C405.192 518.75 405.262 518.93 405.262 519.15V533.25C405.262 533.47 405.192 533.65 405.052 533.79C404.912 533.93 404.732 534 404.512 534H401.512ZM401.422 516C401.222 516 401.052 515.93 400.912 515.79C400.772 515.65 400.702 515.47 400.702 515.25V512.85C400.702 512.63 400.772 512.45 400.912 512.31C401.052 512.15 401.222 512.07 401.422 512.07H404.572C404.792 512.07 404.972 512.15 405.112 512.31C405.272 512.45 405.352 512.63 405.352 512.85V515.25C405.352 515.47 405.272 515.65 405.112 515.79C404.972 515.93 404.792 516 404.572 516H401.422ZM416.525 534C415.285 534 414.225 533.8 413.345 533.4C412.465 532.98 411.795 532.34 411.335 531.48C410.895 530.62 410.675 529.54 410.675 528.24V521.94H408.335C408.115 521.94 407.935 521.87 407.795 521.73C407.655 521.59 407.585 521.41 407.585 521.19V519.15C407.585 518.93 407.655 518.75 407.795 518.61C407.935 518.47 408.115 518.4 408.335 518.4H410.675V513.45C410.675 513.23 410.745 513.05 410.885 512.91C411.045 512.77 411.225 512.7 411.425 512.7H414.365C414.585 512.7 414.765 512.77 414.905 512.91C415.045 513.05 415.115 513.23 415.115 513.45V518.4H418.865C419.065 518.4 419.235 518.47 419.375 518.61C419.515 518.75 419.585 518.93 419.585 519.15V521.19C419.585 521.41 419.515 521.59 419.375 521.73C419.235 521.87 419.065 521.94 418.865 521.94H415.115V527.88C415.115 528.64 415.245 529.24 415.505 529.68C415.785 530.1 416.265 530.31 416.945 530.31H419.135C419.335 530.31 419.505 530.38 419.645 530.52C419.785 530.66 419.855 530.83 419.855 531.03V533.25C419.855 533.47 419.785 533.65 419.645 533.79C419.505 533.93 419.335 534 419.135 534H416.525ZM425.322 539.7C425.162 539.7 425.012 539.64 424.872 539.52C424.752 539.4 424.692 539.25 424.692 539.07C424.692 539.03 424.702 538.97 424.722 538.89C424.742 538.83 424.772 538.75 424.812 538.65L427.152 533.04L421.392 519.45C421.332 519.29 421.302 519.16 421.302 519.06C421.322 518.88 421.392 518.73 421.512 518.61C421.632 518.47 421.782 518.4 421.962 518.4H424.872C425.132 518.4 425.322 518.47 425.442 518.61C425.562 518.73 425.652 518.86 425.712 519L429.432 528.3L433.242 519C433.322 518.84 433.422 518.7 433.542 518.58C433.662 518.46 433.852 518.4 434.112 518.4H436.962C437.142 518.4 437.292 518.47 437.412 518.61C437.552 518.73 437.622 518.87 437.622 519.03C437.622 519.13 437.582 519.27 437.502 519.45L429.012 539.1C428.952 539.26 428.852 539.4 428.712 539.52C428.592 539.64 428.402 539.7 428.142 539.7H425.322Z" fill="white"/>
<path d="M523.695 434.134C523.491 434.134 523.324 434.069 523.195 433.94C523.065 433.81 523.001 433.644 523.001 433.44V415.395C523.001 415.191 523.065 415.025 523.195 414.895C523.324 414.766 523.491 414.701 523.695 414.701H526.832C527.035 414.701 527.202 414.766 527.331 414.895C527.461 415.025 527.526 415.191 527.526 415.395V433.44C527.526 433.644 527.461 433.81 527.331 433.94C527.202 434.069 527.035 434.134 526.832 434.134H523.695ZM531.983 434.134C531.798 434.134 531.64 434.069 531.511 433.94C531.381 433.81 531.316 433.644 531.316 433.44V420.392C531.316 420.189 531.381 420.022 531.511 419.892C531.64 419.763 531.798 419.698 531.983 419.698H534.703C534.907 419.698 535.074 419.763 535.203 419.892C535.333 420.022 535.397 420.189 535.397 420.392V421.475C535.879 420.883 536.499 420.392 537.257 420.003C538.016 419.615 538.942 419.42 540.034 419.42C541.125 419.42 542.079 419.67 542.893 420.17C543.726 420.651 544.374 421.364 544.836 422.308C545.317 423.233 545.558 424.362 545.558 425.695V433.44C545.558 433.644 545.484 433.81 545.336 433.94C545.206 434.069 545.049 434.134 544.864 434.134H541.921C541.718 434.134 541.551 434.069 541.422 433.94C541.292 433.81 541.227 433.644 541.227 433.44V425.861C541.227 424.88 540.987 424.121 540.505 423.585C540.043 423.029 539.358 422.752 538.451 422.752C537.581 422.752 536.887 423.029 536.369 423.585C535.851 424.121 535.592 424.88 535.592 425.861V433.44C535.592 433.644 535.527 433.81 535.397 433.94C535.268 434.069 535.111 434.134 534.925 434.134H531.983ZM555.297 434.412C553.946 434.412 552.752 434.162 551.716 433.662C550.698 433.162 549.893 432.441 549.301 431.497C548.708 430.534 548.385 429.387 548.329 428.054C548.311 427.758 548.301 427.388 548.301 426.944C548.301 426.481 548.311 426.102 548.329 425.806C548.385 424.455 548.699 423.307 549.273 422.363C549.865 421.401 550.679 420.67 551.716 420.17C552.752 419.67 553.946 419.42 555.297 419.42C556.537 419.42 557.592 419.596 558.462 419.948C559.332 420.281 560.044 420.707 560.6 421.225C561.155 421.743 561.562 422.289 561.821 422.863C562.099 423.418 562.247 423.909 562.265 424.334C562.284 424.519 562.219 424.686 562.071 424.834C561.941 424.964 561.784 425.028 561.599 425.028H558.629C558.443 425.028 558.295 424.982 558.184 424.889C558.092 424.778 557.999 424.63 557.907 424.445C557.648 423.798 557.314 423.335 556.907 423.057C556.5 422.78 555.991 422.641 555.38 422.641C554.548 422.641 553.891 422.909 553.409 423.446C552.928 423.983 552.669 424.815 552.632 425.944C552.614 426.666 552.614 427.323 552.632 427.915C552.688 429.063 552.947 429.896 553.409 430.414C553.891 430.932 554.548 431.191 555.38 431.191C556.028 431.191 556.546 431.053 556.935 430.775C557.324 430.497 557.648 430.035 557.907 429.387C557.981 429.202 558.073 429.063 558.184 428.97C558.295 428.859 558.443 428.804 558.629 428.804H561.599C561.784 428.804 561.941 428.878 562.071 429.026C562.219 429.155 562.284 429.313 562.265 429.498C562.247 429.813 562.154 430.183 561.988 430.608C561.84 431.034 561.59 431.469 561.238 431.913C560.905 432.357 560.47 432.774 559.933 433.162C559.397 433.533 558.74 433.838 557.962 434.079C557.203 434.301 556.315 434.412 555.297 434.412ZM565.682 434.134C565.479 434.134 565.312 434.069 565.182 433.94C565.053 433.81 564.988 433.644 564.988 433.44V415.117C564.988 414.914 565.053 414.747 565.182 414.618C565.312 414.488 565.479 414.423 565.682 414.423H568.458C568.643 414.423 568.801 414.488 568.93 414.618C569.06 414.747 569.125 414.914 569.125 415.117V433.44C569.125 433.644 569.06 433.81 568.93 433.94C568.801 434.069 568.643 434.134 568.458 434.134H565.682ZM577.936 434.412C576.862 434.412 575.909 434.171 575.076 433.69C574.262 433.19 573.623 432.478 573.161 431.552C572.717 430.608 572.494 429.47 572.494 428.138V420.392C572.494 420.189 572.559 420.022 572.689 419.892C572.818 419.763 572.976 419.698 573.161 419.698H576.103C576.307 419.698 576.474 419.763 576.603 419.892C576.733 420.022 576.798 420.189 576.798 420.392V427.971C576.798 430.044 577.704 431.08 579.518 431.08C580.388 431.08 581.073 430.812 581.572 430.275C582.091 429.72 582.35 428.952 582.35 427.971V420.392C582.35 420.189 582.415 420.022 582.544 419.892C582.674 419.763 582.84 419.698 583.044 419.698H585.987C586.172 419.698 586.329 419.763 586.458 419.892C586.588 420.022 586.653 420.189 586.653 420.392V433.44C586.653 433.644 586.588 433.81 586.458 433.94C586.329 434.069 586.172 434.134 585.987 434.134H583.266C583.062 434.134 582.896 434.069 582.766 433.94C582.637 433.81 582.572 433.644 582.572 433.44V432.357C582.091 433.024 581.471 433.533 580.712 433.884C579.953 434.236 579.028 434.412 577.936 434.412ZM595.838 434.412C594.69 434.412 593.7 434.282 592.867 434.023C592.053 433.745 591.387 433.412 590.869 433.024C590.369 432.635 589.99 432.246 589.73 431.858C589.49 431.45 589.36 431.108 589.342 430.83C589.323 430.627 589.388 430.46 589.536 430.331C589.684 430.201 589.832 430.136 589.98 430.136H592.673C592.729 430.136 592.784 430.146 592.84 430.164C592.895 430.183 592.951 430.229 593.006 430.303C593.247 430.47 593.497 430.664 593.756 430.886C594.015 431.09 594.311 431.265 594.644 431.413C594.996 431.561 595.431 431.636 595.949 431.636C596.56 431.636 597.078 431.515 597.504 431.275C597.929 431.015 598.142 430.655 598.142 430.192C598.142 429.859 598.04 429.581 597.837 429.359C597.652 429.137 597.291 428.933 596.754 428.748C596.217 428.563 595.422 428.36 594.367 428.138C593.367 427.915 592.516 427.619 591.813 427.249C591.109 426.879 590.582 426.416 590.23 425.861C589.879 425.287 589.703 424.603 589.703 423.807C589.703 423.085 589.925 422.391 590.369 421.725C590.832 421.058 591.507 420.512 592.396 420.087C593.284 419.643 594.394 419.42 595.727 419.42C596.745 419.42 597.633 419.55 598.392 419.809C599.169 420.05 599.817 420.364 600.335 420.753C600.854 421.123 601.242 421.512 601.501 421.919C601.779 422.308 601.927 422.65 601.945 422.946C601.964 423.131 601.908 423.289 601.779 423.418C601.649 423.548 601.501 423.612 601.335 423.612H598.864C598.771 423.612 598.688 423.603 598.614 423.585C598.54 423.548 598.475 423.501 598.42 423.446C598.198 423.298 597.966 423.131 597.726 422.946C597.504 422.743 597.235 422.567 596.921 422.419C596.606 422.271 596.199 422.197 595.699 422.197C595.088 422.197 594.616 422.335 594.283 422.613C593.969 422.872 593.811 423.205 593.811 423.612C593.811 423.872 593.895 424.112 594.061 424.334C594.228 424.556 594.57 424.76 595.088 424.945C595.607 425.13 596.393 425.324 597.448 425.528C598.707 425.75 599.706 426.083 600.446 426.527C601.187 426.972 601.714 427.49 602.029 428.082C602.362 428.656 602.528 429.276 602.528 429.942C602.528 430.812 602.269 431.589 601.751 432.274C601.233 432.94 600.474 433.468 599.475 433.856C598.494 434.227 597.282 434.412 595.838 434.412ZM605.86 434.134C605.675 434.134 605.517 434.069 605.388 433.94C605.258 433.81 605.193 433.644 605.193 433.44V420.392C605.193 420.189 605.258 420.022 605.388 419.892C605.517 419.763 605.675 419.698 605.86 419.698H608.636C608.839 419.698 609.006 419.763 609.135 419.892C609.265 420.022 609.33 420.189 609.33 420.392V433.44C609.33 433.644 609.265 433.81 609.135 433.94C609.006 434.069 608.839 434.134 608.636 434.134H605.86ZM605.776 417.477C605.591 417.477 605.434 417.412 605.304 417.283C605.175 417.153 605.11 416.987 605.11 416.783V414.562C605.11 414.359 605.175 414.192 605.304 414.063C605.434 413.914 605.591 413.84 605.776 413.84H608.691C608.895 413.84 609.061 413.914 609.191 414.063C609.339 414.192 609.413 414.359 609.413 414.562V416.783C609.413 416.987 609.339 417.153 609.191 417.283C609.061 417.412 608.895 417.477 608.691 417.477H605.776ZM617.92 434.134C617.642 434.134 617.429 434.069 617.281 433.94C617.152 433.792 617.04 433.625 616.948 433.44L611.729 420.559C611.692 420.485 611.673 420.401 611.673 420.309C611.673 420.142 611.729 420.003 611.84 419.892C611.969 419.763 612.117 419.698 612.284 419.698H614.977C615.217 419.698 615.393 419.763 615.504 419.892C615.634 420.022 615.717 420.142 615.754 420.253L619.169 429.415L622.584 420.253C622.639 420.142 622.722 420.022 622.833 419.892C622.963 419.763 623.139 419.698 623.361 419.698H626.054C626.22 419.698 626.359 419.763 626.47 419.892C626.6 420.003 626.664 420.142 626.664 420.309C626.664 420.401 626.655 420.485 626.637 420.559L621.39 433.44C621.316 433.625 621.205 433.792 621.057 433.94C620.909 434.069 620.696 434.134 620.418 434.134H617.92ZM634.922 434.412C632.794 434.412 631.1 433.819 629.842 432.635C628.602 431.45 627.945 429.729 627.871 427.471C627.871 427.323 627.871 427.129 627.871 426.888C627.871 426.629 627.871 426.426 627.871 426.278C627.945 424.852 628.269 423.631 628.842 422.613C629.416 421.577 630.221 420.79 631.258 420.253C632.294 419.698 633.506 419.42 634.894 419.42C636.449 419.42 637.745 419.744 638.781 420.392C639.836 421.021 640.623 421.891 641.141 423.002C641.677 424.094 641.946 425.352 641.946 426.777V427.416C641.946 427.601 641.872 427.758 641.724 427.888C641.594 428.017 641.437 428.082 641.252 428.082H632.174C632.174 428.101 632.174 428.138 632.174 428.193C632.174 428.23 632.174 428.267 632.174 428.304C632.192 428.896 632.303 429.442 632.507 429.942C632.729 430.423 633.034 430.812 633.423 431.108C633.83 431.404 634.311 431.552 634.867 431.552C635.329 431.552 635.709 431.487 636.005 431.358C636.301 431.228 636.542 431.071 636.727 430.886C636.93 430.701 637.078 430.544 637.171 430.414C637.337 430.229 637.467 430.118 637.56 430.081C637.671 430.025 637.837 429.998 638.059 429.998H640.946C641.131 429.998 641.28 430.053 641.391 430.164C641.52 430.257 641.576 430.395 641.557 430.581C641.539 430.877 641.381 431.247 641.085 431.691C640.808 432.117 640.391 432.542 639.836 432.968C639.281 433.375 638.587 433.718 637.754 433.995C636.94 434.273 635.996 434.412 634.922 434.412ZM632.174 425.556H637.615V425.5C637.615 424.834 637.504 424.26 637.282 423.779C637.078 423.279 636.773 422.891 636.366 422.613C635.959 422.335 635.468 422.197 634.894 422.197C634.321 422.197 633.83 422.335 633.423 422.613C633.016 422.891 632.701 423.279 632.479 423.779C632.276 424.26 632.174 424.834 632.174 425.5V425.556ZM537.955 461.134C537.751 461.134 537.585 461.069 537.455 460.94C537.326 460.81 537.261 460.644 537.261 460.44V442.395C537.261 442.191 537.326 442.025 537.455 441.895C537.585 441.766 537.751 441.701 537.955 441.701H544.923C546.774 441.701 548.319 441.997 549.559 442.589C550.799 443.163 551.743 444.014 552.391 445.143C553.057 446.254 553.409 447.633 553.446 449.28C553.464 450.094 553.474 450.807 553.474 451.418C553.474 452.028 553.464 452.732 553.446 453.527C553.39 455.249 553.048 456.674 552.419 457.803C551.789 458.932 550.864 459.774 549.642 460.329C548.421 460.866 546.894 461.134 545.062 461.134H537.955ZM541.675 457.553H544.923C545.848 457.553 546.607 457.414 547.199 457.136C547.792 456.859 548.227 456.424 548.504 455.832C548.8 455.221 548.958 454.434 548.976 453.472C548.995 452.935 549.004 452.454 549.004 452.028C549.022 451.603 549.022 451.177 549.004 450.751C549.004 450.326 548.995 449.854 548.976 449.335C548.939 447.947 548.578 446.929 547.894 446.282C547.227 445.615 546.191 445.282 544.784 445.282H541.675V457.553ZM563.079 461.412C560.95 461.412 559.257 460.819 557.998 459.635C556.758 458.45 556.101 456.729 556.027 454.471C556.027 454.323 556.027 454.129 556.027 453.888C556.027 453.629 556.027 453.426 556.027 453.278C556.101 451.852 556.425 450.631 556.999 449.613C557.573 448.577 558.378 447.79 559.414 447.253C560.451 446.698 561.663 446.42 563.051 446.42C564.605 446.42 565.901 446.744 566.937 447.392C567.992 448.021 568.779 448.891 569.297 450.002C569.834 451.094 570.102 452.352 570.102 453.777V454.416C570.102 454.601 570.028 454.758 569.88 454.888C569.751 455.017 569.593 455.082 569.408 455.082H560.33C560.33 455.101 560.33 455.138 560.33 455.193C560.33 455.23 560.33 455.267 560.33 455.304C560.349 455.896 560.46 456.442 560.663 456.942C560.885 457.423 561.191 457.812 561.579 458.108C561.987 458.404 562.468 458.552 563.023 458.552C563.486 458.552 563.865 458.487 564.161 458.358C564.457 458.228 564.698 458.071 564.883 457.886C565.087 457.701 565.235 457.544 565.327 457.414C565.494 457.229 565.623 457.118 565.716 457.081C565.827 457.025 565.994 456.998 566.216 456.998H569.103C569.288 456.998 569.436 457.053 569.547 457.164C569.677 457.257 569.732 457.395 569.714 457.581C569.695 457.877 569.538 458.247 569.242 458.691C568.964 459.117 568.548 459.542 567.992 459.968C567.437 460.375 566.743 460.718 565.91 460.995C565.096 461.273 564.152 461.412 563.079 461.412ZM560.33 452.556H565.771V452.5C565.771 451.834 565.66 451.26 565.438 450.779C565.235 450.279 564.929 449.891 564.522 449.613C564.115 449.335 563.625 449.197 563.051 449.197C562.477 449.197 561.987 449.335 561.579 449.613C561.172 449.891 560.858 450.279 560.636 450.779C560.432 451.26 560.33 451.834 560.33 452.5V452.556ZM578.568 461.412C577.421 461.412 576.431 461.282 575.598 461.023C574.784 460.745 574.117 460.412 573.599 460.024C573.099 459.635 572.72 459.246 572.461 458.858C572.22 458.45 572.091 458.108 572.072 457.83C572.054 457.627 572.118 457.46 572.267 457.331C572.415 457.201 572.563 457.136 572.711 457.136H575.404C575.459 457.136 575.515 457.146 575.57 457.164C575.626 457.183 575.681 457.229 575.737 457.303C575.977 457.47 576.227 457.664 576.486 457.886C576.745 458.09 577.042 458.265 577.375 458.413C577.726 458.561 578.161 458.636 578.679 458.636C579.29 458.636 579.808 458.515 580.234 458.275C580.66 458.015 580.873 457.655 580.873 457.192C580.873 456.859 580.771 456.581 580.567 456.359C580.382 456.137 580.021 455.933 579.485 455.748C578.948 455.563 578.152 455.36 577.097 455.138C576.098 454.915 575.246 454.619 574.543 454.249C573.84 453.879 573.312 453.416 572.961 452.861C572.609 452.287 572.433 451.603 572.433 450.807C572.433 450.085 572.655 449.391 573.099 448.725C573.562 448.058 574.238 447.512 575.126 447.087C576.014 446.643 577.125 446.42 578.457 446.42C579.475 446.42 580.364 446.55 581.122 446.809C581.9 447.05 582.548 447.364 583.066 447.753C583.584 448.123 583.973 448.512 584.232 448.919C584.509 449.308 584.657 449.65 584.676 449.946C584.694 450.131 584.639 450.289 584.509 450.418C584.38 450.548 584.232 450.612 584.065 450.612H581.594C581.502 450.612 581.419 450.603 581.345 450.585C581.271 450.548 581.206 450.501 581.15 450.446C580.928 450.298 580.697 450.131 580.456 449.946C580.234 449.743 579.966 449.567 579.651 449.419C579.336 449.271 578.929 449.197 578.43 449.197C577.819 449.197 577.347 449.335 577.014 449.613C576.699 449.872 576.542 450.205 576.542 450.612C576.542 450.872 576.625 451.112 576.792 451.334C576.958 451.556 577.301 451.76 577.819 451.945C578.337 452.13 579.124 452.324 580.179 452.528C581.437 452.75 582.436 453.083 583.177 453.527C583.917 453.972 584.445 454.49 584.759 455.082C585.092 455.656 585.259 456.276 585.259 456.942C585.259 457.812 585 458.589 584.482 459.274C583.963 459.94 583.205 460.468 582.205 460.856C581.224 461.227 580.012 461.412 578.568 461.412ZM588.59 461.134C588.405 461.134 588.248 461.069 588.118 460.94C587.989 460.81 587.924 460.644 587.924 460.44V447.392C587.924 447.189 587.989 447.022 588.118 446.892C588.248 446.763 588.405 446.698 588.59 446.698H591.366C591.57 446.698 591.736 446.763 591.866 446.892C591.995 447.022 592.06 447.189 592.06 447.392V460.44C592.06 460.644 591.995 460.81 591.866 460.94C591.736 461.069 591.57 461.134 591.366 461.134H588.59ZM588.507 444.477C588.322 444.477 588.164 444.412 588.035 444.283C587.905 444.153 587.84 443.987 587.84 443.783V441.562C587.84 441.359 587.905 441.192 588.035 441.063C588.164 440.914 588.322 440.84 588.507 440.84H591.422C591.625 440.84 591.792 440.914 591.921 441.063C592.069 441.192 592.144 441.359 592.144 441.562V443.783C592.144 443.987 592.069 444.153 591.921 444.283C591.792 444.412 591.625 444.477 591.422 444.477H588.507ZM602.316 467.242C600.946 467.242 599.808 467.056 598.901 466.686C597.994 466.335 597.272 465.9 596.736 465.382C596.217 464.882 595.847 464.382 595.625 463.882C595.403 463.383 595.283 462.994 595.264 462.716C595.246 462.513 595.311 462.346 595.459 462.217C595.607 462.087 595.773 462.022 595.958 462.022H598.929C599.095 462.022 599.234 462.059 599.345 462.133C599.475 462.226 599.577 462.374 599.651 462.578C599.743 462.8 599.873 463.031 600.039 463.272C600.206 463.531 600.456 463.744 600.789 463.91C601.14 464.077 601.603 464.16 602.177 464.16C602.825 464.16 603.361 464.067 603.787 463.882C604.213 463.697 604.527 463.383 604.731 462.939C604.953 462.494 605.064 461.893 605.064 461.134V459.274C604.62 459.755 604.055 460.153 603.371 460.468C602.704 460.782 601.881 460.94 600.9 460.94C599.937 460.94 599.086 460.792 598.346 460.496C597.624 460.181 597.023 459.746 596.541 459.191C596.06 458.617 595.69 457.932 595.431 457.136C595.172 456.341 595.024 455.443 594.987 454.444C594.968 453.944 594.968 453.453 594.987 452.972C595.024 452.01 595.172 451.131 595.431 450.335C595.69 449.539 596.06 448.854 596.541 448.28C597.023 447.688 597.624 447.235 598.346 446.92C599.086 446.587 599.937 446.42 600.9 446.42C601.918 446.42 602.788 446.615 603.509 447.003C604.231 447.392 604.823 447.873 605.286 448.447V447.392C605.286 447.207 605.351 447.05 605.481 446.92C605.61 446.772 605.767 446.698 605.952 446.698H608.673C608.858 446.698 609.015 446.772 609.145 446.92C609.293 447.05 609.367 447.207 609.367 447.392L609.395 460.745C609.395 462.133 609.127 463.309 608.59 464.271C608.053 465.233 607.257 465.965 606.202 466.464C605.166 466.982 603.87 467.242 602.316 467.242ZM602.177 457.692C602.843 457.692 603.38 457.544 603.787 457.247C604.213 456.933 604.527 456.544 604.731 456.081C604.935 455.6 605.046 455.101 605.064 454.582C605.083 454.379 605.092 454.092 605.092 453.722C605.092 453.333 605.083 453.037 605.064 452.833C605.046 452.315 604.935 451.825 604.731 451.362C604.527 450.881 604.213 450.492 603.787 450.196C603.38 449.9 602.843 449.752 602.177 449.752C601.474 449.752 600.918 449.909 600.511 450.224C600.104 450.52 599.808 450.918 599.623 451.418C599.438 451.917 599.327 452.463 599.29 453.055C599.271 453.5 599.271 453.935 599.29 454.36C599.327 454.971 599.438 455.526 599.623 456.026C599.808 456.526 600.104 456.933 600.511 457.247C600.918 457.544 601.474 457.692 602.177 457.692ZM613.559 461.134C613.374 461.134 613.217 461.069 613.087 460.94C612.958 460.81 612.893 460.644 612.893 460.44V447.392C612.893 447.189 612.958 447.022 613.087 446.892C613.217 446.763 613.374 446.698 613.559 446.698H616.28C616.483 446.698 616.65 446.763 616.779 446.892C616.909 447.022 616.974 447.189 616.974 447.392V448.475C617.455 447.883 618.075 447.392 618.834 447.003C619.593 446.615 620.518 446.42 621.61 446.42C622.702 446.42 623.655 446.67 624.469 447.17C625.302 447.651 625.95 448.364 626.413 449.308C626.894 450.233 627.134 451.362 627.134 452.695V460.44C627.134 460.644 627.06 460.81 626.912 460.94C626.783 461.069 626.625 461.134 626.44 461.134H623.498C623.294 461.134 623.128 461.069 622.998 460.94C622.868 460.81 622.804 460.644 622.804 460.44V452.861C622.804 451.88 622.563 451.121 622.082 450.585C621.619 450.029 620.934 449.752 620.028 449.752C619.158 449.752 618.464 450.029 617.945 450.585C617.427 451.121 617.168 451.88 617.168 452.861V460.44C617.168 460.644 617.103 460.81 616.974 460.94C616.844 461.069 616.687 461.134 616.502 461.134H613.559Z" fill="white"/>
</svg>
