<svg width="1176" height="784" viewBox="0 0 1176 784" fill="none" xmlns="http://www.w3.org/2000/svg">
<rect width="1176" height="784" fill="white"/>
<circle cx="246" cy="392" r="131" stroke="#898989" stroke-width="6"/>
<circle cx="588" cy="392" r="131" stroke="#898989" stroke-width="6"/>
<circle cx="930" cy="392" r="131" stroke="#898989" stroke-width="6"/>
<path d="M202.756 318.902L222.464 370H212.86L207.987 356.455H187.777L182.761 370H173.516L193.224 318.902H202.756ZM205.622 349.719L198.026 328.219L190.071 349.719H205.622ZM225.831 344.415C226.691 336.102 232.066 331.874 242.028 331.874C246.615 331.874 250.341 332.805 253.065 334.597C255.788 336.46 257.221 339.255 257.221 343.054V361.83C257.221 362.905 257.293 363.622 257.579 363.98C257.866 364.41 258.368 364.553 259.156 364.553C259.729 364.553 260.303 364.553 261.019 364.41V370.143C258.869 370.717 257.149 370.932 255.716 370.932C252.205 370.932 250.198 369.498 249.696 366.488C246.543 369.498 242.243 370.932 236.725 370.932C232.855 370.932 229.845 370 227.623 367.993C225.33 365.987 224.255 363.335 224.255 359.895C224.255 358.892 224.326 357.888 224.613 356.957C224.828 356.097 225.115 355.308 225.401 354.592C225.688 353.947 226.19 353.302 226.906 352.728C227.623 352.155 228.196 351.725 228.626 351.295C229.056 350.937 229.845 350.579 230.848 350.22C231.851 349.934 232.64 349.647 233.141 349.504C233.643 349.36 234.503 349.145 235.793 348.93C237.011 348.787 237.8 348.644 238.23 348.572C238.66 348.5 239.52 348.357 240.81 348.214C243.676 347.855 245.683 347.569 246.758 347.282C247.761 346.995 248.478 346.637 248.908 346.064C249.195 345.705 249.41 344.845 249.41 343.412C249.41 339.685 246.83 337.822 241.813 337.822C239.09 337.822 237.155 338.324 235.936 339.327C234.646 340.33 233.858 342.05 233.571 344.415H225.831ZM249.338 351.439C248.693 351.797 247.976 352.083 247.188 352.37C246.328 352.657 245.683 352.8 245.181 352.872C244.68 352.943 243.891 353.015 242.816 353.158C241.741 353.302 241.025 353.445 240.738 353.445C239.735 353.588 238.946 353.732 238.373 353.875C237.8 354.018 237.083 354.162 236.223 354.448C235.363 354.735 234.718 355.093 234.288 355.523C233.858 355.953 233.428 356.455 233.141 357.172C232.783 357.888 232.64 358.677 232.64 359.608C232.64 361.4 233.213 362.762 234.36 363.693C235.506 364.697 237.155 365.127 239.305 365.127C242.888 365.127 245.683 364.195 247.69 362.188C248.765 361.113 249.338 358.963 249.338 355.81V351.439Z" fill="#E2E2E2"/>
<path d="M204.756 400.902L224.464 452H214.86L209.987 438.455H189.777L184.761 452H175.516L195.224 400.902H204.756ZM207.622 431.719L200.026 410.219L192.071 431.719H207.622ZM227.831 426.415C228.691 418.102 234.066 413.874 244.028 413.874C248.615 413.874 252.341 414.805 255.065 416.597C257.788 418.46 259.221 421.255 259.221 425.054V443.83C259.221 444.905 259.293 445.622 259.579 445.98C259.866 446.41 260.368 446.553 261.156 446.553C261.729 446.553 262.303 446.553 263.019 446.41V452.143C260.869 452.717 259.149 452.932 257.716 452.932C254.205 452.932 252.198 451.498 251.696 448.488C248.543 451.498 244.243 452.932 238.725 452.932C234.855 452.932 231.845 452 229.623 449.993C227.33 447.987 226.255 445.335 226.255 441.895C226.255 440.892 226.326 439.888 226.613 438.957C226.828 438.097 227.115 437.308 227.401 436.592C227.688 435.947 228.19 435.302 228.906 434.728C229.623 434.155 230.196 433.725 230.626 433.295C231.056 432.937 231.845 432.579 232.848 432.22C233.851 431.934 234.64 431.647 235.141 431.504C235.643 431.36 236.503 431.145 237.793 430.93C239.011 430.787 239.8 430.644 240.23 430.572C240.66 430.5 241.52 430.357 242.81 430.214C245.676 429.855 247.683 429.569 248.758 429.282C249.761 428.995 250.478 428.637 250.908 428.064C251.195 427.705 251.41 426.845 251.41 425.412C251.41 421.685 248.83 419.822 243.813 419.822C241.09 419.822 239.155 420.324 237.936 421.327C236.646 422.33 235.858 424.05 235.571 426.415H227.831ZM251.338 433.439C250.693 433.797 249.976 434.083 249.188 434.37C248.328 434.657 247.683 434.8 247.181 434.872C246.68 434.943 245.891 435.015 244.816 435.158C243.741 435.302 243.025 435.445 242.738 435.445C241.735 435.588 240.946 435.732 240.373 435.875C239.8 436.018 239.083 436.162 238.223 436.448C237.363 436.735 236.718 437.093 236.288 437.523C235.858 437.953 235.428 438.455 235.141 439.172C234.783 439.888 234.64 440.677 234.64 441.608C234.64 443.4 235.213 444.762 236.36 445.693C237.506 446.697 239.155 447.127 241.305 447.127C244.888 447.127 247.683 446.195 249.69 444.188C250.765 443.113 251.338 440.963 251.338 437.81V433.439Z" fill="black"/>
<path d="M319.128 422.155C319.766 422.759 320.139 423.591 320.163 424.469C320.188 425.347 319.863 426.199 319.26 426.837L300.489 446.712C300.185 447.034 299.82 447.291 299.414 447.469C299.009 447.647 298.572 447.741 298.13 447.748C297.687 447.754 297.248 447.671 296.837 447.505C296.427 447.338 296.055 447.091 295.742 446.778L285.804 436.841C285.219 436.213 284.9 435.382 284.916 434.524C284.931 433.666 285.278 432.847 285.885 432.24C286.492 431.633 287.311 431.286 288.169 431.271C289.027 431.255 289.858 431.574 290.486 432.159L298.016 439.685L314.446 422.288C315.05 421.65 315.882 421.277 316.76 421.252C317.637 421.227 318.489 421.552 319.128 422.155Z" fill="#006F06"/>
<path d="M602.736 470.416C603.205 470.86 603.479 471.472 603.498 472.118C603.516 472.764 603.277 473.391 602.833 473.861L589.021 488.486C588.797 488.723 588.528 488.912 588.229 489.043C587.931 489.174 587.61 489.243 587.284 489.248C586.958 489.253 586.635 489.192 586.333 489.069C586.031 488.947 585.757 488.765 585.527 488.535L578.214 481.222C577.784 480.76 577.549 480.149 577.56 479.518C577.572 478.886 577.827 478.284 578.274 477.837C578.721 477.39 579.323 477.135 579.955 477.123C580.586 477.112 581.197 477.347 581.659 477.777L587.201 483.315L599.291 470.513C599.734 470.044 600.347 469.77 600.993 469.751C601.639 469.733 602.266 469.972 602.736 470.416Z" fill="#006F06"/>
<path d="M944.031 450.154C944.579 450.672 944.899 451.387 944.92 452.14C944.942 452.894 944.663 453.626 944.145 454.174L928.028 471.239C927.766 471.515 927.453 471.736 927.104 471.889C926.756 472.042 926.381 472.123 926.001 472.128C925.621 472.134 925.244 472.063 924.892 471.92C924.54 471.777 924.22 471.565 923.951 471.296L915.418 462.763C914.916 462.224 914.642 461.511 914.655 460.774C914.668 460.037 914.967 459.334 915.488 458.813C916.009 458.292 916.712 457.994 917.449 457.981C918.186 457.968 918.899 458.241 919.438 458.744L925.904 465.206L940.011 450.268C940.529 449.72 941.244 449.4 941.998 449.379C942.752 449.357 943.483 449.636 944.031 450.154Z" fill="#006F06"/>
<path fill-rule="evenodd" clip-rule="evenodd" d="M284 342.167L288.167 338L299 348.833L309.833 338L314 342.167L303.167 353L314 363.833L309.833 368L299 357.167L288.167 368L284 363.833L294.833 353L284 342.167Z" fill="#D22022" stroke="#D22022" stroke-width="1.48148" stroke-linecap="round" stroke-linejoin="round"/>
<path fill-rule="evenodd" clip-rule="evenodd" d="M577.5 298.417L580.417 295.5L588 303.083L595.583 295.5L598.5 298.417L590.917 306L598.5 313.583L595.583 316.5L588 308.917L580.417 316.5L577.5 313.583L585.083 306L577.5 298.417Z" fill="#D22022" stroke="#D22022" stroke-width="1.03704" stroke-linecap="round" stroke-linejoin="round"/>
<path d="M140.551 566.041L153.316 599.138H147.096L143.939 590.365H130.849L127.6 599.138H121.612L134.377 566.041H140.551ZM142.408 586.001L137.487 572.076L132.335 586.001H142.408ZM176.525 590.086C176.154 593.057 174.947 595.378 172.997 597.142C171.001 598.906 168.495 599.741 165.524 599.741C161.903 599.741 159.072 598.627 156.936 596.353C154.801 594.078 153.733 591.107 153.733 587.394C153.733 583.448 154.801 580.292 156.936 577.971C159.072 575.65 161.996 574.443 165.663 574.443C168.727 574.443 171.187 575.232 173.044 576.764C174.9 578.342 176.014 580.477 176.339 583.216H171.094C170.769 581.731 170.166 580.57 169.237 579.735C168.309 578.946 167.102 578.528 165.709 578.528C163.667 578.528 162.042 579.317 160.882 580.849C159.675 582.381 159.118 584.469 159.118 587.115C159.118 589.808 159.675 591.85 160.789 593.335C161.903 594.821 163.481 595.563 165.524 595.563C167.102 595.563 168.355 595.099 169.376 594.171C170.398 593.243 171.048 591.85 171.326 590.086H176.525ZM201.39 590.086C201.018 593.057 199.811 595.378 197.862 597.142C195.866 598.906 193.359 599.741 190.388 599.741C186.768 599.741 183.936 598.627 181.801 596.353C179.666 594.078 178.598 591.107 178.598 587.394C178.598 583.448 179.666 580.292 181.801 577.971C183.936 575.65 186.861 574.443 190.528 574.443C193.591 574.443 196.052 575.232 197.908 576.764C199.765 578.342 200.879 580.477 201.204 583.216H195.959C195.634 581.731 195.03 580.57 194.102 579.735C193.174 578.946 191.967 578.528 190.574 578.528C188.532 578.528 186.907 579.317 185.747 580.849C184.54 582.381 183.983 584.469 183.983 587.115C183.983 589.808 184.54 591.85 185.654 593.335C186.768 594.821 188.346 595.563 190.388 595.563C191.967 595.563 193.22 595.099 194.241 594.171C195.262 593.243 195.912 591.85 196.191 590.086H201.39ZM225.976 591.664C225.372 594.264 224.073 596.306 222.123 597.745C220.174 599.231 217.806 599.927 215.114 599.927C211.493 599.927 208.615 598.766 206.48 596.445C204.345 594.124 203.324 591.107 203.324 587.44C203.324 583.727 204.391 580.617 206.573 578.157C208.755 575.743 211.54 574.489 214.928 574.489C218.41 574.489 221.195 575.696 223.237 578.11C225.28 580.524 226.301 583.773 226.301 587.904V588.461H208.615C208.662 590.875 209.265 592.778 210.426 594.078C211.54 595.378 213.164 596.028 215.207 596.028C216.646 596.028 217.806 595.703 218.735 595.006C219.663 594.31 220.359 593.196 220.916 591.664H225.976ZM221.009 584.934C220.823 582.938 220.22 581.359 219.106 580.199C217.992 579.038 216.599 578.435 214.882 578.435C213.118 578.435 211.725 578.992 210.658 580.106C209.59 581.22 208.94 582.845 208.708 584.934H221.009ZM248.38 582.149H243.321C242.996 579.642 241.278 578.342 238.122 578.342C236.729 578.342 235.708 578.621 234.965 579.085C234.223 579.595 233.851 580.292 233.851 581.127C233.851 581.406 233.851 581.684 233.898 581.87C233.944 582.102 234.037 582.288 234.176 582.473C234.316 582.659 234.455 582.798 234.548 582.891C234.641 583.03 234.873 583.17 235.151 583.263C235.43 583.402 235.615 583.495 235.801 583.587C235.987 583.68 236.265 583.773 236.683 583.866C237.054 583.959 237.379 584.052 237.611 584.098C237.843 584.191 238.215 584.284 238.772 584.377C239.282 584.469 239.7 584.562 239.979 584.609C241.186 584.887 242.021 585.119 242.578 585.259C243.135 585.398 243.924 585.676 244.945 586.094C245.967 586.512 246.756 586.93 247.266 587.394C247.731 587.858 248.195 588.461 248.613 589.251C249.03 590.04 249.262 590.922 249.262 591.943C249.262 594.357 248.288 596.306 246.431 597.699C244.528 599.138 241.975 599.834 238.818 599.834C235.383 599.834 232.784 599.138 230.973 597.699C229.117 596.306 228.142 594.217 228.049 591.479H233.109C233.387 594.496 235.29 595.981 238.911 595.981C240.443 595.981 241.696 595.703 242.625 595.053C243.553 594.403 244.064 593.567 244.064 592.5C244.064 591.989 243.924 591.525 243.692 591.154C243.46 590.782 243.089 590.504 242.578 590.225C242.021 589.947 241.51 589.761 241.046 589.622C240.582 589.483 239.932 589.297 239.143 589.111L238.865 589.065C238.772 589.065 238.725 589.018 238.633 589.018C238.54 589.018 238.447 588.972 238.354 588.926C234.919 588.09 232.784 587.44 231.855 586.976C229.627 585.955 228.56 584.191 228.56 581.731C228.56 579.503 229.395 577.739 231.159 576.439C232.877 575.139 235.29 574.489 238.354 574.489C241.278 574.489 243.692 575.139 245.549 576.393C247.406 577.692 248.38 579.595 248.38 582.149ZM271.523 582.149H266.463C266.138 579.642 264.421 578.342 261.264 578.342C259.872 578.342 258.85 578.621 258.108 579.085C257.365 579.595 256.994 580.292 256.994 581.127C256.994 581.406 256.994 581.684 257.04 581.87C257.086 582.102 257.179 582.288 257.319 582.473C257.458 582.659 257.597 582.798 257.69 582.891C257.783 583.03 258.015 583.17 258.293 583.263C258.572 583.402 258.758 583.495 258.943 583.587C259.129 583.68 259.407 583.773 259.825 583.866C260.196 583.959 260.521 584.052 260.754 584.098C260.986 584.191 261.357 584.284 261.914 584.377C262.425 584.469 262.842 584.562 263.121 584.609C264.328 584.887 265.163 585.119 265.72 585.259C266.277 585.398 267.066 585.676 268.088 586.094C269.109 586.512 269.898 586.93 270.409 587.394C270.873 587.858 271.337 588.461 271.755 589.251C272.172 590.04 272.405 590.922 272.405 591.943C272.405 594.357 271.43 596.306 269.573 597.699C267.67 599.138 265.117 599.834 261.96 599.834C258.525 599.834 255.926 599.138 254.116 597.699C252.259 596.306 251.284 594.217 251.191 591.479H256.251C256.529 594.496 258.433 595.981 262.053 595.981C263.585 595.981 264.838 595.703 265.767 595.053C266.695 594.403 267.206 593.567 267.206 592.5C267.206 591.989 267.066 591.525 266.834 591.154C266.602 590.782 266.231 590.504 265.72 590.225C265.163 589.947 264.653 589.761 264.188 589.622C263.724 589.483 263.074 589.297 262.285 589.111L262.007 589.065C261.914 589.065 261.868 589.018 261.775 589.018C261.682 589.018 261.589 588.972 261.496 588.926C258.061 588.09 255.926 587.44 254.998 586.976C252.77 585.955 251.702 584.191 251.702 581.731C251.702 579.503 252.537 577.739 254.301 576.439C256.019 575.139 258.433 574.489 261.496 574.489C264.421 574.489 266.834 575.139 268.691 576.393C270.548 577.692 271.523 579.595 271.523 582.149ZM281.111 565.948V571.147H275.819V565.948H281.111ZM281.111 575.186V599.138H275.819V575.186H281.111ZM291.24 566.088V578.296C293.003 575.836 295.603 574.582 299.084 574.582C302.241 574.582 304.794 575.743 306.743 577.971C308.693 580.245 309.668 583.263 309.668 586.976C309.668 590.875 308.647 593.985 306.697 596.306C304.701 598.627 302.055 599.788 298.806 599.788C295.185 599.788 292.539 598.488 290.961 595.888V599.138H285.994V566.088H291.24ZM297.738 578.806C295.649 578.806 294.025 579.549 292.818 581.034C291.611 582.52 291.054 584.609 291.054 587.208C291.054 589.808 291.611 591.804 292.818 593.289C294.025 594.774 295.649 595.517 297.738 595.517C299.688 595.517 301.312 594.774 302.519 593.243C303.726 591.711 304.33 589.668 304.33 587.069C304.33 584.562 303.726 582.52 302.519 581.034C301.312 579.549 299.734 578.806 297.738 578.806ZM318.827 565.948V571.147H313.536V565.948H318.827ZM318.827 575.186V599.138H313.536V575.186H318.827ZM329.096 566.088V599.138H323.85V566.088H329.096ZM339.364 565.948V571.147H334.072V565.948H339.364ZM339.364 575.186V599.138H334.072V575.186H339.364ZM355.899 575.186V579.038H351.071V591.664C351.071 592.407 351.071 592.964 351.118 593.243C351.118 593.521 351.211 593.846 351.396 594.217C351.535 594.589 351.814 594.821 352.185 594.914C352.557 595.053 353.114 595.099 353.81 595.099C354.645 595.099 355.342 595.099 355.899 595.006V599.184C354.831 599.323 353.624 599.37 352.325 599.37C351.396 599.37 350.561 599.323 349.864 599.184C349.168 599.045 348.611 598.859 348.147 598.674C347.683 598.488 347.265 598.209 346.986 597.745C346.661 597.281 346.429 596.91 346.244 596.631C346.058 596.353 345.965 595.796 345.872 595.053C345.78 594.31 345.78 593.753 345.78 593.382V591.339V591.061V590.782V590.457V579.038H341.788V575.186H345.78V567.991H351.071V575.186H355.899ZM379.851 575.186L370.985 598.674C370.892 598.906 370.707 599.37 370.475 600.066C370.196 600.762 370.057 601.227 369.964 601.459C369.871 601.737 369.685 602.155 369.407 602.758C369.128 603.408 368.943 603.826 368.804 604.058L368.107 605.172C367.782 605.683 367.504 606.054 367.225 606.24C366.947 606.472 366.622 606.75 366.25 607.075C365.879 607.4 365.461 607.632 365.09 607.772C364.672 607.911 364.208 608.05 363.697 608.143C363.187 608.236 362.63 608.282 362.073 608.282C361.052 608.282 359.845 608.189 358.406 608.004V603.547C359.52 603.78 360.448 603.872 361.191 603.872C361.562 603.872 361.887 603.826 362.212 603.733C362.491 603.64 362.769 603.455 363.048 603.176C363.28 602.898 363.512 602.666 363.697 602.433C363.883 602.201 364.022 601.876 364.208 601.459C364.394 601.041 364.533 600.716 364.626 600.484C364.719 600.252 364.812 599.88 364.997 599.37C365.136 598.906 365.229 598.581 365.276 598.441L356.085 575.186H361.887L368.293 592.825L374.327 575.186H379.851Z" fill="black"/>
<path d="M529.796 566.088V586.326C529.796 595.331 525.293 599.788 516.334 599.788C511.646 599.788 508.211 598.674 505.983 596.445C503.755 594.217 502.687 590.829 502.687 586.233V566.088H508.49V587.394C508.49 592.5 511.135 595.006 516.427 595.006C518.005 595.006 519.352 594.821 520.373 594.357C521.394 593.939 522.183 593.289 522.694 592.361C523.158 591.479 523.529 590.504 523.715 589.483C523.901 588.461 523.993 587.162 523.993 585.583V566.088H529.796ZM553.826 582.149H548.766C548.441 579.642 546.724 578.342 543.567 578.342C542.175 578.342 541.153 578.621 540.411 579.085C539.668 579.595 539.297 580.292 539.297 581.127C539.297 581.406 539.297 581.684 539.343 581.87C539.389 582.102 539.482 582.288 539.622 582.473C539.761 582.659 539.9 582.798 539.993 582.891C540.086 583.03 540.318 583.17 540.596 583.263C540.875 583.402 541.061 583.495 541.246 583.587C541.432 583.68 541.71 583.773 542.128 583.866C542.5 583.959 542.824 584.052 543.057 584.098C543.289 584.191 543.66 584.284 544.217 584.377C544.728 584.469 545.145 584.562 545.424 584.609C546.631 584.887 547.466 585.119 548.023 585.259C548.58 585.398 549.369 585.676 550.391 586.094C551.412 586.512 552.201 586.93 552.712 587.394C553.176 587.858 553.64 588.461 554.058 589.251C554.475 590.04 554.708 590.922 554.708 591.943C554.708 594.357 553.733 596.306 551.876 597.699C549.973 599.138 547.42 599.834 544.263 599.834C540.828 599.834 538.229 599.138 536.419 597.699C534.562 596.306 533.587 594.217 533.494 591.479H538.554C538.832 594.496 540.736 595.981 544.356 595.981C545.888 595.981 547.141 595.703 548.07 595.053C548.998 594.403 549.509 593.567 549.509 592.5C549.509 591.989 549.369 591.525 549.137 591.154C548.905 590.782 548.534 590.504 548.023 590.225C547.466 589.947 546.956 589.761 546.492 589.622C546.027 589.483 545.377 589.297 544.588 589.111L544.31 589.065C544.217 589.065 544.171 589.018 544.078 589.018C543.985 589.018 543.892 588.972 543.799 588.926C540.364 588.09 538.229 587.44 537.301 586.976C535.073 585.955 534.005 584.191 534.005 581.731C534.005 579.503 534.84 577.739 536.604 576.439C538.322 575.139 540.736 574.489 543.799 574.489C546.724 574.489 549.137 575.139 550.994 576.393C552.851 577.692 553.826 579.595 553.826 582.149ZM557.751 582.566C558.308 577.182 561.789 574.443 568.241 574.443C571.212 574.443 573.626 575.046 575.39 576.207C577.153 577.414 578.082 579.224 578.082 581.684V593.846C578.082 594.542 578.128 595.006 578.314 595.239C578.5 595.517 578.825 595.61 579.335 595.61C579.706 595.61 580.078 595.61 580.542 595.517V599.231C579.149 599.602 578.035 599.741 577.107 599.741C574.833 599.741 573.533 598.813 573.208 596.863C571.165 598.813 568.38 599.741 564.806 599.741C562.3 599.741 560.35 599.138 558.911 597.838C557.426 596.538 556.729 594.821 556.729 592.593C556.729 591.943 556.776 591.293 556.961 590.69C557.101 590.133 557.286 589.622 557.472 589.158C557.658 588.74 557.983 588.322 558.447 587.951C558.911 587.579 559.282 587.301 559.561 587.022C559.839 586.79 560.35 586.558 561 586.326C561.65 586.141 562.16 585.955 562.485 585.862C562.81 585.769 563.367 585.63 564.203 585.491C564.992 585.398 565.502 585.305 565.781 585.259C566.059 585.212 566.616 585.119 567.452 585.026C569.309 584.794 570.608 584.609 571.305 584.423C571.955 584.237 572.419 584.005 572.697 583.634C572.883 583.402 573.022 582.845 573.022 581.916C573.022 579.503 571.351 578.296 568.102 578.296C566.338 578.296 565.085 578.621 564.296 579.271C563.46 579.92 562.949 581.034 562.764 582.566H557.751ZM572.976 587.115C572.558 587.347 572.094 587.533 571.583 587.719C571.026 587.904 570.608 587.997 570.284 588.044C569.959 588.09 569.448 588.137 568.752 588.229C568.055 588.322 567.591 588.415 567.406 588.415C566.756 588.508 566.245 588.601 565.874 588.694C565.502 588.786 565.038 588.879 564.481 589.065C563.924 589.251 563.506 589.483 563.228 589.761C562.949 590.04 562.671 590.365 562.485 590.829C562.253 591.293 562.16 591.804 562.16 592.407C562.16 593.567 562.532 594.449 563.274 595.053C564.017 595.703 565.085 595.981 566.477 595.981C568.798 595.981 570.608 595.378 571.908 594.078C572.604 593.382 572.976 591.989 572.976 589.947V587.115ZM588.139 566.088V578.296C589.903 575.836 592.502 574.582 595.984 574.582C599.14 574.582 601.693 575.743 603.643 577.971C605.592 580.245 606.567 583.263 606.567 586.976C606.567 590.875 605.546 593.985 603.596 596.306C601.6 598.627 598.955 599.788 595.705 599.788C592.085 599.788 589.439 598.488 587.861 595.888V599.138H582.894V566.088H588.139ZM594.638 578.806C592.549 578.806 590.924 579.549 589.717 581.034C588.51 582.52 587.953 584.609 587.953 587.208C587.953 589.808 588.51 591.804 589.717 593.289C590.924 594.774 592.549 595.517 594.638 595.517C596.587 595.517 598.212 594.774 599.419 593.243C600.626 591.711 601.229 589.668 601.229 587.069C601.229 584.562 600.626 582.52 599.419 581.034C598.212 579.549 596.634 578.806 594.638 578.806ZM615.727 565.948V571.147H610.435V565.948H615.727ZM615.727 575.186V599.138H610.435V575.186H615.727ZM625.995 566.088V599.138H620.75V566.088H625.995ZM636.263 565.948V571.147H630.972V565.948H636.263ZM636.263 575.186V599.138H630.972V575.186H636.263ZM652.798 575.186V579.038H647.971V591.664C647.971 592.407 647.971 592.964 648.017 593.243C648.017 593.521 648.11 593.846 648.296 594.217C648.435 594.589 648.713 594.821 649.085 594.914C649.456 595.053 650.013 595.099 650.709 595.099C651.545 595.099 652.241 595.099 652.798 595.006V599.184C651.731 599.323 650.524 599.37 649.224 599.37C648.296 599.37 647.46 599.323 646.764 599.184C646.068 599.045 645.511 598.859 645.046 598.674C644.582 598.488 644.164 598.209 643.886 597.745C643.561 597.281 643.329 596.91 643.143 596.631C642.958 596.353 642.865 595.796 642.772 595.053C642.679 594.31 642.679 593.753 642.679 593.382V591.339V591.061V590.782V590.457V579.038H638.687V575.186H642.679V567.991H647.971V575.186H652.798ZM676.751 575.186L667.885 598.674C667.792 598.906 667.606 599.37 667.374 600.066C667.096 600.762 666.956 601.227 666.863 601.459C666.771 601.737 666.585 602.155 666.306 602.758C666.028 603.408 665.842 603.826 665.703 604.058L665.007 605.172C664.682 605.683 664.403 606.054 664.125 606.24C663.846 606.472 663.521 606.75 663.15 607.075C662.779 607.4 662.361 607.632 661.989 607.772C661.572 607.911 661.108 608.05 660.597 608.143C660.086 608.236 659.529 608.282 658.972 608.282C657.951 608.282 656.744 608.189 655.305 608.004V603.547C656.419 603.78 657.348 603.872 658.09 603.872C658.462 603.872 658.787 603.826 659.112 603.733C659.39 603.64 659.669 603.455 659.947 603.176C660.179 602.898 660.411 602.666 660.597 602.433C660.783 602.201 660.922 601.876 661.108 601.459C661.293 601.041 661.432 600.716 661.525 600.484C661.618 600.252 661.711 599.88 661.897 599.37C662.036 598.906 662.129 598.581 662.175 598.441L652.984 575.186H658.787L665.192 592.825L671.227 575.186H676.751Z" fill="black"/>
<path d="M837.578 566.088V599.138H831.729V566.088H837.578ZM848.037 575.186V578.714C849.94 575.928 852.586 574.536 855.975 574.536C858.667 574.536 860.709 575.279 862.056 576.764C863.402 578.249 864.098 580.385 864.098 583.17V599.138H858.806V585.212C858.806 584.284 858.76 583.495 858.667 582.845C858.574 582.195 858.342 581.545 858.064 580.895C857.785 580.245 857.321 579.781 856.671 579.456C856.021 579.131 855.186 578.946 854.164 578.946C850.265 578.946 848.316 581.406 848.316 586.233V599.138H843.024V575.186H848.037ZM890.427 590.086C890.056 593.057 888.849 595.378 886.9 597.142C884.904 598.906 882.397 599.741 879.426 599.741C875.806 599.741 872.974 598.627 870.839 596.353C868.704 594.078 867.636 591.107 867.636 587.394C867.636 583.448 868.704 580.292 870.839 577.971C872.974 575.65 875.898 574.443 879.566 574.443C882.629 574.443 885.089 575.232 886.946 576.764C888.803 578.342 889.917 580.477 890.242 583.216H884.997C884.672 581.731 884.068 580.57 883.14 579.735C882.211 578.946 881.005 578.528 879.612 578.528C877.57 578.528 875.945 579.317 874.784 580.849C873.578 582.381 873.021 584.469 873.021 587.115C873.021 589.808 873.578 591.85 874.692 593.335C875.806 594.821 877.384 595.563 879.426 595.563C881.005 595.563 882.258 595.099 883.279 594.171C884.3 593.243 884.95 591.85 885.229 590.086H890.427ZM898.999 566.088V599.138H893.754V566.088H898.999ZM924.864 575.186V599.138H919.897V595.563C917.855 598.395 915.256 599.788 912.006 599.788C909.36 599.788 907.318 599.045 905.925 597.559C904.533 596.074 903.837 593.892 903.837 591.061V575.186H909.128V588.879C909.128 589.715 909.128 590.411 909.175 590.922C909.175 591.432 909.268 591.989 909.453 592.639C909.639 593.289 909.871 593.753 910.196 594.078C910.521 594.449 910.985 594.728 911.589 594.96C912.192 595.239 912.935 595.331 913.817 595.331C915.766 595.331 917.252 594.635 918.18 593.243C919.108 591.85 919.573 590.04 919.573 587.858V575.186H924.864ZM948.548 582.149H943.488C943.163 579.642 941.446 578.342 938.289 578.342C936.897 578.342 935.876 578.621 935.133 579.085C934.39 579.595 934.019 580.292 934.019 581.127C934.019 581.406 934.019 581.684 934.065 581.87C934.112 582.102 934.205 582.288 934.344 582.473C934.483 582.659 934.622 582.798 934.715 582.891C934.808 583.03 935.04 583.17 935.319 583.263C935.597 583.402 935.783 583.495 935.968 583.587C936.154 583.68 936.433 583.773 936.85 583.866C937.222 583.959 937.547 584.052 937.779 584.098C938.011 584.191 938.382 584.284 938.939 584.377C939.45 584.469 939.868 584.562 940.146 584.609C941.353 584.887 942.188 585.119 942.746 585.259C943.303 585.398 944.092 585.676 945.113 586.094C946.134 586.512 946.923 586.93 947.434 587.394C947.898 587.858 948.362 588.461 948.78 589.251C949.198 590.04 949.43 590.922 949.43 591.943C949.43 594.357 948.455 596.306 946.598 597.699C944.695 599.138 942.142 599.834 938.986 599.834C935.551 599.834 932.951 599.138 931.141 597.699C929.284 596.306 928.309 594.217 928.217 591.479H933.276C933.555 594.496 935.458 595.981 939.078 595.981C940.61 595.981 941.864 595.703 942.792 595.053C943.72 594.403 944.231 593.567 944.231 592.5C944.231 591.989 944.092 591.525 943.86 591.154C943.627 590.782 943.256 590.504 942.746 590.225C942.188 589.947 941.678 589.761 941.214 589.622C940.75 589.483 940.1 589.297 939.311 589.111L939.032 589.065C938.939 589.065 938.893 589.018 938.8 589.018C938.707 589.018 938.614 588.972 938.521 588.926C935.086 588.09 932.951 587.44 932.023 586.976C929.795 585.955 928.727 584.191 928.727 581.731C928.727 579.503 929.563 577.739 931.327 576.439C933.044 575.139 935.458 574.489 938.521 574.489C941.446 574.489 943.86 575.139 945.716 576.393C947.573 577.692 948.548 579.595 948.548 582.149ZM958.136 565.948V571.147H952.844V565.948H958.136ZM958.136 575.186V599.138H952.844V575.186H958.136ZM960.559 575.186H966.315L972.442 593.614L978.338 575.186H983.815L975.228 599.184H969.286L960.559 575.186ZM991.546 565.948V571.147H986.255V565.948H991.546ZM991.546 575.186V599.138H986.255V575.186H991.546ZM1008.08 575.186V579.038H1003.25V591.664C1003.25 592.407 1003.25 592.964 1003.3 593.243C1003.3 593.521 1003.39 593.846 1003.58 594.217C1003.72 594.589 1004 594.821 1004.37 594.914C1004.74 595.053 1005.3 595.099 1005.99 595.099C1006.83 595.099 1007.52 595.099 1008.08 595.006V599.184C1007.01 599.323 1005.81 599.37 1004.51 599.37C1003.58 599.37 1002.74 599.323 1002.05 599.184C1001.35 599.045 1000.79 598.859 1000.33 598.674C999.865 598.488 999.447 598.209 999.169 597.745C998.844 597.281 998.612 596.91 998.426 596.631C998.24 596.353 998.147 595.796 998.055 595.053C997.962 594.31 997.962 593.753 997.962 593.382V591.339V591.061V590.782V590.457V579.038H993.97V575.186H997.962V567.991H1003.25V575.186H1008.08ZM1032.03 575.186L1023.17 598.674C1023.07 598.906 1022.89 599.37 1022.66 600.066C1022.38 600.762 1022.24 601.227 1022.15 601.459C1022.05 601.737 1021.87 602.155 1021.59 602.758C1021.31 603.408 1021.12 603.826 1020.99 604.058L1020.29 605.172C1019.96 605.683 1019.69 606.054 1019.41 606.24C1019.13 606.472 1018.8 606.75 1018.43 607.075C1018.06 607.4 1017.64 607.632 1017.27 607.772C1016.85 607.911 1016.39 608.05 1015.88 608.143C1015.37 608.236 1014.81 608.282 1014.26 608.282C1013.23 608.282 1012.03 608.189 1010.59 608.004V603.547C1011.7 603.78 1012.63 603.872 1013.37 603.872C1013.74 603.872 1014.07 603.826 1014.39 603.733C1014.67 603.64 1014.95 603.455 1015.23 603.176C1015.46 602.898 1015.69 602.666 1015.88 602.433C1016.07 602.201 1016.2 601.876 1016.39 601.459C1016.58 601.041 1016.72 600.716 1016.81 600.484C1016.9 600.252 1016.99 599.88 1017.18 599.37C1017.32 598.906 1017.41 598.581 1017.46 598.441L1008.27 575.186H1014.07L1020.48 592.825L1026.51 575.186H1032.03Z" fill="black"/>
<path d="M509.727 350.166C509.727 343.999 514.726 339 520.893 339H654.107C660.273 339 665.273 343.999 665.273 350.166V377.18C665.273 383.346 660.273 388.345 654.107 388.345H520.893C514.726 388.345 509.727 383.346 509.727 377.18V350.166Z" fill="#808080"/>
<path d="M565.361 359.695C565.287 359.038 564.982 358.529 564.445 358.169C563.909 357.803 563.233 357.62 562.419 357.62C561.836 357.62 561.332 357.713 560.907 357.898C560.481 358.078 560.15 358.328 559.914 358.647C559.683 358.962 559.567 359.32 559.567 359.723C559.567 360.061 559.646 360.352 559.803 360.597C559.965 360.842 560.176 361.048 560.435 361.215C560.698 361.377 560.981 361.513 561.281 361.624C561.582 361.731 561.871 361.818 562.149 361.888L563.536 362.249C563.99 362.36 564.455 362.51 564.931 362.7C565.408 362.889 565.849 363.139 566.256 363.449C566.663 363.759 566.992 364.143 567.242 364.601C567.496 365.059 567.623 365.607 567.623 366.245C567.623 367.05 567.415 367.765 566.999 368.39C566.587 369.014 565.988 369.507 565.202 369.868C564.42 370.228 563.474 370.409 562.364 370.409C561.3 370.409 560.379 370.24 559.602 369.902C558.825 369.565 558.217 369.086 557.777 368.466C557.338 367.841 557.095 367.101 557.049 366.245H559.2C559.241 366.759 559.408 367.187 559.699 367.529C559.995 367.867 560.372 368.119 560.83 368.285C561.293 368.447 561.799 368.528 562.35 368.528C562.956 368.528 563.495 368.434 563.967 368.244C564.443 368.05 564.818 367.781 565.091 367.439C565.364 367.092 565.5 366.687 565.5 366.225C565.5 365.804 565.38 365.459 565.139 365.191C564.903 364.922 564.582 364.7 564.175 364.525C563.772 364.349 563.317 364.194 562.808 364.06L561.129 363.602C559.991 363.292 559.089 362.836 558.422 362.235C557.761 361.633 557.43 360.838 557.43 359.848C557.43 359.029 557.652 358.314 558.096 357.704C558.54 357.093 559.142 356.619 559.9 356.281C560.659 355.939 561.515 355.768 562.468 355.768C563.43 355.768 564.279 355.937 565.014 356.274C565.754 356.612 566.337 357.077 566.763 357.669C567.188 358.257 567.411 358.932 567.429 359.695H565.361ZM576.184 365.753V359.515H578.266V370.173H576.226V368.327H576.115C575.87 368.896 575.477 369.37 574.935 369.75C574.399 370.124 573.73 370.312 572.93 370.312C572.245 370.312 571.639 370.161 571.112 369.861C570.589 369.555 570.178 369.104 569.877 368.508C569.581 367.911 569.433 367.173 569.433 366.294V359.515H571.507V366.044C571.507 366.771 571.709 367.349 572.111 367.779C572.514 368.209 573.036 368.424 573.679 368.424C574.068 368.424 574.454 368.327 574.838 368.133C575.227 367.939 575.548 367.645 575.803 367.252C576.062 366.858 576.189 366.359 576.184 365.753ZM580.634 370.173V355.962H582.709V361.243H582.834C582.954 361.021 583.127 360.764 583.354 360.472C583.581 360.181 583.895 359.926 584.298 359.709C584.7 359.487 585.232 359.376 585.894 359.376C586.754 359.376 587.522 359.593 588.197 360.028C588.873 360.463 589.402 361.09 589.786 361.909C590.175 362.727 590.369 363.713 590.369 364.865C590.369 366.016 590.177 367.004 589.793 367.828C589.409 368.646 588.882 369.278 588.211 369.722C587.54 370.161 586.775 370.381 585.914 370.381C585.267 370.381 584.737 370.272 584.325 370.055C583.918 369.837 583.599 369.583 583.368 369.292C583.137 369 582.958 368.741 582.834 368.514H582.66V370.173H580.634ZM582.667 364.844C582.667 365.593 582.776 366.25 582.993 366.814C583.211 367.379 583.525 367.821 583.937 368.14C584.349 368.454 584.853 368.612 585.45 368.612C586.069 368.612 586.587 368.447 587.004 368.119C587.42 367.786 587.735 367.335 587.947 366.766C588.165 366.197 588.274 365.556 588.274 364.844C588.274 364.141 588.167 363.509 587.954 362.95C587.746 362.39 587.432 361.948 587.011 361.624C586.594 361.3 586.074 361.138 585.45 361.138C584.848 361.138 584.339 361.293 583.923 361.603C583.511 361.913 583.199 362.346 582.986 362.901C582.773 363.456 582.667 364.104 582.667 364.844ZM592.113 370.173V359.515H594.104V361.249H594.236C594.458 360.662 594.821 360.204 595.325 359.876C595.83 359.543 596.433 359.376 597.136 359.376C597.849 359.376 598.446 359.543 598.927 359.876C599.412 360.209 599.771 360.667 600.002 361.249H600.113C600.368 360.681 600.772 360.227 601.327 359.889C601.883 359.547 602.544 359.376 603.312 359.376C604.279 359.376 605.067 359.679 605.678 360.285C606.293 360.891 606.601 361.805 606.601 363.026V370.173H604.526V363.22C604.526 362.498 604.33 361.976 603.936 361.652C603.543 361.328 603.074 361.166 602.528 361.166C601.852 361.166 601.327 361.374 600.953 361.791C600.578 362.202 600.391 362.732 600.391 363.38V370.173H598.323V363.088C598.323 362.51 598.143 362.045 597.782 361.694C597.421 361.342 596.951 361.166 596.373 361.166C595.98 361.166 595.617 361.27 595.284 361.478C594.955 361.682 594.689 361.967 594.486 362.332C594.287 362.697 594.187 363.121 594.187 363.602V370.173H592.113ZM608.796 370.173V359.515H610.87V370.173H608.796ZM609.843 357.87C609.482 357.87 609.173 357.75 608.913 357.509C608.659 357.264 608.532 356.973 608.532 356.635C608.532 356.293 608.659 356.001 608.913 355.761C609.173 355.516 609.482 355.393 609.843 355.393C610.204 355.393 610.512 355.516 610.766 355.761C611.025 356.001 611.155 356.293 611.155 356.635C611.155 356.973 611.025 357.264 610.766 357.509C610.512 357.75 610.204 357.87 609.843 357.87ZM618.05 359.515V361.18H612.229V359.515H618.05ZM613.79 356.961H615.865V367.043C615.865 367.446 615.925 367.749 616.045 367.952C616.165 368.151 616.32 368.288 616.51 368.362C616.704 368.431 616.915 368.466 617.141 368.466C617.308 368.466 617.454 368.454 617.578 368.431C617.703 368.408 617.801 368.39 617.87 368.376L618.245 370.09C618.124 370.136 617.953 370.182 617.731 370.228C617.509 370.279 617.232 370.307 616.898 370.312C616.353 370.321 615.844 370.224 615.372 370.02C614.9 369.817 614.518 369.502 614.227 369.077C613.936 368.651 613.79 368.117 613.79 367.474V356.961Z" fill="white"/>
<path d="M498 413.166C498 406.999 502.999 402 509.166 402H665.834C672.001 402 677 406.999 677 413.166V440.18C677 446.346 672.001 451.345 665.834 451.345H509.166C502.999 451.345 498 446.346 498 440.18V413.166Z" fill="#0970E6"/>
<path d="M534.881 422.695C534.807 422.038 534.502 421.529 533.965 421.169C533.429 420.803 532.753 420.62 531.939 420.62C531.356 420.62 530.852 420.713 530.426 420.898C530.001 421.078 529.67 421.328 529.434 421.647C529.203 421.962 529.087 422.32 529.087 422.723C529.087 423.061 529.166 423.352 529.323 423.597C529.485 423.842 529.695 424.048 529.955 424.215C530.218 424.377 530.5 424.513 530.801 424.624C531.102 424.731 531.391 424.818 531.668 424.888L533.056 425.249C533.51 425.36 533.974 425.51 534.451 425.7C534.927 425.889 535.369 426.139 535.776 426.449C536.183 426.759 536.512 427.143 536.762 427.601C537.016 428.059 537.143 428.607 537.143 429.245C537.143 430.05 536.935 430.765 536.519 431.39C536.107 432.014 535.508 432.507 534.722 432.868C533.94 433.228 532.994 433.409 531.884 433.409C530.82 433.409 529.899 433.24 529.122 432.902C528.345 432.565 527.736 432.086 527.297 431.466C526.857 430.841 526.615 430.101 526.568 429.245H528.719C528.761 429.759 528.928 430.187 529.219 430.529C529.515 430.867 529.892 431.119 530.35 431.285C530.813 431.447 531.319 431.528 531.87 431.528C532.476 431.528 533.015 431.434 533.486 431.244C533.963 431.05 534.338 430.781 534.61 430.439C534.883 430.092 535.02 429.687 535.02 429.225C535.02 428.804 534.9 428.459 534.659 428.191C534.423 427.922 534.102 427.7 533.695 427.525C533.292 427.349 532.836 427.194 532.328 427.06L530.648 426.602C529.51 426.292 528.608 425.836 527.942 425.235C527.281 424.633 526.95 423.838 526.95 422.848C526.95 422.029 527.172 421.314 527.616 420.704C528.06 420.093 528.662 419.619 529.42 419.281C530.179 418.939 531.035 418.768 531.988 418.768C532.95 418.768 533.799 418.937 534.534 419.274C535.274 419.612 535.857 420.077 536.283 420.669C536.708 421.257 536.93 421.932 536.949 422.695H534.881ZM542.054 433.409C541.379 433.409 540.768 433.284 540.222 433.034C539.677 432.78 539.244 432.412 538.925 431.931C538.61 431.45 538.453 430.86 538.453 430.161C538.453 429.56 538.569 429.065 538.8 428.676C539.031 428.288 539.344 427.98 539.737 427.754C540.13 427.527 540.569 427.356 541.055 427.24C541.541 427.124 542.036 427.037 542.54 426.976C543.178 426.902 543.696 426.842 544.094 426.796C544.492 426.745 544.781 426.664 544.962 426.553C545.142 426.442 545.232 426.262 545.232 426.012V425.963C545.232 425.357 545.061 424.888 544.719 424.555C544.381 424.222 543.877 424.055 543.206 424.055C542.508 424.055 541.957 424.21 541.555 424.52C541.157 424.825 540.882 425.165 540.729 425.54L538.779 425.096C539.01 424.448 539.348 423.926 539.792 423.528C540.241 423.125 540.757 422.834 541.34 422.654C541.922 422.469 542.535 422.376 543.178 422.376C543.604 422.376 544.055 422.427 544.531 422.529C545.013 422.626 545.461 422.806 545.878 423.07C546.299 423.334 546.643 423.711 546.911 424.201C547.18 424.687 547.314 425.318 547.314 426.095V433.173H545.288V431.716H545.205C545.07 431.984 544.869 432.248 544.601 432.507C544.333 432.766 543.988 432.981 543.567 433.152C543.146 433.323 542.642 433.409 542.054 433.409ZM542.505 431.743C543.079 431.743 543.569 431.63 543.976 431.403C544.388 431.177 544.7 430.881 544.913 430.515C545.131 430.145 545.239 429.75 545.239 429.329V427.955C545.165 428.029 545.022 428.098 544.809 428.163C544.601 428.223 544.363 428.276 544.094 428.323C543.826 428.364 543.565 428.404 543.31 428.441C543.056 428.473 542.843 428.501 542.672 428.524C542.269 428.575 541.902 428.66 541.569 428.781C541.24 428.901 540.976 429.074 540.778 429.301C540.583 429.523 540.486 429.819 540.486 430.189C540.486 430.703 540.676 431.091 541.055 431.355C541.434 431.614 541.918 431.743 542.505 431.743ZM558.227 422.515L554.362 433.173H552.142L548.27 422.515H550.497L553.196 430.717H553.307L556 422.515H558.227ZM563.822 433.388C562.772 433.388 561.867 433.164 561.109 432.715C560.355 432.262 559.772 431.625 559.36 430.807C558.953 429.983 558.749 429.019 558.749 427.913C558.749 426.821 558.953 425.859 559.36 425.027C559.772 424.194 560.345 423.544 561.081 423.077C561.821 422.61 562.686 422.376 563.676 422.376C564.277 422.376 564.86 422.475 565.425 422.674C565.989 422.873 566.495 423.186 566.944 423.611C567.393 424.037 567.747 424.59 568.006 425.27C568.265 425.945 568.394 426.766 568.394 427.733V428.468H559.922V426.914H566.361C566.361 426.368 566.25 425.885 566.028 425.464C565.806 425.038 565.494 424.703 565.092 424.458C564.694 424.212 564.226 424.09 563.69 424.09C563.107 424.09 562.598 424.233 562.163 424.52C561.733 424.802 561.4 425.172 561.164 425.63C560.933 426.084 560.817 426.576 560.817 427.108V428.323C560.817 429.035 560.942 429.641 561.192 430.141C561.446 430.64 561.8 431.022 562.254 431.285C562.707 431.545 563.237 431.674 563.843 431.674C564.236 431.674 564.594 431.619 564.918 431.508C565.242 431.392 565.522 431.221 565.758 430.994C565.994 430.767 566.174 430.488 566.299 430.154L568.263 430.508C568.105 431.087 567.823 431.593 567.416 432.028C567.014 432.458 566.507 432.794 565.896 433.034C565.29 433.27 564.599 433.388 563.822 433.388ZM579.185 433.388C578.153 433.388 577.265 433.154 576.52 432.687C575.78 432.215 575.211 431.565 574.813 430.737C574.415 429.909 574.216 428.961 574.216 427.892C574.216 426.81 574.42 425.855 574.827 425.027C575.234 424.194 575.808 423.544 576.548 423.077C577.288 422.61 578.16 422.376 579.164 422.376C579.973 422.376 580.695 422.526 581.329 422.827C581.962 423.123 582.474 423.539 582.862 424.076C583.255 424.613 583.489 425.239 583.563 425.956H581.544C581.433 425.457 581.178 425.027 580.781 424.666C580.387 424.305 579.86 424.125 579.198 424.125C578.62 424.125 578.114 424.277 577.679 424.583C577.249 424.883 576.913 425.313 576.673 425.873C576.432 426.428 576.312 427.085 576.312 427.844C576.312 428.621 576.43 429.292 576.666 429.856C576.902 430.42 577.235 430.858 577.665 431.168C578.1 431.477 578.611 431.632 579.198 431.632C579.592 431.632 579.948 431.561 580.267 431.417C580.591 431.269 580.861 431.059 581.079 430.786C581.301 430.513 581.456 430.185 581.544 429.801H583.563C583.489 430.49 583.265 431.105 582.89 431.646C582.515 432.188 582.013 432.613 581.384 432.923C580.76 433.233 580.027 433.388 579.185 433.388ZM587.27 426.845V433.173H585.196V418.962H587.242V424.249H587.374C587.624 423.676 588.006 423.22 588.519 422.883C589.033 422.545 589.703 422.376 590.531 422.376C591.262 422.376 591.901 422.526 592.447 422.827C592.997 423.128 593.423 423.576 593.723 424.173C594.029 424.765 594.181 425.505 594.181 426.394V433.173H592.107V426.643C592.107 425.862 591.905 425.256 591.503 424.825C591.1 424.391 590.541 424.173 589.824 424.173C589.333 424.173 588.894 424.277 588.505 424.485C588.121 424.694 587.818 424.999 587.596 425.401C587.379 425.799 587.27 426.28 587.27 426.845ZM599.465 433.409C598.79 433.409 598.179 433.284 597.634 433.034C597.088 432.78 596.655 432.412 596.336 431.931C596.021 431.45 595.864 430.86 595.864 430.161C595.864 429.56 595.98 429.065 596.211 428.676C596.442 428.288 596.755 427.98 597.148 427.754C597.541 427.527 597.98 427.356 598.466 427.24C598.952 427.124 599.447 427.037 599.951 426.976C600.589 426.902 601.108 426.842 601.505 426.796C601.903 426.745 602.192 426.664 602.373 426.553C602.553 426.442 602.643 426.262 602.643 426.012V425.963C602.643 425.357 602.472 424.888 602.13 424.555C601.792 424.222 601.288 424.055 600.617 424.055C599.919 424.055 599.368 424.21 598.966 424.52C598.568 424.825 598.293 425.165 598.14 425.54L596.19 425.096C596.422 424.448 596.759 423.926 597.203 423.528C597.652 423.125 598.168 422.834 598.751 422.654C599.334 422.469 599.946 422.376 600.589 422.376C601.015 422.376 601.466 422.427 601.943 422.529C602.424 422.626 602.872 422.806 603.289 423.07C603.71 423.334 604.054 423.711 604.323 424.201C604.591 424.687 604.725 425.318 604.725 426.095V433.173H602.699V431.716H602.616C602.481 431.984 602.28 432.248 602.012 432.507C601.744 432.766 601.399 432.981 600.978 433.152C600.557 433.323 600.053 433.409 599.465 433.409ZM599.916 431.743C600.49 431.743 600.98 431.63 601.387 431.403C601.799 431.177 602.111 430.881 602.324 430.515C602.542 430.145 602.65 429.75 602.65 429.329V427.955C602.576 428.029 602.433 428.098 602.22 428.163C602.012 428.223 601.774 428.276 601.505 428.323C601.237 428.364 600.976 428.404 600.721 428.441C600.467 428.473 600.254 428.501 600.083 428.524C599.68 428.575 599.313 428.66 598.98 428.781C598.651 428.901 598.388 429.074 598.189 429.301C597.994 429.523 597.897 429.819 597.897 430.189C597.897 430.703 598.087 431.091 598.466 431.355C598.846 431.614 599.329 431.743 599.916 431.743ZM608.977 426.845V433.173H606.902V422.515H608.894V424.249H609.026C609.271 423.685 609.655 423.232 610.177 422.889C610.705 422.547 611.369 422.376 612.169 422.376C612.895 422.376 613.531 422.529 614.077 422.834C614.623 423.135 615.046 423.583 615.347 424.18C615.647 424.777 615.798 425.515 615.798 426.394V433.173H613.723V426.643C613.723 425.871 613.522 425.267 613.119 424.832C612.717 424.393 612.164 424.173 611.461 424.173C610.98 424.173 610.552 424.277 610.177 424.485C609.807 424.694 609.514 424.999 609.296 425.401C609.083 425.799 608.977 426.28 608.977 426.845ZM622.463 437.392C621.616 437.392 620.888 437.281 620.277 437.059C619.671 436.837 619.176 436.543 618.792 436.177C618.408 435.812 618.121 435.412 617.932 434.977L619.715 434.241C619.84 434.445 620.006 434.66 620.215 434.887C620.427 435.118 620.714 435.315 621.075 435.477C621.44 435.638 621.91 435.719 622.484 435.719C623.27 435.719 623.92 435.527 624.433 435.143C624.947 434.764 625.204 434.158 625.204 433.326V431.23H625.072C624.947 431.457 624.766 431.709 624.53 431.986C624.299 432.264 623.98 432.504 623.573 432.708C623.166 432.911 622.636 433.013 621.984 433.013C621.142 433.013 620.383 432.817 619.708 432.423C619.037 432.026 618.505 431.44 618.112 430.668C617.723 429.891 617.529 428.936 617.529 427.802C617.529 426.669 617.721 425.697 618.105 424.888C618.494 424.078 619.026 423.458 619.701 423.028C620.376 422.593 621.142 422.376 621.998 422.376C622.659 422.376 623.194 422.487 623.601 422.709C624.008 422.926 624.325 423.181 624.551 423.472C624.783 423.764 624.961 424.021 625.086 424.243H625.238V422.515H627.271V433.409C627.271 434.325 627.059 435.076 626.633 435.664C626.207 436.251 625.631 436.686 624.905 436.968C624.184 437.251 623.369 437.392 622.463 437.392ZM622.442 431.292C623.039 431.292 623.543 431.154 623.955 430.876C624.371 430.594 624.685 430.191 624.898 429.669C625.116 429.141 625.224 428.51 625.224 427.774C625.224 427.057 625.118 426.426 624.905 425.88C624.692 425.334 624.38 424.909 623.968 424.603C623.557 424.293 623.048 424.138 622.442 424.138C621.817 424.138 621.297 424.3 620.881 424.624C620.464 424.943 620.15 425.378 619.937 425.929C619.729 426.479 619.625 427.094 619.625 427.774C619.625 428.473 619.731 429.086 619.944 429.613C620.157 430.141 620.471 430.552 620.888 430.848C621.309 431.144 621.827 431.292 622.442 431.292ZM634.061 433.388C633.011 433.388 632.107 433.164 631.348 432.715C630.594 432.262 630.011 431.625 629.599 430.807C629.192 429.983 628.989 429.019 628.989 427.913C628.989 426.821 629.192 425.859 629.599 425.027C630.011 424.194 630.585 423.544 631.32 423.077C632.06 422.61 632.925 422.376 633.915 422.376C634.517 422.376 635.1 422.475 635.664 422.674C636.228 422.873 636.735 423.186 637.184 423.611C637.632 424.037 637.986 424.59 638.245 425.27C638.504 425.945 638.634 426.766 638.634 427.733V428.468H630.162V426.914H636.601C636.601 426.368 636.49 425.885 636.268 425.464C636.046 425.038 635.733 424.703 635.331 424.458C634.933 424.212 634.466 424.09 633.929 424.09C633.346 424.09 632.838 424.233 632.403 424.52C631.973 424.802 631.639 425.172 631.404 425.63C631.172 426.084 631.057 426.576 631.057 427.108V428.323C631.057 429.035 631.182 429.641 631.431 430.141C631.686 430.64 632.04 431.022 632.493 431.285C632.946 431.545 633.476 431.674 634.082 431.674C634.475 431.674 634.834 431.619 635.157 431.508C635.481 431.392 635.761 431.221 635.997 430.994C636.233 430.767 636.413 430.488 636.538 430.154L638.502 430.508C638.345 431.087 638.063 431.593 637.655 432.028C637.253 432.458 636.746 432.794 636.136 433.034C635.53 433.27 634.838 433.388 634.061 433.388ZM648.336 425.117L646.456 425.45C646.377 425.209 646.252 424.98 646.081 424.763C645.915 424.546 645.688 424.367 645.401 424.229C645.114 424.09 644.756 424.021 644.326 424.021C643.738 424.021 643.248 424.152 642.855 424.416C642.461 424.675 642.265 425.01 642.265 425.422C642.265 425.778 642.397 426.065 642.66 426.283C642.924 426.5 643.349 426.678 643.937 426.817L645.63 427.205C646.611 427.432 647.342 427.781 647.823 428.253C648.304 428.725 648.544 429.338 648.544 430.092C648.544 430.73 648.359 431.299 647.989 431.799C647.624 432.294 647.113 432.683 646.456 432.965C645.804 433.247 645.047 433.388 644.187 433.388C642.993 433.388 642.02 433.134 641.266 432.625C640.512 432.111 640.049 431.383 639.878 430.439L641.883 430.134C642.008 430.656 642.265 431.052 642.653 431.32C643.042 431.584 643.548 431.716 644.173 431.716C644.853 431.716 645.396 431.575 645.804 431.292C646.211 431.006 646.414 430.656 646.414 430.245C646.414 429.912 646.289 429.632 646.039 429.405C645.794 429.178 645.417 429.007 644.908 428.892L643.104 428.496C642.11 428.269 641.374 427.909 640.898 427.414C640.426 426.919 640.19 426.292 640.19 425.533C640.19 424.904 640.366 424.354 640.717 423.882C641.069 423.41 641.555 423.042 642.175 422.778C642.794 422.51 643.504 422.376 644.305 422.376C645.457 422.376 646.363 422.626 647.025 423.125C647.686 423.62 648.123 424.284 648.336 425.117Z" fill="white"/>
</svg>
