<svg width="125" height="125" viewBox="0 0 125 125" fill="none" xmlns="http://www.w3.org/2000/svg">
<path d="M62.5 122.5C95.6371 122.5 122.5 95.6371 122.5 62.5C122.5 29.3629 95.6371 2.5 62.5 2.5C29.3629 2.5 2.5 29.3629 2.5 62.5C2.5 95.6371 29.3629 122.5 62.5 122.5Z" stroke="#5D66CF" stroke-width="5"/>
<path d="M74.5 32.5C74.5 35.6826 73.2357 38.7348 70.9853 40.9853C68.7348 43.2357 65.6826 44.5 62.5 44.5C59.3174 44.5 56.2652 43.2357 54.0147 40.9853C51.7643 38.7348 50.5 35.6826 50.5 32.5C50.5 29.3174 51.7643 26.2652 54.0147 24.0147C56.2652 21.7643 59.3174 20.5 62.5 20.5C65.6826 20.5 68.7348 21.7643 70.9853 24.0147C73.2357 26.2652 74.5 29.3174 74.5 32.5Z" stroke="#5D66CF" stroke-width="5"/>
<path d="M98.5 50.5C98.5 50.5 77.278 59.5 62.5 59.5C47.722 59.5 26.5 50.5 26.5 50.5M62.5 62.5V71.212M62.5 71.212C62.4983 74.6647 63.4897 78.0451 65.356 80.95L80.5 104.5M62.5 71.212C62.5017 74.6647 61.5103 78.0451 59.644 80.95L44.5 104.5" stroke="#5D66CF" stroke-width="5" stroke-linecap="round"/>
</svg>
